M48
; DRILL file {KiCad 9.0.1} date 2025-05-16T02:16:28+0200
; FORMAT={-:-/ absolute / metric / decimal}
; #@! TF.CreationDate,2025-05-16T02:16:28+02:00
; #@! TF.GenerationSoftware,Kicad,Pcbnew,9.0.1
; #@! TF.FileFunction,Plated,1,2,PTH
FMAT,2
METRIC
; #@! TA.AperFunction,Plated,PTH,ViaDrill
T1C0.300
; #@! TA.AperFunction,Plated,PTH,ViaDrill
T2C0.600
; #@! TA.AperFunction,Plated,PTH,ViaDrill
T3C1.000
; #@! TA.AperFunction,Plated,PTH,ComponentDrill
T4C1.000
; #@! TA.AperFunction,Plated,PTH,ComponentDrill
T5C1.020
; #@! TA.AperFunction,Plated,PTH,ComponentDrill
T6C1.320
; #@! TA.AperFunction,Plated,PTH,ComponentDrill
T7C1.540
; #@! TA.AperFunction,Plated,PTH,ComponentDrill
T8C2.000
%
G90
G05
T1
X168.91Y-115.062
X188.976Y-115.824
T2
X170.434Y-116.332
X170.434Y-118.832
X180.594Y-116.332
T3
X177.18Y-119.761
T4
X117.729Y-123.19
X120.269Y-123.19
X122.809Y-123.19
X166.402Y-104.521
X166.402Y-113.752
X166.402Y-116.292
X166.402Y-118.832
X166.402Y-121.372
X168.942Y-104.521
X190.119Y-106.045
X190.119Y-108.585
X190.119Y-111.125
T6
X115.124Y-132.588
X120.124Y-132.588
X127.364Y-132.588
X132.364Y-132.588
X139.604Y-132.588
X144.604Y-132.588
X151.844Y-132.588
X156.844Y-132.588
X164.084Y-132.588
X169.084Y-132.588
X177.18Y-132.588
X182.18Y-132.588
X187.18Y-132.588
T7
X123.35Y-104.139
X123.35Y-118.34
X146.25Y-104.139
X146.25Y-107.639
X146.25Y-115.239
X146.25Y-118.639
T8
X115.511Y-66.842
X115.511Y-88.392
X187.511Y-66.842
X187.511Y-88.392
T5
G00X156.508Y-100.426
M15
G01X155.658Y-100.426
M16
G05
G00X156.508Y-107.696
M15
G01X155.658Y-107.696
M16
G05
G00X156.508Y-116.776
M15
G01X155.658Y-116.776
M16
G05
G00X156.508Y-124.046
M15
G01X155.658Y-124.046
M16
G05
M30
