%TF.GenerationSoftware,KiCad,Pcbnew,9.0.1*%
%TF.CreationDate,2025-05-16T02:16:25+02:00*%
%TF.ProjectId,5V_Solar_18650_PCB,35565f53-6f6c-4617-925f-31383635305f,rev?*%
%TF.SameCoordinates,Original*%
%TF.FileFunction,Soldermask,Top*%
%TF.FilePolarity,Negative*%
%FSLAX46Y46*%
G04 Gerber Fmt 4.6, Leading zero omitted, Abs format (unit mm)*
G04 Created by KiCad (PCBNEW 9.0.1) date 2025-05-16 02:16:25*
%MOMM*%
%LPD*%
G01*
G04 APERTURE LIST*
G04 Aperture macros list*
%AMRoundRect*
0 Rectangle with rounded corners*
0 $1 Rounding radius*
0 $2 $3 $4 $5 $6 $7 $8 $9 X,Y pos of 4 corners*
0 Add a 4 corners polygon primitive as box body*
4,1,4,$2,$3,$4,$5,$6,$7,$8,$9,$2,$3,0*
0 Add four circle primitives for the rounded corners*
1,1,$1+$1,$2,$3*
1,1,$1+$1,$4,$5*
1,1,$1+$1,$6,$7*
1,1,$1+$1,$8,$9*
0 Add four rect primitives between the rounded corners*
20,1,$1+$1,$2,$3,$4,$5,0*
20,1,$1+$1,$4,$5,$6,$7,0*
20,1,$1+$1,$6,$7,$8,$9,0*
20,1,$1+$1,$8,$9,$2,$3,0*%
G04 Aperture macros list end*
%ADD10R,1.980000X3.960000*%
%ADD11O,1.980000X3.960000*%
%ADD12R,1.700000X1.700000*%
%ADD13C,1.700000*%
%ADD14R,2.800000X2.800000*%
%ADD15RoundRect,0.250000X-0.625000X0.312500X-0.625000X-0.312500X0.625000X-0.312500X0.625000X0.312500X0*%
%ADD16R,1.700000X2.500000*%
%ADD17RoundRect,0.500000X-0.900000X0.500000X-0.900000X-0.500000X0.900000X-0.500000X0.900000X0.500000X0*%
%ADD18O,2.800000X2.000000*%
%ADD19RoundRect,0.250000X-0.325000X-0.650000X0.325000X-0.650000X0.325000X0.650000X-0.325000X0.650000X0*%
%ADD20RoundRect,0.243750X0.456250X-0.243750X0.456250X0.243750X-0.456250X0.243750X-0.456250X-0.243750X0*%
%ADD21C,3.200000*%
%ADD22R,3.500000X3.500000*%
%ADD23C,3.500000*%
%ADD24RoundRect,0.250000X-0.312500X-0.625000X0.312500X-0.625000X0.312500X0.625000X-0.312500X0.625000X0*%
%ADD25R,2.500000X1.700000*%
%ADD26RoundRect,0.243750X0.243750X0.456250X-0.243750X0.456250X-0.243750X-0.456250X0.243750X-0.456250X0*%
%ADD27O,1.700000X1.700000*%
G04 APERTURE END LIST*
D10*
%TO.C,J2*%
X127364000Y-132588000D03*
D11*
X132364000Y-132588000D03*
%TD*%
D12*
%TO.C,JP1*%
X166402000Y-104521000D03*
D13*
X168942000Y-104521000D03*
%TD*%
D10*
%TO.C,J7*%
X177180000Y-132588000D03*
D11*
X182180000Y-132588000D03*
X187180000Y-132588000D03*
%TD*%
D10*
%TO.C,J4*%
X151844000Y-132588000D03*
D11*
X156844000Y-132588000D03*
%TD*%
D14*
%TO.C,PS1*%
X123350500Y-104139500D03*
X123350500Y-118339500D03*
X146250500Y-104139500D03*
X146250500Y-118639500D03*
X146250500Y-107639500D03*
X146250500Y-115239500D03*
%TD*%
D10*
%TO.C,J5*%
X164084000Y-132588000D03*
D11*
X169084000Y-132588000D03*
%TD*%
D12*
%TO.C,SW1*%
X117729000Y-123190000D03*
D13*
X120269000Y-123190000D03*
X122809000Y-123190000D03*
%TD*%
D15*
%TO.C,R1*%
X117729000Y-104455500D03*
X117729000Y-107380500D03*
%TD*%
D16*
%TO.C,D3*%
X117729000Y-116554000D03*
X117729000Y-112554000D03*
%TD*%
D17*
%TO.C,F1*%
X156083000Y-100426000D03*
X156083000Y-107696000D03*
D18*
X156083000Y-116776000D03*
X156083000Y-124046000D03*
%TD*%
D19*
%TO.C,C1*%
X182913500Y-110363000D03*
X185863500Y-110363000D03*
%TD*%
D20*
%TO.C,D1*%
X114173000Y-106330500D03*
X114173000Y-104455500D03*
%TD*%
D16*
%TO.C,D4*%
X188976000Y-122269000D03*
X188976000Y-118269000D03*
%TD*%
D12*
%TO.C,SW2*%
X190119000Y-106045000D03*
D13*
X190119000Y-108585000D03*
X190119000Y-111125000D03*
%TD*%
D21*
%TO.C,BT1*%
X124156000Y-66842000D03*
X179766000Y-66842000D03*
D22*
X115511000Y-66842000D03*
D23*
X187511000Y-66842000D03*
%TD*%
D24*
%TO.C,R2*%
X183007000Y-106680000D03*
X185932000Y-106680000D03*
%TD*%
D25*
%TO.C,D5*%
X168942000Y-108966000D03*
X172942000Y-108966000D03*
%TD*%
D10*
%TO.C,J1*%
X115124000Y-132588000D03*
D11*
X120124000Y-132588000D03*
%TD*%
D10*
%TO.C,J3*%
X139604000Y-132588000D03*
D11*
X144604000Y-132588000D03*
%TD*%
D26*
%TO.C,D2*%
X184882000Y-103582000D03*
X183007000Y-103582000D03*
%TD*%
D21*
%TO.C,BT2*%
X124156000Y-88392000D03*
X179766000Y-88392000D03*
D22*
X115511000Y-88392000D03*
D23*
X187511000Y-88392000D03*
%TD*%
D12*
%TO.C,J6*%
X166402000Y-113752000D03*
D27*
X166402000Y-116292000D03*
X166402000Y-118832000D03*
X166402000Y-121372000D03*
%TD*%
M02*
