%TF.GenerationSoftware,KiCad,Pcbnew,9.0.1*%
%TF.CreationDate,2025-05-16T02:16:25+02:00*%
%TF.ProjectId,5V_Solar_18650_PCB,35565f53-6f6c-4617-925f-31383635305f,rev?*%
%TF.SameCoordinates,Original*%
%TF.FileFunction,Profile,NP*%
%FSLAX46Y46*%
G04 Gerber Fmt 4.6, Leading zero omitted, Abs format (unit mm)*
G04 Created by KiCad (PCBNEW 9.0.1) date 2025-05-16 02:16:25*
%MOMM*%
%LPD*%
G01*
G04 APERTURE LIST*
%TA.AperFunction,Profile*%
%ADD10C,0.200000*%
%TD*%
%TA.AperFunction,Profile*%
%ADD11C,0.050000*%
%TD*%
G04 APERTURE END LIST*
D10*
X116205000Y-50800000D02*
G75*
G02*
X112395000Y-50800000I-1905000J0D01*
G01*
X112395000Y-50800000D02*
G75*
G02*
X116205000Y-50800000I1905000J0D01*
G01*
D11*
X105948222Y-143637000D02*
X109728000Y-143637000D01*
X191548000Y-45752000D02*
X111728000Y-45752000D01*
X200356014Y-140714826D02*
G75*
G02*
X197356417Y-143764017I-2999614J-49174D01*
G01*
D10*
X198755000Y-139700000D02*
G75*
G02*
X194945000Y-139700000I-1905000J0D01*
G01*
X194945000Y-139700000D02*
G75*
G02*
X198755000Y-139700000I1905000J0D01*
G01*
D11*
X102919986Y-138939174D02*
G75*
G02*
X105919583Y-135889983I2999614J49174D01*
G01*
X109728000Y-47752000D02*
X109728000Y-132890000D01*
X197327778Y-136017000D02*
X196548000Y-136017000D01*
X106728000Y-135890000D02*
X105919583Y-135890000D01*
X105948222Y-143637000D02*
G75*
G02*
X102948603Y-140686174I-22J3000000D01*
G01*
X196548000Y-136017000D02*
G75*
G02*
X193548000Y-133017000I0J3000000D01*
G01*
D10*
X190627000Y-50800000D02*
G75*
G02*
X186817000Y-50800000I-1905000J0D01*
G01*
X186817000Y-50800000D02*
G75*
G02*
X190627000Y-50800000I1905000J0D01*
G01*
D11*
X191548000Y-45752000D02*
G75*
G02*
X193548000Y-47752000I0J-2000000D01*
G01*
X200356014Y-140714826D02*
X200327374Y-138967826D01*
X193548000Y-133017000D02*
X193548000Y-47752000D01*
X102919986Y-138939174D02*
X102948626Y-140686174D01*
X109728000Y-132890000D02*
G75*
G02*
X106728000Y-135890000I-3000000J0D01*
G01*
X197327778Y-136017000D02*
G75*
G02*
X200327397Y-138967826I22J-3000000D01*
G01*
X109728000Y-47752000D02*
G75*
G02*
X111728000Y-45752000I2000000J0D01*
G01*
D10*
X108331000Y-139700000D02*
G75*
G02*
X104521000Y-139700000I-1905000J0D01*
G01*
X104521000Y-139700000D02*
G75*
G02*
X108331000Y-139700000I1905000J0D01*
G01*
D11*
X193548000Y-143764000D02*
X197356417Y-143764000D01*
X109728000Y-143637000D02*
X193548000Y-143764000D01*
M02*
