%TF.GenerationSoftware,KiCad,Pcbnew,9.0.1*%
%TF.CreationDate,2025-05-16T02:16:25+02:00*%
%TF.ProjectId,5V_Solar_18650_PCB,35565f53-6f6c-4617-925f-31383635305f,rev?*%
%TF.SameCoordinates,Original*%
%TF.FileFunction,Legend,Bot*%
%TF.FilePolarity,Positive*%
%FSLAX46Y46*%
G04 Gerber Fmt 4.6, Leading zero omitted, Abs format (unit mm)*
G04 Created by KiCad (PCBNEW 9.0.1) date 2025-05-16 02:16:25*
%MOMM*%
%LPD*%
G01*
G04 APERTURE LIST*
%ADD10C,0.000000*%
G04 APERTURE END LIST*
D10*
%TO.C,G\u002A\u002A\u002A*%
G36*
X184640093Y-53776276D02*
G01*
X184803180Y-53979525D01*
X184966843Y-54403706D01*
X185115057Y-54988564D01*
X185231797Y-55673841D01*
X185301039Y-56399282D01*
X185301109Y-56400547D01*
X185327230Y-57142681D01*
X185300524Y-57713453D01*
X185207544Y-58235779D01*
X185034845Y-58832573D01*
X184679443Y-59732967D01*
X183962130Y-60948273D01*
X183050443Y-61974965D01*
X182916264Y-62092257D01*
X182151950Y-62632441D01*
X181247004Y-63117542D01*
X180315014Y-63492737D01*
X179469568Y-63703206D01*
X179313529Y-63723781D01*
X177905371Y-63759130D01*
X176502555Y-63541411D01*
X176319314Y-63487754D01*
X175735456Y-63264587D01*
X175072108Y-62961159D01*
X174449899Y-62634970D01*
X173989457Y-62343518D01*
X173863299Y-62228920D01*
X173884170Y-62140896D01*
X174109526Y-62060760D01*
X174583609Y-61959949D01*
X175225508Y-61797578D01*
X176467377Y-61308245D01*
X177743908Y-60599507D01*
X178998643Y-59704711D01*
X180175123Y-58657207D01*
X180440816Y-58395529D01*
X180820137Y-58032894D01*
X181080828Y-57798306D01*
X181177755Y-57733355D01*
X181158876Y-57821951D01*
X181026599Y-58141290D01*
X180808195Y-58574005D01*
X180551548Y-59028078D01*
X180304538Y-59411490D01*
X180077676Y-59707296D01*
X179679728Y-60182863D01*
X179256168Y-60654398D01*
X178578340Y-61377423D01*
X179548206Y-61305419D01*
X180087922Y-61233602D01*
X181149397Y-60880376D01*
X182091819Y-60260140D01*
X182905218Y-59380454D01*
X183579626Y-58248875D01*
X183784283Y-57803100D01*
X183930078Y-57398530D01*
X184009944Y-56990388D01*
X184042273Y-56480904D01*
X184045452Y-55772309D01*
X184049595Y-55139706D01*
X184082137Y-54589274D01*
X184151306Y-54236451D01*
X184263893Y-54026987D01*
X184427979Y-53866511D01*
X184601023Y-53767046D01*
X184640093Y-53776276D01*
G37*
G36*
X168830103Y-55141022D02*
G01*
X168879850Y-55424632D01*
X169441752Y-58891607D01*
X169496530Y-59248823D01*
X169608010Y-59949101D01*
X169710131Y-60562660D01*
X169844499Y-61342484D01*
X167267268Y-61342484D01*
X167223120Y-61342480D01*
X166287954Y-61338889D01*
X165609556Y-61326340D01*
X165149246Y-61301488D01*
X164868342Y-61260990D01*
X164728166Y-61201501D01*
X164690036Y-61119677D01*
X164697703Y-61071553D01*
X164794978Y-60984237D01*
X165042865Y-60930859D01*
X165490101Y-60904157D01*
X166185426Y-60896870D01*
X166844366Y-60892721D01*
X167283031Y-60873788D01*
X167522669Y-60830935D01*
X167613143Y-60755027D01*
X167604313Y-60636929D01*
X167592250Y-60590331D01*
X167526802Y-60262018D01*
X167439494Y-59752791D01*
X167345797Y-59151549D01*
X167163782Y-57926110D01*
X165926909Y-57926110D01*
X165716707Y-57925206D01*
X165192273Y-57913884D01*
X164827080Y-57892325D01*
X164690036Y-57863990D01*
X164678521Y-57803699D01*
X164599875Y-57566914D01*
X164585740Y-57519366D01*
X164618606Y-57422324D01*
X164796136Y-57365431D01*
X165169078Y-57338654D01*
X165788179Y-57331958D01*
X166034878Y-57331260D01*
X166562855Y-57324313D01*
X166929299Y-57311511D01*
X167066441Y-57294824D01*
X167062328Y-57264620D01*
X167020753Y-57013695D01*
X166943967Y-56567433D01*
X166843837Y-55995116D01*
X166801476Y-55753974D01*
X166709318Y-55224076D01*
X166645281Y-54848126D01*
X166621233Y-54695408D01*
X166573120Y-54685814D01*
X166292246Y-54671646D01*
X165816335Y-54661900D01*
X165209919Y-54658274D01*
X164845267Y-54656158D01*
X164306911Y-54643796D01*
X163936586Y-54622848D01*
X163798808Y-54596153D01*
X163787293Y-54535863D01*
X163708647Y-54299077D01*
X163700060Y-54271719D01*
X163717496Y-54192616D01*
X163838242Y-54136329D01*
X164101047Y-54099097D01*
X164544658Y-54077159D01*
X165207823Y-54066754D01*
X166129289Y-54064122D01*
X168640092Y-54064122D01*
X168830103Y-55141022D01*
G37*
G36*
X161460602Y-54064300D02*
G01*
X161967280Y-54083058D01*
X162325885Y-54126655D01*
X162461966Y-54186485D01*
X162466980Y-54243051D01*
X162508623Y-54545659D01*
X162583312Y-55034036D01*
X162679987Y-55634731D01*
X162777293Y-56231258D01*
X162914926Y-57083726D01*
X163063279Y-58009539D01*
X163203529Y-58891607D01*
X163221856Y-59007266D01*
X163339455Y-59741227D01*
X163443061Y-60374641D01*
X163522038Y-60843186D01*
X163565753Y-61082543D01*
X163572164Y-61146665D01*
X163529226Y-61223462D01*
X163387258Y-61277167D01*
X163106653Y-61311850D01*
X162647804Y-61331583D01*
X161971105Y-61340438D01*
X161036948Y-61342484D01*
X160981158Y-61342477D01*
X160047255Y-61338824D01*
X159369765Y-61326217D01*
X158910061Y-61301327D01*
X158629522Y-61260826D01*
X158489523Y-61201386D01*
X158451439Y-61119677D01*
X158459107Y-61071553D01*
X158556382Y-60984237D01*
X158804268Y-60930859D01*
X159251504Y-60904157D01*
X159946829Y-60896870D01*
X160608111Y-60892700D01*
X161045543Y-60873759D01*
X161283999Y-60830906D01*
X161373253Y-60755008D01*
X161363077Y-60636929D01*
X161350287Y-60586942D01*
X161285778Y-60261424D01*
X161189844Y-59719626D01*
X161071829Y-59019862D01*
X160941073Y-58220448D01*
X160806920Y-57379701D01*
X160678710Y-56555934D01*
X160565787Y-55807465D01*
X160477491Y-55192607D01*
X160423164Y-54769677D01*
X160344637Y-54064122D01*
X161403301Y-54064122D01*
X161460602Y-54064300D01*
G37*
G36*
X154369066Y-54067812D02*
G01*
X155106895Y-54083982D01*
X155694524Y-54110781D01*
X156082999Y-54145763D01*
X156223369Y-54186485D01*
X156228384Y-54243051D01*
X156270027Y-54545659D01*
X156344715Y-55034036D01*
X156441391Y-55634731D01*
X156538696Y-56231258D01*
X156676330Y-57083726D01*
X156824683Y-58009539D01*
X156964932Y-58891607D01*
X156983259Y-59007266D01*
X157100859Y-59741227D01*
X157204464Y-60374641D01*
X157283441Y-60843186D01*
X157327156Y-61082543D01*
X157333567Y-61146665D01*
X157290630Y-61223462D01*
X157148662Y-61277167D01*
X156868056Y-61311850D01*
X156409207Y-61331583D01*
X155732508Y-61340438D01*
X154798352Y-61342484D01*
X154742561Y-61342477D01*
X153808659Y-61338824D01*
X153131168Y-61326217D01*
X152671465Y-61301327D01*
X152390926Y-61260826D01*
X152250926Y-61201386D01*
X152212843Y-61119677D01*
X152220510Y-61071553D01*
X152317785Y-60984237D01*
X152565672Y-60930859D01*
X153012908Y-60904157D01*
X153708233Y-60896870D01*
X154367075Y-60892721D01*
X154805791Y-60873790D01*
X155045479Y-60830937D01*
X155136004Y-60755028D01*
X155127231Y-60636929D01*
X155115332Y-60590637D01*
X155051421Y-60262443D01*
X154967092Y-59753071D01*
X154877326Y-59151549D01*
X154703813Y-57926110D01*
X153458328Y-57926110D01*
X153240589Y-57925153D01*
X152715399Y-57913766D01*
X152349927Y-57892237D01*
X152212843Y-57863990D01*
X152201328Y-57803699D01*
X152122682Y-57566914D01*
X152107990Y-57516019D01*
X152144238Y-57420708D01*
X152325819Y-57364831D01*
X152703261Y-57338534D01*
X153327089Y-57331958D01*
X153332508Y-57331958D01*
X153950285Y-57328551D01*
X154325749Y-57308383D01*
X154513267Y-57256498D01*
X154567209Y-57157939D01*
X154541944Y-56997748D01*
X154513260Y-56861771D01*
X154438517Y-56428702D01*
X154364818Y-55920847D01*
X154302332Y-55440203D01*
X154222470Y-55036559D01*
X154084153Y-54802351D01*
X153827805Y-54691771D01*
X153393851Y-54659014D01*
X152722716Y-54658274D01*
X152107013Y-54654464D01*
X151680460Y-54634582D01*
X151444239Y-54586894D01*
X151343055Y-54499674D01*
X151321615Y-54361198D01*
X151328149Y-54276342D01*
X151378820Y-54190232D01*
X151516039Y-54131223D01*
X151781911Y-54094211D01*
X152218540Y-54074092D01*
X152868033Y-54065764D01*
X153772492Y-54064122D01*
X154369066Y-54067812D01*
G37*
G36*
X147072100Y-54190544D02*
G01*
X148131970Y-54438381D01*
X149017666Y-54917268D01*
X149716012Y-55612271D01*
X150213830Y-56508458D01*
X150497944Y-57590895D01*
X150555177Y-58844649D01*
X150548699Y-58980855D01*
X150506668Y-59538301D01*
X150429906Y-59908996D01*
X150289953Y-60185485D01*
X150058350Y-60460314D01*
X149975613Y-60544170D01*
X149561922Y-60890667D01*
X149167814Y-61131953D01*
X149058459Y-61172719D01*
X148538992Y-61273746D01*
X147863188Y-61320258D01*
X147135526Y-61312238D01*
X146460482Y-61249667D01*
X145942537Y-61132526D01*
X145847775Y-61096682D01*
X145132405Y-60696891D01*
X144529090Y-60143885D01*
X144130234Y-59519888D01*
X144077994Y-59393893D01*
X143947123Y-59057910D01*
X143894714Y-58888601D01*
X143895056Y-58886752D01*
X144043318Y-58851712D01*
X144409180Y-58826812D01*
X144916847Y-58817338D01*
X145938979Y-58817338D01*
X146098417Y-59450523D01*
X146178212Y-59711584D01*
X146501039Y-60310042D01*
X146939641Y-60707877D01*
X147448589Y-60873175D01*
X147982450Y-60774020D01*
X148059802Y-60732137D01*
X148301756Y-60457221D01*
X148443502Y-59986551D01*
X148490757Y-59290304D01*
X148449239Y-58338653D01*
X148396183Y-57808057D01*
X148201816Y-56741124D01*
X147913616Y-55867558D01*
X147544128Y-55212481D01*
X147105896Y-54801013D01*
X146611462Y-54658274D01*
X146362872Y-54674160D01*
X145945048Y-54837430D01*
X145690097Y-55207544D01*
X145564595Y-55821642D01*
X145490835Y-56589268D01*
X144544237Y-56589268D01*
X143597638Y-56589268D01*
X143597638Y-56063370D01*
X143601951Y-55956122D01*
X143785762Y-55339215D01*
X144199351Y-54793881D01*
X144785942Y-54399609D01*
X145060987Y-54308213D01*
X145678718Y-54201430D01*
X146419860Y-54158127D01*
X147072100Y-54190544D01*
G37*
G36*
X142492925Y-57480496D02*
G01*
X142503080Y-57539449D01*
X142630900Y-58305516D01*
X142758828Y-59108140D01*
X142860597Y-59782835D01*
X142860661Y-59783282D01*
X142947046Y-60342467D01*
X143029821Y-60809224D01*
X143091074Y-61082543D01*
X143100161Y-61114701D01*
X143091557Y-61235542D01*
X142953312Y-61304371D01*
X142629668Y-61335310D01*
X142064864Y-61342484D01*
X140957685Y-61342484D01*
X140858132Y-60636929D01*
X140805223Y-60276672D01*
X140704758Y-59628665D01*
X140600600Y-58988015D01*
X140442621Y-58044658D01*
X139977732Y-58135923D01*
X139640332Y-58237318D01*
X139403570Y-58422850D01*
X139246331Y-58745044D01*
X139142665Y-59257369D01*
X139066623Y-60013295D01*
X138961422Y-61342484D01*
X137847264Y-61342484D01*
X137294222Y-61334467D01*
X136959055Y-61301685D01*
X136818410Y-61232611D01*
X136820120Y-61115728D01*
X136829887Y-61085096D01*
X136885883Y-60784685D01*
X136948375Y-60296038D01*
X137005573Y-59708613D01*
X137049498Y-59275875D01*
X137165299Y-58690935D01*
X137359600Y-58311150D01*
X137669671Y-58077782D01*
X138132783Y-57932090D01*
X138621615Y-57824564D01*
X137962166Y-57639222D01*
X137850480Y-57603428D01*
X137290898Y-57328165D01*
X136810996Y-56962158D01*
X136784140Y-56935157D01*
X136486043Y-56582441D01*
X136351008Y-56233209D01*
X136319276Y-55738786D01*
X136341567Y-55466503D01*
X138458276Y-55466503D01*
X138471612Y-56060543D01*
X138656788Y-56668332D01*
X138995570Y-57186215D01*
X139389893Y-57506719D01*
X139869514Y-57629034D01*
X140070506Y-57622677D01*
X140227969Y-57570730D01*
X140303656Y-57423873D01*
X140304487Y-57132806D01*
X140237380Y-56648231D01*
X140109255Y-55920847D01*
X140077450Y-55744728D01*
X139983243Y-55221825D01*
X139916272Y-54848212D01*
X139889370Y-54695408D01*
X139884794Y-54690828D01*
X139711876Y-54667695D01*
X139367729Y-54658274D01*
X139333429Y-54658533D01*
X138902591Y-54743680D01*
X138614451Y-55019706D01*
X138458276Y-55466503D01*
X136341567Y-55466503D01*
X136354792Y-55304955D01*
X136511559Y-54877190D01*
X136819794Y-54554681D01*
X137307997Y-54324956D01*
X138004666Y-54175541D01*
X138938300Y-54093965D01*
X140137399Y-54067753D01*
X141950259Y-54064122D01*
X142023235Y-54546870D01*
X142030082Y-54592184D01*
X142105817Y-55094325D01*
X142185486Y-55623771D01*
X142197286Y-55701031D01*
X142274455Y-56182475D01*
X142379388Y-56814204D01*
X142433678Y-57132806D01*
X142492925Y-57480496D01*
G37*
G36*
X131440385Y-54145392D02*
G01*
X132157114Y-54353870D01*
X132857121Y-54645007D01*
X133408839Y-54972049D01*
X133633085Y-55153767D01*
X134225778Y-55808023D01*
X134641923Y-56611870D01*
X134918130Y-57629775D01*
X134991256Y-58123113D01*
X134984362Y-59117076D01*
X134744795Y-59945673D01*
X134277148Y-60597075D01*
X133586017Y-61059455D01*
X133288535Y-61178769D01*
X132751779Y-61314071D01*
X132324944Y-61319939D01*
X132083401Y-61189835D01*
X132074357Y-61138178D01*
X132184585Y-60906025D01*
X132445980Y-60610357D01*
X132563315Y-60498016D01*
X132751170Y-60273914D01*
X132852925Y-60019061D01*
X132894772Y-59644715D01*
X132902901Y-59062131D01*
X132879835Y-58335478D01*
X132676371Y-56923934D01*
X132264519Y-55715494D01*
X132142642Y-55478793D01*
X131810440Y-55070069D01*
X131317643Y-54780181D01*
X131250679Y-54749146D01*
X130900134Y-54529457D01*
X130694943Y-54306045D01*
X130670077Y-54133507D01*
X130860504Y-54066442D01*
X131440385Y-54145392D01*
G37*
G36*
X130047914Y-54152846D02*
G01*
X130080679Y-54332039D01*
X130017260Y-54535477D01*
X129713621Y-54718194D01*
X129448678Y-54845739D01*
X129163189Y-55142776D01*
X129084127Y-55380413D01*
X129018925Y-55907719D01*
X129005350Y-56587785D01*
X129041352Y-57339344D01*
X129124875Y-58081130D01*
X129253868Y-58731876D01*
X129261509Y-58760912D01*
X129575495Y-59661719D01*
X129983140Y-60303254D01*
X130510194Y-60714808D01*
X131182405Y-60925673D01*
X131346856Y-60980243D01*
X131528994Y-61156812D01*
X131521330Y-61234305D01*
X131321000Y-61316838D01*
X130857913Y-61342484D01*
X130733758Y-61340829D01*
X129674530Y-61176520D01*
X128751074Y-60751120D01*
X127981177Y-60075791D01*
X127382625Y-59161695D01*
X127178562Y-58720152D01*
X127015642Y-58236202D01*
X126937517Y-57723416D01*
X126914610Y-57048227D01*
X126922410Y-56443105D01*
X126970555Y-55996437D01*
X127079264Y-55659533D01*
X127268413Y-55336213D01*
X127799483Y-54795851D01*
X128548423Y-54384105D01*
X129449392Y-54138027D01*
X129551191Y-54122333D01*
X129897485Y-54090955D01*
X130047914Y-54152846D01*
G37*
G36*
X120258060Y-54066110D02*
G01*
X120364143Y-54094490D01*
X120475578Y-54178768D01*
X120611252Y-54348575D01*
X120790049Y-54633543D01*
X121030855Y-55063302D01*
X121352555Y-55667482D01*
X121774034Y-56475715D01*
X122314179Y-57517631D01*
X122504860Y-57878098D01*
X122775357Y-58362025D01*
X122980032Y-58694042D01*
X123085184Y-58817338D01*
X123118132Y-58773168D01*
X123207961Y-58501392D01*
X123323275Y-58036826D01*
X123447237Y-57443362D01*
X123488039Y-57232518D01*
X123636493Y-56476837D01*
X123782561Y-55747854D01*
X123899757Y-55178157D01*
X124087515Y-54286929D01*
X125205462Y-54243941D01*
X126323410Y-54200952D01*
X126057368Y-55432245D01*
X126014375Y-55632039D01*
X125868910Y-56314340D01*
X125689089Y-57164089D01*
X125493719Y-58092265D01*
X125301605Y-59009842D01*
X124811884Y-61356147D01*
X124239607Y-61312181D01*
X124088470Y-61298837D01*
X123896018Y-61257479D01*
X123727221Y-61155600D01*
X123549317Y-60952918D01*
X123329542Y-60609149D01*
X123035135Y-60084011D01*
X122633333Y-59337221D01*
X122479963Y-59049683D01*
X122122856Y-58371034D01*
X121824636Y-57791590D01*
X121612858Y-57365343D01*
X121515080Y-57146286D01*
X121467554Y-57024989D01*
X121330554Y-56895353D01*
X121197926Y-57040052D01*
X121092062Y-57443362D01*
X121039840Y-57734909D01*
X120925104Y-58301722D01*
X120794252Y-58891607D01*
X120709045Y-59260247D01*
X120551485Y-59954945D01*
X120416889Y-60562660D01*
X120313609Y-60998076D01*
X120201255Y-61237752D01*
X120018706Y-61328386D01*
X119699234Y-61342484D01*
X119412925Y-61327306D01*
X119185198Y-61235118D01*
X118989375Y-61001620D01*
X118747130Y-60562660D01*
X118570901Y-60227175D01*
X118218366Y-59572473D01*
X117882948Y-58965876D01*
X117754156Y-58737182D01*
X117444560Y-58185821D01*
X117122640Y-57609687D01*
X116744634Y-56930352D01*
X116266782Y-56069385D01*
X116010534Y-55607858D01*
X115718946Y-55083759D01*
X115502228Y-54695408D01*
X115231953Y-54212660D01*
X115723560Y-54212660D01*
X115771507Y-54212823D01*
X115941144Y-54226289D01*
X116088562Y-54287614D01*
X116239267Y-54433276D01*
X116418766Y-54699752D01*
X116652563Y-55123519D01*
X116966167Y-55741054D01*
X117385083Y-56588833D01*
X117734913Y-57285458D01*
X118078384Y-57939648D01*
X118360862Y-58445802D01*
X118559956Y-58763929D01*
X118653278Y-58854038D01*
X118674099Y-58809118D01*
X118754831Y-58520618D01*
X118871455Y-58018138D01*
X119011696Y-57356186D01*
X119163280Y-56589268D01*
X119227399Y-56255986D01*
X119372914Y-55515616D01*
X119498813Y-54896527D01*
X119593380Y-54455619D01*
X119644902Y-54249794D01*
X119793963Y-54125836D01*
X120113068Y-54064122D01*
X120138446Y-54063999D01*
X120258060Y-54066110D01*
G37*
G36*
X185551103Y-51233978D02*
G01*
X185433502Y-51416021D01*
X185185697Y-51761783D01*
X184039244Y-53274633D01*
X182543048Y-55056427D01*
X181053751Y-56617287D01*
X179586029Y-57944194D01*
X178154553Y-59024130D01*
X176774000Y-59844077D01*
X175459042Y-60391016D01*
X175264815Y-60445327D01*
X174581964Y-60556105D01*
X173856681Y-60581702D01*
X173198117Y-60522587D01*
X172715422Y-60379229D01*
X172235029Y-60014556D01*
X171798299Y-59354048D01*
X171495698Y-58436894D01*
X171324818Y-57257689D01*
X171314641Y-57125057D01*
X171301710Y-56779618D01*
X171337783Y-56685559D01*
X171430985Y-56808507D01*
X171699461Y-57205880D01*
X172374869Y-57831313D01*
X173201868Y-58230178D01*
X174122199Y-58368700D01*
X174212643Y-58367397D01*
X175279453Y-58225496D01*
X176480216Y-57863986D01*
X177779951Y-57303460D01*
X179143674Y-56564514D01*
X180536403Y-55667742D01*
X181923156Y-54633736D01*
X183268950Y-53483093D01*
X184538804Y-52236406D01*
X184971587Y-51781023D01*
X185335256Y-51405393D01*
X185523391Y-51226740D01*
X185551103Y-51233978D01*
G37*
G36*
X179168368Y-49755861D02*
G01*
X179870798Y-49891259D01*
X181152799Y-50295353D01*
X182240560Y-50882952D01*
X183173861Y-51673097D01*
X183758857Y-52277226D01*
X183429835Y-52627453D01*
X183100814Y-52977681D01*
X182592035Y-52497840D01*
X182059593Y-52075395D01*
X181073924Y-51564876D01*
X179962759Y-51246596D01*
X178796320Y-51131563D01*
X177644828Y-51230783D01*
X176578504Y-51555263D01*
X176089542Y-51810953D01*
X175447273Y-52295047D01*
X174951216Y-52852979D01*
X174623682Y-53440446D01*
X174486984Y-54013146D01*
X174563434Y-54526777D01*
X174875344Y-54937035D01*
X175356741Y-55198268D01*
X176142048Y-55350375D01*
X177110760Y-55310607D01*
X178239952Y-55080329D01*
X179506702Y-54660910D01*
X179638271Y-54610317D01*
X180119284Y-54430909D01*
X180456481Y-54314072D01*
X180583603Y-54283055D01*
X180568510Y-54299761D01*
X180380355Y-54442364D01*
X180022312Y-54693979D01*
X179551810Y-55013928D01*
X178973593Y-55382030D01*
X177892378Y-55983381D01*
X176820566Y-56480636D01*
X175860994Y-56823378D01*
X175425008Y-56920517D01*
X174672917Y-56993177D01*
X173926934Y-56970765D01*
X173280383Y-56858283D01*
X172826591Y-56660734D01*
X172406888Y-56237868D01*
X172079102Y-55531810D01*
X171971661Y-54635826D01*
X171989850Y-54271696D01*
X172189837Y-53419219D01*
X172630569Y-52610287D01*
X173337078Y-51792781D01*
X174290668Y-51005509D01*
X175448832Y-50349743D01*
X176688736Y-49908594D01*
X177949031Y-49703490D01*
X179168368Y-49755861D01*
G37*
%TD*%
M02*
