G04 #@! TF.GenerationSoftware,KiCad,Pcbnew,9.0.1*
G04 #@! TF.CreationDate,2025-06-13T00:55:15+02:00*
G04 #@! TF.ProjectId,Garagentor_LEDs,47617261-6765-46e7-946f-725f4c454473,rev?*
G04 #@! TF.SameCoordinates,Original*
G04 #@! TF.FileFunction,Soldermask,Bot*
G04 #@! TF.FilePolarity,Negative*
%FSLAX46Y46*%
G04 Gerber Fmt 4.6, Leading zero omitted, Abs format (unit mm)*
G04 Created by KiCad (PCBNEW 9.0.1) date 2025-06-13 00:55:15*
%MOMM*%
%LPD*%
G01*
G04 APERTURE LIST*
G04 APERTURE END LIST*
G36*
X179540001Y-85455008D02*
G01*
X179687246Y-85515998D01*
X179819762Y-85604543D01*
X179932457Y-85717238D01*
X180021002Y-85849754D01*
X180081992Y-85996999D01*
X180113085Y-86153312D01*
X180113085Y-86312688D01*
X180081992Y-86469001D01*
X180021002Y-86616246D01*
X179932457Y-86748762D01*
X179819762Y-86861457D01*
X179687246Y-86950002D01*
X179540001Y-87010992D01*
X179383688Y-87042085D01*
X179224312Y-87042085D01*
X179067999Y-87010992D01*
X178920754Y-86950002D01*
X178788238Y-86861457D01*
X178675543Y-86748762D01*
X178586998Y-86616246D01*
X178526008Y-86469001D01*
X178494915Y-86312688D01*
X178494915Y-86153312D01*
X178526008Y-85996999D01*
X178586998Y-85849754D01*
X178675543Y-85717238D01*
X178788238Y-85604543D01*
X178920754Y-85515998D01*
X179067999Y-85455008D01*
X179224312Y-85423915D01*
X179383688Y-85423915D01*
X179540001Y-85455008D01*
G37*
G36*
X216263001Y-85455008D02*
G01*
X216410246Y-85515998D01*
X216542762Y-85604543D01*
X216655457Y-85717238D01*
X216744002Y-85849754D01*
X216804992Y-85996999D01*
X216836085Y-86153312D01*
X216836085Y-86312688D01*
X216804992Y-86469001D01*
X216744002Y-86616246D01*
X216655457Y-86748762D01*
X216542762Y-86861457D01*
X216410246Y-86950002D01*
X216263001Y-87010992D01*
X216106688Y-87042085D01*
X215947312Y-87042085D01*
X215790999Y-87010992D01*
X215643754Y-86950002D01*
X215511238Y-86861457D01*
X215398543Y-86748762D01*
X215309998Y-86616246D01*
X215249008Y-86469001D01*
X215217915Y-86312688D01*
X215217915Y-86153312D01*
X215249008Y-85996999D01*
X215309998Y-85849754D01*
X215398543Y-85717238D01*
X215511238Y-85604543D01*
X215643754Y-85515998D01*
X215790999Y-85455008D01*
X215947312Y-85423915D01*
X216106688Y-85423915D01*
X216263001Y-85455008D01*
G37*
G36*
X226423001Y-85455008D02*
G01*
X226570246Y-85515998D01*
X226702762Y-85604543D01*
X226815457Y-85717238D01*
X226904002Y-85849754D01*
X226964992Y-85996999D01*
X226996085Y-86153312D01*
X226996085Y-86312688D01*
X226964992Y-86469001D01*
X226904002Y-86616246D01*
X226815457Y-86748762D01*
X226702762Y-86861457D01*
X226570246Y-86950002D01*
X226423001Y-87010992D01*
X226266688Y-87042085D01*
X226107312Y-87042085D01*
X225950999Y-87010992D01*
X225803754Y-86950002D01*
X225671238Y-86861457D01*
X225558543Y-86748762D01*
X225469998Y-86616246D01*
X225409008Y-86469001D01*
X225377915Y-86312688D01*
X225377915Y-86153312D01*
X225409008Y-85996999D01*
X225469998Y-85849754D01*
X225558543Y-85717238D01*
X225671238Y-85604543D01*
X225803754Y-85515998D01*
X225950999Y-85455008D01*
X226107312Y-85423915D01*
X226266688Y-85423915D01*
X226423001Y-85455008D01*
G37*
G36*
X179560001Y-82915008D02*
G01*
X179707246Y-82975998D01*
X179839762Y-83064543D01*
X179952457Y-83177238D01*
X180041002Y-83309754D01*
X180101992Y-83456999D01*
X180133085Y-83613312D01*
X180133085Y-83772688D01*
X180101992Y-83929001D01*
X180041002Y-84076246D01*
X179952457Y-84208762D01*
X179839762Y-84321457D01*
X179707246Y-84410002D01*
X179560001Y-84470992D01*
X179403688Y-84502085D01*
X179244312Y-84502085D01*
X179087999Y-84470992D01*
X178940754Y-84410002D01*
X178808238Y-84321457D01*
X178695543Y-84208762D01*
X178606998Y-84076246D01*
X178546008Y-83929001D01*
X178514915Y-83772688D01*
X178514915Y-83613312D01*
X178546008Y-83456999D01*
X178606998Y-83309754D01*
X178695543Y-83177238D01*
X178808238Y-83064543D01*
X178940754Y-82975998D01*
X179087999Y-82915008D01*
X179244312Y-82883915D01*
X179403688Y-82883915D01*
X179560001Y-82915008D01*
G37*
G36*
X216263001Y-82915008D02*
G01*
X216410246Y-82975998D01*
X216542762Y-83064543D01*
X216655457Y-83177238D01*
X216744002Y-83309754D01*
X216804992Y-83456999D01*
X216836085Y-83613312D01*
X216836085Y-83772688D01*
X216804992Y-83929001D01*
X216744002Y-84076246D01*
X216655457Y-84208762D01*
X216542762Y-84321457D01*
X216410246Y-84410002D01*
X216263001Y-84470992D01*
X216106688Y-84502085D01*
X215947312Y-84502085D01*
X215790999Y-84470992D01*
X215643754Y-84410002D01*
X215511238Y-84321457D01*
X215398543Y-84208762D01*
X215309998Y-84076246D01*
X215249008Y-83929001D01*
X215217915Y-83772688D01*
X215217915Y-83613312D01*
X215249008Y-83456999D01*
X215309998Y-83309754D01*
X215398543Y-83177238D01*
X215511238Y-83064543D01*
X215643754Y-82975998D01*
X215790999Y-82915008D01*
X215947312Y-82883915D01*
X216106688Y-82883915D01*
X216263001Y-82915008D01*
G37*
G36*
X226423001Y-82915008D02*
G01*
X226570246Y-82975998D01*
X226702762Y-83064543D01*
X226815457Y-83177238D01*
X226904002Y-83309754D01*
X226964992Y-83456999D01*
X226996085Y-83613312D01*
X226996085Y-83772688D01*
X226964992Y-83929001D01*
X226904002Y-84076246D01*
X226815457Y-84208762D01*
X226702762Y-84321457D01*
X226570246Y-84410002D01*
X226423001Y-84470992D01*
X226266688Y-84502085D01*
X226107312Y-84502085D01*
X225950999Y-84470992D01*
X225803754Y-84410002D01*
X225671238Y-84321457D01*
X225558543Y-84208762D01*
X225469998Y-84076246D01*
X225409008Y-83929001D01*
X225377915Y-83772688D01*
X225377915Y-83613312D01*
X225409008Y-83456999D01*
X225469998Y-83309754D01*
X225558543Y-83177238D01*
X225671238Y-83064543D01*
X225803754Y-82975998D01*
X225950999Y-82915008D01*
X226107312Y-82883915D01*
X226266688Y-82883915D01*
X226423001Y-82915008D01*
G37*
G36*
X216263001Y-80375008D02*
G01*
X216410246Y-80435998D01*
X216542762Y-80524543D01*
X216655457Y-80637238D01*
X216744002Y-80769754D01*
X216804992Y-80916999D01*
X216836085Y-81073312D01*
X216836085Y-81232688D01*
X216804992Y-81389001D01*
X216744002Y-81536246D01*
X216655457Y-81668762D01*
X216542762Y-81781457D01*
X216410246Y-81870002D01*
X216263001Y-81930992D01*
X216106688Y-81962085D01*
X215947312Y-81962085D01*
X215790999Y-81930992D01*
X215643754Y-81870002D01*
X215511238Y-81781457D01*
X215398543Y-81668762D01*
X215309998Y-81536246D01*
X215249008Y-81389001D01*
X215217915Y-81232688D01*
X215217915Y-81073312D01*
X215249008Y-80916999D01*
X215309998Y-80769754D01*
X215398543Y-80637238D01*
X215511238Y-80524543D01*
X215643754Y-80435998D01*
X215790999Y-80375008D01*
X215947312Y-80343915D01*
X216106688Y-80343915D01*
X216263001Y-80375008D01*
G37*
G36*
X226423001Y-80375008D02*
G01*
X226570246Y-80435998D01*
X226702762Y-80524543D01*
X226815457Y-80637238D01*
X226904002Y-80769754D01*
X226964992Y-80916999D01*
X226996085Y-81073312D01*
X226996085Y-81232688D01*
X226964992Y-81389001D01*
X226904002Y-81536246D01*
X226815457Y-81668762D01*
X226702762Y-81781457D01*
X226570246Y-81870002D01*
X226423001Y-81930992D01*
X226266688Y-81962085D01*
X226107312Y-81962085D01*
X225950999Y-81930992D01*
X225803754Y-81870002D01*
X225671238Y-81781457D01*
X225558543Y-81668762D01*
X225469998Y-81536246D01*
X225409008Y-81389001D01*
X225377915Y-81232688D01*
X225377915Y-81073312D01*
X225409008Y-80916999D01*
X225469998Y-80769754D01*
X225558543Y-80637238D01*
X225671238Y-80524543D01*
X225803754Y-80435998D01*
X225950999Y-80375008D01*
X226107312Y-80343915D01*
X226266688Y-80343915D01*
X226423001Y-80375008D01*
G37*
G36*
X216263001Y-77835008D02*
G01*
X216410246Y-77895998D01*
X216542762Y-77984543D01*
X216655457Y-78097238D01*
X216744002Y-78229754D01*
X216804992Y-78376999D01*
X216836085Y-78533312D01*
X216836085Y-78692688D01*
X216804992Y-78849001D01*
X216744002Y-78996246D01*
X216655457Y-79128762D01*
X216542762Y-79241457D01*
X216410246Y-79330002D01*
X216263001Y-79390992D01*
X216106688Y-79422085D01*
X215947312Y-79422085D01*
X215790999Y-79390992D01*
X215643754Y-79330002D01*
X215511238Y-79241457D01*
X215398543Y-79128762D01*
X215309998Y-78996246D01*
X215249008Y-78849001D01*
X215217915Y-78692688D01*
X215217915Y-78533312D01*
X215249008Y-78376999D01*
X215309998Y-78229754D01*
X215398543Y-78097238D01*
X215511238Y-77984543D01*
X215643754Y-77895998D01*
X215790999Y-77835008D01*
X215947312Y-77803915D01*
X216106688Y-77803915D01*
X216263001Y-77835008D01*
G37*
G36*
X226423001Y-77835008D02*
G01*
X226570246Y-77895998D01*
X226702762Y-77984543D01*
X226815457Y-78097238D01*
X226904002Y-78229754D01*
X226964992Y-78376999D01*
X226996085Y-78533312D01*
X226996085Y-78692688D01*
X226964992Y-78849001D01*
X226904002Y-78996246D01*
X226815457Y-79128762D01*
X226702762Y-79241457D01*
X226570246Y-79330002D01*
X226423001Y-79390992D01*
X226266688Y-79422085D01*
X226107312Y-79422085D01*
X225950999Y-79390992D01*
X225803754Y-79330002D01*
X225671238Y-79241457D01*
X225558543Y-79128762D01*
X225469998Y-78996246D01*
X225409008Y-78849001D01*
X225377915Y-78692688D01*
X225377915Y-78533312D01*
X225409008Y-78376999D01*
X225469998Y-78229754D01*
X225558543Y-78097238D01*
X225671238Y-77984543D01*
X225803754Y-77895998D01*
X225950999Y-77835008D01*
X226107312Y-77803915D01*
X226266688Y-77803915D01*
X226423001Y-77835008D01*
G37*
G36*
X187661553Y-77158579D02*
G01*
X187672214Y-77158579D01*
X187713865Y-77166864D01*
X187800916Y-77180651D01*
X187828918Y-77189749D01*
X187855061Y-77194950D01*
X187891956Y-77210232D01*
X187942784Y-77226748D01*
X187990399Y-77251009D01*
X188027298Y-77266293D01*
X188049463Y-77281103D01*
X188075693Y-77294468D01*
X188146990Y-77346268D01*
X188182308Y-77369867D01*
X188189846Y-77377405D01*
X188196370Y-77382145D01*
X188301854Y-77487629D01*
X188306593Y-77494152D01*
X188314133Y-77501692D01*
X188337734Y-77537014D01*
X188389531Y-77608306D01*
X188402894Y-77634533D01*
X188417707Y-77656702D01*
X188432993Y-77693605D01*
X188457251Y-77741215D01*
X188473764Y-77792035D01*
X188489050Y-77828939D01*
X188494251Y-77855086D01*
X188503348Y-77883083D01*
X188517134Y-77970125D01*
X188525421Y-78011786D01*
X188525421Y-78022447D01*
X188526683Y-78030415D01*
X188526683Y-78179584D01*
X188525421Y-78187551D01*
X188525421Y-78198214D01*
X188517133Y-78239877D01*
X188503348Y-78326916D01*
X188494251Y-78354910D01*
X188489050Y-78381061D01*
X188473762Y-78417968D01*
X188457251Y-78468784D01*
X188432995Y-78516388D01*
X188417707Y-78553298D01*
X188402892Y-78575470D01*
X188389531Y-78601693D01*
X188337742Y-78672973D01*
X188314133Y-78708308D01*
X188306591Y-78715849D01*
X188301854Y-78722370D01*
X188196370Y-78827854D01*
X188189849Y-78832591D01*
X188182308Y-78840133D01*
X188146973Y-78863742D01*
X188075693Y-78915531D01*
X188049470Y-78928892D01*
X188027298Y-78943707D01*
X187990388Y-78958995D01*
X187942784Y-78983251D01*
X187891968Y-78999762D01*
X187855061Y-79015050D01*
X187828910Y-79020251D01*
X187800916Y-79029348D01*
X187713875Y-79043133D01*
X187672214Y-79051421D01*
X187661553Y-79051421D01*
X187653585Y-79052683D01*
X187504415Y-79052683D01*
X187496447Y-79051421D01*
X187485786Y-79051421D01*
X187444125Y-79043134D01*
X187357083Y-79029348D01*
X187329086Y-79020251D01*
X187302939Y-79015050D01*
X187266035Y-78999764D01*
X187215215Y-78983251D01*
X187167605Y-78958993D01*
X187130702Y-78943707D01*
X187108533Y-78928894D01*
X187082306Y-78915531D01*
X187011014Y-78863734D01*
X186975692Y-78840133D01*
X186968152Y-78832593D01*
X186961629Y-78827854D01*
X186856145Y-78722370D01*
X186851405Y-78715846D01*
X186843867Y-78708308D01*
X186820268Y-78672990D01*
X186768468Y-78601693D01*
X186755103Y-78575463D01*
X186740293Y-78553298D01*
X186725009Y-78516399D01*
X186700748Y-78468784D01*
X186684232Y-78417956D01*
X186668950Y-78381061D01*
X186663749Y-78354918D01*
X186654651Y-78326916D01*
X186640864Y-78239867D01*
X186632579Y-78198214D01*
X186632579Y-78187552D01*
X186631317Y-78179584D01*
X186631317Y-78030415D01*
X186632579Y-78022446D01*
X186632579Y-78011786D01*
X186640863Y-77970136D01*
X186654651Y-77883083D01*
X186663750Y-77855078D01*
X186668950Y-77828939D01*
X186684231Y-77792046D01*
X186700748Y-77741215D01*
X186725011Y-77693595D01*
X186740293Y-77656702D01*
X186755101Y-77634539D01*
X186768468Y-77608306D01*
X186820277Y-77536996D01*
X186843867Y-77501692D01*
X186851402Y-77494156D01*
X186856145Y-77487629D01*
X186961629Y-77382145D01*
X186968156Y-77377402D01*
X186975692Y-77369867D01*
X187010996Y-77346277D01*
X187082306Y-77294468D01*
X187108539Y-77281101D01*
X187130702Y-77266293D01*
X187167595Y-77251011D01*
X187215215Y-77226748D01*
X187266046Y-77210231D01*
X187302939Y-77194950D01*
X187329078Y-77189750D01*
X187357083Y-77180651D01*
X187444136Y-77166863D01*
X187485786Y-77158579D01*
X187496447Y-77158579D01*
X187504415Y-77157317D01*
X187653585Y-77157317D01*
X187661553Y-77158579D01*
G37*
G36*
X210521553Y-77158579D02*
G01*
X210532214Y-77158579D01*
X210573865Y-77166864D01*
X210660916Y-77180651D01*
X210688918Y-77189749D01*
X210715061Y-77194950D01*
X210751956Y-77210232D01*
X210802784Y-77226748D01*
X210850399Y-77251009D01*
X210887298Y-77266293D01*
X210909463Y-77281103D01*
X210935693Y-77294468D01*
X211006990Y-77346268D01*
X211042308Y-77369867D01*
X211049846Y-77377405D01*
X211056370Y-77382145D01*
X211161854Y-77487629D01*
X211166593Y-77494152D01*
X211174133Y-77501692D01*
X211197734Y-77537014D01*
X211249531Y-77608306D01*
X211262894Y-77634533D01*
X211277707Y-77656702D01*
X211292993Y-77693605D01*
X211317251Y-77741215D01*
X211333764Y-77792035D01*
X211349050Y-77828939D01*
X211354251Y-77855086D01*
X211363348Y-77883083D01*
X211377134Y-77970125D01*
X211385421Y-78011786D01*
X211385421Y-78022447D01*
X211386683Y-78030415D01*
X211386683Y-78179584D01*
X211385421Y-78187551D01*
X211385421Y-78198214D01*
X211377133Y-78239877D01*
X211363348Y-78326916D01*
X211354251Y-78354910D01*
X211349050Y-78381061D01*
X211333762Y-78417968D01*
X211317251Y-78468784D01*
X211292995Y-78516388D01*
X211277707Y-78553298D01*
X211262892Y-78575470D01*
X211249531Y-78601693D01*
X211197742Y-78672973D01*
X211174133Y-78708308D01*
X211166591Y-78715849D01*
X211161854Y-78722370D01*
X211056370Y-78827854D01*
X211049849Y-78832591D01*
X211042308Y-78840133D01*
X211006973Y-78863742D01*
X210935693Y-78915531D01*
X210909470Y-78928892D01*
X210887298Y-78943707D01*
X210850388Y-78958995D01*
X210802784Y-78983251D01*
X210751968Y-78999762D01*
X210715061Y-79015050D01*
X210688910Y-79020251D01*
X210660916Y-79029348D01*
X210573875Y-79043133D01*
X210532214Y-79051421D01*
X210521553Y-79051421D01*
X210513585Y-79052683D01*
X210364415Y-79052683D01*
X210356447Y-79051421D01*
X210345786Y-79051421D01*
X210304125Y-79043134D01*
X210217083Y-79029348D01*
X210189086Y-79020251D01*
X210162939Y-79015050D01*
X210126035Y-78999764D01*
X210075215Y-78983251D01*
X210027605Y-78958993D01*
X209990702Y-78943707D01*
X209968533Y-78928894D01*
X209942306Y-78915531D01*
X209871014Y-78863734D01*
X209835692Y-78840133D01*
X209828152Y-78832593D01*
X209821629Y-78827854D01*
X209716145Y-78722370D01*
X209711405Y-78715846D01*
X209703867Y-78708308D01*
X209680268Y-78672990D01*
X209628468Y-78601693D01*
X209615103Y-78575463D01*
X209600293Y-78553298D01*
X209585009Y-78516399D01*
X209560748Y-78468784D01*
X209544232Y-78417956D01*
X209528950Y-78381061D01*
X209523749Y-78354918D01*
X209514651Y-78326916D01*
X209500864Y-78239867D01*
X209492579Y-78198214D01*
X209492579Y-78187552D01*
X209491317Y-78179584D01*
X209491317Y-78030415D01*
X209492579Y-78022446D01*
X209492579Y-78011786D01*
X209500863Y-77970136D01*
X209514651Y-77883083D01*
X209523750Y-77855078D01*
X209528950Y-77828939D01*
X209544231Y-77792046D01*
X209560748Y-77741215D01*
X209585011Y-77693595D01*
X209600293Y-77656702D01*
X209615101Y-77634539D01*
X209628468Y-77608306D01*
X209680277Y-77536996D01*
X209703867Y-77501692D01*
X209711402Y-77494156D01*
X209716145Y-77487629D01*
X209821629Y-77382145D01*
X209828156Y-77377402D01*
X209835692Y-77369867D01*
X209870996Y-77346277D01*
X209942306Y-77294468D01*
X209968539Y-77281101D01*
X209990702Y-77266293D01*
X210027595Y-77251011D01*
X210075215Y-77226748D01*
X210126046Y-77210231D01*
X210162939Y-77194950D01*
X210189078Y-77189750D01*
X210217083Y-77180651D01*
X210304136Y-77166863D01*
X210345786Y-77158579D01*
X210356447Y-77158579D01*
X210364415Y-77157317D01*
X210513585Y-77157317D01*
X210521553Y-77158579D01*
G37*
G36*
X179581023Y-76145421D02*
G01*
X179745334Y-76198809D01*
X179899271Y-76277243D01*
X180039042Y-76378793D01*
X180161207Y-76500958D01*
X180262757Y-76640729D01*
X180341191Y-76794666D01*
X180394579Y-76958977D01*
X180421606Y-77129617D01*
X180421606Y-77302383D01*
X180394579Y-77473023D01*
X180341191Y-77637334D01*
X180262757Y-77791271D01*
X180161207Y-77931042D01*
X180039042Y-78053207D01*
X179899271Y-78154757D01*
X179745334Y-78233191D01*
X179581023Y-78286579D01*
X179410383Y-78313606D01*
X179237617Y-78313606D01*
X179066977Y-78286579D01*
X178902666Y-78233191D01*
X178748729Y-78154757D01*
X178608958Y-78053207D01*
X178486793Y-77931042D01*
X178385243Y-77791271D01*
X178306809Y-77637334D01*
X178253421Y-77473023D01*
X178226394Y-77302383D01*
X178226394Y-77129617D01*
X178253421Y-76958977D01*
X178306809Y-76794666D01*
X178385243Y-76640729D01*
X178486793Y-76500958D01*
X178608958Y-76378793D01*
X178748729Y-76277243D01*
X178902666Y-76198809D01*
X179066977Y-76145421D01*
X179237617Y-76118394D01*
X179410383Y-76118394D01*
X179581023Y-76145421D01*
G37*
G36*
X216263001Y-75295008D02*
G01*
X216410246Y-75355998D01*
X216542762Y-75444543D01*
X216655457Y-75557238D01*
X216744002Y-75689754D01*
X216804992Y-75836999D01*
X216836085Y-75993312D01*
X216836085Y-76152688D01*
X216804992Y-76309001D01*
X216744002Y-76456246D01*
X216655457Y-76588762D01*
X216542762Y-76701457D01*
X216410246Y-76790002D01*
X216263001Y-76850992D01*
X216106688Y-76882085D01*
X215947312Y-76882085D01*
X215790999Y-76850992D01*
X215643754Y-76790002D01*
X215511238Y-76701457D01*
X215398543Y-76588762D01*
X215309998Y-76456246D01*
X215249008Y-76309001D01*
X215217915Y-76152688D01*
X215217915Y-75993312D01*
X215249008Y-75836999D01*
X215309998Y-75689754D01*
X215398543Y-75557238D01*
X215511238Y-75444543D01*
X215643754Y-75355998D01*
X215790999Y-75295008D01*
X215947312Y-75263915D01*
X216106688Y-75263915D01*
X216263001Y-75295008D01*
G37*
G36*
X226423001Y-75295008D02*
G01*
X226570246Y-75355998D01*
X226702762Y-75444543D01*
X226815457Y-75557238D01*
X226904002Y-75689754D01*
X226964992Y-75836999D01*
X226996085Y-75993312D01*
X226996085Y-76152688D01*
X226964992Y-76309001D01*
X226904002Y-76456246D01*
X226815457Y-76588762D01*
X226702762Y-76701457D01*
X226570246Y-76790002D01*
X226423001Y-76850992D01*
X226266688Y-76882085D01*
X226107312Y-76882085D01*
X225950999Y-76850992D01*
X225803754Y-76790002D01*
X225671238Y-76701457D01*
X225558543Y-76588762D01*
X225469998Y-76456246D01*
X225409008Y-76309001D01*
X225377915Y-76152688D01*
X225377915Y-75993312D01*
X225409008Y-75836999D01*
X225469998Y-75689754D01*
X225558543Y-75557238D01*
X225671238Y-75444543D01*
X225803754Y-75355998D01*
X225950999Y-75295008D01*
X226107312Y-75263915D01*
X226266688Y-75263915D01*
X226423001Y-75295008D01*
G37*
G36*
X187661553Y-74618579D02*
G01*
X187672214Y-74618579D01*
X187713865Y-74626864D01*
X187800916Y-74640651D01*
X187828918Y-74649749D01*
X187855061Y-74654950D01*
X187891956Y-74670232D01*
X187942784Y-74686748D01*
X187990399Y-74711009D01*
X188027298Y-74726293D01*
X188049463Y-74741103D01*
X188075693Y-74754468D01*
X188146990Y-74806268D01*
X188182308Y-74829867D01*
X188189846Y-74837405D01*
X188196370Y-74842145D01*
X188301854Y-74947629D01*
X188306593Y-74954152D01*
X188314133Y-74961692D01*
X188337734Y-74997014D01*
X188389531Y-75068306D01*
X188402894Y-75094533D01*
X188417707Y-75116702D01*
X188432993Y-75153605D01*
X188457251Y-75201215D01*
X188473764Y-75252035D01*
X188489050Y-75288939D01*
X188494251Y-75315086D01*
X188503348Y-75343083D01*
X188517134Y-75430125D01*
X188525421Y-75471786D01*
X188525421Y-75482447D01*
X188526683Y-75490415D01*
X188526683Y-75639584D01*
X188525421Y-75647551D01*
X188525421Y-75658214D01*
X188517133Y-75699877D01*
X188503348Y-75786916D01*
X188494251Y-75814910D01*
X188489050Y-75841061D01*
X188473762Y-75877968D01*
X188457251Y-75928784D01*
X188432995Y-75976388D01*
X188417707Y-76013298D01*
X188402892Y-76035470D01*
X188389531Y-76061693D01*
X188337742Y-76132973D01*
X188314133Y-76168308D01*
X188306591Y-76175849D01*
X188301854Y-76182370D01*
X188196370Y-76287854D01*
X188189849Y-76292591D01*
X188182308Y-76300133D01*
X188146973Y-76323742D01*
X188075693Y-76375531D01*
X188049470Y-76388892D01*
X188027298Y-76403707D01*
X187990388Y-76418995D01*
X187942784Y-76443251D01*
X187891968Y-76459762D01*
X187855061Y-76475050D01*
X187828910Y-76480251D01*
X187800916Y-76489348D01*
X187713875Y-76503133D01*
X187672214Y-76511421D01*
X187661553Y-76511421D01*
X187653585Y-76512683D01*
X187504415Y-76512683D01*
X187496447Y-76511421D01*
X187485786Y-76511421D01*
X187444125Y-76503134D01*
X187357083Y-76489348D01*
X187329086Y-76480251D01*
X187302939Y-76475050D01*
X187266035Y-76459764D01*
X187215215Y-76443251D01*
X187167605Y-76418993D01*
X187130702Y-76403707D01*
X187108533Y-76388894D01*
X187082306Y-76375531D01*
X187011014Y-76323734D01*
X186975692Y-76300133D01*
X186968152Y-76292593D01*
X186961629Y-76287854D01*
X186856145Y-76182370D01*
X186851405Y-76175846D01*
X186843867Y-76168308D01*
X186820268Y-76132990D01*
X186768468Y-76061693D01*
X186755103Y-76035463D01*
X186740293Y-76013298D01*
X186725009Y-75976399D01*
X186700748Y-75928784D01*
X186684232Y-75877956D01*
X186668950Y-75841061D01*
X186663749Y-75814918D01*
X186654651Y-75786916D01*
X186640864Y-75699867D01*
X186632579Y-75658214D01*
X186632579Y-75647552D01*
X186631317Y-75639584D01*
X186631317Y-75490415D01*
X186632579Y-75482446D01*
X186632579Y-75471786D01*
X186640863Y-75430136D01*
X186654651Y-75343083D01*
X186663750Y-75315078D01*
X186668950Y-75288939D01*
X186684231Y-75252046D01*
X186700748Y-75201215D01*
X186725011Y-75153595D01*
X186740293Y-75116702D01*
X186755101Y-75094539D01*
X186768468Y-75068306D01*
X186820277Y-74996996D01*
X186843867Y-74961692D01*
X186851402Y-74954156D01*
X186856145Y-74947629D01*
X186961629Y-74842145D01*
X186968156Y-74837402D01*
X186975692Y-74829867D01*
X187010996Y-74806277D01*
X187082306Y-74754468D01*
X187108539Y-74741101D01*
X187130702Y-74726293D01*
X187167595Y-74711011D01*
X187215215Y-74686748D01*
X187266046Y-74670231D01*
X187302939Y-74654950D01*
X187329078Y-74649750D01*
X187357083Y-74640651D01*
X187444136Y-74626863D01*
X187485786Y-74618579D01*
X187496447Y-74618579D01*
X187504415Y-74617317D01*
X187653585Y-74617317D01*
X187661553Y-74618579D01*
G37*
G36*
X210521553Y-74618579D02*
G01*
X210532214Y-74618579D01*
X210573865Y-74626864D01*
X210660916Y-74640651D01*
X210688918Y-74649749D01*
X210715061Y-74654950D01*
X210751956Y-74670232D01*
X210802784Y-74686748D01*
X210850399Y-74711009D01*
X210887298Y-74726293D01*
X210909463Y-74741103D01*
X210935693Y-74754468D01*
X211006990Y-74806268D01*
X211042308Y-74829867D01*
X211049846Y-74837405D01*
X211056370Y-74842145D01*
X211161854Y-74947629D01*
X211166593Y-74954152D01*
X211174133Y-74961692D01*
X211197734Y-74997014D01*
X211249531Y-75068306D01*
X211262894Y-75094533D01*
X211277707Y-75116702D01*
X211292993Y-75153605D01*
X211317251Y-75201215D01*
X211333764Y-75252035D01*
X211349050Y-75288939D01*
X211354251Y-75315086D01*
X211363348Y-75343083D01*
X211377134Y-75430125D01*
X211385421Y-75471786D01*
X211385421Y-75482447D01*
X211386683Y-75490415D01*
X211386683Y-75639584D01*
X211385421Y-75647551D01*
X211385421Y-75658214D01*
X211377133Y-75699877D01*
X211363348Y-75786916D01*
X211354251Y-75814910D01*
X211349050Y-75841061D01*
X211333762Y-75877968D01*
X211317251Y-75928784D01*
X211292995Y-75976388D01*
X211277707Y-76013298D01*
X211262892Y-76035470D01*
X211249531Y-76061693D01*
X211197742Y-76132973D01*
X211174133Y-76168308D01*
X211166591Y-76175849D01*
X211161854Y-76182370D01*
X211056370Y-76287854D01*
X211049849Y-76292591D01*
X211042308Y-76300133D01*
X211006973Y-76323742D01*
X210935693Y-76375531D01*
X210909470Y-76388892D01*
X210887298Y-76403707D01*
X210850388Y-76418995D01*
X210802784Y-76443251D01*
X210751968Y-76459762D01*
X210715061Y-76475050D01*
X210688910Y-76480251D01*
X210660916Y-76489348D01*
X210573875Y-76503133D01*
X210532214Y-76511421D01*
X210521553Y-76511421D01*
X210513585Y-76512683D01*
X210364415Y-76512683D01*
X210356447Y-76511421D01*
X210345786Y-76511421D01*
X210304125Y-76503134D01*
X210217083Y-76489348D01*
X210189086Y-76480251D01*
X210162939Y-76475050D01*
X210126035Y-76459764D01*
X210075215Y-76443251D01*
X210027605Y-76418993D01*
X209990702Y-76403707D01*
X209968533Y-76388894D01*
X209942306Y-76375531D01*
X209871014Y-76323734D01*
X209835692Y-76300133D01*
X209828152Y-76292593D01*
X209821629Y-76287854D01*
X209716145Y-76182370D01*
X209711405Y-76175846D01*
X209703867Y-76168308D01*
X209680268Y-76132990D01*
X209628468Y-76061693D01*
X209615103Y-76035463D01*
X209600293Y-76013298D01*
X209585009Y-75976399D01*
X209560748Y-75928784D01*
X209544232Y-75877956D01*
X209528950Y-75841061D01*
X209523749Y-75814918D01*
X209514651Y-75786916D01*
X209500864Y-75699867D01*
X209492579Y-75658214D01*
X209492579Y-75647552D01*
X209491317Y-75639584D01*
X209491317Y-75490415D01*
X209492579Y-75482446D01*
X209492579Y-75471786D01*
X209500863Y-75430136D01*
X209514651Y-75343083D01*
X209523750Y-75315078D01*
X209528950Y-75288939D01*
X209544231Y-75252046D01*
X209560748Y-75201215D01*
X209585011Y-75153595D01*
X209600293Y-75116702D01*
X209615101Y-75094539D01*
X209628468Y-75068306D01*
X209680277Y-74996996D01*
X209703867Y-74961692D01*
X209711402Y-74954156D01*
X209716145Y-74947629D01*
X209821629Y-74842145D01*
X209828156Y-74837402D01*
X209835692Y-74829867D01*
X209870996Y-74806277D01*
X209942306Y-74754468D01*
X209968539Y-74741101D01*
X209990702Y-74726293D01*
X210027595Y-74711011D01*
X210075215Y-74686748D01*
X210126046Y-74670231D01*
X210162939Y-74654950D01*
X210189078Y-74649750D01*
X210217083Y-74640651D01*
X210304136Y-74626863D01*
X210345786Y-74618579D01*
X210356447Y-74618579D01*
X210364415Y-74617317D01*
X210513585Y-74617317D01*
X210521553Y-74618579D01*
G37*
G36*
X179581023Y-73605421D02*
G01*
X179745334Y-73658809D01*
X179899271Y-73737243D01*
X180039042Y-73838793D01*
X180161207Y-73960958D01*
X180262757Y-74100729D01*
X180341191Y-74254666D01*
X180394579Y-74418977D01*
X180421606Y-74589617D01*
X180421606Y-74762383D01*
X180394579Y-74933023D01*
X180341191Y-75097334D01*
X180262757Y-75251271D01*
X180161207Y-75391042D01*
X180039042Y-75513207D01*
X179899271Y-75614757D01*
X179745334Y-75693191D01*
X179581023Y-75746579D01*
X179410383Y-75773606D01*
X179237617Y-75773606D01*
X179066977Y-75746579D01*
X178902666Y-75693191D01*
X178748729Y-75614757D01*
X178608958Y-75513207D01*
X178486793Y-75391042D01*
X178385243Y-75251271D01*
X178306809Y-75097334D01*
X178253421Y-74933023D01*
X178226394Y-74762383D01*
X178226394Y-74589617D01*
X178253421Y-74418977D01*
X178306809Y-74254666D01*
X178385243Y-74100729D01*
X178486793Y-73960958D01*
X178608958Y-73838793D01*
X178748729Y-73737243D01*
X178902666Y-73658809D01*
X179066977Y-73605421D01*
X179237617Y-73578394D01*
X179410383Y-73578394D01*
X179581023Y-73605421D01*
G37*
G36*
X216263001Y-72755008D02*
G01*
X216410246Y-72815998D01*
X216542762Y-72904543D01*
X216655457Y-73017238D01*
X216744002Y-73149754D01*
X216804992Y-73296999D01*
X216836085Y-73453312D01*
X216836085Y-73612688D01*
X216804992Y-73769001D01*
X216744002Y-73916246D01*
X216655457Y-74048762D01*
X216542762Y-74161457D01*
X216410246Y-74250002D01*
X216263001Y-74310992D01*
X216106688Y-74342085D01*
X215947312Y-74342085D01*
X215790999Y-74310992D01*
X215643754Y-74250002D01*
X215511238Y-74161457D01*
X215398543Y-74048762D01*
X215309998Y-73916246D01*
X215249008Y-73769001D01*
X215217915Y-73612688D01*
X215217915Y-73453312D01*
X215249008Y-73296999D01*
X215309998Y-73149754D01*
X215398543Y-73017238D01*
X215511238Y-72904543D01*
X215643754Y-72815998D01*
X215790999Y-72755008D01*
X215947312Y-72723915D01*
X216106688Y-72723915D01*
X216263001Y-72755008D01*
G37*
G36*
X226423001Y-72755008D02*
G01*
X226570246Y-72815998D01*
X226702762Y-72904543D01*
X226815457Y-73017238D01*
X226904002Y-73149754D01*
X226964992Y-73296999D01*
X226996085Y-73453312D01*
X226996085Y-73612688D01*
X226964992Y-73769001D01*
X226904002Y-73916246D01*
X226815457Y-74048762D01*
X226702762Y-74161457D01*
X226570246Y-74250002D01*
X226423001Y-74310992D01*
X226266688Y-74342085D01*
X226107312Y-74342085D01*
X225950999Y-74310992D01*
X225803754Y-74250002D01*
X225671238Y-74161457D01*
X225558543Y-74048762D01*
X225469998Y-73916246D01*
X225409008Y-73769001D01*
X225377915Y-73612688D01*
X225377915Y-73453312D01*
X225409008Y-73296999D01*
X225469998Y-73149754D01*
X225558543Y-73017238D01*
X225671238Y-72904543D01*
X225803754Y-72815998D01*
X225950999Y-72755008D01*
X226107312Y-72723915D01*
X226266688Y-72723915D01*
X226423001Y-72755008D01*
G37*
G36*
X187661553Y-72078579D02*
G01*
X187672214Y-72078579D01*
X187713865Y-72086864D01*
X187800916Y-72100651D01*
X187828918Y-72109749D01*
X187855061Y-72114950D01*
X187891956Y-72130232D01*
X187942784Y-72146748D01*
X187990399Y-72171009D01*
X188027298Y-72186293D01*
X188049463Y-72201103D01*
X188075693Y-72214468D01*
X188146990Y-72266268D01*
X188182308Y-72289867D01*
X188189846Y-72297405D01*
X188196370Y-72302145D01*
X188301854Y-72407629D01*
X188306593Y-72414152D01*
X188314133Y-72421692D01*
X188337734Y-72457014D01*
X188389531Y-72528306D01*
X188402894Y-72554533D01*
X188417707Y-72576702D01*
X188432993Y-72613605D01*
X188457251Y-72661215D01*
X188473764Y-72712035D01*
X188489050Y-72748939D01*
X188494251Y-72775086D01*
X188503348Y-72803083D01*
X188517134Y-72890125D01*
X188525421Y-72931786D01*
X188525421Y-72942447D01*
X188526683Y-72950415D01*
X188526683Y-73099584D01*
X188525421Y-73107551D01*
X188525421Y-73118214D01*
X188517133Y-73159877D01*
X188503348Y-73246916D01*
X188494251Y-73274910D01*
X188489050Y-73301061D01*
X188473762Y-73337968D01*
X188457251Y-73388784D01*
X188432995Y-73436388D01*
X188417707Y-73473298D01*
X188402892Y-73495470D01*
X188389531Y-73521693D01*
X188337742Y-73592973D01*
X188314133Y-73628308D01*
X188306591Y-73635849D01*
X188301854Y-73642370D01*
X188196370Y-73747854D01*
X188189849Y-73752591D01*
X188182308Y-73760133D01*
X188146973Y-73783742D01*
X188075693Y-73835531D01*
X188049470Y-73848892D01*
X188027298Y-73863707D01*
X187990388Y-73878995D01*
X187942784Y-73903251D01*
X187891968Y-73919762D01*
X187855061Y-73935050D01*
X187828910Y-73940251D01*
X187800916Y-73949348D01*
X187713875Y-73963133D01*
X187672214Y-73971421D01*
X187661553Y-73971421D01*
X187653585Y-73972683D01*
X187504415Y-73972683D01*
X187496447Y-73971421D01*
X187485786Y-73971421D01*
X187444125Y-73963134D01*
X187357083Y-73949348D01*
X187329086Y-73940251D01*
X187302939Y-73935050D01*
X187266035Y-73919764D01*
X187215215Y-73903251D01*
X187167605Y-73878993D01*
X187130702Y-73863707D01*
X187108533Y-73848894D01*
X187082306Y-73835531D01*
X187011014Y-73783734D01*
X186975692Y-73760133D01*
X186968152Y-73752593D01*
X186961629Y-73747854D01*
X186856145Y-73642370D01*
X186851405Y-73635846D01*
X186843867Y-73628308D01*
X186820268Y-73592990D01*
X186768468Y-73521693D01*
X186755103Y-73495463D01*
X186740293Y-73473298D01*
X186725009Y-73436399D01*
X186700748Y-73388784D01*
X186684232Y-73337956D01*
X186668950Y-73301061D01*
X186663749Y-73274918D01*
X186654651Y-73246916D01*
X186640864Y-73159867D01*
X186632579Y-73118214D01*
X186632579Y-73107552D01*
X186631317Y-73099584D01*
X186631317Y-72950415D01*
X186632579Y-72942446D01*
X186632579Y-72931786D01*
X186640863Y-72890136D01*
X186654651Y-72803083D01*
X186663750Y-72775078D01*
X186668950Y-72748939D01*
X186684231Y-72712046D01*
X186700748Y-72661215D01*
X186725011Y-72613595D01*
X186740293Y-72576702D01*
X186755101Y-72554539D01*
X186768468Y-72528306D01*
X186820277Y-72456996D01*
X186843867Y-72421692D01*
X186851402Y-72414156D01*
X186856145Y-72407629D01*
X186961629Y-72302145D01*
X186968156Y-72297402D01*
X186975692Y-72289867D01*
X187010996Y-72266277D01*
X187082306Y-72214468D01*
X187108539Y-72201101D01*
X187130702Y-72186293D01*
X187167595Y-72171011D01*
X187215215Y-72146748D01*
X187266046Y-72130231D01*
X187302939Y-72114950D01*
X187329078Y-72109750D01*
X187357083Y-72100651D01*
X187444136Y-72086863D01*
X187485786Y-72078579D01*
X187496447Y-72078579D01*
X187504415Y-72077317D01*
X187653585Y-72077317D01*
X187661553Y-72078579D01*
G37*
G36*
X210521553Y-72078579D02*
G01*
X210532214Y-72078579D01*
X210573865Y-72086864D01*
X210660916Y-72100651D01*
X210688918Y-72109749D01*
X210715061Y-72114950D01*
X210751956Y-72130232D01*
X210802784Y-72146748D01*
X210850399Y-72171009D01*
X210887298Y-72186293D01*
X210909463Y-72201103D01*
X210935693Y-72214468D01*
X211006990Y-72266268D01*
X211042308Y-72289867D01*
X211049846Y-72297405D01*
X211056370Y-72302145D01*
X211161854Y-72407629D01*
X211166593Y-72414152D01*
X211174133Y-72421692D01*
X211197734Y-72457014D01*
X211249531Y-72528306D01*
X211262894Y-72554533D01*
X211277707Y-72576702D01*
X211292993Y-72613605D01*
X211317251Y-72661215D01*
X211333764Y-72712035D01*
X211349050Y-72748939D01*
X211354251Y-72775086D01*
X211363348Y-72803083D01*
X211377134Y-72890125D01*
X211385421Y-72931786D01*
X211385421Y-72942447D01*
X211386683Y-72950415D01*
X211386683Y-73099584D01*
X211385421Y-73107551D01*
X211385421Y-73118214D01*
X211377133Y-73159877D01*
X211363348Y-73246916D01*
X211354251Y-73274910D01*
X211349050Y-73301061D01*
X211333762Y-73337968D01*
X211317251Y-73388784D01*
X211292995Y-73436388D01*
X211277707Y-73473298D01*
X211262892Y-73495470D01*
X211249531Y-73521693D01*
X211197742Y-73592973D01*
X211174133Y-73628308D01*
X211166591Y-73635849D01*
X211161854Y-73642370D01*
X211056370Y-73747854D01*
X211049849Y-73752591D01*
X211042308Y-73760133D01*
X211006973Y-73783742D01*
X210935693Y-73835531D01*
X210909470Y-73848892D01*
X210887298Y-73863707D01*
X210850388Y-73878995D01*
X210802784Y-73903251D01*
X210751968Y-73919762D01*
X210715061Y-73935050D01*
X210688910Y-73940251D01*
X210660916Y-73949348D01*
X210573875Y-73963133D01*
X210532214Y-73971421D01*
X210521553Y-73971421D01*
X210513585Y-73972683D01*
X210364415Y-73972683D01*
X210356447Y-73971421D01*
X210345786Y-73971421D01*
X210304125Y-73963134D01*
X210217083Y-73949348D01*
X210189086Y-73940251D01*
X210162939Y-73935050D01*
X210126035Y-73919764D01*
X210075215Y-73903251D01*
X210027605Y-73878993D01*
X209990702Y-73863707D01*
X209968533Y-73848894D01*
X209942306Y-73835531D01*
X209871014Y-73783734D01*
X209835692Y-73760133D01*
X209828152Y-73752593D01*
X209821629Y-73747854D01*
X209716145Y-73642370D01*
X209711405Y-73635846D01*
X209703867Y-73628308D01*
X209680268Y-73592990D01*
X209628468Y-73521693D01*
X209615103Y-73495463D01*
X209600293Y-73473298D01*
X209585009Y-73436399D01*
X209560748Y-73388784D01*
X209544232Y-73337956D01*
X209528950Y-73301061D01*
X209523749Y-73274918D01*
X209514651Y-73246916D01*
X209500864Y-73159867D01*
X209492579Y-73118214D01*
X209492579Y-73107552D01*
X209491317Y-73099584D01*
X209491317Y-72950415D01*
X209492579Y-72942446D01*
X209492579Y-72931786D01*
X209500863Y-72890136D01*
X209514651Y-72803083D01*
X209523750Y-72775078D01*
X209528950Y-72748939D01*
X209544231Y-72712046D01*
X209560748Y-72661215D01*
X209585011Y-72613595D01*
X209600293Y-72576702D01*
X209615101Y-72554539D01*
X209628468Y-72528306D01*
X209680277Y-72456996D01*
X209703867Y-72421692D01*
X209711402Y-72414156D01*
X209716145Y-72407629D01*
X209821629Y-72302145D01*
X209828156Y-72297402D01*
X209835692Y-72289867D01*
X209870996Y-72266277D01*
X209942306Y-72214468D01*
X209968539Y-72201101D01*
X209990702Y-72186293D01*
X210027595Y-72171011D01*
X210075215Y-72146748D01*
X210126046Y-72130231D01*
X210162939Y-72114950D01*
X210189078Y-72109750D01*
X210217083Y-72100651D01*
X210304136Y-72086863D01*
X210345786Y-72078579D01*
X210356447Y-72078579D01*
X210364415Y-72077317D01*
X210513585Y-72077317D01*
X210521553Y-72078579D01*
G37*
G36*
X179581023Y-71065421D02*
G01*
X179745334Y-71118809D01*
X179899271Y-71197243D01*
X180039042Y-71298793D01*
X180161207Y-71420958D01*
X180262757Y-71560729D01*
X180341191Y-71714666D01*
X180394579Y-71878977D01*
X180421606Y-72049617D01*
X180421606Y-72222383D01*
X180394579Y-72393023D01*
X180341191Y-72557334D01*
X180262757Y-72711271D01*
X180161207Y-72851042D01*
X180039042Y-72973207D01*
X179899271Y-73074757D01*
X179745334Y-73153191D01*
X179581023Y-73206579D01*
X179410383Y-73233606D01*
X179237617Y-73233606D01*
X179066977Y-73206579D01*
X178902666Y-73153191D01*
X178748729Y-73074757D01*
X178608958Y-72973207D01*
X178486793Y-72851042D01*
X178385243Y-72711271D01*
X178306809Y-72557334D01*
X178253421Y-72393023D01*
X178226394Y-72222383D01*
X178226394Y-72049617D01*
X178253421Y-71878977D01*
X178306809Y-71714666D01*
X178385243Y-71560729D01*
X178486793Y-71420958D01*
X178608958Y-71298793D01*
X178748729Y-71197243D01*
X178902666Y-71118809D01*
X179066977Y-71065421D01*
X179237617Y-71038394D01*
X179410383Y-71038394D01*
X179581023Y-71065421D01*
G37*
G36*
X194303032Y-70686644D02*
G01*
X194457159Y-70750485D01*
X194595869Y-70843168D01*
X194713832Y-70961131D01*
X194806515Y-71099841D01*
X194870356Y-71253968D01*
X194902902Y-71417587D01*
X194902902Y-71584413D01*
X194870356Y-71748032D01*
X194806515Y-71902159D01*
X194713832Y-72040869D01*
X194595869Y-72158832D01*
X194457159Y-72251515D01*
X194303032Y-72315356D01*
X194139413Y-72347902D01*
X193972587Y-72347902D01*
X193808968Y-72315356D01*
X193654841Y-72251515D01*
X193516131Y-72158832D01*
X193398168Y-72040869D01*
X193305485Y-71902159D01*
X193241644Y-71748032D01*
X193209098Y-71584413D01*
X193209098Y-71417587D01*
X193241644Y-71253968D01*
X193305485Y-71099841D01*
X193398168Y-70961131D01*
X193516131Y-70843168D01*
X193654841Y-70750485D01*
X193808968Y-70686644D01*
X193972587Y-70654098D01*
X194139413Y-70654098D01*
X194303032Y-70686644D01*
G37*
G36*
X198875032Y-70686644D02*
G01*
X199029159Y-70750485D01*
X199167869Y-70843168D01*
X199285832Y-70961131D01*
X199378515Y-71099841D01*
X199442356Y-71253968D01*
X199474902Y-71417587D01*
X199474902Y-71584413D01*
X199442356Y-71748032D01*
X199378515Y-71902159D01*
X199285832Y-72040869D01*
X199167869Y-72158832D01*
X199029159Y-72251515D01*
X198875032Y-72315356D01*
X198711413Y-72347902D01*
X198544587Y-72347902D01*
X198380968Y-72315356D01*
X198226841Y-72251515D01*
X198088131Y-72158832D01*
X197970168Y-72040869D01*
X197877485Y-71902159D01*
X197813644Y-71748032D01*
X197781098Y-71584413D01*
X197781098Y-71417587D01*
X197813644Y-71253968D01*
X197877485Y-71099841D01*
X197970168Y-70961131D01*
X198088131Y-70843168D01*
X198226841Y-70750485D01*
X198380968Y-70686644D01*
X198544587Y-70654098D01*
X198711413Y-70654098D01*
X198875032Y-70686644D01*
G37*
G36*
X203447032Y-70686644D02*
G01*
X203601159Y-70750485D01*
X203739869Y-70843168D01*
X203857832Y-70961131D01*
X203950515Y-71099841D01*
X204014356Y-71253968D01*
X204046902Y-71417587D01*
X204046902Y-71584413D01*
X204014356Y-71748032D01*
X203950515Y-71902159D01*
X203857832Y-72040869D01*
X203739869Y-72158832D01*
X203601159Y-72251515D01*
X203447032Y-72315356D01*
X203283413Y-72347902D01*
X203116587Y-72347902D01*
X202952968Y-72315356D01*
X202798841Y-72251515D01*
X202660131Y-72158832D01*
X202542168Y-72040869D01*
X202449485Y-71902159D01*
X202385644Y-71748032D01*
X202353098Y-71584413D01*
X202353098Y-71417587D01*
X202385644Y-71253968D01*
X202449485Y-71099841D01*
X202542168Y-70961131D01*
X202660131Y-70843168D01*
X202798841Y-70750485D01*
X202952968Y-70686644D01*
X203116587Y-70654098D01*
X203283413Y-70654098D01*
X203447032Y-70686644D01*
G37*
G36*
X187661553Y-69538579D02*
G01*
X187672214Y-69538579D01*
X187713865Y-69546864D01*
X187800916Y-69560651D01*
X187828918Y-69569749D01*
X187855061Y-69574950D01*
X187891956Y-69590232D01*
X187942784Y-69606748D01*
X187990399Y-69631009D01*
X188027298Y-69646293D01*
X188049463Y-69661103D01*
X188075693Y-69674468D01*
X188146990Y-69726268D01*
X188182308Y-69749867D01*
X188189846Y-69757405D01*
X188196370Y-69762145D01*
X188301854Y-69867629D01*
X188306593Y-69874152D01*
X188314133Y-69881692D01*
X188337734Y-69917014D01*
X188389531Y-69988306D01*
X188402894Y-70014533D01*
X188417707Y-70036702D01*
X188432993Y-70073605D01*
X188457251Y-70121215D01*
X188473764Y-70172035D01*
X188489050Y-70208939D01*
X188494251Y-70235086D01*
X188503348Y-70263083D01*
X188517134Y-70350125D01*
X188525421Y-70391786D01*
X188525421Y-70402447D01*
X188526683Y-70410415D01*
X188526683Y-70559584D01*
X188525421Y-70567551D01*
X188525421Y-70578214D01*
X188517133Y-70619877D01*
X188503348Y-70706916D01*
X188494251Y-70734910D01*
X188489050Y-70761061D01*
X188473762Y-70797968D01*
X188457251Y-70848784D01*
X188432995Y-70896388D01*
X188417707Y-70933298D01*
X188402892Y-70955470D01*
X188389531Y-70981693D01*
X188337742Y-71052973D01*
X188314133Y-71088308D01*
X188306591Y-71095849D01*
X188301854Y-71102370D01*
X188196370Y-71207854D01*
X188189849Y-71212591D01*
X188182308Y-71220133D01*
X188146973Y-71243742D01*
X188075693Y-71295531D01*
X188049470Y-71308892D01*
X188027298Y-71323707D01*
X187990388Y-71338995D01*
X187942784Y-71363251D01*
X187891968Y-71379762D01*
X187855061Y-71395050D01*
X187828910Y-71400251D01*
X187800916Y-71409348D01*
X187713875Y-71423133D01*
X187672214Y-71431421D01*
X187661553Y-71431421D01*
X187653585Y-71432683D01*
X187504415Y-71432683D01*
X187496447Y-71431421D01*
X187485786Y-71431421D01*
X187444125Y-71423134D01*
X187357083Y-71409348D01*
X187329086Y-71400251D01*
X187302939Y-71395050D01*
X187266035Y-71379764D01*
X187215215Y-71363251D01*
X187167605Y-71338993D01*
X187130702Y-71323707D01*
X187108533Y-71308894D01*
X187082306Y-71295531D01*
X187011014Y-71243734D01*
X186975692Y-71220133D01*
X186968152Y-71212593D01*
X186961629Y-71207854D01*
X186856145Y-71102370D01*
X186851405Y-71095846D01*
X186843867Y-71088308D01*
X186820268Y-71052990D01*
X186768468Y-70981693D01*
X186755103Y-70955463D01*
X186740293Y-70933298D01*
X186725009Y-70896399D01*
X186700748Y-70848784D01*
X186684232Y-70797956D01*
X186668950Y-70761061D01*
X186663749Y-70734918D01*
X186654651Y-70706916D01*
X186640864Y-70619867D01*
X186632579Y-70578214D01*
X186632579Y-70567552D01*
X186631317Y-70559584D01*
X186631317Y-70410415D01*
X186632579Y-70402446D01*
X186632579Y-70391786D01*
X186640863Y-70350136D01*
X186654651Y-70263083D01*
X186663750Y-70235078D01*
X186668950Y-70208939D01*
X186684231Y-70172046D01*
X186700748Y-70121215D01*
X186725011Y-70073595D01*
X186740293Y-70036702D01*
X186755101Y-70014539D01*
X186768468Y-69988306D01*
X186820277Y-69916996D01*
X186843867Y-69881692D01*
X186851402Y-69874156D01*
X186856145Y-69867629D01*
X186961629Y-69762145D01*
X186968156Y-69757402D01*
X186975692Y-69749867D01*
X187010996Y-69726277D01*
X187082306Y-69674468D01*
X187108539Y-69661101D01*
X187130702Y-69646293D01*
X187167595Y-69631011D01*
X187215215Y-69606748D01*
X187266046Y-69590231D01*
X187302939Y-69574950D01*
X187329078Y-69569750D01*
X187357083Y-69560651D01*
X187444136Y-69546863D01*
X187485786Y-69538579D01*
X187496447Y-69538579D01*
X187504415Y-69537317D01*
X187653585Y-69537317D01*
X187661553Y-69538579D01*
G37*
G36*
X210521553Y-69538579D02*
G01*
X210532214Y-69538579D01*
X210573865Y-69546864D01*
X210660916Y-69560651D01*
X210688918Y-69569749D01*
X210715061Y-69574950D01*
X210751956Y-69590232D01*
X210802784Y-69606748D01*
X210850399Y-69631009D01*
X210887298Y-69646293D01*
X210909463Y-69661103D01*
X210935693Y-69674468D01*
X211006990Y-69726268D01*
X211042308Y-69749867D01*
X211049846Y-69757405D01*
X211056370Y-69762145D01*
X211161854Y-69867629D01*
X211166593Y-69874152D01*
X211174133Y-69881692D01*
X211197734Y-69917014D01*
X211249531Y-69988306D01*
X211262894Y-70014533D01*
X211277707Y-70036702D01*
X211292993Y-70073605D01*
X211317251Y-70121215D01*
X211333764Y-70172035D01*
X211349050Y-70208939D01*
X211354251Y-70235086D01*
X211363348Y-70263083D01*
X211377134Y-70350125D01*
X211385421Y-70391786D01*
X211385421Y-70402447D01*
X211386683Y-70410415D01*
X211386683Y-70559584D01*
X211385421Y-70567551D01*
X211385421Y-70578214D01*
X211377133Y-70619877D01*
X211363348Y-70706916D01*
X211354251Y-70734910D01*
X211349050Y-70761061D01*
X211333762Y-70797968D01*
X211317251Y-70848784D01*
X211292995Y-70896388D01*
X211277707Y-70933298D01*
X211262892Y-70955470D01*
X211249531Y-70981693D01*
X211197742Y-71052973D01*
X211174133Y-71088308D01*
X211166591Y-71095849D01*
X211161854Y-71102370D01*
X211056370Y-71207854D01*
X211049849Y-71212591D01*
X211042308Y-71220133D01*
X211006973Y-71243742D01*
X210935693Y-71295531D01*
X210909470Y-71308892D01*
X210887298Y-71323707D01*
X210850388Y-71338995D01*
X210802784Y-71363251D01*
X210751968Y-71379762D01*
X210715061Y-71395050D01*
X210688910Y-71400251D01*
X210660916Y-71409348D01*
X210573875Y-71423133D01*
X210532214Y-71431421D01*
X210521553Y-71431421D01*
X210513585Y-71432683D01*
X210364415Y-71432683D01*
X210356447Y-71431421D01*
X210345786Y-71431421D01*
X210304125Y-71423134D01*
X210217083Y-71409348D01*
X210189086Y-71400251D01*
X210162939Y-71395050D01*
X210126035Y-71379764D01*
X210075215Y-71363251D01*
X210027605Y-71338993D01*
X209990702Y-71323707D01*
X209968533Y-71308894D01*
X209942306Y-71295531D01*
X209871014Y-71243734D01*
X209835692Y-71220133D01*
X209828152Y-71212593D01*
X209821629Y-71207854D01*
X209716145Y-71102370D01*
X209711405Y-71095846D01*
X209703867Y-71088308D01*
X209680268Y-71052990D01*
X209628468Y-70981693D01*
X209615103Y-70955463D01*
X209600293Y-70933298D01*
X209585009Y-70896399D01*
X209560748Y-70848784D01*
X209544232Y-70797956D01*
X209528950Y-70761061D01*
X209523749Y-70734918D01*
X209514651Y-70706916D01*
X209500864Y-70619867D01*
X209492579Y-70578214D01*
X209492579Y-70567552D01*
X209491317Y-70559584D01*
X209491317Y-70410415D01*
X209492579Y-70402446D01*
X209492579Y-70391786D01*
X209500863Y-70350136D01*
X209514651Y-70263083D01*
X209523750Y-70235078D01*
X209528950Y-70208939D01*
X209544231Y-70172046D01*
X209560748Y-70121215D01*
X209585011Y-70073595D01*
X209600293Y-70036702D01*
X209615101Y-70014539D01*
X209628468Y-69988306D01*
X209680277Y-69916996D01*
X209703867Y-69881692D01*
X209711402Y-69874156D01*
X209716145Y-69867629D01*
X209821629Y-69762145D01*
X209828156Y-69757402D01*
X209835692Y-69749867D01*
X209870996Y-69726277D01*
X209942306Y-69674468D01*
X209968539Y-69661101D01*
X209990702Y-69646293D01*
X210027595Y-69631011D01*
X210075215Y-69606748D01*
X210126046Y-69590231D01*
X210162939Y-69574950D01*
X210189078Y-69569750D01*
X210217083Y-69560651D01*
X210304136Y-69546863D01*
X210345786Y-69538579D01*
X210356447Y-69538579D01*
X210364415Y-69537317D01*
X210513585Y-69537317D01*
X210521553Y-69538579D01*
G37*
G36*
X187661553Y-66998579D02*
G01*
X187672214Y-66998579D01*
X187713865Y-67006864D01*
X187800916Y-67020651D01*
X187828918Y-67029749D01*
X187855061Y-67034950D01*
X187891956Y-67050232D01*
X187942784Y-67066748D01*
X187990399Y-67091009D01*
X188027298Y-67106293D01*
X188049463Y-67121103D01*
X188075693Y-67134468D01*
X188146990Y-67186268D01*
X188182308Y-67209867D01*
X188189846Y-67217405D01*
X188196370Y-67222145D01*
X188301854Y-67327629D01*
X188306593Y-67334152D01*
X188314133Y-67341692D01*
X188337734Y-67377014D01*
X188389531Y-67448306D01*
X188402894Y-67474533D01*
X188417707Y-67496702D01*
X188432993Y-67533605D01*
X188457251Y-67581215D01*
X188473764Y-67632035D01*
X188489050Y-67668939D01*
X188494251Y-67695086D01*
X188503348Y-67723083D01*
X188517134Y-67810125D01*
X188525421Y-67851786D01*
X188525421Y-67862447D01*
X188526683Y-67870415D01*
X188526683Y-68019584D01*
X188525421Y-68027551D01*
X188525421Y-68038214D01*
X188517133Y-68079877D01*
X188503348Y-68166916D01*
X188494251Y-68194910D01*
X188489050Y-68221061D01*
X188473762Y-68257968D01*
X188457251Y-68308784D01*
X188432995Y-68356388D01*
X188417707Y-68393298D01*
X188402892Y-68415470D01*
X188389531Y-68441693D01*
X188337742Y-68512973D01*
X188314133Y-68548308D01*
X188306591Y-68555849D01*
X188301854Y-68562370D01*
X188196370Y-68667854D01*
X188189849Y-68672591D01*
X188182308Y-68680133D01*
X188146973Y-68703742D01*
X188075693Y-68755531D01*
X188049470Y-68768892D01*
X188027298Y-68783707D01*
X187990388Y-68798995D01*
X187942784Y-68823251D01*
X187891968Y-68839762D01*
X187855061Y-68855050D01*
X187828910Y-68860251D01*
X187800916Y-68869348D01*
X187713875Y-68883133D01*
X187672214Y-68891421D01*
X187661553Y-68891421D01*
X187653585Y-68892683D01*
X187504415Y-68892683D01*
X187496447Y-68891421D01*
X187485786Y-68891421D01*
X187444125Y-68883134D01*
X187357083Y-68869348D01*
X187329086Y-68860251D01*
X187302939Y-68855050D01*
X187266035Y-68839764D01*
X187215215Y-68823251D01*
X187167605Y-68798993D01*
X187130702Y-68783707D01*
X187108533Y-68768894D01*
X187082306Y-68755531D01*
X187011014Y-68703734D01*
X186975692Y-68680133D01*
X186968152Y-68672593D01*
X186961629Y-68667854D01*
X186856145Y-68562370D01*
X186851405Y-68555846D01*
X186843867Y-68548308D01*
X186820268Y-68512990D01*
X186768468Y-68441693D01*
X186755103Y-68415463D01*
X186740293Y-68393298D01*
X186725009Y-68356399D01*
X186700748Y-68308784D01*
X186684232Y-68257956D01*
X186668950Y-68221061D01*
X186663749Y-68194918D01*
X186654651Y-68166916D01*
X186640864Y-68079867D01*
X186632579Y-68038214D01*
X186632579Y-68027552D01*
X186631317Y-68019584D01*
X186631317Y-67870415D01*
X186632579Y-67862446D01*
X186632579Y-67851786D01*
X186640863Y-67810136D01*
X186654651Y-67723083D01*
X186663750Y-67695078D01*
X186668950Y-67668939D01*
X186684231Y-67632046D01*
X186700748Y-67581215D01*
X186725011Y-67533595D01*
X186740293Y-67496702D01*
X186755101Y-67474539D01*
X186768468Y-67448306D01*
X186820277Y-67376996D01*
X186843867Y-67341692D01*
X186851402Y-67334156D01*
X186856145Y-67327629D01*
X186961629Y-67222145D01*
X186968156Y-67217402D01*
X186975692Y-67209867D01*
X187010996Y-67186277D01*
X187082306Y-67134468D01*
X187108539Y-67121101D01*
X187130702Y-67106293D01*
X187167595Y-67091011D01*
X187215215Y-67066748D01*
X187266046Y-67050231D01*
X187302939Y-67034950D01*
X187329078Y-67029750D01*
X187357083Y-67020651D01*
X187444136Y-67006863D01*
X187485786Y-66998579D01*
X187496447Y-66998579D01*
X187504415Y-66997317D01*
X187653585Y-66997317D01*
X187661553Y-66998579D01*
G37*
G36*
X210521553Y-66998579D02*
G01*
X210532214Y-66998579D01*
X210573865Y-67006864D01*
X210660916Y-67020651D01*
X210688918Y-67029749D01*
X210715061Y-67034950D01*
X210751956Y-67050232D01*
X210802784Y-67066748D01*
X210850399Y-67091009D01*
X210887298Y-67106293D01*
X210909463Y-67121103D01*
X210935693Y-67134468D01*
X211006990Y-67186268D01*
X211042308Y-67209867D01*
X211049846Y-67217405D01*
X211056370Y-67222145D01*
X211161854Y-67327629D01*
X211166593Y-67334152D01*
X211174133Y-67341692D01*
X211197734Y-67377014D01*
X211249531Y-67448306D01*
X211262894Y-67474533D01*
X211277707Y-67496702D01*
X211292993Y-67533605D01*
X211317251Y-67581215D01*
X211333764Y-67632035D01*
X211349050Y-67668939D01*
X211354251Y-67695086D01*
X211363348Y-67723083D01*
X211377134Y-67810125D01*
X211385421Y-67851786D01*
X211385421Y-67862447D01*
X211386683Y-67870415D01*
X211386683Y-68019584D01*
X211385421Y-68027551D01*
X211385421Y-68038214D01*
X211377133Y-68079877D01*
X211363348Y-68166916D01*
X211354251Y-68194910D01*
X211349050Y-68221061D01*
X211333762Y-68257968D01*
X211317251Y-68308784D01*
X211292995Y-68356388D01*
X211277707Y-68393298D01*
X211262892Y-68415470D01*
X211249531Y-68441693D01*
X211197742Y-68512973D01*
X211174133Y-68548308D01*
X211166591Y-68555849D01*
X211161854Y-68562370D01*
X211056370Y-68667854D01*
X211049849Y-68672591D01*
X211042308Y-68680133D01*
X211006973Y-68703742D01*
X210935693Y-68755531D01*
X210909470Y-68768892D01*
X210887298Y-68783707D01*
X210850388Y-68798995D01*
X210802784Y-68823251D01*
X210751968Y-68839762D01*
X210715061Y-68855050D01*
X210688910Y-68860251D01*
X210660916Y-68869348D01*
X210573875Y-68883133D01*
X210532214Y-68891421D01*
X210521553Y-68891421D01*
X210513585Y-68892683D01*
X210364415Y-68892683D01*
X210356447Y-68891421D01*
X210345786Y-68891421D01*
X210304125Y-68883134D01*
X210217083Y-68869348D01*
X210189086Y-68860251D01*
X210162939Y-68855050D01*
X210126035Y-68839764D01*
X210075215Y-68823251D01*
X210027605Y-68798993D01*
X209990702Y-68783707D01*
X209968533Y-68768894D01*
X209942306Y-68755531D01*
X209871014Y-68703734D01*
X209835692Y-68680133D01*
X209828152Y-68672593D01*
X209821629Y-68667854D01*
X209716145Y-68562370D01*
X209711405Y-68555846D01*
X209703867Y-68548308D01*
X209680268Y-68512990D01*
X209628468Y-68441693D01*
X209615103Y-68415463D01*
X209600293Y-68393298D01*
X209585009Y-68356399D01*
X209560748Y-68308784D01*
X209544232Y-68257956D01*
X209528950Y-68221061D01*
X209523749Y-68194918D01*
X209514651Y-68166916D01*
X209500864Y-68079867D01*
X209492579Y-68038214D01*
X209492579Y-68027552D01*
X209491317Y-68019584D01*
X209491317Y-67870415D01*
X209492579Y-67862446D01*
X209492579Y-67851786D01*
X209500863Y-67810136D01*
X209514651Y-67723083D01*
X209523750Y-67695078D01*
X209528950Y-67668939D01*
X209544231Y-67632046D01*
X209560748Y-67581215D01*
X209585011Y-67533595D01*
X209600293Y-67496702D01*
X209615101Y-67474539D01*
X209628468Y-67448306D01*
X209680277Y-67376996D01*
X209703867Y-67341692D01*
X209711402Y-67334156D01*
X209716145Y-67327629D01*
X209821629Y-67222145D01*
X209828156Y-67217402D01*
X209835692Y-67209867D01*
X209870996Y-67186277D01*
X209942306Y-67134468D01*
X209968539Y-67121101D01*
X209990702Y-67106293D01*
X210027595Y-67091011D01*
X210075215Y-67066748D01*
X210126046Y-67050231D01*
X210162939Y-67034950D01*
X210189078Y-67029750D01*
X210217083Y-67020651D01*
X210304136Y-67006863D01*
X210345786Y-66998579D01*
X210356447Y-66998579D01*
X210364415Y-66997317D01*
X210513585Y-66997317D01*
X210521553Y-66998579D01*
G37*
G36*
X216147032Y-66495644D02*
G01*
X216301159Y-66559485D01*
X216439869Y-66652168D01*
X216557832Y-66770131D01*
X216650515Y-66908841D01*
X216714356Y-67062968D01*
X216746902Y-67226587D01*
X216746902Y-67393413D01*
X216714356Y-67557032D01*
X216650515Y-67711159D01*
X216557832Y-67849869D01*
X216439869Y-67967832D01*
X216301159Y-68060515D01*
X216147032Y-68124356D01*
X215983413Y-68156902D01*
X215816587Y-68156902D01*
X215652968Y-68124356D01*
X215498841Y-68060515D01*
X215360131Y-67967832D01*
X215242168Y-67849869D01*
X215149485Y-67711159D01*
X215085644Y-67557032D01*
X215053098Y-67393413D01*
X215053098Y-67226587D01*
X215085644Y-67062968D01*
X215149485Y-66908841D01*
X215242168Y-66770131D01*
X215360131Y-66652168D01*
X215498841Y-66559485D01*
X215652968Y-66495644D01*
X215816587Y-66463098D01*
X215983413Y-66463098D01*
X216147032Y-66495644D01*
G37*
G36*
X226307032Y-66495644D02*
G01*
X226461159Y-66559485D01*
X226599869Y-66652168D01*
X226717832Y-66770131D01*
X226810515Y-66908841D01*
X226874356Y-67062968D01*
X226906902Y-67226587D01*
X226906902Y-67393413D01*
X226874356Y-67557032D01*
X226810515Y-67711159D01*
X226717832Y-67849869D01*
X226599869Y-67967832D01*
X226461159Y-68060515D01*
X226307032Y-68124356D01*
X226143413Y-68156902D01*
X225976587Y-68156902D01*
X225812968Y-68124356D01*
X225658841Y-68060515D01*
X225520131Y-67967832D01*
X225402168Y-67849869D01*
X225309485Y-67711159D01*
X225245644Y-67557032D01*
X225213098Y-67393413D01*
X225213098Y-67226587D01*
X225245644Y-67062968D01*
X225309485Y-66908841D01*
X225402168Y-66770131D01*
X225520131Y-66652168D01*
X225658841Y-66559485D01*
X225812968Y-66495644D01*
X225976587Y-66463098D01*
X226143413Y-66463098D01*
X226307032Y-66495644D01*
G37*
G36*
X187661553Y-64458579D02*
G01*
X187672214Y-64458579D01*
X187713865Y-64466864D01*
X187800916Y-64480651D01*
X187828918Y-64489749D01*
X187855061Y-64494950D01*
X187891956Y-64510232D01*
X187942784Y-64526748D01*
X187990399Y-64551009D01*
X188027298Y-64566293D01*
X188049463Y-64581103D01*
X188075693Y-64594468D01*
X188146990Y-64646268D01*
X188182308Y-64669867D01*
X188189846Y-64677405D01*
X188196370Y-64682145D01*
X188301854Y-64787629D01*
X188306593Y-64794152D01*
X188314133Y-64801692D01*
X188337734Y-64837014D01*
X188389531Y-64908306D01*
X188402894Y-64934533D01*
X188417707Y-64956702D01*
X188432993Y-64993605D01*
X188457251Y-65041215D01*
X188473764Y-65092035D01*
X188489050Y-65128939D01*
X188494251Y-65155086D01*
X188503348Y-65183083D01*
X188517134Y-65270125D01*
X188525421Y-65311786D01*
X188525421Y-65322447D01*
X188526683Y-65330415D01*
X188526683Y-65479584D01*
X188525421Y-65487551D01*
X188525421Y-65498214D01*
X188517133Y-65539877D01*
X188503348Y-65626916D01*
X188494251Y-65654910D01*
X188489050Y-65681061D01*
X188473762Y-65717968D01*
X188457251Y-65768784D01*
X188432995Y-65816388D01*
X188417707Y-65853298D01*
X188402892Y-65875470D01*
X188389531Y-65901693D01*
X188337742Y-65972973D01*
X188314133Y-66008308D01*
X188306591Y-66015849D01*
X188301854Y-66022370D01*
X188196370Y-66127854D01*
X188189849Y-66132591D01*
X188182308Y-66140133D01*
X188146973Y-66163742D01*
X188075693Y-66215531D01*
X188049470Y-66228892D01*
X188027298Y-66243707D01*
X187990388Y-66258995D01*
X187942784Y-66283251D01*
X187891968Y-66299762D01*
X187855061Y-66315050D01*
X187828910Y-66320251D01*
X187800916Y-66329348D01*
X187713875Y-66343133D01*
X187672214Y-66351421D01*
X187661553Y-66351421D01*
X187653585Y-66352683D01*
X187504415Y-66352683D01*
X187496447Y-66351421D01*
X187485786Y-66351421D01*
X187444125Y-66343134D01*
X187357083Y-66329348D01*
X187329086Y-66320251D01*
X187302939Y-66315050D01*
X187266035Y-66299764D01*
X187215215Y-66283251D01*
X187167605Y-66258993D01*
X187130702Y-66243707D01*
X187108533Y-66228894D01*
X187082306Y-66215531D01*
X187011014Y-66163734D01*
X186975692Y-66140133D01*
X186968152Y-66132593D01*
X186961629Y-66127854D01*
X186856145Y-66022370D01*
X186851405Y-66015846D01*
X186843867Y-66008308D01*
X186820268Y-65972990D01*
X186768468Y-65901693D01*
X186755103Y-65875463D01*
X186740293Y-65853298D01*
X186725009Y-65816399D01*
X186700748Y-65768784D01*
X186684232Y-65717956D01*
X186668950Y-65681061D01*
X186663749Y-65654918D01*
X186654651Y-65626916D01*
X186640864Y-65539867D01*
X186632579Y-65498214D01*
X186632579Y-65487552D01*
X186631317Y-65479584D01*
X186631317Y-65330415D01*
X186632579Y-65322446D01*
X186632579Y-65311786D01*
X186640863Y-65270136D01*
X186654651Y-65183083D01*
X186663750Y-65155078D01*
X186668950Y-65128939D01*
X186684231Y-65092046D01*
X186700748Y-65041215D01*
X186725011Y-64993595D01*
X186740293Y-64956702D01*
X186755101Y-64934539D01*
X186768468Y-64908306D01*
X186820277Y-64836996D01*
X186843867Y-64801692D01*
X186851402Y-64794156D01*
X186856145Y-64787629D01*
X186961629Y-64682145D01*
X186968156Y-64677402D01*
X186975692Y-64669867D01*
X187010996Y-64646277D01*
X187082306Y-64594468D01*
X187108539Y-64581101D01*
X187130702Y-64566293D01*
X187167595Y-64551011D01*
X187215215Y-64526748D01*
X187266046Y-64510231D01*
X187302939Y-64494950D01*
X187329078Y-64489750D01*
X187357083Y-64480651D01*
X187444136Y-64466863D01*
X187485786Y-64458579D01*
X187496447Y-64458579D01*
X187504415Y-64457317D01*
X187653585Y-64457317D01*
X187661553Y-64458579D01*
G37*
G36*
X210521553Y-64458579D02*
G01*
X210532214Y-64458579D01*
X210573865Y-64466864D01*
X210660916Y-64480651D01*
X210688918Y-64489749D01*
X210715061Y-64494950D01*
X210751956Y-64510232D01*
X210802784Y-64526748D01*
X210850399Y-64551009D01*
X210887298Y-64566293D01*
X210909463Y-64581103D01*
X210935693Y-64594468D01*
X211006990Y-64646268D01*
X211042308Y-64669867D01*
X211049846Y-64677405D01*
X211056370Y-64682145D01*
X211161854Y-64787629D01*
X211166593Y-64794152D01*
X211174133Y-64801692D01*
X211197734Y-64837014D01*
X211249531Y-64908306D01*
X211262894Y-64934533D01*
X211277707Y-64956702D01*
X211292993Y-64993605D01*
X211317251Y-65041215D01*
X211333764Y-65092035D01*
X211349050Y-65128939D01*
X211354251Y-65155086D01*
X211363348Y-65183083D01*
X211377134Y-65270125D01*
X211385421Y-65311786D01*
X211385421Y-65322447D01*
X211386683Y-65330415D01*
X211386683Y-65479584D01*
X211385421Y-65487551D01*
X211385421Y-65498214D01*
X211377133Y-65539877D01*
X211363348Y-65626916D01*
X211354251Y-65654910D01*
X211349050Y-65681061D01*
X211333762Y-65717968D01*
X211317251Y-65768784D01*
X211292995Y-65816388D01*
X211277707Y-65853298D01*
X211262892Y-65875470D01*
X211249531Y-65901693D01*
X211197742Y-65972973D01*
X211174133Y-66008308D01*
X211166591Y-66015849D01*
X211161854Y-66022370D01*
X211056370Y-66127854D01*
X211049849Y-66132591D01*
X211042308Y-66140133D01*
X211006973Y-66163742D01*
X210935693Y-66215531D01*
X210909470Y-66228892D01*
X210887298Y-66243707D01*
X210850388Y-66258995D01*
X210802784Y-66283251D01*
X210751968Y-66299762D01*
X210715061Y-66315050D01*
X210688910Y-66320251D01*
X210660916Y-66329348D01*
X210573875Y-66343133D01*
X210532214Y-66351421D01*
X210521553Y-66351421D01*
X210513585Y-66352683D01*
X210364415Y-66352683D01*
X210356447Y-66351421D01*
X210345786Y-66351421D01*
X210304125Y-66343134D01*
X210217083Y-66329348D01*
X210189086Y-66320251D01*
X210162939Y-66315050D01*
X210126035Y-66299764D01*
X210075215Y-66283251D01*
X210027605Y-66258993D01*
X209990702Y-66243707D01*
X209968533Y-66228894D01*
X209942306Y-66215531D01*
X209871014Y-66163734D01*
X209835692Y-66140133D01*
X209828152Y-66132593D01*
X209821629Y-66127854D01*
X209716145Y-66022370D01*
X209711405Y-66015846D01*
X209703867Y-66008308D01*
X209680268Y-65972990D01*
X209628468Y-65901693D01*
X209615103Y-65875463D01*
X209600293Y-65853298D01*
X209585009Y-65816399D01*
X209560748Y-65768784D01*
X209544232Y-65717956D01*
X209528950Y-65681061D01*
X209523749Y-65654918D01*
X209514651Y-65626916D01*
X209500864Y-65539867D01*
X209492579Y-65498214D01*
X209492579Y-65487552D01*
X209491317Y-65479584D01*
X209491317Y-65330415D01*
X209492579Y-65322446D01*
X209492579Y-65311786D01*
X209500863Y-65270136D01*
X209514651Y-65183083D01*
X209523750Y-65155078D01*
X209528950Y-65128939D01*
X209544231Y-65092046D01*
X209560748Y-65041215D01*
X209585011Y-64993595D01*
X209600293Y-64956702D01*
X209615101Y-64934539D01*
X209628468Y-64908306D01*
X209680277Y-64836996D01*
X209703867Y-64801692D01*
X209711402Y-64794156D01*
X209716145Y-64787629D01*
X209821629Y-64682145D01*
X209828156Y-64677402D01*
X209835692Y-64669867D01*
X209870996Y-64646277D01*
X209942306Y-64594468D01*
X209968539Y-64581101D01*
X209990702Y-64566293D01*
X210027595Y-64551011D01*
X210075215Y-64526748D01*
X210126046Y-64510231D01*
X210162939Y-64494950D01*
X210189078Y-64489750D01*
X210217083Y-64480651D01*
X210304136Y-64466863D01*
X210345786Y-64458579D01*
X210356447Y-64458579D01*
X210364415Y-64457317D01*
X210513585Y-64457317D01*
X210521553Y-64458579D01*
G37*
G36*
X179540001Y-64754008D02*
G01*
X179687246Y-64814998D01*
X179819762Y-64903543D01*
X179932457Y-65016238D01*
X180021002Y-65148754D01*
X180081992Y-65295999D01*
X180113085Y-65452312D01*
X180113085Y-65611688D01*
X180081992Y-65768001D01*
X180021002Y-65915246D01*
X179932457Y-66047762D01*
X179819762Y-66160457D01*
X179687246Y-66249002D01*
X179540001Y-66309992D01*
X179383688Y-66341085D01*
X179224312Y-66341085D01*
X179067999Y-66309992D01*
X178920754Y-66249002D01*
X178788238Y-66160457D01*
X178675543Y-66047762D01*
X178586998Y-65915246D01*
X178526008Y-65768001D01*
X178494915Y-65611688D01*
X178494915Y-65452312D01*
X178526008Y-65295999D01*
X178586998Y-65148754D01*
X178675543Y-65016238D01*
X178788238Y-64903543D01*
X178920754Y-64814998D01*
X179067999Y-64754008D01*
X179224312Y-64722915D01*
X179383688Y-64722915D01*
X179540001Y-64754008D01*
G37*
G36*
X187661553Y-61918579D02*
G01*
X187672214Y-61918579D01*
X187713865Y-61926864D01*
X187800916Y-61940651D01*
X187828918Y-61949749D01*
X187855061Y-61954950D01*
X187891956Y-61970232D01*
X187942784Y-61986748D01*
X187990399Y-62011009D01*
X188027298Y-62026293D01*
X188049463Y-62041103D01*
X188075693Y-62054468D01*
X188146990Y-62106268D01*
X188182308Y-62129867D01*
X188189846Y-62137405D01*
X188196370Y-62142145D01*
X188301854Y-62247629D01*
X188306593Y-62254152D01*
X188314133Y-62261692D01*
X188337734Y-62297014D01*
X188389531Y-62368306D01*
X188402894Y-62394533D01*
X188417707Y-62416702D01*
X188432993Y-62453605D01*
X188457251Y-62501215D01*
X188473764Y-62552035D01*
X188489050Y-62588939D01*
X188494251Y-62615086D01*
X188503348Y-62643083D01*
X188517134Y-62730125D01*
X188525421Y-62771786D01*
X188525421Y-62782447D01*
X188526683Y-62790415D01*
X188526683Y-62939584D01*
X188525421Y-62947551D01*
X188525421Y-62958214D01*
X188517133Y-62999877D01*
X188503348Y-63086916D01*
X188494251Y-63114910D01*
X188489050Y-63141061D01*
X188473762Y-63177968D01*
X188457251Y-63228784D01*
X188432995Y-63276388D01*
X188417707Y-63313298D01*
X188402892Y-63335470D01*
X188389531Y-63361693D01*
X188337742Y-63432973D01*
X188314133Y-63468308D01*
X188306591Y-63475849D01*
X188301854Y-63482370D01*
X188196370Y-63587854D01*
X188189849Y-63592591D01*
X188182308Y-63600133D01*
X188146973Y-63623742D01*
X188075693Y-63675531D01*
X188049470Y-63688892D01*
X188027298Y-63703707D01*
X187990388Y-63718995D01*
X187942784Y-63743251D01*
X187891968Y-63759762D01*
X187855061Y-63775050D01*
X187828910Y-63780251D01*
X187800916Y-63789348D01*
X187713875Y-63803133D01*
X187672214Y-63811421D01*
X187661553Y-63811421D01*
X187653585Y-63812683D01*
X187504415Y-63812683D01*
X187496447Y-63811421D01*
X187485786Y-63811421D01*
X187444125Y-63803134D01*
X187357083Y-63789348D01*
X187329086Y-63780251D01*
X187302939Y-63775050D01*
X187266035Y-63759764D01*
X187215215Y-63743251D01*
X187167605Y-63718993D01*
X187130702Y-63703707D01*
X187108533Y-63688894D01*
X187082306Y-63675531D01*
X187011014Y-63623734D01*
X186975692Y-63600133D01*
X186968152Y-63592593D01*
X186961629Y-63587854D01*
X186856145Y-63482370D01*
X186851405Y-63475846D01*
X186843867Y-63468308D01*
X186820268Y-63432990D01*
X186768468Y-63361693D01*
X186755103Y-63335463D01*
X186740293Y-63313298D01*
X186725009Y-63276399D01*
X186700748Y-63228784D01*
X186684232Y-63177956D01*
X186668950Y-63141061D01*
X186663749Y-63114918D01*
X186654651Y-63086916D01*
X186640864Y-62999867D01*
X186632579Y-62958214D01*
X186632579Y-62947552D01*
X186631317Y-62939584D01*
X186631317Y-62790415D01*
X186632579Y-62782446D01*
X186632579Y-62771786D01*
X186640863Y-62730136D01*
X186654651Y-62643083D01*
X186663750Y-62615078D01*
X186668950Y-62588939D01*
X186684231Y-62552046D01*
X186700748Y-62501215D01*
X186725011Y-62453595D01*
X186740293Y-62416702D01*
X186755101Y-62394539D01*
X186768468Y-62368306D01*
X186820277Y-62296996D01*
X186843867Y-62261692D01*
X186851402Y-62254156D01*
X186856145Y-62247629D01*
X186961629Y-62142145D01*
X186968156Y-62137402D01*
X186975692Y-62129867D01*
X187010996Y-62106277D01*
X187082306Y-62054468D01*
X187108539Y-62041101D01*
X187130702Y-62026293D01*
X187167595Y-62011011D01*
X187215215Y-61986748D01*
X187266046Y-61970231D01*
X187302939Y-61954950D01*
X187329078Y-61949750D01*
X187357083Y-61940651D01*
X187444136Y-61926863D01*
X187485786Y-61918579D01*
X187496447Y-61918579D01*
X187504415Y-61917317D01*
X187653585Y-61917317D01*
X187661553Y-61918579D01*
G37*
G36*
X210521553Y-61918579D02*
G01*
X210532214Y-61918579D01*
X210573865Y-61926864D01*
X210660916Y-61940651D01*
X210688918Y-61949749D01*
X210715061Y-61954950D01*
X210751956Y-61970232D01*
X210802784Y-61986748D01*
X210850399Y-62011009D01*
X210887298Y-62026293D01*
X210909463Y-62041103D01*
X210935693Y-62054468D01*
X211006990Y-62106268D01*
X211042308Y-62129867D01*
X211049846Y-62137405D01*
X211056370Y-62142145D01*
X211161854Y-62247629D01*
X211166593Y-62254152D01*
X211174133Y-62261692D01*
X211197734Y-62297014D01*
X211249531Y-62368306D01*
X211262894Y-62394533D01*
X211277707Y-62416702D01*
X211292993Y-62453605D01*
X211317251Y-62501215D01*
X211333764Y-62552035D01*
X211349050Y-62588939D01*
X211354251Y-62615086D01*
X211363348Y-62643083D01*
X211377134Y-62730125D01*
X211385421Y-62771786D01*
X211385421Y-62782447D01*
X211386683Y-62790415D01*
X211386683Y-62939584D01*
X211385421Y-62947551D01*
X211385421Y-62958214D01*
X211377133Y-62999877D01*
X211363348Y-63086916D01*
X211354251Y-63114910D01*
X211349050Y-63141061D01*
X211333762Y-63177968D01*
X211317251Y-63228784D01*
X211292995Y-63276388D01*
X211277707Y-63313298D01*
X211262892Y-63335470D01*
X211249531Y-63361693D01*
X211197742Y-63432973D01*
X211174133Y-63468308D01*
X211166591Y-63475849D01*
X211161854Y-63482370D01*
X211056370Y-63587854D01*
X211049849Y-63592591D01*
X211042308Y-63600133D01*
X211006973Y-63623742D01*
X210935693Y-63675531D01*
X210909470Y-63688892D01*
X210887298Y-63703707D01*
X210850388Y-63718995D01*
X210802784Y-63743251D01*
X210751968Y-63759762D01*
X210715061Y-63775050D01*
X210688910Y-63780251D01*
X210660916Y-63789348D01*
X210573875Y-63803133D01*
X210532214Y-63811421D01*
X210521553Y-63811421D01*
X210513585Y-63812683D01*
X210364415Y-63812683D01*
X210356447Y-63811421D01*
X210345786Y-63811421D01*
X210304125Y-63803134D01*
X210217083Y-63789348D01*
X210189086Y-63780251D01*
X210162939Y-63775050D01*
X210126035Y-63759764D01*
X210075215Y-63743251D01*
X210027605Y-63718993D01*
X209990702Y-63703707D01*
X209968533Y-63688894D01*
X209942306Y-63675531D01*
X209871014Y-63623734D01*
X209835692Y-63600133D01*
X209828152Y-63592593D01*
X209821629Y-63587854D01*
X209716145Y-63482370D01*
X209711405Y-63475846D01*
X209703867Y-63468308D01*
X209680268Y-63432990D01*
X209628468Y-63361693D01*
X209615103Y-63335463D01*
X209600293Y-63313298D01*
X209585009Y-63276399D01*
X209560748Y-63228784D01*
X209544232Y-63177956D01*
X209528950Y-63141061D01*
X209523749Y-63114918D01*
X209514651Y-63086916D01*
X209500864Y-62999867D01*
X209492579Y-62958214D01*
X209492579Y-62947552D01*
X209491317Y-62939584D01*
X209491317Y-62790415D01*
X209492579Y-62782446D01*
X209492579Y-62771786D01*
X209500863Y-62730136D01*
X209514651Y-62643083D01*
X209523750Y-62615078D01*
X209528950Y-62588939D01*
X209544231Y-62552046D01*
X209560748Y-62501215D01*
X209585011Y-62453595D01*
X209600293Y-62416702D01*
X209615101Y-62394539D01*
X209628468Y-62368306D01*
X209680277Y-62296996D01*
X209703867Y-62261692D01*
X209711402Y-62254156D01*
X209716145Y-62247629D01*
X209821629Y-62142145D01*
X209828156Y-62137402D01*
X209835692Y-62129867D01*
X209870996Y-62106277D01*
X209942306Y-62054468D01*
X209968539Y-62041101D01*
X209990702Y-62026293D01*
X210027595Y-62011011D01*
X210075215Y-61986748D01*
X210126046Y-61970231D01*
X210162939Y-61954950D01*
X210189078Y-61949750D01*
X210217083Y-61940651D01*
X210304136Y-61926863D01*
X210345786Y-61918579D01*
X210356447Y-61918579D01*
X210364415Y-61917317D01*
X210513585Y-61917317D01*
X210521553Y-61918579D01*
G37*
G36*
X179560001Y-62214008D02*
G01*
X179707246Y-62274998D01*
X179839762Y-62363543D01*
X179952457Y-62476238D01*
X180041002Y-62608754D01*
X180101992Y-62755999D01*
X180133085Y-62912312D01*
X180133085Y-63071688D01*
X180101992Y-63228001D01*
X180041002Y-63375246D01*
X179952457Y-63507762D01*
X179839762Y-63620457D01*
X179707246Y-63709002D01*
X179560001Y-63769992D01*
X179403688Y-63801085D01*
X179244312Y-63801085D01*
X179087999Y-63769992D01*
X178940754Y-63709002D01*
X178808238Y-63620457D01*
X178695543Y-63507762D01*
X178606998Y-63375246D01*
X178546008Y-63228001D01*
X178514915Y-63071688D01*
X178514915Y-62912312D01*
X178546008Y-62755999D01*
X178606998Y-62608754D01*
X178695543Y-62476238D01*
X178808238Y-62363543D01*
X178940754Y-62274998D01*
X179087999Y-62214008D01*
X179244312Y-62182915D01*
X179403688Y-62182915D01*
X179560001Y-62214008D01*
G37*
G36*
X216288546Y-62002797D02*
G01*
X216451728Y-62070389D01*
X216598588Y-62168518D01*
X216723482Y-62293412D01*
X216821611Y-62440272D01*
X216889203Y-62603454D01*
X216923661Y-62776687D01*
X216923661Y-62953313D01*
X216889203Y-63126546D01*
X216821611Y-63289728D01*
X216723482Y-63436588D01*
X216598588Y-63561482D01*
X216451728Y-63659611D01*
X216288546Y-63727203D01*
X216115313Y-63761661D01*
X215938687Y-63761661D01*
X215765454Y-63727203D01*
X215602272Y-63659611D01*
X215455412Y-63561482D01*
X215330518Y-63436588D01*
X215232389Y-63289728D01*
X215164797Y-63126546D01*
X215130339Y-62953313D01*
X215130339Y-62776687D01*
X215164797Y-62603454D01*
X215232389Y-62440272D01*
X215330518Y-62293412D01*
X215455412Y-62168518D01*
X215602272Y-62070389D01*
X215765454Y-62002797D01*
X215938687Y-61968339D01*
X216115313Y-61968339D01*
X216288546Y-62002797D01*
G37*
G36*
X194303032Y-60526644D02*
G01*
X194457159Y-60590485D01*
X194595869Y-60683168D01*
X194713832Y-60801131D01*
X194806515Y-60939841D01*
X194870356Y-61093968D01*
X194902902Y-61257587D01*
X194902902Y-61424413D01*
X194870356Y-61588032D01*
X194806515Y-61742159D01*
X194713832Y-61880869D01*
X194595869Y-61998832D01*
X194457159Y-62091515D01*
X194303032Y-62155356D01*
X194139413Y-62187902D01*
X193972587Y-62187902D01*
X193808968Y-62155356D01*
X193654841Y-62091515D01*
X193516131Y-61998832D01*
X193398168Y-61880869D01*
X193305485Y-61742159D01*
X193241644Y-61588032D01*
X193209098Y-61424413D01*
X193209098Y-61257587D01*
X193241644Y-61093968D01*
X193305485Y-60939841D01*
X193398168Y-60801131D01*
X193516131Y-60683168D01*
X193654841Y-60590485D01*
X193808968Y-60526644D01*
X193972587Y-60494098D01*
X194139413Y-60494098D01*
X194303032Y-60526644D01*
G37*
G36*
X198875032Y-60526644D02*
G01*
X199029159Y-60590485D01*
X199167869Y-60683168D01*
X199285832Y-60801131D01*
X199378515Y-60939841D01*
X199442356Y-61093968D01*
X199474902Y-61257587D01*
X199474902Y-61424413D01*
X199442356Y-61588032D01*
X199378515Y-61742159D01*
X199285832Y-61880869D01*
X199167869Y-61998832D01*
X199029159Y-62091515D01*
X198875032Y-62155356D01*
X198711413Y-62187902D01*
X198544587Y-62187902D01*
X198380968Y-62155356D01*
X198226841Y-62091515D01*
X198088131Y-61998832D01*
X197970168Y-61880869D01*
X197877485Y-61742159D01*
X197813644Y-61588032D01*
X197781098Y-61424413D01*
X197781098Y-61257587D01*
X197813644Y-61093968D01*
X197877485Y-60939841D01*
X197970168Y-60801131D01*
X198088131Y-60683168D01*
X198226841Y-60590485D01*
X198380968Y-60526644D01*
X198544587Y-60494098D01*
X198711413Y-60494098D01*
X198875032Y-60526644D01*
G37*
G36*
X203447032Y-60526644D02*
G01*
X203601159Y-60590485D01*
X203739869Y-60683168D01*
X203857832Y-60801131D01*
X203950515Y-60939841D01*
X204014356Y-61093968D01*
X204046902Y-61257587D01*
X204046902Y-61424413D01*
X204014356Y-61588032D01*
X203950515Y-61742159D01*
X203857832Y-61880869D01*
X203739869Y-61998832D01*
X203601159Y-62091515D01*
X203447032Y-62155356D01*
X203283413Y-62187902D01*
X203116587Y-62187902D01*
X202952968Y-62155356D01*
X202798841Y-62091515D01*
X202660131Y-61998832D01*
X202542168Y-61880869D01*
X202449485Y-61742159D01*
X202385644Y-61588032D01*
X202353098Y-61424413D01*
X202353098Y-61257587D01*
X202385644Y-61093968D01*
X202449485Y-60939841D01*
X202542168Y-60801131D01*
X202660131Y-60683168D01*
X202798841Y-60590485D01*
X202952968Y-60526644D01*
X203116587Y-60494098D01*
X203283413Y-60494098D01*
X203447032Y-60526644D01*
G37*
G36*
X187661553Y-59378579D02*
G01*
X187672214Y-59378579D01*
X187713865Y-59386864D01*
X187800916Y-59400651D01*
X187828918Y-59409749D01*
X187855061Y-59414950D01*
X187891956Y-59430232D01*
X187942784Y-59446748D01*
X187990399Y-59471009D01*
X188027298Y-59486293D01*
X188049463Y-59501103D01*
X188075693Y-59514468D01*
X188146990Y-59566268D01*
X188182308Y-59589867D01*
X188189846Y-59597405D01*
X188196370Y-59602145D01*
X188301854Y-59707629D01*
X188306593Y-59714152D01*
X188314133Y-59721692D01*
X188337734Y-59757014D01*
X188389531Y-59828306D01*
X188402894Y-59854533D01*
X188417707Y-59876702D01*
X188432993Y-59913605D01*
X188457251Y-59961215D01*
X188473764Y-60012035D01*
X188489050Y-60048939D01*
X188494251Y-60075086D01*
X188503348Y-60103083D01*
X188517134Y-60190125D01*
X188525421Y-60231786D01*
X188525421Y-60242447D01*
X188526683Y-60250415D01*
X188526683Y-60399584D01*
X188525421Y-60407551D01*
X188525421Y-60418214D01*
X188517133Y-60459877D01*
X188503348Y-60546916D01*
X188494251Y-60574910D01*
X188489050Y-60601061D01*
X188473762Y-60637968D01*
X188457251Y-60688784D01*
X188432995Y-60736388D01*
X188417707Y-60773298D01*
X188402892Y-60795470D01*
X188389531Y-60821693D01*
X188337742Y-60892973D01*
X188314133Y-60928308D01*
X188306591Y-60935849D01*
X188301854Y-60942370D01*
X188196370Y-61047854D01*
X188189849Y-61052591D01*
X188182308Y-61060133D01*
X188146973Y-61083742D01*
X188075693Y-61135531D01*
X188049470Y-61148892D01*
X188027298Y-61163707D01*
X187990388Y-61178995D01*
X187942784Y-61203251D01*
X187891968Y-61219762D01*
X187855061Y-61235050D01*
X187828910Y-61240251D01*
X187800916Y-61249348D01*
X187713875Y-61263133D01*
X187672214Y-61271421D01*
X187661553Y-61271421D01*
X187653585Y-61272683D01*
X187504415Y-61272683D01*
X187496447Y-61271421D01*
X187485786Y-61271421D01*
X187444125Y-61263134D01*
X187357083Y-61249348D01*
X187329086Y-61240251D01*
X187302939Y-61235050D01*
X187266035Y-61219764D01*
X187215215Y-61203251D01*
X187167605Y-61178993D01*
X187130702Y-61163707D01*
X187108533Y-61148894D01*
X187082306Y-61135531D01*
X187011014Y-61083734D01*
X186975692Y-61060133D01*
X186968152Y-61052593D01*
X186961629Y-61047854D01*
X186856145Y-60942370D01*
X186851405Y-60935846D01*
X186843867Y-60928308D01*
X186820268Y-60892990D01*
X186768468Y-60821693D01*
X186755103Y-60795463D01*
X186740293Y-60773298D01*
X186725009Y-60736399D01*
X186700748Y-60688784D01*
X186684232Y-60637956D01*
X186668950Y-60601061D01*
X186663749Y-60574918D01*
X186654651Y-60546916D01*
X186640864Y-60459867D01*
X186632579Y-60418214D01*
X186632579Y-60407552D01*
X186631317Y-60399584D01*
X186631317Y-60250415D01*
X186632579Y-60242446D01*
X186632579Y-60231786D01*
X186640863Y-60190136D01*
X186654651Y-60103083D01*
X186663750Y-60075078D01*
X186668950Y-60048939D01*
X186684231Y-60012046D01*
X186700748Y-59961215D01*
X186725011Y-59913595D01*
X186740293Y-59876702D01*
X186755101Y-59854539D01*
X186768468Y-59828306D01*
X186820277Y-59756996D01*
X186843867Y-59721692D01*
X186851402Y-59714156D01*
X186856145Y-59707629D01*
X186961629Y-59602145D01*
X186968156Y-59597402D01*
X186975692Y-59589867D01*
X187010996Y-59566277D01*
X187082306Y-59514468D01*
X187108539Y-59501101D01*
X187130702Y-59486293D01*
X187167595Y-59471011D01*
X187215215Y-59446748D01*
X187266046Y-59430231D01*
X187302939Y-59414950D01*
X187329078Y-59409750D01*
X187357083Y-59400651D01*
X187444136Y-59386863D01*
X187485786Y-59378579D01*
X187496447Y-59378579D01*
X187504415Y-59377317D01*
X187653585Y-59377317D01*
X187661553Y-59378579D01*
G37*
G36*
X210521553Y-59378579D02*
G01*
X210532214Y-59378579D01*
X210573865Y-59386864D01*
X210660916Y-59400651D01*
X210688918Y-59409749D01*
X210715061Y-59414950D01*
X210751956Y-59430232D01*
X210802784Y-59446748D01*
X210850399Y-59471009D01*
X210887298Y-59486293D01*
X210909463Y-59501103D01*
X210935693Y-59514468D01*
X211006990Y-59566268D01*
X211042308Y-59589867D01*
X211049846Y-59597405D01*
X211056370Y-59602145D01*
X211161854Y-59707629D01*
X211166593Y-59714152D01*
X211174133Y-59721692D01*
X211197734Y-59757014D01*
X211249531Y-59828306D01*
X211262894Y-59854533D01*
X211277707Y-59876702D01*
X211292993Y-59913605D01*
X211317251Y-59961215D01*
X211333764Y-60012035D01*
X211349050Y-60048939D01*
X211354251Y-60075086D01*
X211363348Y-60103083D01*
X211377134Y-60190125D01*
X211385421Y-60231786D01*
X211385421Y-60242447D01*
X211386683Y-60250415D01*
X211386683Y-60399584D01*
X211385421Y-60407551D01*
X211385421Y-60418214D01*
X211377133Y-60459877D01*
X211363348Y-60546916D01*
X211354251Y-60574910D01*
X211349050Y-60601061D01*
X211333762Y-60637968D01*
X211317251Y-60688784D01*
X211292995Y-60736388D01*
X211277707Y-60773298D01*
X211262892Y-60795470D01*
X211249531Y-60821693D01*
X211197742Y-60892973D01*
X211174133Y-60928308D01*
X211166591Y-60935849D01*
X211161854Y-60942370D01*
X211056370Y-61047854D01*
X211049849Y-61052591D01*
X211042308Y-61060133D01*
X211006973Y-61083742D01*
X210935693Y-61135531D01*
X210909470Y-61148892D01*
X210887298Y-61163707D01*
X210850388Y-61178995D01*
X210802784Y-61203251D01*
X210751968Y-61219762D01*
X210715061Y-61235050D01*
X210688910Y-61240251D01*
X210660916Y-61249348D01*
X210573875Y-61263133D01*
X210532214Y-61271421D01*
X210521553Y-61271421D01*
X210513585Y-61272683D01*
X210364415Y-61272683D01*
X210356447Y-61271421D01*
X210345786Y-61271421D01*
X210304125Y-61263134D01*
X210217083Y-61249348D01*
X210189086Y-61240251D01*
X210162939Y-61235050D01*
X210126035Y-61219764D01*
X210075215Y-61203251D01*
X210027605Y-61178993D01*
X209990702Y-61163707D01*
X209968533Y-61148894D01*
X209942306Y-61135531D01*
X209871014Y-61083734D01*
X209835692Y-61060133D01*
X209828152Y-61052593D01*
X209821629Y-61047854D01*
X209716145Y-60942370D01*
X209711405Y-60935846D01*
X209703867Y-60928308D01*
X209680268Y-60892990D01*
X209628468Y-60821693D01*
X209615103Y-60795463D01*
X209600293Y-60773298D01*
X209585009Y-60736399D01*
X209560748Y-60688784D01*
X209544232Y-60637956D01*
X209528950Y-60601061D01*
X209523749Y-60574918D01*
X209514651Y-60546916D01*
X209500864Y-60459867D01*
X209492579Y-60418214D01*
X209492579Y-60407552D01*
X209491317Y-60399584D01*
X209491317Y-60250415D01*
X209492579Y-60242446D01*
X209492579Y-60231786D01*
X209500863Y-60190136D01*
X209514651Y-60103083D01*
X209523750Y-60075078D01*
X209528950Y-60048939D01*
X209544231Y-60012046D01*
X209560748Y-59961215D01*
X209585011Y-59913595D01*
X209600293Y-59876702D01*
X209615101Y-59854539D01*
X209628468Y-59828306D01*
X209680277Y-59756996D01*
X209703867Y-59721692D01*
X209711402Y-59714156D01*
X209716145Y-59707629D01*
X209821629Y-59602145D01*
X209828156Y-59597402D01*
X209835692Y-59589867D01*
X209870996Y-59566277D01*
X209942306Y-59514468D01*
X209968539Y-59501101D01*
X209990702Y-59486293D01*
X210027595Y-59471011D01*
X210075215Y-59446748D01*
X210126046Y-59430231D01*
X210162939Y-59414950D01*
X210189078Y-59409750D01*
X210217083Y-59400651D01*
X210304136Y-59386863D01*
X210345786Y-59378579D01*
X210356447Y-59378579D01*
X210364415Y-59377317D01*
X210513585Y-59377317D01*
X210521553Y-59378579D01*
G37*
G36*
X216896517Y-59427882D02*
G01*
X216913062Y-59438938D01*
X216924118Y-59455483D01*
X216928000Y-59475000D01*
X216928000Y-61175000D01*
X216924118Y-61194517D01*
X216913062Y-61211062D01*
X216896517Y-61222118D01*
X216877000Y-61226000D01*
X215177000Y-61226000D01*
X215157483Y-61222118D01*
X215140938Y-61211062D01*
X215129882Y-61194517D01*
X215126000Y-61175000D01*
X215126000Y-59475000D01*
X215129882Y-59455483D01*
X215140938Y-59438938D01*
X215157483Y-59427882D01*
X215177000Y-59424000D01*
X216877000Y-59424000D01*
X216896517Y-59427882D01*
G37*
G36*
X179540001Y-55864008D02*
G01*
X179687246Y-55924998D01*
X179819762Y-56013543D01*
X179932457Y-56126238D01*
X180021002Y-56258754D01*
X180081992Y-56405999D01*
X180113085Y-56562312D01*
X180113085Y-56721688D01*
X180081992Y-56878001D01*
X180021002Y-57025246D01*
X179932457Y-57157762D01*
X179819762Y-57270457D01*
X179687246Y-57359002D01*
X179540001Y-57419992D01*
X179383688Y-57451085D01*
X179224312Y-57451085D01*
X179067999Y-57419992D01*
X178920754Y-57359002D01*
X178788238Y-57270457D01*
X178675543Y-57157762D01*
X178586998Y-57025246D01*
X178526008Y-56878001D01*
X178494915Y-56721688D01*
X178494915Y-56562312D01*
X178526008Y-56405999D01*
X178586998Y-56258754D01*
X178675543Y-56126238D01*
X178788238Y-56013543D01*
X178920754Y-55924998D01*
X179067999Y-55864008D01*
X179224312Y-55832915D01*
X179383688Y-55832915D01*
X179540001Y-55864008D01*
G37*
G36*
X179560001Y-53324008D02*
G01*
X179707246Y-53384998D01*
X179839762Y-53473543D01*
X179952457Y-53586238D01*
X180041002Y-53718754D01*
X180101992Y-53865999D01*
X180133085Y-54022312D01*
X180133085Y-54181688D01*
X180101992Y-54338001D01*
X180041002Y-54485246D01*
X179952457Y-54617762D01*
X179839762Y-54730457D01*
X179707246Y-54819002D01*
X179560001Y-54879992D01*
X179403688Y-54911085D01*
X179244312Y-54911085D01*
X179087999Y-54879992D01*
X178940754Y-54819002D01*
X178808238Y-54730457D01*
X178695543Y-54617762D01*
X178606998Y-54485246D01*
X178546008Y-54338001D01*
X178514915Y-54181688D01*
X178514915Y-54022312D01*
X178546008Y-53865999D01*
X178606998Y-53718754D01*
X178695543Y-53586238D01*
X178808238Y-53473543D01*
X178940754Y-53384998D01*
X179087999Y-53324008D01*
X179244312Y-53292915D01*
X179403688Y-53292915D01*
X179560001Y-53324008D01*
G37*
G36*
X207244517Y-49013882D02*
G01*
X207261062Y-49024938D01*
X207272118Y-49041483D01*
X207276000Y-49061000D01*
X207276000Y-50761000D01*
X207272118Y-50780517D01*
X207261062Y-50797062D01*
X207244517Y-50808118D01*
X207225000Y-50812000D01*
X205525000Y-50812000D01*
X205505483Y-50808118D01*
X205488938Y-50797062D01*
X205477882Y-50780517D01*
X205474000Y-50761000D01*
X205474000Y-49061000D01*
X205477882Y-49041483D01*
X205488938Y-49024938D01*
X205505483Y-49013882D01*
X205525000Y-49010000D01*
X207225000Y-49010000D01*
X207244517Y-49013882D01*
G37*
G36*
X193936546Y-49048797D02*
G01*
X194099728Y-49116389D01*
X194246588Y-49214518D01*
X194371482Y-49339412D01*
X194469611Y-49486272D01*
X194537203Y-49649454D01*
X194571661Y-49822687D01*
X194571661Y-49999313D01*
X194537203Y-50172546D01*
X194469611Y-50335728D01*
X194371482Y-50482588D01*
X194246588Y-50607482D01*
X194099728Y-50705611D01*
X193936546Y-50773203D01*
X193763313Y-50807661D01*
X193586687Y-50807661D01*
X193413454Y-50773203D01*
X193250272Y-50705611D01*
X193103412Y-50607482D01*
X192978518Y-50482588D01*
X192880389Y-50335728D01*
X192812797Y-50172546D01*
X192778339Y-49999313D01*
X192778339Y-49822687D01*
X192812797Y-49649454D01*
X192880389Y-49486272D01*
X192978518Y-49339412D01*
X193103412Y-49214518D01*
X193250272Y-49116389D01*
X193413454Y-49048797D01*
X193586687Y-49014339D01*
X193763313Y-49014339D01*
X193936546Y-49048797D01*
G37*
G36*
X196476546Y-49048797D02*
G01*
X196639728Y-49116389D01*
X196786588Y-49214518D01*
X196911482Y-49339412D01*
X197009611Y-49486272D01*
X197077203Y-49649454D01*
X197111661Y-49822687D01*
X197111661Y-49999313D01*
X197077203Y-50172546D01*
X197009611Y-50335728D01*
X196911482Y-50482588D01*
X196786588Y-50607482D01*
X196639728Y-50705611D01*
X196476546Y-50773203D01*
X196303313Y-50807661D01*
X196126687Y-50807661D01*
X195953454Y-50773203D01*
X195790272Y-50705611D01*
X195643412Y-50607482D01*
X195518518Y-50482588D01*
X195420389Y-50335728D01*
X195352797Y-50172546D01*
X195318339Y-49999313D01*
X195318339Y-49822687D01*
X195352797Y-49649454D01*
X195420389Y-49486272D01*
X195518518Y-49339412D01*
X195643412Y-49214518D01*
X195790272Y-49116389D01*
X195953454Y-49048797D01*
X196126687Y-49014339D01*
X196303313Y-49014339D01*
X196476546Y-49048797D01*
G37*
G36*
X199016546Y-49048797D02*
G01*
X199179728Y-49116389D01*
X199326588Y-49214518D01*
X199451482Y-49339412D01*
X199549611Y-49486272D01*
X199617203Y-49649454D01*
X199651661Y-49822687D01*
X199651661Y-49999313D01*
X199617203Y-50172546D01*
X199549611Y-50335728D01*
X199451482Y-50482588D01*
X199326588Y-50607482D01*
X199179728Y-50705611D01*
X199016546Y-50773203D01*
X198843313Y-50807661D01*
X198666687Y-50807661D01*
X198493454Y-50773203D01*
X198330272Y-50705611D01*
X198183412Y-50607482D01*
X198058518Y-50482588D01*
X197960389Y-50335728D01*
X197892797Y-50172546D01*
X197858339Y-49999313D01*
X197858339Y-49822687D01*
X197892797Y-49649454D01*
X197960389Y-49486272D01*
X198058518Y-49339412D01*
X198183412Y-49214518D01*
X198330272Y-49116389D01*
X198493454Y-49048797D01*
X198666687Y-49014339D01*
X198843313Y-49014339D01*
X199016546Y-49048797D01*
G37*
G36*
X201556546Y-49048797D02*
G01*
X201719728Y-49116389D01*
X201866588Y-49214518D01*
X201991482Y-49339412D01*
X202089611Y-49486272D01*
X202157203Y-49649454D01*
X202191661Y-49822687D01*
X202191661Y-49999313D01*
X202157203Y-50172546D01*
X202089611Y-50335728D01*
X201991482Y-50482588D01*
X201866588Y-50607482D01*
X201719728Y-50705611D01*
X201556546Y-50773203D01*
X201383313Y-50807661D01*
X201206687Y-50807661D01*
X201033454Y-50773203D01*
X200870272Y-50705611D01*
X200723412Y-50607482D01*
X200598518Y-50482588D01*
X200500389Y-50335728D01*
X200432797Y-50172546D01*
X200398339Y-49999313D01*
X200398339Y-49822687D01*
X200432797Y-49649454D01*
X200500389Y-49486272D01*
X200598518Y-49339412D01*
X200723412Y-49214518D01*
X200870272Y-49116389D01*
X201033454Y-49048797D01*
X201206687Y-49014339D01*
X201383313Y-49014339D01*
X201556546Y-49048797D01*
G37*
G36*
X204096546Y-49048797D02*
G01*
X204259728Y-49116389D01*
X204406588Y-49214518D01*
X204531482Y-49339412D01*
X204629611Y-49486272D01*
X204697203Y-49649454D01*
X204731661Y-49822687D01*
X204731661Y-49999313D01*
X204697203Y-50172546D01*
X204629611Y-50335728D01*
X204531482Y-50482588D01*
X204406588Y-50607482D01*
X204259728Y-50705611D01*
X204096546Y-50773203D01*
X203923313Y-50807661D01*
X203746687Y-50807661D01*
X203573454Y-50773203D01*
X203410272Y-50705611D01*
X203263412Y-50607482D01*
X203138518Y-50482588D01*
X203040389Y-50335728D01*
X202972797Y-50172546D01*
X202938339Y-49999313D01*
X202938339Y-49822687D01*
X202972797Y-49649454D01*
X203040389Y-49486272D01*
X203138518Y-49339412D01*
X203263412Y-49214518D01*
X203410272Y-49116389D01*
X203573454Y-49048797D01*
X203746687Y-49014339D01*
X203923313Y-49014339D01*
X204096546Y-49048797D01*
G37*
G36*
X187191517Y-42168882D02*
G01*
X187208062Y-42179938D01*
X187219118Y-42196483D01*
X187223000Y-42216000D01*
X187223000Y-46176000D01*
X187219118Y-46195517D01*
X187208062Y-46212062D01*
X187191517Y-46223118D01*
X187172000Y-46227000D01*
X185192000Y-46227000D01*
X185172483Y-46223118D01*
X185155938Y-46212062D01*
X185144882Y-46195517D01*
X185141000Y-46176000D01*
X185141000Y-42216000D01*
X185144882Y-42196483D01*
X185155938Y-42179938D01*
X185172483Y-42168882D01*
X185192000Y-42165000D01*
X187172000Y-42165000D01*
X187191517Y-42168882D01*
G37*
G36*
X225799517Y-42168882D02*
G01*
X225816062Y-42179938D01*
X225827118Y-42196483D01*
X225831000Y-42216000D01*
X225831000Y-46176000D01*
X225827118Y-46195517D01*
X225816062Y-46212062D01*
X225799517Y-46223118D01*
X225780000Y-46227000D01*
X223800000Y-46227000D01*
X223780483Y-46223118D01*
X223763938Y-46212062D01*
X223752882Y-46195517D01*
X223749000Y-46176000D01*
X223749000Y-42216000D01*
X223752882Y-42196483D01*
X223763938Y-42179938D01*
X223780483Y-42168882D01*
X223800000Y-42165000D01*
X225780000Y-42165000D01*
X225799517Y-42168882D01*
G37*
G36*
X181272604Y-42170013D02*
G01*
X181284036Y-42170013D01*
X181328714Y-42178900D01*
X181424929Y-42194139D01*
X181455872Y-42204193D01*
X181484186Y-42209825D01*
X181524140Y-42226374D01*
X181580223Y-42244597D01*
X181632766Y-42271368D01*
X181672724Y-42287920D01*
X181696727Y-42303958D01*
X181725718Y-42318730D01*
X181804530Y-42375990D01*
X181842403Y-42401296D01*
X181850485Y-42409378D01*
X181857821Y-42414708D01*
X181973291Y-42530178D01*
X181978620Y-42537513D01*
X181986704Y-42545597D01*
X182012012Y-42583473D01*
X182069269Y-42662281D01*
X182084039Y-42691269D01*
X182100080Y-42715276D01*
X182116633Y-42755239D01*
X182143402Y-42807776D01*
X182161622Y-42863851D01*
X182178175Y-42903814D01*
X182183807Y-42932132D01*
X182193860Y-42963070D01*
X182209097Y-43059271D01*
X182217987Y-43103964D01*
X182218801Y-43120539D01*
X182219791Y-43126788D01*
X182222516Y-43196165D01*
X182223000Y-43206000D01*
X182223000Y-45186000D01*
X182222516Y-45195838D01*
X182219791Y-45265211D01*
X182218801Y-45271458D01*
X182217987Y-45288036D01*
X182209096Y-45332732D01*
X182193860Y-45428929D01*
X182183808Y-45459864D01*
X182178175Y-45488186D01*
X182161620Y-45528151D01*
X182143402Y-45584223D01*
X182116635Y-45636755D01*
X182100080Y-45676724D01*
X182084036Y-45700734D01*
X182069269Y-45729718D01*
X182012020Y-45808513D01*
X181986704Y-45846403D01*
X181978617Y-45854489D01*
X181973291Y-45861821D01*
X181857821Y-45977291D01*
X181850489Y-45982617D01*
X181842403Y-45990704D01*
X181804513Y-46016020D01*
X181725718Y-46073269D01*
X181696734Y-46088036D01*
X181672724Y-46104080D01*
X181632755Y-46120635D01*
X181580223Y-46147402D01*
X181524151Y-46165620D01*
X181484186Y-46182175D01*
X181455864Y-46187808D01*
X181424929Y-46197860D01*
X181328724Y-46213097D01*
X181284036Y-46221987D01*
X181272604Y-46221987D01*
X181263645Y-46223406D01*
X181100355Y-46223406D01*
X181091396Y-46221987D01*
X181079964Y-46221987D01*
X181035276Y-46213098D01*
X180939070Y-46197860D01*
X180908132Y-46187807D01*
X180879814Y-46182175D01*
X180839851Y-46165622D01*
X180783776Y-46147402D01*
X180731239Y-46120633D01*
X180691276Y-46104080D01*
X180667269Y-46088039D01*
X180638281Y-46073269D01*
X180559473Y-46016012D01*
X180521597Y-45990704D01*
X180513513Y-45982620D01*
X180506178Y-45977291D01*
X180390708Y-45861821D01*
X180385378Y-45854485D01*
X180377296Y-45846403D01*
X180351990Y-45808530D01*
X180294730Y-45729718D01*
X180279958Y-45700727D01*
X180263920Y-45676724D01*
X180247368Y-45636766D01*
X180220597Y-45584223D01*
X180202374Y-45528140D01*
X180185825Y-45488186D01*
X180180193Y-45459872D01*
X180170139Y-45428929D01*
X180154898Y-45332707D01*
X180146013Y-45288036D01*
X180145199Y-45271467D01*
X180144208Y-45265211D01*
X180141482Y-45195823D01*
X180141000Y-45186000D01*
X180141000Y-43206000D01*
X180141482Y-43196180D01*
X180144208Y-43126788D01*
X180145199Y-43120530D01*
X180146013Y-43103964D01*
X180154897Y-43059296D01*
X180170139Y-42963070D01*
X180180193Y-42932124D01*
X180185825Y-42903814D01*
X180202373Y-42863862D01*
X180220597Y-42807776D01*
X180247371Y-42755228D01*
X180263920Y-42715276D01*
X180279956Y-42691275D01*
X180294730Y-42662281D01*
X180351998Y-42583456D01*
X180377296Y-42545597D01*
X180385375Y-42537517D01*
X180390708Y-42530178D01*
X180506178Y-42414708D01*
X180513517Y-42409375D01*
X180521597Y-42401296D01*
X180559456Y-42375998D01*
X180638281Y-42318730D01*
X180667275Y-42303956D01*
X180691276Y-42287920D01*
X180731228Y-42271371D01*
X180783776Y-42244597D01*
X180839862Y-42226373D01*
X180879814Y-42209825D01*
X180908124Y-42204193D01*
X180939070Y-42194139D01*
X181035286Y-42178899D01*
X181079964Y-42170013D01*
X181091396Y-42170013D01*
X181100355Y-42168594D01*
X181263645Y-42168594D01*
X181272604Y-42170013D01*
G37*
G36*
X214880604Y-42170013D02*
G01*
X214892036Y-42170013D01*
X214936714Y-42178900D01*
X215032929Y-42194139D01*
X215063872Y-42204193D01*
X215092186Y-42209825D01*
X215132140Y-42226374D01*
X215188223Y-42244597D01*
X215240766Y-42271368D01*
X215280724Y-42287920D01*
X215304727Y-42303958D01*
X215333718Y-42318730D01*
X215412530Y-42375990D01*
X215450403Y-42401296D01*
X215458485Y-42409378D01*
X215465821Y-42414708D01*
X215581291Y-42530178D01*
X215586620Y-42537513D01*
X215594704Y-42545597D01*
X215620012Y-42583473D01*
X215677269Y-42662281D01*
X215692039Y-42691269D01*
X215708080Y-42715276D01*
X215724633Y-42755239D01*
X215751402Y-42807776D01*
X215769622Y-42863851D01*
X215786175Y-42903814D01*
X215791807Y-42932132D01*
X215801860Y-42963070D01*
X215817097Y-43059271D01*
X215825987Y-43103964D01*
X215826801Y-43120539D01*
X215827791Y-43126788D01*
X215830516Y-43196165D01*
X215831000Y-43206000D01*
X215831000Y-45186000D01*
X215830516Y-45195838D01*
X215827791Y-45265211D01*
X215826801Y-45271458D01*
X215825987Y-45288036D01*
X215817096Y-45332732D01*
X215801860Y-45428929D01*
X215791808Y-45459864D01*
X215786175Y-45488186D01*
X215769620Y-45528151D01*
X215751402Y-45584223D01*
X215724635Y-45636755D01*
X215708080Y-45676724D01*
X215692036Y-45700734D01*
X215677269Y-45729718D01*
X215620020Y-45808513D01*
X215594704Y-45846403D01*
X215586617Y-45854489D01*
X215581291Y-45861821D01*
X215465821Y-45977291D01*
X215458489Y-45982617D01*
X215450403Y-45990704D01*
X215412513Y-46016020D01*
X215333718Y-46073269D01*
X215304734Y-46088036D01*
X215280724Y-46104080D01*
X215240755Y-46120635D01*
X215188223Y-46147402D01*
X215132151Y-46165620D01*
X215092186Y-46182175D01*
X215063864Y-46187808D01*
X215032929Y-46197860D01*
X214936724Y-46213097D01*
X214892036Y-46221987D01*
X214880604Y-46221987D01*
X214871645Y-46223406D01*
X214708355Y-46223406D01*
X214699396Y-46221987D01*
X214687964Y-46221987D01*
X214643276Y-46213098D01*
X214547070Y-46197860D01*
X214516132Y-46187807D01*
X214487814Y-46182175D01*
X214447851Y-46165622D01*
X214391776Y-46147402D01*
X214339239Y-46120633D01*
X214299276Y-46104080D01*
X214275269Y-46088039D01*
X214246281Y-46073269D01*
X214167473Y-46016012D01*
X214129597Y-45990704D01*
X214121513Y-45982620D01*
X214114178Y-45977291D01*
X213998708Y-45861821D01*
X213993378Y-45854485D01*
X213985296Y-45846403D01*
X213959990Y-45808530D01*
X213902730Y-45729718D01*
X213887958Y-45700727D01*
X213871920Y-45676724D01*
X213855368Y-45636766D01*
X213828597Y-45584223D01*
X213810374Y-45528140D01*
X213793825Y-45488186D01*
X213788193Y-45459872D01*
X213778139Y-45428929D01*
X213762898Y-45332707D01*
X213754013Y-45288036D01*
X213753199Y-45271467D01*
X213752208Y-45265211D01*
X213749482Y-45195823D01*
X213749000Y-45186000D01*
X213749000Y-43206000D01*
X213749482Y-43196180D01*
X213752208Y-43126788D01*
X213753199Y-43120530D01*
X213754013Y-43103964D01*
X213762897Y-43059296D01*
X213778139Y-42963070D01*
X213788193Y-42932124D01*
X213793825Y-42903814D01*
X213810373Y-42863862D01*
X213828597Y-42807776D01*
X213855371Y-42755228D01*
X213871920Y-42715276D01*
X213887956Y-42691275D01*
X213902730Y-42662281D01*
X213959998Y-42583456D01*
X213985296Y-42545597D01*
X213993375Y-42537517D01*
X213998708Y-42530178D01*
X214114178Y-42414708D01*
X214121517Y-42409375D01*
X214129597Y-42401296D01*
X214167456Y-42375998D01*
X214246281Y-42318730D01*
X214275275Y-42303956D01*
X214299276Y-42287920D01*
X214339228Y-42271371D01*
X214391776Y-42244597D01*
X214447862Y-42226373D01*
X214487814Y-42209825D01*
X214516124Y-42204193D01*
X214547070Y-42194139D01*
X214643286Y-42178899D01*
X214687964Y-42170013D01*
X214699396Y-42170013D01*
X214708355Y-42168594D01*
X214871645Y-42168594D01*
X214880604Y-42170013D01*
G37*
G36*
X219880604Y-42170013D02*
G01*
X219892036Y-42170013D01*
X219936714Y-42178900D01*
X220032929Y-42194139D01*
X220063872Y-42204193D01*
X220092186Y-42209825D01*
X220132140Y-42226374D01*
X220188223Y-42244597D01*
X220240766Y-42271368D01*
X220280724Y-42287920D01*
X220304727Y-42303958D01*
X220333718Y-42318730D01*
X220412530Y-42375990D01*
X220450403Y-42401296D01*
X220458485Y-42409378D01*
X220465821Y-42414708D01*
X220581291Y-42530178D01*
X220586620Y-42537513D01*
X220594704Y-42545597D01*
X220620012Y-42583473D01*
X220677269Y-42662281D01*
X220692039Y-42691269D01*
X220708080Y-42715276D01*
X220724633Y-42755239D01*
X220751402Y-42807776D01*
X220769622Y-42863851D01*
X220786175Y-42903814D01*
X220791807Y-42932132D01*
X220801860Y-42963070D01*
X220817097Y-43059271D01*
X220825987Y-43103964D01*
X220826801Y-43120539D01*
X220827791Y-43126788D01*
X220830516Y-43196165D01*
X220831000Y-43206000D01*
X220831000Y-45186000D01*
X220830516Y-45195838D01*
X220827791Y-45265211D01*
X220826801Y-45271458D01*
X220825987Y-45288036D01*
X220817096Y-45332732D01*
X220801860Y-45428929D01*
X220791808Y-45459864D01*
X220786175Y-45488186D01*
X220769620Y-45528151D01*
X220751402Y-45584223D01*
X220724635Y-45636755D01*
X220708080Y-45676724D01*
X220692036Y-45700734D01*
X220677269Y-45729718D01*
X220620020Y-45808513D01*
X220594704Y-45846403D01*
X220586617Y-45854489D01*
X220581291Y-45861821D01*
X220465821Y-45977291D01*
X220458489Y-45982617D01*
X220450403Y-45990704D01*
X220412513Y-46016020D01*
X220333718Y-46073269D01*
X220304734Y-46088036D01*
X220280724Y-46104080D01*
X220240755Y-46120635D01*
X220188223Y-46147402D01*
X220132151Y-46165620D01*
X220092186Y-46182175D01*
X220063864Y-46187808D01*
X220032929Y-46197860D01*
X219936724Y-46213097D01*
X219892036Y-46221987D01*
X219880604Y-46221987D01*
X219871645Y-46223406D01*
X219708355Y-46223406D01*
X219699396Y-46221987D01*
X219687964Y-46221987D01*
X219643276Y-46213098D01*
X219547070Y-46197860D01*
X219516132Y-46187807D01*
X219487814Y-46182175D01*
X219447851Y-46165622D01*
X219391776Y-46147402D01*
X219339239Y-46120633D01*
X219299276Y-46104080D01*
X219275269Y-46088039D01*
X219246281Y-46073269D01*
X219167473Y-46016012D01*
X219129597Y-45990704D01*
X219121513Y-45982620D01*
X219114178Y-45977291D01*
X218998708Y-45861821D01*
X218993378Y-45854485D01*
X218985296Y-45846403D01*
X218959990Y-45808530D01*
X218902730Y-45729718D01*
X218887958Y-45700727D01*
X218871920Y-45676724D01*
X218855368Y-45636766D01*
X218828597Y-45584223D01*
X218810374Y-45528140D01*
X218793825Y-45488186D01*
X218788193Y-45459872D01*
X218778139Y-45428929D01*
X218762898Y-45332707D01*
X218754013Y-45288036D01*
X218753199Y-45271467D01*
X218752208Y-45265211D01*
X218749482Y-45195823D01*
X218749000Y-45186000D01*
X218749000Y-43206000D01*
X218749482Y-43196180D01*
X218752208Y-43126788D01*
X218753199Y-43120530D01*
X218754013Y-43103964D01*
X218762897Y-43059296D01*
X218778139Y-42963070D01*
X218788193Y-42932124D01*
X218793825Y-42903814D01*
X218810373Y-42863862D01*
X218828597Y-42807776D01*
X218855371Y-42755228D01*
X218871920Y-42715276D01*
X218887956Y-42691275D01*
X218902730Y-42662281D01*
X218959998Y-42583456D01*
X218985296Y-42545597D01*
X218993375Y-42537517D01*
X218998708Y-42530178D01*
X219114178Y-42414708D01*
X219121517Y-42409375D01*
X219129597Y-42401296D01*
X219167456Y-42375998D01*
X219246281Y-42318730D01*
X219275275Y-42303956D01*
X219299276Y-42287920D01*
X219339228Y-42271371D01*
X219391776Y-42244597D01*
X219447862Y-42226373D01*
X219487814Y-42209825D01*
X219516124Y-42204193D01*
X219547070Y-42194139D01*
X219643286Y-42178899D01*
X219687964Y-42170013D01*
X219699396Y-42170013D01*
X219708355Y-42168594D01*
X219871645Y-42168594D01*
X219880604Y-42170013D01*
G37*
G36*
X198885517Y-41116882D02*
G01*
X198902062Y-41127938D01*
X198913118Y-41144483D01*
X198917000Y-41164000D01*
X198917000Y-43164000D01*
X198913118Y-43183517D01*
X198902062Y-43200062D01*
X198885517Y-43211118D01*
X198866000Y-43215000D01*
X196866000Y-43215000D01*
X196846483Y-43211118D01*
X196829938Y-43200062D01*
X196818882Y-43183517D01*
X196815000Y-43164000D01*
X196815000Y-41164000D01*
X196818882Y-41144483D01*
X196829938Y-41127938D01*
X196846483Y-41116882D01*
X196866000Y-41113000D01*
X198866000Y-41113000D01*
X198885517Y-41116882D01*
G37*
G36*
X202957498Y-41118061D02*
G01*
X202969016Y-41118061D01*
X203014023Y-41127013D01*
X203111260Y-41142414D01*
X203142536Y-41152576D01*
X203171089Y-41158256D01*
X203211387Y-41174948D01*
X203268052Y-41193360D01*
X203321135Y-41220407D01*
X203361438Y-41237101D01*
X203385647Y-41253277D01*
X203414943Y-41268204D01*
X203494583Y-41326066D01*
X203532747Y-41351566D01*
X203540891Y-41359710D01*
X203548315Y-41365104D01*
X203664895Y-41481684D01*
X203670288Y-41489107D01*
X203678434Y-41497253D01*
X203703936Y-41535420D01*
X203761795Y-41615056D01*
X203776720Y-41644348D01*
X203792899Y-41668562D01*
X203809594Y-41708869D01*
X203836639Y-41761947D01*
X203855048Y-41818604D01*
X203871744Y-41858911D01*
X203877424Y-41887469D01*
X203887585Y-41918739D01*
X203902984Y-42015967D01*
X203911939Y-42060984D01*
X203911939Y-42072502D01*
X203913375Y-42081569D01*
X203913375Y-42246430D01*
X203911939Y-42255496D01*
X203911939Y-42267016D01*
X203902983Y-42312035D01*
X203887585Y-42409260D01*
X203877425Y-42440528D01*
X203871744Y-42469089D01*
X203855047Y-42509398D01*
X203836639Y-42566052D01*
X203809596Y-42619125D01*
X203792899Y-42659438D01*
X203776718Y-42683654D01*
X203761795Y-42712943D01*
X203703945Y-42792566D01*
X203678434Y-42830747D01*
X203670285Y-42838895D01*
X203664895Y-42846315D01*
X203548315Y-42962895D01*
X203540895Y-42968285D01*
X203532747Y-42976434D01*
X203494566Y-43001945D01*
X203414943Y-43059795D01*
X203385654Y-43074718D01*
X203361438Y-43090899D01*
X203321125Y-43107596D01*
X203268052Y-43134639D01*
X203211398Y-43153047D01*
X203171089Y-43169744D01*
X203142528Y-43175425D01*
X203111260Y-43185585D01*
X203014033Y-43200984D01*
X202969016Y-43209939D01*
X202957497Y-43209939D01*
X202948431Y-43211375D01*
X202783569Y-43211375D01*
X202774503Y-43209939D01*
X202762984Y-43209939D01*
X202717967Y-43200984D01*
X202620739Y-43185585D01*
X202589469Y-43175424D01*
X202560911Y-43169744D01*
X202520604Y-43153048D01*
X202463947Y-43134639D01*
X202410869Y-43107594D01*
X202370562Y-43090899D01*
X202346348Y-43074720D01*
X202317056Y-43059795D01*
X202237420Y-43001936D01*
X202199253Y-42976434D01*
X202191107Y-42968288D01*
X202183684Y-42962895D01*
X202067104Y-42846315D01*
X202061710Y-42838891D01*
X202053566Y-42830747D01*
X202028066Y-42792583D01*
X201970204Y-42712943D01*
X201955277Y-42683647D01*
X201939101Y-42659438D01*
X201922407Y-42619135D01*
X201895360Y-42566052D01*
X201876948Y-42509387D01*
X201860256Y-42469089D01*
X201854576Y-42440536D01*
X201844414Y-42409260D01*
X201829014Y-42312026D01*
X201820061Y-42267016D01*
X201820061Y-42255496D01*
X201818625Y-42246430D01*
X201818625Y-42081569D01*
X201820061Y-42072502D01*
X201820061Y-42060984D01*
X201829013Y-42015977D01*
X201844414Y-41918739D01*
X201854576Y-41887461D01*
X201860256Y-41858911D01*
X201876946Y-41818616D01*
X201895360Y-41761947D01*
X201922409Y-41708858D01*
X201939101Y-41668562D01*
X201955275Y-41644355D01*
X201970204Y-41615056D01*
X202028074Y-41535403D01*
X202053566Y-41497253D01*
X202061707Y-41489111D01*
X202067104Y-41481684D01*
X202183684Y-41365104D01*
X202191111Y-41359707D01*
X202199253Y-41351566D01*
X202237403Y-41326074D01*
X202317056Y-41268204D01*
X202346355Y-41253275D01*
X202370562Y-41237101D01*
X202410858Y-41220409D01*
X202463947Y-41193360D01*
X202520616Y-41174946D01*
X202560911Y-41158256D01*
X202589461Y-41152576D01*
X202620739Y-41142414D01*
X202717977Y-41127013D01*
X202762984Y-41118061D01*
X202774502Y-41118061D01*
X202783569Y-41116625D01*
X202948431Y-41116625D01*
X202957498Y-41118061D01*
G37*
M02*
