M48
; DRILL file {KiCad 9.0.1} date 2025-06-13T00:56:02+0200
; FORMAT={-:-/ absolute / metric / decimal}
; #@! TF.CreationDate,2025-06-13T00:56:02+02:00
; #@! TF.GenerationSoftware,Kicad,Pcbnew,9.0.1
; #@! TF.FileFunction,Plated,1,2,PTH
FMAT,2
METRIC
; #@! TA.AperFunction,Plated,PTH,ComponentDrill
T1C0.762
; #@! TA.AperFunction,Plated,PTH,ComponentDrill
T2C0.800
; #@! TA.AperFunction,Plated,PTH,ComponentDrill
T3C1.000
; #@! TA.AperFunction,Plated,PTH,ComponentDrill
T4C1.016
; #@! TA.AperFunction,Plated,PTH,ComponentDrill
T5C1.100
; #@! TA.AperFunction,Plated,PTH,ComponentDrill
T6C1.320
%
G90
G05
T1
X179.304Y-56.642
X179.304Y-65.532
X179.304Y-86.233
X179.324Y-54.102
X179.324Y-62.992
X179.324Y-83.693
X216.027Y-73.533
X216.027Y-76.073
X216.027Y-78.613
X216.027Y-81.153
X216.027Y-83.693
X216.027Y-86.233
X226.187Y-73.533
X226.187Y-76.073
X226.187Y-78.613
X226.187Y-81.153
X226.187Y-83.693
X226.187Y-86.233
T2
X194.056Y-61.341
X194.056Y-71.501
X198.628Y-61.341
X198.628Y-71.501
X203.2Y-61.341
X203.2Y-71.501
X215.9Y-67.31
X226.06Y-67.31
T3
X193.675Y-49.911
X196.215Y-49.911
X197.866Y-42.164
X198.755Y-49.911
X201.295Y-49.911
X202.866Y-42.164
X203.835Y-49.911
X206.375Y-49.911
X216.027Y-60.325
X216.027Y-62.865
T4
X187.579Y-60.325
X187.579Y-62.865
X187.579Y-65.405
X187.579Y-67.945
X187.579Y-70.485
X187.579Y-73.025
X187.579Y-75.565
X187.579Y-78.105
X210.439Y-60.325
X210.439Y-62.865
X210.439Y-65.405
X210.439Y-67.945
X210.439Y-70.485
X210.439Y-73.025
X210.439Y-75.565
X210.439Y-78.105
T5
X179.324Y-72.136
X179.324Y-74.676
X179.324Y-77.216
T6
X181.182Y-44.196
X186.182Y-44.196
X214.79Y-44.196
X219.79Y-44.196
X224.79Y-44.196
M30
