M48
; DRILL file {KiCad 9.0.1} date 2025-07-02T11:29:05+0200
; FORMAT={-:-/ absolute / metric / decimal}
; #@! TF.CreationDate,2025-07-02T11:29:05+02:00
; #@! TF.GenerationSoftware,Kicad,Pcbnew,9.0.1
; #@! TF.FileFunction,Plated,1,2,PTH
FMAT,2
METRIC
; #@! TA.AperFunction,Plated,PTH,ViaDrill
T1C0.300
; #@! TA.AperFunction,Plated,PTH,ComponentDrill
T2C1.000
; #@! TA.AperFunction,Plated,PTH,ComponentDrill
T3C1.020
; #@! TA.AperFunction,Plated,PTH,ComponentDrill
T4C1.300
; #@! TA.AperFunction,Plated,PTH,ComponentDrill
T5C1.320
%
G90
G05
T1
X71.755Y-101.473
X74.599Y-124.714
X80.518Y-126.795
X80.518Y-135.079
X81.28Y-81.28
X81.28Y-85.598
X82.55Y-126.746
X83.373Y-91.144
X83.489Y-127.443
X84.328Y-126.746
X86.106Y-124.806
X86.298Y-91.144
X86.298Y-93.916
X86.298Y-96.689
X86.298Y-102.256
X88.646Y-125.706
X89.916Y-92.202
X90.932Y-80.138
X91.694Y-88.138
X91.694Y-91.186
X91.694Y-98.46
X92.71Y-86.106
X93.434Y-124.806
X94.016Y-97.113
X94.234Y-91.186
X94.234Y-120.396
X94.996Y-118.618
X96.266Y-102.616
X96.774Y-98.46
X97.536Y-102.87
X98.806Y-103.124
X99.314Y-91.186
X100.076Y-103.378
X100.838Y-81.28
X101.346Y-103.632
X102.616Y-103.886
X103.378Y-107.318
X103.719Y-106.005
X104.056Y-104.818
X104.14Y-103.886
X104.902Y-107.95
X105.156Y-88.9
X106.426Y-90.17
X106.426Y-98.044
X107.696Y-92.202
X107.696Y-98.044
X107.696Y-110.138
X108.458Y-117.856
X108.966Y-99.06
X109.376Y-114.808
X109.601Y-121.793
X110.236Y-100.838
X110.236Y-103.286
X110.998Y-107.95
X110.998Y-117.348
X111.506Y-100.838
X112.268Y-94.138
X112.776Y-100.838
X114.808Y-100.838
X116.078Y-124.714
X116.808Y-86.138
X116.84Y-84.074
X118.11Y-77.216
X118.11Y-79.502
X119.38Y-77.216
X120.172Y-113.822
X121.412Y-86.36
X121.412Y-92.71
X121.412Y-99.314
X121.412Y-105.918
X125.73Y-87.691
X125.73Y-94.055
X125.73Y-100.672
X125.73Y-107.249
X126.746Y-124.714
X127.967Y-83.82
X128.016Y-124.714
X130.81Y-92.202
X132.412Y-115.648
X132.842Y-88.138
X132.842Y-94.566
X132.842Y-101.17
X132.842Y-107.774
X134.112Y-98.552
X135.128Y-105.156
X135.128Y-111.76
X138.43Y-113.792
X138.684Y-101.092
X139.048Y-124.714
X139.446Y-115.57
X140.256Y-124.714
X140.346Y-105.157
X140.462Y-84.328
X143.002Y-83.312
X143.19Y-101.254
X143.19Y-107.701
X145.034Y-102.87
X147.32Y-111.252
X149.286Y-101.254
X149.286Y-107.701
X149.86Y-111.252
X151.384Y-108.458
X151.384Y-124.714
X152.4Y-124.714
X155.956Y-111.252
X157.988Y-124.714
X160.274Y-110.744
T2
X71.172Y-82.84
X71.172Y-87.34
X71.172Y-93.508
X71.172Y-98.008
X71.172Y-104.176
X71.172Y-108.676
X77.672Y-82.84
X77.672Y-87.34
X77.672Y-93.508
X77.672Y-98.008
X77.672Y-104.176
X77.672Y-108.676
X80.57Y-73.442
X80.57Y-77.942
X87.07Y-73.442
X87.07Y-77.942
X92.456Y-113.665
X92.456Y-116.205
X120.142Y-80.64
X120.142Y-83.18
X125.222Y-80.518
X127.762Y-80.518
X130.302Y-80.518
X132.842Y-80.518
X135.382Y-80.518
X137.922Y-80.518
X138.176Y-88.138
X138.176Y-90.678
X138.176Y-93.218
X138.176Y-95.758
X140.462Y-80.518
X143.002Y-80.518
X145.542Y-80.518
X146.05Y-87.376
X146.05Y-89.916
X146.05Y-92.456
X148.082Y-80.518
X154.686Y-78.486
X154.686Y-87.376
X154.686Y-96.266
X154.686Y-105.156
X157.226Y-78.486
X157.226Y-87.376
X157.226Y-96.266
X157.226Y-105.156
X159.766Y-78.486
X159.766Y-87.376
X159.766Y-96.266
X159.766Y-105.156
T3
X83.566Y-107.95
X83.566Y-110.49
X83.566Y-113.03
X83.566Y-115.57
X83.566Y-118.11
X83.566Y-120.65
X86.106Y-107.95
X86.106Y-110.49
X86.106Y-113.03
X86.106Y-115.57
X86.106Y-118.11
X86.106Y-120.65
X96.52Y-129.54
X96.52Y-132.08
X99.06Y-129.54
X99.06Y-132.08
X101.6Y-129.54
X101.6Y-132.08
X104.14Y-129.54
X104.14Y-132.08
X106.68Y-129.54
X106.68Y-132.08
X109.22Y-129.54
X109.22Y-132.08
T4
X74.422Y-115.062
X74.422Y-120.062
T5
X115.172Y-119.38
X120.172Y-119.38
X127.412Y-119.38
X132.412Y-119.38
X139.652Y-119.38
X144.652Y-119.38
X151.892Y-119.38
X156.892Y-119.38
M30
