%TF.GenerationSoftware,KiCad,Pcbnew,9.0.1*%
%TF.CreationDate,2025-07-02T11:29:08+02:00*%
%TF.ProjectId,bewaesserung,62657761-6573-4736-9572-756e672e6b69,rev?*%
%TF.SameCoordinates,Original*%
%TF.FileFunction,Legend,Bot*%
%TF.FilePolarity,Positive*%
%FSLAX46Y46*%
G04 Gerber Fmt 4.6, Leading zero omitted, Abs format (unit mm)*
G04 Created by KiCad (PCBNEW 9.0.1) date 2025-07-02 11:29:08*
%MOMM*%
%LPD*%
G01*
G04 APERTURE LIST*
%ADD10C,0.000000*%
G04 APERTURE END LIST*
D10*
%TO.C,G\u002A\u002A\u002A*%
G36*
X91982394Y-75589728D02*
G01*
X91982394Y-76032592D01*
X91924910Y-76032592D01*
X91867425Y-76032592D01*
X91869164Y-75591690D01*
X91870902Y-75150788D01*
X91926648Y-75148826D01*
X91982394Y-75146863D01*
X91982394Y-75589728D01*
G37*
G36*
X99503065Y-75590001D02*
G01*
X99503065Y-76032592D01*
X99449008Y-76032592D01*
X99394951Y-76032592D01*
X99394951Y-75590001D01*
X99394951Y-75147410D01*
X99449008Y-75147410D01*
X99503065Y-75147410D01*
X99503065Y-75590001D01*
G37*
G36*
X104420605Y-75591690D02*
G01*
X104422343Y-76032592D01*
X104364810Y-76032592D01*
X104307276Y-76032592D01*
X104309015Y-75591690D01*
X104310753Y-75150788D01*
X104364810Y-75150788D01*
X104418867Y-75150788D01*
X104420605Y-75591690D01*
G37*
G36*
X116882368Y-75590001D02*
G01*
X116882368Y-76032592D01*
X116828311Y-76032592D01*
X116774254Y-76032592D01*
X116774254Y-75590001D01*
X116774254Y-75147410D01*
X116828311Y-75147410D01*
X116882368Y-75147410D01*
X116882368Y-75590001D01*
G37*
G36*
X94225757Y-73093247D02*
G01*
X94225757Y-74018971D01*
X93658159Y-74018971D01*
X93090561Y-74018971D01*
X93090561Y-73917615D01*
X93090561Y-73816258D01*
X93533152Y-73816258D01*
X93975743Y-73816258D01*
X93975743Y-72991890D01*
X93975743Y-72167522D01*
X94100750Y-72167522D01*
X94225757Y-72167522D01*
X94225757Y-73093247D01*
G37*
G36*
X92403025Y-75149026D02*
G01*
X92688513Y-75150788D01*
X92690507Y-75196238D01*
X92692501Y-75241688D01*
X92575636Y-75243538D01*
X92458771Y-75245388D01*
X92457027Y-75638990D01*
X92455283Y-76032592D01*
X92401281Y-76032592D01*
X92347278Y-76032592D01*
X92347278Y-75637301D01*
X92347278Y-75242010D01*
X92232407Y-75242010D01*
X92117536Y-75242010D01*
X92117536Y-75194636D01*
X92117536Y-75147263D01*
X92403025Y-75149026D01*
G37*
G36*
X100780160Y-69359940D02*
G01*
X100780160Y-69559275D01*
X100489604Y-69559275D01*
X100199048Y-69559275D01*
X100199048Y-70549192D01*
X100199048Y-71539110D01*
X99959170Y-71539110D01*
X99719292Y-71539110D01*
X99719292Y-70549192D01*
X99719292Y-69559275D01*
X99425358Y-69559275D01*
X99131423Y-69559275D01*
X99131423Y-69359940D01*
X99131423Y-69160605D01*
X99955791Y-69160605D01*
X100780160Y-69160605D01*
X100780160Y-69359940D01*
G37*
G36*
X112672684Y-75194710D02*
G01*
X112672684Y-75242010D01*
X112557813Y-75242010D01*
X112442942Y-75242010D01*
X112442942Y-75637301D01*
X112442942Y-76032592D01*
X112385507Y-76032592D01*
X112328071Y-76032592D01*
X112328071Y-75637301D01*
X112328071Y-75242010D01*
X112213200Y-75242010D01*
X112098329Y-75242010D01*
X112098329Y-75194710D01*
X112098329Y-75147410D01*
X112385507Y-75147410D01*
X112672684Y-75147410D01*
X112672684Y-75194710D01*
G37*
G36*
X90942466Y-75918892D02*
G01*
X90956806Y-75924120D01*
X90968336Y-75935525D01*
X90977374Y-75952078D01*
X90982341Y-75978535D01*
X90979528Y-75998378D01*
X90968336Y-76021545D01*
X90960613Y-76029957D01*
X90946482Y-76037412D01*
X90925164Y-76039349D01*
X90902816Y-76037384D01*
X90880642Y-76027601D01*
X90868064Y-76008742D01*
X90864091Y-75979842D01*
X90866481Y-75953239D01*
X90875999Y-75932525D01*
X90894075Y-75921177D01*
X90922084Y-75917721D01*
X90942466Y-75918892D01*
G37*
G36*
X105609392Y-75913118D02*
G01*
X105634579Y-75924407D01*
X105650113Y-75944889D01*
X105655419Y-75974027D01*
X105655216Y-75982219D01*
X105650809Y-76004420D01*
X105639038Y-76021912D01*
X105617952Y-76035522D01*
X105591086Y-76040395D01*
X105563298Y-76036252D01*
X105539235Y-76023041D01*
X105528201Y-76011687D01*
X105521858Y-75997048D01*
X105520277Y-75975157D01*
X105522681Y-75953959D01*
X105534733Y-75930315D01*
X105556582Y-75915862D01*
X105587848Y-75910964D01*
X105609392Y-75913118D01*
G37*
G36*
X103347864Y-75590001D02*
G01*
X103347864Y-76032592D01*
X103293807Y-76032592D01*
X103239750Y-76032592D01*
X103239750Y-75840014D01*
X103239750Y-75647436D01*
X103091093Y-75647436D01*
X102942437Y-75647436D01*
X102942437Y-75596758D01*
X102942437Y-75546080D01*
X103091223Y-75546080D01*
X103240008Y-75546080D01*
X103238190Y-75395734D01*
X103236371Y-75245388D01*
X103062376Y-75243585D01*
X102888380Y-75241781D01*
X102888380Y-75194596D01*
X102888380Y-75147410D01*
X103118122Y-75147410D01*
X103347864Y-75147410D01*
X103347864Y-75590001D01*
G37*
G36*
X104059910Y-75148840D02*
G01*
X104114796Y-75150788D01*
X104116535Y-75591690D01*
X104118273Y-76032592D01*
X104060851Y-76032592D01*
X104003430Y-76032592D01*
X104001678Y-75696426D01*
X103999925Y-75360259D01*
X103827174Y-75694736D01*
X103654422Y-76029214D01*
X103595694Y-76031167D01*
X103536965Y-76033120D01*
X103538703Y-75591954D01*
X103540441Y-75150788D01*
X103594498Y-75150788D01*
X103648555Y-75150788D01*
X103651934Y-75487916D01*
X103655312Y-75825043D01*
X103830168Y-75485967D01*
X104005024Y-75146891D01*
X104059910Y-75148840D01*
G37*
G36*
X114313265Y-64453528D02*
G01*
X114373219Y-64471728D01*
X114427629Y-64501010D01*
X114473333Y-64540442D01*
X114510008Y-64589672D01*
X114537328Y-64648346D01*
X114554969Y-64716112D01*
X114559424Y-64741451D01*
X114257035Y-64741451D01*
X113954646Y-64741451D01*
X113958523Y-64703879D01*
X113959890Y-64693702D01*
X113972910Y-64647457D01*
X113995772Y-64600493D01*
X114026231Y-64556196D01*
X114062042Y-64517948D01*
X114100962Y-64489134D01*
X114130783Y-64473949D01*
X114190383Y-64454429D01*
X114251923Y-64447503D01*
X114313265Y-64453528D01*
G37*
G36*
X90922127Y-75148808D02*
G01*
X90978962Y-75150788D01*
X90978801Y-75213292D01*
X90978732Y-75232399D01*
X90978586Y-75264366D01*
X90978375Y-75306005D01*
X90978112Y-75355310D01*
X90977807Y-75410278D01*
X90977470Y-75468905D01*
X90977112Y-75529187D01*
X90975584Y-75782579D01*
X90924905Y-75782579D01*
X90874227Y-75782579D01*
X90874227Y-75628259D01*
X90874225Y-75624037D01*
X90873968Y-75567144D01*
X90873322Y-75502250D01*
X90872357Y-75434438D01*
X90871146Y-75368788D01*
X90869760Y-75310384D01*
X90865293Y-75146828D01*
X90922127Y-75148808D01*
G37*
G36*
X92232407Y-70349857D02*
G01*
X92232407Y-71539110D01*
X91546560Y-71539110D01*
X90860713Y-71539110D01*
X90860713Y-71339775D01*
X90860713Y-71140440D01*
X91303304Y-71140440D01*
X91745895Y-71140440D01*
X91745895Y-70826291D01*
X91745895Y-70512143D01*
X91372564Y-70510396D01*
X90999234Y-70508650D01*
X90999234Y-70316072D01*
X90999234Y-70123494D01*
X91372564Y-70121747D01*
X91745895Y-70120001D01*
X91745895Y-69839638D01*
X91745895Y-69559275D01*
X91303304Y-69559275D01*
X90860713Y-69559275D01*
X90860713Y-69359940D01*
X90860713Y-69160605D01*
X91546560Y-69160605D01*
X92232407Y-69160605D01*
X92232407Y-70349857D01*
G37*
G36*
X93881144Y-75590001D02*
G01*
X93881144Y-76032592D01*
X93644645Y-76032592D01*
X93408146Y-76032592D01*
X93408146Y-75985292D01*
X93408146Y-75937992D01*
X93590588Y-75937992D01*
X93773030Y-75937992D01*
X93773030Y-75782579D01*
X93773030Y-75627165D01*
X93617616Y-75627165D01*
X93462203Y-75627165D01*
X93462203Y-75579992D01*
X93462203Y-75532819D01*
X93615927Y-75531003D01*
X93769651Y-75529187D01*
X93769651Y-75387288D01*
X93769651Y-75245388D01*
X93592277Y-75243587D01*
X93414903Y-75241785D01*
X93414903Y-75194597D01*
X93414903Y-75147410D01*
X93648023Y-75147410D01*
X93881144Y-75147410D01*
X93881144Y-75590001D01*
G37*
G36*
X96509662Y-73093283D02*
G01*
X96509662Y-74019045D01*
X95916725Y-74017319D01*
X95323788Y-74015593D01*
X95321918Y-73915925D01*
X95320048Y-73816258D01*
X95793227Y-73816258D01*
X96266406Y-73816258D01*
X96266406Y-73488538D01*
X96266406Y-73160818D01*
X95860979Y-73160818D01*
X95455552Y-73160818D01*
X95455552Y-73059461D01*
X95455552Y-72958104D01*
X95860979Y-72958104D01*
X96266406Y-72958104D01*
X96266406Y-72660791D01*
X96266406Y-72363478D01*
X95800165Y-72363478D01*
X95333924Y-72363478D01*
X95333924Y-72265500D01*
X95333924Y-72167522D01*
X95921793Y-72167522D01*
X96509662Y-72167522D01*
X96509662Y-73093283D01*
G37*
G36*
X97725943Y-75590001D02*
G01*
X97725943Y-76032592D01*
X97489135Y-76032592D01*
X97252327Y-76032592D01*
X97254325Y-75986982D01*
X97256323Y-75941371D01*
X97437076Y-75939571D01*
X97617829Y-75937772D01*
X97617829Y-75782468D01*
X97617829Y-75627165D01*
X97462415Y-75627165D01*
X97307002Y-75627165D01*
X97307002Y-75579865D01*
X97307002Y-75532566D01*
X97462415Y-75532566D01*
X97617829Y-75532566D01*
X97617829Y-75387288D01*
X97617829Y-75242010D01*
X97438766Y-75242010D01*
X97259702Y-75242010D01*
X97259702Y-75194710D01*
X97259702Y-75147410D01*
X97492822Y-75147410D01*
X97725943Y-75147410D01*
X97725943Y-75590001D01*
G37*
G36*
X97658372Y-69640360D02*
G01*
X97658372Y-70120115D01*
X98013120Y-70120115D01*
X98367869Y-70120115D01*
X98367869Y-69640360D01*
X98367869Y-69160605D01*
X98611125Y-69160605D01*
X98854381Y-69160605D01*
X98854381Y-70349857D01*
X98854381Y-71539110D01*
X98611125Y-71539110D01*
X98367869Y-71539110D01*
X98367869Y-71028887D01*
X98367869Y-70518665D01*
X98014810Y-70520414D01*
X97661750Y-70522164D01*
X97660018Y-71030637D01*
X97658286Y-71539110D01*
X97418451Y-71539110D01*
X97178617Y-71539110D01*
X97178617Y-70349857D01*
X97178617Y-69160605D01*
X97418494Y-69160605D01*
X97658372Y-69160605D01*
X97658372Y-69640360D01*
G37*
G36*
X98030013Y-75340100D02*
G01*
X98030013Y-75532790D01*
X98207387Y-75530988D01*
X98384762Y-75529187D01*
X98386556Y-75338298D01*
X98388351Y-75147410D01*
X98442303Y-75147410D01*
X98496254Y-75147410D01*
X98496254Y-75590001D01*
X98496254Y-76032592D01*
X98442197Y-76032592D01*
X98388140Y-76032592D01*
X98388140Y-75829879D01*
X98388140Y-75627165D01*
X98209077Y-75627165D01*
X98030013Y-75627165D01*
X98030013Y-75829879D01*
X98030013Y-76032592D01*
X97975956Y-76032592D01*
X97921899Y-76032592D01*
X97921899Y-75590001D01*
X97921899Y-75147410D01*
X97975956Y-75147410D01*
X98030013Y-75147410D01*
X98030013Y-75340100D01*
G37*
G36*
X101389989Y-75148826D02*
G01*
X101445735Y-75150788D01*
X101447474Y-75591690D01*
X101449212Y-76032592D01*
X101391727Y-76032592D01*
X101334243Y-76032592D01*
X101334243Y-75829879D01*
X101334243Y-75627165D01*
X101158558Y-75627165D01*
X100982873Y-75627165D01*
X100982873Y-75829879D01*
X100982873Y-76032592D01*
X100925437Y-76032592D01*
X100868002Y-76032592D01*
X100868002Y-75589728D01*
X100868002Y-75146863D01*
X100923748Y-75148826D01*
X100979494Y-75150788D01*
X100981289Y-75341677D01*
X100983083Y-75532566D01*
X101158663Y-75532566D01*
X101334243Y-75532566D01*
X101334243Y-75339714D01*
X101334243Y-75146863D01*
X101389989Y-75148826D01*
G37*
G36*
X105037143Y-75590001D02*
G01*
X105037143Y-76032592D01*
X104800335Y-76032592D01*
X104563527Y-76032592D01*
X104565525Y-75986982D01*
X104567523Y-75941371D01*
X104748276Y-75939571D01*
X104929029Y-75937772D01*
X104929029Y-75782468D01*
X104929029Y-75627165D01*
X104773615Y-75627165D01*
X104618202Y-75627165D01*
X104618202Y-75579865D01*
X104618202Y-75532566D01*
X104773615Y-75532566D01*
X104929029Y-75532566D01*
X104929029Y-75387288D01*
X104929029Y-75242010D01*
X104749965Y-75242010D01*
X104570902Y-75242010D01*
X104570902Y-75194710D01*
X104570902Y-75147410D01*
X104804022Y-75147410D01*
X105037143Y-75147410D01*
X105037143Y-75590001D01*
G37*
G36*
X106032128Y-75149010D02*
G01*
X106263559Y-75150788D01*
X106265298Y-75591690D01*
X106267036Y-76032592D01*
X106030488Y-76032592D01*
X105793940Y-76032592D01*
X105793940Y-75985292D01*
X105793940Y-75937992D01*
X105973003Y-75937992D01*
X106152067Y-75937992D01*
X106152067Y-75782579D01*
X106152067Y-75627165D01*
X105996653Y-75627165D01*
X105841240Y-75627165D01*
X105841240Y-75579865D01*
X105841240Y-75532566D01*
X105996653Y-75532566D01*
X106152067Y-75532566D01*
X106152067Y-75387288D01*
X106152067Y-75242010D01*
X105976382Y-75242010D01*
X105800697Y-75242010D01*
X105800697Y-75194621D01*
X105800697Y-75147232D01*
X106032128Y-75149010D01*
G37*
G36*
X108619998Y-75338298D02*
G01*
X108621793Y-75529187D01*
X108797478Y-75529187D01*
X108973163Y-75529187D01*
X108974957Y-75338298D01*
X108976752Y-75147410D01*
X109030704Y-75147410D01*
X109084655Y-75147410D01*
X109084655Y-75590001D01*
X109084655Y-76032592D01*
X109030598Y-76032592D01*
X108976542Y-76032592D01*
X108976542Y-75829879D01*
X108976542Y-75627165D01*
X108797478Y-75627165D01*
X108618414Y-75627165D01*
X108618414Y-75829879D01*
X108618414Y-76032592D01*
X108564357Y-76032592D01*
X108510300Y-76032592D01*
X108510300Y-75590001D01*
X108510300Y-75147410D01*
X108564252Y-75147410D01*
X108618204Y-75147410D01*
X108619998Y-75338298D01*
G37*
G36*
X111969944Y-75590001D02*
G01*
X111969944Y-76032592D01*
X111733445Y-76032592D01*
X111496946Y-76032592D01*
X111496946Y-75985292D01*
X111496946Y-75937992D01*
X111679388Y-75937992D01*
X111861830Y-75937992D01*
X111861830Y-75782579D01*
X111861830Y-75627165D01*
X111703038Y-75627165D01*
X111544246Y-75627165D01*
X111544246Y-75579990D01*
X111544246Y-75532815D01*
X111701349Y-75531001D01*
X111858452Y-75529187D01*
X111858452Y-75387288D01*
X111858452Y-75245388D01*
X111681077Y-75243587D01*
X111503703Y-75241785D01*
X111503703Y-75194597D01*
X111503703Y-75147410D01*
X111736824Y-75147410D01*
X111969944Y-75147410D01*
X111969944Y-75590001D01*
G37*
G36*
X117502382Y-75591690D02*
G01*
X117504120Y-76032592D01*
X117267572Y-76032592D01*
X117031024Y-76032592D01*
X117031024Y-75985292D01*
X117031024Y-75937992D01*
X117210088Y-75937992D01*
X117389151Y-75937992D01*
X117389151Y-75782579D01*
X117389151Y-75627165D01*
X117233738Y-75627165D01*
X117078324Y-75627165D01*
X117078324Y-75579865D01*
X117078324Y-75532566D01*
X117233738Y-75532566D01*
X117389151Y-75532566D01*
X117389151Y-75387288D01*
X117389151Y-75242010D01*
X117209779Y-75242010D01*
X117030407Y-75242010D01*
X117032405Y-75196399D01*
X117034403Y-75150788D01*
X117267523Y-75150788D01*
X117500644Y-75150788D01*
X117502382Y-75591690D01*
G37*
G36*
X100700212Y-75987839D02*
G01*
X100701177Y-76019494D01*
X100702687Y-76045993D01*
X100705352Y-76065759D01*
X100709921Y-76082402D01*
X100717142Y-76099531D01*
X100727764Y-76120757D01*
X100731746Y-76128567D01*
X100742321Y-76149953D01*
X100749328Y-76165134D01*
X100751414Y-76171226D01*
X100749390Y-76172599D01*
X100738899Y-76179628D01*
X100722845Y-76190343D01*
X100714007Y-76196078D01*
X100699293Y-76204830D01*
X100691535Y-76208277D01*
X100687408Y-76206668D01*
X100675693Y-76196224D01*
X100660616Y-76178542D01*
X100644393Y-76156525D01*
X100629240Y-76133078D01*
X100617373Y-76111103D01*
X100600831Y-76069119D01*
X100588211Y-76013235D01*
X100584203Y-75950584D01*
X100584203Y-75904207D01*
X100641088Y-75904207D01*
X100697972Y-75904207D01*
X100700212Y-75987839D01*
G37*
G36*
X116113684Y-75487888D02*
G01*
X116115435Y-75828367D01*
X116280984Y-75507393D01*
X116294967Y-75480294D01*
X116326165Y-75419914D01*
X116355523Y-75363211D01*
X116382418Y-75311375D01*
X116406232Y-75265599D01*
X116426343Y-75227073D01*
X116442131Y-75196990D01*
X116452977Y-75176539D01*
X116458259Y-75166914D01*
X116463091Y-75159381D01*
X116469924Y-75152641D01*
X116480122Y-75149067D01*
X116497066Y-75147657D01*
X116524141Y-75147410D01*
X116578297Y-75147410D01*
X116578297Y-75590001D01*
X116578297Y-76032592D01*
X116520925Y-76032592D01*
X116463552Y-76032592D01*
X116461800Y-75698333D01*
X116460048Y-75364074D01*
X116287741Y-75698156D01*
X116115435Y-76032238D01*
X116059689Y-76032415D01*
X116003942Y-76032592D01*
X116003942Y-75590001D01*
X116003942Y-75147410D01*
X116057937Y-75147410D01*
X116111932Y-75147410D01*
X116113684Y-75487888D01*
G37*
G36*
X92022937Y-73088742D02*
G01*
X92022927Y-73150940D01*
X92022859Y-73259458D01*
X92022731Y-73363821D01*
X92022546Y-73463247D01*
X92022309Y-73556958D01*
X92022023Y-73644172D01*
X92021692Y-73724112D01*
X92021320Y-73795996D01*
X92020910Y-73859045D01*
X92020467Y-73912478D01*
X92019993Y-73955517D01*
X92019494Y-73987382D01*
X92018972Y-74007291D01*
X92018432Y-74014467D01*
X92012037Y-74015761D01*
X91994038Y-74017044D01*
X91966770Y-74018061D01*
X91932482Y-74018730D01*
X91893425Y-74018971D01*
X91772924Y-74018971D01*
X91772924Y-73610166D01*
X91772924Y-73201360D01*
X91381011Y-73201360D01*
X90989098Y-73201360D01*
X90989098Y-73100004D01*
X90989098Y-72998647D01*
X91381011Y-72998647D01*
X91772924Y-72998647D01*
X91772924Y-72681062D01*
X91772924Y-72363478D01*
X91316818Y-72363478D01*
X90860713Y-72363478D01*
X90860713Y-72265500D01*
X90860713Y-72167522D01*
X91441825Y-72167522D01*
X92022937Y-72167522D01*
X92022937Y-73088742D01*
G37*
G36*
X114510098Y-64877593D02*
G01*
X114553027Y-64878371D01*
X114587789Y-64879728D01*
X114615471Y-64881775D01*
X114637159Y-64884623D01*
X114653942Y-64888382D01*
X114666907Y-64893163D01*
X114677140Y-64899075D01*
X114685730Y-64906230D01*
X114693763Y-64914737D01*
X114702327Y-64924707D01*
X114703665Y-64926290D01*
X114726966Y-64963613D01*
X114737810Y-65003425D01*
X114736265Y-65043646D01*
X114722395Y-65082198D01*
X114696266Y-65117001D01*
X114682409Y-65129464D01*
X114661764Y-65144302D01*
X114644574Y-65152703D01*
X114643152Y-65153010D01*
X114628943Y-65154318D01*
X114602611Y-65155535D01*
X114565289Y-65156640D01*
X114518110Y-65157614D01*
X114462207Y-65158436D01*
X114398714Y-65159085D01*
X114328762Y-65159541D01*
X114253487Y-65159783D01*
X113884861Y-65160392D01*
X113849295Y-65142669D01*
X113824038Y-65127525D01*
X113797902Y-65101434D01*
X113782106Y-65068234D01*
X113775431Y-65025996D01*
X113775365Y-65005538D01*
X113783298Y-64964130D01*
X113802810Y-64929325D01*
X113834313Y-64900243D01*
X113863088Y-64879972D01*
X114242600Y-64878038D01*
X114321431Y-64877638D01*
X114395387Y-64877337D01*
X114457913Y-64877286D01*
X114510098Y-64877593D01*
G37*
G36*
X114316288Y-75260592D02*
G01*
X114324369Y-75285950D01*
X114337719Y-75327942D01*
X114353778Y-75378523D01*
X114371782Y-75435288D01*
X114390966Y-75495827D01*
X114410568Y-75557735D01*
X114429824Y-75618602D01*
X114432645Y-75627513D01*
X114449905Y-75681698D01*
X114465923Y-75731398D01*
X114480233Y-75775211D01*
X114492370Y-75811735D01*
X114501868Y-75839567D01*
X114508263Y-75857305D01*
X114511090Y-75863547D01*
X114512450Y-75860791D01*
X114517639Y-75846663D01*
X114526265Y-75821571D01*
X114537946Y-75786671D01*
X114552303Y-75743120D01*
X114568954Y-75692074D01*
X114587519Y-75634691D01*
X114607618Y-75572126D01*
X114628869Y-75505537D01*
X114742800Y-75147410D01*
X114812530Y-75147410D01*
X114882261Y-75147410D01*
X114882261Y-75590001D01*
X114882261Y-76032592D01*
X114827114Y-76032592D01*
X114771967Y-76032592D01*
X114775744Y-75696426D01*
X114779521Y-75360259D01*
X114667031Y-75696685D01*
X114554541Y-76033111D01*
X114511158Y-76031162D01*
X114467776Y-76029214D01*
X114355143Y-75691358D01*
X114242509Y-75353502D01*
X114245739Y-75693047D01*
X114248968Y-76032592D01*
X114193973Y-76032592D01*
X114138978Y-76032592D01*
X114138978Y-75590001D01*
X114138978Y-75147410D01*
X114209574Y-75147410D01*
X114280170Y-75147410D01*
X114316288Y-75260592D01*
G37*
G36*
X94910101Y-75311525D02*
G01*
X94914276Y-75317359D01*
X94946010Y-75361619D01*
X94976913Y-75404579D01*
X95005583Y-75444300D01*
X95030616Y-75478840D01*
X95050609Y-75506258D01*
X95064159Y-75524614D01*
X95100803Y-75573587D01*
X95102587Y-75360498D01*
X95104372Y-75147410D01*
X95158334Y-75147410D01*
X95212296Y-75147410D01*
X95212296Y-75590001D01*
X95212296Y-76032592D01*
X95158239Y-76032592D01*
X95104182Y-76032592D01*
X95103979Y-75882246D01*
X95103775Y-75731900D01*
X95060520Y-75679556D01*
X95017265Y-75627211D01*
X94896293Y-75828212D01*
X94775321Y-76029214D01*
X94710009Y-76031148D01*
X94692382Y-76031536D01*
X94667828Y-76031546D01*
X94650965Y-76030846D01*
X94644698Y-76029510D01*
X94645780Y-76027346D01*
X94652894Y-76015193D01*
X94666023Y-75993448D01*
X94684430Y-75963310D01*
X94707378Y-75925982D01*
X94734128Y-75882665D01*
X94763945Y-75834558D01*
X94796090Y-75782865D01*
X94947483Y-75539792D01*
X94806226Y-75347625D01*
X94776865Y-75307594D01*
X94746450Y-75265924D01*
X94719533Y-75228834D01*
X94697020Y-75197581D01*
X94679818Y-75173425D01*
X94668832Y-75157623D01*
X94664969Y-75151434D01*
X94667089Y-75150407D01*
X94679762Y-75148866D01*
X94701323Y-75147805D01*
X94728828Y-75147410D01*
X94792688Y-75147410D01*
X94910101Y-75311525D01*
G37*
G36*
X110463107Y-75194710D02*
G01*
X110463107Y-75242010D01*
X110266428Y-75242010D01*
X110225902Y-75242029D01*
X110177685Y-75242168D01*
X110140621Y-75242512D01*
X110113312Y-75243147D01*
X110094362Y-75244156D01*
X110082374Y-75245625D01*
X110075950Y-75247638D01*
X110073694Y-75250279D01*
X110074209Y-75253633D01*
X110077242Y-75259530D01*
X110086528Y-75276442D01*
X110101413Y-75303099D01*
X110121288Y-75338426D01*
X110145546Y-75381350D01*
X110173581Y-75430796D01*
X110204784Y-75485690D01*
X110238548Y-75544956D01*
X110274267Y-75607522D01*
X110469864Y-75949787D01*
X110469864Y-75991190D01*
X110469864Y-76032592D01*
X110199580Y-76032592D01*
X109929295Y-76032592D01*
X109929295Y-75985292D01*
X109929295Y-75937992D01*
X110135387Y-75937992D01*
X110157194Y-75937976D01*
X110206678Y-75937815D01*
X110250838Y-75937498D01*
X110288036Y-75937048D01*
X110316635Y-75936488D01*
X110334995Y-75935842D01*
X110341479Y-75935130D01*
X110338476Y-75929369D01*
X110329333Y-75912850D01*
X110314626Y-75886612D01*
X110294938Y-75851686D01*
X110270850Y-75809100D01*
X110242945Y-75759883D01*
X110211805Y-75705063D01*
X110178010Y-75645669D01*
X110142144Y-75582730D01*
X109942809Y-75233193D01*
X109942809Y-75190301D01*
X109942809Y-75147410D01*
X110202958Y-75147410D01*
X110463107Y-75147410D01*
X110463107Y-75194710D01*
G37*
G36*
X114183874Y-65289581D02*
G01*
X114274121Y-65290007D01*
X114628869Y-65292156D01*
X114661732Y-65308333D01*
X114695204Y-65331257D01*
X114718979Y-65360962D01*
X114733043Y-65395130D01*
X114737671Y-65431580D01*
X114733133Y-65468134D01*
X114719703Y-65502613D01*
X114697653Y-65532838D01*
X114667256Y-65556629D01*
X114628783Y-65571809D01*
X114628340Y-65571906D01*
X114615035Y-65573217D01*
X114589421Y-65574369D01*
X114552626Y-65575348D01*
X114505774Y-65576138D01*
X114449993Y-65576724D01*
X114386409Y-65577091D01*
X114316148Y-65577223D01*
X114240335Y-65577104D01*
X114201548Y-65576979D01*
X114128404Y-65576717D01*
X114067087Y-65576420D01*
X114016448Y-65576044D01*
X113975340Y-65575542D01*
X113942614Y-65574867D01*
X113917122Y-65573972D01*
X113897716Y-65572813D01*
X113883249Y-65571341D01*
X113872572Y-65569511D01*
X113864537Y-65567277D01*
X113857996Y-65564592D01*
X113851801Y-65561409D01*
X113826539Y-65545151D01*
X113797316Y-65514781D01*
X113779878Y-65477843D01*
X113774094Y-65434122D01*
X113775920Y-65409982D01*
X113788310Y-65369604D01*
X113811260Y-65335957D01*
X113843428Y-65310741D01*
X113883472Y-65295655D01*
X113893336Y-65294171D01*
X113914812Y-65292512D01*
X113946286Y-65291223D01*
X113988344Y-65290293D01*
X114041571Y-65289715D01*
X114106553Y-65289480D01*
X114183874Y-65289581D01*
G37*
G36*
X108577502Y-72749368D02*
G01*
X108253530Y-73331481D01*
X108253530Y-73675226D01*
X108253530Y-74018971D01*
X108131902Y-74018971D01*
X108010274Y-74018971D01*
X108010227Y-73672669D01*
X108010179Y-73326367D01*
X107689263Y-72749503D01*
X107667319Y-72710050D01*
X107622856Y-72630074D01*
X107580514Y-72553859D01*
X107540737Y-72482210D01*
X107503971Y-72415932D01*
X107470663Y-72355829D01*
X107441256Y-72302705D01*
X107416197Y-72257366D01*
X107395931Y-72220616D01*
X107380904Y-72193259D01*
X107371561Y-72176100D01*
X107368348Y-72169943D01*
X107368882Y-72169714D01*
X107378771Y-72169060D01*
X107399620Y-72168657D01*
X107429439Y-72168517D01*
X107466239Y-72168651D01*
X107508031Y-72169074D01*
X107647715Y-72170900D01*
X107888119Y-72628165D01*
X107893957Y-72639267D01*
X107932062Y-72711693D01*
X107968293Y-72780476D01*
X108002160Y-72844692D01*
X108033173Y-72903415D01*
X108060842Y-72955722D01*
X108084679Y-73000687D01*
X108104193Y-73037385D01*
X108118894Y-73064892D01*
X108128294Y-73082282D01*
X108131902Y-73088632D01*
X108132119Y-73088514D01*
X108136838Y-73081004D01*
X108147215Y-73062585D01*
X108162766Y-73034164D01*
X108183008Y-72996647D01*
X108207456Y-72950944D01*
X108235627Y-72897960D01*
X108267036Y-72838603D01*
X108301199Y-72773780D01*
X108337632Y-72704399D01*
X108375852Y-72631367D01*
X108616423Y-72170900D01*
X108758948Y-72169078D01*
X108901474Y-72167255D01*
X108577502Y-72749368D01*
G37*
G36*
X109742015Y-75148830D02*
G01*
X109797531Y-75150788D01*
X109797531Y-75488644D01*
X109797513Y-75541403D01*
X109797350Y-75616843D01*
X109796916Y-75680715D01*
X109796088Y-75734224D01*
X109794742Y-75778572D01*
X109792756Y-75814965D01*
X109790006Y-75844607D01*
X109786370Y-75868701D01*
X109781724Y-75888452D01*
X109775946Y-75905065D01*
X109768912Y-75919742D01*
X109760499Y-75933689D01*
X109750585Y-75948109D01*
X109727871Y-75976200D01*
X109698891Y-76001313D01*
X109663623Y-76020745D01*
X109618468Y-76036918D01*
X109599250Y-76041034D01*
X109562829Y-76044230D01*
X109520969Y-76044154D01*
X109478196Y-76041029D01*
X109439032Y-76035080D01*
X109408003Y-76026528D01*
X109374515Y-76010263D01*
X109332700Y-75977754D01*
X109299166Y-75935531D01*
X109274756Y-75884733D01*
X109260312Y-75826500D01*
X109258629Y-75807995D01*
X109257202Y-75776616D01*
X109256094Y-75733634D01*
X109255316Y-75680015D01*
X109254884Y-75616724D01*
X109254811Y-75544729D01*
X109255110Y-75464994D01*
X109256962Y-75150788D01*
X109312476Y-75148830D01*
X109367990Y-75146871D01*
X109369912Y-75497013D01*
X109371833Y-75847156D01*
X109388866Y-75880749D01*
X109389124Y-75881257D01*
X109402523Y-75903296D01*
X109418757Y-75919015D01*
X109442923Y-75933376D01*
X109446604Y-75935253D01*
X109466470Y-75944304D01*
X109484193Y-75949179D01*
X109504971Y-75950841D01*
X109534004Y-75950254D01*
X109543269Y-75949794D01*
X109584579Y-75944437D01*
X109616369Y-75933125D01*
X109641390Y-75914510D01*
X109662389Y-75887241D01*
X109682660Y-75854606D01*
X109684579Y-75500738D01*
X109686499Y-75146871D01*
X109742015Y-75148830D01*
G37*
G36*
X107186040Y-75459927D02*
G01*
X107186147Y-75510480D01*
X107186529Y-75574244D01*
X107187155Y-75634167D01*
X107187995Y-75688638D01*
X107189019Y-75736043D01*
X107190196Y-75774770D01*
X107191495Y-75803207D01*
X107192885Y-75819743D01*
X107203021Y-75863474D01*
X107221452Y-75899809D01*
X107248363Y-75925916D01*
X107284410Y-75942419D01*
X107330250Y-75949940D01*
X107357842Y-75950616D01*
X107404200Y-75945105D01*
X107441553Y-75930220D01*
X107470763Y-75905540D01*
X107492694Y-75870645D01*
X107495803Y-75863538D01*
X107498481Y-75855851D01*
X107500707Y-75846546D01*
X107502533Y-75834434D01*
X107504009Y-75818324D01*
X107505187Y-75797028D01*
X107506118Y-75769356D01*
X107506853Y-75734118D01*
X107507442Y-75690124D01*
X107507936Y-75636185D01*
X107508387Y-75571111D01*
X107508846Y-75493712D01*
X107510823Y-75147410D01*
X107564872Y-75147410D01*
X107618922Y-75147410D01*
X107616952Y-75503848D01*
X107616761Y-75538250D01*
X107616329Y-75611458D01*
X107615891Y-75672839D01*
X107615394Y-75723584D01*
X107614787Y-75764882D01*
X107614019Y-75797924D01*
X107613035Y-75823899D01*
X107611786Y-75843997D01*
X107610218Y-75859408D01*
X107608280Y-75871323D01*
X107605920Y-75880931D01*
X107603086Y-75889422D01*
X107599725Y-75897986D01*
X107578875Y-75938999D01*
X107545792Y-75979393D01*
X107503281Y-76010530D01*
X107450539Y-76033141D01*
X107430145Y-76038298D01*
X107389192Y-76043835D01*
X107344100Y-76045525D01*
X107300396Y-76043258D01*
X107263613Y-76036921D01*
X107261531Y-76036357D01*
X107207344Y-76015027D01*
X107161177Y-75983504D01*
X107124144Y-75942751D01*
X107097364Y-75893729D01*
X107081170Y-75853529D01*
X107079198Y-75500469D01*
X107077226Y-75147410D01*
X107131566Y-75147410D01*
X107185906Y-75147410D01*
X107186040Y-75459927D01*
G37*
G36*
X118206762Y-75590572D02*
G01*
X118206762Y-76033734D01*
X118059795Y-76031169D01*
X118053219Y-76031053D01*
X118005280Y-76030072D01*
X117968435Y-76028930D01*
X117940522Y-76027419D01*
X117919379Y-76025335D01*
X117902844Y-76022472D01*
X117888756Y-76018624D01*
X117874952Y-76013585D01*
X117830901Y-75992816D01*
X117782848Y-75959411D01*
X117744208Y-75917815D01*
X117714395Y-75867195D01*
X117692822Y-75806720D01*
X117678904Y-75735557D01*
X117677232Y-75720470D01*
X117674864Y-75682866D01*
X117673782Y-75638246D01*
X117673869Y-75602321D01*
X117781618Y-75602321D01*
X117783024Y-75660324D01*
X117786759Y-75714373D01*
X117792850Y-75761417D01*
X117801323Y-75798405D01*
X117820368Y-75841662D01*
X117848536Y-75879713D01*
X117883292Y-75908989D01*
X117922501Y-75927221D01*
X117943601Y-75931922D01*
X117982603Y-75936415D01*
X118028925Y-75937992D01*
X118098648Y-75937992D01*
X118098648Y-75590001D01*
X118098648Y-75242010D01*
X118053038Y-75242143D01*
X118047602Y-75242184D01*
X118000222Y-75244568D01*
X117955760Y-75250183D01*
X117917720Y-75258458D01*
X117889606Y-75268820D01*
X117875713Y-75277238D01*
X117846683Y-75302863D01*
X117821818Y-75335026D01*
X117805068Y-75369045D01*
X117798754Y-75391808D01*
X117791109Y-75435108D01*
X117785687Y-75486662D01*
X117782515Y-75543416D01*
X117781618Y-75602321D01*
X117673869Y-75602321D01*
X117673900Y-75589540D01*
X117675127Y-75539678D01*
X117677377Y-75491591D01*
X117680562Y-75448210D01*
X117684592Y-75412465D01*
X117689380Y-75387288D01*
X117694007Y-75371331D01*
X117718868Y-75309304D01*
X117751975Y-75257780D01*
X117793621Y-75216377D01*
X117844097Y-75184711D01*
X117856309Y-75178977D01*
X117884208Y-75168005D01*
X117913868Y-75159785D01*
X117947629Y-75153974D01*
X117987836Y-75150226D01*
X118036832Y-75148197D01*
X118096959Y-75147544D01*
X118206762Y-75147410D01*
X118206762Y-75590001D01*
X118206762Y-75590572D01*
G37*
G36*
X113225127Y-75591690D02*
G01*
X113226866Y-76032592D01*
X113169381Y-76032592D01*
X113111897Y-76032592D01*
X113111897Y-75853529D01*
X113111897Y-75674465D01*
X113035007Y-75674465D01*
X112958118Y-75674465D01*
X112882448Y-75848461D01*
X112879772Y-75854609D01*
X112860116Y-75899524D01*
X112842131Y-75940197D01*
X112826552Y-75974995D01*
X112814116Y-76002285D01*
X112805559Y-76020432D01*
X112801618Y-76027803D01*
X112799868Y-76028695D01*
X112787173Y-76030596D01*
X112765706Y-76031487D01*
X112738940Y-76031182D01*
X112681421Y-76029214D01*
X112764895Y-75844415D01*
X112772430Y-75827715D01*
X112792773Y-75782421D01*
X112810940Y-75741677D01*
X112826249Y-75707034D01*
X112838016Y-75680042D01*
X112845559Y-75662252D01*
X112848195Y-75655215D01*
X112844751Y-75651000D01*
X112832718Y-75641107D01*
X112815055Y-75628461D01*
X112794086Y-75612024D01*
X112760413Y-75573232D01*
X112735486Y-75526132D01*
X112719925Y-75472512D01*
X112714550Y-75416222D01*
X112828135Y-75416222D01*
X112828205Y-75423216D01*
X112833913Y-75471612D01*
X112849173Y-75511017D01*
X112874548Y-75542459D01*
X112910603Y-75566970D01*
X112922537Y-75572159D01*
X112937550Y-75576017D01*
X112957532Y-75578371D01*
X112985329Y-75579546D01*
X113023785Y-75579865D01*
X113111897Y-75579865D01*
X113111897Y-75409979D01*
X113111897Y-75240093D01*
X113022365Y-75243566D01*
X112983026Y-75245565D01*
X112946538Y-75249153D01*
X112918901Y-75254776D01*
X112897589Y-75263198D01*
X112880076Y-75275184D01*
X112863836Y-75291497D01*
X112848817Y-75311809D01*
X112836720Y-75339119D01*
X112830142Y-75372819D01*
X112828135Y-75416222D01*
X112714550Y-75416222D01*
X112714353Y-75414162D01*
X112719390Y-75352872D01*
X112727911Y-75315167D01*
X112748782Y-75263604D01*
X112778868Y-75221811D01*
X112818366Y-75189541D01*
X112867475Y-75166545D01*
X112876424Y-75163570D01*
X112891298Y-75159275D01*
X112906738Y-75156091D01*
X112924904Y-75153850D01*
X112947953Y-75152384D01*
X112978043Y-75151527D01*
X113017331Y-75151109D01*
X113067975Y-75150964D01*
X113223389Y-75150788D01*
X113224411Y-75409979D01*
X113225127Y-75591690D01*
G37*
G36*
X97111045Y-75590001D02*
G01*
X97111045Y-76032592D01*
X97056988Y-76032592D01*
X97002932Y-76032592D01*
X97002932Y-75853314D01*
X97002932Y-75674036D01*
X96924692Y-75675940D01*
X96846452Y-75677844D01*
X96769622Y-75853529D01*
X96692791Y-76029214D01*
X96630983Y-76031165D01*
X96617707Y-76031456D01*
X96592896Y-76031115D01*
X96576684Y-76029550D01*
X96571515Y-76026936D01*
X96572047Y-76025677D01*
X96577103Y-76014338D01*
X96586817Y-75992813D01*
X96600478Y-75962672D01*
X96617375Y-75925485D01*
X96636793Y-75882821D01*
X96658023Y-75836250D01*
X96680460Y-75786522D01*
X96700837Y-75740104D01*
X96716791Y-75702262D01*
X96727957Y-75673894D01*
X96733967Y-75655896D01*
X96734456Y-75649166D01*
X96725384Y-75644853D01*
X96705363Y-75630723D01*
X96683030Y-75611021D01*
X96662036Y-75589087D01*
X96646031Y-75568263D01*
X96625040Y-75526672D01*
X96610298Y-75474442D01*
X96604682Y-75419010D01*
X96604999Y-75413674D01*
X96716434Y-75413674D01*
X96717049Y-75442511D01*
X96719711Y-75464493D01*
X96725527Y-75483118D01*
X96735600Y-75503567D01*
X96741681Y-75513700D01*
X96761166Y-75538764D01*
X96781949Y-75557624D01*
X96785346Y-75559961D01*
X96796212Y-75566732D01*
X96807209Y-75571436D01*
X96821013Y-75574529D01*
X96840301Y-75576463D01*
X96867750Y-75577694D01*
X96906035Y-75578675D01*
X97002932Y-75580862D01*
X97002932Y-75410478D01*
X97002932Y-75240093D01*
X96911591Y-75243578D01*
X96890665Y-75244506D01*
X96846102Y-75247968D01*
X96811980Y-75253771D01*
X96786121Y-75262854D01*
X96766350Y-75276157D01*
X96750489Y-75294618D01*
X96736363Y-75319176D01*
X96726729Y-75339979D01*
X96720218Y-75360442D01*
X96717181Y-75383133D01*
X96716434Y-75413674D01*
X96604999Y-75413674D01*
X96608004Y-75363169D01*
X96620072Y-75309712D01*
X96640697Y-75261431D01*
X96669689Y-75221117D01*
X96689147Y-75202439D01*
X96712477Y-75185623D01*
X96739330Y-75172442D01*
X96771360Y-75162511D01*
X96810223Y-75155443D01*
X96857572Y-75150850D01*
X96915063Y-75148346D01*
X96984349Y-75147544D01*
X97111045Y-75147410D01*
X97111045Y-75410478D01*
X97111045Y-75590001D01*
G37*
G36*
X94536584Y-75589215D02*
G01*
X94536584Y-76032592D01*
X94482527Y-76032592D01*
X94428470Y-76032592D01*
X94428470Y-75853529D01*
X94428470Y-75674465D01*
X94351522Y-75674465D01*
X94274574Y-75674465D01*
X94233753Y-75767375D01*
X94233366Y-75768257D01*
X94214652Y-75810910D01*
X94193877Y-75858357D01*
X94173542Y-75904877D01*
X94156150Y-75944750D01*
X94119368Y-76029214D01*
X94057932Y-76031153D01*
X93996495Y-76033093D01*
X94005889Y-76010882D01*
X94010601Y-76000117D01*
X94020294Y-75978380D01*
X94033941Y-75947978D01*
X94050693Y-75910800D01*
X94069700Y-75868733D01*
X94090113Y-75823668D01*
X94090180Y-75823520D01*
X94109997Y-75779679D01*
X94127839Y-75739936D01*
X94142980Y-75705931D01*
X94154693Y-75679304D01*
X94162252Y-75661693D01*
X94164931Y-75654740D01*
X94162741Y-75651887D01*
X94151943Y-75643305D01*
X94135159Y-75632014D01*
X94133668Y-75631063D01*
X94095291Y-75598524D01*
X94065375Y-75556727D01*
X94044430Y-75507296D01*
X94032963Y-75451852D01*
X94031905Y-75409103D01*
X94144671Y-75409103D01*
X94145408Y-75433170D01*
X94152559Y-75478758D01*
X94168008Y-75515176D01*
X94192599Y-75544041D01*
X94227177Y-75566970D01*
X94239110Y-75572159D01*
X94254123Y-75576017D01*
X94274106Y-75578371D01*
X94301903Y-75579546D01*
X94340359Y-75579865D01*
X94428470Y-75579865D01*
X94428470Y-75410937D01*
X94428470Y-75242010D01*
X94365967Y-75242049D01*
X94362966Y-75242054D01*
X94306583Y-75243811D01*
X94261602Y-75249155D01*
X94226311Y-75258734D01*
X94198998Y-75273195D01*
X94177948Y-75293186D01*
X94161449Y-75319354D01*
X94154650Y-75334162D01*
X94148479Y-75354074D01*
X94145467Y-75377377D01*
X94144671Y-75409103D01*
X94031905Y-75409103D01*
X94031482Y-75392021D01*
X94040494Y-75329425D01*
X94042906Y-75319599D01*
X94062824Y-75267573D01*
X94092684Y-75224691D01*
X94132444Y-75191002D01*
X94182061Y-75166554D01*
X94185392Y-75165362D01*
X94199749Y-75160824D01*
X94215079Y-75157324D01*
X94233472Y-75154678D01*
X94257019Y-75152696D01*
X94287809Y-75151193D01*
X94327933Y-75149981D01*
X94379481Y-75148872D01*
X94536584Y-75145839D01*
X94536584Y-75410937D01*
X94536584Y-75589215D01*
G37*
G36*
X93245052Y-75753572D02*
G01*
X93265115Y-75816128D01*
X93283159Y-75872379D01*
X93298833Y-75921231D01*
X93311787Y-75961590D01*
X93321670Y-75992362D01*
X93328129Y-76012452D01*
X93330816Y-76020767D01*
X93331612Y-76023985D01*
X93330018Y-76028564D01*
X93322174Y-76031163D01*
X93305660Y-76032325D01*
X93278055Y-76032592D01*
X93221383Y-76032592D01*
X93188047Y-75919410D01*
X93154711Y-75806229D01*
X93005084Y-75804412D01*
X92855456Y-75802595D01*
X92840775Y-75851712D01*
X92837714Y-75861930D01*
X92827869Y-75894621D01*
X92816673Y-75931616D01*
X92806002Y-75966710D01*
X92785911Y-76032592D01*
X92732144Y-76032592D01*
X92724790Y-76032545D01*
X92701100Y-76031659D01*
X92684467Y-76029885D01*
X92678120Y-76027524D01*
X92678762Y-76024948D01*
X92682945Y-76010929D01*
X92690736Y-75985710D01*
X92701798Y-75950353D01*
X92715798Y-75905917D01*
X92732400Y-75853463D01*
X92751268Y-75794050D01*
X92772068Y-75728740D01*
X92780849Y-75701237D01*
X92887848Y-75701237D01*
X92888386Y-75702116D01*
X92898825Y-75704768D01*
X92922288Y-75706688D01*
X92958409Y-75707856D01*
X93006820Y-75708251D01*
X93027563Y-75708213D01*
X93066673Y-75707806D01*
X93094313Y-75706865D01*
X93111909Y-75705287D01*
X93120886Y-75702968D01*
X93122669Y-75699804D01*
X93122287Y-75698669D01*
X93118651Y-75686901D01*
X93111840Y-75664341D01*
X93102358Y-75632681D01*
X93090712Y-75593613D01*
X93077407Y-75548830D01*
X93062950Y-75500024D01*
X93045555Y-75441943D01*
X93030657Y-75393919D01*
X93018902Y-75358202D01*
X93010154Y-75334399D01*
X93004276Y-75322116D01*
X93001134Y-75320960D01*
X92999107Y-75326571D01*
X92993411Y-75344142D01*
X92985070Y-75370895D01*
X92974681Y-75404819D01*
X92962843Y-75443906D01*
X92950156Y-75486144D01*
X92937218Y-75529524D01*
X92924627Y-75572037D01*
X92912983Y-75611672D01*
X92902885Y-75646419D01*
X92894930Y-75674269D01*
X92889718Y-75693211D01*
X92887848Y-75701237D01*
X92780849Y-75701237D01*
X92794464Y-75658592D01*
X92818121Y-75584667D01*
X92958380Y-75146878D01*
X93005097Y-75148833D01*
X93051814Y-75150788D01*
X93189359Y-75579865D01*
X93200276Y-75613923D01*
X93223323Y-75685806D01*
X93227811Y-75699804D01*
X93245052Y-75753572D01*
G37*
G36*
X113900385Y-75706166D02*
G01*
X113921901Y-75773457D01*
X113941633Y-75835215D01*
X113959246Y-75890393D01*
X113974407Y-75937943D01*
X113986781Y-75976815D01*
X113996033Y-76005962D01*
X114001830Y-76024336D01*
X114003836Y-76030889D01*
X114003038Y-76031176D01*
X113992833Y-76031899D01*
X113973347Y-76032403D01*
X113947718Y-76032592D01*
X113891601Y-76032592D01*
X113858558Y-75917721D01*
X113825515Y-75802850D01*
X113675822Y-75802850D01*
X113526129Y-75802850D01*
X113492203Y-75916032D01*
X113458277Y-76029214D01*
X113403336Y-76031176D01*
X113394865Y-76031411D01*
X113371158Y-76031240D01*
X113354614Y-76029846D01*
X113348396Y-76027446D01*
X113350155Y-76020460D01*
X113355706Y-76001800D01*
X113364643Y-75972841D01*
X113376548Y-75934871D01*
X113391006Y-75889178D01*
X113407600Y-75837049D01*
X113425916Y-75779771D01*
X113445535Y-75718632D01*
X113450689Y-75702619D01*
X113557866Y-75702619D01*
X113562744Y-75704214D01*
X113579143Y-75705826D01*
X113605019Y-75707105D01*
X113638214Y-75707947D01*
X113676571Y-75708251D01*
X113708040Y-75708210D01*
X113742251Y-75707928D01*
X113765987Y-75707217D01*
X113781028Y-75705894D01*
X113789154Y-75703776D01*
X113792146Y-75700681D01*
X113791783Y-75696426D01*
X113777394Y-75647747D01*
X113752939Y-75565237D01*
X113732053Y-75495101D01*
X113714617Y-75436943D01*
X113700508Y-75390363D01*
X113689607Y-75354965D01*
X113681793Y-75330351D01*
X113676944Y-75316123D01*
X113674939Y-75311883D01*
X113674698Y-75312345D01*
X113671444Y-75321779D01*
X113665092Y-75341798D01*
X113656225Y-75370450D01*
X113645429Y-75405786D01*
X113633287Y-75445853D01*
X113620384Y-75488701D01*
X113607305Y-75532379D01*
X113594634Y-75574936D01*
X113582957Y-75614421D01*
X113572856Y-75648882D01*
X113564918Y-75676370D01*
X113559727Y-75694932D01*
X113557866Y-75702619D01*
X113450689Y-75702619D01*
X113466043Y-75654919D01*
X113487023Y-75589921D01*
X113508059Y-75524923D01*
X113528735Y-75461214D01*
X113548635Y-75400080D01*
X113567342Y-75342811D01*
X113584440Y-75290692D01*
X113599514Y-75245011D01*
X113612146Y-75207057D01*
X113621922Y-75178115D01*
X113628424Y-75159474D01*
X113631237Y-75152422D01*
X113638919Y-75149988D01*
X113656601Y-75148531D01*
X113679758Y-75148751D01*
X113722571Y-75150788D01*
X113863204Y-75589988D01*
X113877419Y-75634391D01*
X113898630Y-75700681D01*
X113900385Y-75706166D01*
G37*
G36*
X108287968Y-75764826D02*
G01*
X108306606Y-75823059D01*
X108323251Y-75875020D01*
X108337481Y-75919389D01*
X108348872Y-75954846D01*
X108357001Y-75980069D01*
X108361445Y-75993739D01*
X108374272Y-76032592D01*
X108317540Y-76032592D01*
X108260808Y-76032592D01*
X108253776Y-76007253D01*
X108253348Y-76005719D01*
X108248322Y-75988159D01*
X108240558Y-75961464D01*
X108231035Y-75928985D01*
X108220732Y-75894071D01*
X108194719Y-75806229D01*
X108045391Y-75804411D01*
X107896062Y-75802593D01*
X107875931Y-75868604D01*
X107871911Y-75881802D01*
X107860817Y-75918361D01*
X107849943Y-75954354D01*
X107841158Y-75983603D01*
X107826515Y-76032592D01*
X107770148Y-76032592D01*
X107713781Y-76032592D01*
X107723208Y-76003874D01*
X107725685Y-75996238D01*
X107732287Y-75975732D01*
X107742301Y-75944551D01*
X107755326Y-75903950D01*
X107770958Y-75855182D01*
X107788797Y-75799501D01*
X107808440Y-75738160D01*
X107818014Y-75708251D01*
X107923758Y-75708251D01*
X108044400Y-75708251D01*
X108165041Y-75708251D01*
X108155297Y-75676154D01*
X108152349Y-75666361D01*
X108145390Y-75643074D01*
X108135722Y-75610609D01*
X108123999Y-75571171D01*
X108110879Y-75526966D01*
X108097017Y-75480198D01*
X108085751Y-75442542D01*
X108073257Y-75401719D01*
X108062308Y-75366958D01*
X108053462Y-75339988D01*
X108047273Y-75322538D01*
X108044299Y-75316338D01*
X108043163Y-75317755D01*
X108038387Y-75329239D01*
X108031013Y-75350385D01*
X108021811Y-75378933D01*
X108011549Y-75412627D01*
X108011091Y-75414171D01*
X107997692Y-75459321D01*
X107982370Y-75510937D01*
X107966977Y-75562773D01*
X107953370Y-75608583D01*
X107923758Y-75708251D01*
X107818014Y-75708251D01*
X107829485Y-75672414D01*
X107851532Y-75603515D01*
X107867526Y-75553527D01*
X107889153Y-75485952D01*
X107909607Y-75422064D01*
X107928467Y-75363175D01*
X107945313Y-75310597D01*
X107959724Y-75265643D01*
X107971280Y-75229624D01*
X107979560Y-75203853D01*
X107984145Y-75189642D01*
X107997861Y-75147410D01*
X108044059Y-75147410D01*
X108090257Y-75147410D01*
X108103985Y-75189642D01*
X108106258Y-75196675D01*
X108113114Y-75218006D01*
X108123398Y-75250083D01*
X108136684Y-75291570D01*
X108152543Y-75341129D01*
X108170548Y-75397426D01*
X108190272Y-75459124D01*
X108211287Y-75524887D01*
X108233165Y-75593380D01*
X108246406Y-75634831D01*
X108267760Y-75701644D01*
X108269873Y-75708251D01*
X108287968Y-75764826D01*
G37*
G36*
X91693452Y-75147425D02*
G01*
X91720221Y-75147952D01*
X91736090Y-75149495D01*
X91743188Y-75152407D01*
X91743644Y-75157043D01*
X91742858Y-75159394D01*
X91738455Y-75173279D01*
X91730577Y-75198459D01*
X91719560Y-75233847D01*
X91705741Y-75278354D01*
X91689458Y-75330895D01*
X91671048Y-75390380D01*
X91650847Y-75455723D01*
X91629193Y-75525837D01*
X91606424Y-75599634D01*
X91472900Y-76032592D01*
X91423839Y-76032592D01*
X91374777Y-76032592D01*
X91365152Y-76000496D01*
X91364881Y-75999598D01*
X91360694Y-75985899D01*
X91352929Y-75960663D01*
X91341960Y-75925094D01*
X91328160Y-75880402D01*
X91311902Y-75827792D01*
X91293558Y-75768473D01*
X91273503Y-75703650D01*
X91252108Y-75634532D01*
X91229748Y-75562325D01*
X91225130Y-75547415D01*
X91203313Y-75476882D01*
X91182794Y-75410415D01*
X91163913Y-75349120D01*
X91147007Y-75294102D01*
X91132416Y-75246465D01*
X91120479Y-75207314D01*
X91111532Y-75177755D01*
X91105916Y-75158892D01*
X91103969Y-75151831D01*
X91104045Y-75151542D01*
X91111380Y-75149326D01*
X91128075Y-75147985D01*
X91150404Y-75147479D01*
X91174640Y-75147770D01*
X91197056Y-75148819D01*
X91213926Y-75150589D01*
X91221523Y-75153041D01*
X91221564Y-75153118D01*
X91224220Y-75161198D01*
X91230140Y-75180938D01*
X91238954Y-75211055D01*
X91250293Y-75250262D01*
X91263785Y-75297277D01*
X91279061Y-75350814D01*
X91295751Y-75409588D01*
X91313485Y-75472315D01*
X91330171Y-75531461D01*
X91350408Y-75603183D01*
X91367459Y-75663560D01*
X91381605Y-75713558D01*
X91393130Y-75754142D01*
X91402317Y-75786280D01*
X91409448Y-75810935D01*
X91414805Y-75829075D01*
X91418672Y-75841664D01*
X91421332Y-75849670D01*
X91423066Y-75854057D01*
X91424158Y-75855792D01*
X91424890Y-75855841D01*
X91425545Y-75855168D01*
X91427247Y-75850065D01*
X91432258Y-75833261D01*
X91440140Y-75806152D01*
X91450484Y-75770190D01*
X91462880Y-75726828D01*
X91476918Y-75677519D01*
X91492187Y-75623715D01*
X91508280Y-75566870D01*
X91524785Y-75508436D01*
X91541292Y-75449865D01*
X91557392Y-75392612D01*
X91572675Y-75338127D01*
X91586732Y-75287865D01*
X91599152Y-75243279D01*
X91609525Y-75205820D01*
X91617442Y-75176941D01*
X91622492Y-75158096D01*
X91624267Y-75150738D01*
X91625935Y-75149969D01*
X91637893Y-75148655D01*
X91658848Y-75147748D01*
X91685804Y-75147410D01*
X91693452Y-75147425D01*
G37*
G36*
X102818550Y-75706203D02*
G01*
X102840080Y-75773491D01*
X102859825Y-75835247D01*
X102877453Y-75890422D01*
X102892627Y-75937968D01*
X102905015Y-75976837D01*
X102914280Y-76005981D01*
X102920089Y-76024352D01*
X102922106Y-76030903D01*
X102921313Y-76031187D01*
X102911123Y-76031905D01*
X102891649Y-76032405D01*
X102866024Y-76032592D01*
X102809882Y-76032592D01*
X102776492Y-75917721D01*
X102743102Y-75802851D01*
X102593780Y-75802850D01*
X102444458Y-75802850D01*
X102410532Y-75916032D01*
X102376606Y-76029214D01*
X102321666Y-76031176D01*
X102313190Y-76031405D01*
X102289486Y-76031155D01*
X102272943Y-76029606D01*
X102266725Y-76027000D01*
X102267607Y-76023489D01*
X102272128Y-76008326D01*
X102280116Y-75982457D01*
X102291157Y-75947179D01*
X102304834Y-75903792D01*
X102320732Y-75853591D01*
X102338436Y-75797876D01*
X102357528Y-75737945D01*
X102368627Y-75703183D01*
X102476179Y-75703183D01*
X102481121Y-75704625D01*
X102497584Y-75706073D01*
X102523517Y-75707222D01*
X102556764Y-75707978D01*
X102595168Y-75708251D01*
X102615512Y-75708215D01*
X102654767Y-75707809D01*
X102682538Y-75706869D01*
X102700250Y-75705291D01*
X102709326Y-75702970D01*
X102711191Y-75699804D01*
X102710828Y-75698684D01*
X102707248Y-75686947D01*
X102700492Y-75664413D01*
X102691063Y-75632775D01*
X102679465Y-75593728D01*
X102666202Y-75548963D01*
X102651777Y-75500174D01*
X102646873Y-75483659D01*
X102632809Y-75437339D01*
X102619949Y-75396476D01*
X102608800Y-75362578D01*
X102599864Y-75337150D01*
X102593647Y-75321699D01*
X102590654Y-75317732D01*
X102588009Y-75325071D01*
X102582093Y-75343562D01*
X102573584Y-75371072D01*
X102563072Y-75405605D01*
X102551152Y-75445166D01*
X102538415Y-75487758D01*
X102525454Y-75531388D01*
X102512862Y-75574058D01*
X102501232Y-75613773D01*
X102491156Y-75648539D01*
X102483227Y-75676360D01*
X102478037Y-75695239D01*
X102476179Y-75703183D01*
X102368627Y-75703183D01*
X102377595Y-75675095D01*
X102398219Y-75610624D01*
X102418985Y-75545830D01*
X102439478Y-75482010D01*
X102459282Y-75420464D01*
X102477981Y-75362489D01*
X102495159Y-75309382D01*
X102510401Y-75262442D01*
X102523290Y-75222966D01*
X102533412Y-75192253D01*
X102540351Y-75171600D01*
X102543690Y-75162305D01*
X102544036Y-75161525D01*
X102548941Y-75153574D01*
X102556837Y-75149408D01*
X102571217Y-75148116D01*
X102595576Y-75148790D01*
X102640636Y-75150788D01*
X102781341Y-75590001D01*
X102795572Y-75634430D01*
X102816501Y-75699804D01*
X102818550Y-75706203D01*
G37*
G36*
X98935327Y-75140993D02*
G01*
X98997988Y-75149248D01*
X99052869Y-75168520D01*
X99099929Y-75198790D01*
X99139125Y-75240039D01*
X99142963Y-75245166D01*
X99160992Y-75271117D01*
X99174774Y-75295723D01*
X99186729Y-75323824D01*
X99199279Y-75360259D01*
X99204078Y-75376187D01*
X99208136Y-75393405D01*
X99211191Y-75412724D01*
X99213455Y-75436426D01*
X99215141Y-75466795D01*
X99216464Y-75506113D01*
X99217635Y-75556662D01*
X99218078Y-75582486D01*
X99218366Y-75639731D01*
X99217596Y-75688942D01*
X99215809Y-75728302D01*
X99213048Y-75755997D01*
X99202834Y-75807516D01*
X99181164Y-75873475D01*
X99151534Y-75929436D01*
X99114242Y-75974973D01*
X99069589Y-76009661D01*
X99017875Y-76033073D01*
X99001629Y-76037398D01*
X98965742Y-76043312D01*
X98928710Y-76045663D01*
X98927436Y-76045668D01*
X98863016Y-76040403D01*
X98806649Y-76024304D01*
X98758426Y-75997456D01*
X98718439Y-75959944D01*
X98686778Y-75911852D01*
X98663534Y-75853265D01*
X98648798Y-75784268D01*
X98644751Y-75755550D01*
X98700891Y-75755550D01*
X98757031Y-75755550D01*
X98765201Y-75803192D01*
X98773761Y-75840883D01*
X98791547Y-75884246D01*
X98816485Y-75916400D01*
X98849126Y-75937807D01*
X98890019Y-75948929D01*
X98939712Y-75950229D01*
X98981901Y-75942486D01*
X99020021Y-75923425D01*
X99051348Y-75892986D01*
X99076111Y-75850943D01*
X99094539Y-75797071D01*
X99094892Y-75795677D01*
X99098235Y-75780052D01*
X99100730Y-75762225D01*
X99102447Y-75740312D01*
X99103458Y-75712429D01*
X99103834Y-75676692D01*
X99103646Y-75631216D01*
X99102965Y-75574116D01*
X99102789Y-75561875D01*
X99101946Y-75509721D01*
X99101020Y-75468837D01*
X99099861Y-75437360D01*
X99098318Y-75413427D01*
X99096239Y-75395176D01*
X99093474Y-75380744D01*
X99089872Y-75368268D01*
X99085282Y-75355887D01*
X99070937Y-75326369D01*
X99046009Y-75291012D01*
X99016920Y-75262903D01*
X98986436Y-75245140D01*
X98967942Y-75239701D01*
X98931680Y-75235247D01*
X98893676Y-75236627D01*
X98858714Y-75243520D01*
X98831576Y-75255600D01*
X98825737Y-75259999D01*
X98804331Y-75283924D01*
X98785407Y-75316514D01*
X98770894Y-75353936D01*
X98762722Y-75392355D01*
X98758225Y-75431209D01*
X98701488Y-75431209D01*
X98644751Y-75431209D01*
X98648808Y-75402491D01*
X98650303Y-75392450D01*
X98665462Y-75323986D01*
X98687868Y-75266814D01*
X98717805Y-75220658D01*
X98755559Y-75185240D01*
X98801415Y-75160285D01*
X98855658Y-75145515D01*
X98918574Y-75140653D01*
X98935327Y-75140993D01*
G37*
G36*
X99950474Y-75142629D02*
G01*
X99999302Y-75149510D01*
X100039949Y-75163460D01*
X100075760Y-75185942D01*
X100110083Y-75218419D01*
X100126651Y-75238650D01*
X100153450Y-75286267D01*
X100168047Y-75338392D01*
X100170124Y-75393529D01*
X100159363Y-75450180D01*
X100153309Y-75467635D01*
X100131531Y-75509167D01*
X100100168Y-75546102D01*
X100058255Y-75579262D01*
X100004825Y-75609468D01*
X99938911Y-75637541D01*
X99895008Y-75655190D01*
X99848873Y-75677812D01*
X99814217Y-75701148D01*
X99789932Y-75726420D01*
X99774912Y-75754853D01*
X99768048Y-75787670D01*
X99768235Y-75826093D01*
X99769266Y-75836330D01*
X99779015Y-75876951D01*
X99797657Y-75908505D01*
X99826057Y-75932584D01*
X99828444Y-75934042D01*
X99842879Y-75941277D01*
X99858964Y-75945560D01*
X99880645Y-75947605D01*
X99911870Y-75948128D01*
X99919076Y-75948111D01*
X99948247Y-75947322D01*
X99969067Y-75944777D01*
X99985820Y-75939680D01*
X100002791Y-75931235D01*
X100006578Y-75929037D01*
X100040272Y-75901131D01*
X100064698Y-75863747D01*
X100079311Y-75817694D01*
X100087269Y-75775822D01*
X100140718Y-75775822D01*
X100194167Y-75775822D01*
X100190527Y-75815968D01*
X100188230Y-75833989D01*
X100172902Y-75887379D01*
X100145966Y-75935026D01*
X100108316Y-75975885D01*
X100060848Y-76008911D01*
X100004458Y-76033060D01*
X99999457Y-76034563D01*
X99961526Y-76041932D01*
X99917564Y-76045285D01*
X99873577Y-76044408D01*
X99835573Y-76039087D01*
X99799778Y-76028126D01*
X99751387Y-76002765D01*
X99711778Y-75968249D01*
X99681801Y-75925887D01*
X99662302Y-75876989D01*
X99654130Y-75822867D01*
X99658131Y-75764830D01*
X99668517Y-75722392D01*
X99688210Y-75678095D01*
X99716871Y-75639806D01*
X99755618Y-75606375D01*
X99805570Y-75576655D01*
X99867843Y-75549499D01*
X99872627Y-75547666D01*
X99928856Y-75524591D01*
X99973108Y-75502805D01*
X100006595Y-75481183D01*
X100030531Y-75458598D01*
X100046126Y-75433928D01*
X100054595Y-75406045D01*
X100057148Y-75373825D01*
X100056671Y-75358944D01*
X100048410Y-75315419D01*
X100030172Y-75280911D01*
X100002330Y-75255796D01*
X99965260Y-75240451D01*
X99919336Y-75235252D01*
X99886354Y-75236684D01*
X99858645Y-75242567D01*
X99835385Y-75254579D01*
X99811998Y-75274390D01*
X99807331Y-75279235D01*
X99786263Y-75310343D01*
X99771901Y-75347552D01*
X99766592Y-75385135D01*
X99766592Y-75404180D01*
X99709800Y-75404180D01*
X99653007Y-75404180D01*
X99656341Y-75375463D01*
X99656891Y-75370989D01*
X99670661Y-75311589D01*
X99695224Y-75258598D01*
X99729735Y-75213445D01*
X99773349Y-75177561D01*
X99794851Y-75165260D01*
X99834761Y-75150128D01*
X99880311Y-75142532D01*
X99934708Y-75141762D01*
X99950474Y-75142629D01*
G37*
G36*
X111151939Y-75141288D02*
G01*
X111200435Y-75148774D01*
X111241685Y-75163092D01*
X111253240Y-75169145D01*
X111297615Y-75201309D01*
X111332787Y-75242183D01*
X111357763Y-75289984D01*
X111371551Y-75342931D01*
X111373160Y-75399240D01*
X111371710Y-75412726D01*
X111360198Y-75461255D01*
X111338791Y-75504452D01*
X111306785Y-75543037D01*
X111263480Y-75577728D01*
X111208175Y-75609246D01*
X111140169Y-75638309D01*
X111099734Y-75654505D01*
X111053153Y-75677160D01*
X111018135Y-75700588D01*
X110993574Y-75726023D01*
X110978366Y-75754700D01*
X110971404Y-75787854D01*
X110971584Y-75826722D01*
X110973666Y-75844760D01*
X110984377Y-75883657D01*
X111003456Y-75912810D01*
X111031668Y-75932852D01*
X111069777Y-75944414D01*
X111118547Y-75948128D01*
X111148675Y-75947532D01*
X111170758Y-75945105D01*
X111188374Y-75939967D01*
X111206090Y-75931235D01*
X111209877Y-75929037D01*
X111243571Y-75901131D01*
X111267997Y-75863747D01*
X111282610Y-75817694D01*
X111290567Y-75775822D01*
X111344017Y-75775822D01*
X111397466Y-75775822D01*
X111393826Y-75815968D01*
X111391751Y-75832646D01*
X111376726Y-75886221D01*
X111350015Y-75934028D01*
X111312416Y-75975131D01*
X111264730Y-76008594D01*
X111207757Y-76033483D01*
X111190409Y-76038538D01*
X111166669Y-76042742D01*
X111138593Y-76044272D01*
X111101655Y-76043559D01*
X111099866Y-76043486D01*
X111052675Y-76039911D01*
X111015160Y-76032660D01*
X110983791Y-76020364D01*
X110955037Y-76001653D01*
X110925370Y-75975157D01*
X110912527Y-75961901D01*
X110886966Y-75929030D01*
X110870600Y-75894572D01*
X110862004Y-75854860D01*
X110859753Y-75806229D01*
X110861049Y-75777662D01*
X110870065Y-75726935D01*
X110888354Y-75682663D01*
X110916749Y-75643833D01*
X110956084Y-75609434D01*
X111007193Y-75578452D01*
X111070911Y-75549875D01*
X111098187Y-75538901D01*
X111148866Y-75516637D01*
X111188260Y-75495778D01*
X111217639Y-75475119D01*
X111238275Y-75453456D01*
X111251441Y-75429584D01*
X111258407Y-75402298D01*
X111260447Y-75370395D01*
X111260044Y-75357143D01*
X111251907Y-75314354D01*
X111233619Y-75280361D01*
X111205600Y-75255574D01*
X111168269Y-75240401D01*
X111122044Y-75235252D01*
X111100017Y-75236218D01*
X111074112Y-75239576D01*
X111055417Y-75244509D01*
X111037397Y-75254673D01*
X111011042Y-75279704D01*
X110989593Y-75312437D01*
X110975169Y-75349346D01*
X110969891Y-75386901D01*
X110969441Y-75395088D01*
X110966287Y-75400310D01*
X110957726Y-75403013D01*
X110941056Y-75404027D01*
X110913574Y-75404180D01*
X110857257Y-75404180D01*
X110862926Y-75362725D01*
X110863215Y-75360667D01*
X110877413Y-75304513D01*
X110902258Y-75254123D01*
X110936446Y-75211150D01*
X110978671Y-75177247D01*
X111027629Y-75154066D01*
X111051304Y-75147577D01*
X111100720Y-75140825D01*
X111151939Y-75141288D01*
G37*
G36*
X106717708Y-75143596D02*
G01*
X106757361Y-75149813D01*
X106788720Y-75159552D01*
X106800626Y-75165310D01*
X106844177Y-75195191D01*
X106879599Y-75234053D01*
X106905884Y-75279766D01*
X106922025Y-75330202D01*
X106927015Y-75383233D01*
X106919847Y-75436728D01*
X106907260Y-75474158D01*
X106884798Y-75514369D01*
X106853373Y-75549877D01*
X106811853Y-75581695D01*
X106759102Y-75610835D01*
X106693986Y-75638309D01*
X106661795Y-75650969D01*
X106614372Y-75672787D01*
X106578386Y-75694826D01*
X106552582Y-75718355D01*
X106535704Y-75744645D01*
X106526498Y-75774964D01*
X106523708Y-75810583D01*
X106524094Y-75823763D01*
X106532236Y-75867559D01*
X106550844Y-75903067D01*
X106579780Y-75929992D01*
X106588006Y-75935217D01*
X106601842Y-75942090D01*
X106617208Y-75945988D01*
X106638094Y-75947729D01*
X106668493Y-75948128D01*
X106684994Y-75948041D01*
X106710639Y-75947004D01*
X106729172Y-75944092D01*
X106744880Y-75938438D01*
X106762048Y-75929173D01*
X106767280Y-75925976D01*
X106799756Y-75898382D01*
X106822357Y-75862623D01*
X106835948Y-75817390D01*
X106843678Y-75775822D01*
X106896542Y-75775822D01*
X106949407Y-75775822D01*
X106949407Y-75798760D01*
X106949245Y-75804273D01*
X106943799Y-75837310D01*
X106932026Y-75874545D01*
X106915839Y-75910777D01*
X106897150Y-75940806D01*
X106865905Y-75974519D01*
X106818765Y-76008469D01*
X106764586Y-76032179D01*
X106717317Y-76042640D01*
X106661443Y-76045701D01*
X106605610Y-76040156D01*
X106553574Y-76026407D01*
X106509090Y-76004855D01*
X106497849Y-75997171D01*
X106460638Y-75962315D01*
X106434182Y-75919649D01*
X106418325Y-75868852D01*
X106412909Y-75809607D01*
X106414968Y-75765308D01*
X106423866Y-75721100D01*
X106440771Y-75683165D01*
X106466732Y-75648353D01*
X106470284Y-75644457D01*
X106499765Y-75616372D01*
X106533314Y-75592419D01*
X106574044Y-75570648D01*
X106625065Y-75549106D01*
X106625956Y-75548762D01*
X106675969Y-75528669D01*
X106714906Y-75511005D01*
X106744673Y-75494576D01*
X106767179Y-75478187D01*
X106784329Y-75460644D01*
X106798032Y-75440751D01*
X106808200Y-75416940D01*
X106814206Y-75379467D01*
X106811544Y-75340175D01*
X106800639Y-75303438D01*
X106781910Y-75273634D01*
X106776261Y-75267989D01*
X106747407Y-75249587D01*
X106711359Y-75238225D01*
X106671851Y-75234365D01*
X106632623Y-75238464D01*
X106597410Y-75250981D01*
X106584369Y-75259010D01*
X106555898Y-75286930D01*
X106535857Y-75323424D01*
X106525750Y-75366076D01*
X106521818Y-75404180D01*
X106464913Y-75404180D01*
X106408009Y-75404180D01*
X106412591Y-75372084D01*
X106413867Y-75363832D01*
X106429831Y-75303663D01*
X106456015Y-75251451D01*
X106491790Y-75207983D01*
X106536532Y-75174042D01*
X106589612Y-75150415D01*
X106597089Y-75148290D01*
X106632761Y-75142614D01*
X106674571Y-75141123D01*
X106717708Y-75143596D01*
G37*
G36*
X115311312Y-75141847D02*
G01*
X115315744Y-75142048D01*
X115347527Y-75144289D01*
X115371680Y-75148307D01*
X115393472Y-75155320D01*
X115418166Y-75166544D01*
X115458334Y-75191193D01*
X115495859Y-75227866D01*
X115525441Y-75274875D01*
X115529311Y-75283091D01*
X115535277Y-75299575D01*
X115538835Y-75318229D01*
X115540560Y-75342830D01*
X115541027Y-75377152D01*
X115539839Y-75416206D01*
X115534442Y-75453854D01*
X115523417Y-75485077D01*
X115505392Y-75513538D01*
X115478998Y-75542903D01*
X115475429Y-75546430D01*
X115452705Y-75566717D01*
X115428001Y-75584375D01*
X115398564Y-75600986D01*
X115361638Y-75618133D01*
X115314469Y-75637398D01*
X115313857Y-75637638D01*
X115260554Y-75659912D01*
X115219127Y-75680820D01*
X115188235Y-75701737D01*
X115166538Y-75724038D01*
X115152695Y-75749096D01*
X115145365Y-75778287D01*
X115143208Y-75812986D01*
X115143833Y-75829812D01*
X115152631Y-75872640D01*
X115171523Y-75906591D01*
X115200133Y-75931299D01*
X115238084Y-75946393D01*
X115284998Y-75951507D01*
X115288172Y-75951492D01*
X115332977Y-75947253D01*
X115370015Y-75934668D01*
X115402787Y-75912579D01*
X115410840Y-75905412D01*
X115433119Y-75880062D01*
X115446953Y-75851596D01*
X115455030Y-75814991D01*
X115460181Y-75779200D01*
X115514145Y-75779200D01*
X115568108Y-75779200D01*
X115565986Y-75812202D01*
X115559786Y-75851385D01*
X115540800Y-75901019D01*
X115510834Y-75945991D01*
X115471259Y-75984737D01*
X115423449Y-76015690D01*
X115368773Y-76037286D01*
X115363413Y-76038668D01*
X115329208Y-76043446D01*
X115288021Y-76044370D01*
X115244778Y-76041705D01*
X115204403Y-76035716D01*
X115171823Y-76026669D01*
X115133602Y-76007883D01*
X115092597Y-75975315D01*
X115061703Y-75934126D01*
X115041419Y-75885024D01*
X115032243Y-75828716D01*
X115032850Y-75773976D01*
X115042410Y-75723823D01*
X115061793Y-75679780D01*
X115091723Y-75640918D01*
X115132921Y-75606308D01*
X115186108Y-75575022D01*
X115252008Y-75546131D01*
X115285780Y-75532656D01*
X115326894Y-75514339D01*
X115358464Y-75497218D01*
X115382637Y-75480082D01*
X115401563Y-75461718D01*
X115420909Y-75432576D01*
X115432970Y-75394795D01*
X115434310Y-75355337D01*
X115425265Y-75317052D01*
X115406168Y-75282792D01*
X115377355Y-75255408D01*
X115361145Y-75246826D01*
X115327552Y-75237731D01*
X115289667Y-75235127D01*
X115252286Y-75239177D01*
X115220207Y-75250046D01*
X115213534Y-75253723D01*
X115181562Y-75280196D01*
X115158591Y-75316462D01*
X115145005Y-75361948D01*
X115137588Y-75404180D01*
X115083311Y-75404180D01*
X115029035Y-75404180D01*
X115033214Y-75368901D01*
X115035640Y-75352407D01*
X115051771Y-75295979D01*
X115078537Y-75246192D01*
X115114855Y-75204375D01*
X115159640Y-75171857D01*
X115211809Y-75149966D01*
X115231599Y-75145314D01*
X115266998Y-75141562D01*
X115311312Y-75141847D01*
G37*
G36*
X102700760Y-72838165D02*
G01*
X102700824Y-72858176D01*
X102701172Y-72965923D01*
X102701502Y-73061147D01*
X102701833Y-73144694D01*
X102702186Y-73217410D01*
X102702581Y-73280140D01*
X102703036Y-73333728D01*
X102703573Y-73379021D01*
X102704211Y-73416865D01*
X102704970Y-73448103D01*
X102705870Y-73473582D01*
X102706930Y-73494147D01*
X102708171Y-73510643D01*
X102709613Y-73523915D01*
X102711275Y-73534810D01*
X102713177Y-73544172D01*
X102715339Y-73552847D01*
X102717782Y-73561680D01*
X102730506Y-73601488D01*
X102751178Y-73647667D01*
X102778093Y-73688583D01*
X102813961Y-73728951D01*
X102819330Y-73734275D01*
X102868775Y-73774695D01*
X102924725Y-73805340D01*
X102989737Y-73827646D01*
X103012937Y-73832376D01*
X103053631Y-73837056D01*
X103100668Y-73839554D01*
X103150114Y-73839869D01*
X103198030Y-73838001D01*
X103240483Y-73833948D01*
X103273535Y-73827710D01*
X103313993Y-73814882D01*
X103379435Y-73784463D01*
X103435238Y-73744746D01*
X103481212Y-73695876D01*
X103517168Y-73638003D01*
X103518799Y-73634715D01*
X103525964Y-73620180D01*
X103532320Y-73606568D01*
X103537919Y-73593030D01*
X103542807Y-73578715D01*
X103547033Y-73562775D01*
X103550647Y-73544361D01*
X103553695Y-73522623D01*
X103556228Y-73496712D01*
X103558293Y-73465780D01*
X103559940Y-73428976D01*
X103561216Y-73385451D01*
X103562170Y-73334357D01*
X103562851Y-73274844D01*
X103563307Y-73206063D01*
X103563587Y-73127164D01*
X103563740Y-73037299D01*
X103563813Y-72935618D01*
X103563856Y-72821273D01*
X103564091Y-72167522D01*
X103685719Y-72167522D01*
X103807348Y-72167522D01*
X103807348Y-72828834D01*
X103807344Y-72921788D01*
X103807308Y-73025428D01*
X103807200Y-73117129D01*
X103806982Y-73197765D01*
X103806615Y-73268207D01*
X103806059Y-73329328D01*
X103805276Y-73382000D01*
X103804227Y-73427095D01*
X103802873Y-73465486D01*
X103801175Y-73498044D01*
X103799094Y-73525642D01*
X103796590Y-73549152D01*
X103793626Y-73569447D01*
X103790162Y-73587399D01*
X103786159Y-73603879D01*
X103781577Y-73619760D01*
X103776380Y-73635915D01*
X103770526Y-73653215D01*
X103761277Y-73678362D01*
X103724359Y-73754024D01*
X103676762Y-73821839D01*
X103619017Y-73881386D01*
X103551655Y-73932243D01*
X103475209Y-73973988D01*
X103390208Y-74006202D01*
X103297185Y-74028462D01*
X103288035Y-74029951D01*
X103243941Y-74034742D01*
X103191640Y-74037546D01*
X103135272Y-74038360D01*
X103078977Y-74037178D01*
X103026895Y-74033995D01*
X102983165Y-74028808D01*
X102961959Y-74025084D01*
X102869431Y-74001602D01*
X102784390Y-73967757D01*
X102707511Y-73923920D01*
X102639469Y-73870462D01*
X102580941Y-73807755D01*
X102541651Y-73751986D01*
X102506410Y-73684922D01*
X102477960Y-73608736D01*
X102459361Y-73549352D01*
X102457430Y-72858437D01*
X102455499Y-72167522D01*
X102577063Y-72167522D01*
X102698627Y-72167522D01*
X102700760Y-72838165D01*
G37*
G36*
X101900188Y-75144146D02*
G01*
X101926779Y-75144902D01*
X101946374Y-75146892D01*
X101962438Y-75150711D01*
X101978435Y-75156948D01*
X101997831Y-75166199D01*
X102027424Y-75183409D01*
X102071669Y-75221198D01*
X102108356Y-75269112D01*
X102136668Y-75325989D01*
X102155786Y-75390666D01*
X102157852Y-75401439D01*
X102160747Y-75421787D01*
X102162780Y-75445724D01*
X102164022Y-75475234D01*
X102164542Y-75512300D01*
X102164408Y-75558904D01*
X102163690Y-75617029D01*
X102162825Y-75668957D01*
X102161852Y-75712189D01*
X102160657Y-75745730D01*
X102159080Y-75771539D01*
X102156960Y-75791575D01*
X102154137Y-75807798D01*
X102150452Y-75822165D01*
X102145744Y-75836636D01*
X102130455Y-75875339D01*
X102098932Y-75932291D01*
X102060332Y-75977960D01*
X102014360Y-76012665D01*
X101960722Y-76036725D01*
X101946404Y-76040294D01*
X101911927Y-76044090D01*
X101871305Y-76044287D01*
X101828957Y-76041124D01*
X101789306Y-76034841D01*
X101756772Y-76025677D01*
X101726885Y-76010691D01*
X101689213Y-75982240D01*
X101656536Y-75947115D01*
X101632863Y-75909090D01*
X101627534Y-75896647D01*
X101616616Y-75865282D01*
X101607152Y-75831011D01*
X101600463Y-75798929D01*
X101597870Y-75774132D01*
X101597771Y-75755550D01*
X101651699Y-75755550D01*
X101666890Y-75755485D01*
X101688021Y-75755968D01*
X101700637Y-75759400D01*
X101707609Y-75768341D01*
X101711805Y-75785350D01*
X101716095Y-75812986D01*
X101716725Y-75816702D01*
X101725341Y-75848233D01*
X101738672Y-75879210D01*
X101754574Y-75905349D01*
X101770899Y-75922367D01*
X101794396Y-75935751D01*
X101835386Y-75948685D01*
X101878711Y-75952027D01*
X101921200Y-75946001D01*
X101959684Y-75930833D01*
X101990991Y-75906748D01*
X101997434Y-75899499D01*
X102015961Y-75873016D01*
X102030663Y-75841364D01*
X102041794Y-75803184D01*
X102049606Y-75757120D01*
X102054348Y-75701813D01*
X102056275Y-75635907D01*
X102055636Y-75558043D01*
X102055054Y-75532922D01*
X102053718Y-75488132D01*
X102052079Y-75453483D01*
X102049923Y-75426679D01*
X102047038Y-75405422D01*
X102043210Y-75387416D01*
X102038226Y-75370364D01*
X102019903Y-75326167D01*
X101992475Y-75286191D01*
X101958160Y-75257798D01*
X101916845Y-75240898D01*
X101868418Y-75235401D01*
X101858562Y-75235623D01*
X101812766Y-75242830D01*
X101775727Y-75260277D01*
X101747321Y-75288079D01*
X101727422Y-75326350D01*
X101715905Y-75375204D01*
X101714707Y-75384115D01*
X101710996Y-75408030D01*
X101705815Y-75422086D01*
X101696156Y-75428895D01*
X101679011Y-75431065D01*
X101651372Y-75431209D01*
X101597771Y-75431209D01*
X101597870Y-75409248D01*
X101597966Y-75405165D01*
X101601838Y-75373845D01*
X101610298Y-75336969D01*
X101621880Y-75300069D01*
X101635117Y-75268678D01*
X101661137Y-75228694D01*
X101699777Y-75190396D01*
X101745427Y-75161924D01*
X101753656Y-75158153D01*
X101769843Y-75151754D01*
X101786007Y-75147636D01*
X101805532Y-75145305D01*
X101831801Y-75144267D01*
X101868197Y-75144031D01*
X101900188Y-75144146D01*
G37*
G36*
X102442410Y-70349857D02*
G01*
X102442410Y-71539110D01*
X102202532Y-71539110D01*
X101962655Y-71539110D01*
X101962655Y-71103120D01*
X101962655Y-70667130D01*
X101843798Y-70668975D01*
X101724942Y-70670820D01*
X101546903Y-71103276D01*
X101368864Y-71535731D01*
X101107545Y-71537501D01*
X100846225Y-71539270D01*
X100850320Y-71522955D01*
X100850547Y-71522215D01*
X100854791Y-71511250D01*
X100863874Y-71489045D01*
X100877380Y-71456590D01*
X100894892Y-71414870D01*
X100915991Y-71364873D01*
X100940262Y-71307585D01*
X100967286Y-71243994D01*
X100996647Y-71175085D01*
X101027927Y-71101847D01*
X101060709Y-71025266D01*
X101068251Y-71007664D01*
X101100514Y-70932276D01*
X101131052Y-70860774D01*
X101159466Y-70794105D01*
X101185353Y-70733218D01*
X101208312Y-70679060D01*
X101227943Y-70632579D01*
X101243843Y-70594723D01*
X101255611Y-70566440D01*
X101262847Y-70548678D01*
X101265149Y-70542384D01*
X101262118Y-70540376D01*
X101250260Y-70532903D01*
X101232886Y-70522128D01*
X101170654Y-70478180D01*
X101105186Y-70416888D01*
X101049132Y-70346086D01*
X101002950Y-70266283D01*
X100985774Y-70228103D01*
X100956592Y-70143519D01*
X100936244Y-70053719D01*
X100924653Y-69960698D01*
X100923543Y-69924754D01*
X101405470Y-69924754D01*
X101406549Y-69969769D01*
X101409525Y-70009150D01*
X101414449Y-70039030D01*
X101418663Y-70054816D01*
X101441895Y-70116594D01*
X101473165Y-70168513D01*
X101511982Y-70210019D01*
X101557853Y-70240559D01*
X101610288Y-70259579D01*
X101618796Y-70261252D01*
X101647020Y-70264494D01*
X101687218Y-70266795D01*
X101739894Y-70268178D01*
X101805552Y-70268666D01*
X101962655Y-70268772D01*
X101962655Y-69913533D01*
X101962655Y-69558294D01*
X101781902Y-69560474D01*
X101734445Y-69561066D01*
X101690492Y-69561754D01*
X101656641Y-69562604D01*
X101631063Y-69563783D01*
X101611925Y-69565457D01*
X101597399Y-69567794D01*
X101585652Y-69570963D01*
X101574854Y-69575128D01*
X101563174Y-69580459D01*
X101552510Y-69585738D01*
X101506439Y-69616641D01*
X101469046Y-69656983D01*
X101439799Y-69707455D01*
X101418167Y-69768745D01*
X101413074Y-69794550D01*
X101408785Y-69833279D01*
X101406233Y-69877969D01*
X101405470Y-69924754D01*
X100923543Y-69924754D01*
X100921742Y-69866448D01*
X100927433Y-69772963D01*
X100941650Y-69682234D01*
X100964315Y-69596256D01*
X100995352Y-69517021D01*
X101034682Y-69446523D01*
X101038353Y-69441077D01*
X101084310Y-69383206D01*
X101139613Y-69328743D01*
X101200521Y-69281012D01*
X101263293Y-69243338D01*
X101279025Y-69235867D01*
X101325360Y-69217375D01*
X101378775Y-69199915D01*
X101434714Y-69184893D01*
X101488624Y-69173718D01*
X101499665Y-69171890D01*
X101515929Y-69169496D01*
X101533036Y-69167465D01*
X101552136Y-69165765D01*
X101574384Y-69164370D01*
X101600929Y-69163248D01*
X101632925Y-69162371D01*
X101671524Y-69161709D01*
X101717876Y-69161233D01*
X101773135Y-69160914D01*
X101838452Y-69160723D01*
X101914980Y-69160629D01*
X102003869Y-69160605D01*
X102442410Y-69160605D01*
X102442410Y-69913533D01*
X102442410Y-70349857D01*
G37*
G36*
X105716567Y-70015380D02*
G01*
X105724339Y-70045247D01*
X105751346Y-70148890D01*
X105777390Y-70248644D01*
X105802269Y-70343741D01*
X105825781Y-70433417D01*
X105847724Y-70516906D01*
X105867895Y-70593441D01*
X105886091Y-70662256D01*
X105902110Y-70722585D01*
X105915750Y-70773663D01*
X105926808Y-70814723D01*
X105935081Y-70844999D01*
X105940368Y-70863725D01*
X105942466Y-70870136D01*
X105942725Y-70869614D01*
X105945753Y-70859635D01*
X105951921Y-70837560D01*
X105961026Y-70804153D01*
X105972865Y-70760182D01*
X105987235Y-70706411D01*
X106003933Y-70643607D01*
X106022756Y-70572536D01*
X106043502Y-70493964D01*
X106065967Y-70408655D01*
X106089948Y-70317377D01*
X106115242Y-70220895D01*
X106141647Y-70119975D01*
X106168960Y-70015383D01*
X106391945Y-69160649D01*
X106707840Y-69160627D01*
X107023735Y-69160605D01*
X107023735Y-70349857D01*
X107023735Y-71539110D01*
X106780479Y-71539110D01*
X106537223Y-71539110D01*
X106537223Y-71245967D01*
X106537225Y-71240944D01*
X106537666Y-71174156D01*
X106538819Y-71095800D01*
X106540621Y-71007653D01*
X106543013Y-70911489D01*
X106545932Y-70809084D01*
X106549317Y-70702213D01*
X106553108Y-70592653D01*
X106557243Y-70482177D01*
X106561660Y-70372562D01*
X106566299Y-70265583D01*
X106571099Y-70163015D01*
X106575998Y-70066634D01*
X106580934Y-69978216D01*
X106581766Y-69960859D01*
X106582057Y-69938789D01*
X106581121Y-69925828D01*
X106579037Y-69924159D01*
X106576893Y-69930484D01*
X106571151Y-69949142D01*
X106562097Y-69979271D01*
X106549967Y-70020078D01*
X106534991Y-70070768D01*
X106517404Y-70130545D01*
X106497439Y-70198615D01*
X106475328Y-70274183D01*
X106451305Y-70356455D01*
X106425603Y-70444634D01*
X106398455Y-70537927D01*
X106370094Y-70635538D01*
X106340754Y-70736672D01*
X106108146Y-71539050D01*
X105944557Y-71539080D01*
X105780969Y-71539110D01*
X105768100Y-71496878D01*
X105766630Y-71491964D01*
X105761156Y-71473368D01*
X105752304Y-71443120D01*
X105740324Y-71402079D01*
X105725466Y-71351105D01*
X105707980Y-71291058D01*
X105688117Y-71222797D01*
X105666127Y-71147183D01*
X105642259Y-71065074D01*
X105616764Y-70977331D01*
X105589892Y-70884814D01*
X105561894Y-70788382D01*
X105533018Y-70688894D01*
X105531803Y-70684705D01*
X105496100Y-70561837D01*
X105463951Y-70451541D01*
X105435230Y-70353402D01*
X105409812Y-70267002D01*
X105387569Y-70191926D01*
X105368375Y-70127756D01*
X105352106Y-70074078D01*
X105338633Y-70030473D01*
X105327832Y-69996526D01*
X105319575Y-69971821D01*
X105313737Y-69955941D01*
X105310192Y-69948469D01*
X105308814Y-69948990D01*
X105308719Y-69952802D01*
X105308972Y-69970046D01*
X105309788Y-69999023D01*
X105311120Y-70038551D01*
X105312922Y-70087445D01*
X105315150Y-70144522D01*
X105317756Y-70208598D01*
X105320697Y-70278489D01*
X105323925Y-70353011D01*
X105327396Y-70430980D01*
X105329705Y-70482679D01*
X105334133Y-70585622D01*
X105337832Y-70678174D01*
X105340856Y-70762455D01*
X105343262Y-70840584D01*
X105345106Y-70914679D01*
X105346442Y-70986861D01*
X105347328Y-71059248D01*
X105347819Y-71133960D01*
X105347970Y-71213116D01*
X105347970Y-71539110D01*
X105108092Y-71539110D01*
X104868215Y-71539110D01*
X104868215Y-70349857D01*
X104868215Y-69160605D01*
X105181195Y-69160605D01*
X105494175Y-69160605D01*
X105716567Y-70015380D01*
G37*
G36*
X101273429Y-73092848D02*
G01*
X101273429Y-74018971D01*
X101151801Y-74018971D01*
X101030173Y-74018971D01*
X101030173Y-73643952D01*
X101030173Y-73268932D01*
X100808757Y-73268932D01*
X100587342Y-73268932D01*
X100388866Y-73635505D01*
X100385267Y-73642152D01*
X100350141Y-73706957D01*
X100316864Y-73768231D01*
X100286010Y-73824930D01*
X100258150Y-73876009D01*
X100233855Y-73920423D01*
X100213696Y-73957127D01*
X100198246Y-73985075D01*
X100188075Y-74003223D01*
X100183756Y-74010525D01*
X100181667Y-74011735D01*
X100168247Y-74014319D01*
X100145077Y-74016388D01*
X100114741Y-74017926D01*
X100079820Y-74018913D01*
X100042900Y-74019334D01*
X100006561Y-74019170D01*
X99973388Y-74018404D01*
X99945963Y-74017018D01*
X99926870Y-74014995D01*
X99918691Y-74012318D01*
X99919094Y-74010448D01*
X99924586Y-73998307D01*
X99935932Y-73975852D01*
X99952599Y-73944068D01*
X99974054Y-73903942D01*
X99999766Y-73856460D01*
X100029201Y-73802608D01*
X100061827Y-73743372D01*
X100097111Y-73679739D01*
X100134520Y-73612694D01*
X100152785Y-73580055D01*
X100189333Y-73514706D01*
X100223610Y-73453371D01*
X100255075Y-73397021D01*
X100283186Y-73346629D01*
X100307400Y-73303165D01*
X100327177Y-73267603D01*
X100341973Y-73240915D01*
X100351249Y-73224073D01*
X100354461Y-73218049D01*
X100353765Y-73217441D01*
X100344586Y-73212369D01*
X100326989Y-73203515D01*
X100303822Y-73192327D01*
X100232147Y-73152412D01*
X100165338Y-73101544D01*
X100109377Y-73042949D01*
X100064580Y-72977198D01*
X100031267Y-72904861D01*
X100009756Y-72826508D01*
X100000365Y-72742709D01*
X100000545Y-72737461D01*
X100247591Y-72737461D01*
X100256290Y-72804585D01*
X100257462Y-72809872D01*
X100277702Y-72868370D01*
X100309444Y-72921409D01*
X100351454Y-72967843D01*
X100402500Y-73006525D01*
X100461348Y-73036311D01*
X100526768Y-73056053D01*
X100543736Y-73058924D01*
X100566120Y-73061302D01*
X100594870Y-73063138D01*
X100631417Y-73064483D01*
X100677188Y-73065391D01*
X100733613Y-73065913D01*
X100802120Y-73066101D01*
X101030173Y-73066218D01*
X101030173Y-72714257D01*
X101030173Y-72362296D01*
X100791984Y-72365117D01*
X100780910Y-72365249D01*
X100718650Y-72366066D01*
X100668015Y-72366925D01*
X100627373Y-72367921D01*
X100595095Y-72369151D01*
X100569549Y-72370710D01*
X100549104Y-72372695D01*
X100532131Y-72375200D01*
X100516999Y-72378323D01*
X100502076Y-72382158D01*
X100474453Y-72390406D01*
X100425987Y-72409510D01*
X100384435Y-72433605D01*
X100345431Y-72465000D01*
X100313817Y-72499915D01*
X100283171Y-72550607D01*
X100261563Y-72608445D01*
X100249526Y-72671406D01*
X100247591Y-72737461D01*
X100000545Y-72737461D01*
X100003412Y-72654034D01*
X100005646Y-72634253D01*
X100018277Y-72560695D01*
X100037396Y-72496566D01*
X100064101Y-72439397D01*
X100099489Y-72386718D01*
X100144657Y-72336060D01*
X100165144Y-72316445D01*
X100209235Y-72280440D01*
X100256842Y-72250404D01*
X100310458Y-72225075D01*
X100372575Y-72203189D01*
X100445682Y-72183484D01*
X100446030Y-72183401D01*
X100457838Y-72180948D01*
X100471836Y-72178840D01*
X100489156Y-72177043D01*
X100510931Y-72175518D01*
X100538293Y-72174230D01*
X100572373Y-72173142D01*
X100614306Y-72172218D01*
X100665223Y-72171422D01*
X100726257Y-72170718D01*
X100798541Y-72170068D01*
X100883206Y-72169436D01*
X101273429Y-72166724D01*
X101273429Y-72714257D01*
X101273429Y-73092848D01*
G37*
G36*
X94773083Y-70349791D02*
G01*
X94773083Y-71539110D01*
X94533206Y-71539110D01*
X94293328Y-71539110D01*
X94293328Y-71179186D01*
X94293441Y-71096503D01*
X94293827Y-71018482D01*
X94294544Y-70945085D01*
X94295648Y-70874048D01*
X94297196Y-70803106D01*
X94299244Y-70729994D01*
X94301850Y-70652448D01*
X94305070Y-70568205D01*
X94308961Y-70474998D01*
X94313580Y-70370565D01*
X94315209Y-70334308D01*
X94318520Y-70259526D01*
X94321564Y-70189319D01*
X94324296Y-70124802D01*
X94326672Y-70067091D01*
X94328647Y-70017302D01*
X94330175Y-69976550D01*
X94331213Y-69945951D01*
X94331716Y-69926621D01*
X94331639Y-69919675D01*
X94329554Y-69925645D01*
X94323929Y-69943824D01*
X94314997Y-69973440D01*
X94302983Y-70013721D01*
X94288116Y-70063890D01*
X94270624Y-70123174D01*
X94250735Y-70190797D01*
X94228676Y-70265986D01*
X94204676Y-70347965D01*
X94178961Y-70435960D01*
X94151761Y-70529197D01*
X94123302Y-70626900D01*
X94093812Y-70728296D01*
X93858178Y-71539110D01*
X93694484Y-71539110D01*
X93530790Y-71539110D01*
X93520337Y-71503635D01*
X93518765Y-71498267D01*
X93513330Y-71479629D01*
X93504523Y-71449385D01*
X93492589Y-71408379D01*
X93477774Y-71357457D01*
X93460323Y-71297463D01*
X93440483Y-71229242D01*
X93418499Y-71153640D01*
X93394616Y-71071500D01*
X93369081Y-70983668D01*
X93342140Y-70890990D01*
X93314037Y-70794309D01*
X93285019Y-70694470D01*
X93264374Y-70623537D01*
X93236348Y-70527573D01*
X93209521Y-70436090D01*
X93184124Y-70349861D01*
X93160390Y-70269659D01*
X93138550Y-70196257D01*
X93118836Y-70130427D01*
X93101479Y-70072944D01*
X93086712Y-70024580D01*
X93074765Y-69986107D01*
X93065872Y-69958300D01*
X93060262Y-69941931D01*
X93058170Y-69937773D01*
X93058074Y-69941014D01*
X93058339Y-69956970D01*
X93059162Y-69984680D01*
X93060498Y-70022992D01*
X93062302Y-70070749D01*
X93064528Y-70126797D01*
X93067132Y-70189982D01*
X93070067Y-70259148D01*
X93073289Y-70333142D01*
X93076752Y-70410808D01*
X93080090Y-70485877D01*
X93084301Y-70584946D01*
X93087807Y-70674152D01*
X93090665Y-70755646D01*
X93092931Y-70831575D01*
X93094659Y-70904090D01*
X93095906Y-70975339D01*
X93096728Y-71047471D01*
X93097180Y-71122635D01*
X93097318Y-71202981D01*
X93097318Y-71539110D01*
X92857441Y-71539110D01*
X92617563Y-71539110D01*
X92617563Y-70349857D01*
X92617563Y-69160605D01*
X92930880Y-69160605D01*
X93244196Y-69160605D01*
X93264250Y-69236622D01*
X93266161Y-69243898D01*
X93272190Y-69266968D01*
X93281249Y-69301718D01*
X93293102Y-69347237D01*
X93307512Y-69402614D01*
X93324241Y-69466941D01*
X93343054Y-69539306D01*
X93363714Y-69618799D01*
X93385985Y-69704509D01*
X93409628Y-69795527D01*
X93434409Y-69890942D01*
X93460090Y-69989843D01*
X93486434Y-70091321D01*
X93504053Y-70159141D01*
X93529396Y-70256492D01*
X93553691Y-70349591D01*
X93576727Y-70437636D01*
X93598291Y-70519822D01*
X93618172Y-70595347D01*
X93636156Y-70663409D01*
X93652032Y-70723204D01*
X93665587Y-70773930D01*
X93676609Y-70814783D01*
X93684885Y-70844961D01*
X93690204Y-70863660D01*
X93692353Y-70870079D01*
X93692604Y-70869604D01*
X93695628Y-70859793D01*
X93701796Y-70837876D01*
X93710903Y-70804621D01*
X93722747Y-70760794D01*
X93737124Y-70707161D01*
X93753830Y-70644489D01*
X93772662Y-70573544D01*
X93793416Y-70495093D01*
X93815889Y-70409902D01*
X93839876Y-70318738D01*
X93865175Y-70222367D01*
X93891583Y-70121555D01*
X93918894Y-70017069D01*
X94141649Y-69163983D01*
X94457366Y-69162227D01*
X94773083Y-69160471D01*
X94773083Y-70349791D01*
G37*
G36*
X104359880Y-70759074D02*
G01*
X104393097Y-70865479D01*
X104424573Y-70966291D01*
X104454098Y-71060844D01*
X104481467Y-71148476D01*
X104506470Y-71228520D01*
X104528902Y-71300314D01*
X104548553Y-71363193D01*
X104565218Y-71416492D01*
X104578687Y-71459548D01*
X104588755Y-71491695D01*
X104595212Y-71512270D01*
X104597853Y-71520609D01*
X104604041Y-71539272D01*
X104349541Y-71537501D01*
X104095041Y-71535731D01*
X104042834Y-71336396D01*
X104039220Y-71322599D01*
X104025661Y-71270876D01*
X104012807Y-71221899D01*
X104001202Y-71177734D01*
X103991388Y-71140446D01*
X103983908Y-71112101D01*
X103979305Y-71094766D01*
X103967983Y-71052470D01*
X103639422Y-71054223D01*
X103310861Y-71055976D01*
X103265611Y-71228282D01*
X103256396Y-71263368D01*
X103243016Y-71314312D01*
X103230178Y-71363181D01*
X103218607Y-71407227D01*
X103209023Y-71443699D01*
X103202149Y-71469849D01*
X103183938Y-71539110D01*
X102927322Y-71539110D01*
X102917696Y-71539108D01*
X102851274Y-71538998D01*
X102797193Y-71538687D01*
X102754416Y-71538140D01*
X102721904Y-71537323D01*
X102698621Y-71536201D01*
X102683530Y-71534741D01*
X102675593Y-71532906D01*
X102673773Y-71530663D01*
X102675017Y-71526801D01*
X102680091Y-71510786D01*
X102688868Y-71482980D01*
X102701146Y-71444027D01*
X102716722Y-71394571D01*
X102735394Y-71335255D01*
X102756960Y-71266724D01*
X102781215Y-71189621D01*
X102807960Y-71104591D01*
X102836989Y-71012276D01*
X102868102Y-70913321D01*
X102901096Y-70808370D01*
X102935768Y-70698066D01*
X102952736Y-70644078D01*
X103422192Y-70644078D01*
X103422345Y-70645035D01*
X103425108Y-70647593D01*
X103432334Y-70649622D01*
X103445314Y-70651179D01*
X103465342Y-70652323D01*
X103493712Y-70653112D01*
X103531715Y-70653604D01*
X103580646Y-70653856D01*
X103641798Y-70653928D01*
X103675278Y-70653861D01*
X103725538Y-70653496D01*
X103770219Y-70652847D01*
X103807732Y-70651957D01*
X103836492Y-70650866D01*
X103854912Y-70649614D01*
X103861405Y-70648244D01*
X103861064Y-70646436D01*
X103857972Y-70633600D01*
X103851950Y-70609700D01*
X103843346Y-70576078D01*
X103832515Y-70534077D01*
X103819807Y-70485036D01*
X103805573Y-70430297D01*
X103790166Y-70371201D01*
X103773937Y-70309091D01*
X103757239Y-70245306D01*
X103740421Y-70181188D01*
X103723837Y-70118079D01*
X103707837Y-70057320D01*
X103692774Y-70000252D01*
X103679000Y-69948216D01*
X103666865Y-69902554D01*
X103656721Y-69864607D01*
X103648920Y-69835716D01*
X103643815Y-69817223D01*
X103641755Y-69810468D01*
X103639882Y-69811435D01*
X103635914Y-69820604D01*
X103633603Y-69828666D01*
X103627806Y-69849904D01*
X103619423Y-69881242D01*
X103608806Y-69921319D01*
X103596311Y-69968770D01*
X103582290Y-70022233D01*
X103567097Y-70080344D01*
X103551087Y-70141741D01*
X103534614Y-70205060D01*
X103518030Y-70268938D01*
X103501689Y-70332011D01*
X103485946Y-70392918D01*
X103471155Y-70450294D01*
X103457668Y-70502777D01*
X103445840Y-70549003D01*
X103436025Y-70587609D01*
X103428576Y-70617233D01*
X103423847Y-70636510D01*
X103422192Y-70644078D01*
X102952736Y-70644078D01*
X102971915Y-70583053D01*
X103009335Y-70463975D01*
X103047827Y-70341476D01*
X103418813Y-69160735D01*
X103639566Y-69160670D01*
X103860318Y-69160605D01*
X103870708Y-69192701D01*
X103871441Y-69195002D01*
X103876038Y-69209607D01*
X103884367Y-69236177D01*
X103896217Y-69274037D01*
X103911378Y-69322511D01*
X103929639Y-69380926D01*
X103950789Y-69448607D01*
X103974618Y-69524879D01*
X104000914Y-69609067D01*
X104029467Y-69700497D01*
X104060067Y-69798494D01*
X104092501Y-69902384D01*
X104126561Y-70011491D01*
X104162035Y-70125141D01*
X104198712Y-70242659D01*
X104236381Y-70363372D01*
X104251849Y-70412939D01*
X104289048Y-70532139D01*
X104325127Y-70647739D01*
X104325285Y-70648244D01*
X104359880Y-70759074D01*
G37*
G36*
X115376039Y-68234776D02*
G01*
X115298257Y-68338230D01*
X115211189Y-68433501D01*
X115115509Y-68520008D01*
X115011891Y-68597173D01*
X114901011Y-68664414D01*
X114783542Y-68721152D01*
X114660160Y-68766808D01*
X114531538Y-68800801D01*
X114398352Y-68822551D01*
X114380366Y-68824178D01*
X114338496Y-68826107D01*
X114288659Y-68826691D01*
X114234411Y-68826029D01*
X114179305Y-68824217D01*
X114126895Y-68821352D01*
X114080735Y-68817533D01*
X114044379Y-68812855D01*
X113970267Y-68798522D01*
X113838265Y-68762828D01*
X113712559Y-68715178D01*
X113593194Y-68655597D01*
X113480215Y-68584107D01*
X113373665Y-68500732D01*
X113273591Y-68405495D01*
X113201772Y-68324413D01*
X113122997Y-68217676D01*
X113055688Y-68104052D01*
X112999705Y-67983265D01*
X112954908Y-67855043D01*
X112921155Y-67719111D01*
X112916859Y-67696814D01*
X112912786Y-67671544D01*
X112909853Y-67646007D01*
X112907888Y-67617556D01*
X112906718Y-67583540D01*
X112906168Y-67541310D01*
X112906067Y-67488219D01*
X112906204Y-67456402D01*
X112907346Y-67396684D01*
X112910061Y-67345667D01*
X112913188Y-67315912D01*
X113224784Y-67315912D01*
X113229444Y-67395308D01*
X113230715Y-67415207D01*
X113240691Y-67514125D01*
X113256792Y-67604708D01*
X113279941Y-67690496D01*
X113311061Y-67775029D01*
X113351076Y-67861849D01*
X113379066Y-67913893D01*
X113443742Y-68013344D01*
X113518729Y-68105074D01*
X113603036Y-68188331D01*
X113695674Y-68262367D01*
X113795652Y-68326432D01*
X113901979Y-68379776D01*
X114013666Y-68421650D01*
X114129722Y-68451303D01*
X114159871Y-68456433D01*
X114203837Y-68462190D01*
X114250153Y-68466792D01*
X114292703Y-68469555D01*
X114382235Y-68473296D01*
X114382235Y-68341568D01*
X114382235Y-68209840D01*
X114302838Y-68205960D01*
X114299851Y-68205810D01*
X114192182Y-68193800D01*
X114089631Y-68169295D01*
X113992404Y-68132387D01*
X113900705Y-68083168D01*
X113814737Y-68021731D01*
X113734705Y-67948169D01*
X113671889Y-67876438D01*
X113612616Y-67790981D01*
X113565358Y-67700096D01*
X113529843Y-67603151D01*
X113505798Y-67499514D01*
X113492949Y-67388551D01*
X113488305Y-67315912D01*
X113356545Y-67315912D01*
X113224784Y-67315912D01*
X112913188Y-67315912D01*
X112914851Y-67300091D01*
X112922218Y-67256693D01*
X112932666Y-67212212D01*
X112946697Y-67163386D01*
X112964814Y-67106953D01*
X112973320Y-67082106D01*
X113010452Y-66988404D01*
X113055601Y-66895420D01*
X113109470Y-66802081D01*
X113172764Y-66707314D01*
X113246187Y-66610043D01*
X113330443Y-66509197D01*
X113426238Y-66403701D01*
X113460905Y-66366085D01*
X113529820Y-66285258D01*
X113587490Y-66207767D01*
X113634687Y-66132143D01*
X113672184Y-66056920D01*
X113700755Y-65980631D01*
X113721170Y-65901809D01*
X113734203Y-65818988D01*
X113742161Y-65748261D01*
X114257134Y-65748261D01*
X114772106Y-65748261D01*
X114776323Y-65814143D01*
X114776514Y-65817018D01*
X114789128Y-65906395D01*
X114814508Y-65997273D01*
X114852191Y-66088518D01*
X114901709Y-66178996D01*
X114962597Y-66267574D01*
X114966445Y-66272524D01*
X114985786Y-66295878D01*
X115011922Y-66325860D01*
X115042744Y-66360115D01*
X115076144Y-66396292D01*
X115110012Y-66432037D01*
X115120570Y-66443046D01*
X115176388Y-66502356D01*
X115224373Y-66555632D01*
X115266531Y-66605306D01*
X115304865Y-66653808D01*
X115341383Y-66703570D01*
X115378088Y-66757022D01*
X115439311Y-66856874D01*
X115499696Y-66977148D01*
X115547480Y-67099982D01*
X115549119Y-67104918D01*
X115571831Y-67179807D01*
X115588307Y-67249710D01*
X115599272Y-67319147D01*
X115605451Y-67392638D01*
X115607569Y-67474704D01*
X115606814Y-67539880D01*
X115602814Y-67611151D01*
X115594851Y-67678260D01*
X115582306Y-67746177D01*
X115564558Y-67819868D01*
X115546922Y-67881115D01*
X115501046Y-68005639D01*
X115443860Y-68123719D01*
X115391267Y-68209840D01*
X115376039Y-68234776D01*
G37*
G36*
X96143992Y-75364414D02*
G01*
X96140866Y-75395965D01*
X96132958Y-75426801D01*
X96119320Y-75459713D01*
X96099002Y-75497490D01*
X96071055Y-75542920D01*
X96070616Y-75543621D01*
X96067800Y-75550516D01*
X96069186Y-75558162D01*
X96076162Y-75568708D01*
X96090115Y-75584308D01*
X96112432Y-75607113D01*
X96148481Y-75647448D01*
X96179126Y-75694067D01*
X96197563Y-75741250D01*
X96204384Y-75790590D01*
X96203681Y-75799472D01*
X96200182Y-75843684D01*
X96190475Y-75885386D01*
X96169022Y-75936544D01*
X96138372Y-75978010D01*
X96098193Y-76010198D01*
X96048152Y-76033524D01*
X96015135Y-76041983D01*
X95961472Y-76045699D01*
X95906551Y-76038985D01*
X95854020Y-76022401D01*
X95807527Y-75996508D01*
X95773980Y-75972406D01*
X95754976Y-76002487D01*
X95735972Y-76032568D01*
X95673469Y-76032580D01*
X95658390Y-76032465D01*
X95634026Y-76031690D01*
X95617226Y-76030343D01*
X95610966Y-76028614D01*
X95611068Y-76028210D01*
X95615818Y-76019861D01*
X95626620Y-76003000D01*
X95642028Y-75979841D01*
X95660599Y-75952596D01*
X95702436Y-75891874D01*
X95830572Y-75891874D01*
X95850843Y-75908547D01*
X95853135Y-75910389D01*
X95874214Y-75925276D01*
X95896432Y-75938489D01*
X95906044Y-75943142D01*
X95946977Y-75954679D01*
X95987030Y-75953175D01*
X96024597Y-75938894D01*
X96058071Y-75912097D01*
X96080642Y-75880771D01*
X96093375Y-75844143D01*
X96097144Y-75799472D01*
X96096976Y-75792152D01*
X96091693Y-75754735D01*
X96077864Y-75719362D01*
X96053887Y-75681672D01*
X96041198Y-75664364D01*
X96030524Y-75651373D01*
X96021046Y-75644093D01*
X96011487Y-75643287D01*
X96000567Y-75649723D01*
X95987008Y-75664166D01*
X95969531Y-75687380D01*
X95946857Y-75720132D01*
X95917708Y-75763186D01*
X95830572Y-75891874D01*
X95702436Y-75891874D01*
X95710233Y-75880557D01*
X95691530Y-75839539D01*
X95690235Y-75836649D01*
X95675281Y-75795791D01*
X95662958Y-75748997D01*
X95654592Y-75702176D01*
X95651508Y-75661236D01*
X95651508Y-75627165D01*
X95697828Y-75627165D01*
X95744148Y-75627165D01*
X95747978Y-75672776D01*
X95748034Y-75673441D01*
X95751664Y-75705170D01*
X95756686Y-75734783D01*
X95762439Y-75759446D01*
X95768265Y-75776323D01*
X95773505Y-75782579D01*
X95777339Y-75778773D01*
X95787571Y-75765765D01*
X95802643Y-75745459D01*
X95821135Y-75719882D01*
X95841628Y-75691059D01*
X95862702Y-75661016D01*
X95882936Y-75631781D01*
X95900911Y-75605378D01*
X95915208Y-75583833D01*
X95924406Y-75569174D01*
X95927085Y-75563425D01*
X95925524Y-75562195D01*
X95915866Y-75554073D01*
X95899540Y-75540133D01*
X95878947Y-75522420D01*
X95847194Y-75493098D01*
X95818277Y-75460027D01*
X95797911Y-75426951D01*
X95783979Y-75390939D01*
X95780240Y-75377072D01*
X95773902Y-75327654D01*
X95874493Y-75327654D01*
X95874504Y-75330278D01*
X95877792Y-75366228D01*
X95888191Y-75396280D01*
X95907521Y-75424054D01*
X95937601Y-75453169D01*
X95939597Y-75454876D01*
X95958519Y-75470252D01*
X95973585Y-75481135D01*
X95981688Y-75485266D01*
X95982772Y-75484855D01*
X95989935Y-75476504D01*
X96000482Y-75459599D01*
X96012547Y-75437058D01*
X96021716Y-75417949D01*
X96031029Y-75393766D01*
X96035507Y-75371551D01*
X96036664Y-75345568D01*
X96036659Y-75344049D01*
X96032149Y-75303784D01*
X96020091Y-75270989D01*
X96001768Y-75246864D01*
X95978466Y-75232606D01*
X95951466Y-75229417D01*
X95922054Y-75238496D01*
X95907872Y-75246962D01*
X95888326Y-75266404D01*
X95877701Y-75292362D01*
X95874493Y-75327654D01*
X95773902Y-75327654D01*
X95773465Y-75324244D01*
X95779498Y-75275241D01*
X95798245Y-75230481D01*
X95829610Y-75190383D01*
X95836367Y-75183803D01*
X95862514Y-75162658D01*
X95889502Y-75149453D01*
X95921415Y-75142661D01*
X95962336Y-75140756D01*
X96011624Y-75146444D01*
X96054596Y-75163353D01*
X96089865Y-75190845D01*
X96116820Y-75228281D01*
X96134852Y-75275022D01*
X96143349Y-75330426D01*
X96143635Y-75345568D01*
X96143992Y-75364414D01*
G37*
G36*
X98322297Y-72143000D02*
G01*
X98421354Y-72151426D01*
X98510868Y-72168681D01*
X98591857Y-72195177D01*
X98665338Y-72231325D01*
X98732328Y-72277536D01*
X98793846Y-72334222D01*
X98827365Y-72372750D01*
X98867538Y-72433179D01*
X98895405Y-72497423D01*
X98911605Y-72567092D01*
X98916777Y-72643794D01*
X98914970Y-72688571D01*
X98903466Y-72759496D01*
X98880766Y-72824173D01*
X98846196Y-72884304D01*
X98799083Y-72941594D01*
X98783587Y-72957415D01*
X98749155Y-72989051D01*
X98711887Y-73018225D01*
X98670481Y-73045583D01*
X98623637Y-73071768D01*
X98570055Y-73097427D01*
X98508433Y-73123203D01*
X98437471Y-73149743D01*
X98355868Y-73177689D01*
X98262323Y-73207688D01*
X98248886Y-73211918D01*
X98169679Y-73238379D01*
X98102580Y-73263852D01*
X98046461Y-73288943D01*
X98000197Y-73314257D01*
X97962661Y-73340401D01*
X97932727Y-73367980D01*
X97909269Y-73397601D01*
X97892520Y-73426376D01*
X97876929Y-73468062D01*
X97869411Y-73514967D01*
X97869203Y-73570394D01*
X97870220Y-73586185D01*
X97874113Y-73616104D01*
X97881448Y-73641843D01*
X97893832Y-73669894D01*
X97920886Y-73713618D01*
X97961556Y-73755768D01*
X98012666Y-73789550D01*
X98074287Y-73815002D01*
X98146490Y-73832159D01*
X98229348Y-73841059D01*
X98282834Y-73842237D01*
X98369347Y-73836125D01*
X98448976Y-73819972D01*
X98520936Y-73794020D01*
X98584443Y-73758515D01*
X98638712Y-73713699D01*
X98666460Y-73681831D01*
X98695845Y-73633246D01*
X98716574Y-73576737D01*
X98729453Y-73510498D01*
X98733581Y-73478402D01*
X98855797Y-73478402D01*
X98978013Y-73478402D01*
X98973857Y-73532287D01*
X98972797Y-73543815D01*
X98958857Y-73615577D01*
X98933070Y-73686520D01*
X98896671Y-73753805D01*
X98850898Y-73814594D01*
X98801348Y-73862832D01*
X98736446Y-73910539D01*
X98661786Y-73952338D01*
X98578931Y-73987476D01*
X98489446Y-74015195D01*
X98394897Y-74034742D01*
X98371372Y-74037017D01*
X98337052Y-74038348D01*
X98295684Y-74038722D01*
X98250525Y-74038207D01*
X98204830Y-74036870D01*
X98161854Y-74034778D01*
X98124854Y-74031998D01*
X98097086Y-74028598D01*
X98056284Y-74020746D01*
X97969691Y-73996566D01*
X97890869Y-73963829D01*
X97820614Y-73923121D01*
X97759720Y-73875029D01*
X97708982Y-73820139D01*
X97669193Y-73759036D01*
X97641149Y-73692307D01*
X97624885Y-73622722D01*
X97618910Y-73546811D01*
X97624299Y-73471152D01*
X97640720Y-73397946D01*
X97667840Y-73329392D01*
X97705326Y-73267691D01*
X97738445Y-73227717D01*
X97781317Y-73186687D01*
X97831776Y-73148375D01*
X97890808Y-73112239D01*
X97959399Y-73077739D01*
X98038535Y-73044333D01*
X98129202Y-73011482D01*
X98232387Y-72978644D01*
X98307639Y-72955127D01*
X98378467Y-72930687D01*
X98438514Y-72906999D01*
X98489135Y-72883427D01*
X98531682Y-72859336D01*
X98567509Y-72834091D01*
X98597970Y-72807056D01*
X98603496Y-72801397D01*
X98638266Y-72755801D01*
X98660314Y-72705678D01*
X98669579Y-72651212D01*
X98666004Y-72592588D01*
X98656266Y-72550896D01*
X98632650Y-72495993D01*
X98598082Y-72448934D01*
X98552668Y-72409823D01*
X98496513Y-72378769D01*
X98429724Y-72355877D01*
X98396508Y-72349201D01*
X98345516Y-72343677D01*
X98289465Y-72341615D01*
X98232860Y-72343010D01*
X98180205Y-72347857D01*
X98136006Y-72356153D01*
X98107957Y-72364365D01*
X98043144Y-72391774D01*
X97988297Y-72428296D01*
X97943545Y-72473779D01*
X97909021Y-72528072D01*
X97884854Y-72591023D01*
X97871178Y-72662480D01*
X97866870Y-72701334D01*
X97745728Y-72701334D01*
X97624586Y-72701334D01*
X97624586Y-72665251D01*
X97625257Y-72649917D01*
X97630897Y-72610208D01*
X97641279Y-72565578D01*
X97655200Y-72520771D01*
X97671457Y-72480527D01*
X97696613Y-72432939D01*
X97744963Y-72364229D01*
X97803108Y-72304104D01*
X97870385Y-72252909D01*
X97946132Y-72210987D01*
X98029687Y-72178684D01*
X98120386Y-72156345D01*
X98217567Y-72144312D01*
X98320569Y-72142932D01*
X98322297Y-72143000D01*
G37*
G36*
X106435755Y-73093247D02*
G01*
X106435646Y-73122474D01*
X106433806Y-73205868D01*
X106429445Y-73279220D01*
X106422239Y-73345035D01*
X106411863Y-73405820D01*
X106397994Y-73464081D01*
X106380309Y-73522323D01*
X106342590Y-73618317D01*
X106294654Y-73708287D01*
X106237996Y-73788111D01*
X106172797Y-73857620D01*
X106099241Y-73916647D01*
X106017510Y-73965022D01*
X105927787Y-74002577D01*
X105830256Y-74029143D01*
X105807138Y-74032749D01*
X105766145Y-74036077D01*
X105717892Y-74037544D01*
X105665830Y-74037241D01*
X105613411Y-74035259D01*
X105564087Y-74031689D01*
X105521310Y-74026622D01*
X105488531Y-74020149D01*
X105429717Y-74001972D01*
X105339889Y-73963613D01*
X105258533Y-73914808D01*
X105185792Y-73855720D01*
X105121810Y-73786515D01*
X105066732Y-73707359D01*
X105020703Y-73618415D01*
X104983866Y-73519851D01*
X104956367Y-73411829D01*
X104948480Y-73367336D01*
X104938391Y-73285900D01*
X104931973Y-73197037D01*
X104929368Y-73104252D01*
X104929528Y-73093247D01*
X105182551Y-73093247D01*
X105182557Y-73119429D01*
X105182657Y-73177863D01*
X105182951Y-73225251D01*
X105183529Y-73263368D01*
X105184483Y-73293990D01*
X105185903Y-73318891D01*
X105187879Y-73339846D01*
X105190503Y-73358632D01*
X105193865Y-73377022D01*
X105198055Y-73396793D01*
X105212790Y-73455769D01*
X105238271Y-73530975D01*
X105269745Y-73596774D01*
X105308227Y-73655177D01*
X105354727Y-73708195D01*
X105355561Y-73709029D01*
X105413798Y-73758179D01*
X105477745Y-73795101D01*
X105547305Y-73819744D01*
X105551387Y-73820746D01*
X105592082Y-73827788D01*
X105640110Y-73832116D01*
X105690366Y-73833565D01*
X105737744Y-73831972D01*
X105777140Y-73827170D01*
X105783645Y-73825877D01*
X105857870Y-73804019D01*
X105925516Y-73770572D01*
X105986284Y-73725895D01*
X106039875Y-73670347D01*
X106085989Y-73604288D01*
X106124329Y-73528077D01*
X106154596Y-73442074D01*
X106176491Y-73346638D01*
X106180443Y-73316515D01*
X106183844Y-73274223D01*
X106186453Y-73223655D01*
X106188247Y-73167483D01*
X106189202Y-73108380D01*
X106189298Y-73049019D01*
X106188510Y-72992072D01*
X106186815Y-72940213D01*
X106184192Y-72896115D01*
X106180617Y-72862449D01*
X106171368Y-72809155D01*
X106147489Y-72716057D01*
X106115347Y-72632662D01*
X106075162Y-72559287D01*
X106027154Y-72496246D01*
X105971543Y-72443854D01*
X105908549Y-72402427D01*
X105838391Y-72372279D01*
X105827142Y-72368634D01*
X105804702Y-72362243D01*
X105783333Y-72358013D01*
X105759391Y-72355492D01*
X105729230Y-72354228D01*
X105689204Y-72353769D01*
X105647590Y-72354057D01*
X105604486Y-72356219D01*
X105568167Y-72361083D01*
X105534926Y-72369395D01*
X105501054Y-72381902D01*
X105462841Y-72399350D01*
X105445844Y-72407926D01*
X105414505Y-72426586D01*
X105385872Y-72448728D01*
X105354727Y-72478154D01*
X105321504Y-72514616D01*
X105280654Y-72571271D01*
X105247145Y-72634648D01*
X105219952Y-72706780D01*
X105198055Y-72789700D01*
X105196315Y-72797692D01*
X105192459Y-72816713D01*
X105189396Y-72835047D01*
X105187036Y-72854468D01*
X105185288Y-72876752D01*
X105184061Y-72903674D01*
X105183264Y-72937009D01*
X105182807Y-72978533D01*
X105182600Y-73030020D01*
X105182551Y-73093247D01*
X104929528Y-73093247D01*
X104930722Y-73011051D01*
X104936178Y-72920940D01*
X104947112Y-72829676D01*
X104969687Y-72718443D01*
X105001473Y-72616008D01*
X105042221Y-72522679D01*
X105091681Y-72438766D01*
X105149604Y-72364577D01*
X105215741Y-72300421D01*
X105289842Y-72246609D01*
X105371659Y-72203449D01*
X105460941Y-72171250D01*
X105557441Y-72150321D01*
X105620829Y-72143008D01*
X105721821Y-72141190D01*
X105818962Y-72151616D01*
X105911500Y-72173908D01*
X105998681Y-72207690D01*
X106079755Y-72252587D01*
X106153968Y-72308220D01*
X106220568Y-72374216D01*
X106278804Y-72450196D01*
X106327924Y-72535784D01*
X106330340Y-72540734D01*
X106360877Y-72609131D01*
X106385540Y-72677349D01*
X106404760Y-72747602D01*
X106418962Y-72822105D01*
X106428577Y-72903071D01*
X106434032Y-72992713D01*
X106434997Y-73049019D01*
X106435755Y-73093247D01*
G37*
G36*
X96833889Y-70292528D02*
G01*
X96834280Y-70362821D01*
X96834324Y-70432792D01*
X96834011Y-70500555D01*
X96833336Y-70564229D01*
X96832290Y-70621928D01*
X96830867Y-70671770D01*
X96829058Y-70711871D01*
X96826856Y-70740347D01*
X96823735Y-70766848D01*
X96803079Y-70887639D01*
X96772987Y-70999553D01*
X96733674Y-71102337D01*
X96685361Y-71195740D01*
X96628264Y-71279509D01*
X96562602Y-71353391D01*
X96488594Y-71417133D01*
X96406458Y-71470484D01*
X96316411Y-71513191D01*
X96218672Y-71545002D01*
X96113460Y-71565664D01*
X96105692Y-71566633D01*
X96064595Y-71569651D01*
X96014715Y-71570771D01*
X95959761Y-71570130D01*
X95903442Y-71567866D01*
X95849467Y-71564116D01*
X95801546Y-71559017D01*
X95763386Y-71552706D01*
X95721235Y-71542685D01*
X95630383Y-71513176D01*
X95547712Y-71474147D01*
X95471422Y-71424664D01*
X95399715Y-71363792D01*
X95369124Y-71332985D01*
X95304340Y-71254837D01*
X95249375Y-71168320D01*
X95204088Y-71073114D01*
X95168340Y-70968897D01*
X95141990Y-70855350D01*
X95124901Y-70732150D01*
X95124619Y-70729095D01*
X95122819Y-70700591D01*
X95121299Y-70660761D01*
X95120059Y-70611515D01*
X95119098Y-70554762D01*
X95118416Y-70492412D01*
X95118015Y-70426376D01*
X95117914Y-70370129D01*
X95600867Y-70370129D01*
X95600947Y-70440139D01*
X95601317Y-70518684D01*
X95602091Y-70586155D01*
X95603380Y-70643919D01*
X95605296Y-70693347D01*
X95607948Y-70735805D01*
X95611448Y-70772662D01*
X95615908Y-70805287D01*
X95621437Y-70835049D01*
X95628148Y-70863315D01*
X95636152Y-70891453D01*
X95645558Y-70920834D01*
X95649385Y-70932113D01*
X95666854Y-70977403D01*
X95685694Y-71014379D01*
X95708318Y-71047239D01*
X95737139Y-71080185D01*
X95740467Y-71083633D01*
X95784012Y-71120317D01*
X95833485Y-71146626D01*
X95891549Y-71164006D01*
X95924841Y-71169717D01*
X95993537Y-71172897D01*
X96058996Y-71164381D01*
X96119787Y-71144565D01*
X96174476Y-71113846D01*
X96221630Y-71072621D01*
X96250148Y-71037806D01*
X96278206Y-70992166D01*
X96301637Y-70939056D01*
X96321284Y-70876516D01*
X96337992Y-70802584D01*
X96338360Y-70800566D01*
X96341132Y-70777496D01*
X96343688Y-70742820D01*
X96346006Y-70698229D01*
X96348065Y-70645413D01*
X96349846Y-70586063D01*
X96351326Y-70521871D01*
X96352486Y-70454527D01*
X96353305Y-70385723D01*
X96353762Y-70317149D01*
X96353837Y-70250497D01*
X96353508Y-70187458D01*
X96352755Y-70129721D01*
X96351558Y-70078980D01*
X96349896Y-70036924D01*
X96347747Y-70005244D01*
X96341492Y-69949279D01*
X96325521Y-69857395D01*
X96303416Y-69777313D01*
X96275024Y-69708802D01*
X96240192Y-69651630D01*
X96198765Y-69605566D01*
X96150591Y-69570380D01*
X96095517Y-69545840D01*
X96033388Y-69531714D01*
X95974034Y-69528013D01*
X95911422Y-69533334D01*
X95853032Y-69547697D01*
X95802231Y-69570537D01*
X95759433Y-69602781D01*
X95720123Y-69646718D01*
X95685539Y-69700578D01*
X95656754Y-69762688D01*
X95634843Y-69831372D01*
X95631488Y-69844823D01*
X95624688Y-69874173D01*
X95618957Y-69902990D01*
X95614206Y-69932679D01*
X95610347Y-69964644D01*
X95607292Y-70000291D01*
X95604951Y-70041023D01*
X95603236Y-70088246D01*
X95602059Y-70143363D01*
X95601331Y-70207779D01*
X95600963Y-70282900D01*
X95600867Y-70370129D01*
X95117914Y-70370129D01*
X95117893Y-70358565D01*
X95118051Y-70290887D01*
X95118489Y-70225252D01*
X95119207Y-70163572D01*
X95120205Y-70107756D01*
X95121483Y-70059714D01*
X95123041Y-70021356D01*
X95124879Y-69994593D01*
X95128927Y-69957450D01*
X95149001Y-69834642D01*
X95178347Y-69720681D01*
X95216750Y-69615832D01*
X95263994Y-69520359D01*
X95319866Y-69434526D01*
X95384150Y-69358595D01*
X95456630Y-69292831D01*
X95537093Y-69237497D01*
X95625323Y-69192858D01*
X95721105Y-69159176D01*
X95824223Y-69136715D01*
X95844535Y-69133948D01*
X95898851Y-69129477D01*
X95959428Y-69127745D01*
X96022347Y-69128649D01*
X96083691Y-69132088D01*
X96139541Y-69137958D01*
X96185980Y-69146158D01*
X96196230Y-69148581D01*
X96293390Y-69177940D01*
X96381655Y-69216999D01*
X96461965Y-69266242D01*
X96535264Y-69326154D01*
X96565186Y-69355511D01*
X96632167Y-69433927D01*
X96689438Y-69521013D01*
X96737117Y-69617030D01*
X96775324Y-69722240D01*
X96804176Y-69836904D01*
X96823793Y-69961282D01*
X96824641Y-69969463D01*
X96826966Y-70002140D01*
X96828988Y-70045795D01*
X96830699Y-70098545D01*
X96832090Y-70158506D01*
X96833156Y-70223795D01*
X96833441Y-70250497D01*
X96833889Y-70292528D01*
G37*
G36*
X108121301Y-69127295D02*
G01*
X108218823Y-69134165D01*
X108308553Y-69149588D01*
X108392856Y-69174056D01*
X108474096Y-69208064D01*
X108553024Y-69251941D01*
X108628252Y-69307225D01*
X108692502Y-69370193D01*
X108745554Y-69440496D01*
X108787185Y-69517784D01*
X108817175Y-69601710D01*
X108835303Y-69691922D01*
X108841348Y-69788074D01*
X108841258Y-69802994D01*
X108838882Y-69859714D01*
X108832612Y-69910057D01*
X108821551Y-69959564D01*
X108804803Y-70013775D01*
X108782338Y-70071317D01*
X108748540Y-70135514D01*
X108705884Y-70195739D01*
X108652200Y-70255429D01*
X108597630Y-70305594D01*
X108516069Y-70367041D01*
X108421406Y-70425332D01*
X108313627Y-70480473D01*
X108192716Y-70532476D01*
X108180186Y-70537522D01*
X108140270Y-70554533D01*
X108098131Y-70573644D01*
X108056720Y-70593421D01*
X108018986Y-70612432D01*
X107987880Y-70629244D01*
X107966353Y-70642423D01*
X107958700Y-70647764D01*
X107922877Y-70675017D01*
X107895949Y-70700692D01*
X107874938Y-70727987D01*
X107856870Y-70760101D01*
X107847152Y-70780218D01*
X107839711Y-70798102D01*
X107834903Y-70815141D01*
X107831998Y-70834926D01*
X107830266Y-70861043D01*
X107828974Y-70897083D01*
X107828776Y-70903981D01*
X107828805Y-70954684D01*
X107832288Y-70995598D01*
X107839881Y-71029800D01*
X107852235Y-71060368D01*
X107870005Y-71090380D01*
X107892864Y-71118745D01*
X107927983Y-71146784D01*
X107970902Y-71166143D01*
X108022847Y-71177337D01*
X108085045Y-71180883D01*
X108133356Y-71178875D01*
X108200794Y-71168013D01*
X108258670Y-71147687D01*
X108307086Y-71117841D01*
X108346144Y-71078422D01*
X108375949Y-71029378D01*
X108376627Y-71027918D01*
X108397119Y-70972166D01*
X108410627Y-70911231D01*
X108415584Y-70852126D01*
X108415510Y-70844145D01*
X108415130Y-70829166D01*
X108415499Y-70817158D01*
X108417891Y-70807794D01*
X108423584Y-70800749D01*
X108433854Y-70795699D01*
X108449976Y-70792319D01*
X108473228Y-70790282D01*
X108504886Y-70789264D01*
X108546226Y-70788939D01*
X108598525Y-70788983D01*
X108663059Y-70789070D01*
X108902213Y-70789070D01*
X108902213Y-70817965D01*
X108901632Y-70837532D01*
X108898069Y-70879334D01*
X108891904Y-70925867D01*
X108883882Y-70971862D01*
X108874749Y-71012055D01*
X108856962Y-71069913D01*
X108817876Y-71161886D01*
X108767601Y-71247084D01*
X108706799Y-71324277D01*
X108706172Y-71324970D01*
X108647440Y-71380689D01*
X108577825Y-71431267D01*
X108499282Y-71475726D01*
X108413764Y-71513092D01*
X108323226Y-71542387D01*
X108229622Y-71562637D01*
X108208467Y-71565369D01*
X108165956Y-71568440D01*
X108115920Y-71569951D01*
X108061858Y-71569966D01*
X108007267Y-71568547D01*
X107955645Y-71565757D01*
X107910490Y-71561657D01*
X107875299Y-71556310D01*
X107820857Y-71543488D01*
X107727835Y-71512703D01*
X107644187Y-71472737D01*
X107570185Y-71423783D01*
X107506098Y-71366031D01*
X107452196Y-71299674D01*
X107408750Y-71224904D01*
X107398923Y-71204110D01*
X107379671Y-71158945D01*
X107365406Y-71116617D01*
X107355470Y-71073877D01*
X107349205Y-71027477D01*
X107345952Y-70974167D01*
X107345052Y-70910698D01*
X107345281Y-70866294D01*
X107346105Y-70828496D01*
X107347761Y-70798520D01*
X107350493Y-70773410D01*
X107354541Y-70750208D01*
X107360147Y-70725959D01*
X107372600Y-70681117D01*
X107402821Y-70599707D01*
X107441423Y-70526693D01*
X107489752Y-70459723D01*
X107549159Y-70396448D01*
X107605964Y-70347083D01*
X107677904Y-70295228D01*
X107759793Y-70246306D01*
X107852810Y-70199619D01*
X107958135Y-70154469D01*
X108045812Y-70117505D01*
X108122512Y-70080629D01*
X108187209Y-70044035D01*
X108240637Y-70007218D01*
X108283529Y-69969673D01*
X108316615Y-69930893D01*
X108340629Y-69890373D01*
X108347013Y-69876126D01*
X108352897Y-69858821D01*
X108356286Y-69839967D01*
X108357823Y-69815580D01*
X108358150Y-69781676D01*
X108358111Y-69768866D01*
X108357544Y-69740000D01*
X108355605Y-69718847D01*
X108351404Y-69701122D01*
X108344052Y-69682535D01*
X108332660Y-69658800D01*
X108324358Y-69643018D01*
X108292458Y-69597310D01*
X108253793Y-69562614D01*
X108207224Y-69537829D01*
X108201359Y-69535570D01*
X108180840Y-69529120D01*
X108158915Y-69525181D01*
X108131556Y-69523207D01*
X108094738Y-69522657D01*
X108061845Y-69523310D01*
X108023762Y-69527114D01*
X107991614Y-69535407D01*
X107961085Y-69549422D01*
X107927863Y-69570393D01*
X107900797Y-69594028D01*
X107871535Y-69633678D01*
X107848140Y-69682853D01*
X107831435Y-69739740D01*
X107822244Y-69802531D01*
X107817696Y-69859966D01*
X107578491Y-69861743D01*
X107339286Y-69863520D01*
X107343442Y-69790794D01*
X107349601Y-69727064D01*
X107368954Y-69631760D01*
X107399596Y-69543006D01*
X107440934Y-69461336D01*
X107492372Y-69387280D01*
X107553316Y-69321372D01*
X107623171Y-69264143D01*
X107701343Y-69216126D01*
X107787237Y-69177853D01*
X107880259Y-69149856D01*
X107979812Y-69132667D01*
X108085304Y-69126819D01*
X108121301Y-69127295D01*
G37*
G36*
X118186491Y-72008729D02*
G01*
X118183112Y-73873693D01*
X118163872Y-73926202D01*
X118156075Y-73945971D01*
X118121982Y-74011898D01*
X118078117Y-74073011D01*
X118026692Y-74126532D01*
X117969919Y-74169685D01*
X117948199Y-74182852D01*
X117913120Y-74201023D01*
X117876245Y-74215458D01*
X117831742Y-74228646D01*
X117830013Y-74229093D01*
X117826019Y-74230001D01*
X117821274Y-74230861D01*
X117815434Y-74231677D01*
X117808152Y-74232448D01*
X117799085Y-74233175D01*
X117787888Y-74233860D01*
X117774214Y-74234504D01*
X117757720Y-74235108D01*
X117738061Y-74235672D01*
X117714891Y-74236199D01*
X117687865Y-74236689D01*
X117656639Y-74237142D01*
X117620868Y-74237562D01*
X117580206Y-74237947D01*
X117534309Y-74238300D01*
X117482832Y-74238621D01*
X117425429Y-74238912D01*
X117361756Y-74239174D01*
X117291468Y-74239408D01*
X117214221Y-74239614D01*
X117129668Y-74239794D01*
X117037465Y-74239949D01*
X116937267Y-74240080D01*
X116828729Y-74240189D01*
X116711506Y-74240275D01*
X116585254Y-74240341D01*
X116449627Y-74240388D01*
X116304280Y-74240416D01*
X116148868Y-74240426D01*
X115983047Y-74240420D01*
X115806471Y-74240399D01*
X115618795Y-74240364D01*
X115419676Y-74240315D01*
X115208766Y-74240255D01*
X114985722Y-74240183D01*
X114750199Y-74240102D01*
X114501852Y-74240012D01*
X114240335Y-74239915D01*
X110696228Y-74238578D01*
X110652306Y-74222756D01*
X110648715Y-74221450D01*
X110570899Y-74186514D01*
X110502982Y-74142541D01*
X110445185Y-74089772D01*
X110397727Y-74028443D01*
X110360831Y-73958793D01*
X110334717Y-73881059D01*
X110334365Y-73879661D01*
X110333021Y-73874065D01*
X110331772Y-73868082D01*
X110330615Y-73861228D01*
X110329545Y-73853016D01*
X110328559Y-73842960D01*
X110327654Y-73830573D01*
X110326827Y-73815369D01*
X110326074Y-73796862D01*
X110325391Y-73774566D01*
X110324775Y-73747995D01*
X110324223Y-73716661D01*
X110323731Y-73680080D01*
X110323295Y-73637764D01*
X110322913Y-73589228D01*
X110322581Y-73533985D01*
X110322295Y-73471549D01*
X110322051Y-73401433D01*
X110321847Y-73323153D01*
X110321679Y-73236220D01*
X110321543Y-73140149D01*
X110321533Y-73130360D01*
X111295702Y-73130360D01*
X111307444Y-73194151D01*
X111332027Y-73256661D01*
X111342520Y-73275181D01*
X111375672Y-73318802D01*
X111417162Y-73358677D01*
X111463388Y-73391626D01*
X111510749Y-73414467D01*
X111530199Y-73420484D01*
X111581995Y-73429712D01*
X111637320Y-73431708D01*
X111691185Y-73426479D01*
X111738605Y-73414037D01*
X111779433Y-73395417D01*
X111832438Y-73359895D01*
X111877162Y-73315801D01*
X111912743Y-73264761D01*
X111938316Y-73208397D01*
X111953017Y-73148334D01*
X111955984Y-73086194D01*
X111946350Y-73023603D01*
X111942487Y-73009875D01*
X111917833Y-72949370D01*
X111883859Y-72897027D01*
X111842026Y-72853273D01*
X111793795Y-72818537D01*
X111740627Y-72793246D01*
X111683984Y-72777826D01*
X111625327Y-72772705D01*
X111566116Y-72778310D01*
X111507812Y-72795069D01*
X111451878Y-72823409D01*
X111399773Y-72863757D01*
X111371860Y-72893091D01*
X111334881Y-72946653D01*
X111309686Y-73005075D01*
X111296538Y-73066822D01*
X111295702Y-73130360D01*
X110321533Y-73130360D01*
X110321436Y-73034454D01*
X110321355Y-72918649D01*
X110321295Y-72792247D01*
X110321255Y-72654762D01*
X110321229Y-72505708D01*
X110321215Y-72344598D01*
X110321209Y-72170946D01*
X110321208Y-71984267D01*
X110321208Y-71874865D01*
X111334775Y-71874865D01*
X111334775Y-72026988D01*
X111334775Y-72179112D01*
X111410793Y-72183734D01*
X111509756Y-72193208D01*
X111636091Y-72216255D01*
X111756107Y-72251237D01*
X111869872Y-72298181D01*
X111977453Y-72357116D01*
X112078917Y-72428072D01*
X112174332Y-72511077D01*
X112232203Y-72570235D01*
X112302367Y-72654240D01*
X112362705Y-72743139D01*
X112415362Y-72839855D01*
X112427391Y-72865239D01*
X112467131Y-72962971D01*
X112497286Y-73063452D01*
X112501857Y-73086194D01*
X112518609Y-73169550D01*
X112531851Y-73284135D01*
X112539716Y-73383803D01*
X112690664Y-73383803D01*
X112841612Y-73383803D01*
X112841612Y-73330462D01*
X112841178Y-73299444D01*
X112832265Y-73181954D01*
X112812364Y-73061576D01*
X112782152Y-72941145D01*
X112742307Y-72823498D01*
X112693509Y-72711469D01*
X112652078Y-72631506D01*
X112603673Y-72550071D01*
X112551169Y-72474811D01*
X112491833Y-72401844D01*
X112422933Y-72327292D01*
X112382009Y-72286183D01*
X112331858Y-72239157D01*
X112282784Y-72197624D01*
X112230985Y-72158410D01*
X112172658Y-72118338D01*
X112096832Y-72071405D01*
X111972891Y-72007464D01*
X111844218Y-71956118D01*
X111711278Y-71917517D01*
X111574531Y-71891811D01*
X111434443Y-71879150D01*
X111334775Y-71874865D01*
X110321208Y-71874865D01*
X110321208Y-71079626D01*
X111334775Y-71079626D01*
X111334775Y-71234071D01*
X111334775Y-71388515D01*
X111454714Y-71392457D01*
X111545371Y-71397360D01*
X111653184Y-71409029D01*
X111758873Y-71427548D01*
X111866488Y-71453653D01*
X111980080Y-71488083D01*
X112128456Y-71543583D01*
X112274497Y-71612168D01*
X112413597Y-71692098D01*
X112545294Y-71782992D01*
X112669123Y-71884470D01*
X112784621Y-71996151D01*
X112891323Y-72117653D01*
X112988767Y-72248596D01*
X113076489Y-72388600D01*
X113081045Y-72396608D01*
X113142719Y-72516542D01*
X113196677Y-72643644D01*
X113242274Y-72775564D01*
X113278864Y-72909948D01*
X113305800Y-73044445D01*
X113322436Y-73176701D01*
X113328124Y-73304365D01*
X113328124Y-73330462D01*
X113328124Y-73383803D01*
X113483538Y-73383803D01*
X113638952Y-73383803D01*
X113638885Y-73341571D01*
X113638821Y-73329828D01*
X113634314Y-73219010D01*
X113623132Y-73101382D01*
X113605852Y-72981039D01*
X113583051Y-72862078D01*
X113555308Y-72748595D01*
X113548530Y-72724491D01*
X113497562Y-72570191D01*
X113434239Y-72417492D01*
X113359547Y-72268392D01*
X113274473Y-72124887D01*
X113180004Y-71988973D01*
X113139323Y-71936496D01*
X113026509Y-71805847D01*
X112904597Y-71684568D01*
X112774320Y-71573093D01*
X112636407Y-71471858D01*
X112491590Y-71381295D01*
X112340600Y-71301840D01*
X112184167Y-71233925D01*
X112023023Y-71177986D01*
X111857898Y-71134456D01*
X111689524Y-71103769D01*
X111643350Y-71097902D01*
X111588722Y-71092180D01*
X111531446Y-71087178D01*
X111475524Y-71083210D01*
X111424962Y-71080593D01*
X111383764Y-71079642D01*
X111334775Y-71079626D01*
X110321208Y-71079626D01*
X110321208Y-70464728D01*
X111334775Y-70464728D01*
X111334775Y-70620142D01*
X111410793Y-70620212D01*
X111434865Y-70620413D01*
X111543408Y-70625147D01*
X111659442Y-70635822D01*
X111779443Y-70651980D01*
X111899885Y-70673165D01*
X112017244Y-70698919D01*
X112159377Y-70738058D01*
X112323235Y-70794181D01*
X112484966Y-70861074D01*
X112642114Y-70937620D01*
X112792220Y-71022701D01*
X112932828Y-71115201D01*
X112974587Y-71145479D01*
X113114559Y-71256487D01*
X113249532Y-71378147D01*
X113377452Y-71508408D01*
X113496267Y-71645215D01*
X113603924Y-71786515D01*
X113649858Y-71853505D01*
X113746060Y-72010759D01*
X113831342Y-72175207D01*
X113905392Y-72345914D01*
X113967897Y-72521940D01*
X114018543Y-72702348D01*
X114057017Y-72886200D01*
X114083005Y-73072559D01*
X114096196Y-73260485D01*
X114100572Y-73383803D01*
X114252523Y-73383803D01*
X114404475Y-73383803D01*
X114400569Y-73236835D01*
X114392026Y-73079744D01*
X114369581Y-72886996D01*
X114334338Y-72696698D01*
X114286655Y-72509442D01*
X114226889Y-72325816D01*
X114155397Y-72146413D01*
X114072536Y-71971820D01*
X113978664Y-71802630D01*
X113874138Y-71639432D01*
X113759314Y-71482817D01*
X113634551Y-71333374D01*
X113500205Y-71191695D01*
X113356633Y-71058369D01*
X113204193Y-70933986D01*
X113043242Y-70819137D01*
X112874137Y-70714412D01*
X112866011Y-70709759D01*
X112687901Y-70615858D01*
X112504436Y-70534348D01*
X112364505Y-70483122D01*
X114044278Y-70483122D01*
X114054737Y-70548956D01*
X114069162Y-70591642D01*
X114099124Y-70647019D01*
X114138740Y-70695049D01*
X114186469Y-70734736D01*
X114240773Y-70765083D01*
X114300109Y-70785095D01*
X114362938Y-70793775D01*
X114427720Y-70790128D01*
X114479889Y-70782018D01*
X115069609Y-71371709D01*
X115136414Y-71438565D01*
X115208295Y-71510626D01*
X115276954Y-71579587D01*
X115341813Y-71644861D01*
X115402296Y-71705864D01*
X115457824Y-71762010D01*
X115507822Y-71812714D01*
X115551711Y-71857390D01*
X115588914Y-71895453D01*
X115618855Y-71926317D01*
X115640956Y-71949396D01*
X115654640Y-71964106D01*
X115659329Y-71969861D01*
X115659947Y-71973027D01*
X115667793Y-71978322D01*
X115668784Y-71978900D01*
X115677720Y-71986710D01*
X115695109Y-72003054D01*
X115720197Y-72027183D01*
X115752233Y-72058343D01*
X115790464Y-72095784D01*
X115834136Y-72138753D01*
X115882498Y-72186500D01*
X115934797Y-72238273D01*
X115990280Y-72293320D01*
X116048195Y-72350890D01*
X116107789Y-72410231D01*
X116168310Y-72470591D01*
X116229005Y-72531220D01*
X116289121Y-72591365D01*
X116347906Y-72650275D01*
X116404607Y-72707198D01*
X116458472Y-72761383D01*
X116508748Y-72812079D01*
X116554682Y-72858533D01*
X116595523Y-72899994D01*
X116630516Y-72935711D01*
X116658911Y-72964932D01*
X116679954Y-72986905D01*
X116692892Y-73000880D01*
X116696974Y-73006103D01*
X116696882Y-73006208D01*
X116694198Y-73014726D01*
X116690598Y-73032733D01*
X116686832Y-73056492D01*
X116683984Y-73086343D01*
X116687171Y-73150808D01*
X116702620Y-73212555D01*
X116729475Y-73269976D01*
X116766880Y-73321464D01*
X116813978Y-73365410D01*
X116843544Y-73383803D01*
X116869912Y-73400207D01*
X116884800Y-73407103D01*
X116945514Y-73426491D01*
X117007426Y-73433492D01*
X117068870Y-73428684D01*
X117128177Y-73412644D01*
X117183680Y-73385948D01*
X117233710Y-73349175D01*
X117276600Y-73302900D01*
X117310683Y-73247701D01*
X117330144Y-73197612D01*
X117341956Y-73136846D01*
X117342479Y-73075499D01*
X117332236Y-73015465D01*
X117311752Y-72958638D01*
X117281549Y-72906912D01*
X117242154Y-72862181D01*
X117194089Y-72826340D01*
X117159677Y-72806069D01*
X117159543Y-71798212D01*
X117159409Y-70790354D01*
X117191407Y-70771602D01*
X117231628Y-70743858D01*
X117277846Y-70699459D01*
X117314973Y-70648168D01*
X117340853Y-70592568D01*
X117355632Y-70532252D01*
X117358901Y-70468463D01*
X117349965Y-70406477D01*
X117329485Y-70347709D01*
X117298118Y-70293571D01*
X117256524Y-70245477D01*
X117205362Y-70204840D01*
X117145289Y-70173073D01*
X117131698Y-70167832D01*
X117113424Y-70162727D01*
X117092374Y-70159625D01*
X117064973Y-70158054D01*
X117027646Y-70157541D01*
X116996879Y-70157547D01*
X116970937Y-70158255D01*
X116951473Y-70160380D01*
X116934725Y-70164618D01*
X116916931Y-70171666D01*
X116894328Y-70182221D01*
X116860881Y-70200432D01*
X116808982Y-70239015D01*
X116765423Y-70285233D01*
X116731885Y-70337164D01*
X116710050Y-70392885D01*
X116709846Y-70393643D01*
X116703337Y-70425242D01*
X116700518Y-70460009D01*
X116700975Y-70502962D01*
X116701921Y-70523096D01*
X116704340Y-70550849D01*
X116708693Y-70572943D01*
X116716128Y-70594396D01*
X116727792Y-70620221D01*
X116727974Y-70620601D01*
X116762296Y-70678270D01*
X116805514Y-70727496D01*
X116855910Y-70766319D01*
X116895882Y-70790991D01*
X116895882Y-71792739D01*
X116895879Y-71885982D01*
X116895860Y-72013452D01*
X116895817Y-72128477D01*
X116895744Y-72231697D01*
X116895632Y-72323749D01*
X116895474Y-72405272D01*
X116895263Y-72476907D01*
X116894992Y-72539291D01*
X116894654Y-72593063D01*
X116894241Y-72638862D01*
X116893745Y-72677328D01*
X116893160Y-72709098D01*
X116892479Y-72734812D01*
X116891693Y-72755108D01*
X116890796Y-72770627D01*
X116889780Y-72782005D01*
X116888639Y-72789883D01*
X116887364Y-72794898D01*
X116885948Y-72797691D01*
X116884385Y-72798899D01*
X116882817Y-72798744D01*
X116876389Y-72794916D01*
X116865219Y-72786046D01*
X116848876Y-72771718D01*
X116826928Y-72751514D01*
X116798946Y-72725017D01*
X116764497Y-72691811D01*
X116723150Y-72651479D01*
X116674476Y-72603604D01*
X116618042Y-72547768D01*
X116553417Y-72483556D01*
X116480171Y-72410549D01*
X116397873Y-72328331D01*
X115922857Y-71853352D01*
X115922857Y-71321856D01*
X115922857Y-70790360D01*
X115958609Y-70770183D01*
X115967599Y-70764744D01*
X116002909Y-70737386D01*
X116037736Y-70702199D01*
X116068449Y-70663171D01*
X116091418Y-70624289D01*
X116101559Y-70599383D01*
X116112492Y-70564289D01*
X116119702Y-70531404D01*
X116120993Y-70522162D01*
X116122422Y-70459423D01*
X116111694Y-70398985D01*
X116089976Y-70342201D01*
X116058435Y-70290424D01*
X116018236Y-70245006D01*
X115970546Y-70207300D01*
X115916533Y-70178658D01*
X115857363Y-70160435D01*
X115794202Y-70153981D01*
X115749287Y-70156816D01*
X115685771Y-70171524D01*
X115627432Y-70198115D01*
X115575464Y-70235838D01*
X115531058Y-70283945D01*
X115495408Y-70341686D01*
X115466752Y-70399517D01*
X115466752Y-70484490D01*
X115466752Y-70485229D01*
X115466896Y-70520565D01*
X115467752Y-70546011D01*
X115469959Y-70565130D01*
X115474155Y-70581484D01*
X115480978Y-70598634D01*
X115491066Y-70620142D01*
X115491193Y-70620407D01*
X115525690Y-70678226D01*
X115568972Y-70727503D01*
X115619357Y-70766319D01*
X115659329Y-70790991D01*
X115659329Y-71190372D01*
X115659329Y-71589753D01*
X115166991Y-71097449D01*
X114674652Y-70605145D01*
X114687354Y-70571716D01*
X114693696Y-70550710D01*
X114700113Y-70520133D01*
X114704156Y-70489683D01*
X114704853Y-70444461D01*
X114695325Y-70382010D01*
X114674426Y-70323754D01*
X114643331Y-70270967D01*
X114603213Y-70224921D01*
X114555247Y-70186892D01*
X114500605Y-70158151D01*
X114440463Y-70139972D01*
X114375992Y-70133630D01*
X114310612Y-70139410D01*
X114249446Y-70157399D01*
X114193347Y-70187842D01*
X114141731Y-70230982D01*
X114129550Y-70243785D01*
X114089960Y-70297117D01*
X114062287Y-70355751D01*
X114046927Y-70418237D01*
X114044278Y-70483122D01*
X112364505Y-70483122D01*
X112315762Y-70465278D01*
X112122022Y-70408695D01*
X111923364Y-70364648D01*
X111719931Y-70333184D01*
X111705589Y-70331594D01*
X111670656Y-70328387D01*
X111626822Y-70324932D01*
X111577057Y-70321416D01*
X111524332Y-70318026D01*
X111471616Y-70314948D01*
X111421879Y-70312371D01*
X111378091Y-70310480D01*
X111343221Y-70309463D01*
X111342833Y-70309500D01*
X111340082Y-70313295D01*
X111337986Y-70324218D01*
X111336477Y-70343547D01*
X111335485Y-70372558D01*
X111334941Y-70412526D01*
X111334775Y-70464728D01*
X110321208Y-70464728D01*
X110321208Y-70140923D01*
X110025584Y-70138966D01*
X109993494Y-70138752D01*
X109928026Y-70138287D01*
X109874202Y-70137809D01*
X109830713Y-70137245D01*
X109796252Y-70136524D01*
X109769511Y-70135575D01*
X109749183Y-70134327D01*
X109733959Y-70132709D01*
X109722533Y-70130649D01*
X109713595Y-70128075D01*
X109705839Y-70124918D01*
X109697957Y-70121104D01*
X109656951Y-70094521D01*
X109618946Y-70055190D01*
X109589550Y-70006707D01*
X109581742Y-69989189D01*
X109573531Y-69965180D01*
X109569653Y-69940989D01*
X109568678Y-69909990D01*
X109568625Y-69906262D01*
X109568130Y-69897724D01*
X109567369Y-69890063D01*
X109566659Y-69882940D01*
X109566316Y-69876018D01*
X109566655Y-69868960D01*
X109567994Y-69861429D01*
X109570647Y-69853087D01*
X109574932Y-69843597D01*
X109581164Y-69832623D01*
X109589659Y-69819826D01*
X109600733Y-69804869D01*
X109614703Y-69787416D01*
X109631884Y-69767129D01*
X109652593Y-69743671D01*
X109677146Y-69716704D01*
X109705858Y-69685891D01*
X109739046Y-69650896D01*
X109777026Y-69611380D01*
X109820114Y-69567007D01*
X109868626Y-69517439D01*
X109922878Y-69462340D01*
X109983187Y-69401371D01*
X110049868Y-69334195D01*
X110123237Y-69260476D01*
X110203611Y-69179876D01*
X110291305Y-69092058D01*
X110386636Y-68996685D01*
X110489919Y-68893419D01*
X110601472Y-68781923D01*
X110721609Y-68661860D01*
X110850647Y-68532893D01*
X110988903Y-68394684D01*
X112366603Y-67017244D01*
X112357615Y-67060153D01*
X112356067Y-67067594D01*
X112346426Y-67117258D01*
X112338921Y-67163648D01*
X112333318Y-67209557D01*
X112329380Y-67257782D01*
X112326872Y-67311117D01*
X112325557Y-67372357D01*
X112325200Y-67444297D01*
X112325327Y-67479693D01*
X112326593Y-67554883D01*
X112329514Y-67621070D01*
X112334458Y-67681392D01*
X112341794Y-67738981D01*
X112351889Y-67796974D01*
X112365112Y-67858505D01*
X112381829Y-67926709D01*
X112405182Y-68009863D01*
X112457691Y-68159095D01*
X112522269Y-68303562D01*
X112598302Y-68442365D01*
X112685175Y-68574604D01*
X112782275Y-68699381D01*
X112888986Y-68815797D01*
X113004696Y-68922954D01*
X113128789Y-69019952D01*
X113243995Y-69096767D01*
X113384754Y-69176229D01*
X113529881Y-69242926D01*
X113679550Y-69296918D01*
X113833929Y-69338265D01*
X113993191Y-69367028D01*
X114157507Y-69383266D01*
X114214368Y-69385832D01*
X114372619Y-69384114D01*
X114528358Y-69369589D01*
X114680981Y-69342702D01*
X114829886Y-69303897D01*
X114974469Y-69253616D01*
X115114126Y-69192303D01*
X115248253Y-69120402D01*
X115376249Y-69038357D01*
X115497507Y-68946611D01*
X115611427Y-68845608D01*
X115717403Y-68735790D01*
X115814833Y-68617603D01*
X115903113Y-68491490D01*
X115981640Y-68357893D01*
X116049809Y-68217257D01*
X116107018Y-68070026D01*
X116152664Y-67916642D01*
X116161489Y-67880006D01*
X116183816Y-67764477D01*
X116199473Y-67644170D01*
X116208389Y-67521796D01*
X116210490Y-67400069D01*
X116205706Y-67281702D01*
X116193964Y-67169408D01*
X116175193Y-67065899D01*
X116175803Y-67065922D01*
X116183964Y-67072687D01*
X116201530Y-67088928D01*
X116228417Y-67114563D01*
X116264543Y-67149510D01*
X116309825Y-67193687D01*
X116364181Y-67247013D01*
X116427527Y-67309404D01*
X116499781Y-67380781D01*
X116580859Y-67461059D01*
X116670680Y-67550158D01*
X116769161Y-67647995D01*
X116876218Y-67754490D01*
X116991769Y-67869559D01*
X117115731Y-67993120D01*
X117248021Y-68125093D01*
X117388557Y-68265395D01*
X117537256Y-68413944D01*
X117572666Y-68449329D01*
X117708293Y-68584884D01*
X117834734Y-68711295D01*
X117952300Y-68828876D01*
X118061302Y-68937943D01*
X118162051Y-69038810D01*
X118254857Y-69131793D01*
X118340032Y-69217205D01*
X118417886Y-69295362D01*
X118488730Y-69366579D01*
X118552875Y-69431170D01*
X118610631Y-69489450D01*
X118662309Y-69541734D01*
X118708221Y-69588337D01*
X118748677Y-69629574D01*
X118783988Y-69665758D01*
X118814464Y-69697207D01*
X118840417Y-69724233D01*
X118862157Y-69747152D01*
X118879994Y-69766279D01*
X118894241Y-69781928D01*
X118905208Y-69794414D01*
X118913205Y-69804053D01*
X118918543Y-69811158D01*
X118921533Y-69816045D01*
X118930645Y-69836353D01*
X118936458Y-69856224D01*
X118939213Y-69879272D01*
X118939909Y-69910645D01*
X118939448Y-69936788D01*
X118937001Y-69962071D01*
X118931550Y-69983389D01*
X118922103Y-70006055D01*
X118897116Y-70048855D01*
X118860412Y-70088973D01*
X118815988Y-70118225D01*
X118777739Y-70137008D01*
X118483804Y-70140387D01*
X118189870Y-70143765D01*
X118189282Y-70468463D01*
X118186491Y-72008729D01*
G37*
G36*
X98420385Y-99230392D02*
G01*
X99137114Y-99438870D01*
X99837121Y-99730007D01*
X100388839Y-100057049D01*
X100613085Y-100238767D01*
X101205778Y-100893023D01*
X101621923Y-101696870D01*
X101898130Y-102714775D01*
X101971256Y-103208113D01*
X101964362Y-104202076D01*
X101724795Y-105030673D01*
X101257148Y-105682075D01*
X100566017Y-106144455D01*
X100268535Y-106263769D01*
X99731779Y-106399071D01*
X99304944Y-106404939D01*
X99063401Y-106274835D01*
X99054357Y-106223178D01*
X99164585Y-105991025D01*
X99425980Y-105695357D01*
X99543315Y-105583016D01*
X99731170Y-105358914D01*
X99832925Y-105104061D01*
X99874772Y-104729715D01*
X99882901Y-104147131D01*
X99859835Y-103420478D01*
X99656371Y-102008934D01*
X99244519Y-100800494D01*
X99122642Y-100563793D01*
X98790440Y-100155069D01*
X98297643Y-99865181D01*
X98230679Y-99834146D01*
X97880134Y-99614457D01*
X97674943Y-99391045D01*
X97650077Y-99218507D01*
X97840504Y-99151442D01*
X98420385Y-99230392D01*
G37*
G36*
X152531103Y-96318978D02*
G01*
X152413502Y-96501021D01*
X152165697Y-96846783D01*
X151019244Y-98359633D01*
X149523048Y-100141427D01*
X148033751Y-101702287D01*
X146566029Y-103029194D01*
X145134553Y-104109130D01*
X143754000Y-104929077D01*
X142439042Y-105476016D01*
X142244815Y-105530327D01*
X141561964Y-105641105D01*
X140836681Y-105666702D01*
X140178117Y-105607587D01*
X139695422Y-105464229D01*
X139215029Y-105099556D01*
X138778299Y-104439048D01*
X138475698Y-103521894D01*
X138304818Y-102342689D01*
X138294641Y-102210057D01*
X138281710Y-101864618D01*
X138317783Y-101770559D01*
X138410985Y-101893507D01*
X138679461Y-102290880D01*
X139354869Y-102916313D01*
X140181868Y-103315178D01*
X141102199Y-103453700D01*
X141192643Y-103452397D01*
X142259453Y-103310496D01*
X143460216Y-102948986D01*
X144759951Y-102388460D01*
X146123674Y-101649514D01*
X147516403Y-100752742D01*
X148903156Y-99718736D01*
X150248950Y-98568093D01*
X151518804Y-97321406D01*
X151951587Y-96866023D01*
X152315256Y-96490393D01*
X152503391Y-96311740D01*
X152531103Y-96318978D01*
G37*
G36*
X97027914Y-99237846D02*
G01*
X97060679Y-99417039D01*
X96997260Y-99620477D01*
X96693621Y-99803194D01*
X96428678Y-99930739D01*
X96143189Y-100227776D01*
X96064127Y-100465413D01*
X95998925Y-100992719D01*
X95985350Y-101672785D01*
X96021352Y-102424344D01*
X96104875Y-103166130D01*
X96233868Y-103816876D01*
X96241509Y-103845912D01*
X96555495Y-104746719D01*
X96963140Y-105388254D01*
X97490194Y-105799808D01*
X98162405Y-106010673D01*
X98326856Y-106065243D01*
X98508994Y-106241812D01*
X98501330Y-106319305D01*
X98301000Y-106401838D01*
X97837913Y-106427484D01*
X97713758Y-106425829D01*
X96654530Y-106261520D01*
X95731074Y-105836120D01*
X94961177Y-105160791D01*
X94362625Y-104246695D01*
X94158562Y-103805152D01*
X93995642Y-103321202D01*
X93917517Y-102808416D01*
X93894610Y-102133227D01*
X93902410Y-101528105D01*
X93950555Y-101081437D01*
X94059264Y-100744533D01*
X94248413Y-100421213D01*
X94779483Y-99880851D01*
X95528423Y-99469105D01*
X96429392Y-99223027D01*
X96531191Y-99207333D01*
X96877485Y-99175955D01*
X97027914Y-99237846D01*
G37*
G36*
X128440602Y-99149300D02*
G01*
X128947280Y-99168058D01*
X129305885Y-99211655D01*
X129441966Y-99271485D01*
X129446980Y-99328051D01*
X129488623Y-99630659D01*
X129563312Y-100119036D01*
X129659987Y-100719731D01*
X129757293Y-101316258D01*
X129894926Y-102168726D01*
X130043279Y-103094539D01*
X130183529Y-103976607D01*
X130201856Y-104092266D01*
X130319455Y-104826227D01*
X130423061Y-105459641D01*
X130502038Y-105928186D01*
X130545753Y-106167543D01*
X130552164Y-106231665D01*
X130509226Y-106308462D01*
X130367258Y-106362167D01*
X130086653Y-106396850D01*
X129627804Y-106416583D01*
X128951105Y-106425438D01*
X128016948Y-106427484D01*
X127961158Y-106427477D01*
X127027255Y-106423824D01*
X126349765Y-106411217D01*
X125890061Y-106386327D01*
X125609522Y-106345826D01*
X125469523Y-106286386D01*
X125431439Y-106204677D01*
X125439107Y-106156553D01*
X125536382Y-106069237D01*
X125784268Y-106015859D01*
X126231504Y-105989157D01*
X126926829Y-105981870D01*
X127588111Y-105977700D01*
X128025543Y-105958759D01*
X128263999Y-105915906D01*
X128353253Y-105840008D01*
X128343077Y-105721929D01*
X128330287Y-105671942D01*
X128265778Y-105346424D01*
X128169844Y-104804626D01*
X128051829Y-104104862D01*
X127921073Y-103305448D01*
X127786920Y-102464701D01*
X127658710Y-101640934D01*
X127545787Y-100892465D01*
X127457491Y-100277607D01*
X127403164Y-99854677D01*
X127324637Y-99149122D01*
X128383301Y-99149122D01*
X128440602Y-99149300D01*
G37*
G36*
X146148368Y-94840861D02*
G01*
X146850798Y-94976259D01*
X148132799Y-95380353D01*
X149220560Y-95967952D01*
X150153861Y-96758097D01*
X150738857Y-97362226D01*
X150409835Y-97712453D01*
X150080814Y-98062681D01*
X149572035Y-97582840D01*
X149039593Y-97160395D01*
X148053924Y-96649876D01*
X146942759Y-96331596D01*
X145776320Y-96216563D01*
X144624828Y-96315783D01*
X143558504Y-96640263D01*
X143069542Y-96895953D01*
X142427273Y-97380047D01*
X141931216Y-97937979D01*
X141603682Y-98525446D01*
X141466984Y-99098146D01*
X141543434Y-99611777D01*
X141855344Y-100022035D01*
X142336741Y-100283268D01*
X143122048Y-100435375D01*
X144090760Y-100395607D01*
X145219952Y-100165329D01*
X146486702Y-99745910D01*
X146618271Y-99695317D01*
X147099284Y-99515909D01*
X147436481Y-99399072D01*
X147563603Y-99368055D01*
X147548510Y-99384761D01*
X147360355Y-99527364D01*
X147002312Y-99778979D01*
X146531810Y-100098928D01*
X145953593Y-100467030D01*
X144872378Y-101068381D01*
X143800566Y-101565636D01*
X142840994Y-101908378D01*
X142405008Y-102005517D01*
X141652917Y-102078177D01*
X140906934Y-102055765D01*
X140260383Y-101943283D01*
X139806591Y-101745734D01*
X139386888Y-101322868D01*
X139059102Y-100616810D01*
X138951661Y-99720826D01*
X138969850Y-99356696D01*
X139169837Y-98504219D01*
X139610569Y-97695287D01*
X140317078Y-96877781D01*
X141270668Y-96090509D01*
X142428832Y-95434743D01*
X143668736Y-94993594D01*
X144929031Y-94788490D01*
X146148368Y-94840861D01*
G37*
G36*
X114052100Y-99275544D02*
G01*
X115111970Y-99523381D01*
X115997666Y-100002268D01*
X116696012Y-100697271D01*
X117193830Y-101593458D01*
X117477944Y-102675895D01*
X117535177Y-103929649D01*
X117528699Y-104065855D01*
X117486668Y-104623301D01*
X117409906Y-104993996D01*
X117269953Y-105270485D01*
X117038350Y-105545314D01*
X116955613Y-105629170D01*
X116541922Y-105975667D01*
X116147814Y-106216953D01*
X116038459Y-106257719D01*
X115518992Y-106358746D01*
X114843188Y-106405258D01*
X114115526Y-106397238D01*
X113440482Y-106334667D01*
X112922537Y-106217526D01*
X112827775Y-106181682D01*
X112112405Y-105781891D01*
X111509090Y-105228885D01*
X111110234Y-104604888D01*
X111057994Y-104478893D01*
X110927123Y-104142910D01*
X110874714Y-103973601D01*
X110875056Y-103971752D01*
X111023318Y-103936712D01*
X111389180Y-103911812D01*
X111896847Y-103902338D01*
X112918979Y-103902338D01*
X113078417Y-104535523D01*
X113158212Y-104796584D01*
X113481039Y-105395042D01*
X113919641Y-105792877D01*
X114428589Y-105958175D01*
X114962450Y-105859020D01*
X115039802Y-105817137D01*
X115281756Y-105542221D01*
X115423502Y-105071551D01*
X115470757Y-104375304D01*
X115429239Y-103423653D01*
X115376183Y-102893057D01*
X115181816Y-101826124D01*
X114893616Y-100952558D01*
X114524128Y-100297481D01*
X114085896Y-99886013D01*
X113591462Y-99743274D01*
X113342872Y-99759160D01*
X112925048Y-99922430D01*
X112670097Y-100292544D01*
X112544595Y-100906642D01*
X112470835Y-101674268D01*
X111524237Y-101674268D01*
X110577638Y-101674268D01*
X110577638Y-101148370D01*
X110581951Y-101041122D01*
X110765762Y-100424215D01*
X111179351Y-99878881D01*
X111765942Y-99484609D01*
X112040987Y-99393213D01*
X112658718Y-99286430D01*
X113399860Y-99243127D01*
X114052100Y-99275544D01*
G37*
G36*
X151620093Y-98861276D02*
G01*
X151783180Y-99064525D01*
X151946843Y-99488706D01*
X152095057Y-100073564D01*
X152211797Y-100758841D01*
X152281039Y-101484282D01*
X152281109Y-101485547D01*
X152307230Y-102227681D01*
X152280524Y-102798453D01*
X152187544Y-103320779D01*
X152014845Y-103917573D01*
X151659443Y-104817967D01*
X150942130Y-106033273D01*
X150030443Y-107059965D01*
X149896264Y-107177257D01*
X149131950Y-107717441D01*
X148227004Y-108202542D01*
X147295014Y-108577737D01*
X146449568Y-108788206D01*
X146293529Y-108808781D01*
X144885371Y-108844130D01*
X143482555Y-108626411D01*
X143299314Y-108572754D01*
X142715456Y-108349587D01*
X142052108Y-108046159D01*
X141429899Y-107719970D01*
X140969457Y-107428518D01*
X140843299Y-107313920D01*
X140864170Y-107225896D01*
X141089526Y-107145760D01*
X141563609Y-107044949D01*
X142205508Y-106882578D01*
X143447377Y-106393245D01*
X144723908Y-105684507D01*
X145978643Y-104789711D01*
X147155123Y-103742207D01*
X147420816Y-103480529D01*
X147800137Y-103117894D01*
X148060828Y-102883306D01*
X148157755Y-102818355D01*
X148138876Y-102906951D01*
X148006599Y-103226290D01*
X147788195Y-103659005D01*
X147531548Y-104113078D01*
X147284538Y-104496490D01*
X147057676Y-104792296D01*
X146659728Y-105267863D01*
X146236168Y-105739398D01*
X145558340Y-106462423D01*
X146528206Y-106390419D01*
X147067922Y-106318602D01*
X148129397Y-105965376D01*
X149071819Y-105345140D01*
X149885218Y-104465454D01*
X150559626Y-103333875D01*
X150764283Y-102888100D01*
X150910078Y-102483530D01*
X150989944Y-102075388D01*
X151022273Y-101565904D01*
X151025452Y-100857309D01*
X151029595Y-100224706D01*
X151062137Y-99674274D01*
X151131306Y-99321451D01*
X151243893Y-99111987D01*
X151407979Y-98951511D01*
X151581023Y-98852046D01*
X151620093Y-98861276D01*
G37*
G36*
X135810103Y-100226022D02*
G01*
X135859850Y-100509632D01*
X136421752Y-103976607D01*
X136476530Y-104333823D01*
X136588010Y-105034101D01*
X136690131Y-105647660D01*
X136824499Y-106427484D01*
X134247268Y-106427484D01*
X134203120Y-106427480D01*
X133267954Y-106423889D01*
X132589556Y-106411340D01*
X132129246Y-106386488D01*
X131848342Y-106345990D01*
X131708166Y-106286501D01*
X131670036Y-106204677D01*
X131677703Y-106156553D01*
X131774978Y-106069237D01*
X132022865Y-106015859D01*
X132470101Y-105989157D01*
X133165426Y-105981870D01*
X133824366Y-105977721D01*
X134263031Y-105958788D01*
X134502669Y-105915935D01*
X134593143Y-105840027D01*
X134584313Y-105721929D01*
X134572250Y-105675331D01*
X134506802Y-105347018D01*
X134419494Y-104837791D01*
X134325797Y-104236549D01*
X134143782Y-103011110D01*
X132906909Y-103011110D01*
X132696707Y-103010206D01*
X132172273Y-102998884D01*
X131807080Y-102977325D01*
X131670036Y-102948990D01*
X131658521Y-102888699D01*
X131579875Y-102651914D01*
X131565740Y-102604366D01*
X131598606Y-102507324D01*
X131776136Y-102450431D01*
X132149078Y-102423654D01*
X132768179Y-102416958D01*
X133014878Y-102416260D01*
X133542855Y-102409313D01*
X133909299Y-102396511D01*
X134046441Y-102379824D01*
X134042328Y-102349620D01*
X134000753Y-102098695D01*
X133923967Y-101652433D01*
X133823837Y-101080116D01*
X133781476Y-100838974D01*
X133689318Y-100309076D01*
X133625281Y-99933126D01*
X133601233Y-99780408D01*
X133553120Y-99770814D01*
X133272246Y-99756646D01*
X132796335Y-99746900D01*
X132189919Y-99743274D01*
X131825267Y-99741158D01*
X131286911Y-99728796D01*
X130916586Y-99707848D01*
X130778808Y-99681153D01*
X130767293Y-99620863D01*
X130688647Y-99384077D01*
X130680060Y-99356719D01*
X130697496Y-99277616D01*
X130818242Y-99221329D01*
X131081047Y-99184097D01*
X131524658Y-99162159D01*
X132187823Y-99151754D01*
X133109289Y-99149122D01*
X135620092Y-99149122D01*
X135810103Y-100226022D01*
G37*
G36*
X121349066Y-99152812D02*
G01*
X122086895Y-99168982D01*
X122674524Y-99195781D01*
X123062999Y-99230763D01*
X123203369Y-99271485D01*
X123208384Y-99328051D01*
X123250027Y-99630659D01*
X123324715Y-100119036D01*
X123421391Y-100719731D01*
X123518696Y-101316258D01*
X123656330Y-102168726D01*
X123804683Y-103094539D01*
X123944932Y-103976607D01*
X123963259Y-104092266D01*
X124080859Y-104826227D01*
X124184464Y-105459641D01*
X124263441Y-105928186D01*
X124307156Y-106167543D01*
X124313567Y-106231665D01*
X124270630Y-106308462D01*
X124128662Y-106362167D01*
X123848056Y-106396850D01*
X123389207Y-106416583D01*
X122712508Y-106425438D01*
X121778352Y-106427484D01*
X121722561Y-106427477D01*
X120788659Y-106423824D01*
X120111168Y-106411217D01*
X119651465Y-106386327D01*
X119370926Y-106345826D01*
X119230926Y-106286386D01*
X119192843Y-106204677D01*
X119200510Y-106156553D01*
X119297785Y-106069237D01*
X119545672Y-106015859D01*
X119992908Y-105989157D01*
X120688233Y-105981870D01*
X121347075Y-105977721D01*
X121785791Y-105958790D01*
X122025479Y-105915937D01*
X122116004Y-105840028D01*
X122107231Y-105721929D01*
X122095332Y-105675637D01*
X122031421Y-105347443D01*
X121947092Y-104838071D01*
X121857326Y-104236549D01*
X121683813Y-103011110D01*
X120438328Y-103011110D01*
X120220589Y-103010153D01*
X119695399Y-102998766D01*
X119329927Y-102977237D01*
X119192843Y-102948990D01*
X119181328Y-102888699D01*
X119102682Y-102651914D01*
X119087990Y-102601019D01*
X119124238Y-102505708D01*
X119305819Y-102449831D01*
X119683261Y-102423534D01*
X120307089Y-102416958D01*
X120312508Y-102416958D01*
X120930285Y-102413551D01*
X121305749Y-102393383D01*
X121493267Y-102341498D01*
X121547209Y-102242939D01*
X121521944Y-102082748D01*
X121493260Y-101946771D01*
X121418517Y-101513702D01*
X121344818Y-101005847D01*
X121282332Y-100525203D01*
X121202470Y-100121559D01*
X121064153Y-99887351D01*
X120807805Y-99776771D01*
X120373851Y-99744014D01*
X119702716Y-99743274D01*
X119087013Y-99739464D01*
X118660460Y-99719582D01*
X118424239Y-99671894D01*
X118323055Y-99584674D01*
X118301615Y-99446198D01*
X118308149Y-99361342D01*
X118358820Y-99275232D01*
X118496039Y-99216223D01*
X118761911Y-99179211D01*
X119198540Y-99159092D01*
X119848033Y-99150764D01*
X120752492Y-99149122D01*
X121349066Y-99152812D01*
G37*
G36*
X109472925Y-102565496D02*
G01*
X109483080Y-102624449D01*
X109610900Y-103390516D01*
X109738828Y-104193140D01*
X109840597Y-104867835D01*
X109840661Y-104868282D01*
X109927046Y-105427467D01*
X110009821Y-105894224D01*
X110071074Y-106167543D01*
X110080161Y-106199701D01*
X110071557Y-106320542D01*
X109933312Y-106389371D01*
X109609668Y-106420310D01*
X109044864Y-106427484D01*
X107937685Y-106427484D01*
X107838132Y-105721929D01*
X107785223Y-105361672D01*
X107684758Y-104713665D01*
X107580600Y-104073015D01*
X107422621Y-103129658D01*
X106957732Y-103220923D01*
X106620332Y-103322318D01*
X106383570Y-103507850D01*
X106226331Y-103830044D01*
X106122665Y-104342369D01*
X106046623Y-105098295D01*
X105941422Y-106427484D01*
X104827264Y-106427484D01*
X104274222Y-106419467D01*
X103939055Y-106386685D01*
X103798410Y-106317611D01*
X103800120Y-106200728D01*
X103809887Y-106170096D01*
X103865883Y-105869685D01*
X103928375Y-105381038D01*
X103985573Y-104793613D01*
X104029498Y-104360875D01*
X104145299Y-103775935D01*
X104339600Y-103396150D01*
X104649671Y-103162782D01*
X105112783Y-103017090D01*
X105601615Y-102909564D01*
X104942166Y-102724222D01*
X104830480Y-102688428D01*
X104270898Y-102413165D01*
X103790996Y-102047158D01*
X103764140Y-102020157D01*
X103466043Y-101667441D01*
X103331008Y-101318209D01*
X103299276Y-100823786D01*
X103321567Y-100551503D01*
X105438276Y-100551503D01*
X105451612Y-101145543D01*
X105636788Y-101753332D01*
X105975570Y-102271215D01*
X106369893Y-102591719D01*
X106849514Y-102714034D01*
X107050506Y-102707677D01*
X107207969Y-102655730D01*
X107283656Y-102508873D01*
X107284487Y-102217806D01*
X107217380Y-101733231D01*
X107089255Y-101005847D01*
X107057450Y-100829728D01*
X106963243Y-100306825D01*
X106896272Y-99933212D01*
X106869370Y-99780408D01*
X106864794Y-99775828D01*
X106691876Y-99752695D01*
X106347729Y-99743274D01*
X106313429Y-99743533D01*
X105882591Y-99828680D01*
X105594451Y-100104706D01*
X105438276Y-100551503D01*
X103321567Y-100551503D01*
X103334792Y-100389955D01*
X103491559Y-99962190D01*
X103799794Y-99639681D01*
X104287997Y-99409956D01*
X104984666Y-99260541D01*
X105918300Y-99178965D01*
X107117399Y-99152753D01*
X108930259Y-99149122D01*
X109003235Y-99631870D01*
X109010082Y-99677184D01*
X109085817Y-100179325D01*
X109165486Y-100708771D01*
X109177286Y-100786031D01*
X109254455Y-101267475D01*
X109359388Y-101899204D01*
X109413678Y-102217806D01*
X109472925Y-102565496D01*
G37*
G36*
X87238060Y-99151110D02*
G01*
X87344143Y-99179490D01*
X87455578Y-99263768D01*
X87591252Y-99433575D01*
X87770049Y-99718543D01*
X88010855Y-100148302D01*
X88332555Y-100752482D01*
X88754034Y-101560715D01*
X89294179Y-102602631D01*
X89484860Y-102963098D01*
X89755357Y-103447025D01*
X89960032Y-103779042D01*
X90065184Y-103902338D01*
X90098132Y-103858168D01*
X90187961Y-103586392D01*
X90303275Y-103121826D01*
X90427237Y-102528362D01*
X90468039Y-102317518D01*
X90616493Y-101561837D01*
X90762561Y-100832854D01*
X90879757Y-100263157D01*
X91067515Y-99371929D01*
X92185462Y-99328941D01*
X93303410Y-99285952D01*
X93037368Y-100517245D01*
X92994375Y-100717039D01*
X92848910Y-101399340D01*
X92669089Y-102249089D01*
X92473719Y-103177265D01*
X92281605Y-104094842D01*
X91791884Y-106441147D01*
X91219607Y-106397181D01*
X91068470Y-106383837D01*
X90876018Y-106342479D01*
X90707221Y-106240600D01*
X90529317Y-106037918D01*
X90309542Y-105694149D01*
X90015135Y-105169011D01*
X89613333Y-104422221D01*
X89459963Y-104134683D01*
X89102856Y-103456034D01*
X88804636Y-102876590D01*
X88592858Y-102450343D01*
X88495080Y-102231286D01*
X88447554Y-102109989D01*
X88310554Y-101980353D01*
X88177926Y-102125052D01*
X88072062Y-102528362D01*
X88019840Y-102819909D01*
X87905104Y-103386722D01*
X87774252Y-103976607D01*
X87689045Y-104345247D01*
X87531485Y-105039945D01*
X87396889Y-105647660D01*
X87293609Y-106083076D01*
X87181255Y-106322752D01*
X86998706Y-106413386D01*
X86679234Y-106427484D01*
X86392925Y-106412306D01*
X86165198Y-106320118D01*
X85969375Y-106086620D01*
X85727130Y-105647660D01*
X85550901Y-105312175D01*
X85198366Y-104657473D01*
X84862948Y-104050876D01*
X84734156Y-103822182D01*
X84424560Y-103270821D01*
X84102640Y-102694687D01*
X83724634Y-102015352D01*
X83246782Y-101154385D01*
X82990534Y-100692858D01*
X82698946Y-100168759D01*
X82482228Y-99780408D01*
X82211953Y-99297660D01*
X82703560Y-99297660D01*
X82751507Y-99297823D01*
X82921144Y-99311289D01*
X83068562Y-99372614D01*
X83219267Y-99518276D01*
X83398766Y-99784752D01*
X83632563Y-100208519D01*
X83946167Y-100826054D01*
X84365083Y-101673833D01*
X84714913Y-102370458D01*
X85058384Y-103024648D01*
X85340862Y-103530802D01*
X85539956Y-103848929D01*
X85633278Y-103939038D01*
X85654099Y-103894118D01*
X85734831Y-103605618D01*
X85851455Y-103103138D01*
X85991696Y-102441186D01*
X86143280Y-101674268D01*
X86207399Y-101340986D01*
X86352914Y-100600616D01*
X86478813Y-99981527D01*
X86573380Y-99540619D01*
X86624902Y-99334794D01*
X86773963Y-99210836D01*
X87093068Y-99149122D01*
X87118446Y-99148999D01*
X87238060Y-99151110D01*
G37*
%TD*%
M02*
