%TF.GenerationSoftware,KiCad,Pcbnew,9.0.1*%
%TF.CreationDate,2025-07-02T11:29:09+02:00*%
%TF.ProjectId,bewaesserung,62657761-6573-4736-9572-756e672e6b69,rev?*%
%TF.SameCoordinates,Original*%
%TF.FileFunction,Soldermask,Bot*%
%TF.FilePolarity,Negative*%
%FSLAX46Y46*%
G04 Gerber Fmt 4.6, Leading zero omitted, Abs format (unit mm)*
G04 Created by KiCad (PCBNEW 9.0.1) date 2025-07-02 11:29:09*
%MOMM*%
%LPD*%
G01*
G04 APERTURE LIST*
G04 Aperture macros list*
%AMRoundRect*
0 Rectangle with rounded corners*
0 $1 Rounding radius*
0 $2 $3 $4 $5 $6 $7 $8 $9 X,Y pos of 4 corners*
0 Add a 4 corners polygon primitive as box body*
4,1,4,$2,$3,$4,$5,$6,$7,$8,$9,$2,$3,0*
0 Add four circle primitives for the rounded corners*
1,1,$1+$1,$2,$3*
1,1,$1+$1,$4,$5*
1,1,$1+$1,$6,$7*
1,1,$1+$1,$8,$9*
0 Add four rect primitives between the rounded corners*
20,1,$1+$1,$2,$3,$4,$5,0*
20,1,$1+$1,$4,$5,$6,$7,0*
20,1,$1+$1,$6,$7,$8,$9,0*
20,1,$1+$1,$8,$9,$2,$3,0*%
G04 Aperture macros list end*
%ADD10R,1.700000X1.700000*%
%ADD11C,1.700000*%
%ADD12R,1.980000X3.960000*%
%ADD13O,1.980000X3.960000*%
%ADD14R,2.000000X2.000000*%
%ADD15C,2.000000*%
%ADD16C,2.020000*%
%ADD17RoundRect,0.250000X1.000000X-1.000000X1.000000X1.000000X-1.000000X1.000000X-1.000000X-1.000000X0*%
%ADD18C,2.500000*%
G04 APERTURE END LIST*
D10*
%TO.C,J5*%
X159766000Y-78486000D03*
D11*
X157226000Y-78486000D03*
X154686000Y-78486000D03*
%TD*%
D12*
%TO.C,J10*%
X151892000Y-119380000D03*
D13*
X156892000Y-119380000D03*
%TD*%
D11*
%TO.C,U2*%
X135382000Y-80518000D03*
X137922000Y-80518000D03*
X127762000Y-80518000D03*
X140462000Y-80518000D03*
X143002000Y-80518000D03*
X145542000Y-80518000D03*
X148082000Y-80518000D03*
D10*
X125222000Y-80518000D03*
D11*
X132842000Y-80518000D03*
X130302000Y-80518000D03*
%TD*%
D10*
%TO.C,J3*%
X159766000Y-96266000D03*
D11*
X157226000Y-96266000D03*
X154686000Y-96266000D03*
%TD*%
D10*
%TO.C,J15*%
X120142000Y-80640000D03*
D11*
X120142000Y-83180000D03*
%TD*%
D12*
%TO.C,J7*%
X115172000Y-119380000D03*
D13*
X120172000Y-119380000D03*
%TD*%
D12*
%TO.C,J9*%
X139652000Y-119380000D03*
D13*
X144652000Y-119380000D03*
%TD*%
D14*
%TO.C,S2*%
X80570000Y-73442000D03*
D15*
X87070000Y-73442000D03*
X80570000Y-77942000D03*
X87070000Y-77942000D03*
%TD*%
D14*
%TO.C,S4*%
X71172000Y-104176000D03*
D15*
X77672000Y-104176000D03*
X71172000Y-108676000D03*
X77672000Y-108676000D03*
%TD*%
D16*
%TO.C,J12*%
X83566000Y-107950000D03*
X83566000Y-110490000D03*
X83566000Y-113030000D03*
X83566000Y-115570000D03*
X83566000Y-118110000D03*
X83566000Y-120650000D03*
X86106000Y-120650000D03*
X86106000Y-118110000D03*
X86106000Y-115570000D03*
X86106000Y-113030000D03*
X86106000Y-110490000D03*
X86106000Y-107950000D03*
%TD*%
D10*
%TO.C,J14*%
X92456000Y-113665000D03*
D11*
X92456000Y-116205000D03*
%TD*%
D14*
%TO.C,S3*%
X71172000Y-93508000D03*
D15*
X77672000Y-93508000D03*
X71172000Y-98008000D03*
X77672000Y-98008000D03*
%TD*%
D10*
%TO.C,J6*%
X146050000Y-87376000D03*
D11*
X146050000Y-89916000D03*
X146050000Y-92456000D03*
%TD*%
D16*
%TO.C,J11*%
X96520000Y-132080000D03*
X99060000Y-132080000D03*
X101600000Y-132080000D03*
X104140000Y-132080000D03*
X106680000Y-132080000D03*
X109220000Y-132080000D03*
X109220000Y-129540000D03*
X106680000Y-129540000D03*
X104140000Y-129540000D03*
X101600000Y-129540000D03*
X99060000Y-129540000D03*
X96520000Y-129540000D03*
%TD*%
D10*
%TO.C,J13*%
X138176000Y-95758000D03*
D11*
X138176000Y-93218000D03*
X138176000Y-90678000D03*
X138176000Y-88138000D03*
%TD*%
D10*
%TO.C,J2*%
X159766000Y-105156000D03*
D11*
X157226000Y-105156000D03*
X154686000Y-105156000D03*
%TD*%
D17*
%TO.C,J1*%
X74422000Y-120062000D03*
D18*
X74422000Y-115062000D03*
%TD*%
D10*
%TO.C,J4*%
X159766000Y-87376000D03*
D11*
X157226000Y-87376000D03*
X154686000Y-87376000D03*
%TD*%
D14*
%TO.C,S1*%
X71172000Y-82840000D03*
D15*
X77672000Y-82840000D03*
X71172000Y-87340000D03*
X77672000Y-87340000D03*
%TD*%
D12*
%TO.C,J8*%
X127412000Y-119380000D03*
D13*
X132412000Y-119380000D03*
%TD*%
M02*
