%TF.GenerationSoftware,KiCad,Pcbnew,9.0.1*%
%TF.CreationDate,2025-07-02T11:29:09+02:00*%
%TF.ProjectId,bewaesserung,62657761-6573-4736-9572-756e672e6b69,rev?*%
%TF.SameCoordinates,Original*%
%TF.FileFunction,Soldermask,Top*%
%TF.FilePolarity,Negative*%
%FSLAX46Y46*%
G04 Gerber Fmt 4.6, Leading zero omitted, Abs format (unit mm)*
G04 Created by KiCad (PCBNEW 9.0.1) date 2025-07-02 11:29:09*
%MOMM*%
%LPD*%
G01*
G04 APERTURE LIST*
G04 Aperture macros list*
%AMRoundRect*
0 Rectangle with rounded corners*
0 $1 Rounding radius*
0 $2 $3 $4 $5 $6 $7 $8 $9 X,Y pos of 4 corners*
0 Add a 4 corners polygon primitive as box body*
4,1,4,$2,$3,$4,$5,$6,$7,$8,$9,$2,$3,0*
0 Add four circle primitives for the rounded corners*
1,1,$1+$1,$2,$3*
1,1,$1+$1,$4,$5*
1,1,$1+$1,$6,$7*
1,1,$1+$1,$8,$9*
0 Add four rect primitives between the rounded corners*
20,1,$1+$1,$2,$3,$4,$5,0*
20,1,$1+$1,$4,$5,$6,$7,0*
20,1,$1+$1,$6,$7,$8,$9,0*
20,1,$1+$1,$8,$9,$2,$3,0*%
G04 Aperture macros list end*
%ADD10RoundRect,0.250000X-0.650000X0.325000X-0.650000X-0.325000X0.650000X-0.325000X0.650000X0.325000X0*%
%ADD11R,1.700000X1.700000*%
%ADD12C,1.700000*%
%ADD13RoundRect,0.250000X0.650000X-0.325000X0.650000X0.325000X-0.650000X0.325000X-0.650000X-0.325000X0*%
%ADD14RoundRect,0.250000X0.625000X-0.312500X0.625000X0.312500X-0.625000X0.312500X-0.625000X-0.312500X0*%
%ADD15R,1.980000X3.960000*%
%ADD16O,1.980000X3.960000*%
%ADD17RoundRect,0.250000X0.312500X0.625000X-0.312500X0.625000X-0.312500X-0.625000X0.312500X-0.625000X0*%
%ADD18RoundRect,0.250000X0.625000X-0.375000X0.625000X0.375000X-0.625000X0.375000X-0.625000X-0.375000X0*%
%ADD19R,0.600000X1.200000*%
%ADD20RoundRect,0.250000X-0.312500X-0.625000X0.312500X-0.625000X0.312500X0.625000X-0.312500X0.625000X0*%
%ADD21R,2.000000X2.000000*%
%ADD22C,2.000000*%
%ADD23RoundRect,0.243750X-0.456250X0.243750X-0.456250X-0.243750X0.456250X-0.243750X0.456250X0.243750X0*%
%ADD24C,2.020000*%
%ADD25RoundRect,0.250000X0.325000X0.650000X-0.325000X0.650000X-0.325000X-0.650000X0.325000X-0.650000X0*%
%ADD26R,2.500000X1.000000*%
%ADD27R,1.000000X1.800000*%
%ADD28RoundRect,0.250000X1.000000X-1.000000X1.000000X1.000000X-1.000000X1.000000X-1.000000X-1.000000X0*%
%ADD29C,2.500000*%
%ADD30RoundRect,0.375000X-0.625000X-0.375000X0.625000X-0.375000X0.625000X0.375000X-0.625000X0.375000X0*%
%ADD31RoundRect,0.500000X-0.500000X-1.400000X0.500000X-1.400000X0.500000X1.400000X-0.500000X1.400000X0*%
%ADD32RoundRect,0.150000X0.150000X-0.875000X0.150000X0.875000X-0.150000X0.875000X-0.150000X-0.875000X0*%
G04 APERTURE END LIST*
D10*
%TO.C,C4*%
X80518000Y-132043200D03*
X80518000Y-134993200D03*
%TD*%
D11*
%TO.C,J5*%
X159766000Y-78486000D03*
D12*
X157226000Y-78486000D03*
X154686000Y-78486000D03*
%TD*%
D13*
%TO.C,C1*%
X94016000Y-97113000D03*
X94016000Y-94163000D03*
%TD*%
D14*
%TO.C,R2*%
X125730000Y-96979833D03*
X125730000Y-94054833D03*
%TD*%
D15*
%TO.C,J10*%
X151892000Y-119380000D03*
D16*
X156892000Y-119380000D03*
%TD*%
D14*
%TO.C,R14*%
X129286000Y-103597167D03*
X129286000Y-100672167D03*
%TD*%
D17*
%TO.C,R10*%
X86298500Y-96689334D03*
X83373500Y-96689334D03*
%TD*%
D12*
%TO.C,U2*%
X135382000Y-80518000D03*
X137922000Y-80518000D03*
X127762000Y-80518000D03*
X140462000Y-80518000D03*
X143002000Y-80518000D03*
X145542000Y-80518000D03*
X148082000Y-80518000D03*
D11*
X125222000Y-80518000D03*
D12*
X132842000Y-80518000D03*
X130302000Y-80518000D03*
%TD*%
D11*
%TO.C,J3*%
X159766000Y-96266000D03*
D12*
X157226000Y-96266000D03*
X154686000Y-96266000D03*
%TD*%
D11*
%TO.C,J15*%
X120142000Y-80640000D03*
D12*
X120142000Y-83180000D03*
%TD*%
D15*
%TO.C,J7*%
X115172000Y-119380000D03*
D16*
X120172000Y-119380000D03*
%TD*%
D15*
%TO.C,J9*%
X139652000Y-119380000D03*
D16*
X144652000Y-119380000D03*
%TD*%
D14*
%TO.C,R12*%
X129286000Y-90616500D03*
X129286000Y-87691500D03*
%TD*%
D18*
%TO.C,D3*%
X121920000Y-103494667D03*
X121920000Y-100694667D03*
%TD*%
D19*
%TO.C,Q4*%
X147386000Y-107701500D03*
X148336000Y-105501500D03*
X149286000Y-107701500D03*
%TD*%
D20*
%TO.C,R11*%
X83373500Y-99462167D03*
X86298500Y-99462167D03*
%TD*%
D21*
%TO.C,S2*%
X80570000Y-73442000D03*
D22*
X87070000Y-73442000D03*
X80570000Y-77942000D03*
X87070000Y-77942000D03*
%TD*%
D21*
%TO.C,S4*%
X71172000Y-104176000D03*
D22*
X77672000Y-104176000D03*
X71172000Y-108676000D03*
X77672000Y-108676000D03*
%TD*%
D20*
%TO.C,R6*%
X83373500Y-85598000D03*
X86298500Y-85598000D03*
%TD*%
D23*
%TO.C,D8*%
X132842000Y-107774500D03*
X132842000Y-109649500D03*
%TD*%
D24*
%TO.C,J12*%
X83566000Y-107950000D03*
X83566000Y-110490000D03*
X83566000Y-113030000D03*
X83566000Y-115570000D03*
X83566000Y-118110000D03*
X83566000Y-120650000D03*
X86106000Y-120650000D03*
X86106000Y-118110000D03*
X86106000Y-115570000D03*
X86106000Y-113030000D03*
X86106000Y-110490000D03*
X86106000Y-107950000D03*
%TD*%
D19*
%TO.C,Q2*%
X147386000Y-101254500D03*
X148336000Y-99054500D03*
X149286000Y-101254500D03*
%TD*%
D25*
%TO.C,C2*%
X109376000Y-114808000D03*
X106426000Y-114808000D03*
%TD*%
D17*
%TO.C,R8*%
X86298500Y-91143667D03*
X83373500Y-91143667D03*
%TD*%
D11*
%TO.C,J14*%
X92456000Y-113665000D03*
D12*
X92456000Y-116205000D03*
%TD*%
D21*
%TO.C,S3*%
X71172000Y-93508000D03*
D22*
X77672000Y-93508000D03*
X71172000Y-98008000D03*
X77672000Y-98008000D03*
%TD*%
D13*
%TO.C,C5*%
X80518000Y-129745000D03*
X80518000Y-126795000D03*
%TD*%
D23*
%TO.C,D6*%
X132842000Y-94566500D03*
X132842000Y-96441500D03*
%TD*%
D18*
%TO.C,D4*%
X121920000Y-110112000D03*
X121920000Y-107312000D03*
%TD*%
D11*
%TO.C,J6*%
X146050000Y-87376000D03*
D12*
X146050000Y-89916000D03*
X146050000Y-92456000D03*
%TD*%
D23*
%TO.C,D7*%
X132842000Y-101170500D03*
X132842000Y-103045500D03*
%TD*%
D19*
%TO.C,Q3*%
X141290000Y-107701500D03*
X142240000Y-105501500D03*
X143190000Y-107701500D03*
%TD*%
%TO.C,Q1*%
X141290000Y-101254500D03*
X142240000Y-99054500D03*
X143190000Y-101254500D03*
%TD*%
D14*
%TO.C,R13*%
X129286000Y-96979833D03*
X129286000Y-94054833D03*
%TD*%
D24*
%TO.C,J11*%
X96520000Y-132080000D03*
X99060000Y-132080000D03*
X101600000Y-132080000D03*
X104140000Y-132080000D03*
X106680000Y-132080000D03*
X109220000Y-132080000D03*
X109220000Y-129540000D03*
X106680000Y-129540000D03*
X104140000Y-129540000D03*
X101600000Y-129540000D03*
X99060000Y-129540000D03*
X96520000Y-129540000D03*
%TD*%
D26*
%TO.C,U1*%
X97068000Y-80138000D03*
X97068000Y-82138000D03*
X97068000Y-84138000D03*
X97068000Y-86138000D03*
X97068000Y-88138000D03*
X97068000Y-90138000D03*
X97068000Y-92138000D03*
X97068000Y-94138000D03*
D27*
X99668000Y-95638000D03*
X101668000Y-95638000D03*
X103668000Y-95638000D03*
X105668000Y-95638000D03*
X107668000Y-95638000D03*
X109668000Y-95638000D03*
D26*
X112268000Y-94138000D03*
X112268000Y-92138000D03*
X112268000Y-90138000D03*
X112268000Y-88138000D03*
X112268000Y-86138000D03*
X112268000Y-84138000D03*
X112268000Y-82138000D03*
X112268000Y-80138000D03*
%TD*%
D20*
%TO.C,R5*%
X83373500Y-82825167D03*
X86298500Y-82825167D03*
%TD*%
D23*
%TO.C,D5*%
X132842000Y-88138000D03*
X132842000Y-90013000D03*
%TD*%
D25*
%TO.C,C3*%
X127967000Y-83820000D03*
X125017000Y-83820000D03*
%TD*%
D11*
%TO.C,J13*%
X138176000Y-95758000D03*
D12*
X138176000Y-93218000D03*
X138176000Y-90678000D03*
X138176000Y-88138000D03*
%TD*%
D11*
%TO.C,J2*%
X159766000Y-105156000D03*
D12*
X157226000Y-105156000D03*
X154686000Y-105156000D03*
%TD*%
D17*
%TO.C,R16*%
X86298500Y-102256167D03*
X83373500Y-102256167D03*
%TD*%
D14*
%TO.C,R4*%
X125730000Y-110174500D03*
X125730000Y-107249500D03*
%TD*%
D18*
%TO.C,D1*%
X121920000Y-90514000D03*
X121920000Y-87714000D03*
%TD*%
D28*
%TO.C,J1*%
X74422000Y-120062000D03*
D29*
X74422000Y-115062000D03*
%TD*%
D18*
%TO.C,D2*%
X121920000Y-96877333D03*
X121920000Y-94077333D03*
%TD*%
D11*
%TO.C,J4*%
X159766000Y-87376000D03*
D12*
X157226000Y-87376000D03*
X154686000Y-87376000D03*
%TD*%
D21*
%TO.C,S1*%
X71172000Y-82840000D03*
D22*
X77672000Y-82840000D03*
X71172000Y-87340000D03*
X77672000Y-87340000D03*
%TD*%
D20*
%TO.C,R7*%
X83373500Y-88370834D03*
X86298500Y-88370834D03*
%TD*%
D14*
%TO.C,R15*%
X129286000Y-110174500D03*
X129286000Y-107249500D03*
%TD*%
D25*
%TO.C,C6*%
X77549085Y-124714000D03*
X74599085Y-124714000D03*
%TD*%
D14*
%TO.C,R1*%
X125730000Y-90616500D03*
X125730000Y-87691500D03*
%TD*%
%TO.C,R3*%
X125730000Y-103597167D03*
X125730000Y-100672167D03*
%TD*%
D30*
%TO.C,U3*%
X83489400Y-127443200D03*
X83489400Y-129743200D03*
D31*
X89789400Y-129743200D03*
D30*
X83489400Y-132043200D03*
%TD*%
D32*
%TO.C,U4*%
X96266000Y-110138000D03*
X97536000Y-110138000D03*
X98806000Y-110138000D03*
X100076000Y-110138000D03*
X101346000Y-110138000D03*
X102616000Y-110138000D03*
X103886000Y-110138000D03*
X105156000Y-110138000D03*
X106426000Y-110138000D03*
X107696000Y-110138000D03*
X108966000Y-110138000D03*
X110236000Y-110138000D03*
X111506000Y-110138000D03*
X112776000Y-110138000D03*
X112776000Y-100838000D03*
X111506000Y-100838000D03*
X110236000Y-100838000D03*
X108966000Y-100838000D03*
X107696000Y-100838000D03*
X106426000Y-100838000D03*
X105156000Y-100838000D03*
X103886000Y-100838000D03*
X102616000Y-100838000D03*
X101346000Y-100838000D03*
X100076000Y-100838000D03*
X98806000Y-100838000D03*
X97536000Y-100838000D03*
X96266000Y-100838000D03*
%TD*%
D15*
%TO.C,J8*%
X127412000Y-119380000D03*
D16*
X132412000Y-119380000D03*
%TD*%
D17*
%TO.C,R9*%
X86298500Y-93916500D03*
X83373500Y-93916500D03*
%TD*%
M02*
