%TF.GenerationSoftware,KiCad,Pcbnew,9.0.1*%
%TF.CreationDate,2025-05-27T10:12:55+02:00*%
%TF.ProjectId,Heizungsbooster,4865697a-756e-4677-9362-6f6f73746572,rev?*%
%TF.SameCoordinates,Original*%
%TF.FileFunction,Legend,Bot*%
%TF.FilePolarity,Positive*%
%FSLAX46Y46*%
G04 Gerber Fmt 4.6, Leading zero omitted, Abs format (unit mm)*
G04 Created by KiCad (PCBNEW 9.0.1) date 2025-05-27 10:12:55*
%MOMM*%
%LPD*%
G01*
G04 APERTURE LIST*
%ADD10C,0.250000*%
%ADD11C,0.000000*%
G04 APERTURE END LIST*
D10*
X164046669Y-71638529D02*
X164189527Y-71567100D01*
X164189527Y-71567100D02*
X164403812Y-71567100D01*
X164403812Y-71567100D02*
X164618098Y-71638529D01*
X164618098Y-71638529D02*
X164760955Y-71781386D01*
X164760955Y-71781386D02*
X164832384Y-71924243D01*
X164832384Y-71924243D02*
X164903812Y-72209957D01*
X164903812Y-72209957D02*
X164903812Y-72424243D01*
X164903812Y-72424243D02*
X164832384Y-72709957D01*
X164832384Y-72709957D02*
X164760955Y-72852814D01*
X164760955Y-72852814D02*
X164618098Y-72995672D01*
X164618098Y-72995672D02*
X164403812Y-73067100D01*
X164403812Y-73067100D02*
X164260955Y-73067100D01*
X164260955Y-73067100D02*
X164046669Y-72995672D01*
X164046669Y-72995672D02*
X163975241Y-72924243D01*
X163975241Y-72924243D02*
X163975241Y-72424243D01*
X163975241Y-72424243D02*
X164260955Y-72424243D01*
X163332384Y-73067100D02*
X163332384Y-71567100D01*
X163332384Y-71567100D02*
X162760955Y-71567100D01*
X162760955Y-71567100D02*
X162618098Y-71638529D01*
X162618098Y-71638529D02*
X162546669Y-71709957D01*
X162546669Y-71709957D02*
X162475241Y-71852814D01*
X162475241Y-71852814D02*
X162475241Y-72067100D01*
X162475241Y-72067100D02*
X162546669Y-72209957D01*
X162546669Y-72209957D02*
X162618098Y-72281386D01*
X162618098Y-72281386D02*
X162760955Y-72352814D01*
X162760955Y-72352814D02*
X163332384Y-72352814D01*
X161832384Y-73067100D02*
X161832384Y-71567100D01*
X160832383Y-71567100D02*
X160546669Y-71567100D01*
X160546669Y-71567100D02*
X160403812Y-71638529D01*
X160403812Y-71638529D02*
X160260955Y-71781386D01*
X160260955Y-71781386D02*
X160189526Y-72067100D01*
X160189526Y-72067100D02*
X160189526Y-72567100D01*
X160189526Y-72567100D02*
X160260955Y-72852814D01*
X160260955Y-72852814D02*
X160403812Y-72995672D01*
X160403812Y-72995672D02*
X160546669Y-73067100D01*
X160546669Y-73067100D02*
X160832383Y-73067100D01*
X160832383Y-73067100D02*
X160975241Y-72995672D01*
X160975241Y-72995672D02*
X161118098Y-72852814D01*
X161118098Y-72852814D02*
X161189526Y-72567100D01*
X161189526Y-72567100D02*
X161189526Y-72067100D01*
X161189526Y-72067100D02*
X161118098Y-71781386D01*
X161118098Y-71781386D02*
X160975241Y-71638529D01*
X160975241Y-71638529D02*
X160832383Y-71567100D01*
X158760954Y-73067100D02*
X159618097Y-73067100D01*
X159189526Y-73067100D02*
X159189526Y-71567100D01*
X159189526Y-71567100D02*
X159332383Y-71781386D01*
X159332383Y-71781386D02*
X159475240Y-71924243D01*
X159475240Y-71924243D02*
X159618097Y-71995672D01*
X158189526Y-71709957D02*
X158118098Y-71638529D01*
X158118098Y-71638529D02*
X157975241Y-71567100D01*
X157975241Y-71567100D02*
X157618098Y-71567100D01*
X157618098Y-71567100D02*
X157475241Y-71638529D01*
X157475241Y-71638529D02*
X157403812Y-71709957D01*
X157403812Y-71709957D02*
X157332383Y-71852814D01*
X157332383Y-71852814D02*
X157332383Y-71995672D01*
X157332383Y-71995672D02*
X157403812Y-72209957D01*
X157403812Y-72209957D02*
X158260955Y-73067100D01*
X158260955Y-73067100D02*
X157332383Y-73067100D01*
X156689527Y-72924243D02*
X156618098Y-72995672D01*
X156618098Y-72995672D02*
X156689527Y-73067100D01*
X156689527Y-73067100D02*
X156760955Y-72995672D01*
X156760955Y-72995672D02*
X156689527Y-72924243D01*
X156689527Y-72924243D02*
X156689527Y-73067100D01*
X156689527Y-72138529D02*
X156618098Y-72209957D01*
X156618098Y-72209957D02*
X156689527Y-72281386D01*
X156689527Y-72281386D02*
X156760955Y-72209957D01*
X156760955Y-72209957D02*
X156689527Y-72138529D01*
X156689527Y-72138529D02*
X156689527Y-72281386D01*
X154332384Y-72281386D02*
X154832384Y-72281386D01*
X154832384Y-73067100D02*
X154832384Y-71567100D01*
X154832384Y-71567100D02*
X154118098Y-71567100D01*
X153618098Y-72638529D02*
X152903813Y-72638529D01*
X153760955Y-73067100D02*
X153260955Y-71567100D01*
X153260955Y-71567100D02*
X152760955Y-73067100D01*
X152260956Y-73067100D02*
X152260956Y-71567100D01*
X152260956Y-71567100D02*
X151403813Y-73067100D01*
X151403813Y-73067100D02*
X151403813Y-71567100D01*
X148475241Y-71495672D02*
X149760955Y-73424243D01*
X146832384Y-73067100D02*
X146832384Y-71567100D01*
X145260955Y-73067100D02*
X145760955Y-72352814D01*
X146118098Y-73067100D02*
X146118098Y-71567100D01*
X146118098Y-71567100D02*
X145546669Y-71567100D01*
X145546669Y-71567100D02*
X145403812Y-71638529D01*
X145403812Y-71638529D02*
X145332383Y-71709957D01*
X145332383Y-71709957D02*
X145260955Y-71852814D01*
X145260955Y-71852814D02*
X145260955Y-72067100D01*
X145260955Y-72067100D02*
X145332383Y-72209957D01*
X145332383Y-72209957D02*
X145403812Y-72281386D01*
X145403812Y-72281386D02*
X145546669Y-72352814D01*
X145546669Y-72352814D02*
X146118098Y-72352814D01*
X143903812Y-73067100D02*
X144618098Y-73067100D01*
X144618098Y-73067100D02*
X144618098Y-71567100D01*
X143546669Y-71567100D02*
X142546669Y-71567100D01*
X142546669Y-71567100D02*
X143546669Y-73067100D01*
X143546669Y-73067100D02*
X142546669Y-73067100D01*
X164046669Y-74053445D02*
X164189527Y-73982016D01*
X164189527Y-73982016D02*
X164403812Y-73982016D01*
X164403812Y-73982016D02*
X164618098Y-74053445D01*
X164618098Y-74053445D02*
X164760955Y-74196302D01*
X164760955Y-74196302D02*
X164832384Y-74339159D01*
X164832384Y-74339159D02*
X164903812Y-74624873D01*
X164903812Y-74624873D02*
X164903812Y-74839159D01*
X164903812Y-74839159D02*
X164832384Y-75124873D01*
X164832384Y-75124873D02*
X164760955Y-75267730D01*
X164760955Y-75267730D02*
X164618098Y-75410588D01*
X164618098Y-75410588D02*
X164403812Y-75482016D01*
X164403812Y-75482016D02*
X164260955Y-75482016D01*
X164260955Y-75482016D02*
X164046669Y-75410588D01*
X164046669Y-75410588D02*
X163975241Y-75339159D01*
X163975241Y-75339159D02*
X163975241Y-74839159D01*
X163975241Y-74839159D02*
X164260955Y-74839159D01*
X163332384Y-75482016D02*
X163332384Y-73982016D01*
X163332384Y-73982016D02*
X162760955Y-73982016D01*
X162760955Y-73982016D02*
X162618098Y-74053445D01*
X162618098Y-74053445D02*
X162546669Y-74124873D01*
X162546669Y-74124873D02*
X162475241Y-74267730D01*
X162475241Y-74267730D02*
X162475241Y-74482016D01*
X162475241Y-74482016D02*
X162546669Y-74624873D01*
X162546669Y-74624873D02*
X162618098Y-74696302D01*
X162618098Y-74696302D02*
X162760955Y-74767730D01*
X162760955Y-74767730D02*
X163332384Y-74767730D01*
X161832384Y-75482016D02*
X161832384Y-73982016D01*
X160832383Y-73982016D02*
X160546669Y-73982016D01*
X160546669Y-73982016D02*
X160403812Y-74053445D01*
X160403812Y-74053445D02*
X160260955Y-74196302D01*
X160260955Y-74196302D02*
X160189526Y-74482016D01*
X160189526Y-74482016D02*
X160189526Y-74982016D01*
X160189526Y-74982016D02*
X160260955Y-75267730D01*
X160260955Y-75267730D02*
X160403812Y-75410588D01*
X160403812Y-75410588D02*
X160546669Y-75482016D01*
X160546669Y-75482016D02*
X160832383Y-75482016D01*
X160832383Y-75482016D02*
X160975241Y-75410588D01*
X160975241Y-75410588D02*
X161118098Y-75267730D01*
X161118098Y-75267730D02*
X161189526Y-74982016D01*
X161189526Y-74982016D02*
X161189526Y-74482016D01*
X161189526Y-74482016D02*
X161118098Y-74196302D01*
X161118098Y-74196302D02*
X160975241Y-74053445D01*
X160975241Y-74053445D02*
X160832383Y-73982016D01*
X158760954Y-75482016D02*
X159618097Y-75482016D01*
X159189526Y-75482016D02*
X159189526Y-73982016D01*
X159189526Y-73982016D02*
X159332383Y-74196302D01*
X159332383Y-74196302D02*
X159475240Y-74339159D01*
X159475240Y-74339159D02*
X159618097Y-74410588D01*
X158260955Y-73982016D02*
X157332383Y-73982016D01*
X157332383Y-73982016D02*
X157832383Y-74553445D01*
X157832383Y-74553445D02*
X157618098Y-74553445D01*
X157618098Y-74553445D02*
X157475241Y-74624873D01*
X157475241Y-74624873D02*
X157403812Y-74696302D01*
X157403812Y-74696302D02*
X157332383Y-74839159D01*
X157332383Y-74839159D02*
X157332383Y-75196302D01*
X157332383Y-75196302D02*
X157403812Y-75339159D01*
X157403812Y-75339159D02*
X157475241Y-75410588D01*
X157475241Y-75410588D02*
X157618098Y-75482016D01*
X157618098Y-75482016D02*
X158046669Y-75482016D01*
X158046669Y-75482016D02*
X158189526Y-75410588D01*
X158189526Y-75410588D02*
X158260955Y-75339159D01*
X156689527Y-75339159D02*
X156618098Y-75410588D01*
X156618098Y-75410588D02*
X156689527Y-75482016D01*
X156689527Y-75482016D02*
X156760955Y-75410588D01*
X156760955Y-75410588D02*
X156689527Y-75339159D01*
X156689527Y-75339159D02*
X156689527Y-75482016D01*
X156689527Y-74553445D02*
X156618098Y-74624873D01*
X156618098Y-74624873D02*
X156689527Y-74696302D01*
X156689527Y-74696302D02*
X156760955Y-74624873D01*
X156760955Y-74624873D02*
X156689527Y-74553445D01*
X156689527Y-74553445D02*
X156689527Y-74696302D01*
X154832384Y-75482016D02*
X154832384Y-73982016D01*
X154832384Y-73982016D02*
X154475241Y-73982016D01*
X154475241Y-73982016D02*
X154260955Y-74053445D01*
X154260955Y-74053445D02*
X154118098Y-74196302D01*
X154118098Y-74196302D02*
X154046669Y-74339159D01*
X154046669Y-74339159D02*
X153975241Y-74624873D01*
X153975241Y-74624873D02*
X153975241Y-74839159D01*
X153975241Y-74839159D02*
X154046669Y-75124873D01*
X154046669Y-75124873D02*
X154118098Y-75267730D01*
X154118098Y-75267730D02*
X154260955Y-75410588D01*
X154260955Y-75410588D02*
X154475241Y-75482016D01*
X154475241Y-75482016D02*
X154832384Y-75482016D01*
X153403812Y-75410588D02*
X153189527Y-75482016D01*
X153189527Y-75482016D02*
X152832384Y-75482016D01*
X152832384Y-75482016D02*
X152689527Y-75410588D01*
X152689527Y-75410588D02*
X152618098Y-75339159D01*
X152618098Y-75339159D02*
X152546669Y-75196302D01*
X152546669Y-75196302D02*
X152546669Y-75053445D01*
X152546669Y-75053445D02*
X152618098Y-74910588D01*
X152618098Y-74910588D02*
X152689527Y-74839159D01*
X152689527Y-74839159D02*
X152832384Y-74767730D01*
X152832384Y-74767730D02*
X153118098Y-74696302D01*
X153118098Y-74696302D02*
X153260955Y-74624873D01*
X153260955Y-74624873D02*
X153332384Y-74553445D01*
X153332384Y-74553445D02*
X153403812Y-74410588D01*
X153403812Y-74410588D02*
X153403812Y-74267730D01*
X153403812Y-74267730D02*
X153332384Y-74124873D01*
X153332384Y-74124873D02*
X153260955Y-74053445D01*
X153260955Y-74053445D02*
X153118098Y-73982016D01*
X153118098Y-73982016D02*
X152760955Y-73982016D01*
X152760955Y-73982016D02*
X152546669Y-74053445D01*
X151118098Y-75482016D02*
X151975241Y-75482016D01*
X151546670Y-75482016D02*
X151546670Y-73982016D01*
X151546670Y-73982016D02*
X151689527Y-74196302D01*
X151689527Y-74196302D02*
X151832384Y-74339159D01*
X151832384Y-74339159D02*
X151975241Y-74410588D01*
X150260956Y-74624873D02*
X150403813Y-74553445D01*
X150403813Y-74553445D02*
X150475242Y-74482016D01*
X150475242Y-74482016D02*
X150546670Y-74339159D01*
X150546670Y-74339159D02*
X150546670Y-74267730D01*
X150546670Y-74267730D02*
X150475242Y-74124873D01*
X150475242Y-74124873D02*
X150403813Y-74053445D01*
X150403813Y-74053445D02*
X150260956Y-73982016D01*
X150260956Y-73982016D02*
X149975242Y-73982016D01*
X149975242Y-73982016D02*
X149832385Y-74053445D01*
X149832385Y-74053445D02*
X149760956Y-74124873D01*
X149760956Y-74124873D02*
X149689527Y-74267730D01*
X149689527Y-74267730D02*
X149689527Y-74339159D01*
X149689527Y-74339159D02*
X149760956Y-74482016D01*
X149760956Y-74482016D02*
X149832385Y-74553445D01*
X149832385Y-74553445D02*
X149975242Y-74624873D01*
X149975242Y-74624873D02*
X150260956Y-74624873D01*
X150260956Y-74624873D02*
X150403813Y-74696302D01*
X150403813Y-74696302D02*
X150475242Y-74767730D01*
X150475242Y-74767730D02*
X150546670Y-74910588D01*
X150546670Y-74910588D02*
X150546670Y-75196302D01*
X150546670Y-75196302D02*
X150475242Y-75339159D01*
X150475242Y-75339159D02*
X150403813Y-75410588D01*
X150403813Y-75410588D02*
X150260956Y-75482016D01*
X150260956Y-75482016D02*
X149975242Y-75482016D01*
X149975242Y-75482016D02*
X149832385Y-75410588D01*
X149832385Y-75410588D02*
X149760956Y-75339159D01*
X149760956Y-75339159D02*
X149689527Y-75196302D01*
X149689527Y-75196302D02*
X149689527Y-74910588D01*
X149689527Y-74910588D02*
X149760956Y-74767730D01*
X149760956Y-74767730D02*
X149832385Y-74696302D01*
X149832385Y-74696302D02*
X149975242Y-74624873D01*
X148546671Y-74696302D02*
X148332385Y-74767730D01*
X148332385Y-74767730D02*
X148260956Y-74839159D01*
X148260956Y-74839159D02*
X148189528Y-74982016D01*
X148189528Y-74982016D02*
X148189528Y-75196302D01*
X148189528Y-75196302D02*
X148260956Y-75339159D01*
X148260956Y-75339159D02*
X148332385Y-75410588D01*
X148332385Y-75410588D02*
X148475242Y-75482016D01*
X148475242Y-75482016D02*
X149046671Y-75482016D01*
X149046671Y-75482016D02*
X149046671Y-73982016D01*
X149046671Y-73982016D02*
X148546671Y-73982016D01*
X148546671Y-73982016D02*
X148403814Y-74053445D01*
X148403814Y-74053445D02*
X148332385Y-74124873D01*
X148332385Y-74124873D02*
X148260956Y-74267730D01*
X148260956Y-74267730D02*
X148260956Y-74410588D01*
X148260956Y-74410588D02*
X148332385Y-74553445D01*
X148332385Y-74553445D02*
X148403814Y-74624873D01*
X148403814Y-74624873D02*
X148546671Y-74696302D01*
X148546671Y-74696302D02*
X149046671Y-74696302D01*
X147618099Y-74124873D02*
X147546671Y-74053445D01*
X147546671Y-74053445D02*
X147403814Y-73982016D01*
X147403814Y-73982016D02*
X147046671Y-73982016D01*
X147046671Y-73982016D02*
X146903814Y-74053445D01*
X146903814Y-74053445D02*
X146832385Y-74124873D01*
X146832385Y-74124873D02*
X146760956Y-74267730D01*
X146760956Y-74267730D02*
X146760956Y-74410588D01*
X146760956Y-74410588D02*
X146832385Y-74624873D01*
X146832385Y-74624873D02*
X147689528Y-75482016D01*
X147689528Y-75482016D02*
X146760956Y-75482016D01*
X145832385Y-73982016D02*
X145689528Y-73982016D01*
X145689528Y-73982016D02*
X145546671Y-74053445D01*
X145546671Y-74053445D02*
X145475243Y-74124873D01*
X145475243Y-74124873D02*
X145403814Y-74267730D01*
X145403814Y-74267730D02*
X145332385Y-74553445D01*
X145332385Y-74553445D02*
X145332385Y-74910588D01*
X145332385Y-74910588D02*
X145403814Y-75196302D01*
X145403814Y-75196302D02*
X145475243Y-75339159D01*
X145475243Y-75339159D02*
X145546671Y-75410588D01*
X145546671Y-75410588D02*
X145689528Y-75482016D01*
X145689528Y-75482016D02*
X145832385Y-75482016D01*
X145832385Y-75482016D02*
X145975243Y-75410588D01*
X145975243Y-75410588D02*
X146046671Y-75339159D01*
X146046671Y-75339159D02*
X146118100Y-75196302D01*
X146118100Y-75196302D02*
X146189528Y-74910588D01*
X146189528Y-74910588D02*
X146189528Y-74553445D01*
X146189528Y-74553445D02*
X146118100Y-74267730D01*
X146118100Y-74267730D02*
X146046671Y-74124873D01*
X146046671Y-74124873D02*
X145975243Y-74053445D01*
X145975243Y-74053445D02*
X145832385Y-73982016D01*
X164046669Y-76468361D02*
X164189527Y-76396932D01*
X164189527Y-76396932D02*
X164403812Y-76396932D01*
X164403812Y-76396932D02*
X164618098Y-76468361D01*
X164618098Y-76468361D02*
X164760955Y-76611218D01*
X164760955Y-76611218D02*
X164832384Y-76754075D01*
X164832384Y-76754075D02*
X164903812Y-77039789D01*
X164903812Y-77039789D02*
X164903812Y-77254075D01*
X164903812Y-77254075D02*
X164832384Y-77539789D01*
X164832384Y-77539789D02*
X164760955Y-77682646D01*
X164760955Y-77682646D02*
X164618098Y-77825504D01*
X164618098Y-77825504D02*
X164403812Y-77896932D01*
X164403812Y-77896932D02*
X164260955Y-77896932D01*
X164260955Y-77896932D02*
X164046669Y-77825504D01*
X164046669Y-77825504D02*
X163975241Y-77754075D01*
X163975241Y-77754075D02*
X163975241Y-77254075D01*
X163975241Y-77254075D02*
X164260955Y-77254075D01*
X163332384Y-77896932D02*
X163332384Y-76396932D01*
X163332384Y-76396932D02*
X162760955Y-76396932D01*
X162760955Y-76396932D02*
X162618098Y-76468361D01*
X162618098Y-76468361D02*
X162546669Y-76539789D01*
X162546669Y-76539789D02*
X162475241Y-76682646D01*
X162475241Y-76682646D02*
X162475241Y-76896932D01*
X162475241Y-76896932D02*
X162546669Y-77039789D01*
X162546669Y-77039789D02*
X162618098Y-77111218D01*
X162618098Y-77111218D02*
X162760955Y-77182646D01*
X162760955Y-77182646D02*
X163332384Y-77182646D01*
X161832384Y-77896932D02*
X161832384Y-76396932D01*
X160832383Y-76396932D02*
X160546669Y-76396932D01*
X160546669Y-76396932D02*
X160403812Y-76468361D01*
X160403812Y-76468361D02*
X160260955Y-76611218D01*
X160260955Y-76611218D02*
X160189526Y-76896932D01*
X160189526Y-76896932D02*
X160189526Y-77396932D01*
X160189526Y-77396932D02*
X160260955Y-77682646D01*
X160260955Y-77682646D02*
X160403812Y-77825504D01*
X160403812Y-77825504D02*
X160546669Y-77896932D01*
X160546669Y-77896932D02*
X160832383Y-77896932D01*
X160832383Y-77896932D02*
X160975241Y-77825504D01*
X160975241Y-77825504D02*
X161118098Y-77682646D01*
X161118098Y-77682646D02*
X161189526Y-77396932D01*
X161189526Y-77396932D02*
X161189526Y-76896932D01*
X161189526Y-76896932D02*
X161118098Y-76611218D01*
X161118098Y-76611218D02*
X160975241Y-76468361D01*
X160975241Y-76468361D02*
X160832383Y-76396932D01*
X158760954Y-77896932D02*
X159618097Y-77896932D01*
X159189526Y-77896932D02*
X159189526Y-76396932D01*
X159189526Y-76396932D02*
X159332383Y-76611218D01*
X159332383Y-76611218D02*
X159475240Y-76754075D01*
X159475240Y-76754075D02*
X159618097Y-76825504D01*
X157475241Y-76896932D02*
X157475241Y-77896932D01*
X157832383Y-76325504D02*
X158189526Y-77396932D01*
X158189526Y-77396932D02*
X157260955Y-77396932D01*
X156689527Y-77754075D02*
X156618098Y-77825504D01*
X156618098Y-77825504D02*
X156689527Y-77896932D01*
X156689527Y-77896932D02*
X156760955Y-77825504D01*
X156760955Y-77825504D02*
X156689527Y-77754075D01*
X156689527Y-77754075D02*
X156689527Y-77896932D01*
X156689527Y-76968361D02*
X156618098Y-77039789D01*
X156618098Y-77039789D02*
X156689527Y-77111218D01*
X156689527Y-77111218D02*
X156760955Y-77039789D01*
X156760955Y-77039789D02*
X156689527Y-76968361D01*
X156689527Y-76968361D02*
X156689527Y-77111218D01*
X154832384Y-77896932D02*
X154832384Y-76396932D01*
X154832384Y-76396932D02*
X154332384Y-77468361D01*
X154332384Y-77468361D02*
X153832384Y-76396932D01*
X153832384Y-76396932D02*
X153832384Y-77896932D01*
X152903812Y-77896932D02*
X153046669Y-77825504D01*
X153046669Y-77825504D02*
X153118098Y-77754075D01*
X153118098Y-77754075D02*
X153189526Y-77611218D01*
X153189526Y-77611218D02*
X153189526Y-77182646D01*
X153189526Y-77182646D02*
X153118098Y-77039789D01*
X153118098Y-77039789D02*
X153046669Y-76968361D01*
X153046669Y-76968361D02*
X152903812Y-76896932D01*
X152903812Y-76896932D02*
X152689526Y-76896932D01*
X152689526Y-76896932D02*
X152546669Y-76968361D01*
X152546669Y-76968361D02*
X152475241Y-77039789D01*
X152475241Y-77039789D02*
X152403812Y-77182646D01*
X152403812Y-77182646D02*
X152403812Y-77611218D01*
X152403812Y-77611218D02*
X152475241Y-77754075D01*
X152475241Y-77754075D02*
X152546669Y-77825504D01*
X152546669Y-77825504D02*
X152689526Y-77896932D01*
X152689526Y-77896932D02*
X152903812Y-77896932D01*
X151118098Y-77896932D02*
X151118098Y-76396932D01*
X151118098Y-77825504D02*
X151260955Y-77896932D01*
X151260955Y-77896932D02*
X151546669Y-77896932D01*
X151546669Y-77896932D02*
X151689526Y-77825504D01*
X151689526Y-77825504D02*
X151760955Y-77754075D01*
X151760955Y-77754075D02*
X151832383Y-77611218D01*
X151832383Y-77611218D02*
X151832383Y-77182646D01*
X151832383Y-77182646D02*
X151760955Y-77039789D01*
X151760955Y-77039789D02*
X151689526Y-76968361D01*
X151689526Y-76968361D02*
X151546669Y-76896932D01*
X151546669Y-76896932D02*
X151260955Y-76896932D01*
X151260955Y-76896932D02*
X151118098Y-76968361D01*
X149832383Y-77825504D02*
X149975240Y-77896932D01*
X149975240Y-77896932D02*
X150260955Y-77896932D01*
X150260955Y-77896932D02*
X150403812Y-77825504D01*
X150403812Y-77825504D02*
X150475240Y-77682646D01*
X150475240Y-77682646D02*
X150475240Y-77111218D01*
X150475240Y-77111218D02*
X150403812Y-76968361D01*
X150403812Y-76968361D02*
X150260955Y-76896932D01*
X150260955Y-76896932D02*
X149975240Y-76896932D01*
X149975240Y-76896932D02*
X149832383Y-76968361D01*
X149832383Y-76968361D02*
X149760955Y-77111218D01*
X149760955Y-77111218D02*
X149760955Y-77254075D01*
X149760955Y-77254075D02*
X150475240Y-77396932D01*
X147475241Y-77111218D02*
X147260955Y-77182646D01*
X147260955Y-77182646D02*
X147189526Y-77254075D01*
X147189526Y-77254075D02*
X147118098Y-77396932D01*
X147118098Y-77396932D02*
X147118098Y-77611218D01*
X147118098Y-77611218D02*
X147189526Y-77754075D01*
X147189526Y-77754075D02*
X147260955Y-77825504D01*
X147260955Y-77825504D02*
X147403812Y-77896932D01*
X147403812Y-77896932D02*
X147975241Y-77896932D01*
X147975241Y-77896932D02*
X147975241Y-76396932D01*
X147975241Y-76396932D02*
X147475241Y-76396932D01*
X147475241Y-76396932D02*
X147332384Y-76468361D01*
X147332384Y-76468361D02*
X147260955Y-76539789D01*
X147260955Y-76539789D02*
X147189526Y-76682646D01*
X147189526Y-76682646D02*
X147189526Y-76825504D01*
X147189526Y-76825504D02*
X147260955Y-76968361D01*
X147260955Y-76968361D02*
X147332384Y-77039789D01*
X147332384Y-77039789D02*
X147475241Y-77111218D01*
X147475241Y-77111218D02*
X147975241Y-77111218D01*
X145832384Y-76896932D02*
X145832384Y-77896932D01*
X146475241Y-76896932D02*
X146475241Y-77682646D01*
X146475241Y-77682646D02*
X146403812Y-77825504D01*
X146403812Y-77825504D02*
X146260955Y-77896932D01*
X146260955Y-77896932D02*
X146046669Y-77896932D01*
X146046669Y-77896932D02*
X145903812Y-77825504D01*
X145903812Y-77825504D02*
X145832384Y-77754075D01*
X145332383Y-76896932D02*
X144760955Y-76896932D01*
X145118098Y-76396932D02*
X145118098Y-77682646D01*
X145118098Y-77682646D02*
X145046669Y-77825504D01*
X145046669Y-77825504D02*
X144903812Y-77896932D01*
X144903812Y-77896932D02*
X144760955Y-77896932D01*
X144475240Y-76896932D02*
X143903812Y-76896932D01*
X144260955Y-76396932D02*
X144260955Y-77682646D01*
X144260955Y-77682646D02*
X144189526Y-77825504D01*
X144189526Y-77825504D02*
X144046669Y-77896932D01*
X144046669Y-77896932D02*
X143903812Y-77896932D01*
X143189526Y-77896932D02*
X143332383Y-77825504D01*
X143332383Y-77825504D02*
X143403812Y-77754075D01*
X143403812Y-77754075D02*
X143475240Y-77611218D01*
X143475240Y-77611218D02*
X143475240Y-77182646D01*
X143475240Y-77182646D02*
X143403812Y-77039789D01*
X143403812Y-77039789D02*
X143332383Y-76968361D01*
X143332383Y-76968361D02*
X143189526Y-76896932D01*
X143189526Y-76896932D02*
X142975240Y-76896932D01*
X142975240Y-76896932D02*
X142832383Y-76968361D01*
X142832383Y-76968361D02*
X142760955Y-77039789D01*
X142760955Y-77039789D02*
X142689526Y-77182646D01*
X142689526Y-77182646D02*
X142689526Y-77611218D01*
X142689526Y-77611218D02*
X142760955Y-77754075D01*
X142760955Y-77754075D02*
X142832383Y-77825504D01*
X142832383Y-77825504D02*
X142975240Y-77896932D01*
X142975240Y-77896932D02*
X143189526Y-77896932D01*
X142046669Y-76896932D02*
X142046669Y-77896932D01*
X142046669Y-77039789D02*
X141975240Y-76968361D01*
X141975240Y-76968361D02*
X141832383Y-76896932D01*
X141832383Y-76896932D02*
X141618097Y-76896932D01*
X141618097Y-76896932D02*
X141475240Y-76968361D01*
X141475240Y-76968361D02*
X141403812Y-77111218D01*
X141403812Y-77111218D02*
X141403812Y-77896932D01*
X164046669Y-78883277D02*
X164189527Y-78811848D01*
X164189527Y-78811848D02*
X164403812Y-78811848D01*
X164403812Y-78811848D02*
X164618098Y-78883277D01*
X164618098Y-78883277D02*
X164760955Y-79026134D01*
X164760955Y-79026134D02*
X164832384Y-79168991D01*
X164832384Y-79168991D02*
X164903812Y-79454705D01*
X164903812Y-79454705D02*
X164903812Y-79668991D01*
X164903812Y-79668991D02*
X164832384Y-79954705D01*
X164832384Y-79954705D02*
X164760955Y-80097562D01*
X164760955Y-80097562D02*
X164618098Y-80240420D01*
X164618098Y-80240420D02*
X164403812Y-80311848D01*
X164403812Y-80311848D02*
X164260955Y-80311848D01*
X164260955Y-80311848D02*
X164046669Y-80240420D01*
X164046669Y-80240420D02*
X163975241Y-80168991D01*
X163975241Y-80168991D02*
X163975241Y-79668991D01*
X163975241Y-79668991D02*
X164260955Y-79668991D01*
X163332384Y-80311848D02*
X163332384Y-78811848D01*
X163332384Y-78811848D02*
X162760955Y-78811848D01*
X162760955Y-78811848D02*
X162618098Y-78883277D01*
X162618098Y-78883277D02*
X162546669Y-78954705D01*
X162546669Y-78954705D02*
X162475241Y-79097562D01*
X162475241Y-79097562D02*
X162475241Y-79311848D01*
X162475241Y-79311848D02*
X162546669Y-79454705D01*
X162546669Y-79454705D02*
X162618098Y-79526134D01*
X162618098Y-79526134D02*
X162760955Y-79597562D01*
X162760955Y-79597562D02*
X163332384Y-79597562D01*
X161832384Y-80311848D02*
X161832384Y-78811848D01*
X160832383Y-78811848D02*
X160546669Y-78811848D01*
X160546669Y-78811848D02*
X160403812Y-78883277D01*
X160403812Y-78883277D02*
X160260955Y-79026134D01*
X160260955Y-79026134D02*
X160189526Y-79311848D01*
X160189526Y-79311848D02*
X160189526Y-79811848D01*
X160189526Y-79811848D02*
X160260955Y-80097562D01*
X160260955Y-80097562D02*
X160403812Y-80240420D01*
X160403812Y-80240420D02*
X160546669Y-80311848D01*
X160546669Y-80311848D02*
X160832383Y-80311848D01*
X160832383Y-80311848D02*
X160975241Y-80240420D01*
X160975241Y-80240420D02*
X161118098Y-80097562D01*
X161118098Y-80097562D02*
X161189526Y-79811848D01*
X161189526Y-79811848D02*
X161189526Y-79311848D01*
X161189526Y-79311848D02*
X161118098Y-79026134D01*
X161118098Y-79026134D02*
X160975241Y-78883277D01*
X160975241Y-78883277D02*
X160832383Y-78811848D01*
X158760954Y-80311848D02*
X159618097Y-80311848D01*
X159189526Y-80311848D02*
X159189526Y-78811848D01*
X159189526Y-78811848D02*
X159332383Y-79026134D01*
X159332383Y-79026134D02*
X159475240Y-79168991D01*
X159475240Y-79168991D02*
X159618097Y-79240420D01*
X157475241Y-78811848D02*
X157760955Y-78811848D01*
X157760955Y-78811848D02*
X157903812Y-78883277D01*
X157903812Y-78883277D02*
X157975241Y-78954705D01*
X157975241Y-78954705D02*
X158118098Y-79168991D01*
X158118098Y-79168991D02*
X158189526Y-79454705D01*
X158189526Y-79454705D02*
X158189526Y-80026134D01*
X158189526Y-80026134D02*
X158118098Y-80168991D01*
X158118098Y-80168991D02*
X158046669Y-80240420D01*
X158046669Y-80240420D02*
X157903812Y-80311848D01*
X157903812Y-80311848D02*
X157618098Y-80311848D01*
X157618098Y-80311848D02*
X157475241Y-80240420D01*
X157475241Y-80240420D02*
X157403812Y-80168991D01*
X157403812Y-80168991D02*
X157332383Y-80026134D01*
X157332383Y-80026134D02*
X157332383Y-79668991D01*
X157332383Y-79668991D02*
X157403812Y-79526134D01*
X157403812Y-79526134D02*
X157475241Y-79454705D01*
X157475241Y-79454705D02*
X157618098Y-79383277D01*
X157618098Y-79383277D02*
X157903812Y-79383277D01*
X157903812Y-79383277D02*
X158046669Y-79454705D01*
X158046669Y-79454705D02*
X158118098Y-79526134D01*
X158118098Y-79526134D02*
X158189526Y-79668991D01*
X156689527Y-80168991D02*
X156618098Y-80240420D01*
X156618098Y-80240420D02*
X156689527Y-80311848D01*
X156689527Y-80311848D02*
X156760955Y-80240420D01*
X156760955Y-80240420D02*
X156689527Y-80168991D01*
X156689527Y-80168991D02*
X156689527Y-80311848D01*
X156689527Y-79383277D02*
X156618098Y-79454705D01*
X156618098Y-79454705D02*
X156689527Y-79526134D01*
X156689527Y-79526134D02*
X156760955Y-79454705D01*
X156760955Y-79454705D02*
X156689527Y-79383277D01*
X156689527Y-79383277D02*
X156689527Y-79526134D01*
X154903812Y-80240420D02*
X154689527Y-80311848D01*
X154689527Y-80311848D02*
X154332384Y-80311848D01*
X154332384Y-80311848D02*
X154189527Y-80240420D01*
X154189527Y-80240420D02*
X154118098Y-80168991D01*
X154118098Y-80168991D02*
X154046669Y-80026134D01*
X154046669Y-80026134D02*
X154046669Y-79883277D01*
X154046669Y-79883277D02*
X154118098Y-79740420D01*
X154118098Y-79740420D02*
X154189527Y-79668991D01*
X154189527Y-79668991D02*
X154332384Y-79597562D01*
X154332384Y-79597562D02*
X154618098Y-79526134D01*
X154618098Y-79526134D02*
X154760955Y-79454705D01*
X154760955Y-79454705D02*
X154832384Y-79383277D01*
X154832384Y-79383277D02*
X154903812Y-79240420D01*
X154903812Y-79240420D02*
X154903812Y-79097562D01*
X154903812Y-79097562D02*
X154832384Y-78954705D01*
X154832384Y-78954705D02*
X154760955Y-78883277D01*
X154760955Y-78883277D02*
X154618098Y-78811848D01*
X154618098Y-78811848D02*
X154260955Y-78811848D01*
X154260955Y-78811848D02*
X154046669Y-78883277D01*
X152832384Y-80240420D02*
X152975241Y-80311848D01*
X152975241Y-80311848D02*
X153260956Y-80311848D01*
X153260956Y-80311848D02*
X153403813Y-80240420D01*
X153403813Y-80240420D02*
X153475241Y-80097562D01*
X153475241Y-80097562D02*
X153475241Y-79526134D01*
X153475241Y-79526134D02*
X153403813Y-79383277D01*
X153403813Y-79383277D02*
X153260956Y-79311848D01*
X153260956Y-79311848D02*
X152975241Y-79311848D01*
X152975241Y-79311848D02*
X152832384Y-79383277D01*
X152832384Y-79383277D02*
X152760956Y-79526134D01*
X152760956Y-79526134D02*
X152760956Y-79668991D01*
X152760956Y-79668991D02*
X153475241Y-79811848D01*
X152332384Y-79311848D02*
X151760956Y-79311848D01*
X152118099Y-78811848D02*
X152118099Y-80097562D01*
X152118099Y-80097562D02*
X152046670Y-80240420D01*
X152046670Y-80240420D02*
X151903813Y-80311848D01*
X151903813Y-80311848D02*
X151760956Y-80311848D01*
X149618099Y-79526134D02*
X149403813Y-79597562D01*
X149403813Y-79597562D02*
X149332384Y-79668991D01*
X149332384Y-79668991D02*
X149260956Y-79811848D01*
X149260956Y-79811848D02*
X149260956Y-80026134D01*
X149260956Y-80026134D02*
X149332384Y-80168991D01*
X149332384Y-80168991D02*
X149403813Y-80240420D01*
X149403813Y-80240420D02*
X149546670Y-80311848D01*
X149546670Y-80311848D02*
X150118099Y-80311848D01*
X150118099Y-80311848D02*
X150118099Y-78811848D01*
X150118099Y-78811848D02*
X149618099Y-78811848D01*
X149618099Y-78811848D02*
X149475242Y-78883277D01*
X149475242Y-78883277D02*
X149403813Y-78954705D01*
X149403813Y-78954705D02*
X149332384Y-79097562D01*
X149332384Y-79097562D02*
X149332384Y-79240420D01*
X149332384Y-79240420D02*
X149403813Y-79383277D01*
X149403813Y-79383277D02*
X149475242Y-79454705D01*
X149475242Y-79454705D02*
X149618099Y-79526134D01*
X149618099Y-79526134D02*
X150118099Y-79526134D01*
X147975242Y-79311848D02*
X147975242Y-80311848D01*
X148618099Y-79311848D02*
X148618099Y-80097562D01*
X148618099Y-80097562D02*
X148546670Y-80240420D01*
X148546670Y-80240420D02*
X148403813Y-80311848D01*
X148403813Y-80311848D02*
X148189527Y-80311848D01*
X148189527Y-80311848D02*
X148046670Y-80240420D01*
X148046670Y-80240420D02*
X147975242Y-80168991D01*
X147475241Y-79311848D02*
X146903813Y-79311848D01*
X147260956Y-78811848D02*
X147260956Y-80097562D01*
X147260956Y-80097562D02*
X147189527Y-80240420D01*
X147189527Y-80240420D02*
X147046670Y-80311848D01*
X147046670Y-80311848D02*
X146903813Y-80311848D01*
X146618098Y-79311848D02*
X146046670Y-79311848D01*
X146403813Y-78811848D02*
X146403813Y-80097562D01*
X146403813Y-80097562D02*
X146332384Y-80240420D01*
X146332384Y-80240420D02*
X146189527Y-80311848D01*
X146189527Y-80311848D02*
X146046670Y-80311848D01*
X145332384Y-80311848D02*
X145475241Y-80240420D01*
X145475241Y-80240420D02*
X145546670Y-80168991D01*
X145546670Y-80168991D02*
X145618098Y-80026134D01*
X145618098Y-80026134D02*
X145618098Y-79597562D01*
X145618098Y-79597562D02*
X145546670Y-79454705D01*
X145546670Y-79454705D02*
X145475241Y-79383277D01*
X145475241Y-79383277D02*
X145332384Y-79311848D01*
X145332384Y-79311848D02*
X145118098Y-79311848D01*
X145118098Y-79311848D02*
X144975241Y-79383277D01*
X144975241Y-79383277D02*
X144903813Y-79454705D01*
X144903813Y-79454705D02*
X144832384Y-79597562D01*
X144832384Y-79597562D02*
X144832384Y-80026134D01*
X144832384Y-80026134D02*
X144903813Y-80168991D01*
X144903813Y-80168991D02*
X144975241Y-80240420D01*
X144975241Y-80240420D02*
X145118098Y-80311848D01*
X145118098Y-80311848D02*
X145332384Y-80311848D01*
X144189527Y-79311848D02*
X144189527Y-80311848D01*
X144189527Y-79454705D02*
X144118098Y-79383277D01*
X144118098Y-79383277D02*
X143975241Y-79311848D01*
X143975241Y-79311848D02*
X143760955Y-79311848D01*
X143760955Y-79311848D02*
X143618098Y-79383277D01*
X143618098Y-79383277D02*
X143546670Y-79526134D01*
X143546670Y-79526134D02*
X143546670Y-80311848D01*
X164046669Y-83713109D02*
X164189527Y-83641680D01*
X164189527Y-83641680D02*
X164403812Y-83641680D01*
X164403812Y-83641680D02*
X164618098Y-83713109D01*
X164618098Y-83713109D02*
X164760955Y-83855966D01*
X164760955Y-83855966D02*
X164832384Y-83998823D01*
X164832384Y-83998823D02*
X164903812Y-84284537D01*
X164903812Y-84284537D02*
X164903812Y-84498823D01*
X164903812Y-84498823D02*
X164832384Y-84784537D01*
X164832384Y-84784537D02*
X164760955Y-84927394D01*
X164760955Y-84927394D02*
X164618098Y-85070252D01*
X164618098Y-85070252D02*
X164403812Y-85141680D01*
X164403812Y-85141680D02*
X164260955Y-85141680D01*
X164260955Y-85141680D02*
X164046669Y-85070252D01*
X164046669Y-85070252D02*
X163975241Y-84998823D01*
X163975241Y-84998823D02*
X163975241Y-84498823D01*
X163975241Y-84498823D02*
X164260955Y-84498823D01*
X163332384Y-85141680D02*
X163332384Y-83641680D01*
X163332384Y-83641680D02*
X162760955Y-83641680D01*
X162760955Y-83641680D02*
X162618098Y-83713109D01*
X162618098Y-83713109D02*
X162546669Y-83784537D01*
X162546669Y-83784537D02*
X162475241Y-83927394D01*
X162475241Y-83927394D02*
X162475241Y-84141680D01*
X162475241Y-84141680D02*
X162546669Y-84284537D01*
X162546669Y-84284537D02*
X162618098Y-84355966D01*
X162618098Y-84355966D02*
X162760955Y-84427394D01*
X162760955Y-84427394D02*
X163332384Y-84427394D01*
X161832384Y-85141680D02*
X161832384Y-83641680D01*
X160832383Y-83641680D02*
X160546669Y-83641680D01*
X160546669Y-83641680D02*
X160403812Y-83713109D01*
X160403812Y-83713109D02*
X160260955Y-83855966D01*
X160260955Y-83855966D02*
X160189526Y-84141680D01*
X160189526Y-84141680D02*
X160189526Y-84641680D01*
X160189526Y-84641680D02*
X160260955Y-84927394D01*
X160260955Y-84927394D02*
X160403812Y-85070252D01*
X160403812Y-85070252D02*
X160546669Y-85141680D01*
X160546669Y-85141680D02*
X160832383Y-85141680D01*
X160832383Y-85141680D02*
X160975241Y-85070252D01*
X160975241Y-85070252D02*
X161118098Y-84927394D01*
X161118098Y-84927394D02*
X161189526Y-84641680D01*
X161189526Y-84641680D02*
X161189526Y-84141680D01*
X161189526Y-84141680D02*
X161118098Y-83855966D01*
X161118098Y-83855966D02*
X160975241Y-83713109D01*
X160975241Y-83713109D02*
X160832383Y-83641680D01*
X158832383Y-83641680D02*
X159546669Y-83641680D01*
X159546669Y-83641680D02*
X159618097Y-84355966D01*
X159618097Y-84355966D02*
X159546669Y-84284537D01*
X159546669Y-84284537D02*
X159403812Y-84213109D01*
X159403812Y-84213109D02*
X159046669Y-84213109D01*
X159046669Y-84213109D02*
X158903812Y-84284537D01*
X158903812Y-84284537D02*
X158832383Y-84355966D01*
X158832383Y-84355966D02*
X158760954Y-84498823D01*
X158760954Y-84498823D02*
X158760954Y-84855966D01*
X158760954Y-84855966D02*
X158832383Y-84998823D01*
X158832383Y-84998823D02*
X158903812Y-85070252D01*
X158903812Y-85070252D02*
X159046669Y-85141680D01*
X159046669Y-85141680D02*
X159403812Y-85141680D01*
X159403812Y-85141680D02*
X159546669Y-85070252D01*
X159546669Y-85070252D02*
X159618097Y-84998823D01*
X158118098Y-84998823D02*
X158046669Y-85070252D01*
X158046669Y-85070252D02*
X158118098Y-85141680D01*
X158118098Y-85141680D02*
X158189526Y-85070252D01*
X158189526Y-85070252D02*
X158118098Y-84998823D01*
X158118098Y-84998823D02*
X158118098Y-85141680D01*
X158118098Y-84213109D02*
X158046669Y-84284537D01*
X158046669Y-84284537D02*
X158118098Y-84355966D01*
X158118098Y-84355966D02*
X158189526Y-84284537D01*
X158189526Y-84284537D02*
X158118098Y-84213109D01*
X158118098Y-84213109D02*
X158118098Y-84355966D01*
X156332383Y-85070252D02*
X156118098Y-85141680D01*
X156118098Y-85141680D02*
X155760955Y-85141680D01*
X155760955Y-85141680D02*
X155618098Y-85070252D01*
X155618098Y-85070252D02*
X155546669Y-84998823D01*
X155546669Y-84998823D02*
X155475240Y-84855966D01*
X155475240Y-84855966D02*
X155475240Y-84713109D01*
X155475240Y-84713109D02*
X155546669Y-84570252D01*
X155546669Y-84570252D02*
X155618098Y-84498823D01*
X155618098Y-84498823D02*
X155760955Y-84427394D01*
X155760955Y-84427394D02*
X156046669Y-84355966D01*
X156046669Y-84355966D02*
X156189526Y-84284537D01*
X156189526Y-84284537D02*
X156260955Y-84213109D01*
X156260955Y-84213109D02*
X156332383Y-84070252D01*
X156332383Y-84070252D02*
X156332383Y-83927394D01*
X156332383Y-83927394D02*
X156260955Y-83784537D01*
X156260955Y-83784537D02*
X156189526Y-83713109D01*
X156189526Y-83713109D02*
X156046669Y-83641680D01*
X156046669Y-83641680D02*
X155689526Y-83641680D01*
X155689526Y-83641680D02*
X155475240Y-83713109D01*
X153975241Y-84998823D02*
X154046669Y-85070252D01*
X154046669Y-85070252D02*
X154260955Y-85141680D01*
X154260955Y-85141680D02*
X154403812Y-85141680D01*
X154403812Y-85141680D02*
X154618098Y-85070252D01*
X154618098Y-85070252D02*
X154760955Y-84927394D01*
X154760955Y-84927394D02*
X154832384Y-84784537D01*
X154832384Y-84784537D02*
X154903812Y-84498823D01*
X154903812Y-84498823D02*
X154903812Y-84284537D01*
X154903812Y-84284537D02*
X154832384Y-83998823D01*
X154832384Y-83998823D02*
X154760955Y-83855966D01*
X154760955Y-83855966D02*
X154618098Y-83713109D01*
X154618098Y-83713109D02*
X154403812Y-83641680D01*
X154403812Y-83641680D02*
X154260955Y-83641680D01*
X154260955Y-83641680D02*
X154046669Y-83713109D01*
X154046669Y-83713109D02*
X153975241Y-83784537D01*
X152618098Y-85141680D02*
X153332384Y-85141680D01*
X153332384Y-85141680D02*
X153332384Y-83641680D01*
X164046669Y-86128025D02*
X164189527Y-86056596D01*
X164189527Y-86056596D02*
X164403812Y-86056596D01*
X164403812Y-86056596D02*
X164618098Y-86128025D01*
X164618098Y-86128025D02*
X164760955Y-86270882D01*
X164760955Y-86270882D02*
X164832384Y-86413739D01*
X164832384Y-86413739D02*
X164903812Y-86699453D01*
X164903812Y-86699453D02*
X164903812Y-86913739D01*
X164903812Y-86913739D02*
X164832384Y-87199453D01*
X164832384Y-87199453D02*
X164760955Y-87342310D01*
X164760955Y-87342310D02*
X164618098Y-87485168D01*
X164618098Y-87485168D02*
X164403812Y-87556596D01*
X164403812Y-87556596D02*
X164260955Y-87556596D01*
X164260955Y-87556596D02*
X164046669Y-87485168D01*
X164046669Y-87485168D02*
X163975241Y-87413739D01*
X163975241Y-87413739D02*
X163975241Y-86913739D01*
X163975241Y-86913739D02*
X164260955Y-86913739D01*
X163332384Y-87556596D02*
X163332384Y-86056596D01*
X163332384Y-86056596D02*
X162760955Y-86056596D01*
X162760955Y-86056596D02*
X162618098Y-86128025D01*
X162618098Y-86128025D02*
X162546669Y-86199453D01*
X162546669Y-86199453D02*
X162475241Y-86342310D01*
X162475241Y-86342310D02*
X162475241Y-86556596D01*
X162475241Y-86556596D02*
X162546669Y-86699453D01*
X162546669Y-86699453D02*
X162618098Y-86770882D01*
X162618098Y-86770882D02*
X162760955Y-86842310D01*
X162760955Y-86842310D02*
X163332384Y-86842310D01*
X161832384Y-87556596D02*
X161832384Y-86056596D01*
X160832383Y-86056596D02*
X160546669Y-86056596D01*
X160546669Y-86056596D02*
X160403812Y-86128025D01*
X160403812Y-86128025D02*
X160260955Y-86270882D01*
X160260955Y-86270882D02*
X160189526Y-86556596D01*
X160189526Y-86556596D02*
X160189526Y-87056596D01*
X160189526Y-87056596D02*
X160260955Y-87342310D01*
X160260955Y-87342310D02*
X160403812Y-87485168D01*
X160403812Y-87485168D02*
X160546669Y-87556596D01*
X160546669Y-87556596D02*
X160832383Y-87556596D01*
X160832383Y-87556596D02*
X160975241Y-87485168D01*
X160975241Y-87485168D02*
X161118098Y-87342310D01*
X161118098Y-87342310D02*
X161189526Y-87056596D01*
X161189526Y-87056596D02*
X161189526Y-86556596D01*
X161189526Y-86556596D02*
X161118098Y-86270882D01*
X161118098Y-86270882D02*
X160975241Y-86128025D01*
X160975241Y-86128025D02*
X160832383Y-86056596D01*
X158903812Y-86556596D02*
X158903812Y-87556596D01*
X159260954Y-85985168D02*
X159618097Y-87056596D01*
X159618097Y-87056596D02*
X158689526Y-87056596D01*
X158118098Y-87413739D02*
X158046669Y-87485168D01*
X158046669Y-87485168D02*
X158118098Y-87556596D01*
X158118098Y-87556596D02*
X158189526Y-87485168D01*
X158189526Y-87485168D02*
X158118098Y-87413739D01*
X158118098Y-87413739D02*
X158118098Y-87556596D01*
X158118098Y-86628025D02*
X158046669Y-86699453D01*
X158046669Y-86699453D02*
X158118098Y-86770882D01*
X158118098Y-86770882D02*
X158189526Y-86699453D01*
X158189526Y-86699453D02*
X158118098Y-86628025D01*
X158118098Y-86628025D02*
X158118098Y-86770882D01*
X156332383Y-87485168D02*
X156118098Y-87556596D01*
X156118098Y-87556596D02*
X155760955Y-87556596D01*
X155760955Y-87556596D02*
X155618098Y-87485168D01*
X155618098Y-87485168D02*
X155546669Y-87413739D01*
X155546669Y-87413739D02*
X155475240Y-87270882D01*
X155475240Y-87270882D02*
X155475240Y-87128025D01*
X155475240Y-87128025D02*
X155546669Y-86985168D01*
X155546669Y-86985168D02*
X155618098Y-86913739D01*
X155618098Y-86913739D02*
X155760955Y-86842310D01*
X155760955Y-86842310D02*
X156046669Y-86770882D01*
X156046669Y-86770882D02*
X156189526Y-86699453D01*
X156189526Y-86699453D02*
X156260955Y-86628025D01*
X156260955Y-86628025D02*
X156332383Y-86485168D01*
X156332383Y-86485168D02*
X156332383Y-86342310D01*
X156332383Y-86342310D02*
X156260955Y-86199453D01*
X156260955Y-86199453D02*
X156189526Y-86128025D01*
X156189526Y-86128025D02*
X156046669Y-86056596D01*
X156046669Y-86056596D02*
X155689526Y-86056596D01*
X155689526Y-86056596D02*
X155475240Y-86128025D01*
X154832384Y-87556596D02*
X154832384Y-86056596D01*
X154832384Y-86056596D02*
X154475241Y-86056596D01*
X154475241Y-86056596D02*
X154260955Y-86128025D01*
X154260955Y-86128025D02*
X154118098Y-86270882D01*
X154118098Y-86270882D02*
X154046669Y-86413739D01*
X154046669Y-86413739D02*
X153975241Y-86699453D01*
X153975241Y-86699453D02*
X153975241Y-86913739D01*
X153975241Y-86913739D02*
X154046669Y-87199453D01*
X154046669Y-87199453D02*
X154118098Y-87342310D01*
X154118098Y-87342310D02*
X154260955Y-87485168D01*
X154260955Y-87485168D02*
X154475241Y-87556596D01*
X154475241Y-87556596D02*
X154832384Y-87556596D01*
X153403812Y-87128025D02*
X152689527Y-87128025D01*
X153546669Y-87556596D02*
X153046669Y-86056596D01*
X153046669Y-86056596D02*
X152546669Y-87556596D01*
X164046669Y-88542941D02*
X164189527Y-88471512D01*
X164189527Y-88471512D02*
X164403812Y-88471512D01*
X164403812Y-88471512D02*
X164618098Y-88542941D01*
X164618098Y-88542941D02*
X164760955Y-88685798D01*
X164760955Y-88685798D02*
X164832384Y-88828655D01*
X164832384Y-88828655D02*
X164903812Y-89114369D01*
X164903812Y-89114369D02*
X164903812Y-89328655D01*
X164903812Y-89328655D02*
X164832384Y-89614369D01*
X164832384Y-89614369D02*
X164760955Y-89757226D01*
X164760955Y-89757226D02*
X164618098Y-89900084D01*
X164618098Y-89900084D02*
X164403812Y-89971512D01*
X164403812Y-89971512D02*
X164260955Y-89971512D01*
X164260955Y-89971512D02*
X164046669Y-89900084D01*
X164046669Y-89900084D02*
X163975241Y-89828655D01*
X163975241Y-89828655D02*
X163975241Y-89328655D01*
X163975241Y-89328655D02*
X164260955Y-89328655D01*
X163332384Y-89971512D02*
X163332384Y-88471512D01*
X163332384Y-88471512D02*
X162760955Y-88471512D01*
X162760955Y-88471512D02*
X162618098Y-88542941D01*
X162618098Y-88542941D02*
X162546669Y-88614369D01*
X162546669Y-88614369D02*
X162475241Y-88757226D01*
X162475241Y-88757226D02*
X162475241Y-88971512D01*
X162475241Y-88971512D02*
X162546669Y-89114369D01*
X162546669Y-89114369D02*
X162618098Y-89185798D01*
X162618098Y-89185798D02*
X162760955Y-89257226D01*
X162760955Y-89257226D02*
X163332384Y-89257226D01*
X161832384Y-89971512D02*
X161832384Y-88471512D01*
X160832383Y-88471512D02*
X160546669Y-88471512D01*
X160546669Y-88471512D02*
X160403812Y-88542941D01*
X160403812Y-88542941D02*
X160260955Y-88685798D01*
X160260955Y-88685798D02*
X160189526Y-88971512D01*
X160189526Y-88971512D02*
X160189526Y-89471512D01*
X160189526Y-89471512D02*
X160260955Y-89757226D01*
X160260955Y-89757226D02*
X160403812Y-89900084D01*
X160403812Y-89900084D02*
X160546669Y-89971512D01*
X160546669Y-89971512D02*
X160832383Y-89971512D01*
X160832383Y-89971512D02*
X160975241Y-89900084D01*
X160975241Y-89900084D02*
X161118098Y-89757226D01*
X161118098Y-89757226D02*
X161189526Y-89471512D01*
X161189526Y-89471512D02*
X161189526Y-88971512D01*
X161189526Y-88971512D02*
X161118098Y-88685798D01*
X161118098Y-88685798D02*
X160975241Y-88542941D01*
X160975241Y-88542941D02*
X160832383Y-88471512D01*
X159689526Y-88471512D02*
X158760954Y-88471512D01*
X158760954Y-88471512D02*
X159260954Y-89042941D01*
X159260954Y-89042941D02*
X159046669Y-89042941D01*
X159046669Y-89042941D02*
X158903812Y-89114369D01*
X158903812Y-89114369D02*
X158832383Y-89185798D01*
X158832383Y-89185798D02*
X158760954Y-89328655D01*
X158760954Y-89328655D02*
X158760954Y-89685798D01*
X158760954Y-89685798D02*
X158832383Y-89828655D01*
X158832383Y-89828655D02*
X158903812Y-89900084D01*
X158903812Y-89900084D02*
X159046669Y-89971512D01*
X159046669Y-89971512D02*
X159475240Y-89971512D01*
X159475240Y-89971512D02*
X159618097Y-89900084D01*
X159618097Y-89900084D02*
X159689526Y-89828655D01*
X158118098Y-89828655D02*
X158046669Y-89900084D01*
X158046669Y-89900084D02*
X158118098Y-89971512D01*
X158118098Y-89971512D02*
X158189526Y-89900084D01*
X158189526Y-89900084D02*
X158118098Y-89828655D01*
X158118098Y-89828655D02*
X158118098Y-89971512D01*
X158118098Y-89042941D02*
X158046669Y-89114369D01*
X158046669Y-89114369D02*
X158118098Y-89185798D01*
X158118098Y-89185798D02*
X158189526Y-89114369D01*
X158189526Y-89114369D02*
X158118098Y-89042941D01*
X158118098Y-89042941D02*
X158118098Y-89185798D01*
X155403812Y-89971512D02*
X155903812Y-89257226D01*
X156260955Y-89971512D02*
X156260955Y-88471512D01*
X156260955Y-88471512D02*
X155689526Y-88471512D01*
X155689526Y-88471512D02*
X155546669Y-88542941D01*
X155546669Y-88542941D02*
X155475240Y-88614369D01*
X155475240Y-88614369D02*
X155403812Y-88757226D01*
X155403812Y-88757226D02*
X155403812Y-88971512D01*
X155403812Y-88971512D02*
X155475240Y-89114369D01*
X155475240Y-89114369D02*
X155546669Y-89185798D01*
X155546669Y-89185798D02*
X155689526Y-89257226D01*
X155689526Y-89257226D02*
X156260955Y-89257226D01*
X154903812Y-88471512D02*
X153903812Y-89971512D01*
X153903812Y-88471512D02*
X154903812Y-89971512D01*
X164046669Y-90957857D02*
X164189527Y-90886428D01*
X164189527Y-90886428D02*
X164403812Y-90886428D01*
X164403812Y-90886428D02*
X164618098Y-90957857D01*
X164618098Y-90957857D02*
X164760955Y-91100714D01*
X164760955Y-91100714D02*
X164832384Y-91243571D01*
X164832384Y-91243571D02*
X164903812Y-91529285D01*
X164903812Y-91529285D02*
X164903812Y-91743571D01*
X164903812Y-91743571D02*
X164832384Y-92029285D01*
X164832384Y-92029285D02*
X164760955Y-92172142D01*
X164760955Y-92172142D02*
X164618098Y-92315000D01*
X164618098Y-92315000D02*
X164403812Y-92386428D01*
X164403812Y-92386428D02*
X164260955Y-92386428D01*
X164260955Y-92386428D02*
X164046669Y-92315000D01*
X164046669Y-92315000D02*
X163975241Y-92243571D01*
X163975241Y-92243571D02*
X163975241Y-91743571D01*
X163975241Y-91743571D02*
X164260955Y-91743571D01*
X163332384Y-92386428D02*
X163332384Y-90886428D01*
X163332384Y-90886428D02*
X162760955Y-90886428D01*
X162760955Y-90886428D02*
X162618098Y-90957857D01*
X162618098Y-90957857D02*
X162546669Y-91029285D01*
X162546669Y-91029285D02*
X162475241Y-91172142D01*
X162475241Y-91172142D02*
X162475241Y-91386428D01*
X162475241Y-91386428D02*
X162546669Y-91529285D01*
X162546669Y-91529285D02*
X162618098Y-91600714D01*
X162618098Y-91600714D02*
X162760955Y-91672142D01*
X162760955Y-91672142D02*
X163332384Y-91672142D01*
X161832384Y-92386428D02*
X161832384Y-90886428D01*
X160832383Y-90886428D02*
X160546669Y-90886428D01*
X160546669Y-90886428D02*
X160403812Y-90957857D01*
X160403812Y-90957857D02*
X160260955Y-91100714D01*
X160260955Y-91100714D02*
X160189526Y-91386428D01*
X160189526Y-91386428D02*
X160189526Y-91886428D01*
X160189526Y-91886428D02*
X160260955Y-92172142D01*
X160260955Y-92172142D02*
X160403812Y-92315000D01*
X160403812Y-92315000D02*
X160546669Y-92386428D01*
X160546669Y-92386428D02*
X160832383Y-92386428D01*
X160832383Y-92386428D02*
X160975241Y-92315000D01*
X160975241Y-92315000D02*
X161118098Y-92172142D01*
X161118098Y-92172142D02*
X161189526Y-91886428D01*
X161189526Y-91886428D02*
X161189526Y-91386428D01*
X161189526Y-91386428D02*
X161118098Y-91100714D01*
X161118098Y-91100714D02*
X160975241Y-90957857D01*
X160975241Y-90957857D02*
X160832383Y-90886428D01*
X158760954Y-92386428D02*
X159618097Y-92386428D01*
X159189526Y-92386428D02*
X159189526Y-90886428D01*
X159189526Y-90886428D02*
X159332383Y-91100714D01*
X159332383Y-91100714D02*
X159475240Y-91243571D01*
X159475240Y-91243571D02*
X159618097Y-91315000D01*
X158118098Y-92243571D02*
X158046669Y-92315000D01*
X158046669Y-92315000D02*
X158118098Y-92386428D01*
X158118098Y-92386428D02*
X158189526Y-92315000D01*
X158189526Y-92315000D02*
X158118098Y-92243571D01*
X158118098Y-92243571D02*
X158118098Y-92386428D01*
X158118098Y-91457857D02*
X158046669Y-91529285D01*
X158046669Y-91529285D02*
X158118098Y-91600714D01*
X158118098Y-91600714D02*
X158189526Y-91529285D01*
X158189526Y-91529285D02*
X158118098Y-91457857D01*
X158118098Y-91457857D02*
X158118098Y-91600714D01*
X156475240Y-90886428D02*
X155618098Y-90886428D01*
X156046669Y-92386428D02*
X156046669Y-90886428D01*
X155260955Y-90886428D02*
X154260955Y-92386428D01*
X154260955Y-90886428D02*
X155260955Y-92386428D01*
D11*
%TO.C,G\u002A\u002A\u002A*%
G36*
X151754212Y-63287839D02*
G01*
X151755177Y-63319494D01*
X151756687Y-63345993D01*
X151759352Y-63365759D01*
X151763921Y-63382402D01*
X151771142Y-63399531D01*
X151781764Y-63420757D01*
X151785746Y-63428567D01*
X151796321Y-63449953D01*
X151803328Y-63465134D01*
X151805414Y-63471226D01*
X151803390Y-63472599D01*
X151792899Y-63479628D01*
X151776845Y-63490343D01*
X151768007Y-63496078D01*
X151753293Y-63504830D01*
X151745535Y-63508277D01*
X151741408Y-63506668D01*
X151729693Y-63496224D01*
X151714616Y-63478542D01*
X151698393Y-63456525D01*
X151683240Y-63433078D01*
X151671373Y-63411103D01*
X151654831Y-63369119D01*
X151642211Y-63313235D01*
X151638203Y-63250584D01*
X151638203Y-63204207D01*
X151695088Y-63204207D01*
X151751972Y-63204207D01*
X151754212Y-63287839D01*
G37*
G36*
X166365312Y-62441847D02*
G01*
X166369744Y-62442048D01*
X166401527Y-62444289D01*
X166425680Y-62448307D01*
X166447472Y-62455320D01*
X166472166Y-62466544D01*
X166512334Y-62491193D01*
X166549859Y-62527866D01*
X166579441Y-62574875D01*
X166583311Y-62583091D01*
X166589277Y-62599575D01*
X166592835Y-62618229D01*
X166594560Y-62642830D01*
X166595027Y-62677152D01*
X166593839Y-62716206D01*
X166588442Y-62753854D01*
X166577417Y-62785077D01*
X166559392Y-62813538D01*
X166532998Y-62842903D01*
X166529429Y-62846430D01*
X166506705Y-62866717D01*
X166482001Y-62884375D01*
X166452564Y-62900986D01*
X166415638Y-62918133D01*
X166368469Y-62937398D01*
X166367857Y-62937638D01*
X166314554Y-62959912D01*
X166273127Y-62980820D01*
X166242235Y-63001737D01*
X166220538Y-63024038D01*
X166206695Y-63049096D01*
X166199365Y-63078287D01*
X166197208Y-63112986D01*
X166197833Y-63129812D01*
X166206631Y-63172640D01*
X166225523Y-63206591D01*
X166254133Y-63231299D01*
X166292084Y-63246393D01*
X166338998Y-63251507D01*
X166342172Y-63251492D01*
X166386977Y-63247253D01*
X166424015Y-63234668D01*
X166456787Y-63212579D01*
X166464840Y-63205412D01*
X166487119Y-63180062D01*
X166500953Y-63151596D01*
X166509030Y-63114991D01*
X166514181Y-63079200D01*
X166568145Y-63079200D01*
X166622108Y-63079200D01*
X166619986Y-63112202D01*
X166613786Y-63151385D01*
X166594800Y-63201019D01*
X166564834Y-63245991D01*
X166525259Y-63284737D01*
X166477449Y-63315690D01*
X166422773Y-63337286D01*
X166417413Y-63338668D01*
X166383208Y-63343446D01*
X166342021Y-63344370D01*
X166298778Y-63341705D01*
X166258403Y-63335716D01*
X166225823Y-63326669D01*
X166187602Y-63307883D01*
X166146597Y-63275315D01*
X166115703Y-63234126D01*
X166095419Y-63185024D01*
X166086243Y-63128716D01*
X166086850Y-63073976D01*
X166096410Y-63023823D01*
X166115793Y-62979780D01*
X166145723Y-62940918D01*
X166186921Y-62906308D01*
X166240108Y-62875022D01*
X166306008Y-62846131D01*
X166339780Y-62832656D01*
X166380894Y-62814339D01*
X166412464Y-62797218D01*
X166436637Y-62780082D01*
X166455563Y-62761718D01*
X166474909Y-62732576D01*
X166486970Y-62694795D01*
X166488310Y-62655337D01*
X166479265Y-62617052D01*
X166460168Y-62582792D01*
X166431355Y-62555408D01*
X166415145Y-62546826D01*
X166381552Y-62537731D01*
X166343667Y-62535127D01*
X166306286Y-62539177D01*
X166274207Y-62550046D01*
X166267534Y-62553723D01*
X166235562Y-62580196D01*
X166212591Y-62616462D01*
X166199005Y-62661948D01*
X166191588Y-62704180D01*
X166137311Y-62704180D01*
X166083035Y-62704180D01*
X166087214Y-62668901D01*
X166089640Y-62652407D01*
X166105771Y-62595979D01*
X166132537Y-62546192D01*
X166168855Y-62504375D01*
X166213640Y-62471857D01*
X166265809Y-62449966D01*
X166285599Y-62445314D01*
X166320998Y-62441562D01*
X166365312Y-62441847D01*
G37*
G36*
X162205939Y-62441288D02*
G01*
X162254435Y-62448774D01*
X162295685Y-62463092D01*
X162307240Y-62469145D01*
X162351615Y-62501309D01*
X162386787Y-62542183D01*
X162411763Y-62589984D01*
X162425551Y-62642931D01*
X162427160Y-62699240D01*
X162425710Y-62712726D01*
X162414198Y-62761255D01*
X162392791Y-62804452D01*
X162360785Y-62843037D01*
X162317480Y-62877728D01*
X162262175Y-62909246D01*
X162194169Y-62938309D01*
X162153734Y-62954505D01*
X162107153Y-62977160D01*
X162072135Y-63000588D01*
X162047574Y-63026023D01*
X162032366Y-63054700D01*
X162025404Y-63087854D01*
X162025584Y-63126722D01*
X162027666Y-63144760D01*
X162038377Y-63183657D01*
X162057456Y-63212810D01*
X162085668Y-63232852D01*
X162123777Y-63244414D01*
X162172547Y-63248128D01*
X162202675Y-63247532D01*
X162224758Y-63245105D01*
X162242374Y-63239967D01*
X162260090Y-63231235D01*
X162263877Y-63229037D01*
X162297571Y-63201131D01*
X162321997Y-63163747D01*
X162336610Y-63117694D01*
X162344567Y-63075822D01*
X162398017Y-63075822D01*
X162451466Y-63075822D01*
X162447826Y-63115968D01*
X162445751Y-63132646D01*
X162430726Y-63186221D01*
X162404015Y-63234028D01*
X162366416Y-63275131D01*
X162318730Y-63308594D01*
X162261757Y-63333483D01*
X162244409Y-63338538D01*
X162220669Y-63342742D01*
X162192593Y-63344272D01*
X162155655Y-63343559D01*
X162153866Y-63343486D01*
X162106675Y-63339911D01*
X162069160Y-63332660D01*
X162037791Y-63320364D01*
X162009037Y-63301653D01*
X161979370Y-63275157D01*
X161966527Y-63261901D01*
X161940966Y-63229030D01*
X161924600Y-63194572D01*
X161916004Y-63154860D01*
X161913753Y-63106229D01*
X161915049Y-63077662D01*
X161924065Y-63026935D01*
X161942354Y-62982663D01*
X161970749Y-62943833D01*
X162010084Y-62909434D01*
X162061193Y-62878452D01*
X162124911Y-62849875D01*
X162152187Y-62838901D01*
X162202866Y-62816637D01*
X162242260Y-62795778D01*
X162271639Y-62775119D01*
X162292275Y-62753456D01*
X162305441Y-62729584D01*
X162312407Y-62702298D01*
X162314447Y-62670395D01*
X162314044Y-62657143D01*
X162305907Y-62614354D01*
X162287619Y-62580361D01*
X162259600Y-62555574D01*
X162222269Y-62540401D01*
X162176044Y-62535252D01*
X162154017Y-62536218D01*
X162128112Y-62539576D01*
X162109417Y-62544509D01*
X162091397Y-62554673D01*
X162065042Y-62579704D01*
X162043593Y-62612437D01*
X162029169Y-62649346D01*
X162023891Y-62686901D01*
X162023441Y-62695088D01*
X162020287Y-62700310D01*
X162011726Y-62703013D01*
X161995056Y-62704027D01*
X161967574Y-62704180D01*
X161911257Y-62704180D01*
X161916926Y-62662725D01*
X161917215Y-62660667D01*
X161931413Y-62604513D01*
X161956258Y-62554123D01*
X161990446Y-62511150D01*
X162032671Y-62477247D01*
X162081629Y-62454066D01*
X162105304Y-62447577D01*
X162154720Y-62440825D01*
X162205939Y-62441288D01*
G37*
G36*
X160796015Y-62448830D02*
G01*
X160851531Y-62450788D01*
X160851531Y-62788644D01*
X160851513Y-62841403D01*
X160851350Y-62916843D01*
X160850916Y-62980715D01*
X160850088Y-63034224D01*
X160848742Y-63078572D01*
X160846756Y-63114965D01*
X160844006Y-63144607D01*
X160840370Y-63168701D01*
X160835724Y-63188452D01*
X160829946Y-63205065D01*
X160822912Y-63219742D01*
X160814499Y-63233689D01*
X160804585Y-63248109D01*
X160781871Y-63276200D01*
X160752891Y-63301313D01*
X160717623Y-63320745D01*
X160672468Y-63336918D01*
X160653250Y-63341034D01*
X160616829Y-63344230D01*
X160574969Y-63344154D01*
X160532196Y-63341029D01*
X160493032Y-63335080D01*
X160462003Y-63326528D01*
X160428515Y-63310263D01*
X160386700Y-63277754D01*
X160353166Y-63235531D01*
X160328756Y-63184733D01*
X160314312Y-63126500D01*
X160312629Y-63107995D01*
X160311202Y-63076616D01*
X160310094Y-63033634D01*
X160309316Y-62980015D01*
X160308884Y-62916724D01*
X160308811Y-62844729D01*
X160309110Y-62764994D01*
X160310962Y-62450788D01*
X160366476Y-62448830D01*
X160421990Y-62446871D01*
X160423912Y-62797013D01*
X160425833Y-63147156D01*
X160442866Y-63180749D01*
X160443124Y-63181257D01*
X160456523Y-63203296D01*
X160472757Y-63219015D01*
X160496923Y-63233376D01*
X160500604Y-63235253D01*
X160520470Y-63244304D01*
X160538193Y-63249179D01*
X160558971Y-63250841D01*
X160588004Y-63250254D01*
X160597269Y-63249794D01*
X160638579Y-63244437D01*
X160670369Y-63233125D01*
X160695390Y-63214510D01*
X160716389Y-63187241D01*
X160736660Y-63154606D01*
X160738579Y-62800738D01*
X160740499Y-62446871D01*
X160796015Y-62448830D01*
G37*
G36*
X158240040Y-62759927D02*
G01*
X158240147Y-62810480D01*
X158240529Y-62874244D01*
X158241155Y-62934167D01*
X158241995Y-62988638D01*
X158243019Y-63036043D01*
X158244196Y-63074770D01*
X158245495Y-63103207D01*
X158246885Y-63119743D01*
X158257021Y-63163474D01*
X158275452Y-63199809D01*
X158302363Y-63225916D01*
X158338410Y-63242419D01*
X158384250Y-63249940D01*
X158411842Y-63250616D01*
X158458200Y-63245105D01*
X158495553Y-63230220D01*
X158524763Y-63205540D01*
X158546694Y-63170645D01*
X158549803Y-63163538D01*
X158552481Y-63155851D01*
X158554707Y-63146546D01*
X158556533Y-63134434D01*
X158558009Y-63118324D01*
X158559187Y-63097028D01*
X158560118Y-63069356D01*
X158560853Y-63034118D01*
X158561442Y-62990124D01*
X158561936Y-62936185D01*
X158562387Y-62871111D01*
X158562846Y-62793712D01*
X158564823Y-62447410D01*
X158618872Y-62447410D01*
X158672922Y-62447410D01*
X158670952Y-62803848D01*
X158670761Y-62838250D01*
X158670329Y-62911458D01*
X158669891Y-62972839D01*
X158669394Y-63023584D01*
X158668787Y-63064882D01*
X158668019Y-63097924D01*
X158667035Y-63123899D01*
X158665786Y-63143997D01*
X158664218Y-63159408D01*
X158662280Y-63171323D01*
X158659920Y-63180931D01*
X158657086Y-63189422D01*
X158653725Y-63197986D01*
X158632875Y-63238999D01*
X158599792Y-63279393D01*
X158557281Y-63310530D01*
X158504539Y-63333141D01*
X158484145Y-63338298D01*
X158443192Y-63343835D01*
X158398100Y-63345525D01*
X158354396Y-63343258D01*
X158317613Y-63336921D01*
X158315531Y-63336357D01*
X158261344Y-63315027D01*
X158215177Y-63283504D01*
X158178144Y-63242751D01*
X158151364Y-63193729D01*
X158135170Y-63153529D01*
X158133198Y-62800469D01*
X158131226Y-62447410D01*
X158185566Y-62447410D01*
X158239906Y-62447410D01*
X158240040Y-62759927D01*
G37*
G36*
X157771708Y-62443596D02*
G01*
X157811361Y-62449813D01*
X157842720Y-62459552D01*
X157854626Y-62465310D01*
X157898177Y-62495191D01*
X157933599Y-62534053D01*
X157959884Y-62579766D01*
X157976025Y-62630202D01*
X157981015Y-62683233D01*
X157973847Y-62736728D01*
X157961260Y-62774158D01*
X157938798Y-62814369D01*
X157907373Y-62849877D01*
X157865853Y-62881695D01*
X157813102Y-62910835D01*
X157747986Y-62938309D01*
X157715795Y-62950969D01*
X157668372Y-62972787D01*
X157632386Y-62994826D01*
X157606582Y-63018355D01*
X157589704Y-63044645D01*
X157580498Y-63074964D01*
X157577708Y-63110583D01*
X157578094Y-63123763D01*
X157586236Y-63167559D01*
X157604844Y-63203067D01*
X157633780Y-63229992D01*
X157642006Y-63235217D01*
X157655842Y-63242090D01*
X157671208Y-63245988D01*
X157692094Y-63247729D01*
X157722493Y-63248128D01*
X157738994Y-63248041D01*
X157764639Y-63247004D01*
X157783172Y-63244092D01*
X157798880Y-63238438D01*
X157816048Y-63229173D01*
X157821280Y-63225976D01*
X157853756Y-63198382D01*
X157876357Y-63162623D01*
X157889948Y-63117390D01*
X157897678Y-63075822D01*
X157950542Y-63075822D01*
X158003407Y-63075822D01*
X158003407Y-63098760D01*
X158003245Y-63104273D01*
X157997799Y-63137310D01*
X157986026Y-63174545D01*
X157969839Y-63210777D01*
X157951150Y-63240806D01*
X157919905Y-63274519D01*
X157872765Y-63308469D01*
X157818586Y-63332179D01*
X157771317Y-63342640D01*
X157715443Y-63345701D01*
X157659610Y-63340156D01*
X157607574Y-63326407D01*
X157563090Y-63304855D01*
X157551849Y-63297171D01*
X157514638Y-63262315D01*
X157488182Y-63219649D01*
X157472325Y-63168852D01*
X157466909Y-63109607D01*
X157468968Y-63065308D01*
X157477866Y-63021100D01*
X157494771Y-62983165D01*
X157520732Y-62948353D01*
X157524284Y-62944457D01*
X157553765Y-62916372D01*
X157587314Y-62892419D01*
X157628044Y-62870648D01*
X157679065Y-62849106D01*
X157679956Y-62848762D01*
X157729969Y-62828669D01*
X157768906Y-62811005D01*
X157798673Y-62794576D01*
X157821179Y-62778187D01*
X157838329Y-62760644D01*
X157852032Y-62740751D01*
X157862200Y-62716940D01*
X157868206Y-62679467D01*
X157865544Y-62640175D01*
X157854639Y-62603438D01*
X157835910Y-62573634D01*
X157830261Y-62567989D01*
X157801407Y-62549587D01*
X157765359Y-62538225D01*
X157725851Y-62534365D01*
X157686623Y-62538464D01*
X157651410Y-62550981D01*
X157638369Y-62559010D01*
X157609898Y-62586930D01*
X157589857Y-62623424D01*
X157579750Y-62666076D01*
X157575818Y-62704180D01*
X157518913Y-62704180D01*
X157462009Y-62704180D01*
X157466591Y-62672084D01*
X157467867Y-62663832D01*
X157483831Y-62603663D01*
X157510015Y-62551451D01*
X157545790Y-62507983D01*
X157590532Y-62474042D01*
X157643612Y-62450415D01*
X157651089Y-62448290D01*
X157686761Y-62442614D01*
X157728571Y-62441123D01*
X157771708Y-62443596D01*
G37*
G36*
X152954188Y-62444146D02*
G01*
X152980779Y-62444902D01*
X153000374Y-62446892D01*
X153016438Y-62450711D01*
X153032435Y-62456948D01*
X153051831Y-62466199D01*
X153081424Y-62483409D01*
X153125669Y-62521198D01*
X153162356Y-62569112D01*
X153190668Y-62625989D01*
X153209786Y-62690666D01*
X153211852Y-62701439D01*
X153214747Y-62721787D01*
X153216780Y-62745724D01*
X153218022Y-62775234D01*
X153218542Y-62812300D01*
X153218408Y-62858904D01*
X153217690Y-62917029D01*
X153216825Y-62968957D01*
X153215852Y-63012189D01*
X153214657Y-63045730D01*
X153213080Y-63071539D01*
X153210960Y-63091575D01*
X153208137Y-63107798D01*
X153204452Y-63122165D01*
X153199744Y-63136636D01*
X153184455Y-63175339D01*
X153152932Y-63232291D01*
X153114332Y-63277960D01*
X153068360Y-63312665D01*
X153014722Y-63336725D01*
X153000404Y-63340294D01*
X152965927Y-63344090D01*
X152925305Y-63344287D01*
X152882957Y-63341124D01*
X152843306Y-63334841D01*
X152810772Y-63325677D01*
X152780885Y-63310691D01*
X152743213Y-63282240D01*
X152710536Y-63247115D01*
X152686863Y-63209090D01*
X152681534Y-63196647D01*
X152670616Y-63165282D01*
X152661152Y-63131011D01*
X152654463Y-63098929D01*
X152651870Y-63074132D01*
X152651771Y-63055550D01*
X152705699Y-63055550D01*
X152720890Y-63055485D01*
X152742021Y-63055968D01*
X152754637Y-63059400D01*
X152761609Y-63068341D01*
X152765805Y-63085350D01*
X152770095Y-63112986D01*
X152770725Y-63116702D01*
X152779341Y-63148233D01*
X152792672Y-63179210D01*
X152808574Y-63205349D01*
X152824899Y-63222367D01*
X152848396Y-63235751D01*
X152889386Y-63248685D01*
X152932711Y-63252027D01*
X152975200Y-63246001D01*
X153013684Y-63230833D01*
X153044991Y-63206748D01*
X153051434Y-63199499D01*
X153069961Y-63173016D01*
X153084663Y-63141364D01*
X153095794Y-63103184D01*
X153103606Y-63057120D01*
X153108348Y-63001813D01*
X153110275Y-62935907D01*
X153109636Y-62858043D01*
X153109054Y-62832922D01*
X153107718Y-62788132D01*
X153106079Y-62753483D01*
X153103923Y-62726679D01*
X153101038Y-62705422D01*
X153097210Y-62687416D01*
X153092226Y-62670364D01*
X153073903Y-62626167D01*
X153046475Y-62586191D01*
X153012160Y-62557798D01*
X152970845Y-62540898D01*
X152922418Y-62535401D01*
X152912562Y-62535623D01*
X152866766Y-62542830D01*
X152829727Y-62560277D01*
X152801321Y-62588079D01*
X152781422Y-62626350D01*
X152769905Y-62675204D01*
X152768707Y-62684115D01*
X152764996Y-62708030D01*
X152759815Y-62722086D01*
X152750156Y-62728895D01*
X152733011Y-62731065D01*
X152705372Y-62731209D01*
X152651771Y-62731209D01*
X152651870Y-62709248D01*
X152651966Y-62705165D01*
X152655838Y-62673845D01*
X152664298Y-62636969D01*
X152675880Y-62600069D01*
X152689117Y-62568678D01*
X152715137Y-62528694D01*
X152753777Y-62490396D01*
X152799427Y-62461924D01*
X152807656Y-62458153D01*
X152823843Y-62451754D01*
X152840007Y-62447636D01*
X152859532Y-62445305D01*
X152885801Y-62444267D01*
X152922197Y-62444031D01*
X152954188Y-62444146D01*
G37*
G36*
X151004474Y-62442629D02*
G01*
X151053302Y-62449510D01*
X151093949Y-62463460D01*
X151129760Y-62485942D01*
X151164083Y-62518419D01*
X151180651Y-62538650D01*
X151207450Y-62586267D01*
X151222047Y-62638392D01*
X151224124Y-62693529D01*
X151213363Y-62750180D01*
X151207309Y-62767635D01*
X151185531Y-62809167D01*
X151154168Y-62846102D01*
X151112255Y-62879262D01*
X151058825Y-62909468D01*
X150992911Y-62937541D01*
X150949008Y-62955190D01*
X150902873Y-62977812D01*
X150868217Y-63001148D01*
X150843932Y-63026420D01*
X150828912Y-63054853D01*
X150822048Y-63087670D01*
X150822235Y-63126093D01*
X150823266Y-63136330D01*
X150833015Y-63176951D01*
X150851657Y-63208505D01*
X150880057Y-63232584D01*
X150882444Y-63234042D01*
X150896879Y-63241277D01*
X150912964Y-63245560D01*
X150934645Y-63247605D01*
X150965870Y-63248128D01*
X150973076Y-63248111D01*
X151002247Y-63247322D01*
X151023067Y-63244777D01*
X151039820Y-63239680D01*
X151056791Y-63231235D01*
X151060578Y-63229037D01*
X151094272Y-63201131D01*
X151118698Y-63163747D01*
X151133311Y-63117694D01*
X151141269Y-63075822D01*
X151194718Y-63075822D01*
X151248167Y-63075822D01*
X151244527Y-63115968D01*
X151242230Y-63133989D01*
X151226902Y-63187379D01*
X151199966Y-63235026D01*
X151162316Y-63275885D01*
X151114848Y-63308911D01*
X151058458Y-63333060D01*
X151053457Y-63334563D01*
X151015526Y-63341932D01*
X150971564Y-63345285D01*
X150927577Y-63344408D01*
X150889573Y-63339087D01*
X150853778Y-63328126D01*
X150805387Y-63302765D01*
X150765778Y-63268249D01*
X150735801Y-63225887D01*
X150716302Y-63176989D01*
X150708130Y-63122867D01*
X150712131Y-63064830D01*
X150722517Y-63022392D01*
X150742210Y-62978095D01*
X150770871Y-62939806D01*
X150809618Y-62906375D01*
X150859570Y-62876655D01*
X150921843Y-62849499D01*
X150926627Y-62847666D01*
X150982856Y-62824591D01*
X151027108Y-62802805D01*
X151060595Y-62781183D01*
X151084531Y-62758598D01*
X151100126Y-62733928D01*
X151108595Y-62706045D01*
X151111148Y-62673825D01*
X151110671Y-62658944D01*
X151102410Y-62615419D01*
X151084172Y-62580911D01*
X151056330Y-62555796D01*
X151019260Y-62540451D01*
X150973336Y-62535252D01*
X150940354Y-62536684D01*
X150912645Y-62542567D01*
X150889385Y-62554579D01*
X150865998Y-62574390D01*
X150861331Y-62579235D01*
X150840263Y-62610343D01*
X150825901Y-62647552D01*
X150820592Y-62685135D01*
X150820592Y-62704180D01*
X150763800Y-62704180D01*
X150707007Y-62704180D01*
X150710341Y-62675463D01*
X150710891Y-62670989D01*
X150724661Y-62611589D01*
X150749224Y-62558598D01*
X150783735Y-62513445D01*
X150827349Y-62477561D01*
X150848851Y-62465260D01*
X150888761Y-62450128D01*
X150934311Y-62442532D01*
X150988708Y-62441762D01*
X151004474Y-62442629D01*
G37*
G36*
X149989327Y-62440993D02*
G01*
X150051988Y-62449248D01*
X150106869Y-62468520D01*
X150153929Y-62498790D01*
X150193125Y-62540039D01*
X150196963Y-62545166D01*
X150214992Y-62571117D01*
X150228774Y-62595723D01*
X150240729Y-62623824D01*
X150253279Y-62660259D01*
X150258078Y-62676187D01*
X150262136Y-62693405D01*
X150265191Y-62712724D01*
X150267455Y-62736426D01*
X150269141Y-62766795D01*
X150270464Y-62806113D01*
X150271635Y-62856662D01*
X150272078Y-62882486D01*
X150272366Y-62939731D01*
X150271596Y-62988942D01*
X150269809Y-63028302D01*
X150267048Y-63055997D01*
X150256834Y-63107516D01*
X150235164Y-63173475D01*
X150205534Y-63229436D01*
X150168242Y-63274973D01*
X150123589Y-63309661D01*
X150071875Y-63333073D01*
X150055629Y-63337398D01*
X150019742Y-63343312D01*
X149982710Y-63345663D01*
X149981436Y-63345668D01*
X149917016Y-63340403D01*
X149860649Y-63324304D01*
X149812426Y-63297456D01*
X149772439Y-63259944D01*
X149740778Y-63211852D01*
X149717534Y-63153265D01*
X149702798Y-63084268D01*
X149698751Y-63055550D01*
X149754891Y-63055550D01*
X149811031Y-63055550D01*
X149819201Y-63103192D01*
X149827761Y-63140883D01*
X149845547Y-63184246D01*
X149870485Y-63216400D01*
X149903126Y-63237807D01*
X149944019Y-63248929D01*
X149993712Y-63250229D01*
X150035901Y-63242486D01*
X150074021Y-63223425D01*
X150105348Y-63192986D01*
X150130111Y-63150943D01*
X150148539Y-63097071D01*
X150148892Y-63095677D01*
X150152235Y-63080052D01*
X150154730Y-63062225D01*
X150156447Y-63040312D01*
X150157458Y-63012429D01*
X150157834Y-62976692D01*
X150157646Y-62931216D01*
X150156965Y-62874116D01*
X150156789Y-62861875D01*
X150155946Y-62809721D01*
X150155020Y-62768837D01*
X150153861Y-62737360D01*
X150152318Y-62713427D01*
X150150239Y-62695176D01*
X150147474Y-62680744D01*
X150143872Y-62668268D01*
X150139282Y-62655887D01*
X150124937Y-62626369D01*
X150100009Y-62591012D01*
X150070920Y-62562903D01*
X150040436Y-62545140D01*
X150021942Y-62539701D01*
X149985680Y-62535247D01*
X149947676Y-62536627D01*
X149912714Y-62543520D01*
X149885576Y-62555600D01*
X149879737Y-62559999D01*
X149858331Y-62583924D01*
X149839407Y-62616514D01*
X149824894Y-62653936D01*
X149816722Y-62692355D01*
X149812225Y-62731209D01*
X149755488Y-62731209D01*
X149698751Y-62731209D01*
X149702808Y-62702491D01*
X149704303Y-62692450D01*
X149719462Y-62623986D01*
X149741868Y-62566814D01*
X149771805Y-62520658D01*
X149809559Y-62485240D01*
X149855415Y-62460285D01*
X149909658Y-62445515D01*
X149972574Y-62440653D01*
X149989327Y-62440993D01*
G37*
G36*
X147197992Y-62664414D02*
G01*
X147194866Y-62695965D01*
X147186958Y-62726801D01*
X147173320Y-62759713D01*
X147153002Y-62797490D01*
X147125055Y-62842920D01*
X147124616Y-62843621D01*
X147121800Y-62850516D01*
X147123186Y-62858162D01*
X147130162Y-62868708D01*
X147144115Y-62884308D01*
X147166432Y-62907113D01*
X147202481Y-62947448D01*
X147233126Y-62994067D01*
X147251563Y-63041250D01*
X147258384Y-63090590D01*
X147257681Y-63099472D01*
X147254182Y-63143684D01*
X147244475Y-63185386D01*
X147223022Y-63236544D01*
X147192372Y-63278010D01*
X147152193Y-63310198D01*
X147102152Y-63333524D01*
X147069135Y-63341983D01*
X147015472Y-63345699D01*
X146960551Y-63338985D01*
X146908020Y-63322401D01*
X146861527Y-63296508D01*
X146827980Y-63272406D01*
X146808976Y-63302487D01*
X146789972Y-63332568D01*
X146727469Y-63332580D01*
X146712390Y-63332465D01*
X146688026Y-63331690D01*
X146671226Y-63330343D01*
X146664966Y-63328614D01*
X146665068Y-63328210D01*
X146669818Y-63319861D01*
X146680620Y-63303000D01*
X146696028Y-63279841D01*
X146714599Y-63252596D01*
X146756436Y-63191874D01*
X146884572Y-63191874D01*
X146904843Y-63208547D01*
X146907135Y-63210389D01*
X146928214Y-63225276D01*
X146950432Y-63238489D01*
X146960044Y-63243142D01*
X147000977Y-63254679D01*
X147041030Y-63253175D01*
X147078597Y-63238894D01*
X147112071Y-63212097D01*
X147134642Y-63180771D01*
X147147375Y-63144143D01*
X147151144Y-63099472D01*
X147150976Y-63092152D01*
X147145693Y-63054735D01*
X147131864Y-63019362D01*
X147107887Y-62981672D01*
X147095198Y-62964364D01*
X147084524Y-62951373D01*
X147075046Y-62944093D01*
X147065487Y-62943287D01*
X147054567Y-62949723D01*
X147041008Y-62964166D01*
X147023531Y-62987380D01*
X147000857Y-63020132D01*
X146971708Y-63063186D01*
X146884572Y-63191874D01*
X146756436Y-63191874D01*
X146764233Y-63180557D01*
X146745530Y-63139539D01*
X146744235Y-63136649D01*
X146729281Y-63095791D01*
X146716958Y-63048997D01*
X146708592Y-63002176D01*
X146705508Y-62961236D01*
X146705508Y-62927165D01*
X146751828Y-62927165D01*
X146798148Y-62927165D01*
X146801978Y-62972776D01*
X146802034Y-62973441D01*
X146805664Y-63005170D01*
X146810686Y-63034783D01*
X146816439Y-63059446D01*
X146822265Y-63076323D01*
X146827505Y-63082579D01*
X146831339Y-63078773D01*
X146841571Y-63065765D01*
X146856643Y-63045459D01*
X146875135Y-63019882D01*
X146895628Y-62991059D01*
X146916702Y-62961016D01*
X146936936Y-62931781D01*
X146954911Y-62905378D01*
X146969208Y-62883833D01*
X146978406Y-62869174D01*
X146981085Y-62863425D01*
X146979524Y-62862195D01*
X146969866Y-62854073D01*
X146953540Y-62840133D01*
X146932947Y-62822420D01*
X146901194Y-62793098D01*
X146872277Y-62760027D01*
X146851911Y-62726951D01*
X146837979Y-62690939D01*
X146834240Y-62677072D01*
X146827902Y-62627654D01*
X146928493Y-62627654D01*
X146928504Y-62630278D01*
X146931792Y-62666228D01*
X146942191Y-62696280D01*
X146961521Y-62724054D01*
X146991601Y-62753169D01*
X146993597Y-62754876D01*
X147012519Y-62770252D01*
X147027585Y-62781135D01*
X147035688Y-62785266D01*
X147036772Y-62784855D01*
X147043935Y-62776504D01*
X147054482Y-62759599D01*
X147066547Y-62737058D01*
X147075716Y-62717949D01*
X147085029Y-62693766D01*
X147089507Y-62671551D01*
X147090664Y-62645568D01*
X147090659Y-62644049D01*
X147086149Y-62603784D01*
X147074091Y-62570989D01*
X147055768Y-62546864D01*
X147032466Y-62532606D01*
X147005466Y-62529417D01*
X146976054Y-62538496D01*
X146961872Y-62546962D01*
X146942326Y-62566404D01*
X146931701Y-62592362D01*
X146928493Y-62627654D01*
X146827902Y-62627654D01*
X146827465Y-62624244D01*
X146833498Y-62575241D01*
X146852245Y-62530481D01*
X146883610Y-62490383D01*
X146890367Y-62483803D01*
X146916514Y-62462658D01*
X146943502Y-62449453D01*
X146975415Y-62442661D01*
X147016336Y-62440756D01*
X147065624Y-62446444D01*
X147108596Y-62463353D01*
X147143865Y-62490845D01*
X147170820Y-62528281D01*
X147188852Y-62575022D01*
X147197349Y-62630426D01*
X147197635Y-62645568D01*
X147197992Y-62664414D01*
G37*
G36*
X156663392Y-63213118D02*
G01*
X156688579Y-63224407D01*
X156704113Y-63244889D01*
X156709419Y-63274027D01*
X156709216Y-63282219D01*
X156704809Y-63304420D01*
X156693038Y-63321912D01*
X156671952Y-63335522D01*
X156645086Y-63340395D01*
X156617298Y-63336252D01*
X156593235Y-63323041D01*
X156582201Y-63311687D01*
X156575858Y-63297048D01*
X156574277Y-63275157D01*
X156576681Y-63253959D01*
X156588733Y-63230315D01*
X156610582Y-63215862D01*
X156641848Y-63210964D01*
X156663392Y-63213118D01*
G37*
G36*
X141996466Y-63218892D02*
G01*
X142010806Y-63224120D01*
X142022336Y-63235525D01*
X142031374Y-63252078D01*
X142036341Y-63278535D01*
X142033528Y-63298378D01*
X142022336Y-63321545D01*
X142014613Y-63329957D01*
X142000482Y-63337412D01*
X141979164Y-63339349D01*
X141956816Y-63337384D01*
X141934642Y-63327601D01*
X141922064Y-63308742D01*
X141918091Y-63279842D01*
X141920481Y-63253239D01*
X141929999Y-63232525D01*
X141948075Y-63221177D01*
X141976084Y-63217721D01*
X141996466Y-63218892D01*
G37*
G36*
X169260762Y-62890572D02*
G01*
X169260762Y-63333734D01*
X169113795Y-63331169D01*
X169107219Y-63331053D01*
X169059280Y-63330072D01*
X169022435Y-63328930D01*
X168994522Y-63327419D01*
X168973379Y-63325335D01*
X168956844Y-63322472D01*
X168942756Y-63318624D01*
X168928952Y-63313585D01*
X168884901Y-63292816D01*
X168836848Y-63259411D01*
X168798208Y-63217815D01*
X168768395Y-63167195D01*
X168746822Y-63106720D01*
X168732904Y-63035557D01*
X168731232Y-63020470D01*
X168728864Y-62982866D01*
X168727782Y-62938246D01*
X168727869Y-62902321D01*
X168835618Y-62902321D01*
X168837024Y-62960324D01*
X168840759Y-63014373D01*
X168846850Y-63061417D01*
X168855323Y-63098405D01*
X168874368Y-63141662D01*
X168902536Y-63179713D01*
X168937292Y-63208989D01*
X168976501Y-63227221D01*
X168997601Y-63231922D01*
X169036603Y-63236415D01*
X169082925Y-63237992D01*
X169152648Y-63237992D01*
X169152648Y-62890001D01*
X169152648Y-62542010D01*
X169107038Y-62542143D01*
X169101602Y-62542184D01*
X169054222Y-62544568D01*
X169009760Y-62550183D01*
X168971720Y-62558458D01*
X168943606Y-62568820D01*
X168929713Y-62577238D01*
X168900683Y-62602863D01*
X168875818Y-62635026D01*
X168859068Y-62669045D01*
X168852754Y-62691808D01*
X168845109Y-62735108D01*
X168839687Y-62786662D01*
X168836515Y-62843416D01*
X168835618Y-62902321D01*
X168727869Y-62902321D01*
X168727900Y-62889540D01*
X168729127Y-62839678D01*
X168731377Y-62791591D01*
X168734562Y-62748210D01*
X168738592Y-62712465D01*
X168743380Y-62687288D01*
X168748007Y-62671331D01*
X168772868Y-62609304D01*
X168805975Y-62557780D01*
X168847621Y-62516377D01*
X168898097Y-62484711D01*
X168910309Y-62478977D01*
X168938208Y-62468005D01*
X168967868Y-62459785D01*
X169001629Y-62453974D01*
X169041836Y-62450226D01*
X169090832Y-62448197D01*
X169150959Y-62447544D01*
X169260762Y-62447410D01*
X169260762Y-62890001D01*
X169260762Y-62890572D01*
G37*
G36*
X168556382Y-62891690D02*
G01*
X168558120Y-63332592D01*
X168321572Y-63332592D01*
X168085024Y-63332592D01*
X168085024Y-63285292D01*
X168085024Y-63237992D01*
X168264088Y-63237992D01*
X168443151Y-63237992D01*
X168443151Y-63082579D01*
X168443151Y-62927165D01*
X168287738Y-62927165D01*
X168132324Y-62927165D01*
X168132324Y-62879865D01*
X168132324Y-62832566D01*
X168287738Y-62832566D01*
X168443151Y-62832566D01*
X168443151Y-62687288D01*
X168443151Y-62542010D01*
X168263779Y-62542010D01*
X168084407Y-62542010D01*
X168086405Y-62496399D01*
X168088403Y-62450788D01*
X168321523Y-62450788D01*
X168554644Y-62450788D01*
X168556382Y-62891690D01*
G37*
G36*
X167936368Y-62890001D02*
G01*
X167936368Y-63332592D01*
X167882311Y-63332592D01*
X167828254Y-63332592D01*
X167828254Y-62890001D01*
X167828254Y-62447410D01*
X167882311Y-62447410D01*
X167936368Y-62447410D01*
X167936368Y-62890001D01*
G37*
G36*
X167167684Y-62787888D02*
G01*
X167169435Y-63128367D01*
X167334984Y-62807393D01*
X167348967Y-62780294D01*
X167380165Y-62719914D01*
X167409523Y-62663211D01*
X167436418Y-62611375D01*
X167460232Y-62565599D01*
X167480343Y-62527073D01*
X167496131Y-62496990D01*
X167506977Y-62476539D01*
X167512259Y-62466914D01*
X167517091Y-62459381D01*
X167523924Y-62452641D01*
X167534122Y-62449067D01*
X167551066Y-62447657D01*
X167578141Y-62447410D01*
X167632297Y-62447410D01*
X167632297Y-62890001D01*
X167632297Y-63332592D01*
X167574925Y-63332592D01*
X167517552Y-63332592D01*
X167515800Y-62998333D01*
X167514048Y-62664074D01*
X167341741Y-62998156D01*
X167169435Y-63332238D01*
X167113689Y-63332415D01*
X167057942Y-63332592D01*
X167057942Y-62890001D01*
X167057942Y-62447410D01*
X167111937Y-62447410D01*
X167165932Y-62447410D01*
X167167684Y-62787888D01*
G37*
G36*
X165370288Y-62560592D02*
G01*
X165378369Y-62585950D01*
X165391719Y-62627942D01*
X165407778Y-62678523D01*
X165425782Y-62735288D01*
X165444966Y-62795827D01*
X165464568Y-62857735D01*
X165483824Y-62918602D01*
X165486645Y-62927513D01*
X165503905Y-62981698D01*
X165519923Y-63031398D01*
X165534233Y-63075211D01*
X165546370Y-63111735D01*
X165555868Y-63139567D01*
X165562263Y-63157305D01*
X165565090Y-63163547D01*
X165566450Y-63160791D01*
X165571639Y-63146663D01*
X165580265Y-63121571D01*
X165591946Y-63086671D01*
X165606303Y-63043120D01*
X165622954Y-62992074D01*
X165641519Y-62934691D01*
X165661618Y-62872126D01*
X165682869Y-62805537D01*
X165796800Y-62447410D01*
X165866530Y-62447410D01*
X165936261Y-62447410D01*
X165936261Y-62890001D01*
X165936261Y-63332592D01*
X165881114Y-63332592D01*
X165825967Y-63332592D01*
X165829744Y-62996426D01*
X165833521Y-62660259D01*
X165721031Y-62996685D01*
X165608541Y-63333111D01*
X165565158Y-63331162D01*
X165521776Y-63329214D01*
X165409143Y-62991358D01*
X165296509Y-62653502D01*
X165299739Y-62993047D01*
X165302968Y-63332592D01*
X165247973Y-63332592D01*
X165192978Y-63332592D01*
X165192978Y-62890001D01*
X165192978Y-62447410D01*
X165263574Y-62447410D01*
X165334170Y-62447410D01*
X165370288Y-62560592D01*
G37*
G36*
X164954385Y-63006166D02*
G01*
X164975901Y-63073457D01*
X164995633Y-63135215D01*
X165013246Y-63190393D01*
X165028407Y-63237943D01*
X165040781Y-63276815D01*
X165050033Y-63305962D01*
X165055830Y-63324336D01*
X165057836Y-63330889D01*
X165057038Y-63331176D01*
X165046833Y-63331899D01*
X165027347Y-63332403D01*
X165001718Y-63332592D01*
X164945601Y-63332592D01*
X164912558Y-63217721D01*
X164879515Y-63102850D01*
X164729822Y-63102850D01*
X164580129Y-63102850D01*
X164546203Y-63216032D01*
X164512277Y-63329214D01*
X164457336Y-63331176D01*
X164448865Y-63331411D01*
X164425158Y-63331240D01*
X164408614Y-63329846D01*
X164402396Y-63327446D01*
X164404155Y-63320460D01*
X164409706Y-63301800D01*
X164418643Y-63272841D01*
X164430548Y-63234871D01*
X164445006Y-63189178D01*
X164461600Y-63137049D01*
X164479916Y-63079771D01*
X164499535Y-63018632D01*
X164504689Y-63002619D01*
X164611866Y-63002619D01*
X164616744Y-63004214D01*
X164633143Y-63005826D01*
X164659019Y-63007105D01*
X164692214Y-63007947D01*
X164730571Y-63008251D01*
X164762040Y-63008210D01*
X164796251Y-63007928D01*
X164819987Y-63007217D01*
X164835028Y-63005894D01*
X164843154Y-63003776D01*
X164846146Y-63000681D01*
X164845783Y-62996426D01*
X164831394Y-62947747D01*
X164806939Y-62865237D01*
X164786053Y-62795101D01*
X164768617Y-62736943D01*
X164754508Y-62690363D01*
X164743607Y-62654965D01*
X164735793Y-62630351D01*
X164730944Y-62616123D01*
X164728939Y-62611883D01*
X164728698Y-62612345D01*
X164725444Y-62621779D01*
X164719092Y-62641798D01*
X164710225Y-62670450D01*
X164699429Y-62705786D01*
X164687287Y-62745853D01*
X164674384Y-62788701D01*
X164661305Y-62832379D01*
X164648634Y-62874936D01*
X164636957Y-62914421D01*
X164626856Y-62948882D01*
X164618918Y-62976370D01*
X164613727Y-62994932D01*
X164611866Y-63002619D01*
X164504689Y-63002619D01*
X164520043Y-62954919D01*
X164541023Y-62889921D01*
X164562059Y-62824923D01*
X164582735Y-62761214D01*
X164602635Y-62700080D01*
X164621342Y-62642811D01*
X164638440Y-62590692D01*
X164653514Y-62545011D01*
X164666146Y-62507057D01*
X164675922Y-62478115D01*
X164682424Y-62459474D01*
X164685237Y-62452422D01*
X164692919Y-62449988D01*
X164710601Y-62448531D01*
X164733758Y-62448751D01*
X164776571Y-62450788D01*
X164917204Y-62889988D01*
X164931419Y-62934391D01*
X164952630Y-63000681D01*
X164954385Y-63006166D01*
G37*
G36*
X164279127Y-62891690D02*
G01*
X164280866Y-63332592D01*
X164223381Y-63332592D01*
X164165897Y-63332592D01*
X164165897Y-63153529D01*
X164165897Y-62974465D01*
X164089007Y-62974465D01*
X164012118Y-62974465D01*
X163936448Y-63148461D01*
X163933772Y-63154609D01*
X163914116Y-63199524D01*
X163896131Y-63240197D01*
X163880552Y-63274995D01*
X163868116Y-63302285D01*
X163859559Y-63320432D01*
X163855618Y-63327803D01*
X163853868Y-63328695D01*
X163841173Y-63330596D01*
X163819706Y-63331487D01*
X163792940Y-63331182D01*
X163735421Y-63329214D01*
X163818895Y-63144415D01*
X163826430Y-63127715D01*
X163846773Y-63082421D01*
X163864940Y-63041677D01*
X163880249Y-63007034D01*
X163892016Y-62980042D01*
X163899559Y-62962252D01*
X163902195Y-62955215D01*
X163898751Y-62951000D01*
X163886718Y-62941107D01*
X163869055Y-62928461D01*
X163848086Y-62912024D01*
X163814413Y-62873232D01*
X163789486Y-62826132D01*
X163773925Y-62772512D01*
X163768550Y-62716222D01*
X163882135Y-62716222D01*
X163882205Y-62723216D01*
X163887913Y-62771612D01*
X163903173Y-62811017D01*
X163928548Y-62842459D01*
X163964603Y-62866970D01*
X163976537Y-62872159D01*
X163991550Y-62876017D01*
X164011532Y-62878371D01*
X164039329Y-62879546D01*
X164077785Y-62879865D01*
X164165897Y-62879865D01*
X164165897Y-62709979D01*
X164165897Y-62540093D01*
X164076365Y-62543566D01*
X164037026Y-62545565D01*
X164000538Y-62549153D01*
X163972901Y-62554776D01*
X163951589Y-62563198D01*
X163934076Y-62575184D01*
X163917836Y-62591497D01*
X163902817Y-62611809D01*
X163890720Y-62639119D01*
X163884142Y-62672819D01*
X163882135Y-62716222D01*
X163768550Y-62716222D01*
X163768353Y-62714162D01*
X163773390Y-62652872D01*
X163781911Y-62615167D01*
X163802782Y-62563604D01*
X163832868Y-62521811D01*
X163872366Y-62489541D01*
X163921475Y-62466545D01*
X163930424Y-62463570D01*
X163945298Y-62459275D01*
X163960738Y-62456091D01*
X163978904Y-62453850D01*
X164001953Y-62452384D01*
X164032043Y-62451527D01*
X164071331Y-62451109D01*
X164121975Y-62450964D01*
X164277389Y-62450788D01*
X164278411Y-62709979D01*
X164279127Y-62891690D01*
G37*
G36*
X163726684Y-62494710D02*
G01*
X163726684Y-62542010D01*
X163611813Y-62542010D01*
X163496942Y-62542010D01*
X163496942Y-62937301D01*
X163496942Y-63332592D01*
X163439507Y-63332592D01*
X163382071Y-63332592D01*
X163382071Y-62937301D01*
X163382071Y-62542010D01*
X163267200Y-62542010D01*
X163152329Y-62542010D01*
X163152329Y-62494710D01*
X163152329Y-62447410D01*
X163439507Y-62447410D01*
X163726684Y-62447410D01*
X163726684Y-62494710D01*
G37*
G36*
X163023944Y-62890001D02*
G01*
X163023944Y-63332592D01*
X162787445Y-63332592D01*
X162550946Y-63332592D01*
X162550946Y-63285292D01*
X162550946Y-63237992D01*
X162733388Y-63237992D01*
X162915830Y-63237992D01*
X162915830Y-63082579D01*
X162915830Y-62927165D01*
X162757038Y-62927165D01*
X162598246Y-62927165D01*
X162598246Y-62879990D01*
X162598246Y-62832815D01*
X162755349Y-62831001D01*
X162912452Y-62829187D01*
X162912452Y-62687288D01*
X162912452Y-62545388D01*
X162735077Y-62543587D01*
X162557703Y-62541785D01*
X162557703Y-62494597D01*
X162557703Y-62447410D01*
X162790824Y-62447410D01*
X163023944Y-62447410D01*
X163023944Y-62890001D01*
G37*
G36*
X161517107Y-62494710D02*
G01*
X161517107Y-62542010D01*
X161320428Y-62542010D01*
X161279902Y-62542029D01*
X161231685Y-62542168D01*
X161194621Y-62542512D01*
X161167312Y-62543147D01*
X161148362Y-62544156D01*
X161136374Y-62545625D01*
X161129950Y-62547638D01*
X161127694Y-62550279D01*
X161128209Y-62553633D01*
X161131242Y-62559530D01*
X161140528Y-62576442D01*
X161155413Y-62603099D01*
X161175288Y-62638426D01*
X161199546Y-62681350D01*
X161227581Y-62730796D01*
X161258784Y-62785690D01*
X161292548Y-62844956D01*
X161328267Y-62907522D01*
X161523864Y-63249787D01*
X161523864Y-63291190D01*
X161523864Y-63332592D01*
X161253580Y-63332592D01*
X160983295Y-63332592D01*
X160983295Y-63285292D01*
X160983295Y-63237992D01*
X161189387Y-63237992D01*
X161211194Y-63237976D01*
X161260678Y-63237815D01*
X161304838Y-63237498D01*
X161342036Y-63237048D01*
X161370635Y-63236488D01*
X161388995Y-63235842D01*
X161395479Y-63235130D01*
X161392476Y-63229369D01*
X161383333Y-63212850D01*
X161368626Y-63186612D01*
X161348938Y-63151686D01*
X161324850Y-63109100D01*
X161296945Y-63059883D01*
X161265805Y-63005063D01*
X161232010Y-62945669D01*
X161196144Y-62882730D01*
X160996809Y-62533193D01*
X160996809Y-62490301D01*
X160996809Y-62447410D01*
X161256958Y-62447410D01*
X161517107Y-62447410D01*
X161517107Y-62494710D01*
G37*
G36*
X159673998Y-62638298D02*
G01*
X159675793Y-62829187D01*
X159851478Y-62829187D01*
X160027163Y-62829187D01*
X160028957Y-62638298D01*
X160030752Y-62447410D01*
X160084704Y-62447410D01*
X160138655Y-62447410D01*
X160138655Y-62890001D01*
X160138655Y-63332592D01*
X160084598Y-63332592D01*
X160030542Y-63332592D01*
X160030542Y-63129879D01*
X160030542Y-62927165D01*
X159851478Y-62927165D01*
X159672414Y-62927165D01*
X159672414Y-63129879D01*
X159672414Y-63332592D01*
X159618357Y-63332592D01*
X159564300Y-63332592D01*
X159564300Y-62890001D01*
X159564300Y-62447410D01*
X159618252Y-62447410D01*
X159672204Y-62447410D01*
X159673998Y-62638298D01*
G37*
G36*
X159341968Y-63064826D02*
G01*
X159360606Y-63123059D01*
X159377251Y-63175020D01*
X159391481Y-63219389D01*
X159402872Y-63254846D01*
X159411001Y-63280069D01*
X159415445Y-63293739D01*
X159428272Y-63332592D01*
X159371540Y-63332592D01*
X159314808Y-63332592D01*
X159307776Y-63307253D01*
X159307348Y-63305719D01*
X159302322Y-63288159D01*
X159294558Y-63261464D01*
X159285035Y-63228985D01*
X159274732Y-63194071D01*
X159248719Y-63106229D01*
X159099391Y-63104411D01*
X158950062Y-63102593D01*
X158929931Y-63168604D01*
X158925911Y-63181802D01*
X158914817Y-63218361D01*
X158903943Y-63254354D01*
X158895158Y-63283603D01*
X158880515Y-63332592D01*
X158824148Y-63332592D01*
X158767781Y-63332592D01*
X158777208Y-63303874D01*
X158779685Y-63296238D01*
X158786287Y-63275732D01*
X158796301Y-63244551D01*
X158809326Y-63203950D01*
X158824958Y-63155182D01*
X158842797Y-63099501D01*
X158862440Y-63038160D01*
X158872014Y-63008251D01*
X158977758Y-63008251D01*
X159098400Y-63008251D01*
X159219041Y-63008251D01*
X159209297Y-62976154D01*
X159206349Y-62966361D01*
X159199390Y-62943074D01*
X159189722Y-62910609D01*
X159177999Y-62871171D01*
X159164879Y-62826966D01*
X159151017Y-62780198D01*
X159139751Y-62742542D01*
X159127257Y-62701719D01*
X159116308Y-62666958D01*
X159107462Y-62639988D01*
X159101273Y-62622538D01*
X159098299Y-62616338D01*
X159097163Y-62617755D01*
X159092387Y-62629239D01*
X159085013Y-62650385D01*
X159075811Y-62678933D01*
X159065549Y-62712627D01*
X159065091Y-62714171D01*
X159051692Y-62759321D01*
X159036370Y-62810937D01*
X159020977Y-62862773D01*
X159007370Y-62908583D01*
X158977758Y-63008251D01*
X158872014Y-63008251D01*
X158883485Y-62972414D01*
X158905532Y-62903515D01*
X158921526Y-62853527D01*
X158943153Y-62785952D01*
X158963607Y-62722064D01*
X158982467Y-62663175D01*
X158999313Y-62610597D01*
X159013724Y-62565643D01*
X159025280Y-62529624D01*
X159033560Y-62503853D01*
X159038145Y-62489642D01*
X159051861Y-62447410D01*
X159098059Y-62447410D01*
X159144257Y-62447410D01*
X159157985Y-62489642D01*
X159160258Y-62496675D01*
X159167114Y-62518006D01*
X159177398Y-62550083D01*
X159190684Y-62591570D01*
X159206543Y-62641129D01*
X159224548Y-62697426D01*
X159244272Y-62759124D01*
X159265287Y-62824887D01*
X159287165Y-62893380D01*
X159300406Y-62934831D01*
X159321760Y-63001644D01*
X159323873Y-63008251D01*
X159341968Y-63064826D01*
G37*
G36*
X157086128Y-62449010D02*
G01*
X157317559Y-62450788D01*
X157319298Y-62891690D01*
X157321036Y-63332592D01*
X157084488Y-63332592D01*
X156847940Y-63332592D01*
X156847940Y-63285292D01*
X156847940Y-63237992D01*
X157027003Y-63237992D01*
X157206067Y-63237992D01*
X157206067Y-63082579D01*
X157206067Y-62927165D01*
X157050653Y-62927165D01*
X156895240Y-62927165D01*
X156895240Y-62879865D01*
X156895240Y-62832566D01*
X157050653Y-62832566D01*
X157206067Y-62832566D01*
X157206067Y-62687288D01*
X157206067Y-62542010D01*
X157030382Y-62542010D01*
X156854697Y-62542010D01*
X156854697Y-62494621D01*
X156854697Y-62447232D01*
X157086128Y-62449010D01*
G37*
G36*
X156091143Y-62890001D02*
G01*
X156091143Y-63332592D01*
X155854335Y-63332592D01*
X155617527Y-63332592D01*
X155619525Y-63286982D01*
X155621523Y-63241371D01*
X155802276Y-63239571D01*
X155983029Y-63237772D01*
X155983029Y-63082468D01*
X155983029Y-62927165D01*
X155827615Y-62927165D01*
X155672202Y-62927165D01*
X155672202Y-62879865D01*
X155672202Y-62832566D01*
X155827615Y-62832566D01*
X155983029Y-62832566D01*
X155983029Y-62687288D01*
X155983029Y-62542010D01*
X155803965Y-62542010D01*
X155624902Y-62542010D01*
X155624902Y-62494710D01*
X155624902Y-62447410D01*
X155858022Y-62447410D01*
X156091143Y-62447410D01*
X156091143Y-62890001D01*
G37*
G36*
X155474605Y-62891690D02*
G01*
X155476343Y-63332592D01*
X155418810Y-63332592D01*
X155361276Y-63332592D01*
X155363015Y-62891690D01*
X155364753Y-62450788D01*
X155418810Y-62450788D01*
X155472867Y-62450788D01*
X155474605Y-62891690D01*
G37*
G36*
X155113910Y-62448840D02*
G01*
X155168796Y-62450788D01*
X155170535Y-62891690D01*
X155172273Y-63332592D01*
X155114851Y-63332592D01*
X155057430Y-63332592D01*
X155055678Y-62996426D01*
X155053925Y-62660259D01*
X154881174Y-62994736D01*
X154708422Y-63329214D01*
X154649694Y-63331167D01*
X154590965Y-63333120D01*
X154592703Y-62891954D01*
X154594441Y-62450788D01*
X154648498Y-62450788D01*
X154702555Y-62450788D01*
X154705934Y-62787916D01*
X154709312Y-63125043D01*
X154884168Y-62785967D01*
X155059024Y-62446891D01*
X155113910Y-62448840D01*
G37*
G36*
X154401864Y-62890001D02*
G01*
X154401864Y-63332592D01*
X154347807Y-63332592D01*
X154293750Y-63332592D01*
X154293750Y-63140014D01*
X154293750Y-62947436D01*
X154145093Y-62947436D01*
X153996437Y-62947436D01*
X153996437Y-62896758D01*
X153996437Y-62846080D01*
X154145223Y-62846080D01*
X154294008Y-62846080D01*
X154292190Y-62695734D01*
X154290371Y-62545388D01*
X154116376Y-62543585D01*
X153942380Y-62541781D01*
X153942380Y-62494596D01*
X153942380Y-62447410D01*
X154172122Y-62447410D01*
X154401864Y-62447410D01*
X154401864Y-62890001D01*
G37*
G36*
X153872550Y-63006203D02*
G01*
X153894080Y-63073491D01*
X153913825Y-63135247D01*
X153931453Y-63190422D01*
X153946627Y-63237968D01*
X153959015Y-63276837D01*
X153968280Y-63305981D01*
X153974089Y-63324352D01*
X153976106Y-63330903D01*
X153975313Y-63331187D01*
X153965123Y-63331905D01*
X153945649Y-63332405D01*
X153920024Y-63332592D01*
X153863882Y-63332592D01*
X153830492Y-63217721D01*
X153797102Y-63102851D01*
X153647780Y-63102850D01*
X153498458Y-63102850D01*
X153464532Y-63216032D01*
X153430606Y-63329214D01*
X153375666Y-63331176D01*
X153367190Y-63331405D01*
X153343486Y-63331155D01*
X153326943Y-63329606D01*
X153320725Y-63327000D01*
X153321607Y-63323489D01*
X153326128Y-63308326D01*
X153334116Y-63282457D01*
X153345157Y-63247179D01*
X153358834Y-63203792D01*
X153374732Y-63153591D01*
X153392436Y-63097876D01*
X153411528Y-63037945D01*
X153422627Y-63003183D01*
X153530179Y-63003183D01*
X153535121Y-63004625D01*
X153551584Y-63006073D01*
X153577517Y-63007222D01*
X153610764Y-63007978D01*
X153649168Y-63008251D01*
X153669512Y-63008215D01*
X153708767Y-63007809D01*
X153736538Y-63006869D01*
X153754250Y-63005291D01*
X153763326Y-63002970D01*
X153765191Y-62999804D01*
X153764828Y-62998684D01*
X153761248Y-62986947D01*
X153754492Y-62964413D01*
X153745063Y-62932775D01*
X153733465Y-62893728D01*
X153720202Y-62848963D01*
X153705777Y-62800174D01*
X153700873Y-62783659D01*
X153686809Y-62737339D01*
X153673949Y-62696476D01*
X153662800Y-62662578D01*
X153653864Y-62637150D01*
X153647647Y-62621699D01*
X153644654Y-62617732D01*
X153642009Y-62625071D01*
X153636093Y-62643562D01*
X153627584Y-62671072D01*
X153617072Y-62705605D01*
X153605152Y-62745166D01*
X153592415Y-62787758D01*
X153579454Y-62831388D01*
X153566862Y-62874058D01*
X153555232Y-62913773D01*
X153545156Y-62948539D01*
X153537227Y-62976360D01*
X153532037Y-62995239D01*
X153530179Y-63003183D01*
X153422627Y-63003183D01*
X153431595Y-62975095D01*
X153452219Y-62910624D01*
X153472985Y-62845830D01*
X153493478Y-62782010D01*
X153513282Y-62720464D01*
X153531981Y-62662489D01*
X153549159Y-62609382D01*
X153564401Y-62562442D01*
X153577290Y-62522966D01*
X153587412Y-62492253D01*
X153594351Y-62471600D01*
X153597690Y-62462305D01*
X153598036Y-62461525D01*
X153602941Y-62453574D01*
X153610837Y-62449408D01*
X153625217Y-62448116D01*
X153649576Y-62448790D01*
X153694636Y-62450788D01*
X153835341Y-62890001D01*
X153849572Y-62934430D01*
X153870501Y-62999804D01*
X153872550Y-63006203D01*
G37*
G36*
X152443989Y-62448826D02*
G01*
X152499735Y-62450788D01*
X152501474Y-62891690D01*
X152503212Y-63332592D01*
X152445727Y-63332592D01*
X152388243Y-63332592D01*
X152388243Y-63129879D01*
X152388243Y-62927165D01*
X152212558Y-62927165D01*
X152036873Y-62927165D01*
X152036873Y-63129879D01*
X152036873Y-63332592D01*
X151979437Y-63332592D01*
X151922002Y-63332592D01*
X151922002Y-62889728D01*
X151922002Y-62446863D01*
X151977748Y-62448826D01*
X152033494Y-62450788D01*
X152035289Y-62641677D01*
X152037083Y-62832566D01*
X152212663Y-62832566D01*
X152388243Y-62832566D01*
X152388243Y-62639714D01*
X152388243Y-62446863D01*
X152443989Y-62448826D01*
G37*
G36*
X150557065Y-62890001D02*
G01*
X150557065Y-63332592D01*
X150503008Y-63332592D01*
X150448951Y-63332592D01*
X150448951Y-62890001D01*
X150448951Y-62447410D01*
X150503008Y-62447410D01*
X150557065Y-62447410D01*
X150557065Y-62890001D01*
G37*
G36*
X149084013Y-62640100D02*
G01*
X149084013Y-62832790D01*
X149261387Y-62830988D01*
X149438762Y-62829187D01*
X149440556Y-62638298D01*
X149442351Y-62447410D01*
X149496303Y-62447410D01*
X149550254Y-62447410D01*
X149550254Y-62890001D01*
X149550254Y-63332592D01*
X149496197Y-63332592D01*
X149442140Y-63332592D01*
X149442140Y-63129879D01*
X149442140Y-62927165D01*
X149263077Y-62927165D01*
X149084013Y-62927165D01*
X149084013Y-63129879D01*
X149084013Y-63332592D01*
X149029956Y-63332592D01*
X148975899Y-63332592D01*
X148975899Y-62890001D01*
X148975899Y-62447410D01*
X149029956Y-62447410D01*
X149084013Y-62447410D01*
X149084013Y-62640100D01*
G37*
G36*
X148779943Y-62890001D02*
G01*
X148779943Y-63332592D01*
X148543135Y-63332592D01*
X148306327Y-63332592D01*
X148308325Y-63286982D01*
X148310323Y-63241371D01*
X148491076Y-63239571D01*
X148671829Y-63237772D01*
X148671829Y-63082468D01*
X148671829Y-62927165D01*
X148516415Y-62927165D01*
X148361002Y-62927165D01*
X148361002Y-62879865D01*
X148361002Y-62832566D01*
X148516415Y-62832566D01*
X148671829Y-62832566D01*
X148671829Y-62687288D01*
X148671829Y-62542010D01*
X148492766Y-62542010D01*
X148313702Y-62542010D01*
X148313702Y-62494710D01*
X148313702Y-62447410D01*
X148546822Y-62447410D01*
X148779943Y-62447410D01*
X148779943Y-62890001D01*
G37*
G36*
X148165045Y-62890001D02*
G01*
X148165045Y-63332592D01*
X148110988Y-63332592D01*
X148056932Y-63332592D01*
X148056932Y-63153314D01*
X148056932Y-62974036D01*
X147978692Y-62975940D01*
X147900452Y-62977844D01*
X147823622Y-63153529D01*
X147746791Y-63329214D01*
X147684983Y-63331165D01*
X147671707Y-63331456D01*
X147646896Y-63331115D01*
X147630684Y-63329550D01*
X147625515Y-63326936D01*
X147626047Y-63325677D01*
X147631103Y-63314338D01*
X147640817Y-63292813D01*
X147654478Y-63262672D01*
X147671375Y-63225485D01*
X147690793Y-63182821D01*
X147712023Y-63136250D01*
X147734460Y-63086522D01*
X147754837Y-63040104D01*
X147770791Y-63002262D01*
X147781957Y-62973894D01*
X147787967Y-62955896D01*
X147788456Y-62949166D01*
X147779384Y-62944853D01*
X147759363Y-62930723D01*
X147737030Y-62911021D01*
X147716036Y-62889087D01*
X147700031Y-62868263D01*
X147679040Y-62826672D01*
X147664298Y-62774442D01*
X147658682Y-62719010D01*
X147658999Y-62713674D01*
X147770434Y-62713674D01*
X147771049Y-62742511D01*
X147773711Y-62764493D01*
X147779527Y-62783118D01*
X147789600Y-62803567D01*
X147795681Y-62813700D01*
X147815166Y-62838764D01*
X147835949Y-62857624D01*
X147839346Y-62859961D01*
X147850212Y-62866732D01*
X147861209Y-62871436D01*
X147875013Y-62874529D01*
X147894301Y-62876463D01*
X147921750Y-62877694D01*
X147960035Y-62878675D01*
X148056932Y-62880862D01*
X148056932Y-62710478D01*
X148056932Y-62540093D01*
X147965591Y-62543578D01*
X147944665Y-62544506D01*
X147900102Y-62547968D01*
X147865980Y-62553771D01*
X147840121Y-62562854D01*
X147820350Y-62576157D01*
X147804489Y-62594618D01*
X147790363Y-62619176D01*
X147780729Y-62639979D01*
X147774218Y-62660442D01*
X147771181Y-62683133D01*
X147770434Y-62713674D01*
X147658999Y-62713674D01*
X147662004Y-62663169D01*
X147674072Y-62609712D01*
X147694697Y-62561431D01*
X147723689Y-62521117D01*
X147743147Y-62502439D01*
X147766477Y-62485623D01*
X147793330Y-62472442D01*
X147825360Y-62462511D01*
X147864223Y-62455443D01*
X147911572Y-62450850D01*
X147969063Y-62448346D01*
X148038349Y-62447544D01*
X148165045Y-62447410D01*
X148165045Y-62710478D01*
X148165045Y-62890001D01*
G37*
G36*
X145964101Y-62611525D02*
G01*
X145968276Y-62617359D01*
X146000010Y-62661619D01*
X146030913Y-62704579D01*
X146059583Y-62744300D01*
X146084616Y-62778840D01*
X146104609Y-62806258D01*
X146118159Y-62824614D01*
X146154803Y-62873587D01*
X146156587Y-62660498D01*
X146158372Y-62447410D01*
X146212334Y-62447410D01*
X146266296Y-62447410D01*
X146266296Y-62890001D01*
X146266296Y-63332592D01*
X146212239Y-63332592D01*
X146158182Y-63332592D01*
X146157979Y-63182246D01*
X146157775Y-63031900D01*
X146114520Y-62979556D01*
X146071265Y-62927211D01*
X145950293Y-63128212D01*
X145829321Y-63329214D01*
X145764009Y-63331148D01*
X145746382Y-63331536D01*
X145721828Y-63331546D01*
X145704965Y-63330846D01*
X145698698Y-63329510D01*
X145699780Y-63327346D01*
X145706894Y-63315193D01*
X145720023Y-63293448D01*
X145738430Y-63263310D01*
X145761378Y-63225982D01*
X145788128Y-63182665D01*
X145817945Y-63134558D01*
X145850090Y-63082865D01*
X146001483Y-62839792D01*
X145860226Y-62647625D01*
X145830865Y-62607594D01*
X145800450Y-62565924D01*
X145773533Y-62528834D01*
X145751020Y-62497581D01*
X145733818Y-62473425D01*
X145722832Y-62457623D01*
X145718969Y-62451434D01*
X145721089Y-62450407D01*
X145733762Y-62448866D01*
X145755323Y-62447805D01*
X145782828Y-62447410D01*
X145846688Y-62447410D01*
X145964101Y-62611525D01*
G37*
G36*
X145590584Y-62889215D02*
G01*
X145590584Y-63332592D01*
X145536527Y-63332592D01*
X145482470Y-63332592D01*
X145482470Y-63153529D01*
X145482470Y-62974465D01*
X145405522Y-62974465D01*
X145328574Y-62974465D01*
X145287753Y-63067375D01*
X145287366Y-63068257D01*
X145268652Y-63110910D01*
X145247877Y-63158357D01*
X145227542Y-63204877D01*
X145210150Y-63244750D01*
X145173368Y-63329214D01*
X145111932Y-63331153D01*
X145050495Y-63333093D01*
X145059889Y-63310882D01*
X145064601Y-63300117D01*
X145074294Y-63278380D01*
X145087941Y-63247978D01*
X145104693Y-63210800D01*
X145123700Y-63168733D01*
X145144113Y-63123668D01*
X145144180Y-63123520D01*
X145163997Y-63079679D01*
X145181839Y-63039936D01*
X145196980Y-63005931D01*
X145208693Y-62979304D01*
X145216252Y-62961693D01*
X145218931Y-62954740D01*
X145216741Y-62951887D01*
X145205943Y-62943305D01*
X145189159Y-62932014D01*
X145187668Y-62931063D01*
X145149291Y-62898524D01*
X145119375Y-62856727D01*
X145098430Y-62807296D01*
X145086963Y-62751852D01*
X145085905Y-62709103D01*
X145198671Y-62709103D01*
X145199408Y-62733170D01*
X145206559Y-62778758D01*
X145222008Y-62815176D01*
X145246599Y-62844041D01*
X145281177Y-62866970D01*
X145293110Y-62872159D01*
X145308123Y-62876017D01*
X145328106Y-62878371D01*
X145355903Y-62879546D01*
X145394359Y-62879865D01*
X145482470Y-62879865D01*
X145482470Y-62710937D01*
X145482470Y-62542010D01*
X145419967Y-62542049D01*
X145416966Y-62542054D01*
X145360583Y-62543811D01*
X145315602Y-62549155D01*
X145280311Y-62558734D01*
X145252998Y-62573195D01*
X145231948Y-62593186D01*
X145215449Y-62619354D01*
X145208650Y-62634162D01*
X145202479Y-62654074D01*
X145199467Y-62677377D01*
X145198671Y-62709103D01*
X145085905Y-62709103D01*
X145085482Y-62692021D01*
X145094494Y-62629425D01*
X145096906Y-62619599D01*
X145116824Y-62567573D01*
X145146684Y-62524691D01*
X145186444Y-62491002D01*
X145236061Y-62466554D01*
X145239392Y-62465362D01*
X145253749Y-62460824D01*
X145269079Y-62457324D01*
X145287472Y-62454678D01*
X145311019Y-62452696D01*
X145341809Y-62451193D01*
X145381933Y-62449981D01*
X145433481Y-62448872D01*
X145590584Y-62445839D01*
X145590584Y-62710937D01*
X145590584Y-62889215D01*
G37*
G36*
X144935144Y-62890001D02*
G01*
X144935144Y-63332592D01*
X144698645Y-63332592D01*
X144462146Y-63332592D01*
X144462146Y-63285292D01*
X144462146Y-63237992D01*
X144644588Y-63237992D01*
X144827030Y-63237992D01*
X144827030Y-63082579D01*
X144827030Y-62927165D01*
X144671616Y-62927165D01*
X144516203Y-62927165D01*
X144516203Y-62879992D01*
X144516203Y-62832819D01*
X144669927Y-62831003D01*
X144823651Y-62829187D01*
X144823651Y-62687288D01*
X144823651Y-62545388D01*
X144646277Y-62543587D01*
X144468903Y-62541785D01*
X144468903Y-62494597D01*
X144468903Y-62447410D01*
X144702023Y-62447410D01*
X144935144Y-62447410D01*
X144935144Y-62890001D01*
G37*
G36*
X144299052Y-63053572D02*
G01*
X144319115Y-63116128D01*
X144337159Y-63172379D01*
X144352833Y-63221231D01*
X144365787Y-63261590D01*
X144375670Y-63292362D01*
X144382129Y-63312452D01*
X144384816Y-63320767D01*
X144385612Y-63323985D01*
X144384018Y-63328564D01*
X144376174Y-63331163D01*
X144359660Y-63332325D01*
X144332055Y-63332592D01*
X144275383Y-63332592D01*
X144242047Y-63219410D01*
X144208711Y-63106229D01*
X144059084Y-63104412D01*
X143909456Y-63102595D01*
X143894775Y-63151712D01*
X143891714Y-63161930D01*
X143881869Y-63194621D01*
X143870673Y-63231616D01*
X143860002Y-63266710D01*
X143839911Y-63332592D01*
X143786144Y-63332592D01*
X143778790Y-63332545D01*
X143755100Y-63331659D01*
X143738467Y-63329885D01*
X143732120Y-63327524D01*
X143732762Y-63324948D01*
X143736945Y-63310929D01*
X143744736Y-63285710D01*
X143755798Y-63250353D01*
X143769798Y-63205917D01*
X143786400Y-63153463D01*
X143805268Y-63094050D01*
X143826068Y-63028740D01*
X143834849Y-63001237D01*
X143941848Y-63001237D01*
X143942386Y-63002116D01*
X143952825Y-63004768D01*
X143976288Y-63006688D01*
X144012409Y-63007856D01*
X144060820Y-63008251D01*
X144081563Y-63008213D01*
X144120673Y-63007806D01*
X144148313Y-63006865D01*
X144165909Y-63005287D01*
X144174886Y-63002968D01*
X144176669Y-62999804D01*
X144176287Y-62998669D01*
X144172651Y-62986901D01*
X144165840Y-62964341D01*
X144156358Y-62932681D01*
X144144712Y-62893613D01*
X144131407Y-62848830D01*
X144116950Y-62800024D01*
X144099555Y-62741943D01*
X144084657Y-62693919D01*
X144072902Y-62658202D01*
X144064154Y-62634399D01*
X144058276Y-62622116D01*
X144055134Y-62620960D01*
X144053107Y-62626571D01*
X144047411Y-62644142D01*
X144039070Y-62670895D01*
X144028681Y-62704819D01*
X144016843Y-62743906D01*
X144004156Y-62786144D01*
X143991218Y-62829524D01*
X143978627Y-62872037D01*
X143966983Y-62911672D01*
X143956885Y-62946419D01*
X143948930Y-62974269D01*
X143943718Y-62993211D01*
X143941848Y-63001237D01*
X143834849Y-63001237D01*
X143848464Y-62958592D01*
X143872121Y-62884667D01*
X144012380Y-62446878D01*
X144059097Y-62448833D01*
X144105814Y-62450788D01*
X144243359Y-62879865D01*
X144254276Y-62913923D01*
X144277323Y-62985806D01*
X144281811Y-62999804D01*
X144299052Y-63053572D01*
G37*
G36*
X143457025Y-62449026D02*
G01*
X143742513Y-62450788D01*
X143744507Y-62496238D01*
X143746501Y-62541688D01*
X143629636Y-62543538D01*
X143512771Y-62545388D01*
X143511027Y-62938990D01*
X143509283Y-63332592D01*
X143455281Y-63332592D01*
X143401278Y-63332592D01*
X143401278Y-62937301D01*
X143401278Y-62542010D01*
X143286407Y-62542010D01*
X143171536Y-62542010D01*
X143171536Y-62494636D01*
X143171536Y-62447263D01*
X143457025Y-62449026D01*
G37*
G36*
X143036394Y-62889728D02*
G01*
X143036394Y-63332592D01*
X142978910Y-63332592D01*
X142921425Y-63332592D01*
X142923164Y-62891690D01*
X142924902Y-62450788D01*
X142980648Y-62448826D01*
X143036394Y-62446863D01*
X143036394Y-62889728D01*
G37*
G36*
X142747452Y-62447425D02*
G01*
X142774221Y-62447952D01*
X142790090Y-62449495D01*
X142797188Y-62452407D01*
X142797644Y-62457043D01*
X142796858Y-62459394D01*
X142792455Y-62473279D01*
X142784577Y-62498459D01*
X142773560Y-62533847D01*
X142759741Y-62578354D01*
X142743458Y-62630895D01*
X142725048Y-62690380D01*
X142704847Y-62755723D01*
X142683193Y-62825837D01*
X142660424Y-62899634D01*
X142526900Y-63332592D01*
X142477839Y-63332592D01*
X142428777Y-63332592D01*
X142419152Y-63300496D01*
X142418881Y-63299598D01*
X142414694Y-63285899D01*
X142406929Y-63260663D01*
X142395960Y-63225094D01*
X142382160Y-63180402D01*
X142365902Y-63127792D01*
X142347558Y-63068473D01*
X142327503Y-63003650D01*
X142306108Y-62934532D01*
X142283748Y-62862325D01*
X142279130Y-62847415D01*
X142257313Y-62776882D01*
X142236794Y-62710415D01*
X142217913Y-62649120D01*
X142201007Y-62594102D01*
X142186416Y-62546465D01*
X142174479Y-62507314D01*
X142165532Y-62477755D01*
X142159916Y-62458892D01*
X142157969Y-62451831D01*
X142158045Y-62451542D01*
X142165380Y-62449326D01*
X142182075Y-62447985D01*
X142204404Y-62447479D01*
X142228640Y-62447770D01*
X142251056Y-62448819D01*
X142267926Y-62450589D01*
X142275523Y-62453041D01*
X142275564Y-62453118D01*
X142278220Y-62461198D01*
X142284140Y-62480938D01*
X142292954Y-62511055D01*
X142304293Y-62550262D01*
X142317785Y-62597277D01*
X142333061Y-62650814D01*
X142349751Y-62709588D01*
X142367485Y-62772315D01*
X142384171Y-62831461D01*
X142404408Y-62903183D01*
X142421459Y-62963560D01*
X142435605Y-63013558D01*
X142447130Y-63054142D01*
X142456317Y-63086280D01*
X142463448Y-63110935D01*
X142468805Y-63129075D01*
X142472672Y-63141664D01*
X142475332Y-63149670D01*
X142477066Y-63154057D01*
X142478158Y-63155792D01*
X142478890Y-63155841D01*
X142479545Y-63155168D01*
X142481247Y-63150065D01*
X142486258Y-63133261D01*
X142494140Y-63106152D01*
X142504484Y-63070190D01*
X142516880Y-63026828D01*
X142530918Y-62977519D01*
X142546187Y-62923715D01*
X142562280Y-62866870D01*
X142578785Y-62808436D01*
X142595292Y-62749865D01*
X142611392Y-62692612D01*
X142626675Y-62638127D01*
X142640732Y-62587865D01*
X142653152Y-62543279D01*
X142663525Y-62505820D01*
X142671442Y-62476941D01*
X142676492Y-62458096D01*
X142678267Y-62450738D01*
X142679935Y-62449969D01*
X142691893Y-62448655D01*
X142712848Y-62447748D01*
X142739804Y-62447410D01*
X142747452Y-62447425D01*
G37*
G36*
X141976127Y-62448808D02*
G01*
X142032962Y-62450788D01*
X142032801Y-62513292D01*
X142032732Y-62532399D01*
X142032586Y-62564366D01*
X142032375Y-62606005D01*
X142032112Y-62655310D01*
X142031807Y-62710278D01*
X142031470Y-62768905D01*
X142031112Y-62829187D01*
X142029584Y-63082579D01*
X141978905Y-63082579D01*
X141928227Y-63082579D01*
X141928227Y-62928259D01*
X141928225Y-62924037D01*
X141927968Y-62867144D01*
X141927322Y-62802250D01*
X141926357Y-62734438D01*
X141925146Y-62668788D01*
X141923760Y-62610384D01*
X141919293Y-62446828D01*
X141976127Y-62448808D01*
G37*
G36*
X169240491Y-59308729D02*
G01*
X169237112Y-61173693D01*
X169217872Y-61226202D01*
X169210075Y-61245971D01*
X169175982Y-61311898D01*
X169132117Y-61373011D01*
X169080692Y-61426532D01*
X169023919Y-61469685D01*
X169002199Y-61482852D01*
X168967120Y-61501023D01*
X168930245Y-61515458D01*
X168885742Y-61528646D01*
X168884013Y-61529093D01*
X168880019Y-61530001D01*
X168875274Y-61530861D01*
X168869434Y-61531677D01*
X168862152Y-61532448D01*
X168853085Y-61533175D01*
X168841888Y-61533860D01*
X168828214Y-61534504D01*
X168811720Y-61535108D01*
X168792061Y-61535672D01*
X168768891Y-61536199D01*
X168741865Y-61536689D01*
X168710639Y-61537142D01*
X168674868Y-61537562D01*
X168634206Y-61537947D01*
X168588309Y-61538300D01*
X168536832Y-61538621D01*
X168479429Y-61538912D01*
X168415756Y-61539174D01*
X168345468Y-61539408D01*
X168268221Y-61539614D01*
X168183668Y-61539794D01*
X168091465Y-61539949D01*
X167991267Y-61540080D01*
X167882729Y-61540189D01*
X167765506Y-61540275D01*
X167639254Y-61540341D01*
X167503627Y-61540388D01*
X167358280Y-61540416D01*
X167202868Y-61540426D01*
X167037047Y-61540420D01*
X166860471Y-61540399D01*
X166672795Y-61540364D01*
X166473676Y-61540315D01*
X166262766Y-61540255D01*
X166039722Y-61540183D01*
X165804199Y-61540102D01*
X165555852Y-61540012D01*
X165294335Y-61539915D01*
X161750228Y-61538578D01*
X161706306Y-61522756D01*
X161702715Y-61521450D01*
X161624899Y-61486514D01*
X161556982Y-61442541D01*
X161499185Y-61389772D01*
X161451727Y-61328443D01*
X161414831Y-61258793D01*
X161388717Y-61181059D01*
X161388365Y-61179661D01*
X161387021Y-61174065D01*
X161385772Y-61168082D01*
X161384615Y-61161228D01*
X161383545Y-61153016D01*
X161382559Y-61142960D01*
X161381654Y-61130573D01*
X161380827Y-61115369D01*
X161380074Y-61096862D01*
X161379391Y-61074566D01*
X161378775Y-61047995D01*
X161378223Y-61016661D01*
X161377731Y-60980080D01*
X161377295Y-60937764D01*
X161376913Y-60889228D01*
X161376581Y-60833985D01*
X161376295Y-60771549D01*
X161376051Y-60701433D01*
X161375847Y-60623153D01*
X161375679Y-60536220D01*
X161375543Y-60440149D01*
X161375533Y-60430360D01*
X162349702Y-60430360D01*
X162361444Y-60494151D01*
X162386027Y-60556661D01*
X162396520Y-60575181D01*
X162429672Y-60618802D01*
X162471162Y-60658677D01*
X162517388Y-60691626D01*
X162564749Y-60714467D01*
X162584199Y-60720484D01*
X162635995Y-60729712D01*
X162691320Y-60731708D01*
X162745185Y-60726479D01*
X162792605Y-60714037D01*
X162833433Y-60695417D01*
X162886438Y-60659895D01*
X162931162Y-60615801D01*
X162966743Y-60564761D01*
X162992316Y-60508397D01*
X163007017Y-60448334D01*
X163009984Y-60386194D01*
X163000350Y-60323603D01*
X162996487Y-60309875D01*
X162971833Y-60249370D01*
X162937859Y-60197027D01*
X162896026Y-60153273D01*
X162847795Y-60118537D01*
X162794627Y-60093246D01*
X162737984Y-60077826D01*
X162679327Y-60072705D01*
X162620116Y-60078310D01*
X162561812Y-60095069D01*
X162505878Y-60123409D01*
X162453773Y-60163757D01*
X162425860Y-60193091D01*
X162388881Y-60246653D01*
X162363686Y-60305075D01*
X162350538Y-60366822D01*
X162349702Y-60430360D01*
X161375533Y-60430360D01*
X161375436Y-60334454D01*
X161375355Y-60218649D01*
X161375295Y-60092247D01*
X161375255Y-59954762D01*
X161375229Y-59805708D01*
X161375215Y-59644598D01*
X161375209Y-59470946D01*
X161375208Y-59284267D01*
X161375208Y-59174865D01*
X162388775Y-59174865D01*
X162388775Y-59326988D01*
X162388775Y-59479112D01*
X162464793Y-59483734D01*
X162563756Y-59493208D01*
X162690091Y-59516255D01*
X162810107Y-59551237D01*
X162923872Y-59598181D01*
X163031453Y-59657116D01*
X163132917Y-59728072D01*
X163228332Y-59811077D01*
X163286203Y-59870235D01*
X163356367Y-59954240D01*
X163416705Y-60043139D01*
X163469362Y-60139855D01*
X163481391Y-60165239D01*
X163521131Y-60262971D01*
X163551286Y-60363452D01*
X163555857Y-60386194D01*
X163572609Y-60469550D01*
X163585851Y-60584135D01*
X163593716Y-60683803D01*
X163744664Y-60683803D01*
X163895612Y-60683803D01*
X163895612Y-60630462D01*
X163895178Y-60599444D01*
X163886265Y-60481954D01*
X163866364Y-60361576D01*
X163836152Y-60241145D01*
X163796307Y-60123498D01*
X163747509Y-60011469D01*
X163706078Y-59931506D01*
X163657673Y-59850071D01*
X163605169Y-59774811D01*
X163545833Y-59701844D01*
X163476933Y-59627292D01*
X163436009Y-59586183D01*
X163385858Y-59539157D01*
X163336784Y-59497624D01*
X163284985Y-59458410D01*
X163226658Y-59418338D01*
X163150832Y-59371405D01*
X163026891Y-59307464D01*
X162898218Y-59256118D01*
X162765278Y-59217517D01*
X162628531Y-59191811D01*
X162488443Y-59179150D01*
X162388775Y-59174865D01*
X161375208Y-59174865D01*
X161375208Y-58379626D01*
X162388775Y-58379626D01*
X162388775Y-58534071D01*
X162388775Y-58688515D01*
X162508714Y-58692457D01*
X162599371Y-58697360D01*
X162707184Y-58709029D01*
X162812873Y-58727548D01*
X162920488Y-58753653D01*
X163034080Y-58788083D01*
X163182456Y-58843583D01*
X163328497Y-58912168D01*
X163467597Y-58992098D01*
X163599294Y-59082992D01*
X163723123Y-59184470D01*
X163838621Y-59296151D01*
X163945323Y-59417653D01*
X164042767Y-59548596D01*
X164130489Y-59688600D01*
X164135045Y-59696608D01*
X164196719Y-59816542D01*
X164250677Y-59943644D01*
X164296274Y-60075564D01*
X164332864Y-60209948D01*
X164359800Y-60344445D01*
X164376436Y-60476701D01*
X164382124Y-60604365D01*
X164382124Y-60630462D01*
X164382124Y-60683803D01*
X164537538Y-60683803D01*
X164692952Y-60683803D01*
X164692885Y-60641571D01*
X164692821Y-60629828D01*
X164688314Y-60519010D01*
X164677132Y-60401382D01*
X164659852Y-60281039D01*
X164637051Y-60162078D01*
X164609308Y-60048595D01*
X164602530Y-60024491D01*
X164551562Y-59870191D01*
X164488239Y-59717492D01*
X164413547Y-59568392D01*
X164328473Y-59424887D01*
X164234004Y-59288973D01*
X164193323Y-59236496D01*
X164080509Y-59105847D01*
X163958597Y-58984568D01*
X163828320Y-58873093D01*
X163690407Y-58771858D01*
X163545590Y-58681295D01*
X163394600Y-58601840D01*
X163238167Y-58533925D01*
X163077023Y-58477986D01*
X162911898Y-58434456D01*
X162743524Y-58403769D01*
X162697350Y-58397902D01*
X162642722Y-58392180D01*
X162585446Y-58387178D01*
X162529524Y-58383210D01*
X162478962Y-58380593D01*
X162437764Y-58379642D01*
X162388775Y-58379626D01*
X161375208Y-58379626D01*
X161375208Y-57764728D01*
X162388775Y-57764728D01*
X162388775Y-57920142D01*
X162464793Y-57920212D01*
X162488865Y-57920413D01*
X162597408Y-57925147D01*
X162713442Y-57935822D01*
X162833443Y-57951980D01*
X162953885Y-57973165D01*
X163071244Y-57998919D01*
X163213377Y-58038058D01*
X163377235Y-58094181D01*
X163538966Y-58161074D01*
X163696114Y-58237620D01*
X163846220Y-58322701D01*
X163986828Y-58415201D01*
X164028587Y-58445479D01*
X164168559Y-58556487D01*
X164303532Y-58678147D01*
X164431452Y-58808408D01*
X164550267Y-58945215D01*
X164657924Y-59086515D01*
X164703858Y-59153505D01*
X164800060Y-59310759D01*
X164885342Y-59475207D01*
X164959392Y-59645914D01*
X165021897Y-59821940D01*
X165072543Y-60002348D01*
X165111017Y-60186200D01*
X165137005Y-60372559D01*
X165150196Y-60560485D01*
X165154572Y-60683803D01*
X165306523Y-60683803D01*
X165458475Y-60683803D01*
X165454569Y-60536835D01*
X165446026Y-60379744D01*
X165423581Y-60186996D01*
X165388338Y-59996698D01*
X165340655Y-59809442D01*
X165280889Y-59625816D01*
X165209397Y-59446413D01*
X165126536Y-59271820D01*
X165032664Y-59102630D01*
X164928138Y-58939432D01*
X164813314Y-58782817D01*
X164688551Y-58633374D01*
X164554205Y-58491695D01*
X164410633Y-58358369D01*
X164258193Y-58233986D01*
X164097242Y-58119137D01*
X163928137Y-58014412D01*
X163920011Y-58009759D01*
X163741901Y-57915858D01*
X163558436Y-57834348D01*
X163418505Y-57783122D01*
X165098278Y-57783122D01*
X165108737Y-57848956D01*
X165123162Y-57891642D01*
X165153124Y-57947019D01*
X165192740Y-57995049D01*
X165240469Y-58034736D01*
X165294773Y-58065083D01*
X165354109Y-58085095D01*
X165416938Y-58093775D01*
X165481720Y-58090128D01*
X165533889Y-58082018D01*
X166123609Y-58671709D01*
X166190414Y-58738565D01*
X166262295Y-58810626D01*
X166330954Y-58879587D01*
X166395813Y-58944861D01*
X166456296Y-59005864D01*
X166511824Y-59062010D01*
X166561822Y-59112714D01*
X166605711Y-59157390D01*
X166642914Y-59195453D01*
X166672855Y-59226317D01*
X166694956Y-59249396D01*
X166708640Y-59264106D01*
X166713329Y-59269861D01*
X166713947Y-59273027D01*
X166721793Y-59278322D01*
X166722784Y-59278900D01*
X166731720Y-59286710D01*
X166749109Y-59303054D01*
X166774197Y-59327183D01*
X166806233Y-59358343D01*
X166844464Y-59395784D01*
X166888136Y-59438753D01*
X166936498Y-59486500D01*
X166988797Y-59538273D01*
X167044280Y-59593320D01*
X167102195Y-59650890D01*
X167161789Y-59710231D01*
X167222310Y-59770591D01*
X167283005Y-59831220D01*
X167343121Y-59891365D01*
X167401906Y-59950275D01*
X167458607Y-60007198D01*
X167512472Y-60061383D01*
X167562748Y-60112079D01*
X167608682Y-60158533D01*
X167649523Y-60199994D01*
X167684516Y-60235711D01*
X167712911Y-60264932D01*
X167733954Y-60286905D01*
X167746892Y-60300880D01*
X167750974Y-60306103D01*
X167750882Y-60306208D01*
X167748198Y-60314726D01*
X167744598Y-60332733D01*
X167740832Y-60356492D01*
X167737984Y-60386343D01*
X167741171Y-60450808D01*
X167756620Y-60512555D01*
X167783475Y-60569976D01*
X167820880Y-60621464D01*
X167867978Y-60665410D01*
X167897544Y-60683803D01*
X167923912Y-60700207D01*
X167938800Y-60707103D01*
X167999514Y-60726491D01*
X168061426Y-60733492D01*
X168122870Y-60728684D01*
X168182177Y-60712644D01*
X168237680Y-60685948D01*
X168287710Y-60649175D01*
X168330600Y-60602900D01*
X168364683Y-60547701D01*
X168384144Y-60497612D01*
X168395956Y-60436846D01*
X168396479Y-60375499D01*
X168386236Y-60315465D01*
X168365752Y-60258638D01*
X168335549Y-60206912D01*
X168296154Y-60162181D01*
X168248089Y-60126340D01*
X168213677Y-60106069D01*
X168213543Y-59098212D01*
X168213409Y-58090354D01*
X168245407Y-58071602D01*
X168285628Y-58043858D01*
X168331846Y-57999459D01*
X168368973Y-57948168D01*
X168394853Y-57892568D01*
X168409632Y-57832252D01*
X168412901Y-57768463D01*
X168403965Y-57706477D01*
X168383485Y-57647709D01*
X168352118Y-57593571D01*
X168310524Y-57545477D01*
X168259362Y-57504840D01*
X168199289Y-57473073D01*
X168185698Y-57467832D01*
X168167424Y-57462727D01*
X168146374Y-57459625D01*
X168118973Y-57458054D01*
X168081646Y-57457541D01*
X168050879Y-57457547D01*
X168024937Y-57458255D01*
X168005473Y-57460380D01*
X167988725Y-57464618D01*
X167970931Y-57471666D01*
X167948328Y-57482221D01*
X167914881Y-57500432D01*
X167862982Y-57539015D01*
X167819423Y-57585233D01*
X167785885Y-57637164D01*
X167764050Y-57692885D01*
X167763846Y-57693643D01*
X167757337Y-57725242D01*
X167754518Y-57760009D01*
X167754975Y-57802962D01*
X167755921Y-57823096D01*
X167758340Y-57850849D01*
X167762693Y-57872943D01*
X167770128Y-57894396D01*
X167781792Y-57920221D01*
X167781974Y-57920601D01*
X167816296Y-57978270D01*
X167859514Y-58027496D01*
X167909910Y-58066319D01*
X167949882Y-58090991D01*
X167949882Y-59092739D01*
X167949879Y-59185982D01*
X167949860Y-59313452D01*
X167949817Y-59428477D01*
X167949744Y-59531697D01*
X167949632Y-59623749D01*
X167949474Y-59705272D01*
X167949263Y-59776907D01*
X167948992Y-59839291D01*
X167948654Y-59893063D01*
X167948241Y-59938862D01*
X167947745Y-59977328D01*
X167947160Y-60009098D01*
X167946479Y-60034812D01*
X167945693Y-60055108D01*
X167944796Y-60070627D01*
X167943780Y-60082005D01*
X167942639Y-60089883D01*
X167941364Y-60094898D01*
X167939948Y-60097691D01*
X167938385Y-60098899D01*
X167936817Y-60098744D01*
X167930389Y-60094916D01*
X167919219Y-60086046D01*
X167902876Y-60071718D01*
X167880928Y-60051514D01*
X167852946Y-60025017D01*
X167818497Y-59991811D01*
X167777150Y-59951479D01*
X167728476Y-59903604D01*
X167672042Y-59847768D01*
X167607417Y-59783556D01*
X167534171Y-59710549D01*
X167451873Y-59628331D01*
X166976857Y-59153352D01*
X166976857Y-58621856D01*
X166976857Y-58090360D01*
X167012609Y-58070183D01*
X167021599Y-58064744D01*
X167056909Y-58037386D01*
X167091736Y-58002199D01*
X167122449Y-57963171D01*
X167145418Y-57924289D01*
X167155559Y-57899383D01*
X167166492Y-57864289D01*
X167173702Y-57831404D01*
X167174993Y-57822162D01*
X167176422Y-57759423D01*
X167165694Y-57698985D01*
X167143976Y-57642201D01*
X167112435Y-57590424D01*
X167072236Y-57545006D01*
X167024546Y-57507300D01*
X166970533Y-57478658D01*
X166911363Y-57460435D01*
X166848202Y-57453981D01*
X166803287Y-57456816D01*
X166739771Y-57471524D01*
X166681432Y-57498115D01*
X166629464Y-57535838D01*
X166585058Y-57583945D01*
X166549408Y-57641686D01*
X166520752Y-57699517D01*
X166520752Y-57784490D01*
X166520752Y-57785229D01*
X166520896Y-57820565D01*
X166521752Y-57846011D01*
X166523959Y-57865130D01*
X166528155Y-57881484D01*
X166534978Y-57898634D01*
X166545066Y-57920142D01*
X166545193Y-57920407D01*
X166579690Y-57978226D01*
X166622972Y-58027503D01*
X166673357Y-58066319D01*
X166713329Y-58090991D01*
X166713329Y-58490372D01*
X166713329Y-58889753D01*
X166220991Y-58397449D01*
X165728652Y-57905145D01*
X165741354Y-57871716D01*
X165747696Y-57850710D01*
X165754113Y-57820133D01*
X165758156Y-57789683D01*
X165758853Y-57744461D01*
X165749325Y-57682010D01*
X165728426Y-57623754D01*
X165697331Y-57570967D01*
X165657213Y-57524921D01*
X165609247Y-57486892D01*
X165554605Y-57458151D01*
X165494463Y-57439972D01*
X165429992Y-57433630D01*
X165364612Y-57439410D01*
X165303446Y-57457399D01*
X165247347Y-57487842D01*
X165195731Y-57530982D01*
X165183550Y-57543785D01*
X165143960Y-57597117D01*
X165116287Y-57655751D01*
X165100927Y-57718237D01*
X165098278Y-57783122D01*
X163418505Y-57783122D01*
X163369762Y-57765278D01*
X163176022Y-57708695D01*
X162977364Y-57664648D01*
X162773931Y-57633184D01*
X162759589Y-57631594D01*
X162724656Y-57628387D01*
X162680822Y-57624932D01*
X162631057Y-57621416D01*
X162578332Y-57618026D01*
X162525616Y-57614948D01*
X162475879Y-57612371D01*
X162432091Y-57610480D01*
X162397221Y-57609463D01*
X162396833Y-57609500D01*
X162394082Y-57613295D01*
X162391986Y-57624218D01*
X162390477Y-57643547D01*
X162389485Y-57672558D01*
X162388941Y-57712526D01*
X162388775Y-57764728D01*
X161375208Y-57764728D01*
X161375208Y-57440923D01*
X161079584Y-57438966D01*
X161047494Y-57438752D01*
X160982026Y-57438287D01*
X160928202Y-57437809D01*
X160884713Y-57437245D01*
X160850252Y-57436524D01*
X160823511Y-57435575D01*
X160803183Y-57434327D01*
X160787959Y-57432709D01*
X160776533Y-57430649D01*
X160767595Y-57428075D01*
X160759839Y-57424918D01*
X160751957Y-57421104D01*
X160710951Y-57394521D01*
X160672946Y-57355190D01*
X160643550Y-57306707D01*
X160635742Y-57289189D01*
X160627531Y-57265180D01*
X160623653Y-57240989D01*
X160622678Y-57209990D01*
X160622625Y-57206262D01*
X160622130Y-57197724D01*
X160621369Y-57190063D01*
X160620659Y-57182940D01*
X160620316Y-57176018D01*
X160620655Y-57168960D01*
X160621994Y-57161429D01*
X160624647Y-57153087D01*
X160628932Y-57143597D01*
X160635164Y-57132623D01*
X160643659Y-57119826D01*
X160654733Y-57104869D01*
X160668703Y-57087416D01*
X160685884Y-57067129D01*
X160706593Y-57043671D01*
X160731146Y-57016704D01*
X160759858Y-56985891D01*
X160793046Y-56950896D01*
X160831026Y-56911380D01*
X160874114Y-56867007D01*
X160922626Y-56817439D01*
X160976878Y-56762340D01*
X161037187Y-56701371D01*
X161103868Y-56634195D01*
X161177237Y-56560476D01*
X161257611Y-56479876D01*
X161345305Y-56392058D01*
X161440636Y-56296685D01*
X161543919Y-56193419D01*
X161655472Y-56081923D01*
X161775609Y-55961860D01*
X161904647Y-55832893D01*
X162042903Y-55694684D01*
X163420603Y-54317244D01*
X163411615Y-54360153D01*
X163410067Y-54367594D01*
X163400426Y-54417258D01*
X163392921Y-54463648D01*
X163387318Y-54509557D01*
X163383380Y-54557782D01*
X163380872Y-54611117D01*
X163379557Y-54672357D01*
X163379200Y-54744297D01*
X163379327Y-54779693D01*
X163380593Y-54854883D01*
X163383514Y-54921070D01*
X163388458Y-54981392D01*
X163395794Y-55038981D01*
X163405889Y-55096974D01*
X163419112Y-55158505D01*
X163435829Y-55226709D01*
X163459182Y-55309863D01*
X163511691Y-55459095D01*
X163576269Y-55603562D01*
X163652302Y-55742365D01*
X163739175Y-55874604D01*
X163836275Y-55999381D01*
X163942986Y-56115797D01*
X164058696Y-56222954D01*
X164182789Y-56319952D01*
X164297995Y-56396767D01*
X164438754Y-56476229D01*
X164583881Y-56542926D01*
X164733550Y-56596918D01*
X164887929Y-56638265D01*
X165047191Y-56667028D01*
X165211507Y-56683266D01*
X165268368Y-56685832D01*
X165426619Y-56684114D01*
X165582358Y-56669589D01*
X165734981Y-56642702D01*
X165883886Y-56603897D01*
X166028469Y-56553616D01*
X166168126Y-56492303D01*
X166302253Y-56420402D01*
X166430249Y-56338357D01*
X166551507Y-56246611D01*
X166665427Y-56145608D01*
X166771403Y-56035790D01*
X166868833Y-55917603D01*
X166957113Y-55791490D01*
X167035640Y-55657893D01*
X167103809Y-55517257D01*
X167161018Y-55370026D01*
X167206664Y-55216642D01*
X167215489Y-55180006D01*
X167237816Y-55064477D01*
X167253473Y-54944170D01*
X167262389Y-54821796D01*
X167264490Y-54700069D01*
X167259706Y-54581702D01*
X167247964Y-54469408D01*
X167229193Y-54365899D01*
X167229803Y-54365922D01*
X167237964Y-54372687D01*
X167255530Y-54388928D01*
X167282417Y-54414563D01*
X167318543Y-54449510D01*
X167363825Y-54493687D01*
X167418181Y-54547013D01*
X167481527Y-54609404D01*
X167553781Y-54680781D01*
X167634859Y-54761059D01*
X167724680Y-54850158D01*
X167823161Y-54947995D01*
X167930218Y-55054490D01*
X168045769Y-55169559D01*
X168169731Y-55293120D01*
X168302021Y-55425093D01*
X168442557Y-55565395D01*
X168591256Y-55713944D01*
X168626666Y-55749329D01*
X168762293Y-55884884D01*
X168888734Y-56011295D01*
X169006300Y-56128876D01*
X169115302Y-56237943D01*
X169216051Y-56338810D01*
X169308857Y-56431793D01*
X169394032Y-56517205D01*
X169471886Y-56595362D01*
X169542730Y-56666579D01*
X169606875Y-56731170D01*
X169664631Y-56789450D01*
X169716309Y-56841734D01*
X169762221Y-56888337D01*
X169802677Y-56929574D01*
X169837988Y-56965758D01*
X169868464Y-56997207D01*
X169894417Y-57024233D01*
X169916157Y-57047152D01*
X169933994Y-57066279D01*
X169948241Y-57081928D01*
X169959208Y-57094414D01*
X169967205Y-57104053D01*
X169972543Y-57111158D01*
X169975533Y-57116045D01*
X169984645Y-57136353D01*
X169990458Y-57156224D01*
X169993213Y-57179272D01*
X169993909Y-57210645D01*
X169993448Y-57236788D01*
X169991001Y-57262071D01*
X169985550Y-57283389D01*
X169976103Y-57306055D01*
X169951116Y-57348855D01*
X169914412Y-57388973D01*
X169869988Y-57418225D01*
X169831739Y-57437008D01*
X169537804Y-57440387D01*
X169243870Y-57443765D01*
X169243282Y-57768463D01*
X169240491Y-59308729D01*
G37*
G36*
X157489755Y-60393247D02*
G01*
X157489646Y-60422474D01*
X157487806Y-60505868D01*
X157483445Y-60579220D01*
X157476239Y-60645035D01*
X157465863Y-60705820D01*
X157451994Y-60764081D01*
X157434309Y-60822323D01*
X157396590Y-60918317D01*
X157348654Y-61008287D01*
X157291996Y-61088111D01*
X157226797Y-61157620D01*
X157153241Y-61216647D01*
X157071510Y-61265022D01*
X156981787Y-61302577D01*
X156884256Y-61329143D01*
X156861138Y-61332749D01*
X156820145Y-61336077D01*
X156771892Y-61337544D01*
X156719830Y-61337241D01*
X156667411Y-61335259D01*
X156618087Y-61331689D01*
X156575310Y-61326622D01*
X156542531Y-61320149D01*
X156483717Y-61301972D01*
X156393889Y-61263613D01*
X156312533Y-61214808D01*
X156239792Y-61155720D01*
X156175810Y-61086515D01*
X156120732Y-61007359D01*
X156074703Y-60918415D01*
X156037866Y-60819851D01*
X156010367Y-60711829D01*
X156002480Y-60667336D01*
X155992391Y-60585900D01*
X155985973Y-60497037D01*
X155983368Y-60404252D01*
X155983528Y-60393247D01*
X156236551Y-60393247D01*
X156236557Y-60419429D01*
X156236657Y-60477863D01*
X156236951Y-60525251D01*
X156237529Y-60563368D01*
X156238483Y-60593990D01*
X156239903Y-60618891D01*
X156241879Y-60639846D01*
X156244503Y-60658632D01*
X156247865Y-60677022D01*
X156252055Y-60696793D01*
X156266790Y-60755769D01*
X156292271Y-60830975D01*
X156323745Y-60896774D01*
X156362227Y-60955177D01*
X156408727Y-61008195D01*
X156409561Y-61009029D01*
X156467798Y-61058179D01*
X156531745Y-61095101D01*
X156601305Y-61119744D01*
X156605387Y-61120746D01*
X156646082Y-61127788D01*
X156694110Y-61132116D01*
X156744366Y-61133565D01*
X156791744Y-61131972D01*
X156831140Y-61127170D01*
X156837645Y-61125877D01*
X156911870Y-61104019D01*
X156979516Y-61070572D01*
X157040284Y-61025895D01*
X157093875Y-60970347D01*
X157139989Y-60904288D01*
X157178329Y-60828077D01*
X157208596Y-60742074D01*
X157230491Y-60646638D01*
X157234443Y-60616515D01*
X157237844Y-60574223D01*
X157240453Y-60523655D01*
X157242247Y-60467483D01*
X157243202Y-60408380D01*
X157243298Y-60349019D01*
X157242510Y-60292072D01*
X157240815Y-60240213D01*
X157238192Y-60196115D01*
X157234617Y-60162449D01*
X157225368Y-60109155D01*
X157201489Y-60016057D01*
X157169347Y-59932662D01*
X157129162Y-59859287D01*
X157081154Y-59796246D01*
X157025543Y-59743854D01*
X156962549Y-59702427D01*
X156892391Y-59672279D01*
X156881142Y-59668634D01*
X156858702Y-59662243D01*
X156837333Y-59658013D01*
X156813391Y-59655492D01*
X156783230Y-59654228D01*
X156743204Y-59653769D01*
X156701590Y-59654057D01*
X156658486Y-59656219D01*
X156622167Y-59661083D01*
X156588926Y-59669395D01*
X156555054Y-59681902D01*
X156516841Y-59699350D01*
X156499844Y-59707926D01*
X156468505Y-59726586D01*
X156439872Y-59748728D01*
X156408727Y-59778154D01*
X156375504Y-59814616D01*
X156334654Y-59871271D01*
X156301145Y-59934648D01*
X156273952Y-60006780D01*
X156252055Y-60089700D01*
X156250315Y-60097692D01*
X156246459Y-60116713D01*
X156243396Y-60135047D01*
X156241036Y-60154468D01*
X156239288Y-60176752D01*
X156238061Y-60203674D01*
X156237264Y-60237009D01*
X156236807Y-60278533D01*
X156236600Y-60330020D01*
X156236551Y-60393247D01*
X155983528Y-60393247D01*
X155984722Y-60311051D01*
X155990178Y-60220940D01*
X156001112Y-60129676D01*
X156023687Y-60018443D01*
X156055473Y-59916008D01*
X156096221Y-59822679D01*
X156145681Y-59738766D01*
X156203604Y-59664577D01*
X156269741Y-59600421D01*
X156343842Y-59546609D01*
X156425659Y-59503449D01*
X156514941Y-59471250D01*
X156611441Y-59450321D01*
X156674829Y-59443008D01*
X156775821Y-59441190D01*
X156872962Y-59451616D01*
X156965500Y-59473908D01*
X157052681Y-59507690D01*
X157133755Y-59552587D01*
X157207968Y-59608220D01*
X157274568Y-59674216D01*
X157332804Y-59750196D01*
X157381924Y-59835784D01*
X157384340Y-59840734D01*
X157414877Y-59909131D01*
X157439540Y-59977349D01*
X157458760Y-60047602D01*
X157472962Y-60122105D01*
X157482577Y-60203071D01*
X157488032Y-60292713D01*
X157488997Y-60349019D01*
X157489755Y-60393247D01*
G37*
G36*
X153754760Y-60138165D02*
G01*
X153754824Y-60158176D01*
X153755172Y-60265923D01*
X153755502Y-60361147D01*
X153755833Y-60444694D01*
X153756186Y-60517410D01*
X153756581Y-60580140D01*
X153757036Y-60633728D01*
X153757573Y-60679021D01*
X153758211Y-60716865D01*
X153758970Y-60748103D01*
X153759870Y-60773582D01*
X153760930Y-60794147D01*
X153762171Y-60810643D01*
X153763613Y-60823915D01*
X153765275Y-60834810D01*
X153767177Y-60844172D01*
X153769339Y-60852847D01*
X153771782Y-60861680D01*
X153784506Y-60901488D01*
X153805178Y-60947667D01*
X153832093Y-60988583D01*
X153867961Y-61028951D01*
X153873330Y-61034275D01*
X153922775Y-61074695D01*
X153978725Y-61105340D01*
X154043737Y-61127646D01*
X154066937Y-61132376D01*
X154107631Y-61137056D01*
X154154668Y-61139554D01*
X154204114Y-61139869D01*
X154252030Y-61138001D01*
X154294483Y-61133948D01*
X154327535Y-61127710D01*
X154367993Y-61114882D01*
X154433435Y-61084463D01*
X154489238Y-61044746D01*
X154535212Y-60995876D01*
X154571168Y-60938003D01*
X154572799Y-60934715D01*
X154579964Y-60920180D01*
X154586320Y-60906568D01*
X154591919Y-60893030D01*
X154596807Y-60878715D01*
X154601033Y-60862775D01*
X154604647Y-60844361D01*
X154607695Y-60822623D01*
X154610228Y-60796712D01*
X154612293Y-60765780D01*
X154613940Y-60728976D01*
X154615216Y-60685451D01*
X154616170Y-60634357D01*
X154616851Y-60574844D01*
X154617307Y-60506063D01*
X154617587Y-60427164D01*
X154617740Y-60337299D01*
X154617813Y-60235618D01*
X154617856Y-60121273D01*
X154618091Y-59467522D01*
X154739719Y-59467522D01*
X154861348Y-59467522D01*
X154861348Y-60128834D01*
X154861344Y-60221788D01*
X154861308Y-60325428D01*
X154861200Y-60417129D01*
X154860982Y-60497765D01*
X154860615Y-60568207D01*
X154860059Y-60629328D01*
X154859276Y-60682000D01*
X154858227Y-60727095D01*
X154856873Y-60765486D01*
X154855175Y-60798044D01*
X154853094Y-60825642D01*
X154850590Y-60849152D01*
X154847626Y-60869447D01*
X154844162Y-60887399D01*
X154840159Y-60903879D01*
X154835577Y-60919760D01*
X154830380Y-60935915D01*
X154824526Y-60953215D01*
X154815277Y-60978362D01*
X154778359Y-61054024D01*
X154730762Y-61121839D01*
X154673017Y-61181386D01*
X154605655Y-61232243D01*
X154529209Y-61273988D01*
X154444208Y-61306202D01*
X154351185Y-61328462D01*
X154342035Y-61329951D01*
X154297941Y-61334742D01*
X154245640Y-61337546D01*
X154189272Y-61338360D01*
X154132977Y-61337178D01*
X154080895Y-61333995D01*
X154037165Y-61328808D01*
X154015959Y-61325084D01*
X153923431Y-61301602D01*
X153838390Y-61267757D01*
X153761511Y-61223920D01*
X153693469Y-61170462D01*
X153634941Y-61107755D01*
X153595651Y-61051986D01*
X153560410Y-60984922D01*
X153531960Y-60908736D01*
X153513361Y-60849352D01*
X153511430Y-60158437D01*
X153509499Y-59467522D01*
X153631063Y-59467522D01*
X153752627Y-59467522D01*
X153754760Y-60138165D01*
G37*
G36*
X149376297Y-59443000D02*
G01*
X149475354Y-59451426D01*
X149564868Y-59468681D01*
X149645857Y-59495177D01*
X149719338Y-59531325D01*
X149786328Y-59577536D01*
X149847846Y-59634222D01*
X149881365Y-59672750D01*
X149921538Y-59733179D01*
X149949405Y-59797423D01*
X149965605Y-59867092D01*
X149970777Y-59943794D01*
X149968970Y-59988571D01*
X149957466Y-60059496D01*
X149934766Y-60124173D01*
X149900196Y-60184304D01*
X149853083Y-60241594D01*
X149837587Y-60257415D01*
X149803155Y-60289051D01*
X149765887Y-60318225D01*
X149724481Y-60345583D01*
X149677637Y-60371768D01*
X149624055Y-60397427D01*
X149562433Y-60423203D01*
X149491471Y-60449743D01*
X149409868Y-60477689D01*
X149316323Y-60507688D01*
X149302886Y-60511918D01*
X149223679Y-60538379D01*
X149156580Y-60563852D01*
X149100461Y-60588943D01*
X149054197Y-60614257D01*
X149016661Y-60640401D01*
X148986727Y-60667980D01*
X148963269Y-60697601D01*
X148946520Y-60726376D01*
X148930929Y-60768062D01*
X148923411Y-60814967D01*
X148923203Y-60870394D01*
X148924220Y-60886185D01*
X148928113Y-60916104D01*
X148935448Y-60941843D01*
X148947832Y-60969894D01*
X148974886Y-61013618D01*
X149015556Y-61055768D01*
X149066666Y-61089550D01*
X149128287Y-61115002D01*
X149200490Y-61132159D01*
X149283348Y-61141059D01*
X149336834Y-61142237D01*
X149423347Y-61136125D01*
X149502976Y-61119972D01*
X149574936Y-61094020D01*
X149638443Y-61058515D01*
X149692712Y-61013699D01*
X149720460Y-60981831D01*
X149749845Y-60933246D01*
X149770574Y-60876737D01*
X149783453Y-60810498D01*
X149787581Y-60778402D01*
X149909797Y-60778402D01*
X150032013Y-60778402D01*
X150027857Y-60832287D01*
X150026797Y-60843815D01*
X150012857Y-60915577D01*
X149987070Y-60986520D01*
X149950671Y-61053805D01*
X149904898Y-61114594D01*
X149855348Y-61162832D01*
X149790446Y-61210539D01*
X149715786Y-61252338D01*
X149632931Y-61287476D01*
X149543446Y-61315195D01*
X149448897Y-61334742D01*
X149425372Y-61337017D01*
X149391052Y-61338348D01*
X149349684Y-61338722D01*
X149304525Y-61338207D01*
X149258830Y-61336870D01*
X149215854Y-61334778D01*
X149178854Y-61331998D01*
X149151086Y-61328598D01*
X149110284Y-61320746D01*
X149023691Y-61296566D01*
X148944869Y-61263829D01*
X148874614Y-61223121D01*
X148813720Y-61175029D01*
X148762982Y-61120139D01*
X148723193Y-61059036D01*
X148695149Y-60992307D01*
X148678885Y-60922722D01*
X148672910Y-60846811D01*
X148678299Y-60771152D01*
X148694720Y-60697946D01*
X148721840Y-60629392D01*
X148759326Y-60567691D01*
X148792445Y-60527717D01*
X148835317Y-60486687D01*
X148885776Y-60448375D01*
X148944808Y-60412239D01*
X149013399Y-60377739D01*
X149092535Y-60344333D01*
X149183202Y-60311482D01*
X149286387Y-60278644D01*
X149361639Y-60255127D01*
X149432467Y-60230687D01*
X149492514Y-60206999D01*
X149543135Y-60183427D01*
X149585682Y-60159336D01*
X149621509Y-60134091D01*
X149651970Y-60107056D01*
X149657496Y-60101397D01*
X149692266Y-60055801D01*
X149714314Y-60005678D01*
X149723579Y-59951212D01*
X149720004Y-59892588D01*
X149710266Y-59850896D01*
X149686650Y-59795993D01*
X149652082Y-59748934D01*
X149606668Y-59709823D01*
X149550513Y-59678769D01*
X149483724Y-59655877D01*
X149450508Y-59649201D01*
X149399516Y-59643677D01*
X149343465Y-59641615D01*
X149286860Y-59643010D01*
X149234205Y-59647857D01*
X149190006Y-59656153D01*
X149161957Y-59664365D01*
X149097144Y-59691774D01*
X149042297Y-59728296D01*
X148997545Y-59773779D01*
X148963021Y-59828072D01*
X148938854Y-59891023D01*
X148925178Y-59962480D01*
X148920870Y-60001334D01*
X148799728Y-60001334D01*
X148678586Y-60001334D01*
X148678586Y-59965251D01*
X148679257Y-59949917D01*
X148684897Y-59910208D01*
X148695279Y-59865578D01*
X148709200Y-59820771D01*
X148725457Y-59780527D01*
X148750613Y-59732939D01*
X148798963Y-59664229D01*
X148857108Y-59604104D01*
X148924385Y-59552909D01*
X149000132Y-59510987D01*
X149083687Y-59478684D01*
X149174386Y-59456345D01*
X149271567Y-59444312D01*
X149374569Y-59442932D01*
X149376297Y-59443000D01*
G37*
G36*
X159631502Y-60049368D02*
G01*
X159307530Y-60631481D01*
X159307530Y-60975226D01*
X159307530Y-61318971D01*
X159185902Y-61318971D01*
X159064274Y-61318971D01*
X159064227Y-60972669D01*
X159064179Y-60626367D01*
X158743263Y-60049503D01*
X158721319Y-60010050D01*
X158676856Y-59930074D01*
X158634514Y-59853859D01*
X158594737Y-59782210D01*
X158557971Y-59715932D01*
X158524663Y-59655829D01*
X158495256Y-59602705D01*
X158470197Y-59557366D01*
X158449931Y-59520616D01*
X158434904Y-59493259D01*
X158425561Y-59476100D01*
X158422348Y-59469943D01*
X158422882Y-59469714D01*
X158432771Y-59469060D01*
X158453620Y-59468657D01*
X158483439Y-59468517D01*
X158520239Y-59468651D01*
X158562031Y-59469074D01*
X158701715Y-59470900D01*
X158942119Y-59928165D01*
X158947957Y-59939267D01*
X158986062Y-60011693D01*
X159022293Y-60080476D01*
X159056160Y-60144692D01*
X159087173Y-60203415D01*
X159114842Y-60255722D01*
X159138679Y-60300687D01*
X159158193Y-60337385D01*
X159172894Y-60364892D01*
X159182294Y-60382282D01*
X159185902Y-60388632D01*
X159186119Y-60388514D01*
X159190838Y-60381004D01*
X159201215Y-60362585D01*
X159216766Y-60334164D01*
X159237008Y-60296647D01*
X159261456Y-60250944D01*
X159289627Y-60197960D01*
X159321036Y-60138603D01*
X159355199Y-60073780D01*
X159391632Y-60004399D01*
X159429852Y-59931367D01*
X159670423Y-59470900D01*
X159812948Y-59469078D01*
X159955474Y-59467255D01*
X159631502Y-60049368D01*
G37*
G36*
X152327429Y-60392848D02*
G01*
X152327429Y-61318971D01*
X152205801Y-61318971D01*
X152084173Y-61318971D01*
X152084173Y-60943952D01*
X152084173Y-60568932D01*
X151862757Y-60568932D01*
X151641342Y-60568932D01*
X151442866Y-60935505D01*
X151439267Y-60942152D01*
X151404141Y-61006957D01*
X151370864Y-61068231D01*
X151340010Y-61124930D01*
X151312150Y-61176009D01*
X151287855Y-61220423D01*
X151267696Y-61257127D01*
X151252246Y-61285075D01*
X151242075Y-61303223D01*
X151237756Y-61310525D01*
X151235667Y-61311735D01*
X151222247Y-61314319D01*
X151199077Y-61316388D01*
X151168741Y-61317926D01*
X151133820Y-61318913D01*
X151096900Y-61319334D01*
X151060561Y-61319170D01*
X151027388Y-61318404D01*
X150999963Y-61317018D01*
X150980870Y-61314995D01*
X150972691Y-61312318D01*
X150973094Y-61310448D01*
X150978586Y-61298307D01*
X150989932Y-61275852D01*
X151006599Y-61244068D01*
X151028054Y-61203942D01*
X151053766Y-61156460D01*
X151083201Y-61102608D01*
X151115827Y-61043372D01*
X151151111Y-60979739D01*
X151188520Y-60912694D01*
X151206785Y-60880055D01*
X151243333Y-60814706D01*
X151277610Y-60753371D01*
X151309075Y-60697021D01*
X151337186Y-60646629D01*
X151361400Y-60603165D01*
X151381177Y-60567603D01*
X151395973Y-60540915D01*
X151405249Y-60524073D01*
X151408461Y-60518049D01*
X151407765Y-60517441D01*
X151398586Y-60512369D01*
X151380989Y-60503515D01*
X151357822Y-60492327D01*
X151286147Y-60452412D01*
X151219338Y-60401544D01*
X151163377Y-60342949D01*
X151118580Y-60277198D01*
X151085267Y-60204861D01*
X151063756Y-60126508D01*
X151054365Y-60042709D01*
X151054545Y-60037461D01*
X151301591Y-60037461D01*
X151310290Y-60104585D01*
X151311462Y-60109872D01*
X151331702Y-60168370D01*
X151363444Y-60221409D01*
X151405454Y-60267843D01*
X151456500Y-60306525D01*
X151515348Y-60336311D01*
X151580768Y-60356053D01*
X151597736Y-60358924D01*
X151620120Y-60361302D01*
X151648870Y-60363138D01*
X151685417Y-60364483D01*
X151731188Y-60365391D01*
X151787613Y-60365913D01*
X151856120Y-60366101D01*
X152084173Y-60366218D01*
X152084173Y-60014257D01*
X152084173Y-59662296D01*
X151845984Y-59665117D01*
X151834910Y-59665249D01*
X151772650Y-59666066D01*
X151722015Y-59666925D01*
X151681373Y-59667921D01*
X151649095Y-59669151D01*
X151623549Y-59670710D01*
X151603104Y-59672695D01*
X151586131Y-59675200D01*
X151570999Y-59678323D01*
X151556076Y-59682158D01*
X151528453Y-59690406D01*
X151479987Y-59709510D01*
X151438435Y-59733605D01*
X151399431Y-59765000D01*
X151367817Y-59799915D01*
X151337171Y-59850607D01*
X151315563Y-59908445D01*
X151303526Y-59971406D01*
X151301591Y-60037461D01*
X151054545Y-60037461D01*
X151057412Y-59954034D01*
X151059646Y-59934253D01*
X151072277Y-59860695D01*
X151091396Y-59796566D01*
X151118101Y-59739397D01*
X151153489Y-59686718D01*
X151198657Y-59636060D01*
X151219144Y-59616445D01*
X151263235Y-59580440D01*
X151310842Y-59550404D01*
X151364458Y-59525075D01*
X151426575Y-59503189D01*
X151499682Y-59483484D01*
X151500030Y-59483401D01*
X151511838Y-59480948D01*
X151525836Y-59478840D01*
X151543156Y-59477043D01*
X151564931Y-59475518D01*
X151592293Y-59474230D01*
X151626373Y-59473142D01*
X151668306Y-59472218D01*
X151719223Y-59471422D01*
X151780257Y-59470718D01*
X151852541Y-59470068D01*
X151937206Y-59469436D01*
X152327429Y-59466724D01*
X152327429Y-60014257D01*
X152327429Y-60392848D01*
G37*
G36*
X147563662Y-60393283D02*
G01*
X147563662Y-61319045D01*
X146970725Y-61317319D01*
X146377788Y-61315593D01*
X146375918Y-61215925D01*
X146374048Y-61116258D01*
X146847227Y-61116258D01*
X147320406Y-61116258D01*
X147320406Y-60788538D01*
X147320406Y-60460818D01*
X146914979Y-60460818D01*
X146509552Y-60460818D01*
X146509552Y-60359461D01*
X146509552Y-60258104D01*
X146914979Y-60258104D01*
X147320406Y-60258104D01*
X147320406Y-59960791D01*
X147320406Y-59663478D01*
X146854165Y-59663478D01*
X146387924Y-59663478D01*
X146387924Y-59565500D01*
X146387924Y-59467522D01*
X146975793Y-59467522D01*
X147563662Y-59467522D01*
X147563662Y-60393283D01*
G37*
G36*
X145279757Y-60393247D02*
G01*
X145279757Y-61318971D01*
X144712159Y-61318971D01*
X144144561Y-61318971D01*
X144144561Y-61217615D01*
X144144561Y-61116258D01*
X144587152Y-61116258D01*
X145029743Y-61116258D01*
X145029743Y-60291890D01*
X145029743Y-59467522D01*
X145154750Y-59467522D01*
X145279757Y-59467522D01*
X145279757Y-60393247D01*
G37*
G36*
X143076937Y-60388742D02*
G01*
X143076927Y-60450940D01*
X143076859Y-60559458D01*
X143076731Y-60663821D01*
X143076546Y-60763247D01*
X143076309Y-60856958D01*
X143076023Y-60944172D01*
X143075692Y-61024112D01*
X143075320Y-61095996D01*
X143074910Y-61159045D01*
X143074467Y-61212478D01*
X143073993Y-61255517D01*
X143073494Y-61287382D01*
X143072972Y-61307291D01*
X143072432Y-61314467D01*
X143066037Y-61315761D01*
X143048038Y-61317044D01*
X143020770Y-61318061D01*
X142986482Y-61318730D01*
X142947425Y-61318971D01*
X142826924Y-61318971D01*
X142826924Y-60910166D01*
X142826924Y-60501360D01*
X142435011Y-60501360D01*
X142043098Y-60501360D01*
X142043098Y-60400004D01*
X142043098Y-60298647D01*
X142435011Y-60298647D01*
X142826924Y-60298647D01*
X142826924Y-59981062D01*
X142826924Y-59663478D01*
X142370818Y-59663478D01*
X141914713Y-59663478D01*
X141914713Y-59565500D01*
X141914713Y-59467522D01*
X142495825Y-59467522D01*
X143076937Y-59467522D01*
X143076937Y-60388742D01*
G37*
G36*
X159175301Y-56427295D02*
G01*
X159272823Y-56434165D01*
X159362553Y-56449588D01*
X159446856Y-56474056D01*
X159528096Y-56508064D01*
X159607024Y-56551941D01*
X159682252Y-56607225D01*
X159746502Y-56670193D01*
X159799554Y-56740496D01*
X159841185Y-56817784D01*
X159871175Y-56901710D01*
X159889303Y-56991922D01*
X159895348Y-57088074D01*
X159895258Y-57102994D01*
X159892882Y-57159714D01*
X159886612Y-57210057D01*
X159875551Y-57259564D01*
X159858803Y-57313775D01*
X159836338Y-57371317D01*
X159802540Y-57435514D01*
X159759884Y-57495739D01*
X159706200Y-57555429D01*
X159651630Y-57605594D01*
X159570069Y-57667041D01*
X159475406Y-57725332D01*
X159367627Y-57780473D01*
X159246716Y-57832476D01*
X159234186Y-57837522D01*
X159194270Y-57854533D01*
X159152131Y-57873644D01*
X159110720Y-57893421D01*
X159072986Y-57912432D01*
X159041880Y-57929244D01*
X159020353Y-57942423D01*
X159012700Y-57947764D01*
X158976877Y-57975017D01*
X158949949Y-58000692D01*
X158928938Y-58027987D01*
X158910870Y-58060101D01*
X158901152Y-58080218D01*
X158893711Y-58098102D01*
X158888903Y-58115141D01*
X158885998Y-58134926D01*
X158884266Y-58161043D01*
X158882974Y-58197083D01*
X158882776Y-58203981D01*
X158882805Y-58254684D01*
X158886288Y-58295598D01*
X158893881Y-58329800D01*
X158906235Y-58360368D01*
X158924005Y-58390380D01*
X158946864Y-58418745D01*
X158981983Y-58446784D01*
X159024902Y-58466143D01*
X159076847Y-58477337D01*
X159139045Y-58480883D01*
X159187356Y-58478875D01*
X159254794Y-58468013D01*
X159312670Y-58447687D01*
X159361086Y-58417841D01*
X159400144Y-58378422D01*
X159429949Y-58329378D01*
X159430627Y-58327918D01*
X159451119Y-58272166D01*
X159464627Y-58211231D01*
X159469584Y-58152126D01*
X159469510Y-58144145D01*
X159469130Y-58129166D01*
X159469499Y-58117158D01*
X159471891Y-58107794D01*
X159477584Y-58100749D01*
X159487854Y-58095699D01*
X159503976Y-58092319D01*
X159527228Y-58090282D01*
X159558886Y-58089264D01*
X159600226Y-58088939D01*
X159652525Y-58088983D01*
X159717059Y-58089070D01*
X159956213Y-58089070D01*
X159956213Y-58117965D01*
X159955632Y-58137532D01*
X159952069Y-58179334D01*
X159945904Y-58225867D01*
X159937882Y-58271862D01*
X159928749Y-58312055D01*
X159910962Y-58369913D01*
X159871876Y-58461886D01*
X159821601Y-58547084D01*
X159760799Y-58624277D01*
X159760172Y-58624970D01*
X159701440Y-58680689D01*
X159631825Y-58731267D01*
X159553282Y-58775726D01*
X159467764Y-58813092D01*
X159377226Y-58842387D01*
X159283622Y-58862637D01*
X159262467Y-58865369D01*
X159219956Y-58868440D01*
X159169920Y-58869951D01*
X159115858Y-58869966D01*
X159061267Y-58868547D01*
X159009645Y-58865757D01*
X158964490Y-58861657D01*
X158929299Y-58856310D01*
X158874857Y-58843488D01*
X158781835Y-58812703D01*
X158698187Y-58772737D01*
X158624185Y-58723783D01*
X158560098Y-58666031D01*
X158506196Y-58599674D01*
X158462750Y-58524904D01*
X158452923Y-58504110D01*
X158433671Y-58458945D01*
X158419406Y-58416617D01*
X158409470Y-58373877D01*
X158403205Y-58327477D01*
X158399952Y-58274167D01*
X158399052Y-58210698D01*
X158399281Y-58166294D01*
X158400105Y-58128496D01*
X158401761Y-58098520D01*
X158404493Y-58073410D01*
X158408541Y-58050208D01*
X158414147Y-58025959D01*
X158426600Y-57981117D01*
X158456821Y-57899707D01*
X158495423Y-57826693D01*
X158543752Y-57759723D01*
X158603159Y-57696448D01*
X158659964Y-57647083D01*
X158731904Y-57595228D01*
X158813793Y-57546306D01*
X158906810Y-57499619D01*
X159012135Y-57454469D01*
X159099812Y-57417505D01*
X159176512Y-57380629D01*
X159241209Y-57344035D01*
X159294637Y-57307218D01*
X159337529Y-57269673D01*
X159370615Y-57230893D01*
X159394629Y-57190373D01*
X159401013Y-57176126D01*
X159406897Y-57158821D01*
X159410286Y-57139967D01*
X159411823Y-57115580D01*
X159412150Y-57081676D01*
X159412111Y-57068866D01*
X159411544Y-57040000D01*
X159409605Y-57018847D01*
X159405404Y-57001122D01*
X159398052Y-56982535D01*
X159386660Y-56958800D01*
X159378358Y-56943018D01*
X159346458Y-56897310D01*
X159307793Y-56862614D01*
X159261224Y-56837829D01*
X159255359Y-56835570D01*
X159234840Y-56829120D01*
X159212915Y-56825181D01*
X159185556Y-56823207D01*
X159148738Y-56822657D01*
X159115845Y-56823310D01*
X159077762Y-56827114D01*
X159045614Y-56835407D01*
X159015085Y-56849422D01*
X158981863Y-56870393D01*
X158954797Y-56894028D01*
X158925535Y-56933678D01*
X158902140Y-56982853D01*
X158885435Y-57039740D01*
X158876244Y-57102531D01*
X158871696Y-57159966D01*
X158632491Y-57161743D01*
X158393286Y-57163520D01*
X158397442Y-57090794D01*
X158403601Y-57027064D01*
X158422954Y-56931760D01*
X158453596Y-56843006D01*
X158494934Y-56761336D01*
X158546372Y-56687280D01*
X158607316Y-56621372D01*
X158677171Y-56564143D01*
X158755343Y-56516126D01*
X158841237Y-56477853D01*
X158934259Y-56449856D01*
X159033812Y-56432667D01*
X159139304Y-56426819D01*
X159175301Y-56427295D01*
G37*
G36*
X147887889Y-57592528D02*
G01*
X147888280Y-57662821D01*
X147888324Y-57732792D01*
X147888011Y-57800555D01*
X147887336Y-57864229D01*
X147886290Y-57921928D01*
X147884867Y-57971770D01*
X147883058Y-58011871D01*
X147880856Y-58040347D01*
X147877735Y-58066848D01*
X147857079Y-58187639D01*
X147826987Y-58299553D01*
X147787674Y-58402337D01*
X147739361Y-58495740D01*
X147682264Y-58579509D01*
X147616602Y-58653391D01*
X147542594Y-58717133D01*
X147460458Y-58770484D01*
X147370411Y-58813191D01*
X147272672Y-58845002D01*
X147167460Y-58865664D01*
X147159692Y-58866633D01*
X147118595Y-58869651D01*
X147068715Y-58870771D01*
X147013761Y-58870130D01*
X146957442Y-58867866D01*
X146903467Y-58864116D01*
X146855546Y-58859017D01*
X146817386Y-58852706D01*
X146775235Y-58842685D01*
X146684383Y-58813176D01*
X146601712Y-58774147D01*
X146525422Y-58724664D01*
X146453715Y-58663792D01*
X146423124Y-58632985D01*
X146358340Y-58554837D01*
X146303375Y-58468320D01*
X146258088Y-58373114D01*
X146222340Y-58268897D01*
X146195990Y-58155350D01*
X146178901Y-58032150D01*
X146178619Y-58029095D01*
X146176819Y-58000591D01*
X146175299Y-57960761D01*
X146174059Y-57911515D01*
X146173098Y-57854762D01*
X146172416Y-57792412D01*
X146172015Y-57726376D01*
X146171914Y-57670129D01*
X146654867Y-57670129D01*
X146654947Y-57740139D01*
X146655317Y-57818684D01*
X146656091Y-57886155D01*
X146657380Y-57943919D01*
X146659296Y-57993347D01*
X146661948Y-58035805D01*
X146665448Y-58072662D01*
X146669908Y-58105287D01*
X146675437Y-58135049D01*
X146682148Y-58163315D01*
X146690152Y-58191453D01*
X146699558Y-58220834D01*
X146703385Y-58232113D01*
X146720854Y-58277403D01*
X146739694Y-58314379D01*
X146762318Y-58347239D01*
X146791139Y-58380185D01*
X146794467Y-58383633D01*
X146838012Y-58420317D01*
X146887485Y-58446626D01*
X146945549Y-58464006D01*
X146978841Y-58469717D01*
X147047537Y-58472897D01*
X147112996Y-58464381D01*
X147173787Y-58444565D01*
X147228476Y-58413846D01*
X147275630Y-58372621D01*
X147304148Y-58337806D01*
X147332206Y-58292166D01*
X147355637Y-58239056D01*
X147375284Y-58176516D01*
X147391992Y-58102584D01*
X147392360Y-58100566D01*
X147395132Y-58077496D01*
X147397688Y-58042820D01*
X147400006Y-57998229D01*
X147402065Y-57945413D01*
X147403846Y-57886063D01*
X147405326Y-57821871D01*
X147406486Y-57754527D01*
X147407305Y-57685723D01*
X147407762Y-57617149D01*
X147407837Y-57550497D01*
X147407508Y-57487458D01*
X147406755Y-57429721D01*
X147405558Y-57378980D01*
X147403896Y-57336924D01*
X147401747Y-57305244D01*
X147395492Y-57249279D01*
X147379521Y-57157395D01*
X147357416Y-57077313D01*
X147329024Y-57008802D01*
X147294192Y-56951630D01*
X147252765Y-56905566D01*
X147204591Y-56870380D01*
X147149517Y-56845840D01*
X147087388Y-56831714D01*
X147028034Y-56828013D01*
X146965422Y-56833334D01*
X146907032Y-56847697D01*
X146856231Y-56870537D01*
X146813433Y-56902781D01*
X146774123Y-56946718D01*
X146739539Y-57000578D01*
X146710754Y-57062688D01*
X146688843Y-57131372D01*
X146685488Y-57144823D01*
X146678688Y-57174173D01*
X146672957Y-57202990D01*
X146668206Y-57232679D01*
X146664347Y-57264644D01*
X146661292Y-57300291D01*
X146658951Y-57341023D01*
X146657236Y-57388246D01*
X146656059Y-57443363D01*
X146655331Y-57507779D01*
X146654963Y-57582900D01*
X146654867Y-57670129D01*
X146171914Y-57670129D01*
X146171893Y-57658565D01*
X146172051Y-57590887D01*
X146172489Y-57525252D01*
X146173207Y-57463572D01*
X146174205Y-57407756D01*
X146175483Y-57359714D01*
X146177041Y-57321356D01*
X146178879Y-57294593D01*
X146182927Y-57257450D01*
X146203001Y-57134642D01*
X146232347Y-57020681D01*
X146270750Y-56915832D01*
X146317994Y-56820359D01*
X146373866Y-56734526D01*
X146438150Y-56658595D01*
X146510630Y-56592831D01*
X146591093Y-56537497D01*
X146679323Y-56492858D01*
X146775105Y-56459176D01*
X146878223Y-56436715D01*
X146898535Y-56433948D01*
X146952851Y-56429477D01*
X147013428Y-56427745D01*
X147076347Y-56428649D01*
X147137691Y-56432088D01*
X147193541Y-56437958D01*
X147239980Y-56446158D01*
X147250230Y-56448581D01*
X147347390Y-56477940D01*
X147435655Y-56516999D01*
X147515965Y-56566242D01*
X147589264Y-56626154D01*
X147619186Y-56655511D01*
X147686167Y-56733927D01*
X147743438Y-56821013D01*
X147791117Y-56917030D01*
X147829324Y-57022240D01*
X147858176Y-57136904D01*
X147877793Y-57261282D01*
X147878641Y-57269463D01*
X147880966Y-57302140D01*
X147882988Y-57345795D01*
X147884699Y-57398545D01*
X147886090Y-57458506D01*
X147887156Y-57523795D01*
X147887441Y-57550497D01*
X147887889Y-57592528D01*
G37*
G36*
X156770567Y-57315380D02*
G01*
X156778339Y-57345247D01*
X156805346Y-57448890D01*
X156831390Y-57548644D01*
X156856269Y-57643741D01*
X156879781Y-57733417D01*
X156901724Y-57816906D01*
X156921895Y-57893441D01*
X156940091Y-57962256D01*
X156956110Y-58022585D01*
X156969750Y-58073663D01*
X156980808Y-58114723D01*
X156989081Y-58144999D01*
X156994368Y-58163725D01*
X156996466Y-58170136D01*
X156996725Y-58169614D01*
X156999753Y-58159635D01*
X157005921Y-58137560D01*
X157015026Y-58104153D01*
X157026865Y-58060182D01*
X157041235Y-58006411D01*
X157057933Y-57943607D01*
X157076756Y-57872536D01*
X157097502Y-57793964D01*
X157119967Y-57708655D01*
X157143948Y-57617377D01*
X157169242Y-57520895D01*
X157195647Y-57419975D01*
X157222960Y-57315383D01*
X157445945Y-56460649D01*
X157761840Y-56460627D01*
X158077735Y-56460605D01*
X158077735Y-57649857D01*
X158077735Y-58839110D01*
X157834479Y-58839110D01*
X157591223Y-58839110D01*
X157591223Y-58545967D01*
X157591225Y-58540944D01*
X157591666Y-58474156D01*
X157592819Y-58395800D01*
X157594621Y-58307653D01*
X157597013Y-58211489D01*
X157599932Y-58109084D01*
X157603317Y-58002213D01*
X157607108Y-57892653D01*
X157611243Y-57782177D01*
X157615660Y-57672562D01*
X157620299Y-57565583D01*
X157625099Y-57463015D01*
X157629998Y-57366634D01*
X157634934Y-57278216D01*
X157635766Y-57260859D01*
X157636057Y-57238789D01*
X157635121Y-57225828D01*
X157633037Y-57224159D01*
X157630893Y-57230484D01*
X157625151Y-57249142D01*
X157616097Y-57279271D01*
X157603967Y-57320078D01*
X157588991Y-57370768D01*
X157571404Y-57430545D01*
X157551439Y-57498615D01*
X157529328Y-57574183D01*
X157505305Y-57656455D01*
X157479603Y-57744634D01*
X157452455Y-57837927D01*
X157424094Y-57935538D01*
X157394754Y-58036672D01*
X157162146Y-58839050D01*
X156998557Y-58839080D01*
X156834969Y-58839110D01*
X156822100Y-58796878D01*
X156820630Y-58791964D01*
X156815156Y-58773368D01*
X156806304Y-58743120D01*
X156794324Y-58702079D01*
X156779466Y-58651105D01*
X156761980Y-58591058D01*
X156742117Y-58522797D01*
X156720127Y-58447183D01*
X156696259Y-58365074D01*
X156670764Y-58277331D01*
X156643892Y-58184814D01*
X156615894Y-58088382D01*
X156587018Y-57988894D01*
X156585803Y-57984705D01*
X156550100Y-57861837D01*
X156517951Y-57751541D01*
X156489230Y-57653402D01*
X156463812Y-57567002D01*
X156441569Y-57491926D01*
X156422375Y-57427756D01*
X156406106Y-57374078D01*
X156392633Y-57330473D01*
X156381832Y-57296526D01*
X156373575Y-57271821D01*
X156367737Y-57255941D01*
X156364192Y-57248469D01*
X156362814Y-57248990D01*
X156362719Y-57252802D01*
X156362972Y-57270046D01*
X156363788Y-57299023D01*
X156365120Y-57338551D01*
X156366922Y-57387445D01*
X156369150Y-57444522D01*
X156371756Y-57508598D01*
X156374697Y-57578489D01*
X156377925Y-57653011D01*
X156381396Y-57730980D01*
X156383705Y-57782679D01*
X156388133Y-57885622D01*
X156391832Y-57978174D01*
X156394856Y-58062455D01*
X156397262Y-58140584D01*
X156399106Y-58214679D01*
X156400442Y-58286861D01*
X156401328Y-58359248D01*
X156401819Y-58433960D01*
X156401970Y-58513116D01*
X156401970Y-58839110D01*
X156162092Y-58839110D01*
X155922215Y-58839110D01*
X155922215Y-57649857D01*
X155922215Y-56460605D01*
X156235195Y-56460605D01*
X156548175Y-56460605D01*
X156770567Y-57315380D01*
G37*
G36*
X155413880Y-58059074D02*
G01*
X155447097Y-58165479D01*
X155478573Y-58266291D01*
X155508098Y-58360844D01*
X155535467Y-58448476D01*
X155560470Y-58528520D01*
X155582902Y-58600314D01*
X155602553Y-58663193D01*
X155619218Y-58716492D01*
X155632687Y-58759548D01*
X155642755Y-58791695D01*
X155649212Y-58812270D01*
X155651853Y-58820609D01*
X155658041Y-58839272D01*
X155403541Y-58837501D01*
X155149041Y-58835731D01*
X155096834Y-58636396D01*
X155093220Y-58622599D01*
X155079661Y-58570876D01*
X155066807Y-58521899D01*
X155055202Y-58477734D01*
X155045388Y-58440446D01*
X155037908Y-58412101D01*
X155033305Y-58394766D01*
X155021983Y-58352470D01*
X154693422Y-58354223D01*
X154364861Y-58355976D01*
X154319611Y-58528282D01*
X154310396Y-58563368D01*
X154297016Y-58614312D01*
X154284178Y-58663181D01*
X154272607Y-58707227D01*
X154263023Y-58743699D01*
X154256149Y-58769849D01*
X154237938Y-58839110D01*
X153981322Y-58839110D01*
X153971696Y-58839108D01*
X153905274Y-58838998D01*
X153851193Y-58838687D01*
X153808416Y-58838140D01*
X153775904Y-58837323D01*
X153752621Y-58836201D01*
X153737530Y-58834741D01*
X153729593Y-58832906D01*
X153727773Y-58830663D01*
X153729017Y-58826801D01*
X153734091Y-58810786D01*
X153742868Y-58782980D01*
X153755146Y-58744027D01*
X153770722Y-58694571D01*
X153789394Y-58635255D01*
X153810960Y-58566724D01*
X153835215Y-58489621D01*
X153861960Y-58404591D01*
X153890989Y-58312276D01*
X153922102Y-58213321D01*
X153955096Y-58108370D01*
X153989768Y-57998066D01*
X154006736Y-57944078D01*
X154476192Y-57944078D01*
X154476345Y-57945035D01*
X154479108Y-57947593D01*
X154486334Y-57949622D01*
X154499314Y-57951179D01*
X154519342Y-57952323D01*
X154547712Y-57953112D01*
X154585715Y-57953604D01*
X154634646Y-57953856D01*
X154695798Y-57953928D01*
X154729278Y-57953861D01*
X154779538Y-57953496D01*
X154824219Y-57952847D01*
X154861732Y-57951957D01*
X154890492Y-57950866D01*
X154908912Y-57949614D01*
X154915405Y-57948244D01*
X154915064Y-57946436D01*
X154911972Y-57933600D01*
X154905950Y-57909700D01*
X154897346Y-57876078D01*
X154886515Y-57834077D01*
X154873807Y-57785036D01*
X154859573Y-57730297D01*
X154844166Y-57671201D01*
X154827937Y-57609091D01*
X154811239Y-57545306D01*
X154794421Y-57481188D01*
X154777837Y-57418079D01*
X154761837Y-57357320D01*
X154746774Y-57300252D01*
X154733000Y-57248216D01*
X154720865Y-57202554D01*
X154710721Y-57164607D01*
X154702920Y-57135716D01*
X154697815Y-57117223D01*
X154695755Y-57110468D01*
X154693882Y-57111435D01*
X154689914Y-57120604D01*
X154687603Y-57128666D01*
X154681806Y-57149904D01*
X154673423Y-57181242D01*
X154662806Y-57221319D01*
X154650311Y-57268770D01*
X154636290Y-57322233D01*
X154621097Y-57380344D01*
X154605087Y-57441741D01*
X154588614Y-57505060D01*
X154572030Y-57568938D01*
X154555689Y-57632011D01*
X154539946Y-57692918D01*
X154525155Y-57750294D01*
X154511668Y-57802777D01*
X154499840Y-57849003D01*
X154490025Y-57887609D01*
X154482576Y-57917233D01*
X154477847Y-57936510D01*
X154476192Y-57944078D01*
X154006736Y-57944078D01*
X154025915Y-57883053D01*
X154063335Y-57763975D01*
X154101827Y-57641476D01*
X154472813Y-56460735D01*
X154693566Y-56460670D01*
X154914318Y-56460605D01*
X154924708Y-56492701D01*
X154925441Y-56495002D01*
X154930038Y-56509607D01*
X154938367Y-56536177D01*
X154950217Y-56574037D01*
X154965378Y-56622511D01*
X154983639Y-56680926D01*
X155004789Y-56748607D01*
X155028618Y-56824879D01*
X155054914Y-56909067D01*
X155083467Y-57000497D01*
X155114067Y-57098494D01*
X155146501Y-57202384D01*
X155180561Y-57311491D01*
X155216035Y-57425141D01*
X155252712Y-57542659D01*
X155290381Y-57663372D01*
X155305849Y-57712939D01*
X155343048Y-57832139D01*
X155379127Y-57947739D01*
X155379285Y-57948244D01*
X155413880Y-58059074D01*
G37*
G36*
X153496410Y-57649857D02*
G01*
X153496410Y-58839110D01*
X153256532Y-58839110D01*
X153016655Y-58839110D01*
X153016655Y-58403120D01*
X153016655Y-57967130D01*
X152897798Y-57968975D01*
X152778942Y-57970820D01*
X152600903Y-58403276D01*
X152422864Y-58835731D01*
X152161545Y-58837501D01*
X151900225Y-58839270D01*
X151904320Y-58822955D01*
X151904547Y-58822215D01*
X151908791Y-58811250D01*
X151917874Y-58789045D01*
X151931380Y-58756590D01*
X151948892Y-58714870D01*
X151969991Y-58664873D01*
X151994262Y-58607585D01*
X152021286Y-58543994D01*
X152050647Y-58475085D01*
X152081927Y-58401847D01*
X152114709Y-58325266D01*
X152122251Y-58307664D01*
X152154514Y-58232276D01*
X152185052Y-58160774D01*
X152213466Y-58094105D01*
X152239353Y-58033218D01*
X152262312Y-57979060D01*
X152281943Y-57932579D01*
X152297843Y-57894723D01*
X152309611Y-57866440D01*
X152316847Y-57848678D01*
X152319149Y-57842384D01*
X152316118Y-57840376D01*
X152304260Y-57832903D01*
X152286886Y-57822128D01*
X152224654Y-57778180D01*
X152159186Y-57716888D01*
X152103132Y-57646086D01*
X152056950Y-57566283D01*
X152039774Y-57528103D01*
X152010592Y-57443519D01*
X151990244Y-57353719D01*
X151978653Y-57260698D01*
X151977543Y-57224754D01*
X152459470Y-57224754D01*
X152460549Y-57269769D01*
X152463525Y-57309150D01*
X152468449Y-57339030D01*
X152472663Y-57354816D01*
X152495895Y-57416594D01*
X152527165Y-57468513D01*
X152565982Y-57510019D01*
X152611853Y-57540559D01*
X152664288Y-57559579D01*
X152672796Y-57561252D01*
X152701020Y-57564494D01*
X152741218Y-57566795D01*
X152793894Y-57568178D01*
X152859552Y-57568666D01*
X153016655Y-57568772D01*
X153016655Y-57213533D01*
X153016655Y-56858294D01*
X152835902Y-56860474D01*
X152788445Y-56861066D01*
X152744492Y-56861754D01*
X152710641Y-56862604D01*
X152685063Y-56863783D01*
X152665925Y-56865457D01*
X152651399Y-56867794D01*
X152639652Y-56870963D01*
X152628854Y-56875128D01*
X152617174Y-56880459D01*
X152606510Y-56885738D01*
X152560439Y-56916641D01*
X152523046Y-56956983D01*
X152493799Y-57007455D01*
X152472167Y-57068745D01*
X152467074Y-57094550D01*
X152462785Y-57133279D01*
X152460233Y-57177969D01*
X152459470Y-57224754D01*
X151977543Y-57224754D01*
X151975742Y-57166448D01*
X151981433Y-57072963D01*
X151995650Y-56982234D01*
X152018315Y-56896256D01*
X152049352Y-56817021D01*
X152088682Y-56746523D01*
X152092353Y-56741077D01*
X152138310Y-56683206D01*
X152193613Y-56628743D01*
X152254521Y-56581012D01*
X152317293Y-56543338D01*
X152333025Y-56535867D01*
X152379360Y-56517375D01*
X152432775Y-56499915D01*
X152488714Y-56484893D01*
X152542624Y-56473718D01*
X152553665Y-56471890D01*
X152569929Y-56469496D01*
X152587036Y-56467465D01*
X152606136Y-56465765D01*
X152628384Y-56464370D01*
X152654929Y-56463248D01*
X152686925Y-56462371D01*
X152725524Y-56461709D01*
X152771876Y-56461233D01*
X152827135Y-56460914D01*
X152892452Y-56460723D01*
X152968980Y-56460629D01*
X153057869Y-56460605D01*
X153496410Y-56460605D01*
X153496410Y-57213533D01*
X153496410Y-57649857D01*
G37*
G36*
X151834160Y-56659940D02*
G01*
X151834160Y-56859275D01*
X151543604Y-56859275D01*
X151253048Y-56859275D01*
X151253048Y-57849192D01*
X151253048Y-58839110D01*
X151013170Y-58839110D01*
X150773292Y-58839110D01*
X150773292Y-57849192D01*
X150773292Y-56859275D01*
X150479358Y-56859275D01*
X150185423Y-56859275D01*
X150185423Y-56659940D01*
X150185423Y-56460605D01*
X151009791Y-56460605D01*
X151834160Y-56460605D01*
X151834160Y-56659940D01*
G37*
G36*
X148712372Y-56940360D02*
G01*
X148712372Y-57420115D01*
X149067120Y-57420115D01*
X149421869Y-57420115D01*
X149421869Y-56940360D01*
X149421869Y-56460605D01*
X149665125Y-56460605D01*
X149908381Y-56460605D01*
X149908381Y-57649857D01*
X149908381Y-58839110D01*
X149665125Y-58839110D01*
X149421869Y-58839110D01*
X149421869Y-58328887D01*
X149421869Y-57818665D01*
X149068810Y-57820414D01*
X148715750Y-57822164D01*
X148714018Y-58330637D01*
X148712286Y-58839110D01*
X148472451Y-58839110D01*
X148232617Y-58839110D01*
X148232617Y-57649857D01*
X148232617Y-56460605D01*
X148472494Y-56460605D01*
X148712372Y-56460605D01*
X148712372Y-56940360D01*
G37*
G36*
X145827083Y-57649791D02*
G01*
X145827083Y-58839110D01*
X145587206Y-58839110D01*
X145347328Y-58839110D01*
X145347328Y-58479186D01*
X145347441Y-58396503D01*
X145347827Y-58318482D01*
X145348544Y-58245085D01*
X145349648Y-58174048D01*
X145351196Y-58103106D01*
X145353244Y-58029994D01*
X145355850Y-57952448D01*
X145359070Y-57868205D01*
X145362961Y-57774998D01*
X145367580Y-57670565D01*
X145369209Y-57634308D01*
X145372520Y-57559526D01*
X145375564Y-57489319D01*
X145378296Y-57424802D01*
X145380672Y-57367091D01*
X145382647Y-57317302D01*
X145384175Y-57276550D01*
X145385213Y-57245951D01*
X145385716Y-57226621D01*
X145385639Y-57219675D01*
X145383554Y-57225645D01*
X145377929Y-57243824D01*
X145368997Y-57273440D01*
X145356983Y-57313721D01*
X145342116Y-57363890D01*
X145324624Y-57423174D01*
X145304735Y-57490797D01*
X145282676Y-57565986D01*
X145258676Y-57647965D01*
X145232961Y-57735960D01*
X145205761Y-57829197D01*
X145177302Y-57926900D01*
X145147812Y-58028296D01*
X144912178Y-58839110D01*
X144748484Y-58839110D01*
X144584790Y-58839110D01*
X144574337Y-58803635D01*
X144572765Y-58798267D01*
X144567330Y-58779629D01*
X144558523Y-58749385D01*
X144546589Y-58708379D01*
X144531774Y-58657457D01*
X144514323Y-58597463D01*
X144494483Y-58529242D01*
X144472499Y-58453640D01*
X144448616Y-58371500D01*
X144423081Y-58283668D01*
X144396140Y-58190990D01*
X144368037Y-58094309D01*
X144339019Y-57994470D01*
X144318374Y-57923537D01*
X144290348Y-57827573D01*
X144263521Y-57736090D01*
X144238124Y-57649861D01*
X144214390Y-57569659D01*
X144192550Y-57496257D01*
X144172836Y-57430427D01*
X144155479Y-57372944D01*
X144140712Y-57324580D01*
X144128765Y-57286107D01*
X144119872Y-57258300D01*
X144114262Y-57241931D01*
X144112170Y-57237773D01*
X144112074Y-57241014D01*
X144112339Y-57256970D01*
X144113162Y-57284680D01*
X144114498Y-57322992D01*
X144116302Y-57370749D01*
X144118528Y-57426797D01*
X144121132Y-57489982D01*
X144124067Y-57559148D01*
X144127289Y-57633142D01*
X144130752Y-57710808D01*
X144134090Y-57785877D01*
X144138301Y-57884946D01*
X144141807Y-57974152D01*
X144144665Y-58055646D01*
X144146931Y-58131575D01*
X144148659Y-58204090D01*
X144149906Y-58275339D01*
X144150728Y-58347471D01*
X144151180Y-58422635D01*
X144151318Y-58502981D01*
X144151318Y-58839110D01*
X143911441Y-58839110D01*
X143671563Y-58839110D01*
X143671563Y-57649857D01*
X143671563Y-56460605D01*
X143984880Y-56460605D01*
X144298196Y-56460605D01*
X144318250Y-56536622D01*
X144320161Y-56543898D01*
X144326190Y-56566968D01*
X144335249Y-56601718D01*
X144347102Y-56647237D01*
X144361512Y-56702614D01*
X144378241Y-56766941D01*
X144397054Y-56839306D01*
X144417714Y-56918799D01*
X144439985Y-57004509D01*
X144463628Y-57095527D01*
X144488409Y-57190942D01*
X144514090Y-57289843D01*
X144540434Y-57391321D01*
X144558053Y-57459141D01*
X144583396Y-57556492D01*
X144607691Y-57649591D01*
X144630727Y-57737636D01*
X144652291Y-57819822D01*
X144672172Y-57895347D01*
X144690156Y-57963409D01*
X144706032Y-58023204D01*
X144719587Y-58073930D01*
X144730609Y-58114783D01*
X144738885Y-58144961D01*
X144744204Y-58163660D01*
X144746353Y-58170079D01*
X144746604Y-58169604D01*
X144749628Y-58159793D01*
X144755796Y-58137876D01*
X144764903Y-58104621D01*
X144776747Y-58060794D01*
X144791124Y-58007161D01*
X144807830Y-57944489D01*
X144826662Y-57873544D01*
X144847416Y-57795093D01*
X144869889Y-57709902D01*
X144893876Y-57618738D01*
X144919175Y-57522367D01*
X144945583Y-57421555D01*
X144972894Y-57317069D01*
X145195649Y-56463983D01*
X145511366Y-56462227D01*
X145827083Y-56460471D01*
X145827083Y-57649791D01*
G37*
G36*
X143286407Y-57649857D02*
G01*
X143286407Y-58839110D01*
X142600560Y-58839110D01*
X141914713Y-58839110D01*
X141914713Y-58639775D01*
X141914713Y-58440440D01*
X142357304Y-58440440D01*
X142799895Y-58440440D01*
X142799895Y-58126291D01*
X142799895Y-57812143D01*
X142426564Y-57810396D01*
X142053234Y-57808650D01*
X142053234Y-57616072D01*
X142053234Y-57423494D01*
X142426564Y-57421747D01*
X142799895Y-57420001D01*
X142799895Y-57139638D01*
X142799895Y-56859275D01*
X142357304Y-56859275D01*
X141914713Y-56859275D01*
X141914713Y-56659940D01*
X141914713Y-56460605D01*
X142600560Y-56460605D01*
X143286407Y-56460605D01*
X143286407Y-57649857D01*
G37*
G36*
X166430039Y-55534776D02*
G01*
X166352257Y-55638230D01*
X166265189Y-55733501D01*
X166169509Y-55820008D01*
X166065891Y-55897173D01*
X165955011Y-55964414D01*
X165837542Y-56021152D01*
X165714160Y-56066808D01*
X165585538Y-56100801D01*
X165452352Y-56122551D01*
X165434366Y-56124178D01*
X165392496Y-56126107D01*
X165342659Y-56126691D01*
X165288411Y-56126029D01*
X165233305Y-56124217D01*
X165180895Y-56121352D01*
X165134735Y-56117533D01*
X165098379Y-56112855D01*
X165024267Y-56098522D01*
X164892265Y-56062828D01*
X164766559Y-56015178D01*
X164647194Y-55955597D01*
X164534215Y-55884107D01*
X164427665Y-55800732D01*
X164327591Y-55705495D01*
X164255772Y-55624413D01*
X164176997Y-55517676D01*
X164109688Y-55404052D01*
X164053705Y-55283265D01*
X164008908Y-55155043D01*
X163975155Y-55019111D01*
X163970859Y-54996814D01*
X163966786Y-54971544D01*
X163963853Y-54946007D01*
X163961888Y-54917556D01*
X163960718Y-54883540D01*
X163960168Y-54841310D01*
X163960067Y-54788219D01*
X163960204Y-54756402D01*
X163961346Y-54696684D01*
X163964061Y-54645667D01*
X163967188Y-54615912D01*
X164278784Y-54615912D01*
X164283444Y-54695308D01*
X164284715Y-54715207D01*
X164294691Y-54814125D01*
X164310792Y-54904708D01*
X164333941Y-54990496D01*
X164365061Y-55075029D01*
X164405076Y-55161849D01*
X164433066Y-55213893D01*
X164497742Y-55313344D01*
X164572729Y-55405074D01*
X164657036Y-55488331D01*
X164749674Y-55562367D01*
X164849652Y-55626432D01*
X164955979Y-55679776D01*
X165067666Y-55721650D01*
X165183722Y-55751303D01*
X165213871Y-55756433D01*
X165257837Y-55762190D01*
X165304153Y-55766792D01*
X165346703Y-55769555D01*
X165436235Y-55773296D01*
X165436235Y-55641568D01*
X165436235Y-55509840D01*
X165356838Y-55505960D01*
X165353851Y-55505810D01*
X165246182Y-55493800D01*
X165143631Y-55469295D01*
X165046404Y-55432387D01*
X164954705Y-55383168D01*
X164868737Y-55321731D01*
X164788705Y-55248169D01*
X164725889Y-55176438D01*
X164666616Y-55090981D01*
X164619358Y-55000096D01*
X164583843Y-54903151D01*
X164559798Y-54799514D01*
X164546949Y-54688551D01*
X164542305Y-54615912D01*
X164410545Y-54615912D01*
X164278784Y-54615912D01*
X163967188Y-54615912D01*
X163968851Y-54600091D01*
X163976218Y-54556693D01*
X163986666Y-54512212D01*
X164000697Y-54463386D01*
X164018814Y-54406953D01*
X164027320Y-54382106D01*
X164064452Y-54288404D01*
X164109601Y-54195420D01*
X164163470Y-54102081D01*
X164226764Y-54007314D01*
X164300187Y-53910043D01*
X164384443Y-53809197D01*
X164480238Y-53703701D01*
X164514905Y-53666085D01*
X164583820Y-53585258D01*
X164641490Y-53507767D01*
X164688687Y-53432143D01*
X164726184Y-53356920D01*
X164754755Y-53280631D01*
X164775170Y-53201809D01*
X164788203Y-53118988D01*
X164796161Y-53048261D01*
X165311134Y-53048261D01*
X165826106Y-53048261D01*
X165830323Y-53114143D01*
X165830514Y-53117018D01*
X165843128Y-53206395D01*
X165868508Y-53297273D01*
X165906191Y-53388518D01*
X165955709Y-53478996D01*
X166016597Y-53567574D01*
X166020445Y-53572524D01*
X166039786Y-53595878D01*
X166065922Y-53625860D01*
X166096744Y-53660115D01*
X166130144Y-53696292D01*
X166164012Y-53732037D01*
X166174570Y-53743046D01*
X166230388Y-53802356D01*
X166278373Y-53855632D01*
X166320531Y-53905306D01*
X166358865Y-53953808D01*
X166395383Y-54003570D01*
X166432088Y-54057022D01*
X166493311Y-54156874D01*
X166553696Y-54277148D01*
X166601480Y-54399982D01*
X166603119Y-54404918D01*
X166625831Y-54479807D01*
X166642307Y-54549710D01*
X166653272Y-54619147D01*
X166659451Y-54692638D01*
X166661569Y-54774704D01*
X166660814Y-54839880D01*
X166656814Y-54911151D01*
X166648851Y-54978260D01*
X166636306Y-55046177D01*
X166618558Y-55119868D01*
X166600922Y-55181115D01*
X166555046Y-55305639D01*
X166497860Y-55423719D01*
X166445267Y-55509840D01*
X166430039Y-55534776D01*
G37*
G36*
X165237874Y-52589581D02*
G01*
X165328121Y-52590007D01*
X165682869Y-52592156D01*
X165715732Y-52608333D01*
X165749204Y-52631257D01*
X165772979Y-52660962D01*
X165787043Y-52695130D01*
X165791671Y-52731580D01*
X165787133Y-52768134D01*
X165773703Y-52802613D01*
X165751653Y-52832838D01*
X165721256Y-52856629D01*
X165682783Y-52871809D01*
X165682340Y-52871906D01*
X165669035Y-52873217D01*
X165643421Y-52874369D01*
X165606626Y-52875348D01*
X165559774Y-52876138D01*
X165503993Y-52876724D01*
X165440409Y-52877091D01*
X165370148Y-52877223D01*
X165294335Y-52877104D01*
X165255548Y-52876979D01*
X165182404Y-52876717D01*
X165121087Y-52876420D01*
X165070448Y-52876044D01*
X165029340Y-52875542D01*
X164996614Y-52874867D01*
X164971122Y-52873972D01*
X164951716Y-52872813D01*
X164937249Y-52871341D01*
X164926572Y-52869511D01*
X164918537Y-52867277D01*
X164911996Y-52864592D01*
X164905801Y-52861409D01*
X164880539Y-52845151D01*
X164851316Y-52814781D01*
X164833878Y-52777843D01*
X164828094Y-52734122D01*
X164829920Y-52709982D01*
X164842310Y-52669604D01*
X164865260Y-52635957D01*
X164897428Y-52610741D01*
X164937472Y-52595655D01*
X164947336Y-52594171D01*
X164968812Y-52592512D01*
X165000286Y-52591223D01*
X165042344Y-52590293D01*
X165095571Y-52589715D01*
X165160553Y-52589480D01*
X165237874Y-52589581D01*
G37*
G36*
X165564098Y-52177593D02*
G01*
X165607027Y-52178371D01*
X165641789Y-52179728D01*
X165669471Y-52181775D01*
X165691159Y-52184623D01*
X165707942Y-52188382D01*
X165720907Y-52193163D01*
X165731140Y-52199075D01*
X165739730Y-52206230D01*
X165747763Y-52214737D01*
X165756327Y-52224707D01*
X165757665Y-52226290D01*
X165780966Y-52263613D01*
X165791810Y-52303425D01*
X165790265Y-52343646D01*
X165776395Y-52382198D01*
X165750266Y-52417001D01*
X165736409Y-52429464D01*
X165715764Y-52444302D01*
X165698574Y-52452703D01*
X165697152Y-52453010D01*
X165682943Y-52454318D01*
X165656611Y-52455535D01*
X165619289Y-52456640D01*
X165572110Y-52457614D01*
X165516207Y-52458436D01*
X165452714Y-52459085D01*
X165382762Y-52459541D01*
X165307487Y-52459783D01*
X164938861Y-52460392D01*
X164903295Y-52442669D01*
X164878038Y-52427525D01*
X164851902Y-52401434D01*
X164836106Y-52368234D01*
X164829431Y-52325996D01*
X164829365Y-52305538D01*
X164837298Y-52264130D01*
X164856810Y-52229325D01*
X164888313Y-52200243D01*
X164917088Y-52179972D01*
X165296600Y-52178038D01*
X165375431Y-52177638D01*
X165449387Y-52177337D01*
X165511913Y-52177286D01*
X165564098Y-52177593D01*
G37*
G36*
X165367265Y-51753528D02*
G01*
X165427219Y-51771728D01*
X165481629Y-51801010D01*
X165527333Y-51840442D01*
X165564008Y-51889672D01*
X165591328Y-51948346D01*
X165608969Y-52016112D01*
X165613424Y-52041451D01*
X165311035Y-52041451D01*
X165008646Y-52041451D01*
X165012523Y-52003879D01*
X165013890Y-51993702D01*
X165026910Y-51947457D01*
X165049772Y-51900493D01*
X165080231Y-51856196D01*
X165116042Y-51817948D01*
X165154962Y-51789134D01*
X165184783Y-51773949D01*
X165244383Y-51754429D01*
X165305923Y-51747503D01*
X165367265Y-51753528D01*
G37*
G36*
X175630398Y-102035046D02*
G01*
X175732552Y-102162355D01*
X175835066Y-102428051D01*
X175927903Y-102794391D01*
X176001026Y-103223630D01*
X176044398Y-103678027D01*
X176044442Y-103678819D01*
X176060803Y-104143673D01*
X176044075Y-104501189D01*
X175985835Y-104828360D01*
X175877661Y-105202176D01*
X175655047Y-105766160D01*
X175205740Y-106527395D01*
X174634684Y-107170488D01*
X174550638Y-107243956D01*
X174071892Y-107582314D01*
X173505057Y-107886168D01*
X172921283Y-108121181D01*
X172391718Y-108253013D01*
X172293979Y-108265900D01*
X171411947Y-108288042D01*
X170533260Y-108151668D01*
X170418482Y-108118059D01*
X170052769Y-107978273D01*
X169637265Y-107788214D01*
X169247530Y-107583898D01*
X168959121Y-107401340D01*
X168880099Y-107329558D01*
X168893172Y-107274423D01*
X169034329Y-107224227D01*
X169331282Y-107161082D01*
X169733351Y-107059377D01*
X170511225Y-106752872D01*
X171310810Y-106308937D01*
X172096743Y-105748461D01*
X172833659Y-105092332D01*
X173000082Y-104928424D01*
X173237679Y-104701278D01*
X173400969Y-104554339D01*
X173461681Y-104513655D01*
X173449856Y-104569149D01*
X173367001Y-104769175D01*
X173230199Y-105040216D01*
X173069442Y-105324635D01*
X172914721Y-105564795D01*
X172772621Y-105750080D01*
X172523357Y-106047962D01*
X172258050Y-106343320D01*
X171833476Y-106796203D01*
X172440975Y-106751102D01*
X172779039Y-106706118D01*
X173443919Y-106484866D01*
X174034227Y-106096367D01*
X174543719Y-105545355D01*
X174966150Y-104836563D01*
X175094342Y-104557342D01*
X175185664Y-104303930D01*
X175235690Y-104048280D01*
X175255940Y-103729153D01*
X175257931Y-103285308D01*
X175260526Y-102889062D01*
X175280909Y-102544286D01*
X175324235Y-102323287D01*
X175394757Y-102192084D01*
X175497536Y-102091566D01*
X175605926Y-102029264D01*
X175630398Y-102035046D01*
G37*
G36*
X165727438Y-102889887D02*
G01*
X165758598Y-103067532D01*
X166110559Y-105239154D01*
X166144870Y-105462905D01*
X166214698Y-105901540D01*
X166278664Y-106285857D01*
X166362829Y-106774319D01*
X164748519Y-106774319D01*
X164720866Y-106774316D01*
X164135103Y-106772067D01*
X163710172Y-106764206D01*
X163421846Y-106748640D01*
X163245895Y-106723273D01*
X163158092Y-106686010D01*
X163134209Y-106634758D01*
X163139012Y-106604615D01*
X163199942Y-106549922D01*
X163355212Y-106516487D01*
X163635348Y-106499762D01*
X164070882Y-106495198D01*
X164483625Y-106492599D01*
X164758393Y-106480740D01*
X164908496Y-106453898D01*
X164965166Y-106406351D01*
X164959635Y-106332377D01*
X164952079Y-106303190D01*
X164911085Y-106097543D01*
X164856397Y-105778577D01*
X164797707Y-105401975D01*
X164683698Y-104634392D01*
X163908954Y-104634392D01*
X163777289Y-104633826D01*
X163448797Y-104626734D01*
X163220050Y-104613230D01*
X163134209Y-104595481D01*
X163126996Y-104557717D01*
X163077734Y-104409401D01*
X163068880Y-104379618D01*
X163089467Y-104318834D01*
X163200667Y-104283198D01*
X163434268Y-104266425D01*
X163822057Y-104262231D01*
X163976582Y-104261793D01*
X164307294Y-104257442D01*
X164536824Y-104249424D01*
X164622726Y-104238971D01*
X164620150Y-104220052D01*
X164594109Y-104062880D01*
X164546012Y-103783353D01*
X164483293Y-103424868D01*
X164456759Y-103273823D01*
X164399034Y-102941909D01*
X164358923Y-102706424D01*
X164343860Y-102610766D01*
X164313723Y-102604756D01*
X164137791Y-102595881D01*
X163839693Y-102589777D01*
X163459850Y-102587506D01*
X163231441Y-102586180D01*
X162894229Y-102578437D01*
X162662268Y-102565316D01*
X162575967Y-102548595D01*
X162568754Y-102510831D01*
X162519493Y-102362514D01*
X162514114Y-102345378D01*
X162525035Y-102295830D01*
X162600668Y-102260573D01*
X162765282Y-102237252D01*
X163043148Y-102223511D01*
X163458537Y-102216993D01*
X164035719Y-102215344D01*
X165608420Y-102215344D01*
X165727438Y-102889887D01*
G37*
G36*
X161111377Y-102215456D02*
G01*
X161428746Y-102227206D01*
X161653367Y-102254514D01*
X161738604Y-102291990D01*
X161741745Y-102327421D01*
X161767830Y-102516967D01*
X161814612Y-102822873D01*
X161875168Y-103199132D01*
X161936117Y-103572782D01*
X162022327Y-104106745D01*
X162115251Y-104686650D01*
X162203100Y-105239154D01*
X162214580Y-105311600D01*
X162288241Y-105771334D01*
X162353137Y-106168087D01*
X162402606Y-106461572D01*
X162429988Y-106611498D01*
X162434003Y-106651662D01*
X162407108Y-106699766D01*
X162318183Y-106733406D01*
X162142419Y-106755130D01*
X161855009Y-106767491D01*
X161431142Y-106773037D01*
X160846011Y-106774319D01*
X160811066Y-106774314D01*
X160226094Y-106772026D01*
X159801731Y-106764129D01*
X159513785Y-106748539D01*
X159338063Y-106723170D01*
X159250371Y-106685938D01*
X159226517Y-106634758D01*
X159231319Y-106604615D01*
X159292250Y-106549922D01*
X159447519Y-106516487D01*
X159727656Y-106499762D01*
X160163189Y-106495198D01*
X160577399Y-106492586D01*
X160851395Y-106480721D01*
X161000758Y-106453880D01*
X161056664Y-106406339D01*
X161050290Y-106332377D01*
X161042278Y-106301067D01*
X161001871Y-106097171D01*
X160941781Y-105757803D01*
X160867859Y-105319489D01*
X160785958Y-104818758D01*
X160701927Y-104292136D01*
X160621620Y-103776150D01*
X160550888Y-103307328D01*
X160495582Y-102922198D01*
X160461553Y-102657286D01*
X160412365Y-102215344D01*
X161075485Y-102215344D01*
X161111377Y-102215456D01*
G37*
G36*
X156669426Y-102217656D02*
G01*
X157131582Y-102227785D01*
X157499657Y-102244570D01*
X157742988Y-102266482D01*
X157830912Y-102291990D01*
X157834053Y-102327421D01*
X157860137Y-102516967D01*
X157906920Y-102822873D01*
X157967475Y-103199132D01*
X158028425Y-103572782D01*
X158114635Y-104106745D01*
X158207559Y-104686650D01*
X158295408Y-105239154D01*
X158306887Y-105311600D01*
X158380549Y-105771334D01*
X158445444Y-106168087D01*
X158494913Y-106461572D01*
X158522295Y-106611498D01*
X158526311Y-106651662D01*
X158499416Y-106699766D01*
X158410491Y-106733406D01*
X158234727Y-106755130D01*
X157947316Y-106767491D01*
X157523450Y-106773037D01*
X156938319Y-106774319D01*
X156903373Y-106774314D01*
X156318401Y-106772026D01*
X155894039Y-106764129D01*
X155606093Y-106748539D01*
X155430371Y-106723170D01*
X155342679Y-106685938D01*
X155318824Y-106634758D01*
X155323627Y-106604615D01*
X155384558Y-106549922D01*
X155539827Y-106516487D01*
X155819964Y-106499762D01*
X156255497Y-106495198D01*
X156668178Y-106492599D01*
X156942979Y-106480741D01*
X157093113Y-106453899D01*
X157149815Y-106406352D01*
X157144320Y-106332377D01*
X157136867Y-106303382D01*
X157096835Y-106097809D01*
X157044014Y-105778752D01*
X156987786Y-105401975D01*
X156879102Y-104634392D01*
X156098963Y-104634392D01*
X155962577Y-104633793D01*
X155633612Y-104626660D01*
X155404690Y-104613175D01*
X155318824Y-104595481D01*
X155311612Y-104557717D01*
X155262350Y-104409401D01*
X155253147Y-104377522D01*
X155275852Y-104317821D01*
X155389590Y-104282822D01*
X155626009Y-104266350D01*
X156016758Y-104262231D01*
X156020153Y-104262231D01*
X156407112Y-104260097D01*
X156642293Y-104247464D01*
X156759749Y-104214965D01*
X156793537Y-104153230D01*
X156777712Y-104052890D01*
X156759745Y-103967718D01*
X156712928Y-103696455D01*
X156666764Y-103378348D01*
X156627625Y-103077285D01*
X156577602Y-102824454D01*
X156490963Y-102677752D01*
X156330394Y-102608487D01*
X156058576Y-102587969D01*
X155638195Y-102587506D01*
X155252535Y-102585119D01*
X154985354Y-102572666D01*
X154837391Y-102542795D01*
X154774012Y-102488163D01*
X154760582Y-102401425D01*
X154764675Y-102348273D01*
X154796414Y-102294336D01*
X154882365Y-102257375D01*
X155048900Y-102234191D01*
X155322393Y-102221590D01*
X155729218Y-102216373D01*
X156295747Y-102215344D01*
X156669426Y-102217656D01*
G37*
G36*
X152098798Y-102294532D02*
G01*
X152762673Y-102449771D01*
X153317450Y-102749733D01*
X153754875Y-103185065D01*
X154066695Y-103746412D01*
X154244657Y-104424422D01*
X154280506Y-105209740D01*
X154276448Y-105295056D01*
X154250122Y-105644226D01*
X154202040Y-105876419D01*
X154114377Y-106049605D01*
X153969307Y-106221750D01*
X153917482Y-106274276D01*
X153658357Y-106491312D01*
X153411498Y-106642447D01*
X153343001Y-106667982D01*
X153017621Y-106731263D01*
X152594315Y-106760397D01*
X152138527Y-106755373D01*
X151715697Y-106716180D01*
X151391270Y-106642806D01*
X151331914Y-106620355D01*
X150883825Y-106369936D01*
X150505924Y-106023548D01*
X150256091Y-105632692D01*
X150223370Y-105553773D01*
X150141395Y-105343322D01*
X150108568Y-105237271D01*
X150108782Y-105236113D01*
X150201649Y-105214164D01*
X150430816Y-105198568D01*
X150748805Y-105192634D01*
X151389041Y-105192634D01*
X151488909Y-105589244D01*
X151538891Y-105752766D01*
X151741101Y-106127624D01*
X152015830Y-106376818D01*
X152334621Y-106480356D01*
X152669018Y-106418248D01*
X152717469Y-106392013D01*
X152869023Y-106219813D01*
X152957809Y-105924998D01*
X152987408Y-105488887D01*
X152961402Y-104892798D01*
X152928169Y-104560447D01*
X152806423Y-103892148D01*
X152625902Y-103344970D01*
X152394464Y-102934646D01*
X152119967Y-102676913D01*
X151810267Y-102587506D01*
X151654557Y-102597456D01*
X151392843Y-102699724D01*
X151233148Y-102931554D01*
X151154537Y-103316209D01*
X151108336Y-103797029D01*
X150515412Y-103797029D01*
X149922487Y-103797029D01*
X149922487Y-103467621D01*
X149925189Y-103400443D01*
X150040323Y-103014029D01*
X150299384Y-102672446D01*
X150666810Y-102425485D01*
X150839091Y-102368237D01*
X151226021Y-102301351D01*
X151690253Y-102274227D01*
X152098798Y-102294532D01*
G37*
G36*
X149230524Y-104355271D02*
G01*
X149236885Y-104392198D01*
X149316948Y-104872042D01*
X149397079Y-105374784D01*
X149460824Y-105797396D01*
X149460864Y-105797675D01*
X149514973Y-106147934D01*
X149566822Y-106440298D01*
X149605189Y-106611498D01*
X149610880Y-106631641D01*
X149605491Y-106707333D01*
X149518899Y-106750445D01*
X149316176Y-106769825D01*
X148962398Y-106774319D01*
X148268890Y-106774319D01*
X148206533Y-106332377D01*
X148173392Y-106106722D01*
X148110463Y-105700827D01*
X148045222Y-105299542D01*
X147946268Y-104708647D01*
X147655073Y-104765813D01*
X147443735Y-104829324D01*
X147295434Y-104945537D01*
X147196943Y-105147350D01*
X147132010Y-105468257D01*
X147084379Y-105941750D01*
X147018483Y-106774319D01*
X146320604Y-106774319D01*
X145974194Y-106769297D01*
X145764254Y-106748763D01*
X145676158Y-106705497D01*
X145677229Y-106632284D01*
X145683346Y-106613097D01*
X145718421Y-106424928D01*
X145757564Y-106118852D01*
X145793392Y-105750905D01*
X145820905Y-105479849D01*
X145893440Y-105113458D01*
X146015145Y-104875571D01*
X146209365Y-104729395D01*
X146499446Y-104638138D01*
X146805637Y-104570786D01*
X146392576Y-104454693D01*
X146322619Y-104432273D01*
X145972112Y-104259855D01*
X145671514Y-104030598D01*
X145654692Y-104013685D01*
X145467972Y-103792753D01*
X145383389Y-103574003D01*
X145363513Y-103264310D01*
X145377475Y-103093759D01*
X146703326Y-103093759D01*
X146711680Y-103465850D01*
X146827669Y-103846553D01*
X147039873Y-104170941D01*
X147286866Y-104371697D01*
X147587288Y-104448311D01*
X147713185Y-104444330D01*
X147811815Y-104411791D01*
X147859224Y-104319804D01*
X147859744Y-104137488D01*
X147817710Y-103833962D01*
X147737456Y-103378348D01*
X147717534Y-103268032D01*
X147658526Y-102940499D01*
X147616577Y-102706478D01*
X147599726Y-102610766D01*
X147596859Y-102607897D01*
X147488548Y-102593406D01*
X147272984Y-102587506D01*
X147251499Y-102587668D01*
X146981634Y-102641002D01*
X146801150Y-102813897D01*
X146703326Y-103093759D01*
X145377475Y-103093759D01*
X145385759Y-102992570D01*
X145483954Y-102724629D01*
X145677024Y-102522618D01*
X145982822Y-102378724D01*
X146419197Y-102285135D01*
X147004001Y-102234037D01*
X147755084Y-102217619D01*
X148890612Y-102215344D01*
X148936322Y-102517725D01*
X148940612Y-102546109D01*
X148988050Y-102860637D01*
X149037953Y-103192268D01*
X149045344Y-103240661D01*
X149093680Y-103542225D01*
X149159408Y-103937924D01*
X149193414Y-104137488D01*
X149230524Y-104355271D01*
G37*
G36*
X142307504Y-102266250D02*
G01*
X142756445Y-102396835D01*
X143194911Y-102579196D01*
X143540492Y-102784046D01*
X143680954Y-102897870D01*
X144052201Y-103307678D01*
X144312864Y-103811186D01*
X144485872Y-104448776D01*
X144531676Y-104757790D01*
X144527358Y-105380382D01*
X144377300Y-105899393D01*
X144084378Y-106307414D01*
X143651472Y-106597037D01*
X143465137Y-106671772D01*
X143128927Y-106756521D01*
X142861569Y-106760197D01*
X142710273Y-106678703D01*
X142704608Y-106646347D01*
X142773652Y-106500932D01*
X142937383Y-106315733D01*
X143010878Y-106245366D01*
X143128545Y-106104995D01*
X143192283Y-105945361D01*
X143218494Y-105710881D01*
X143223586Y-105345965D01*
X143209138Y-104890809D01*
X143081693Y-104006655D01*
X142823720Y-103249720D01*
X142747380Y-103101457D01*
X142539297Y-102845443D01*
X142230622Y-102663865D01*
X142188678Y-102644426D01*
X141969105Y-102506818D01*
X141840579Y-102366879D01*
X141825004Y-102258806D01*
X141944282Y-102216798D01*
X142307504Y-102266250D01*
G37*
G36*
X141435298Y-102270919D02*
G01*
X141455821Y-102383161D01*
X141416096Y-102510589D01*
X141225905Y-102625038D01*
X141059951Y-102704929D01*
X140881129Y-102890985D01*
X140831607Y-103039834D01*
X140790766Y-103370125D01*
X140782263Y-103796100D01*
X140804813Y-104266857D01*
X140857130Y-104731492D01*
X140937928Y-105139102D01*
X140942714Y-105157290D01*
X141139386Y-105721531D01*
X141394725Y-106123372D01*
X141724857Y-106381159D01*
X142145913Y-106513239D01*
X142248921Y-106547420D01*
X142363007Y-106658018D01*
X142358206Y-106706558D01*
X142232725Y-106758255D01*
X141942659Y-106774319D01*
X141864892Y-106773282D01*
X141201420Y-106670363D01*
X140622991Y-106403904D01*
X140140748Y-105980896D01*
X139765831Y-105408330D01*
X139638011Y-105131759D01*
X139535962Y-104828626D01*
X139487027Y-104507430D01*
X139472679Y-104084509D01*
X139477564Y-103705477D01*
X139507721Y-103425696D01*
X139575813Y-103214668D01*
X139694291Y-103012149D01*
X140026940Y-102673680D01*
X140496056Y-102415773D01*
X141060399Y-102261637D01*
X141124163Y-102251806D01*
X141341073Y-102232152D01*
X141435298Y-102270919D01*
G37*
G36*
X135303191Y-102216590D02*
G01*
X135369638Y-102234366D01*
X135439439Y-102287156D01*
X135524421Y-102393519D01*
X135636415Y-102572015D01*
X135787249Y-102841204D01*
X135988754Y-103219647D01*
X136252757Y-103725903D01*
X136591090Y-104378531D01*
X136710527Y-104604318D01*
X136879959Y-104907438D01*
X137008162Y-105115404D01*
X137074027Y-105192634D01*
X137094665Y-105164967D01*
X137150931Y-104994733D01*
X137223161Y-104703741D01*
X137300807Y-104332011D01*
X137326364Y-104199944D01*
X137419352Y-103726606D01*
X137510846Y-103269990D01*
X137584254Y-102913147D01*
X137701861Y-102354905D01*
X138402113Y-102327978D01*
X139102366Y-102301052D01*
X138935724Y-103072301D01*
X138908795Y-103197446D01*
X138817680Y-103624822D01*
X138705045Y-104157082D01*
X138582670Y-104738467D01*
X138462335Y-105313213D01*
X138155586Y-106782877D01*
X137797127Y-106755338D01*
X137702459Y-106746979D01*
X137581912Y-106721074D01*
X137476182Y-106657259D01*
X137364747Y-106530304D01*
X137227087Y-106314977D01*
X137042678Y-105986044D01*
X136790999Y-105518275D01*
X136694933Y-105338168D01*
X136471250Y-104913081D01*
X136284453Y-104550132D01*
X136151801Y-104283143D01*
X136090555Y-104145931D01*
X136060786Y-104069954D01*
X135974973Y-103988753D01*
X135891899Y-104079389D01*
X135825588Y-104332011D01*
X135792878Y-104514628D01*
X135721010Y-104869665D01*
X135639048Y-105239154D01*
X135585676Y-105470060D01*
X135486985Y-105905201D01*
X135402678Y-106285857D01*
X135337985Y-106558591D01*
X135267610Y-106708717D01*
X135153266Y-106765488D01*
X134953157Y-106774319D01*
X134773821Y-106764811D01*
X134631179Y-106707067D01*
X134508520Y-106560810D01*
X134356784Y-106285857D01*
X134246399Y-106075719D01*
X134025581Y-105665630D01*
X133815484Y-105285674D01*
X133734812Y-105142426D01*
X133540889Y-104797068D01*
X133339246Y-104436193D01*
X133102474Y-104010675D01*
X132803160Y-103471388D01*
X132642653Y-103182300D01*
X132460010Y-102854018D01*
X132324263Y-102610766D01*
X132154970Y-102308385D01*
X132462900Y-102308385D01*
X132492932Y-102308487D01*
X132599189Y-102316922D01*
X132691528Y-102355334D01*
X132785925Y-102446573D01*
X132898358Y-102613487D01*
X133044803Y-102878923D01*
X133241236Y-103265730D01*
X133503634Y-103796757D01*
X133722758Y-104233105D01*
X133937900Y-104642872D01*
X134114836Y-104959913D01*
X134239543Y-105159180D01*
X134297998Y-105215622D01*
X134311040Y-105187485D01*
X134361608Y-105006776D01*
X134434658Y-104692036D01*
X134522501Y-104277407D01*
X134617450Y-103797029D01*
X134657612Y-103588271D01*
X134748759Y-103124522D01*
X134827619Y-102736741D01*
X134886853Y-102460568D01*
X134919125Y-102331645D01*
X135012493Y-102254000D01*
X135212372Y-102215344D01*
X135228268Y-102215267D01*
X135303191Y-102216590D01*
G37*
G36*
X176201031Y-100442617D02*
G01*
X176127369Y-100556644D01*
X175972151Y-100773220D01*
X175254043Y-101720829D01*
X174316865Y-102836898D01*
X173384009Y-103814580D01*
X172464666Y-104645719D01*
X171568028Y-105322163D01*
X170703285Y-105835756D01*
X169879630Y-106178344D01*
X169757972Y-106212363D01*
X169330252Y-106281752D01*
X168875954Y-106297785D01*
X168463447Y-106260757D01*
X168161099Y-106170961D01*
X167860193Y-105942539D01*
X167586637Y-105528815D01*
X167397096Y-104954334D01*
X167290061Y-104215711D01*
X167283687Y-104132633D01*
X167275587Y-103916259D01*
X167298182Y-103857343D01*
X167356561Y-103934355D01*
X167524728Y-104183259D01*
X167947786Y-104575014D01*
X168465796Y-104824852D01*
X169042267Y-104911619D01*
X169098919Y-104910803D01*
X169767140Y-104821920D01*
X170519267Y-104595479D01*
X171333386Y-104244381D01*
X172187586Y-103781524D01*
X173059955Y-103219810D01*
X173928581Y-102572136D01*
X174771551Y-101851403D01*
X175566954Y-101070512D01*
X175838038Y-100785272D01*
X176065830Y-100549987D01*
X176183673Y-100438083D01*
X176201031Y-100442617D01*
G37*
G36*
X172203054Y-99516763D02*
G01*
X172643038Y-99601573D01*
X173446050Y-99854687D01*
X174127394Y-100222744D01*
X174711990Y-100717670D01*
X175078415Y-101096080D01*
X174872325Y-101315453D01*
X174666235Y-101534826D01*
X174347549Y-101234267D01*
X174014042Y-100969659D01*
X173396644Y-100649883D01*
X172700640Y-100450521D01*
X171970013Y-100378467D01*
X171248749Y-100440616D01*
X170580832Y-100643861D01*
X170274559Y-100804019D01*
X169872259Y-101107242D01*
X169561541Y-101456716D01*
X169356383Y-101824690D01*
X169270759Y-102183415D01*
X169318645Y-102505139D01*
X169514017Y-102762114D01*
X169815552Y-102925744D01*
X170307447Y-103021019D01*
X170914223Y-102996110D01*
X171621519Y-102851870D01*
X172414978Y-102589157D01*
X172497389Y-102557467D01*
X172798683Y-102445090D01*
X173009894Y-102371907D01*
X173089520Y-102352478D01*
X173080067Y-102362943D01*
X172962211Y-102452265D01*
X172737943Y-102609871D01*
X172443232Y-102810278D01*
X172081052Y-103040847D01*
X171403808Y-103417518D01*
X170732453Y-103728985D01*
X170131402Y-103943670D01*
X169858312Y-104004515D01*
X169387222Y-104050027D01*
X168919958Y-104035989D01*
X168514976Y-103965533D01*
X168230733Y-103841794D01*
X167967842Y-103576922D01*
X167762525Y-103134666D01*
X167695227Y-102573445D01*
X167706620Y-102345363D01*
X167831886Y-101811394D01*
X168107949Y-101304701D01*
X168550488Y-100792636D01*
X169147792Y-100299510D01*
X169873235Y-99888756D01*
X170649878Y-99612431D01*
X171439294Y-99483959D01*
X172203054Y-99516763D01*
G37*
%TD*%
M02*
