M48
; DRILL file {KiCad 9.0.1} date 2025-05-27T10:12:54+0200
; FORMAT={-:-/ absolute / metric / decimal}
; #@! TF.CreationDate,2025-05-27T10:12:54+02:00
; #@! TF.GenerationSoftware,Kicad,Pcbnew,9.0.1
; #@! TF.FileFunction,Plated,1,2,PTH
FMAT,2
METRIC
; #@! TA.AperFunction,Plated,PTH,ViaDrill
T1C0.300
; #@! TA.AperFunction,Plated,PTH,ViaDrill
T2C0.500
; #@! TA.AperFunction,Plated,PTH,ComponentDrill
T3C1.000
; #@! TA.AperFunction,Plated,PTH,ComponentDrill
T4C1.020
; #@! TA.AperFunction,Plated,PTH,ComponentDrill
T5C1.100
; #@! TA.AperFunction,Plated,PTH,ComponentDrill
T6C1.200
; #@! TA.AperFunction,Plated,PTH,ComponentDrill
T7C1.300
%
G90
G05
T1
X134.665Y-105.456
X135.491Y-104.63
X137.459Y-102.661
X139.745Y-100.376
X142.24Y-99.34
X143.51Y-99.34
X145.796Y-68.326
X147.193Y-99.314
X148.844Y-92.456
X148.844Y-97.663
X151.765Y-70.358
X151.765Y-74.295
X151.765Y-76.327
X155.448Y-76.327
X156.718Y-78.994
X160.528Y-80.899
T2
X136.444Y-103.677
X138.602Y-101.518
X140.781Y-99.34
T3
X129.338Y-83.481
X129.338Y-87.981
X129.338Y-94.657
X129.338Y-99.157
X129.592Y-61.256
X129.592Y-65.756
X129.592Y-72.553
X129.592Y-77.053
X135.838Y-83.481
X135.838Y-87.981
X135.838Y-94.657
X135.838Y-99.157
X136.092Y-61.256
X136.092Y-65.756
X136.092Y-72.553
X136.092Y-77.053
X171.069Y-67.31
X171.069Y-69.85
X171.069Y-72.39
X171.069Y-74.93
X180.34Y-61.468
X180.34Y-64.008
X180.34Y-72.39
X180.34Y-74.93
T4
X144.653Y-111.633
X147.193Y-111.633
X149.733Y-111.633
X154.676Y-111.639
X157.216Y-111.639
X159.756Y-111.639
X164.719Y-111.633
X167.259Y-111.633
X169.799Y-111.633
T5
X163.779Y-98.109
X166.319Y-98.109
X168.859Y-98.109
T6
X178.181Y-84.582
X178.181Y-87.122
X178.181Y-89.662
X178.181Y-108.331
X178.181Y-110.871
X178.181Y-113.411
X178.205Y-96.519
X178.205Y-99.059
X178.205Y-101.599
T7
X132.688Y-107.433
X132.688Y-112.433
M30
