%TF.GenerationSoftware,KiCad,Pcbnew,9.0.1*%
%TF.CreationDate,2025-05-27T10:12:55+02:00*%
%TF.ProjectId,Heizungsbooster,4865697a-756e-4677-9362-6f6f73746572,rev?*%
%TF.SameCoordinates,Original*%
%TF.FileFunction,Soldermask,Bot*%
%TF.FilePolarity,Negative*%
%FSLAX46Y46*%
G04 Gerber Fmt 4.6, Leading zero omitted, Abs format (unit mm)*
G04 Created by KiCad (PCBNEW 9.0.1) date 2025-05-27 10:12:55*
%MOMM*%
%LPD*%
G01*
G04 APERTURE LIST*
G04 Aperture macros list*
%AMRoundRect*
0 Rectangle with rounded corners*
0 $1 Rounding radius*
0 $2 $3 $4 $5 $6 $7 $8 $9 X,Y pos of 4 corners*
0 Add a 4 corners polygon primitive as box body*
4,1,4,$2,$3,$4,$5,$6,$7,$8,$9,$2,$3,0*
0 Add four circle primitives for the rounded corners*
1,1,$1+$1,$2,$3*
1,1,$1+$1,$4,$5*
1,1,$1+$1,$6,$7*
1,1,$1+$1,$8,$9*
0 Add four rect primitives between the rounded corners*
20,1,$1+$1,$2,$3,$4,$5,0*
20,1,$1+$1,$4,$5,$6,$7,0*
20,1,$1+$1,$6,$7,$8,$9,0*
20,1,$1+$1,$8,$9,$2,$3,0*%
G04 Aperture macros list end*
%ADD10RoundRect,0.250000X0.750000X-0.750000X0.750000X0.750000X-0.750000X0.750000X-0.750000X-0.750000X0*%
%ADD11C,2.000000*%
%ADD12R,1.700000X1.700000*%
%ADD13C,1.700000*%
%ADD14R,1.730000X2.030000*%
%ADD15O,1.730000X2.030000*%
%ADD16R,2.000000X2.000000*%
%ADD17RoundRect,0.250000X1.000000X-1.000000X1.000000X1.000000X-1.000000X1.000000X-1.000000X-1.000000X0*%
%ADD18C,2.500000*%
%ADD19R,1.905000X2.000000*%
%ADD20O,1.905000X2.000000*%
G04 APERTURE END LIST*
D10*
%TO.C,U4*%
X178181000Y-113411000D03*
D11*
X178181000Y-110871000D03*
X178181000Y-108331000D03*
%TD*%
D12*
%TO.C,Brd1*%
X171069000Y-67310000D03*
D13*
X171069000Y-69850000D03*
X171069000Y-72390000D03*
X171069000Y-74930000D03*
%TD*%
D10*
%TO.C,J2*%
X178181000Y-89662000D03*
D11*
X178181000Y-87122000D03*
X178181000Y-84582000D03*
%TD*%
D14*
%TO.C,M3*%
X164719000Y-111633000D03*
D15*
X167259000Y-111633000D03*
X169799000Y-111633000D03*
%TD*%
D16*
%TO.C,S2*%
X129592000Y-72553000D03*
D11*
X136092000Y-72553000D03*
X129592000Y-77053000D03*
X136092000Y-77053000D03*
%TD*%
D16*
%TO.C,S3*%
X129338000Y-94657000D03*
D11*
X135838000Y-94657000D03*
X129338000Y-99157000D03*
X135838000Y-99157000D03*
%TD*%
D17*
%TO.C,J1*%
X132688000Y-112433000D03*
D18*
X132688000Y-107433000D03*
%TD*%
D10*
%TO.C,U2*%
X178205000Y-101599000D03*
D11*
X178205000Y-99059000D03*
X178205000Y-96519000D03*
%TD*%
D16*
%TO.C,S1*%
X129592000Y-61256000D03*
D11*
X136092000Y-61256000D03*
X129592000Y-65756000D03*
X136092000Y-65756000D03*
%TD*%
D12*
%TO.C,J6*%
X180340000Y-61468000D03*
D13*
X180340000Y-64008000D03*
%TD*%
D16*
%TO.C,S4*%
X129338000Y-83481000D03*
D11*
X135838000Y-83481000D03*
X129338000Y-87981000D03*
X135838000Y-87981000D03*
%TD*%
D14*
%TO.C,M2*%
X154676000Y-111639000D03*
D15*
X157216000Y-111639000D03*
X159756000Y-111639000D03*
%TD*%
D14*
%TO.C,M1*%
X144653000Y-111633000D03*
D15*
X147193000Y-111633000D03*
X149733000Y-111633000D03*
%TD*%
D12*
%TO.C,J4*%
X180340000Y-74930000D03*
D13*
X180340000Y-72390000D03*
%TD*%
D19*
%TO.C,Q1*%
X168859000Y-98109000D03*
D20*
X166319000Y-98109000D03*
X163779000Y-98109000D03*
%TD*%
M02*
