%TF.GenerationSoftware,KiCad,Pcbnew,9.0.1*%
%TF.CreationDate,2025-05-27T10:12:55+02:00*%
%TF.ProjectId,Heizungsbooster,4865697a-756e-4677-9362-6f6f73746572,rev?*%
%TF.SameCoordinates,Original*%
%TF.FileFunction,Copper,L2,Bot*%
%TF.FilePolarity,Positive*%
%FSLAX46Y46*%
G04 Gerber Fmt 4.6, Leading zero omitted, Abs format (unit mm)*
G04 Created by KiCad (PCBNEW 9.0.1) date 2025-05-27 10:12:55*
%MOMM*%
%LPD*%
G01*
G04 APERTURE LIST*
G04 Aperture macros list*
%AMRoundRect*
0 Rectangle with rounded corners*
0 $1 Rounding radius*
0 $2 $3 $4 $5 $6 $7 $8 $9 X,Y pos of 4 corners*
0 Add a 4 corners polygon primitive as box body*
4,1,4,$2,$3,$4,$5,$6,$7,$8,$9,$2,$3,0*
0 Add four circle primitives for the rounded corners*
1,1,$1+$1,$2,$3*
1,1,$1+$1,$4,$5*
1,1,$1+$1,$6,$7*
1,1,$1+$1,$8,$9*
0 Add four rect primitives between the rounded corners*
20,1,$1+$1,$2,$3,$4,$5,0*
20,1,$1+$1,$4,$5,$6,$7,0*
20,1,$1+$1,$6,$7,$8,$9,0*
20,1,$1+$1,$8,$9,$2,$3,0*%
G04 Aperture macros list end*
%TA.AperFunction,ComponentPad*%
%ADD10RoundRect,0.250000X0.750000X-0.750000X0.750000X0.750000X-0.750000X0.750000X-0.750000X-0.750000X0*%
%TD*%
%TA.AperFunction,ComponentPad*%
%ADD11C,2.000000*%
%TD*%
%TA.AperFunction,ComponentPad*%
%ADD12R,1.700000X1.700000*%
%TD*%
%TA.AperFunction,ComponentPad*%
%ADD13C,1.700000*%
%TD*%
%TA.AperFunction,ComponentPad*%
%ADD14R,1.730000X2.030000*%
%TD*%
%TA.AperFunction,ComponentPad*%
%ADD15O,1.730000X2.030000*%
%TD*%
%TA.AperFunction,ComponentPad*%
%ADD16R,2.000000X2.000000*%
%TD*%
%TA.AperFunction,ComponentPad*%
%ADD17RoundRect,0.250000X1.000000X-1.000000X1.000000X1.000000X-1.000000X1.000000X-1.000000X-1.000000X0*%
%TD*%
%TA.AperFunction,ComponentPad*%
%ADD18C,2.500000*%
%TD*%
%TA.AperFunction,ComponentPad*%
%ADD19R,1.905000X2.000000*%
%TD*%
%TA.AperFunction,ComponentPad*%
%ADD20O,1.905000X2.000000*%
%TD*%
%TA.AperFunction,ViaPad*%
%ADD21C,0.600000*%
%TD*%
%TA.AperFunction,ViaPad*%
%ADD22C,1.000000*%
%TD*%
%TA.AperFunction,Conductor*%
%ADD23C,0.200000*%
%TD*%
G04 APERTURE END LIST*
D10*
%TO.P,U4,1,GND*%
%TO.N,GND*%
X178181000Y-113411000D03*
D11*
%TO.P,U4,2,DQ*%
%TO.N,DS18B20*%
X178181000Y-110871000D03*
%TO.P,U4,3,V_{DD}*%
%TO.N,3V3*%
X178181000Y-108331000D03*
%TD*%
D12*
%TO.P,Brd1,1,GND*%
%TO.N,GND*%
X171069000Y-67310000D03*
D13*
%TO.P,Brd1,2,VCC*%
%TO.N,3V3*%
X171069000Y-69850000D03*
%TO.P,Brd1,3,SCL*%
%TO.N,SCL{slash}D1*%
X171069000Y-72390000D03*
%TO.P,Brd1,4,SDA*%
%TO.N,SDA{slash}D2*%
X171069000Y-74930000D03*
%TD*%
D10*
%TO.P,J2,1*%
%TO.N,3V3*%
X178181000Y-89662000D03*
D11*
%TO.P,J2,2*%
%TO.N,GND*%
X178181000Y-87122000D03*
%TO.P,J2,3*%
%TO.N,ADC*%
X178181000Y-84582000D03*
%TD*%
D14*
%TO.P,M3,1,-*%
%TO.N,Net-(M1--)*%
X164719000Y-111633000D03*
D15*
%TO.P,M3,2,+*%
%TO.N,12V*%
X167259000Y-111633000D03*
%TO.P,M3,3,Tacho*%
%TO.N,unconnected-(M3-Tacho-Pad3)*%
X169799000Y-111633000D03*
%TD*%
D16*
%TO.P,S2,1*%
%TO.N,FLASH-BTN*%
X129592000Y-72553000D03*
D11*
%TO.P,S2,2*%
%TO.N,Net-(R6-Pad1)*%
X136092000Y-72553000D03*
%TO.P,S2,3*%
%TO.N,GND*%
X129592000Y-77053000D03*
%TO.P,S2,4*%
X136092000Y-77053000D03*
%TD*%
D16*
%TO.P,S3,1*%
%TO.N,MODE-BTN*%
X129338000Y-94657000D03*
D11*
%TO.P,S3,2*%
%TO.N,Net-(R7-Pad1)*%
X135838000Y-94657000D03*
%TO.P,S3,3*%
%TO.N,GND*%
X129338000Y-99157000D03*
%TO.P,S3,4*%
X135838000Y-99157000D03*
%TD*%
D17*
%TO.P,J1,1*%
%TO.N,12V*%
X132688000Y-112433000D03*
D18*
%TO.P,J1,2*%
%TO.N,GND*%
X132688000Y-107433000D03*
%TD*%
D10*
%TO.P,U2,1,GND*%
%TO.N,GND*%
X178205000Y-101599000D03*
D11*
%TO.P,U2,2,DQ*%
%TO.N,DS18B20*%
X178205000Y-99059000D03*
%TO.P,U2,3,V_{DD}*%
%TO.N,3V3*%
X178205000Y-96519000D03*
%TD*%
D16*
%TO.P,S1,1*%
%TO.N,RST*%
X129592000Y-61256000D03*
D11*
%TO.P,S1,2*%
%TO.N,Net-(R5-Pad1)*%
X136092000Y-61256000D03*
%TO.P,S1,3*%
%TO.N,GND*%
X129592000Y-65756000D03*
%TO.P,S1,4*%
X136092000Y-65756000D03*
%TD*%
D12*
%TO.P,J6,1*%
%TO.N,TX*%
X180340000Y-61468000D03*
D13*
%TO.P,J6,2*%
%TO.N,RX*%
X180340000Y-64008000D03*
%TD*%
D16*
%TO.P,S4,1*%
%TO.N,SET-BTN*%
X129338000Y-83481000D03*
D11*
%TO.P,S4,2*%
%TO.N,Net-(R11-Pad1)*%
X135838000Y-83481000D03*
%TO.P,S4,3*%
%TO.N,GND*%
X129338000Y-87981000D03*
%TO.P,S4,4*%
X135838000Y-87981000D03*
%TD*%
D14*
%TO.P,M2,1,-*%
%TO.N,Net-(M1--)*%
X154676000Y-111639000D03*
D15*
%TO.P,M2,2,+*%
%TO.N,12V*%
X157216000Y-111639000D03*
%TO.P,M2,3,Tacho*%
%TO.N,unconnected-(M2-Tacho-Pad3)*%
X159756000Y-111639000D03*
%TD*%
D14*
%TO.P,M1,1,-*%
%TO.N,Net-(M1--)*%
X144653000Y-111633000D03*
D15*
%TO.P,M1,2,+*%
%TO.N,12V*%
X147193000Y-111633000D03*
%TO.P,M1,3,Tacho*%
%TO.N,unconnected-(M1-Tacho-Pad3)*%
X149733000Y-111633000D03*
%TD*%
D12*
%TO.P,J4,1*%
%TO.N,3V3*%
X180340000Y-74930000D03*
D13*
%TO.P,J4,2*%
%TO.N,GND*%
X180340000Y-72390000D03*
%TD*%
D19*
%TO.P,Q1,1,G*%
%TO.N,FANS*%
X168859000Y-98109000D03*
D20*
%TO.P,Q1,2,D*%
%TO.N,Net-(M1--)*%
X166319000Y-98109000D03*
%TO.P,Q1,3,S*%
%TO.N,GND*%
X163779000Y-98109000D03*
%TD*%
D21*
%TO.N,GND*%
X148844000Y-97663000D03*
D22*
X138602500Y-101518500D03*
X136443500Y-103677500D03*
D21*
X143510000Y-99340000D03*
X139745500Y-100375500D03*
X148844000Y-92456000D03*
X137459500Y-102661500D03*
X147193000Y-99314000D03*
X135491000Y-104630000D03*
D22*
X140781000Y-99340000D03*
D21*
X142240000Y-99340000D03*
X134665500Y-105455500D03*
%TO.N,ADC*%
X151765000Y-70358000D03*
%TO.N,FANS*%
X156718000Y-78994000D03*
%TO.N,DS18B20*%
X160528000Y-80899000D03*
%TO.N,RST*%
X145796000Y-68326000D03*
%TO.N,FLASH-BTN*%
X155448000Y-76327000D03*
%TO.N,MODE-BTN*%
X151765000Y-76327000D03*
%TO.N,SET-BTN*%
X151765000Y-74295000D03*
%TD*%
D23*
%TO.N,ADC*%
X165989000Y-84582000D02*
X178181000Y-84582000D01*
X151765000Y-70358000D02*
X165989000Y-84582000D01*
%TO.N,FANS*%
X156718000Y-92456000D02*
X156718000Y-78994000D01*
X168402000Y-93599000D02*
X157861000Y-93599000D01*
X157861000Y-93599000D02*
X156718000Y-92456000D01*
X168859000Y-98109000D02*
X168859000Y-94056000D01*
X168859000Y-94056000D02*
X168402000Y-93599000D01*
%TO.N,DS18B20*%
X160528000Y-80899000D02*
X165227000Y-85598000D01*
X165227000Y-85598000D02*
X173482000Y-85598000D01*
X175134000Y-99059000D02*
X178205000Y-99059000D01*
X175133000Y-99060000D02*
X175134000Y-99059000D01*
X174244000Y-98171000D02*
X175133000Y-99060000D01*
X174244000Y-86360000D02*
X174244000Y-98171000D01*
X173482000Y-85598000D02*
X174244000Y-86360000D01*
%TO.N,RST*%
X145669000Y-68326000D02*
X145796000Y-68326000D01*
X134747000Y-63500000D02*
X140843000Y-63500000D01*
X132503000Y-61256000D02*
X134747000Y-63500000D01*
X140843000Y-63500000D02*
X145669000Y-68326000D01*
X129592000Y-61256000D02*
X132503000Y-61256000D01*
%TO.N,FLASH-BTN*%
X149479000Y-70358000D02*
X130175000Y-70358000D01*
X129592000Y-70941000D02*
X129592000Y-72553000D01*
X130175000Y-70358000D02*
X129592000Y-70941000D01*
X155448000Y-76327000D02*
X149479000Y-70358000D01*
%TO.N,MODE-BTN*%
X145923000Y-76327000D02*
X138938000Y-83312000D01*
X151765000Y-76327000D02*
X145923000Y-76327000D01*
X138176000Y-92329000D02*
X130175000Y-92329000D01*
X138938000Y-83312000D02*
X138938000Y-91567000D01*
X138938000Y-91567000D02*
X138176000Y-92329000D01*
X130175000Y-92329000D02*
X129338000Y-93166000D01*
X129338000Y-93166000D02*
X129338000Y-94657000D01*
%TO.N,SET-BTN*%
X138938000Y-81280000D02*
X129921000Y-81280000D01*
X129338000Y-81863000D02*
X129338000Y-83481000D01*
X145923000Y-74295000D02*
X138938000Y-81280000D01*
X129921000Y-81280000D02*
X129338000Y-81863000D01*
X151765000Y-74295000D02*
X145923000Y-74295000D01*
%TD*%
%TA.AperFunction,Conductor*%
%TO.N,GND*%
G36*
X139663592Y-50927480D02*
G01*
X139691493Y-50932404D01*
X139699768Y-50938103D01*
X139703453Y-50939185D01*
X139720558Y-50952419D01*
X139748628Y-50978353D01*
X139814921Y-51039601D01*
X139826461Y-51051812D01*
X139988122Y-51247952D01*
X139997906Y-51261613D01*
X140133776Y-51481385D01*
X140137952Y-51488681D01*
X142659130Y-56262275D01*
X148309647Y-66960956D01*
X148324000Y-67018866D01*
X148324000Y-67026000D01*
X148344000Y-67026000D01*
X162828019Y-67026000D01*
X164584000Y-67026000D01*
X164647134Y-66542169D01*
X164666624Y-66392807D01*
X165406152Y-60725359D01*
X165426407Y-60570135D01*
X178989500Y-60570135D01*
X178989500Y-62365870D01*
X178989501Y-62365876D01*
X178995908Y-62425483D01*
X179046202Y-62560328D01*
X179046206Y-62560335D01*
X179132452Y-62675544D01*
X179132455Y-62675547D01*
X179247664Y-62761793D01*
X179247671Y-62761797D01*
X179379082Y-62810810D01*
X179435016Y-62852681D01*
X179459433Y-62918145D01*
X179444582Y-62986418D01*
X179423431Y-63014673D01*
X179309889Y-63128215D01*
X179184951Y-63300179D01*
X179088444Y-63489585D01*
X179022753Y-63691760D01*
X178989500Y-63901713D01*
X178989500Y-64114286D01*
X179019817Y-64305703D01*
X179022754Y-64324243D01*
X179036288Y-64365897D01*
X179088444Y-64526414D01*
X179184951Y-64715820D01*
X179309890Y-64887786D01*
X179460213Y-65038109D01*
X179632179Y-65163048D01*
X179632181Y-65163049D01*
X179632184Y-65163051D01*
X179821588Y-65259557D01*
X180023757Y-65325246D01*
X180233713Y-65358500D01*
X180233714Y-65358500D01*
X180446286Y-65358500D01*
X180446287Y-65358500D01*
X180656243Y-65325246D01*
X180858412Y-65259557D01*
X181047816Y-65163051D01*
X181069789Y-65147086D01*
X181219786Y-65038109D01*
X181219788Y-65038106D01*
X181219792Y-65038104D01*
X181370104Y-64887792D01*
X181370106Y-64887788D01*
X181370109Y-64887786D01*
X181495048Y-64715820D01*
X181495047Y-64715820D01*
X181495051Y-64715816D01*
X181591557Y-64526412D01*
X181657246Y-64324243D01*
X181690500Y-64114287D01*
X181690500Y-63901713D01*
X181657246Y-63691757D01*
X181591557Y-63489588D01*
X181495051Y-63300184D01*
X181495049Y-63300181D01*
X181495048Y-63300179D01*
X181370109Y-63128213D01*
X181256569Y-63014673D01*
X181223084Y-62953350D01*
X181228068Y-62883658D01*
X181269940Y-62827725D01*
X181300915Y-62810810D01*
X181432331Y-62761796D01*
X181547546Y-62675546D01*
X181633796Y-62560331D01*
X181684091Y-62425483D01*
X181690500Y-62365873D01*
X181690499Y-60570128D01*
X181684091Y-60510517D01*
X181668817Y-60469566D01*
X181633797Y-60375671D01*
X181633793Y-60375664D01*
X181547547Y-60260455D01*
X181547544Y-60260452D01*
X181432335Y-60174206D01*
X181432328Y-60174202D01*
X181297482Y-60123908D01*
X181297483Y-60123908D01*
X181237883Y-60117501D01*
X181237881Y-60117500D01*
X181237873Y-60117500D01*
X181237864Y-60117500D01*
X179442129Y-60117500D01*
X179442123Y-60117501D01*
X179382516Y-60123908D01*
X179247671Y-60174202D01*
X179247664Y-60174206D01*
X179132455Y-60260452D01*
X179132452Y-60260455D01*
X179046206Y-60375664D01*
X179046202Y-60375671D01*
X178995908Y-60510517D01*
X178989501Y-60570116D01*
X178989501Y-60570123D01*
X178989500Y-60570135D01*
X165426407Y-60570135D01*
X165927332Y-56731250D01*
X166254900Y-54220905D01*
X178823500Y-54220905D01*
X178823500Y-54491094D01*
X178853749Y-54759558D01*
X178853751Y-54759570D01*
X178913872Y-55022979D01*
X179003106Y-55277996D01*
X179120331Y-55521416D01*
X179120333Y-55521419D01*
X179264077Y-55750187D01*
X179432532Y-55961422D01*
X179623578Y-56152468D01*
X179834813Y-56320923D01*
X180063581Y-56464667D01*
X180307005Y-56581894D01*
X180562020Y-56671127D01*
X180562022Y-56671127D01*
X180562023Y-56671128D01*
X180825429Y-56731249D01*
X181093905Y-56761499D01*
X181093906Y-56761500D01*
X181093910Y-56761500D01*
X181364094Y-56761500D01*
X181364094Y-56761499D01*
X181632571Y-56731249D01*
X181895977Y-56671128D01*
X182150995Y-56581894D01*
X182394419Y-56464667D01*
X182623187Y-56320923D01*
X182834422Y-56152468D01*
X183025468Y-55961422D01*
X183193923Y-55750187D01*
X183337667Y-55521419D01*
X183454894Y-55277995D01*
X183544128Y-55022977D01*
X183604249Y-54759571D01*
X183634500Y-54491090D01*
X183634500Y-54220910D01*
X183604249Y-53952429D01*
X183544128Y-53689023D01*
X183454894Y-53434005D01*
X183337667Y-53190581D01*
X183193923Y-52961813D01*
X183025468Y-52750578D01*
X182834422Y-52559532D01*
X182623187Y-52391077D01*
X182394419Y-52247333D01*
X182394416Y-52247331D01*
X182150996Y-52130106D01*
X181895978Y-52040872D01*
X181895980Y-52040872D01*
X181698422Y-51995781D01*
X181632571Y-51980751D01*
X181632567Y-51980750D01*
X181632558Y-51980749D01*
X181364094Y-51950500D01*
X181364090Y-51950500D01*
X181093910Y-51950500D01*
X181093906Y-51950500D01*
X180825441Y-51980749D01*
X180825429Y-51980751D01*
X180562020Y-52040872D01*
X180307003Y-52130106D01*
X180063583Y-52247331D01*
X179834814Y-52391076D01*
X179623578Y-52559531D01*
X179432531Y-52750578D01*
X179264076Y-52961814D01*
X179120331Y-53190583D01*
X179003106Y-53434003D01*
X178913872Y-53689020D01*
X178853751Y-53952429D01*
X178853749Y-53952441D01*
X178823500Y-54220905D01*
X166254900Y-54220905D01*
X166257447Y-54201387D01*
X166523216Y-52164638D01*
X166524684Y-52155858D01*
X166579723Y-51886844D01*
X166584539Y-51869703D01*
X166676116Y-51615606D01*
X166683352Y-51599313D01*
X166810458Y-51361023D01*
X166819965Y-51345927D01*
X166979980Y-51128349D01*
X166991552Y-51114782D01*
X167147629Y-50956449D01*
X167208711Y-50922526D01*
X167235937Y-50919500D01*
X182973108Y-50919500D01*
X183034572Y-50919500D01*
X183043418Y-50919816D01*
X183243561Y-50934130D01*
X183261063Y-50936647D01*
X183452797Y-50978355D01*
X183469755Y-50983334D01*
X183620610Y-51039601D01*
X183653609Y-51051909D01*
X183669701Y-51059259D01*
X183841904Y-51153288D01*
X183856784Y-51162849D01*
X183970467Y-51247952D01*
X184013867Y-51280441D01*
X184027237Y-51292027D01*
X184165972Y-51430762D01*
X184177558Y-51444132D01*
X184295146Y-51601210D01*
X184304711Y-51616095D01*
X184398740Y-51788298D01*
X184406090Y-51804390D01*
X184474662Y-51988236D01*
X184479646Y-52005212D01*
X184521351Y-52196931D01*
X184523869Y-52214442D01*
X184538184Y-52414580D01*
X184538500Y-52423427D01*
X184538500Y-123471572D01*
X184538184Y-123480418D01*
X184538184Y-123480419D01*
X184523869Y-123680557D01*
X184521351Y-123698068D01*
X184479646Y-123889787D01*
X184474662Y-123906763D01*
X184406090Y-124090609D01*
X184398740Y-124106701D01*
X184304711Y-124278904D01*
X184295146Y-124293789D01*
X184177558Y-124450867D01*
X184165972Y-124464237D01*
X184027237Y-124602972D01*
X184013867Y-124614558D01*
X183856789Y-124732146D01*
X183841904Y-124741711D01*
X183669701Y-124835740D01*
X183653609Y-124843090D01*
X183469763Y-124911662D01*
X183452787Y-124916646D01*
X183261068Y-124958351D01*
X183243557Y-124960869D01*
X183062779Y-124973799D01*
X183043417Y-124975184D01*
X183034572Y-124975500D01*
X126718428Y-124975500D01*
X126709582Y-124975184D01*
X126687622Y-124973613D01*
X126509442Y-124960869D01*
X126491931Y-124958351D01*
X126300212Y-124916646D01*
X126283236Y-124911662D01*
X126099390Y-124843090D01*
X126083298Y-124835740D01*
X125911095Y-124741711D01*
X125896210Y-124732146D01*
X125739132Y-124614558D01*
X125725762Y-124602972D01*
X125587027Y-124464237D01*
X125575441Y-124450867D01*
X125457849Y-124293784D01*
X125448288Y-124278904D01*
X125354259Y-124106701D01*
X125346909Y-124090609D01*
X125328499Y-124041250D01*
X125278334Y-123906755D01*
X125273355Y-123889797D01*
X125231647Y-123698063D01*
X125229130Y-123680556D01*
X125214816Y-123480418D01*
X125214500Y-123471572D01*
X125214500Y-121530905D01*
X126245500Y-121530905D01*
X126245500Y-121801094D01*
X126275749Y-122069558D01*
X126275751Y-122069570D01*
X126335872Y-122332979D01*
X126425106Y-122587996D01*
X126542331Y-122831416D01*
X126542333Y-122831419D01*
X126686077Y-123060187D01*
X126854532Y-123271422D01*
X127045578Y-123462468D01*
X127256813Y-123630923D01*
X127485581Y-123774667D01*
X127729005Y-123891894D01*
X127984020Y-123981127D01*
X127984022Y-123981127D01*
X127984023Y-123981128D01*
X128247429Y-124041249D01*
X128515905Y-124071499D01*
X128515906Y-124071500D01*
X128515910Y-124071500D01*
X128786094Y-124071500D01*
X128786094Y-124071499D01*
X129054571Y-124041249D01*
X129317977Y-123981128D01*
X129572995Y-123891894D01*
X129816419Y-123774667D01*
X130045187Y-123630923D01*
X130256422Y-123462468D01*
X130447468Y-123271422D01*
X130615923Y-123060187D01*
X130759667Y-122831419D01*
X130876894Y-122587995D01*
X130966128Y-122332977D01*
X131026249Y-122069571D01*
X131056500Y-121801090D01*
X131056500Y-121530910D01*
X131056499Y-121530905D01*
X178823500Y-121530905D01*
X178823500Y-121801094D01*
X178853749Y-122069558D01*
X178853751Y-122069570D01*
X178913872Y-122332979D01*
X179003106Y-122587996D01*
X179120331Y-122831416D01*
X179120333Y-122831419D01*
X179264077Y-123060187D01*
X179432532Y-123271422D01*
X179623578Y-123462468D01*
X179834813Y-123630923D01*
X180063581Y-123774667D01*
X180307005Y-123891894D01*
X180562020Y-123981127D01*
X180562022Y-123981127D01*
X180562023Y-123981128D01*
X180825429Y-124041249D01*
X181093905Y-124071499D01*
X181093906Y-124071500D01*
X181093910Y-124071500D01*
X181364094Y-124071500D01*
X181364094Y-124071499D01*
X181632571Y-124041249D01*
X181895977Y-123981128D01*
X182150995Y-123891894D01*
X182394419Y-123774667D01*
X182623187Y-123630923D01*
X182834422Y-123462468D01*
X183025468Y-123271422D01*
X183193923Y-123060187D01*
X183337667Y-122831419D01*
X183454894Y-122587995D01*
X183544128Y-122332977D01*
X183604249Y-122069571D01*
X183634500Y-121801090D01*
X183634500Y-121530910D01*
X183604249Y-121262429D01*
X183544128Y-120999023D01*
X183454894Y-120744005D01*
X183337667Y-120500581D01*
X183193923Y-120271813D01*
X183025468Y-120060578D01*
X182834422Y-119869532D01*
X182623187Y-119701077D01*
X182394419Y-119557333D01*
X182394416Y-119557331D01*
X182150996Y-119440106D01*
X181895978Y-119350872D01*
X181895980Y-119350872D01*
X181698422Y-119305781D01*
X181632571Y-119290751D01*
X181632567Y-119290750D01*
X181632558Y-119290749D01*
X181364094Y-119260500D01*
X181364090Y-119260500D01*
X181093910Y-119260500D01*
X181093906Y-119260500D01*
X180825441Y-119290749D01*
X180825429Y-119290751D01*
X180562020Y-119350872D01*
X180307003Y-119440106D01*
X180063583Y-119557331D01*
X179834814Y-119701076D01*
X179623578Y-119869531D01*
X179432531Y-120060578D01*
X179264076Y-120271814D01*
X179120331Y-120500583D01*
X179003106Y-120744003D01*
X178913872Y-120999020D01*
X178853751Y-121262429D01*
X178853749Y-121262441D01*
X178823500Y-121530905D01*
X131056499Y-121530905D01*
X131026249Y-121262429D01*
X130966128Y-120999023D01*
X130876894Y-120744005D01*
X130759667Y-120500581D01*
X130615923Y-120271813D01*
X130447468Y-120060578D01*
X130256422Y-119869532D01*
X130045187Y-119701077D01*
X129816419Y-119557333D01*
X129816416Y-119557331D01*
X129572996Y-119440106D01*
X129317978Y-119350872D01*
X129317980Y-119350872D01*
X129120422Y-119305781D01*
X129054571Y-119290751D01*
X129054567Y-119290750D01*
X129054558Y-119290749D01*
X128786094Y-119260500D01*
X128786090Y-119260500D01*
X128515910Y-119260500D01*
X128515906Y-119260500D01*
X128247441Y-119290749D01*
X128247429Y-119290751D01*
X127984020Y-119350872D01*
X127729003Y-119440106D01*
X127485583Y-119557331D01*
X127256814Y-119701076D01*
X127045578Y-119869531D01*
X126854531Y-120060578D01*
X126686076Y-120271814D01*
X126542331Y-120500583D01*
X126425106Y-120744003D01*
X126335872Y-120999020D01*
X126275751Y-121262429D01*
X126275749Y-121262441D01*
X126245500Y-121530905D01*
X125214500Y-121530905D01*
X125214500Y-111382983D01*
X130937500Y-111382983D01*
X130937500Y-113483001D01*
X130937501Y-113483018D01*
X130948000Y-113585796D01*
X130948001Y-113585799D01*
X131003185Y-113752331D01*
X131003186Y-113752334D01*
X131095288Y-113901656D01*
X131219344Y-114025712D01*
X131368666Y-114117814D01*
X131535203Y-114172999D01*
X131637991Y-114183500D01*
X133738008Y-114183499D01*
X133840797Y-114172999D01*
X134007334Y-114117814D01*
X134156656Y-114025712D01*
X134280712Y-113901656D01*
X134372814Y-113752334D01*
X134427999Y-113585797D01*
X134438500Y-113483009D01*
X134438499Y-111382992D01*
X134427999Y-111280203D01*
X134372814Y-111113666D01*
X134280712Y-110964344D01*
X134156656Y-110840288D01*
X134007334Y-110748186D01*
X133840797Y-110693001D01*
X133840795Y-110693000D01*
X133813027Y-110690164D01*
X133738010Y-110682500D01*
X131637998Y-110682500D01*
X131637981Y-110682501D01*
X131535203Y-110693000D01*
X131535200Y-110693001D01*
X131368668Y-110748185D01*
X131368663Y-110748187D01*
X131219342Y-110840289D01*
X131095289Y-110964342D01*
X131003187Y-111113663D01*
X131003185Y-111113668D01*
X130984769Y-111169245D01*
X130948001Y-111280203D01*
X130948001Y-111280204D01*
X130948000Y-111280204D01*
X130937500Y-111382983D01*
X125214500Y-111382983D01*
X125214500Y-110570135D01*
X143287500Y-110570135D01*
X143287500Y-112695870D01*
X143287501Y-112695876D01*
X143293908Y-112755483D01*
X143344202Y-112890328D01*
X143344206Y-112890335D01*
X143430452Y-113005544D01*
X143430455Y-113005547D01*
X143545664Y-113091793D01*
X143545671Y-113091797D01*
X143680517Y-113142091D01*
X143680516Y-113142091D01*
X143687444Y-113142835D01*
X143740127Y-113148500D01*
X145565872Y-113148499D01*
X145625483Y-113142091D01*
X145760331Y-113091796D01*
X145875546Y-113005546D01*
X145961796Y-112890331D01*
X146005048Y-112774365D01*
X146046917Y-112718433D01*
X146112381Y-112694015D01*
X146180654Y-112708866D01*
X146208910Y-112730018D01*
X146303437Y-112824545D01*
X146477322Y-112950880D01*
X146571251Y-112998739D01*
X146668829Y-113048458D01*
X146668832Y-113048459D01*
X146820678Y-113097796D01*
X146873245Y-113114876D01*
X147085533Y-113148500D01*
X147085534Y-113148500D01*
X147300466Y-113148500D01*
X147300467Y-113148500D01*
X147512755Y-113114876D01*
X147512758Y-113114875D01*
X147512759Y-113114875D01*
X147717167Y-113048459D01*
X147717170Y-113048458D01*
X147728683Y-113042592D01*
X147908678Y-112950880D01*
X148082563Y-112824545D01*
X148234545Y-112672563D01*
X148360880Y-112498678D01*
X148360879Y-112498678D01*
X148362682Y-112496198D01*
X148418012Y-112453532D01*
X148487625Y-112447553D01*
X148549420Y-112480159D01*
X148563318Y-112496198D01*
X148565120Y-112498678D01*
X148691455Y-112672563D01*
X148843437Y-112824545D01*
X149017322Y-112950880D01*
X149111251Y-112998739D01*
X149208829Y-113048458D01*
X149208832Y-113048459D01*
X149360678Y-113097796D01*
X149413245Y-113114876D01*
X149625533Y-113148500D01*
X149625534Y-113148500D01*
X149840466Y-113148500D01*
X149840467Y-113148500D01*
X150052755Y-113114876D01*
X150052758Y-113114875D01*
X150052759Y-113114875D01*
X150257167Y-113048459D01*
X150257170Y-113048458D01*
X150268683Y-113042592D01*
X150448678Y-112950880D01*
X150622563Y-112824545D01*
X150774545Y-112672563D01*
X150900880Y-112498678D01*
X150998458Y-112307170D01*
X151062926Y-112108756D01*
X151064875Y-112102759D01*
X151064875Y-112102758D01*
X151064876Y-112102755D01*
X151098500Y-111890467D01*
X151098500Y-111375533D01*
X151064876Y-111163245D01*
X151064875Y-111163241D01*
X151064875Y-111163240D01*
X150998459Y-110958832D01*
X150998458Y-110958829D01*
X150929986Y-110824446D01*
X150900880Y-110767322D01*
X150774545Y-110593437D01*
X150757243Y-110576135D01*
X153310500Y-110576135D01*
X153310500Y-112701870D01*
X153310501Y-112701876D01*
X153316908Y-112761483D01*
X153367202Y-112896328D01*
X153367206Y-112896335D01*
X153453452Y-113011544D01*
X153453455Y-113011547D01*
X153568664Y-113097793D01*
X153568671Y-113097797D01*
X153703517Y-113148091D01*
X153703516Y-113148091D01*
X153707321Y-113148500D01*
X153763127Y-113154500D01*
X155588872Y-113154499D01*
X155648483Y-113148091D01*
X155783331Y-113097796D01*
X155898546Y-113011546D01*
X155984796Y-112896331D01*
X156028048Y-112780365D01*
X156069917Y-112724433D01*
X156135381Y-112700015D01*
X156203654Y-112714866D01*
X156231910Y-112736018D01*
X156326437Y-112830545D01*
X156500322Y-112956880D01*
X156594251Y-113004739D01*
X156691829Y-113054458D01*
X156691832Y-113054459D01*
X156877776Y-113114875D01*
X156896245Y-113120876D01*
X157108533Y-113154500D01*
X157108534Y-113154500D01*
X157323466Y-113154500D01*
X157323467Y-113154500D01*
X157535755Y-113120876D01*
X157535758Y-113120875D01*
X157535759Y-113120875D01*
X157740167Y-113054459D01*
X157740170Y-113054458D01*
X157763458Y-113042592D01*
X157931678Y-112956880D01*
X158105563Y-112830545D01*
X158257545Y-112678563D01*
X158383880Y-112504678D01*
X158383879Y-112504678D01*
X158385682Y-112502198D01*
X158441012Y-112459532D01*
X158510625Y-112453553D01*
X158572420Y-112486159D01*
X158586318Y-112502198D01*
X158588120Y-112504678D01*
X158714455Y-112678563D01*
X158866437Y-112830545D01*
X159040322Y-112956880D01*
X159134251Y-113004739D01*
X159231829Y-113054458D01*
X159231832Y-113054459D01*
X159417776Y-113114875D01*
X159436245Y-113120876D01*
X159648533Y-113154500D01*
X159648534Y-113154500D01*
X159863466Y-113154500D01*
X159863467Y-113154500D01*
X160075755Y-113120876D01*
X160075758Y-113120875D01*
X160075759Y-113120875D01*
X160280167Y-113054459D01*
X160280170Y-113054458D01*
X160303458Y-113042592D01*
X160471678Y-112956880D01*
X160645563Y-112830545D01*
X160797545Y-112678563D01*
X160923880Y-112504678D01*
X161021458Y-112313170D01*
X161023408Y-112307170D01*
X161087875Y-112108759D01*
X161087875Y-112108758D01*
X161087876Y-112108755D01*
X161121500Y-111896467D01*
X161121500Y-111381533D01*
X161087876Y-111169245D01*
X161087875Y-111169241D01*
X161087875Y-111169240D01*
X161021459Y-110964832D01*
X161021458Y-110964829D01*
X160933315Y-110791840D01*
X160923880Y-110773322D01*
X160797545Y-110599437D01*
X160768243Y-110570135D01*
X163353500Y-110570135D01*
X163353500Y-112695870D01*
X163353501Y-112695876D01*
X163359908Y-112755483D01*
X163410202Y-112890328D01*
X163410206Y-112890335D01*
X163496452Y-113005544D01*
X163496455Y-113005547D01*
X163611664Y-113091793D01*
X163611671Y-113091797D01*
X163746517Y-113142091D01*
X163746516Y-113142091D01*
X163753444Y-113142835D01*
X163806127Y-113148500D01*
X165631872Y-113148499D01*
X165691483Y-113142091D01*
X165826331Y-113091796D01*
X165941546Y-113005546D01*
X166027796Y-112890331D01*
X166071048Y-112774365D01*
X166112917Y-112718433D01*
X166178381Y-112694015D01*
X166246654Y-112708866D01*
X166274910Y-112730018D01*
X166369437Y-112824545D01*
X166543322Y-112950880D01*
X166637251Y-112998739D01*
X166734829Y-113048458D01*
X166734832Y-113048459D01*
X166886678Y-113097796D01*
X166939245Y-113114876D01*
X167151533Y-113148500D01*
X167151534Y-113148500D01*
X167366466Y-113148500D01*
X167366467Y-113148500D01*
X167578755Y-113114876D01*
X167578758Y-113114875D01*
X167578759Y-113114875D01*
X167783167Y-113048459D01*
X167783170Y-113048458D01*
X167794683Y-113042592D01*
X167974678Y-112950880D01*
X168148563Y-112824545D01*
X168300545Y-112672563D01*
X168426880Y-112498678D01*
X168426879Y-112498678D01*
X168428682Y-112496198D01*
X168484012Y-112453532D01*
X168553625Y-112447553D01*
X168615420Y-112480159D01*
X168629318Y-112496198D01*
X168631120Y-112498678D01*
X168757455Y-112672563D01*
X168909437Y-112824545D01*
X169083322Y-112950880D01*
X169177251Y-112998739D01*
X169274829Y-113048458D01*
X169274832Y-113048459D01*
X169426678Y-113097796D01*
X169479245Y-113114876D01*
X169691533Y-113148500D01*
X169691534Y-113148500D01*
X169906466Y-113148500D01*
X169906467Y-113148500D01*
X170118755Y-113114876D01*
X170118758Y-113114875D01*
X170118759Y-113114875D01*
X170323167Y-113048459D01*
X170323170Y-113048458D01*
X170334683Y-113042592D01*
X170514678Y-112950880D01*
X170688563Y-112824545D01*
X170840545Y-112672563D01*
X170966880Y-112498678D01*
X171064458Y-112307170D01*
X171128926Y-112108756D01*
X171130875Y-112102759D01*
X171130875Y-112102758D01*
X171130876Y-112102755D01*
X171164500Y-111890467D01*
X171164500Y-111375533D01*
X171130876Y-111163245D01*
X171130875Y-111163241D01*
X171130875Y-111163240D01*
X171064459Y-110958832D01*
X171064458Y-110958829D01*
X170995986Y-110824446D01*
X170966880Y-110767322D01*
X170840545Y-110593437D01*
X170688563Y-110441455D01*
X170514678Y-110315120D01*
X170475196Y-110295003D01*
X170323170Y-110217541D01*
X170323167Y-110217540D01*
X170118757Y-110151124D01*
X169977229Y-110128708D01*
X169906467Y-110117500D01*
X169691533Y-110117500D01*
X169620770Y-110128708D01*
X169479243Y-110151124D01*
X169479240Y-110151124D01*
X169274832Y-110217540D01*
X169274829Y-110217541D01*
X169083321Y-110315120D01*
X168991720Y-110381673D01*
X168909437Y-110441455D01*
X168909435Y-110441457D01*
X168909434Y-110441457D01*
X168757457Y-110593434D01*
X168757457Y-110593435D01*
X168757455Y-110593437D01*
X168660023Y-110727539D01*
X168629318Y-110769802D01*
X168573988Y-110812467D01*
X168504374Y-110818446D01*
X168442579Y-110785840D01*
X168428682Y-110769802D01*
X168412976Y-110748185D01*
X168300545Y-110593437D01*
X168148563Y-110441455D01*
X167974678Y-110315120D01*
X167935196Y-110295003D01*
X167783170Y-110217541D01*
X167783167Y-110217540D01*
X167578757Y-110151124D01*
X167437229Y-110128708D01*
X167366467Y-110117500D01*
X167151533Y-110117500D01*
X167080770Y-110128708D01*
X166939243Y-110151124D01*
X166939240Y-110151124D01*
X166734832Y-110217540D01*
X166734829Y-110217541D01*
X166543321Y-110315120D01*
X166369438Y-110441454D01*
X166274910Y-110535982D01*
X166213586Y-110569466D01*
X166143895Y-110564482D01*
X166087962Y-110522610D01*
X166071047Y-110491632D01*
X166027798Y-110375673D01*
X166027793Y-110375664D01*
X165941547Y-110260455D01*
X165941544Y-110260452D01*
X165826335Y-110174206D01*
X165826328Y-110174202D01*
X165691482Y-110123908D01*
X165691483Y-110123908D01*
X165631883Y-110117501D01*
X165631881Y-110117500D01*
X165631873Y-110117500D01*
X165631864Y-110117500D01*
X163806129Y-110117500D01*
X163806123Y-110117501D01*
X163746516Y-110123908D01*
X163611671Y-110174202D01*
X163611664Y-110174206D01*
X163496455Y-110260452D01*
X163496452Y-110260455D01*
X163410206Y-110375664D01*
X163410202Y-110375671D01*
X163359908Y-110510517D01*
X163353501Y-110570116D01*
X163353500Y-110570135D01*
X160768243Y-110570135D01*
X160645563Y-110447455D01*
X160471678Y-110321120D01*
X160459902Y-110315120D01*
X160280170Y-110223541D01*
X160280167Y-110223540D01*
X160075757Y-110157124D01*
X159934229Y-110134708D01*
X159863467Y-110123500D01*
X159648533Y-110123500D01*
X159577770Y-110134708D01*
X159436243Y-110157124D01*
X159436240Y-110157124D01*
X159231832Y-110223540D01*
X159231829Y-110223541D01*
X159040321Y-110321120D01*
X158956981Y-110381671D01*
X158866437Y-110447455D01*
X158866435Y-110447457D01*
X158866434Y-110447457D01*
X158714457Y-110599434D01*
X158714457Y-110599435D01*
X158714455Y-110599437D01*
X158646477Y-110693001D01*
X158586318Y-110775802D01*
X158530988Y-110818467D01*
X158461374Y-110824446D01*
X158399579Y-110791840D01*
X158385682Y-110775802D01*
X158325523Y-110693001D01*
X158257545Y-110599437D01*
X158105563Y-110447455D01*
X157931678Y-110321120D01*
X157919902Y-110315120D01*
X157740170Y-110223541D01*
X157740167Y-110223540D01*
X157535757Y-110157124D01*
X157394229Y-110134708D01*
X157323467Y-110123500D01*
X157108533Y-110123500D01*
X157037770Y-110134708D01*
X156896243Y-110157124D01*
X156896240Y-110157124D01*
X156691832Y-110223540D01*
X156691829Y-110223541D01*
X156500321Y-110321120D01*
X156326438Y-110447454D01*
X156231910Y-110541982D01*
X156170586Y-110575466D01*
X156100895Y-110570482D01*
X156044962Y-110528610D01*
X156028047Y-110497632D01*
X156025809Y-110491632D01*
X156009332Y-110447454D01*
X155984798Y-110381673D01*
X155984793Y-110381664D01*
X155898547Y-110266455D01*
X155898544Y-110266452D01*
X155783335Y-110180206D01*
X155783328Y-110180202D01*
X155648482Y-110129908D01*
X155648483Y-110129908D01*
X155588883Y-110123501D01*
X155588881Y-110123500D01*
X155588873Y-110123500D01*
X155588864Y-110123500D01*
X153763129Y-110123500D01*
X153763123Y-110123501D01*
X153703516Y-110129908D01*
X153568671Y-110180202D01*
X153568664Y-110180206D01*
X153453455Y-110266452D01*
X153453452Y-110266455D01*
X153367206Y-110381664D01*
X153367202Y-110381671D01*
X153316908Y-110516517D01*
X153310501Y-110576116D01*
X153310500Y-110576135D01*
X150757243Y-110576135D01*
X150622563Y-110441455D01*
X150448678Y-110315120D01*
X150409196Y-110295003D01*
X150257170Y-110217541D01*
X150257167Y-110217540D01*
X150052757Y-110151124D01*
X149911229Y-110128708D01*
X149840467Y-110117500D01*
X149625533Y-110117500D01*
X149554770Y-110128708D01*
X149413243Y-110151124D01*
X149413240Y-110151124D01*
X149208832Y-110217540D01*
X149208829Y-110217541D01*
X149017321Y-110315120D01*
X148925720Y-110381673D01*
X148843437Y-110441455D01*
X148843435Y-110441457D01*
X148843434Y-110441457D01*
X148691457Y-110593434D01*
X148691457Y-110593435D01*
X148691455Y-110593437D01*
X148594023Y-110727539D01*
X148563318Y-110769802D01*
X148507988Y-110812467D01*
X148438374Y-110818446D01*
X148376579Y-110785840D01*
X148362682Y-110769802D01*
X148346976Y-110748185D01*
X148234545Y-110593437D01*
X148082563Y-110441455D01*
X147908678Y-110315120D01*
X147869196Y-110295003D01*
X147717170Y-110217541D01*
X147717167Y-110217540D01*
X147512757Y-110151124D01*
X147371229Y-110128708D01*
X147300467Y-110117500D01*
X147085533Y-110117500D01*
X147014770Y-110128708D01*
X146873243Y-110151124D01*
X146873240Y-110151124D01*
X146668832Y-110217540D01*
X146668829Y-110217541D01*
X146477321Y-110315120D01*
X146303438Y-110441454D01*
X146208910Y-110535982D01*
X146147586Y-110569466D01*
X146077895Y-110564482D01*
X146021962Y-110522610D01*
X146005047Y-110491632D01*
X145961798Y-110375673D01*
X145961793Y-110375664D01*
X145875547Y-110260455D01*
X145875544Y-110260452D01*
X145760335Y-110174206D01*
X145760328Y-110174202D01*
X145625482Y-110123908D01*
X145625483Y-110123908D01*
X145565883Y-110117501D01*
X145565881Y-110117500D01*
X145565873Y-110117500D01*
X145565864Y-110117500D01*
X143740129Y-110117500D01*
X143740123Y-110117501D01*
X143680516Y-110123908D01*
X143545671Y-110174202D01*
X143545664Y-110174206D01*
X143430455Y-110260452D01*
X143430452Y-110260455D01*
X143344206Y-110375664D01*
X143344202Y-110375671D01*
X143293908Y-110510517D01*
X143287501Y-110570116D01*
X143287500Y-110570135D01*
X125214500Y-110570135D01*
X125214500Y-107318305D01*
X130938000Y-107318305D01*
X130938000Y-107547694D01*
X130938001Y-107547710D01*
X130967942Y-107775137D01*
X131027318Y-107996730D01*
X131115102Y-108208659D01*
X131115106Y-108208669D01*
X131229799Y-108407324D01*
X131229805Y-108407331D01*
X131286381Y-108481064D01*
X132086958Y-107680487D01*
X132111978Y-107740890D01*
X132183112Y-107847351D01*
X132273649Y-107937888D01*
X132380110Y-108009022D01*
X132440511Y-108034041D01*
X131639934Y-108834617D01*
X131639934Y-108834618D01*
X131713666Y-108891194D01*
X131912330Y-109005893D01*
X131912340Y-109005897D01*
X132124269Y-109093681D01*
X132345862Y-109153057D01*
X132573289Y-109182998D01*
X132573306Y-109183000D01*
X132802694Y-109183000D01*
X132802710Y-109182998D01*
X133030137Y-109153057D01*
X133251730Y-109093681D01*
X133463659Y-109005897D01*
X133463668Y-109005893D01*
X133662327Y-108891197D01*
X133662334Y-108891192D01*
X133736064Y-108834617D01*
X132935488Y-108034041D01*
X132995890Y-108009022D01*
X133102351Y-107937888D01*
X133192888Y-107847351D01*
X133264022Y-107740890D01*
X133289041Y-107680488D01*
X134089617Y-108481064D01*
X134146192Y-108407334D01*
X134146197Y-108407327D01*
X134258448Y-108212902D01*
X176680500Y-108212902D01*
X176680500Y-108449097D01*
X176717446Y-108682368D01*
X176790433Y-108906996D01*
X176885555Y-109093681D01*
X176897657Y-109117433D01*
X177036483Y-109308510D01*
X177203490Y-109475517D01*
X177238127Y-109500683D01*
X177280792Y-109556013D01*
X177286771Y-109625626D01*
X177254165Y-109687421D01*
X177238130Y-109701315D01*
X177220365Y-109714222D01*
X177203488Y-109726484D01*
X177036485Y-109893487D01*
X177036485Y-109893488D01*
X177036483Y-109893490D01*
X176976862Y-109975550D01*
X176897657Y-110084566D01*
X176790433Y-110295003D01*
X176717446Y-110519631D01*
X176680500Y-110752902D01*
X176680500Y-110989097D01*
X176717446Y-111222368D01*
X176790433Y-111446996D01*
X176897657Y-111657433D01*
X177036483Y-111848510D01*
X177036489Y-111848516D01*
X177039647Y-111852214D01*
X177037977Y-111853640D01*
X177067089Y-111906954D01*
X177062105Y-111976646D01*
X177020233Y-112032579D01*
X177011022Y-112038850D01*
X176962654Y-112068684D01*
X176838684Y-112192654D01*
X176746643Y-112341875D01*
X176746641Y-112341880D01*
X176691494Y-112508302D01*
X176691493Y-112508309D01*
X176681000Y-112611013D01*
X176681000Y-113161000D01*
X177632518Y-113161000D01*
X177621889Y-113179409D01*
X177581000Y-113332009D01*
X177581000Y-113489991D01*
X177621889Y-113642591D01*
X177632518Y-113661000D01*
X176681001Y-113661000D01*
X176681001Y-114210986D01*
X176691494Y-114313697D01*
X176746641Y-114480119D01*
X176746643Y-114480124D01*
X176838684Y-114629345D01*
X176962654Y-114753315D01*
X177111875Y-114845356D01*
X177111880Y-114845358D01*
X177278302Y-114900505D01*
X177278309Y-114900506D01*
X177381019Y-114910999D01*
X177930999Y-114910999D01*
X177931000Y-114910998D01*
X177931000Y-113959482D01*
X177949409Y-113970111D01*
X178102009Y-114011000D01*
X178259991Y-114011000D01*
X178412591Y-113970111D01*
X178431000Y-113959482D01*
X178431000Y-114910999D01*
X178980972Y-114910999D01*
X178980986Y-114910998D01*
X179083697Y-114900505D01*
X179250119Y-114845358D01*
X179250124Y-114845356D01*
X179399345Y-114753315D01*
X179523315Y-114629345D01*
X179615356Y-114480124D01*
X179615358Y-114480119D01*
X179670505Y-114313697D01*
X179670506Y-114313690D01*
X179680999Y-114210986D01*
X179681000Y-114210973D01*
X179681000Y-113661000D01*
X178729482Y-113661000D01*
X178740111Y-113642591D01*
X178781000Y-113489991D01*
X178781000Y-113332009D01*
X178740111Y-113179409D01*
X178729482Y-113161000D01*
X179680999Y-113161000D01*
X179680999Y-112611028D01*
X179680998Y-112611013D01*
X179670505Y-112508302D01*
X179615358Y-112341880D01*
X179615356Y-112341875D01*
X179523315Y-112192654D01*
X179399343Y-112068682D01*
X179350980Y-112038852D01*
X179304255Y-111986904D01*
X179293032Y-111917942D01*
X179320876Y-111853859D01*
X179322362Y-111852233D01*
X179322348Y-111852221D01*
X179325511Y-111848516D01*
X179325517Y-111848510D01*
X179464343Y-111657433D01*
X179571568Y-111446992D01*
X179644553Y-111222368D01*
X179653917Y-111163245D01*
X179681500Y-110989097D01*
X179681500Y-110752902D01*
X179644553Y-110519631D01*
X179580052Y-110321120D01*
X179571568Y-110295008D01*
X179571566Y-110295005D01*
X179571566Y-110295003D01*
X179510014Y-110174202D01*
X179464343Y-110084567D01*
X179325517Y-109893490D01*
X179158510Y-109726483D01*
X179123872Y-109701317D01*
X179081207Y-109645989D01*
X179075228Y-109576375D01*
X179107833Y-109514580D01*
X179123873Y-109500682D01*
X179158510Y-109475517D01*
X179325517Y-109308510D01*
X179464343Y-109117433D01*
X179571568Y-108906992D01*
X179644553Y-108682368D01*
X179681500Y-108449097D01*
X179681500Y-108212902D01*
X179644553Y-107979631D01*
X179601572Y-107847351D01*
X179571568Y-107755008D01*
X179571566Y-107755005D01*
X179571566Y-107755003D01*
X179464342Y-107544566D01*
X179429797Y-107497019D01*
X179325517Y-107353490D01*
X179158510Y-107186483D01*
X178967433Y-107047657D01*
X178910502Y-107018649D01*
X178756996Y-106940433D01*
X178532368Y-106867446D01*
X178299097Y-106830500D01*
X178299092Y-106830500D01*
X178062908Y-106830500D01*
X178062903Y-106830500D01*
X177829631Y-106867446D01*
X177605003Y-106940433D01*
X177394566Y-107047657D01*
X177287962Y-107125110D01*
X177203490Y-107186483D01*
X177203488Y-107186485D01*
X177203487Y-107186485D01*
X177036485Y-107353487D01*
X177036485Y-107353488D01*
X177036483Y-107353490D01*
X176978716Y-107432999D01*
X176897657Y-107544566D01*
X176790433Y-107755003D01*
X176717446Y-107979631D01*
X176680500Y-108212902D01*
X134258448Y-108212902D01*
X134260893Y-108208668D01*
X134260898Y-108208659D01*
X134280812Y-108160583D01*
X134280812Y-108160581D01*
X134348680Y-107996733D01*
X134408057Y-107775137D01*
X134437998Y-107547710D01*
X134438000Y-107547694D01*
X134438000Y-107318305D01*
X134437998Y-107318289D01*
X134408057Y-107090862D01*
X134348681Y-106869269D01*
X134260897Y-106657340D01*
X134260893Y-106657330D01*
X134146194Y-106458666D01*
X134089618Y-106384934D01*
X134089617Y-106384934D01*
X133289041Y-107185510D01*
X133264022Y-107125110D01*
X133192888Y-107018649D01*
X133102351Y-106928112D01*
X132995890Y-106856978D01*
X132935487Y-106831957D01*
X133736064Y-106031381D01*
X133736064Y-106031380D01*
X133662331Y-105974805D01*
X133662324Y-105974799D01*
X133463669Y-105860106D01*
X133463659Y-105860102D01*
X133251730Y-105772318D01*
X133030137Y-105712942D01*
X132802710Y-105683001D01*
X132802694Y-105683000D01*
X132573306Y-105683000D01*
X132573289Y-105683001D01*
X132345862Y-105712942D01*
X132124269Y-105772318D01*
X131912340Y-105860102D01*
X131912330Y-105860106D01*
X131713673Y-105974801D01*
X131713659Y-105974810D01*
X131639934Y-106031380D01*
X132440511Y-106831958D01*
X132380110Y-106856978D01*
X132273649Y-106928112D01*
X132183112Y-107018649D01*
X132111978Y-107125110D01*
X132086958Y-107185511D01*
X131286380Y-106384934D01*
X131229810Y-106458659D01*
X131229801Y-106458673D01*
X131115106Y-106657330D01*
X131115102Y-106657340D01*
X131027318Y-106869269D01*
X130967942Y-107090862D01*
X130938001Y-107318289D01*
X130938000Y-107318305D01*
X125214500Y-107318305D01*
X125214500Y-99038947D01*
X127838000Y-99038947D01*
X127838000Y-99275052D01*
X127874934Y-99508247D01*
X127947897Y-99732802D01*
X128055087Y-99943174D01*
X128115338Y-100026104D01*
X128115340Y-100026105D01*
X128855037Y-99286408D01*
X128872075Y-99349993D01*
X128937901Y-99464007D01*
X129030993Y-99557099D01*
X129145007Y-99622925D01*
X129208590Y-99639962D01*
X128468893Y-100379658D01*
X128551828Y-100439914D01*
X128762197Y-100547102D01*
X128986752Y-100620065D01*
X128986751Y-100620065D01*
X129219948Y-100657000D01*
X129456052Y-100657000D01*
X129689247Y-100620065D01*
X129913802Y-100547102D01*
X130124163Y-100439918D01*
X130124169Y-100439914D01*
X130207104Y-100379658D01*
X130207105Y-100379658D01*
X129467408Y-99639962D01*
X129530993Y-99622925D01*
X129645007Y-99557099D01*
X129738099Y-99464007D01*
X129803925Y-99349993D01*
X129820962Y-99286409D01*
X130560658Y-100026105D01*
X130560658Y-100026104D01*
X130620914Y-99943169D01*
X130620918Y-99943163D01*
X130728102Y-99732802D01*
X130801065Y-99508247D01*
X130838000Y-99275052D01*
X130838000Y-99038947D01*
X134338000Y-99038947D01*
X134338000Y-99275052D01*
X134374934Y-99508247D01*
X134447897Y-99732802D01*
X134555087Y-99943174D01*
X134615338Y-100026104D01*
X134615340Y-100026105D01*
X135355037Y-99286408D01*
X135372075Y-99349993D01*
X135437901Y-99464007D01*
X135530993Y-99557099D01*
X135645007Y-99622925D01*
X135708590Y-99639962D01*
X134968893Y-100379658D01*
X135051828Y-100439914D01*
X135262197Y-100547102D01*
X135486752Y-100620065D01*
X135486751Y-100620065D01*
X135719948Y-100657000D01*
X135956052Y-100657000D01*
X136189247Y-100620065D01*
X136413802Y-100547102D01*
X136624163Y-100439918D01*
X136624169Y-100439914D01*
X136707104Y-100379658D01*
X136707105Y-100379658D01*
X135967408Y-99639962D01*
X136030993Y-99622925D01*
X136145007Y-99557099D01*
X136238099Y-99464007D01*
X136303925Y-99349993D01*
X136320962Y-99286409D01*
X137060658Y-100026105D01*
X137060658Y-100026104D01*
X137120914Y-99943169D01*
X137120918Y-99943163D01*
X137228102Y-99732802D01*
X137301065Y-99508247D01*
X137338000Y-99275052D01*
X137338000Y-99038947D01*
X137301065Y-98805752D01*
X137228102Y-98581197D01*
X137124687Y-98378232D01*
X137124686Y-98378230D01*
X137120916Y-98370831D01*
X137060658Y-98287894D01*
X137060658Y-98287893D01*
X136320962Y-99027590D01*
X136303925Y-98964007D01*
X136238099Y-98849993D01*
X136145007Y-98756901D01*
X136030993Y-98691075D01*
X135967409Y-98674037D01*
X136707104Y-97934341D01*
X136707104Y-97934338D01*
X136624174Y-97874087D01*
X136413802Y-97766897D01*
X136189247Y-97693934D01*
X136189248Y-97693934D01*
X135956052Y-97657000D01*
X135719948Y-97657000D01*
X135486752Y-97693934D01*
X135262197Y-97766897D01*
X135051830Y-97874084D01*
X134968894Y-97934340D01*
X135708591Y-98674037D01*
X135645007Y-98691075D01*
X135530993Y-98756901D01*
X135437901Y-98849993D01*
X135372075Y-98964007D01*
X135355037Y-99027591D01*
X134615340Y-98287894D01*
X134555084Y-98370830D01*
X134447897Y-98581197D01*
X134374934Y-98805752D01*
X134338000Y-99038947D01*
X130838000Y-99038947D01*
X130801065Y-98805752D01*
X130728102Y-98581197D01*
X130620914Y-98370828D01*
X130560658Y-98287894D01*
X130560658Y-98287893D01*
X129820962Y-99027590D01*
X129803925Y-98964007D01*
X129738099Y-98849993D01*
X129645007Y-98756901D01*
X129530993Y-98691075D01*
X129467409Y-98674037D01*
X130207105Y-97934340D01*
X130207104Y-97934339D01*
X130124174Y-97874087D01*
X129913802Y-97766897D01*
X129689247Y-97693934D01*
X129689248Y-97693934D01*
X129456052Y-97657000D01*
X129219948Y-97657000D01*
X128986752Y-97693934D01*
X128762197Y-97766897D01*
X128551830Y-97874084D01*
X128468894Y-97934340D01*
X129208591Y-98674037D01*
X129145007Y-98691075D01*
X129030993Y-98756901D01*
X128937901Y-98849993D01*
X128872075Y-98964007D01*
X128855037Y-99027591D01*
X128115340Y-98287894D01*
X128055084Y-98370830D01*
X127947897Y-98581197D01*
X127874934Y-98805752D01*
X127838000Y-99038947D01*
X125214500Y-99038947D01*
X125214500Y-87862947D01*
X127838000Y-87862947D01*
X127838000Y-88099052D01*
X127874934Y-88332247D01*
X127947897Y-88556802D01*
X128055087Y-88767174D01*
X128115338Y-88850104D01*
X128115340Y-88850105D01*
X128855037Y-88110408D01*
X128872075Y-88173993D01*
X128937901Y-88288007D01*
X129030993Y-88381099D01*
X129145007Y-88446925D01*
X129208590Y-88463962D01*
X128468893Y-89203658D01*
X128551828Y-89263914D01*
X128762197Y-89371102D01*
X128986752Y-89444065D01*
X128986751Y-89444065D01*
X129219948Y-89481000D01*
X129456052Y-89481000D01*
X129689247Y-89444065D01*
X129913802Y-89371102D01*
X130124163Y-89263918D01*
X130124169Y-89263914D01*
X130207104Y-89203658D01*
X130207105Y-89203658D01*
X129467408Y-88463962D01*
X129530993Y-88446925D01*
X129645007Y-88381099D01*
X129738099Y-88288007D01*
X129803925Y-88173993D01*
X129820962Y-88110409D01*
X130560658Y-88850105D01*
X130560658Y-88850104D01*
X130620914Y-88767169D01*
X130620918Y-88767163D01*
X130728102Y-88556802D01*
X130801065Y-88332247D01*
X130838000Y-88099052D01*
X130838000Y-87862947D01*
X134338000Y-87862947D01*
X134338000Y-88099052D01*
X134374934Y-88332247D01*
X134447897Y-88556802D01*
X134555087Y-88767174D01*
X134615338Y-88850104D01*
X134615340Y-88850105D01*
X135355037Y-88110408D01*
X135372075Y-88173993D01*
X135437901Y-88288007D01*
X135530993Y-88381099D01*
X135645007Y-88446925D01*
X135708590Y-88463962D01*
X134968893Y-89203658D01*
X135051828Y-89263914D01*
X135262197Y-89371102D01*
X135486752Y-89444065D01*
X135486751Y-89444065D01*
X135719948Y-89481000D01*
X135956052Y-89481000D01*
X136189247Y-89444065D01*
X136413802Y-89371102D01*
X136624163Y-89263918D01*
X136624169Y-89263914D01*
X136707104Y-89203658D01*
X136707105Y-89203658D01*
X135967408Y-88463962D01*
X136030993Y-88446925D01*
X136145007Y-88381099D01*
X136238099Y-88288007D01*
X136303925Y-88173993D01*
X136320962Y-88110409D01*
X137060658Y-88850105D01*
X137060658Y-88850104D01*
X137120914Y-88767169D01*
X137120918Y-88767163D01*
X137228102Y-88556802D01*
X137301065Y-88332247D01*
X137338000Y-88099052D01*
X137338000Y-87862947D01*
X137301065Y-87629752D01*
X137228102Y-87405197D01*
X137120914Y-87194828D01*
X137060658Y-87111894D01*
X137060658Y-87111893D01*
X136320962Y-87851590D01*
X136303925Y-87788007D01*
X136238099Y-87673993D01*
X136145007Y-87580901D01*
X136030993Y-87515075D01*
X135967409Y-87498037D01*
X136707105Y-86758340D01*
X136707104Y-86758338D01*
X136624174Y-86698087D01*
X136413802Y-86590897D01*
X136189247Y-86517934D01*
X136189248Y-86517934D01*
X135956052Y-86481000D01*
X135719948Y-86481000D01*
X135486752Y-86517934D01*
X135262197Y-86590897D01*
X135051830Y-86698084D01*
X134968894Y-86758340D01*
X135708591Y-87498037D01*
X135645007Y-87515075D01*
X135530993Y-87580901D01*
X135437901Y-87673993D01*
X135372075Y-87788007D01*
X135355037Y-87851591D01*
X134615340Y-87111894D01*
X134555084Y-87194830D01*
X134447897Y-87405197D01*
X134374934Y-87629752D01*
X134338000Y-87862947D01*
X130838000Y-87862947D01*
X130801065Y-87629752D01*
X130728102Y-87405197D01*
X130620914Y-87194828D01*
X130560658Y-87111894D01*
X130560658Y-87111893D01*
X129820962Y-87851590D01*
X129803925Y-87788007D01*
X129738099Y-87673993D01*
X129645007Y-87580901D01*
X129530993Y-87515075D01*
X129467409Y-87498037D01*
X130207105Y-86758340D01*
X130207104Y-86758339D01*
X130124174Y-86698087D01*
X129913802Y-86590897D01*
X129689247Y-86517934D01*
X129689248Y-86517934D01*
X129456052Y-86481000D01*
X129219948Y-86481000D01*
X128986752Y-86517934D01*
X128762197Y-86590897D01*
X128551830Y-86698084D01*
X128468894Y-86758340D01*
X129208591Y-87498037D01*
X129145007Y-87515075D01*
X129030993Y-87580901D01*
X128937901Y-87673993D01*
X128872075Y-87788007D01*
X128855037Y-87851591D01*
X128115340Y-87111894D01*
X128055084Y-87194830D01*
X127947897Y-87405197D01*
X127874934Y-87629752D01*
X127838000Y-87862947D01*
X125214500Y-87862947D01*
X125214500Y-82433135D01*
X127837500Y-82433135D01*
X127837500Y-84528870D01*
X127837501Y-84528876D01*
X127843908Y-84588483D01*
X127894202Y-84723328D01*
X127894206Y-84723335D01*
X127980452Y-84838544D01*
X127980455Y-84838547D01*
X128095664Y-84924793D01*
X128095671Y-84924797D01*
X128230517Y-84975091D01*
X128230516Y-84975091D01*
X128237444Y-84975835D01*
X128290127Y-84981500D01*
X130385872Y-84981499D01*
X130445483Y-84975091D01*
X130580331Y-84924796D01*
X130695546Y-84838546D01*
X130781796Y-84723331D01*
X130832091Y-84588483D01*
X130838500Y-84528873D01*
X130838499Y-82433128D01*
X130832091Y-82373517D01*
X130818278Y-82336483D01*
X130781797Y-82238671D01*
X130781793Y-82238664D01*
X130695547Y-82123455D01*
X130669246Y-82103766D01*
X130627376Y-82047832D01*
X130622392Y-81978141D01*
X130655878Y-81916818D01*
X130717201Y-81883334D01*
X130743558Y-81880500D01*
X135157525Y-81880500D01*
X135224564Y-81900185D01*
X135270319Y-81952989D01*
X135280263Y-82022147D01*
X135251238Y-82085703D01*
X135213820Y-82114985D01*
X135051566Y-82197657D01*
X134995119Y-82238669D01*
X134860490Y-82336483D01*
X134860488Y-82336485D01*
X134860487Y-82336485D01*
X134693485Y-82503487D01*
X134693485Y-82503488D01*
X134693483Y-82503490D01*
X134633862Y-82585550D01*
X134554657Y-82694566D01*
X134447433Y-82905003D01*
X134374446Y-83129631D01*
X134337500Y-83362902D01*
X134337500Y-83599097D01*
X134374446Y-83832368D01*
X134447433Y-84056996D01*
X134535905Y-84230631D01*
X134554657Y-84267433D01*
X134693483Y-84458510D01*
X134860490Y-84625517D01*
X135051567Y-84764343D01*
X135150991Y-84815002D01*
X135262003Y-84871566D01*
X135262005Y-84871566D01*
X135262008Y-84871568D01*
X135382412Y-84910689D01*
X135486631Y-84944553D01*
X135719903Y-84981500D01*
X135719908Y-84981500D01*
X135956097Y-84981500D01*
X136189368Y-84944553D01*
X136413992Y-84871568D01*
X136624433Y-84764343D01*
X136815510Y-84625517D01*
X136982517Y-84458510D01*
X137121343Y-84267433D01*
X137228568Y-84056992D01*
X137301553Y-83832368D01*
X137307382Y-83795566D01*
X137338500Y-83599097D01*
X137338500Y-83362902D01*
X137301553Y-83129631D01*
X137241005Y-82943285D01*
X137228568Y-82905008D01*
X137228566Y-82905005D01*
X137228566Y-82905003D01*
X137121342Y-82694566D01*
X136982517Y-82503490D01*
X136815510Y-82336483D01*
X136624433Y-82197657D01*
X136462180Y-82114985D01*
X136411384Y-82067010D01*
X136394589Y-81999189D01*
X136417126Y-81933054D01*
X136471841Y-81889603D01*
X136518475Y-81880500D01*
X138851331Y-81880500D01*
X138851347Y-81880501D01*
X138858943Y-81880501D01*
X139017054Y-81880501D01*
X139017057Y-81880501D01*
X139169785Y-81839577D01*
X139219904Y-81810639D01*
X139280172Y-81775844D01*
X139348069Y-81759373D01*
X139414096Y-81782226D01*
X139457286Y-81837148D01*
X139463927Y-81906701D01*
X139431910Y-81968803D01*
X139429849Y-81970914D01*
X138569286Y-82831478D01*
X138457481Y-82943282D01*
X138457479Y-82943285D01*
X138407361Y-83030094D01*
X138407359Y-83030096D01*
X138378425Y-83080209D01*
X138378424Y-83080210D01*
X138362544Y-83139472D01*
X138337499Y-83232943D01*
X138337499Y-83232945D01*
X138337499Y-83401046D01*
X138337500Y-83401059D01*
X138337500Y-91266902D01*
X138317815Y-91333941D01*
X138301181Y-91354583D01*
X137963584Y-91692181D01*
X137902261Y-91725666D01*
X137875903Y-91728500D01*
X130261670Y-91728500D01*
X130261654Y-91728499D01*
X130254058Y-91728499D01*
X130095943Y-91728499D01*
X130019579Y-91748961D01*
X129943214Y-91769423D01*
X129943209Y-91769426D01*
X129806290Y-91848475D01*
X129806282Y-91848481D01*
X128857481Y-92797282D01*
X128857479Y-92797285D01*
X128829979Y-92844917D01*
X128807360Y-92884095D01*
X128778423Y-92934215D01*
X128742107Y-93069743D01*
X128740292Y-93074753D01*
X128722641Y-93098793D01*
X128707122Y-93124254D01*
X128702189Y-93126650D01*
X128698942Y-93131073D01*
X128671091Y-93141756D01*
X128644275Y-93154783D01*
X128635144Y-93155545D01*
X128633707Y-93156097D01*
X128632225Y-93155789D01*
X128623713Y-93156500D01*
X128290130Y-93156500D01*
X128290123Y-93156501D01*
X128230516Y-93162908D01*
X128095671Y-93213202D01*
X128095664Y-93213206D01*
X127980455Y-93299452D01*
X127980452Y-93299455D01*
X127894206Y-93414664D01*
X127894202Y-93414671D01*
X127843908Y-93549517D01*
X127837501Y-93609116D01*
X127837501Y-93609123D01*
X127837500Y-93609135D01*
X127837500Y-95704870D01*
X127837501Y-95704876D01*
X127843908Y-95764483D01*
X127894202Y-95899328D01*
X127894206Y-95899335D01*
X127980452Y-96014544D01*
X127980455Y-96014547D01*
X128095664Y-96100793D01*
X128095671Y-96100797D01*
X128230517Y-96151091D01*
X128230516Y-96151091D01*
X128237444Y-96151835D01*
X128290127Y-96157500D01*
X130385872Y-96157499D01*
X130445483Y-96151091D01*
X130580331Y-96100796D01*
X130695546Y-96014546D01*
X130781796Y-95899331D01*
X130832091Y-95764483D01*
X130838500Y-95704873D01*
X130838499Y-93609128D01*
X130832091Y-93549517D01*
X130818278Y-93512483D01*
X130781797Y-93414671D01*
X130781793Y-93414664D01*
X130695547Y-93299455D01*
X130695544Y-93299452D01*
X130580335Y-93213206D01*
X130580328Y-93213202D01*
X130463643Y-93169682D01*
X130407709Y-93127811D01*
X130383292Y-93062347D01*
X130398143Y-92994074D01*
X130447548Y-92944668D01*
X130506976Y-92929500D01*
X135577558Y-92929500D01*
X135644597Y-92949185D01*
X135690352Y-93001989D01*
X135700296Y-93071147D01*
X135671271Y-93134703D01*
X135612493Y-93172477D01*
X135596956Y-93175973D01*
X135486631Y-93193446D01*
X135262003Y-93266433D01*
X135051566Y-93373657D01*
X134995119Y-93414669D01*
X134860490Y-93512483D01*
X134860488Y-93512485D01*
X134860487Y-93512485D01*
X134693485Y-93679487D01*
X134693485Y-93679488D01*
X134693483Y-93679490D01*
X134687816Y-93687290D01*
X134554657Y-93870566D01*
X134447433Y-94081003D01*
X134374446Y-94305631D01*
X134337500Y-94538902D01*
X134337500Y-94775097D01*
X134374446Y-95008368D01*
X134447433Y-95232996D01*
X134519525Y-95374483D01*
X134554657Y-95443433D01*
X134693483Y-95634510D01*
X134860490Y-95801517D01*
X135051567Y-95940343D01*
X135150991Y-95991002D01*
X135262003Y-96047566D01*
X135262005Y-96047566D01*
X135262008Y-96047568D01*
X135382412Y-96086689D01*
X135486631Y-96120553D01*
X135719903Y-96157500D01*
X135719908Y-96157500D01*
X135956097Y-96157500D01*
X136189368Y-96120553D01*
X136413992Y-96047568D01*
X136624433Y-95940343D01*
X136815510Y-95801517D01*
X136982517Y-95634510D01*
X137121343Y-95443433D01*
X137228568Y-95232992D01*
X137301553Y-95008368D01*
X137338500Y-94775097D01*
X137338500Y-94538902D01*
X137301553Y-94305631D01*
X137249380Y-94145060D01*
X137228568Y-94081008D01*
X137228566Y-94081005D01*
X137228566Y-94081003D01*
X137168636Y-93963385D01*
X137121343Y-93870567D01*
X136982517Y-93679490D01*
X136815510Y-93512483D01*
X136624433Y-93373657D01*
X136413996Y-93266433D01*
X136189368Y-93193446D01*
X136079044Y-93175973D01*
X136015909Y-93146044D01*
X135978978Y-93086732D01*
X135979976Y-93016870D01*
X136018586Y-92958637D01*
X136082550Y-92930523D01*
X136098442Y-92929500D01*
X138089331Y-92929500D01*
X138089347Y-92929501D01*
X138096943Y-92929501D01*
X138255054Y-92929501D01*
X138255057Y-92929501D01*
X138407785Y-92888577D01*
X138457904Y-92859639D01*
X138544716Y-92809520D01*
X138656520Y-92697716D01*
X138656520Y-92697714D01*
X138666728Y-92687507D01*
X138666729Y-92687504D01*
X139418520Y-91935716D01*
X139497577Y-91798784D01*
X139538501Y-91646057D01*
X139538501Y-91487942D01*
X139538501Y-91480347D01*
X139538500Y-91480329D01*
X139538500Y-83612097D01*
X139558185Y-83545058D01*
X139574819Y-83524416D01*
X144184083Y-78915153D01*
X155917500Y-78915153D01*
X155917500Y-79072846D01*
X155948261Y-79227489D01*
X155948264Y-79227501D01*
X156008602Y-79373172D01*
X156008609Y-79373185D01*
X156096602Y-79504874D01*
X156117480Y-79571551D01*
X156117500Y-79573765D01*
X156117500Y-92369330D01*
X156117499Y-92369348D01*
X156117499Y-92535054D01*
X156117498Y-92535054D01*
X156158423Y-92687787D01*
X156164156Y-92697716D01*
X156164158Y-92697718D01*
X156237477Y-92824712D01*
X156237481Y-92824717D01*
X156356349Y-92943585D01*
X156356355Y-92943590D01*
X157376139Y-93963374D01*
X157376149Y-93963385D01*
X157380479Y-93967715D01*
X157380480Y-93967716D01*
X157492284Y-94079520D01*
X157579095Y-94129639D01*
X157579097Y-94129641D01*
X157617151Y-94151611D01*
X157629215Y-94158577D01*
X157781943Y-94199500D01*
X157940057Y-94199500D01*
X168101903Y-94199500D01*
X168131343Y-94208144D01*
X168161330Y-94214668D01*
X168166345Y-94218422D01*
X168168942Y-94219185D01*
X168189584Y-94235819D01*
X168222181Y-94268416D01*
X168255666Y-94329739D01*
X168258500Y-94356097D01*
X168258500Y-96484500D01*
X168238815Y-96551539D01*
X168186011Y-96597294D01*
X168134500Y-96608500D01*
X167858630Y-96608500D01*
X167858623Y-96608501D01*
X167799016Y-96614908D01*
X167664171Y-96665202D01*
X167664164Y-96665206D01*
X167548955Y-96751452D01*
X167548952Y-96751455D01*
X167462706Y-96866664D01*
X167462703Y-96866670D01*
X167452308Y-96894541D01*
X167410436Y-96950474D01*
X167344972Y-96974891D01*
X167276699Y-96960039D01*
X167263250Y-96951531D01*
X167080538Y-96818783D01*
X166876755Y-96714950D01*
X166659248Y-96644278D01*
X166473812Y-96614908D01*
X166433354Y-96608500D01*
X166204646Y-96608500D01*
X166164188Y-96614908D01*
X165978753Y-96644278D01*
X165978750Y-96644278D01*
X165761244Y-96714950D01*
X165557461Y-96818783D01*
X165491551Y-96866670D01*
X165372434Y-96953214D01*
X165372432Y-96953216D01*
X165372431Y-96953216D01*
X165210716Y-97114931D01*
X165210709Y-97114940D01*
X165149007Y-97199864D01*
X165093677Y-97242530D01*
X165024063Y-97248508D01*
X164962269Y-97215901D01*
X164948372Y-97199863D01*
X164886907Y-97115263D01*
X164886902Y-97115257D01*
X164725242Y-96953597D01*
X164540276Y-96819211D01*
X164336568Y-96715417D01*
X164119124Y-96644765D01*
X164029000Y-96630490D01*
X164029000Y-97618252D01*
X163991292Y-97596482D01*
X163851409Y-97559000D01*
X163706591Y-97559000D01*
X163566708Y-97596482D01*
X163529000Y-97618252D01*
X163529000Y-96630490D01*
X163528999Y-96630490D01*
X163438875Y-96644765D01*
X163221431Y-96715417D01*
X163017723Y-96819211D01*
X162832757Y-96953597D01*
X162671097Y-97115257D01*
X162536711Y-97300223D01*
X162432917Y-97503929D01*
X162362265Y-97721371D01*
X162340468Y-97859000D01*
X163288252Y-97859000D01*
X163266482Y-97896708D01*
X163229000Y-98036591D01*
X163229000Y-98181409D01*
X163266482Y-98321292D01*
X163288252Y-98359000D01*
X162340468Y-98359000D01*
X162362265Y-98496628D01*
X162432917Y-98714070D01*
X162536711Y-98917776D01*
X162671097Y-99102742D01*
X162832757Y-99264402D01*
X163017723Y-99398788D01*
X163221429Y-99502582D01*
X163438871Y-99573234D01*
X163529000Y-99587509D01*
X163529000Y-98599747D01*
X163566708Y-98621518D01*
X163706591Y-98659000D01*
X163851409Y-98659000D01*
X163991292Y-98621518D01*
X164029000Y-98599747D01*
X164029000Y-99587508D01*
X164119128Y-99573234D01*
X164336570Y-99502582D01*
X164540276Y-99398788D01*
X164725242Y-99264402D01*
X164886905Y-99102739D01*
X164948371Y-99018137D01*
X165003701Y-98975470D01*
X165073314Y-98969491D01*
X165135109Y-99002096D01*
X165149007Y-99018134D01*
X165210714Y-99103066D01*
X165372434Y-99264786D01*
X165557462Y-99399217D01*
X165684620Y-99464007D01*
X165761244Y-99503049D01*
X165978751Y-99573721D01*
X165978752Y-99573721D01*
X165978755Y-99573722D01*
X166204646Y-99609500D01*
X166204647Y-99609500D01*
X166433353Y-99609500D01*
X166433354Y-99609500D01*
X166659245Y-99573722D01*
X166659248Y-99573721D01*
X166659249Y-99573721D01*
X166876755Y-99503049D01*
X166876755Y-99503048D01*
X166876758Y-99503048D01*
X167080538Y-99399217D01*
X167263245Y-99266472D01*
X167329046Y-99242994D01*
X167397100Y-99258819D01*
X167445795Y-99308924D01*
X167452308Y-99323459D01*
X167462702Y-99351328D01*
X167462706Y-99351335D01*
X167548952Y-99466544D01*
X167548955Y-99466547D01*
X167664164Y-99552793D01*
X167664171Y-99552797D01*
X167799017Y-99603091D01*
X167799016Y-99603091D01*
X167805944Y-99603835D01*
X167858627Y-99609500D01*
X169859372Y-99609499D01*
X169918983Y-99603091D01*
X170053831Y-99552796D01*
X170169046Y-99466546D01*
X170255296Y-99351331D01*
X170305591Y-99216483D01*
X170312000Y-99156873D01*
X170311999Y-97061128D01*
X170305591Y-97001517D01*
X170295660Y-96974891D01*
X170255297Y-96866671D01*
X170255293Y-96866664D01*
X170169047Y-96751455D01*
X170169044Y-96751452D01*
X170053835Y-96665206D01*
X170053828Y-96665202D01*
X169918982Y-96614908D01*
X169918983Y-96614908D01*
X169859383Y-96608501D01*
X169859381Y-96608500D01*
X169859373Y-96608500D01*
X169859365Y-96608500D01*
X169583500Y-96608500D01*
X169516461Y-96588815D01*
X169470706Y-96536011D01*
X169459500Y-96484500D01*
X169459500Y-94145060D01*
X169459501Y-94145047D01*
X169459501Y-93976944D01*
X169459501Y-93976943D01*
X169418577Y-93824216D01*
X169418573Y-93824209D01*
X169339524Y-93687290D01*
X169339518Y-93687282D01*
X168770717Y-93118481D01*
X168770712Y-93118477D01*
X168663363Y-93056500D01*
X168663361Y-93056499D01*
X168633787Y-93039424D01*
X168633786Y-93039423D01*
X168633785Y-93039423D01*
X168481057Y-92998499D01*
X168322943Y-92998499D01*
X168315347Y-92998499D01*
X168315331Y-92998500D01*
X158161097Y-92998500D01*
X158094058Y-92978815D01*
X158073416Y-92962181D01*
X157354819Y-92243584D01*
X157321334Y-92182261D01*
X157318500Y-92155903D01*
X157318500Y-79573765D01*
X157338185Y-79506726D01*
X157339398Y-79504874D01*
X157427390Y-79373185D01*
X157427390Y-79373184D01*
X157427394Y-79373179D01*
X157487737Y-79227497D01*
X157518500Y-79072842D01*
X157518500Y-78915158D01*
X157518500Y-78915155D01*
X157518499Y-78915153D01*
X157487738Y-78760510D01*
X157487737Y-78760503D01*
X157487735Y-78760498D01*
X157427397Y-78614827D01*
X157427390Y-78614814D01*
X157339789Y-78483711D01*
X157339786Y-78483707D01*
X157228292Y-78372213D01*
X157228288Y-78372210D01*
X157097185Y-78284609D01*
X157097172Y-78284602D01*
X156951501Y-78224264D01*
X156951489Y-78224261D01*
X156796845Y-78193500D01*
X156796842Y-78193500D01*
X156639158Y-78193500D01*
X156639155Y-78193500D01*
X156484510Y-78224261D01*
X156484498Y-78224264D01*
X156338827Y-78284602D01*
X156338814Y-78284609D01*
X156207711Y-78372210D01*
X156207707Y-78372213D01*
X156096213Y-78483707D01*
X156096210Y-78483711D01*
X156008609Y-78614814D01*
X156008602Y-78614827D01*
X155948264Y-78760498D01*
X155948261Y-78760510D01*
X155917500Y-78915153D01*
X144184083Y-78915153D01*
X144277851Y-78821385D01*
X146135417Y-76963819D01*
X146196740Y-76930334D01*
X146223098Y-76927500D01*
X151185234Y-76927500D01*
X151252273Y-76947185D01*
X151254125Y-76948398D01*
X151385814Y-77036390D01*
X151385827Y-77036397D01*
X151531498Y-77096735D01*
X151531503Y-77096737D01*
X151686153Y-77127499D01*
X151686156Y-77127500D01*
X151686158Y-77127500D01*
X151843844Y-77127500D01*
X151843845Y-77127499D01*
X151998497Y-77096737D01*
X152144179Y-77036394D01*
X152275289Y-76948789D01*
X152386789Y-76837289D01*
X152474394Y-76706179D01*
X152534737Y-76560497D01*
X152565500Y-76405842D01*
X152565500Y-76248158D01*
X152565500Y-76248155D01*
X152565499Y-76248153D01*
X152543498Y-76137547D01*
X152534737Y-76093503D01*
X152531235Y-76085048D01*
X152474397Y-75947827D01*
X152474390Y-75947814D01*
X152386789Y-75816711D01*
X152386786Y-75816707D01*
X152275292Y-75705213D01*
X152275288Y-75705210D01*
X152144185Y-75617609D01*
X152144172Y-75617602D01*
X151998501Y-75557264D01*
X151998489Y-75557261D01*
X151843845Y-75526500D01*
X151843842Y-75526500D01*
X151686158Y-75526500D01*
X151686155Y-75526500D01*
X151531510Y-75557261D01*
X151531498Y-75557264D01*
X151385827Y-75617602D01*
X151385814Y-75617609D01*
X151254125Y-75705602D01*
X151187447Y-75726480D01*
X151185234Y-75726500D01*
X146009670Y-75726500D01*
X146009654Y-75726499D01*
X146002058Y-75726499D01*
X145843943Y-75726499D01*
X145743643Y-75753375D01*
X145691215Y-75767423D01*
X145580832Y-75831152D01*
X145512932Y-75847623D01*
X145446905Y-75824771D01*
X145403715Y-75769849D01*
X145397074Y-75700296D01*
X145429091Y-75638193D01*
X145431119Y-75636116D01*
X146135417Y-74931819D01*
X146196740Y-74898334D01*
X146223098Y-74895500D01*
X151185234Y-74895500D01*
X151252273Y-74915185D01*
X151254125Y-74916398D01*
X151385814Y-75004390D01*
X151385827Y-75004397D01*
X151531498Y-75064735D01*
X151531503Y-75064737D01*
X151686153Y-75095499D01*
X151686156Y-75095500D01*
X151686158Y-75095500D01*
X151843844Y-75095500D01*
X151843845Y-75095499D01*
X151998497Y-75064737D01*
X152144179Y-75004394D01*
X152275289Y-74916789D01*
X152386789Y-74805289D01*
X152474394Y-74674179D01*
X152534737Y-74528497D01*
X152534737Y-74528493D01*
X152536480Y-74522750D01*
X152574774Y-74464309D01*
X152638585Y-74435849D01*
X152707652Y-74446406D01*
X152742823Y-74471058D01*
X154613425Y-76341660D01*
X154646910Y-76402983D01*
X154647361Y-76405149D01*
X154678261Y-76560491D01*
X154678264Y-76560501D01*
X154738602Y-76706172D01*
X154738609Y-76706185D01*
X154826210Y-76837288D01*
X154826213Y-76837292D01*
X154937707Y-76948786D01*
X154937711Y-76948789D01*
X155068814Y-77036390D01*
X155068827Y-77036397D01*
X155214498Y-77096735D01*
X155214503Y-77096737D01*
X155369153Y-77127499D01*
X155369156Y-77127500D01*
X155369158Y-77127500D01*
X155526844Y-77127500D01*
X155526845Y-77127499D01*
X155681497Y-77096737D01*
X155827179Y-77036394D01*
X155958289Y-76948789D01*
X156069789Y-76837289D01*
X156157394Y-76706179D01*
X156217737Y-76560497D01*
X156248500Y-76405842D01*
X156248500Y-76248158D01*
X156248500Y-76248155D01*
X156248499Y-76248153D01*
X156226498Y-76137547D01*
X156217737Y-76093503D01*
X156214235Y-76085048D01*
X156157397Y-75947827D01*
X156157392Y-75947818D01*
X156155711Y-75945302D01*
X156155234Y-75943781D01*
X156154521Y-75942446D01*
X156154774Y-75942310D01*
X156134832Y-75878625D01*
X156153315Y-75811244D01*
X156205293Y-75764553D01*
X156274263Y-75753375D01*
X156338327Y-75781260D01*
X156346493Y-75788728D01*
X160457863Y-79900098D01*
X160491348Y-79961421D01*
X160486364Y-80031113D01*
X160444492Y-80087046D01*
X160394374Y-80109396D01*
X160294508Y-80129261D01*
X160294498Y-80129264D01*
X160148827Y-80189602D01*
X160148814Y-80189609D01*
X160017711Y-80277210D01*
X160017707Y-80277213D01*
X159906213Y-80388707D01*
X159906210Y-80388711D01*
X159818609Y-80519814D01*
X159818602Y-80519827D01*
X159758264Y-80665498D01*
X159758261Y-80665510D01*
X159727500Y-80820153D01*
X159727500Y-80977846D01*
X159758261Y-81132489D01*
X159758264Y-81132501D01*
X159818602Y-81278172D01*
X159818609Y-81278185D01*
X159906210Y-81409288D01*
X159906213Y-81409292D01*
X160017707Y-81520786D01*
X160017711Y-81520789D01*
X160148814Y-81608390D01*
X160148827Y-81608397D01*
X160294498Y-81668735D01*
X160294503Y-81668737D01*
X160359147Y-81681595D01*
X160449849Y-81699638D01*
X160511760Y-81732023D01*
X160513338Y-81733573D01*
X164858284Y-86078520D01*
X164858286Y-86078521D01*
X164858290Y-86078524D01*
X164995209Y-86157573D01*
X164995216Y-86157577D01*
X165147943Y-86198501D01*
X165147945Y-86198501D01*
X165313654Y-86198501D01*
X165313670Y-86198500D01*
X173181903Y-86198500D01*
X173248942Y-86218185D01*
X173269584Y-86234819D01*
X173607181Y-86572416D01*
X173640666Y-86633739D01*
X173643500Y-86660097D01*
X173643500Y-98084330D01*
X173643499Y-98084348D01*
X173643499Y-98250054D01*
X173643498Y-98250054D01*
X173660794Y-98314602D01*
X173684423Y-98402785D01*
X173684424Y-98402786D01*
X173691717Y-98415418D01*
X173691718Y-98415420D01*
X173763477Y-98539712D01*
X173763481Y-98539717D01*
X173882349Y-98658585D01*
X173882355Y-98658590D01*
X174764284Y-99540519D01*
X174901215Y-99619577D01*
X175053943Y-99660501D01*
X175053946Y-99660501D01*
X175212508Y-99660501D01*
X175227789Y-99659500D01*
X176750932Y-99659500D01*
X176817971Y-99679185D01*
X176861416Y-99727203D01*
X176921657Y-99845433D01*
X177060483Y-100036510D01*
X177060489Y-100036516D01*
X177063647Y-100040214D01*
X177061977Y-100041640D01*
X177091089Y-100094954D01*
X177086105Y-100164646D01*
X177044233Y-100220579D01*
X177035022Y-100226850D01*
X176986654Y-100256684D01*
X176862684Y-100380654D01*
X176770643Y-100529875D01*
X176770641Y-100529880D01*
X176715494Y-100696302D01*
X176715493Y-100696309D01*
X176705000Y-100799013D01*
X176705000Y-101349000D01*
X177656518Y-101349000D01*
X177645889Y-101367409D01*
X177605000Y-101520009D01*
X177605000Y-101677991D01*
X177645889Y-101830591D01*
X177656518Y-101849000D01*
X176705001Y-101849000D01*
X176705001Y-102398986D01*
X176715494Y-102501697D01*
X176770641Y-102668119D01*
X176770643Y-102668124D01*
X176862684Y-102817345D01*
X176986654Y-102941315D01*
X177135875Y-103033356D01*
X177135880Y-103033358D01*
X177302302Y-103088505D01*
X177302309Y-103088506D01*
X177405019Y-103098999D01*
X177954999Y-103098999D01*
X177955000Y-103098998D01*
X177955000Y-102147482D01*
X177973409Y-102158111D01*
X178126009Y-102199000D01*
X178283991Y-102199000D01*
X178436591Y-102158111D01*
X178455000Y-102147482D01*
X178455000Y-103098999D01*
X179004972Y-103098999D01*
X179004986Y-103098998D01*
X179107697Y-103088505D01*
X179274119Y-103033358D01*
X179274124Y-103033356D01*
X179423345Y-102941315D01*
X179547315Y-102817345D01*
X179639356Y-102668124D01*
X179639358Y-102668119D01*
X179694505Y-102501697D01*
X179694506Y-102501690D01*
X179704999Y-102398986D01*
X179705000Y-102398973D01*
X179705000Y-101849000D01*
X178753482Y-101849000D01*
X178764111Y-101830591D01*
X178805000Y-101677991D01*
X178805000Y-101520009D01*
X178764111Y-101367409D01*
X178753482Y-101349000D01*
X179704999Y-101349000D01*
X179704999Y-100799028D01*
X179704998Y-100799013D01*
X179694505Y-100696302D01*
X179639358Y-100529880D01*
X179639356Y-100529875D01*
X179547315Y-100380654D01*
X179423343Y-100256682D01*
X179374980Y-100226852D01*
X179328255Y-100174904D01*
X179317032Y-100105942D01*
X179344876Y-100041859D01*
X179346362Y-100040233D01*
X179346348Y-100040221D01*
X179349511Y-100036516D01*
X179349517Y-100036510D01*
X179488343Y-99845433D01*
X179595568Y-99634992D01*
X179668553Y-99410368D01*
X179677903Y-99351335D01*
X179705500Y-99177097D01*
X179705500Y-98940902D01*
X179668553Y-98707631D01*
X179613994Y-98539717D01*
X179595568Y-98483008D01*
X179595566Y-98483005D01*
X179595566Y-98483003D01*
X179532383Y-98359000D01*
X179488343Y-98272567D01*
X179349517Y-98081490D01*
X179182510Y-97914483D01*
X179147872Y-97889317D01*
X179105207Y-97833989D01*
X179099228Y-97764375D01*
X179131833Y-97702580D01*
X179147873Y-97688682D01*
X179182510Y-97663517D01*
X179349517Y-97496510D01*
X179488343Y-97305433D01*
X179595568Y-97094992D01*
X179668553Y-96870368D01*
X179669140Y-96866664D01*
X179705500Y-96637097D01*
X179705500Y-96400902D01*
X179668553Y-96167631D01*
X179629541Y-96047566D01*
X179595568Y-95943008D01*
X179595566Y-95943005D01*
X179595566Y-95943003D01*
X179488342Y-95732566D01*
X179468221Y-95704872D01*
X179349517Y-95541490D01*
X179182510Y-95374483D01*
X178991433Y-95235657D01*
X178780996Y-95128433D01*
X178556368Y-95055446D01*
X178323097Y-95018500D01*
X178323092Y-95018500D01*
X178086908Y-95018500D01*
X178086903Y-95018500D01*
X177853631Y-95055446D01*
X177629003Y-95128433D01*
X177418566Y-95235657D01*
X177309550Y-95314862D01*
X177227490Y-95374483D01*
X177227488Y-95374485D01*
X177227487Y-95374485D01*
X177060485Y-95541487D01*
X177060485Y-95541488D01*
X177060483Y-95541490D01*
X177000862Y-95623550D01*
X176921657Y-95732566D01*
X176814433Y-95943003D01*
X176741446Y-96167631D01*
X176704500Y-96400902D01*
X176704500Y-96637097D01*
X176741446Y-96870368D01*
X176814433Y-97094996D01*
X176876038Y-97215901D01*
X176921657Y-97305433D01*
X177060483Y-97496510D01*
X177227490Y-97663517D01*
X177262127Y-97688683D01*
X177304792Y-97744013D01*
X177310771Y-97813626D01*
X177278165Y-97875421D01*
X177262130Y-97889315D01*
X177251955Y-97896708D01*
X177227488Y-97914484D01*
X177060485Y-98081487D01*
X177060485Y-98081488D01*
X177060483Y-98081490D01*
X177000862Y-98163550D01*
X176921657Y-98272566D01*
X176913848Y-98287893D01*
X176871590Y-98370830D01*
X176861417Y-98390795D01*
X176813442Y-98441591D01*
X176750932Y-98458500D01*
X175432097Y-98458500D01*
X175365058Y-98438815D01*
X175344416Y-98422181D01*
X174880819Y-97958584D01*
X174847334Y-97897261D01*
X174844500Y-97870903D01*
X174844500Y-86449060D01*
X174844501Y-86449047D01*
X174844501Y-86280944D01*
X174832142Y-86234819D01*
X174803577Y-86128216D01*
X174755852Y-86045553D01*
X174724524Y-85991290D01*
X174724518Y-85991282D01*
X174127416Y-85394181D01*
X174093931Y-85332858D01*
X174098915Y-85263167D01*
X174140786Y-85207233D01*
X174206251Y-85182816D01*
X174215097Y-85182500D01*
X176726932Y-85182500D01*
X176793971Y-85202185D01*
X176837416Y-85250203D01*
X176897657Y-85368433D01*
X177036483Y-85559510D01*
X177203490Y-85726517D01*
X177262716Y-85769547D01*
X177305381Y-85824875D01*
X177313448Y-85879593D01*
X177311893Y-85899340D01*
X177969941Y-86557387D01*
X177949409Y-86562889D01*
X177812592Y-86641881D01*
X177700881Y-86753592D01*
X177621889Y-86890409D01*
X177616387Y-86910941D01*
X176958340Y-86252894D01*
X176898084Y-86335830D01*
X176790897Y-86546197D01*
X176717934Y-86770752D01*
X176681000Y-87003947D01*
X176681000Y-87240052D01*
X176717934Y-87473247D01*
X176790897Y-87697802D01*
X176898087Y-87908174D01*
X176958338Y-87991104D01*
X176958340Y-87991105D01*
X177616387Y-87333058D01*
X177621889Y-87353591D01*
X177700881Y-87490408D01*
X177812592Y-87602119D01*
X177949409Y-87681111D01*
X177969940Y-87686612D01*
X177531371Y-88125181D01*
X177470048Y-88158666D01*
X177443692Y-88161500D01*
X177380999Y-88161500D01*
X177380980Y-88161501D01*
X177278203Y-88172000D01*
X177278200Y-88172001D01*
X177111668Y-88227185D01*
X177111663Y-88227187D01*
X176962342Y-88319289D01*
X176838289Y-88443342D01*
X176746187Y-88592663D01*
X176746186Y-88592666D01*
X176691001Y-88759203D01*
X176691001Y-88759204D01*
X176691000Y-88759204D01*
X176680500Y-88861983D01*
X176680500Y-90462001D01*
X176680501Y-90462018D01*
X176691000Y-90564796D01*
X176691001Y-90564799D01*
X176746185Y-90731331D01*
X176746186Y-90731334D01*
X176838288Y-90880656D01*
X176962344Y-91004712D01*
X177111666Y-91096814D01*
X177278203Y-91151999D01*
X177380991Y-91162500D01*
X178981008Y-91162499D01*
X179083797Y-91151999D01*
X179250334Y-91096814D01*
X179399656Y-91004712D01*
X179523712Y-90880656D01*
X179615814Y-90731334D01*
X179670999Y-90564797D01*
X179681500Y-90462009D01*
X179681499Y-88861992D01*
X179670999Y-88759203D01*
X179615814Y-88592666D01*
X179523712Y-88443344D01*
X179399656Y-88319288D01*
X179250334Y-88227186D01*
X179083797Y-88172001D01*
X179083795Y-88172000D01*
X178981016Y-88161500D01*
X178918308Y-88161500D01*
X178851269Y-88141815D01*
X178830627Y-88125181D01*
X178392059Y-87686612D01*
X178412591Y-87681111D01*
X178549408Y-87602119D01*
X178661119Y-87490408D01*
X178740111Y-87353591D01*
X178745612Y-87333058D01*
X179403658Y-87991105D01*
X179403658Y-87991104D01*
X179463914Y-87908169D01*
X179463918Y-87908163D01*
X179571102Y-87697802D01*
X179644065Y-87473247D01*
X179681000Y-87240052D01*
X179681000Y-87003947D01*
X179644065Y-86770752D01*
X179571102Y-86546197D01*
X179463914Y-86335828D01*
X179403658Y-86252894D01*
X179403658Y-86252893D01*
X178745612Y-86910940D01*
X178740111Y-86890409D01*
X178661119Y-86753592D01*
X178549408Y-86641881D01*
X178412591Y-86562889D01*
X178392059Y-86557387D01*
X179050105Y-85899340D01*
X179048551Y-85879594D01*
X179062915Y-85811216D01*
X179099284Y-85769547D01*
X179158510Y-85726517D01*
X179325517Y-85559510D01*
X179464343Y-85368433D01*
X179571568Y-85157992D01*
X179644553Y-84933368D01*
X179654341Y-84871568D01*
X179681500Y-84700097D01*
X179681500Y-84463902D01*
X179644553Y-84230631D01*
X179571566Y-84006003D01*
X179464342Y-83795566D01*
X179325517Y-83604490D01*
X179158510Y-83437483D01*
X178967433Y-83298657D01*
X178756996Y-83191433D01*
X178532368Y-83118446D01*
X178299097Y-83081500D01*
X178299092Y-83081500D01*
X178062908Y-83081500D01*
X178062903Y-83081500D01*
X177829631Y-83118446D01*
X177605003Y-83191433D01*
X177394566Y-83298657D01*
X177306133Y-83362908D01*
X177203490Y-83437483D01*
X177203488Y-83437485D01*
X177203487Y-83437485D01*
X177036485Y-83604487D01*
X177036485Y-83604488D01*
X177036483Y-83604490D01*
X176976862Y-83686550D01*
X176897657Y-83795566D01*
X176837417Y-83913795D01*
X176789442Y-83964591D01*
X176726932Y-83981500D01*
X166289098Y-83981500D01*
X166222059Y-83961815D01*
X166201417Y-83945181D01*
X152599573Y-70343337D01*
X152566088Y-70282014D01*
X152565637Y-70279847D01*
X152565499Y-70279153D01*
X152534737Y-70124503D01*
X152478728Y-69989284D01*
X152474397Y-69978827D01*
X152474390Y-69978814D01*
X152386789Y-69847711D01*
X152386786Y-69847707D01*
X152282792Y-69743713D01*
X169718500Y-69743713D01*
X169718500Y-69956287D01*
X169751754Y-70166243D01*
X169789370Y-70282014D01*
X169817444Y-70368414D01*
X169913951Y-70557820D01*
X170038890Y-70729786D01*
X170189213Y-70880109D01*
X170361182Y-71005050D01*
X170369946Y-71009516D01*
X170420742Y-71057491D01*
X170437536Y-71125312D01*
X170414998Y-71191447D01*
X170369946Y-71230484D01*
X170361182Y-71234949D01*
X170189213Y-71359890D01*
X170038890Y-71510213D01*
X169913951Y-71682179D01*
X169817444Y-71871585D01*
X169751753Y-72073760D01*
X169718500Y-72283713D01*
X169718500Y-72496286D01*
X169751753Y-72706239D01*
X169817444Y-72908414D01*
X169913951Y-73097820D01*
X170038890Y-73269786D01*
X170189213Y-73420109D01*
X170361182Y-73545050D01*
X170369946Y-73549516D01*
X170420742Y-73597491D01*
X170437536Y-73665312D01*
X170414998Y-73731447D01*
X170369946Y-73770484D01*
X170361182Y-73774949D01*
X170189213Y-73899890D01*
X170038890Y-74050213D01*
X169913951Y-74222179D01*
X169817444Y-74411585D01*
X169751753Y-74613760D01*
X169718500Y-74823713D01*
X169718500Y-75036286D01*
X169751753Y-75246239D01*
X169817444Y-75448414D01*
X169913951Y-75637820D01*
X170038890Y-75809786D01*
X170189213Y-75960109D01*
X170361179Y-76085048D01*
X170361181Y-76085049D01*
X170361184Y-76085051D01*
X170550588Y-76181557D01*
X170752757Y-76247246D01*
X170962713Y-76280500D01*
X170962714Y-76280500D01*
X171175286Y-76280500D01*
X171175287Y-76280500D01*
X171385243Y-76247246D01*
X171587412Y-76181557D01*
X171776816Y-76085051D01*
X171863138Y-76022335D01*
X171948786Y-75960109D01*
X171948788Y-75960106D01*
X171948792Y-75960104D01*
X172099104Y-75809792D01*
X172099106Y-75809788D01*
X172099109Y-75809786D01*
X172224048Y-75637820D01*
X172224047Y-75637820D01*
X172224051Y-75637816D01*
X172320557Y-75448412D01*
X172386246Y-75246243D01*
X172419500Y-75036287D01*
X172419500Y-74823713D01*
X172386246Y-74613757D01*
X172320557Y-74411588D01*
X172224051Y-74222184D01*
X172099104Y-74050208D01*
X172081031Y-74032135D01*
X178989500Y-74032135D01*
X178989500Y-75827870D01*
X178989501Y-75827876D01*
X178995908Y-75887483D01*
X179046202Y-76022328D01*
X179046206Y-76022335D01*
X179132452Y-76137544D01*
X179132455Y-76137547D01*
X179247664Y-76223793D01*
X179247671Y-76223797D01*
X179382517Y-76274091D01*
X179382516Y-76274091D01*
X179389444Y-76274835D01*
X179442127Y-76280500D01*
X181237872Y-76280499D01*
X181297483Y-76274091D01*
X181432331Y-76223796D01*
X181547546Y-76137546D01*
X181633796Y-76022331D01*
X181684091Y-75887483D01*
X181690500Y-75827873D01*
X181690499Y-74032128D01*
X181684091Y-73972517D01*
X181660977Y-73910546D01*
X181633797Y-73837671D01*
X181633793Y-73837664D01*
X181547547Y-73722455D01*
X181547544Y-73722452D01*
X181432335Y-73636206D01*
X181432328Y-73636202D01*
X181297482Y-73585908D01*
X181297483Y-73585908D01*
X181237883Y-73579501D01*
X181237881Y-73579500D01*
X181237873Y-73579500D01*
X181237865Y-73579500D01*
X181227309Y-73579500D01*
X181160270Y-73559815D01*
X181139628Y-73543181D01*
X180469408Y-72872962D01*
X180532993Y-72855925D01*
X180647007Y-72790099D01*
X180740099Y-72697007D01*
X180805925Y-72582993D01*
X180822962Y-72519408D01*
X181455270Y-73151717D01*
X181455270Y-73151716D01*
X181494622Y-73097554D01*
X181591095Y-72908217D01*
X181656757Y-72706130D01*
X181656757Y-72706127D01*
X181690000Y-72496246D01*
X181690000Y-72283753D01*
X181656757Y-72073872D01*
X181656757Y-72073869D01*
X181591095Y-71871782D01*
X181494624Y-71682449D01*
X181455270Y-71628282D01*
X181455269Y-71628282D01*
X180822962Y-72260590D01*
X180805925Y-72197007D01*
X180740099Y-72082993D01*
X180647007Y-71989901D01*
X180532993Y-71924075D01*
X180469409Y-71907037D01*
X181101716Y-71274728D01*
X181047550Y-71235375D01*
X180858217Y-71138904D01*
X180656129Y-71073242D01*
X180446246Y-71040000D01*
X180233754Y-71040000D01*
X180023872Y-71073242D01*
X180023869Y-71073242D01*
X179821782Y-71138904D01*
X179632439Y-71235380D01*
X179578282Y-71274727D01*
X179578282Y-71274728D01*
X180210591Y-71907037D01*
X180147007Y-71924075D01*
X180032993Y-71989901D01*
X179939901Y-72082993D01*
X179874075Y-72197007D01*
X179857037Y-72260591D01*
X179224728Y-71628282D01*
X179224727Y-71628282D01*
X179185380Y-71682439D01*
X179088904Y-71871782D01*
X179023242Y-72073869D01*
X179023242Y-72073872D01*
X178990000Y-72283753D01*
X178990000Y-72496246D01*
X179023242Y-72706127D01*
X179023242Y-72706130D01*
X179088904Y-72908217D01*
X179185375Y-73097550D01*
X179224728Y-73151716D01*
X179857037Y-72519408D01*
X179874075Y-72582993D01*
X179939901Y-72697007D01*
X180032993Y-72790099D01*
X180147007Y-72855925D01*
X180210590Y-72872962D01*
X179540370Y-73543181D01*
X179479047Y-73576666D01*
X179452698Y-73579500D01*
X179442134Y-73579500D01*
X179442123Y-73579501D01*
X179382516Y-73585908D01*
X179247671Y-73636202D01*
X179247664Y-73636206D01*
X179132455Y-73722452D01*
X179132452Y-73722455D01*
X179046206Y-73837664D01*
X179046202Y-73837671D01*
X178995908Y-73972517D01*
X178991174Y-74016553D01*
X178989501Y-74032123D01*
X178989500Y-74032135D01*
X172081031Y-74032135D01*
X171948792Y-73899896D01*
X171948786Y-73899890D01*
X171776820Y-73774951D01*
X171776115Y-73774591D01*
X171768054Y-73770485D01*
X171717259Y-73722512D01*
X171700463Y-73654692D01*
X171722999Y-73588556D01*
X171768054Y-73549515D01*
X171776816Y-73545051D01*
X171846394Y-73494500D01*
X171948786Y-73420109D01*
X171948788Y-73420106D01*
X171948792Y-73420104D01*
X172099104Y-73269792D01*
X172099106Y-73269788D01*
X172099109Y-73269786D01*
X172224048Y-73097820D01*
X172224047Y-73097820D01*
X172224051Y-73097816D01*
X172320557Y-72908412D01*
X172386246Y-72706243D01*
X172419500Y-72496287D01*
X172419500Y-72283713D01*
X172386246Y-72073757D01*
X172320557Y-71871588D01*
X172224051Y-71682184D01*
X172224049Y-71682181D01*
X172224048Y-71682179D01*
X172099109Y-71510213D01*
X171948786Y-71359890D01*
X171776820Y-71234951D01*
X171776115Y-71234591D01*
X171768054Y-71230485D01*
X171717259Y-71182512D01*
X171700463Y-71114692D01*
X171722999Y-71048556D01*
X171768054Y-71009515D01*
X171776816Y-71005051D01*
X171836989Y-70961333D01*
X171948786Y-70880109D01*
X171948788Y-70880106D01*
X171948792Y-70880104D01*
X172099104Y-70729792D01*
X172099106Y-70729788D01*
X172099109Y-70729786D01*
X172224048Y-70557820D01*
X172224047Y-70557820D01*
X172224051Y-70557816D01*
X172320557Y-70368412D01*
X172386246Y-70166243D01*
X172419500Y-69956287D01*
X172419500Y-69743713D01*
X172386246Y-69533757D01*
X172320557Y-69331588D01*
X172224051Y-69142184D01*
X172224049Y-69142181D01*
X172224048Y-69142179D01*
X172099109Y-68970213D01*
X171985181Y-68856285D01*
X171951696Y-68794962D01*
X171956680Y-68725270D01*
X171998552Y-68669337D01*
X172029529Y-68652422D01*
X172161086Y-68603354D01*
X172161093Y-68603350D01*
X172276187Y-68517190D01*
X172276190Y-68517187D01*
X172362350Y-68402093D01*
X172362354Y-68402086D01*
X172412596Y-68267379D01*
X172412598Y-68267372D01*
X172418999Y-68207844D01*
X172419000Y-68207827D01*
X172419000Y-67560000D01*
X171502012Y-67560000D01*
X171534925Y-67502993D01*
X171569000Y-67375826D01*
X171569000Y-67244174D01*
X171534925Y-67117007D01*
X171502012Y-67060000D01*
X172419000Y-67060000D01*
X172419000Y-66412172D01*
X172418999Y-66412155D01*
X172412598Y-66352627D01*
X172412596Y-66352620D01*
X172362354Y-66217913D01*
X172362350Y-66217906D01*
X172276190Y-66102812D01*
X172276187Y-66102809D01*
X172161093Y-66016649D01*
X172161086Y-66016645D01*
X172026379Y-65966403D01*
X172026372Y-65966401D01*
X171966844Y-65960000D01*
X171319000Y-65960000D01*
X171319000Y-66876988D01*
X171261993Y-66844075D01*
X171134826Y-66810000D01*
X171003174Y-66810000D01*
X170876007Y-66844075D01*
X170819000Y-66876988D01*
X170819000Y-65960000D01*
X170171155Y-65960000D01*
X170111627Y-65966401D01*
X170111620Y-65966403D01*
X169976913Y-66016645D01*
X169976906Y-66016649D01*
X169861812Y-66102809D01*
X169861809Y-66102812D01*
X169775649Y-66217906D01*
X169775645Y-66217913D01*
X169725403Y-66352620D01*
X169725401Y-66352627D01*
X169719000Y-66412155D01*
X169719000Y-67060000D01*
X170635988Y-67060000D01*
X170603075Y-67117007D01*
X170569000Y-67244174D01*
X170569000Y-67375826D01*
X170603075Y-67502993D01*
X170635988Y-67560000D01*
X169719000Y-67560000D01*
X169719000Y-68207844D01*
X169725401Y-68267372D01*
X169725403Y-68267379D01*
X169775645Y-68402086D01*
X169775649Y-68402093D01*
X169861809Y-68517187D01*
X169861812Y-68517190D01*
X169976906Y-68603350D01*
X169976913Y-68603354D01*
X170108470Y-68652422D01*
X170164404Y-68694293D01*
X170188821Y-68759758D01*
X170173969Y-68828031D01*
X170152819Y-68856285D01*
X170038889Y-68970215D01*
X169913951Y-69142179D01*
X169817444Y-69331585D01*
X169751753Y-69533760D01*
X169733563Y-69648609D01*
X169718500Y-69743713D01*
X152282792Y-69743713D01*
X152275292Y-69736213D01*
X152275288Y-69736210D01*
X152144185Y-69648609D01*
X152144172Y-69648602D01*
X151998501Y-69588264D01*
X151998489Y-69588261D01*
X151843845Y-69557500D01*
X151843842Y-69557500D01*
X151686158Y-69557500D01*
X151686155Y-69557500D01*
X151531510Y-69588261D01*
X151531498Y-69588264D01*
X151385827Y-69648602D01*
X151385814Y-69648609D01*
X151254711Y-69736210D01*
X151254707Y-69736213D01*
X151143213Y-69847707D01*
X151143210Y-69847711D01*
X151055609Y-69978814D01*
X151055602Y-69978827D01*
X150995264Y-70124498D01*
X150995261Y-70124510D01*
X150964500Y-70279153D01*
X150964500Y-70436846D01*
X150995261Y-70591489D01*
X150995264Y-70591501D01*
X151055602Y-70737172D01*
X151055606Y-70737180D01*
X151057286Y-70739693D01*
X151057761Y-70741211D01*
X151058479Y-70742554D01*
X151058224Y-70742689D01*
X151078167Y-70806370D01*
X151059686Y-70873751D01*
X151007709Y-70920443D01*
X150938740Y-70931623D01*
X150874675Y-70903740D01*
X150866506Y-70896270D01*
X149966590Y-69996355D01*
X149966588Y-69996352D01*
X149847717Y-69877481D01*
X149847716Y-69877480D01*
X149760904Y-69827360D01*
X149760904Y-69827359D01*
X149760900Y-69827358D01*
X149710785Y-69798423D01*
X149558057Y-69757499D01*
X149399943Y-69757499D01*
X149392347Y-69757499D01*
X149392331Y-69757500D01*
X130261670Y-69757500D01*
X130261654Y-69757499D01*
X130254058Y-69757499D01*
X130095943Y-69757499D01*
X130019579Y-69777961D01*
X129943214Y-69798423D01*
X129943209Y-69798426D01*
X129806290Y-69877475D01*
X129806282Y-69877481D01*
X129216217Y-70467546D01*
X129216214Y-70467548D01*
X129216215Y-70467549D01*
X129111479Y-70572285D01*
X129100385Y-70591501D01*
X129079810Y-70627139D01*
X129032423Y-70709215D01*
X128991499Y-70861943D01*
X128991499Y-70861945D01*
X128991499Y-70928500D01*
X128971814Y-70995539D01*
X128919010Y-71041294D01*
X128867499Y-71052500D01*
X128544130Y-71052500D01*
X128544123Y-71052501D01*
X128484516Y-71058908D01*
X128349671Y-71109202D01*
X128349664Y-71109206D01*
X128234455Y-71195452D01*
X128234452Y-71195455D01*
X128148206Y-71310664D01*
X128148202Y-71310671D01*
X128097908Y-71445517D01*
X128091501Y-71505116D01*
X128091501Y-71505123D01*
X128091500Y-71505135D01*
X128091500Y-73600870D01*
X128091501Y-73600876D01*
X128097908Y-73660483D01*
X128148202Y-73795328D01*
X128148206Y-73795335D01*
X128234452Y-73910544D01*
X128234455Y-73910547D01*
X128349664Y-73996793D01*
X128349671Y-73996797D01*
X128484517Y-74047091D01*
X128484516Y-74047091D01*
X128491444Y-74047835D01*
X128544127Y-74053500D01*
X130639872Y-74053499D01*
X130699483Y-74047091D01*
X130834331Y-73996796D01*
X130949546Y-73910546D01*
X131035796Y-73795331D01*
X131086091Y-73660483D01*
X131092500Y-73600873D01*
X131092499Y-71505128D01*
X131086091Y-71445517D01*
X131072278Y-71408483D01*
X131035797Y-71310671D01*
X131035793Y-71310664D01*
X130949547Y-71195455D01*
X130949166Y-71195170D01*
X130931260Y-71181765D01*
X130889391Y-71125832D01*
X130884407Y-71056140D01*
X130917893Y-70994818D01*
X130979217Y-70961333D01*
X131005573Y-70958500D01*
X135399749Y-70958500D01*
X135466788Y-70978185D01*
X135512543Y-71030989D01*
X135522487Y-71100147D01*
X135493462Y-71163703D01*
X135456044Y-71192985D01*
X135305566Y-71269657D01*
X135249119Y-71310669D01*
X135114490Y-71408483D01*
X135114488Y-71408485D01*
X135114487Y-71408485D01*
X134947485Y-71575487D01*
X134947485Y-71575488D01*
X134947483Y-71575490D01*
X134909127Y-71628282D01*
X134808657Y-71766566D01*
X134701433Y-71977003D01*
X134628446Y-72201631D01*
X134591500Y-72434902D01*
X134591500Y-72671097D01*
X134628446Y-72904368D01*
X134701433Y-73128996D01*
X134773170Y-73269786D01*
X134808657Y-73339433D01*
X134947483Y-73530510D01*
X135114490Y-73697517D01*
X135305567Y-73836343D01*
X135404991Y-73887002D01*
X135516003Y-73943566D01*
X135516005Y-73943566D01*
X135516008Y-73943568D01*
X135605104Y-73972517D01*
X135740631Y-74016553D01*
X135973903Y-74053500D01*
X135973908Y-74053500D01*
X136210097Y-74053500D01*
X136443368Y-74016553D01*
X136667992Y-73943568D01*
X136878433Y-73836343D01*
X137069510Y-73697517D01*
X137236517Y-73530510D01*
X137375343Y-73339433D01*
X137482568Y-73128992D01*
X137555553Y-72904368D01*
X137563226Y-72855925D01*
X137592500Y-72671097D01*
X137592500Y-72434902D01*
X137555553Y-72201631D01*
X137514004Y-72073757D01*
X137482568Y-71977008D01*
X137482566Y-71977005D01*
X137482566Y-71977003D01*
X137375342Y-71766566D01*
X137236517Y-71575490D01*
X137069510Y-71408483D01*
X136878433Y-71269657D01*
X136801552Y-71230484D01*
X136727956Y-71192985D01*
X136677160Y-71145010D01*
X136660365Y-71077189D01*
X136682902Y-71011054D01*
X136737618Y-70967603D01*
X136784251Y-70958500D01*
X149178903Y-70958500D01*
X149245942Y-70978185D01*
X149266584Y-70994819D01*
X151588941Y-73317176D01*
X151622426Y-73378499D01*
X151617442Y-73448191D01*
X151575570Y-73504124D01*
X151537261Y-73523516D01*
X151531500Y-73525263D01*
X151385827Y-73585602D01*
X151385814Y-73585609D01*
X151254125Y-73673602D01*
X151187447Y-73694480D01*
X151185234Y-73694500D01*
X146009670Y-73694500D01*
X146009654Y-73694499D01*
X146002058Y-73694499D01*
X145843943Y-73694499D01*
X145767579Y-73714961D01*
X145691214Y-73735423D01*
X145691209Y-73735426D01*
X145554290Y-73814475D01*
X145554282Y-73814481D01*
X138725584Y-80643181D01*
X138664261Y-80676666D01*
X138637903Y-80679500D01*
X130007670Y-80679500D01*
X130007654Y-80679499D01*
X130000058Y-80679499D01*
X129841943Y-80679499D01*
X129765579Y-80699961D01*
X129689214Y-80720423D01*
X129689209Y-80720426D01*
X129552290Y-80799475D01*
X129552282Y-80799481D01*
X128962217Y-81389546D01*
X128962214Y-81389548D01*
X128962215Y-81389549D01*
X128857478Y-81494286D01*
X128807361Y-81581094D01*
X128807359Y-81581096D01*
X128778425Y-81631209D01*
X128778424Y-81631210D01*
X128762544Y-81690472D01*
X128737499Y-81783943D01*
X128737499Y-81783945D01*
X128737499Y-81856500D01*
X128717814Y-81923539D01*
X128665010Y-81969294D01*
X128613499Y-81980500D01*
X128290130Y-81980500D01*
X128290123Y-81980501D01*
X128230516Y-81986908D01*
X128095671Y-82037202D01*
X128095664Y-82037206D01*
X127980455Y-82123452D01*
X127980452Y-82123455D01*
X127894206Y-82238664D01*
X127894202Y-82238671D01*
X127843908Y-82373517D01*
X127837501Y-82433116D01*
X127837501Y-82433123D01*
X127837500Y-82433135D01*
X125214500Y-82433135D01*
X125214500Y-76934947D01*
X128092000Y-76934947D01*
X128092000Y-77171052D01*
X128128934Y-77404247D01*
X128201897Y-77628802D01*
X128309087Y-77839174D01*
X128369338Y-77922104D01*
X128369340Y-77922105D01*
X129109037Y-77182408D01*
X129126075Y-77245993D01*
X129191901Y-77360007D01*
X129284993Y-77453099D01*
X129399007Y-77518925D01*
X129462590Y-77535962D01*
X128722893Y-78275658D01*
X128805828Y-78335914D01*
X129016197Y-78443102D01*
X129240752Y-78516065D01*
X129240751Y-78516065D01*
X129473948Y-78553000D01*
X129710052Y-78553000D01*
X129943247Y-78516065D01*
X130167802Y-78443102D01*
X130378163Y-78335918D01*
X130378169Y-78335914D01*
X130461104Y-78275658D01*
X130461105Y-78275658D01*
X129721408Y-77535962D01*
X129784993Y-77518925D01*
X129899007Y-77453099D01*
X129992099Y-77360007D01*
X130057925Y-77245993D01*
X130074962Y-77182409D01*
X130814658Y-77922105D01*
X130814658Y-77922104D01*
X130874914Y-77839169D01*
X130874918Y-77839163D01*
X130982102Y-77628802D01*
X131055065Y-77404247D01*
X131092000Y-77171052D01*
X131092000Y-76934947D01*
X134592000Y-76934947D01*
X134592000Y-77171052D01*
X134628934Y-77404247D01*
X134701897Y-77628802D01*
X134809087Y-77839174D01*
X134869338Y-77922104D01*
X134869340Y-77922105D01*
X135609037Y-77182408D01*
X135626075Y-77245993D01*
X135691901Y-77360007D01*
X135784993Y-77453099D01*
X135899007Y-77518925D01*
X135962590Y-77535962D01*
X135222893Y-78275658D01*
X135305828Y-78335914D01*
X135516197Y-78443102D01*
X135740752Y-78516065D01*
X135740751Y-78516065D01*
X135973948Y-78553000D01*
X136210052Y-78553000D01*
X136443247Y-78516065D01*
X136667802Y-78443102D01*
X136878163Y-78335918D01*
X136878169Y-78335914D01*
X136961104Y-78275658D01*
X136961105Y-78275658D01*
X136221408Y-77535962D01*
X136284993Y-77518925D01*
X136399007Y-77453099D01*
X136492099Y-77360007D01*
X136557925Y-77245993D01*
X136574962Y-77182408D01*
X137314658Y-77922105D01*
X137314658Y-77922104D01*
X137374914Y-77839169D01*
X137374918Y-77839163D01*
X137482102Y-77628802D01*
X137555065Y-77404247D01*
X137592000Y-77171052D01*
X137592000Y-76934947D01*
X137555065Y-76701752D01*
X137482102Y-76477197D01*
X137374914Y-76266828D01*
X137314658Y-76183894D01*
X137314658Y-76183893D01*
X136574962Y-76923590D01*
X136557925Y-76860007D01*
X136492099Y-76745993D01*
X136399007Y-76652901D01*
X136284993Y-76587075D01*
X136221409Y-76570037D01*
X136961105Y-75830340D01*
X136961104Y-75830338D01*
X136878174Y-75770087D01*
X136667802Y-75662897D01*
X136443247Y-75589934D01*
X136443248Y-75589934D01*
X136210052Y-75553000D01*
X135973948Y-75553000D01*
X135740752Y-75589934D01*
X135516197Y-75662897D01*
X135305830Y-75770084D01*
X135222894Y-75830340D01*
X135962591Y-76570037D01*
X135899007Y-76587075D01*
X135784993Y-76652901D01*
X135691901Y-76745993D01*
X135626075Y-76860007D01*
X135609037Y-76923591D01*
X134869340Y-76183894D01*
X134809084Y-76266830D01*
X134701897Y-76477197D01*
X134628934Y-76701752D01*
X134592000Y-76934947D01*
X131092000Y-76934947D01*
X131055065Y-76701752D01*
X130982102Y-76477197D01*
X130874914Y-76266828D01*
X130814658Y-76183894D01*
X130814658Y-76183893D01*
X130074962Y-76923590D01*
X130057925Y-76860007D01*
X129992099Y-76745993D01*
X129899007Y-76652901D01*
X129784993Y-76587075D01*
X129721409Y-76570037D01*
X130461105Y-75830340D01*
X130461104Y-75830339D01*
X130378174Y-75770087D01*
X130167802Y-75662897D01*
X129943247Y-75589934D01*
X129943248Y-75589934D01*
X129710052Y-75553000D01*
X129473948Y-75553000D01*
X129240752Y-75589934D01*
X129016197Y-75662897D01*
X128805830Y-75770084D01*
X128722894Y-75830340D01*
X129462591Y-76570037D01*
X129399007Y-76587075D01*
X129284993Y-76652901D01*
X129191901Y-76745993D01*
X129126075Y-76860007D01*
X129109037Y-76923591D01*
X128369340Y-76183894D01*
X128309084Y-76266830D01*
X128201897Y-76477197D01*
X128128934Y-76701752D01*
X128092000Y-76934947D01*
X125214500Y-76934947D01*
X125214500Y-65637947D01*
X128092000Y-65637947D01*
X128092000Y-65874052D01*
X128128934Y-66107247D01*
X128201897Y-66331802D01*
X128309087Y-66542174D01*
X128369338Y-66625104D01*
X128369340Y-66625105D01*
X129109037Y-65885408D01*
X129126075Y-65948993D01*
X129191901Y-66063007D01*
X129284993Y-66156099D01*
X129399007Y-66221925D01*
X129462590Y-66238962D01*
X128722893Y-66978658D01*
X128805828Y-67038914D01*
X129016197Y-67146102D01*
X129240752Y-67219065D01*
X129240751Y-67219065D01*
X129473948Y-67256000D01*
X129710052Y-67256000D01*
X129943247Y-67219065D01*
X130167802Y-67146102D01*
X130378163Y-67038918D01*
X130378169Y-67038914D01*
X130461104Y-66978658D01*
X130461105Y-66978658D01*
X129721408Y-66238962D01*
X129784993Y-66221925D01*
X129899007Y-66156099D01*
X129992099Y-66063007D01*
X130057925Y-65948993D01*
X130074962Y-65885409D01*
X130814658Y-66625105D01*
X130814658Y-66625104D01*
X130874914Y-66542169D01*
X130874918Y-66542163D01*
X130982102Y-66331802D01*
X131055065Y-66107247D01*
X131092000Y-65874052D01*
X131092000Y-65637947D01*
X131055065Y-65404752D01*
X130982102Y-65180197D01*
X130874914Y-64969828D01*
X130814658Y-64886894D01*
X130814658Y-64886893D01*
X130074962Y-65626590D01*
X130057925Y-65563007D01*
X129992099Y-65448993D01*
X129899007Y-65355901D01*
X129784993Y-65290075D01*
X129721409Y-65273037D01*
X130461105Y-64533340D01*
X130461104Y-64533338D01*
X130378174Y-64473087D01*
X130167802Y-64365897D01*
X129943247Y-64292934D01*
X129943248Y-64292934D01*
X129710052Y-64256000D01*
X129473948Y-64256000D01*
X129240752Y-64292934D01*
X129016197Y-64365897D01*
X128805830Y-64473084D01*
X128722894Y-64533340D01*
X129462591Y-65273037D01*
X129399007Y-65290075D01*
X129284993Y-65355901D01*
X129191901Y-65448993D01*
X129126075Y-65563007D01*
X129109037Y-65626591D01*
X128369340Y-64886894D01*
X128309084Y-64969830D01*
X128201897Y-65180197D01*
X128128934Y-65404752D01*
X128092000Y-65637947D01*
X125214500Y-65637947D01*
X125214500Y-60208135D01*
X128091500Y-60208135D01*
X128091500Y-62303870D01*
X128091501Y-62303876D01*
X128097908Y-62363483D01*
X128148202Y-62498328D01*
X128148206Y-62498335D01*
X128234452Y-62613544D01*
X128234455Y-62613547D01*
X128349664Y-62699793D01*
X128349671Y-62699797D01*
X128484517Y-62750091D01*
X128484516Y-62750091D01*
X128491444Y-62750835D01*
X128544127Y-62756500D01*
X130639872Y-62756499D01*
X130699483Y-62750091D01*
X130834331Y-62699796D01*
X130949546Y-62613546D01*
X131035796Y-62498331D01*
X131086091Y-62363483D01*
X131092500Y-62303873D01*
X131092500Y-61980500D01*
X131112185Y-61913461D01*
X131164989Y-61867706D01*
X131216500Y-61856500D01*
X132202903Y-61856500D01*
X132269942Y-61876185D01*
X132290584Y-61892819D01*
X134262139Y-63864374D01*
X134262149Y-63864385D01*
X134266479Y-63868715D01*
X134266480Y-63868716D01*
X134378284Y-63980520D01*
X134465095Y-64030639D01*
X134465097Y-64030641D01*
X134515213Y-64059576D01*
X134515215Y-64059577D01*
X134667942Y-64100500D01*
X134667943Y-64100500D01*
X135550100Y-64100500D01*
X135617139Y-64120185D01*
X135662894Y-64172989D01*
X135672838Y-64242147D01*
X135643813Y-64305703D01*
X135588418Y-64342431D01*
X135516197Y-64365897D01*
X135305830Y-64473084D01*
X135222894Y-64533340D01*
X135962591Y-65273037D01*
X135899007Y-65290075D01*
X135784993Y-65355901D01*
X135691901Y-65448993D01*
X135626075Y-65563007D01*
X135609037Y-65626591D01*
X134869340Y-64886894D01*
X134809084Y-64969830D01*
X134701897Y-65180197D01*
X134628934Y-65404752D01*
X134592000Y-65637947D01*
X134592000Y-65874052D01*
X134628934Y-66107247D01*
X134701897Y-66331802D01*
X134809087Y-66542174D01*
X134869338Y-66625104D01*
X134869340Y-66625105D01*
X135609037Y-65885408D01*
X135626075Y-65948993D01*
X135691901Y-66063007D01*
X135784993Y-66156099D01*
X135899007Y-66221925D01*
X135962590Y-66238962D01*
X135222893Y-66978658D01*
X135305828Y-67038914D01*
X135516197Y-67146102D01*
X135740752Y-67219065D01*
X135740751Y-67219065D01*
X135973948Y-67256000D01*
X136210052Y-67256000D01*
X136443247Y-67219065D01*
X136667802Y-67146102D01*
X136878163Y-67038918D01*
X136878169Y-67038914D01*
X136961104Y-66978658D01*
X136961105Y-66978658D01*
X136221408Y-66238962D01*
X136284993Y-66221925D01*
X136399007Y-66156099D01*
X136492099Y-66063007D01*
X136557925Y-65948993D01*
X136574962Y-65885408D01*
X137314658Y-66625105D01*
X137314658Y-66625104D01*
X137374914Y-66542169D01*
X137374918Y-66542163D01*
X137482102Y-66331802D01*
X137555065Y-66107247D01*
X137592000Y-65874052D01*
X137592000Y-65637947D01*
X137555065Y-65404752D01*
X137482102Y-65180197D01*
X137374914Y-64969828D01*
X137314658Y-64886894D01*
X137314658Y-64886893D01*
X136574962Y-65626590D01*
X136557925Y-65563007D01*
X136492099Y-65448993D01*
X136399007Y-65355901D01*
X136284993Y-65290075D01*
X136221409Y-65273037D01*
X136961105Y-64533340D01*
X136961104Y-64533338D01*
X136878174Y-64473087D01*
X136667802Y-64365897D01*
X136595582Y-64342431D01*
X136537906Y-64302993D01*
X136510708Y-64238635D01*
X136522623Y-64169788D01*
X136569867Y-64118313D01*
X136633900Y-64100500D01*
X140542903Y-64100500D01*
X140609942Y-64120185D01*
X140630584Y-64136819D01*
X144992961Y-68499197D01*
X145022957Y-68554131D01*
X145024494Y-68553665D01*
X145026264Y-68559501D01*
X145086602Y-68705172D01*
X145086609Y-68705185D01*
X145174210Y-68836288D01*
X145174213Y-68836292D01*
X145285707Y-68947786D01*
X145285711Y-68947789D01*
X145416814Y-69035390D01*
X145416827Y-69035397D01*
X145562498Y-69095735D01*
X145562503Y-69095737D01*
X145717153Y-69126499D01*
X145717156Y-69126500D01*
X145717158Y-69126500D01*
X145874844Y-69126500D01*
X145874845Y-69126499D01*
X146029497Y-69095737D01*
X146175179Y-69035394D01*
X146306289Y-68947789D01*
X146417789Y-68836289D01*
X146505394Y-68705179D01*
X146565737Y-68559497D01*
X146596500Y-68404842D01*
X146596500Y-68247158D01*
X146596500Y-68247155D01*
X146596499Y-68247153D01*
X146588680Y-68207844D01*
X146565737Y-68092503D01*
X146565735Y-68092498D01*
X146505397Y-67946827D01*
X146505390Y-67946814D01*
X146417789Y-67815711D01*
X146417786Y-67815707D01*
X146306292Y-67704213D01*
X146306288Y-67704210D01*
X146175185Y-67616609D01*
X146175172Y-67616602D01*
X146029501Y-67556264D01*
X146029489Y-67556261D01*
X145874845Y-67525500D01*
X145874842Y-67525500D01*
X145769098Y-67525500D01*
X145702059Y-67505815D01*
X145681417Y-67489181D01*
X141330590Y-63138355D01*
X141330588Y-63138352D01*
X141211717Y-63019481D01*
X141211716Y-63019480D01*
X141124904Y-62969360D01*
X141124904Y-62969359D01*
X141124900Y-62969358D01*
X141074785Y-62940423D01*
X140922057Y-62899499D01*
X140763943Y-62899499D01*
X140756347Y-62899499D01*
X140756331Y-62899500D01*
X136672452Y-62899500D01*
X136605413Y-62879815D01*
X136559658Y-62827011D01*
X136549714Y-62757853D01*
X136578739Y-62694297D01*
X136634131Y-62657569D01*
X136667992Y-62646568D01*
X136878433Y-62539343D01*
X137069510Y-62400517D01*
X137236517Y-62233510D01*
X137375343Y-62042433D01*
X137482568Y-61831992D01*
X137555553Y-61607368D01*
X137592500Y-61374097D01*
X137592500Y-61137902D01*
X137555553Y-60904631D01*
X137513589Y-60775480D01*
X137482568Y-60680008D01*
X137482566Y-60680005D01*
X137482566Y-60680003D01*
X137396208Y-60510517D01*
X137375343Y-60469567D01*
X137236517Y-60278490D01*
X137069510Y-60111483D01*
X136878433Y-59972657D01*
X136667996Y-59865433D01*
X136443368Y-59792446D01*
X136210097Y-59755500D01*
X136210092Y-59755500D01*
X135973908Y-59755500D01*
X135973903Y-59755500D01*
X135740631Y-59792446D01*
X135516003Y-59865433D01*
X135305566Y-59972657D01*
X135249119Y-60013669D01*
X135114490Y-60111483D01*
X135114488Y-60111485D01*
X135114487Y-60111485D01*
X134947485Y-60278487D01*
X134947485Y-60278488D01*
X134947483Y-60278490D01*
X134887862Y-60360550D01*
X134808657Y-60469566D01*
X134701433Y-60680003D01*
X134628446Y-60904631D01*
X134591500Y-61137902D01*
X134591500Y-61374097D01*
X134628446Y-61607368D01*
X134701433Y-61831996D01*
X134808657Y-62042433D01*
X134947483Y-62233510D01*
X135114490Y-62400517D01*
X135305567Y-62539343D01*
X135404991Y-62590002D01*
X135516003Y-62646566D01*
X135516005Y-62646566D01*
X135516008Y-62646568D01*
X135549868Y-62657569D01*
X135607542Y-62697007D01*
X135634740Y-62761366D01*
X135622825Y-62830212D01*
X135575581Y-62881688D01*
X135511548Y-62899500D01*
X135047097Y-62899500D01*
X134980058Y-62879815D01*
X134959416Y-62863181D01*
X132990590Y-60894355D01*
X132990588Y-60894352D01*
X132871717Y-60775481D01*
X132871716Y-60775480D01*
X132784904Y-60725360D01*
X132784904Y-60725359D01*
X132784900Y-60725358D01*
X132734785Y-60696423D01*
X132582057Y-60655499D01*
X132423943Y-60655499D01*
X132416347Y-60655499D01*
X132416331Y-60655500D01*
X131216499Y-60655500D01*
X131149460Y-60635815D01*
X131103705Y-60583011D01*
X131092499Y-60531500D01*
X131092499Y-60208129D01*
X131092498Y-60208123D01*
X131092497Y-60208116D01*
X131086091Y-60148517D01*
X131076912Y-60123908D01*
X131035797Y-60013671D01*
X131035793Y-60013664D01*
X130949547Y-59898455D01*
X130949544Y-59898452D01*
X130834335Y-59812206D01*
X130834328Y-59812202D01*
X130699482Y-59761908D01*
X130699483Y-59761908D01*
X130639883Y-59755501D01*
X130639881Y-59755500D01*
X130639873Y-59755500D01*
X130639864Y-59755500D01*
X128544129Y-59755500D01*
X128544123Y-59755501D01*
X128484516Y-59761908D01*
X128349671Y-59812202D01*
X128349664Y-59812206D01*
X128234455Y-59898452D01*
X128234452Y-59898455D01*
X128148206Y-60013664D01*
X128148202Y-60013671D01*
X128097908Y-60148517D01*
X128091501Y-60208116D01*
X128091501Y-60208123D01*
X128091500Y-60208135D01*
X125214500Y-60208135D01*
X125214500Y-54220905D01*
X126245500Y-54220905D01*
X126245500Y-54491094D01*
X126275749Y-54759558D01*
X126275751Y-54759570D01*
X126335872Y-55022979D01*
X126425106Y-55277996D01*
X126542331Y-55521416D01*
X126542333Y-55521419D01*
X126686077Y-55750187D01*
X126854532Y-55961422D01*
X127045578Y-56152468D01*
X127256813Y-56320923D01*
X127485581Y-56464667D01*
X127729005Y-56581894D01*
X127984020Y-56671127D01*
X127984022Y-56671127D01*
X127984023Y-56671128D01*
X128247429Y-56731249D01*
X128515905Y-56761499D01*
X128515906Y-56761500D01*
X128515910Y-56761500D01*
X128786094Y-56761500D01*
X128786094Y-56761499D01*
X129054571Y-56731249D01*
X129317977Y-56671128D01*
X129572995Y-56581894D01*
X129816419Y-56464667D01*
X130045187Y-56320923D01*
X130256422Y-56152468D01*
X130447468Y-55961422D01*
X130615923Y-55750187D01*
X130759667Y-55521419D01*
X130876894Y-55277995D01*
X130966128Y-55022977D01*
X131026249Y-54759571D01*
X131056500Y-54491090D01*
X131056500Y-54220910D01*
X131026249Y-53952429D01*
X130966128Y-53689023D01*
X130876894Y-53434005D01*
X130759667Y-53190581D01*
X130615923Y-52961813D01*
X130447468Y-52750578D01*
X130256422Y-52559532D01*
X130045187Y-52391077D01*
X129816419Y-52247333D01*
X129816416Y-52247331D01*
X129572996Y-52130106D01*
X129317978Y-52040872D01*
X129317980Y-52040872D01*
X129120422Y-51995781D01*
X129054571Y-51980751D01*
X129054567Y-51980750D01*
X129054558Y-51980749D01*
X128786094Y-51950500D01*
X128786090Y-51950500D01*
X128515910Y-51950500D01*
X128515906Y-51950500D01*
X128247441Y-51980749D01*
X128247429Y-51980751D01*
X127984020Y-52040872D01*
X127729003Y-52130106D01*
X127485583Y-52247331D01*
X127256814Y-52391076D01*
X127045578Y-52559531D01*
X126854531Y-52750578D01*
X126686076Y-52961814D01*
X126542331Y-53190583D01*
X126425106Y-53434003D01*
X126335872Y-53689020D01*
X126275751Y-53952429D01*
X126275749Y-53952441D01*
X126245500Y-54220905D01*
X125214500Y-54220905D01*
X125214500Y-52423427D01*
X125214816Y-52414581D01*
X125229130Y-52214443D01*
X125229131Y-52214434D01*
X125231646Y-52196938D01*
X125273356Y-52005199D01*
X125278333Y-51988248D01*
X125346911Y-51804385D01*
X125354259Y-51788298D01*
X125416815Y-51673734D01*
X125448291Y-51616089D01*
X125457845Y-51601221D01*
X125575448Y-51444123D01*
X125587020Y-51430769D01*
X125725769Y-51292020D01*
X125739123Y-51280448D01*
X125896221Y-51162845D01*
X125911089Y-51153291D01*
X126083298Y-51059258D01*
X126099385Y-51051911D01*
X126283248Y-50983333D01*
X126300199Y-50978356D01*
X126491938Y-50936646D01*
X126509436Y-50934130D01*
X126709582Y-50919816D01*
X126718428Y-50919500D01*
X126779892Y-50919500D01*
X139636414Y-50919500D01*
X139663592Y-50927480D01*
G37*
%TD.AperFunction*%
%TD*%
M02*
