%TF.GenerationSoftware,KiCad,Pcbnew,9.0.1*%
%TF.CreationDate,2025-05-27T10:12:55+02:00*%
%TF.ProjectId,Heizungsbooster,4865697a-756e-4677-9362-6f6f73746572,rev?*%
%TF.SameCoordinates,Original*%
%TF.FileFunction,Paste,Top*%
%TF.FilePolarity,Positive*%
%FSLAX46Y46*%
G04 Gerber Fmt 4.6, Leading zero omitted, Abs format (unit mm)*
G04 Created by KiCad (PCBNEW 9.0.1) date 2025-05-27 10:12:55*
%MOMM*%
%LPD*%
G01*
G04 APERTURE LIST*
G04 Aperture macros list*
%AMRoundRect*
0 Rectangle with rounded corners*
0 $1 Rounding radius*
0 $2 $3 $4 $5 $6 $7 $8 $9 X,Y pos of 4 corners*
0 Add a 4 corners polygon primitive as box body*
4,1,4,$2,$3,$4,$5,$6,$7,$8,$9,$2,$3,0*
0 Add four circle primitives for the rounded corners*
1,1,$1+$1,$2,$3*
1,1,$1+$1,$4,$5*
1,1,$1+$1,$6,$7*
1,1,$1+$1,$8,$9*
0 Add four rect primitives between the rounded corners*
20,1,$1+$1,$2,$3,$4,$5,0*
20,1,$1+$1,$4,$5,$6,$7,0*
20,1,$1+$1,$6,$7,$8,$9,0*
20,1,$1+$1,$8,$9,$2,$3,0*%
G04 Aperture macros list end*
%ADD10RoundRect,0.250000X-0.312500X-0.625000X0.312500X-0.625000X0.312500X0.625000X-0.312500X0.625000X0*%
%ADD11RoundRect,0.250000X0.650000X-0.325000X0.650000X0.325000X-0.650000X0.325000X-0.650000X-0.325000X0*%
%ADD12R,2.500000X1.000000*%
%ADD13R,1.000000X1.800000*%
%ADD14RoundRect,0.250000X0.312500X0.625000X-0.312500X0.625000X-0.312500X-0.625000X0.312500X-0.625000X0*%
%ADD15RoundRect,0.375000X-0.625000X-0.375000X0.625000X-0.375000X0.625000X0.375000X-0.625000X0.375000X0*%
%ADD16RoundRect,0.500000X-0.500000X-1.400000X0.500000X-1.400000X0.500000X1.400000X-0.500000X1.400000X0*%
G04 APERTURE END LIST*
D10*
%TO.C,R8*%
X169672000Y-82804000D03*
X172597000Y-82804000D03*
%TD*%
D11*
%TO.C,C1*%
X148844000Y-91010000D03*
X148844000Y-88060000D03*
%TD*%
D12*
%TO.C,U1*%
X148844000Y-68326000D03*
X148844000Y-70326000D03*
X148844000Y-72326000D03*
X148844000Y-74326000D03*
X148844000Y-76326000D03*
X148844000Y-78326000D03*
X148844000Y-80326000D03*
X148844000Y-82326000D03*
D13*
X151444000Y-83826000D03*
X153444000Y-83826000D03*
X155444000Y-83826000D03*
X157444000Y-83826000D03*
X159444000Y-83826000D03*
X161444000Y-83826000D03*
D12*
X164044000Y-82326000D03*
X164044000Y-80326000D03*
X164044000Y-78326000D03*
X164044000Y-76326000D03*
X164044000Y-74326000D03*
X164044000Y-72326000D03*
X164044000Y-70326000D03*
X164044000Y-68326000D03*
%TD*%
D14*
%TO.C,R1*%
X143956500Y-83191000D03*
X141031500Y-83191000D03*
%TD*%
D10*
%TO.C,R6*%
X141035500Y-74301000D03*
X143960500Y-74301000D03*
%TD*%
D15*
%TO.C,U3*%
X144892000Y-99340000D03*
X144892000Y-101640000D03*
D16*
X151192000Y-101640000D03*
D15*
X144892000Y-103940000D03*
%TD*%
D10*
%TO.C,R11*%
X141031500Y-76756333D03*
X143956500Y-76756333D03*
%TD*%
%TO.C,R7*%
X141031500Y-79254000D03*
X143956500Y-79254000D03*
%TD*%
%TO.C,R5*%
X141031500Y-71888000D03*
X143956500Y-71888000D03*
%TD*%
D14*
%TO.C,R9*%
X143956500Y-69475000D03*
X141031500Y-69475000D03*
%TD*%
D10*
%TO.C,R10*%
X169672000Y-80383000D03*
X172597000Y-80383000D03*
%TD*%
M02*
