%TF.GenerationSoftware,KiCad,Pcbnew,9.0.1*%
%TF.CreationDate,2025-05-27T10:12:55+02:00*%
%TF.ProjectId,Heizungsbooster,4865697a-756e-4677-9362-6f6f73746572,rev?*%
%TF.SameCoordinates,Original*%
%TF.FileFunction,Copper,L1,Top*%
%TF.FilePolarity,Positive*%
%FSLAX46Y46*%
G04 Gerber Fmt 4.6, Leading zero omitted, Abs format (unit mm)*
G04 Created by KiCad (PCBNEW 9.0.1) date 2025-05-27 10:12:55*
%MOMM*%
%LPD*%
G01*
G04 APERTURE LIST*
G04 Aperture macros list*
%AMRoundRect*
0 Rectangle with rounded corners*
0 $1 Rounding radius*
0 $2 $3 $4 $5 $6 $7 $8 $9 X,Y pos of 4 corners*
0 Add a 4 corners polygon primitive as box body*
4,1,4,$2,$3,$4,$5,$6,$7,$8,$9,$2,$3,0*
0 Add four circle primitives for the rounded corners*
1,1,$1+$1,$2,$3*
1,1,$1+$1,$4,$5*
1,1,$1+$1,$6,$7*
1,1,$1+$1,$8,$9*
0 Add four rect primitives between the rounded corners*
20,1,$1+$1,$2,$3,$4,$5,0*
20,1,$1+$1,$4,$5,$6,$7,0*
20,1,$1+$1,$6,$7,$8,$9,0*
20,1,$1+$1,$8,$9,$2,$3,0*%
G04 Aperture macros list end*
%TA.AperFunction,SMDPad,CuDef*%
%ADD10RoundRect,0.250000X-0.312500X-0.625000X0.312500X-0.625000X0.312500X0.625000X-0.312500X0.625000X0*%
%TD*%
%TA.AperFunction,SMDPad,CuDef*%
%ADD11RoundRect,0.250000X0.650000X-0.325000X0.650000X0.325000X-0.650000X0.325000X-0.650000X-0.325000X0*%
%TD*%
%TA.AperFunction,SMDPad,CuDef*%
%ADD12R,2.500000X1.000000*%
%TD*%
%TA.AperFunction,SMDPad,CuDef*%
%ADD13R,1.000000X1.800000*%
%TD*%
%TA.AperFunction,SMDPad,CuDef*%
%ADD14RoundRect,0.250000X0.312500X0.625000X-0.312500X0.625000X-0.312500X-0.625000X0.312500X-0.625000X0*%
%TD*%
%TA.AperFunction,ComponentPad*%
%ADD15RoundRect,0.250000X0.750000X-0.750000X0.750000X0.750000X-0.750000X0.750000X-0.750000X-0.750000X0*%
%TD*%
%TA.AperFunction,ComponentPad*%
%ADD16C,2.000000*%
%TD*%
%TA.AperFunction,ComponentPad*%
%ADD17R,1.700000X1.700000*%
%TD*%
%TA.AperFunction,ComponentPad*%
%ADD18C,1.700000*%
%TD*%
%TA.AperFunction,ComponentPad*%
%ADD19R,1.730000X2.030000*%
%TD*%
%TA.AperFunction,ComponentPad*%
%ADD20O,1.730000X2.030000*%
%TD*%
%TA.AperFunction,ComponentPad*%
%ADD21R,2.000000X2.000000*%
%TD*%
%TA.AperFunction,ComponentPad*%
%ADD22RoundRect,0.250000X1.000000X-1.000000X1.000000X1.000000X-1.000000X1.000000X-1.000000X-1.000000X0*%
%TD*%
%TA.AperFunction,ComponentPad*%
%ADD23C,2.500000*%
%TD*%
%TA.AperFunction,SMDPad,CuDef*%
%ADD24RoundRect,0.375000X-0.625000X-0.375000X0.625000X-0.375000X0.625000X0.375000X-0.625000X0.375000X0*%
%TD*%
%TA.AperFunction,SMDPad,CuDef*%
%ADD25RoundRect,0.500000X-0.500000X-1.400000X0.500000X-1.400000X0.500000X1.400000X-0.500000X1.400000X0*%
%TD*%
%TA.AperFunction,ComponentPad*%
%ADD26R,1.905000X2.000000*%
%TD*%
%TA.AperFunction,ComponentPad*%
%ADD27O,1.905000X2.000000*%
%TD*%
%TA.AperFunction,ViaPad*%
%ADD28C,0.600000*%
%TD*%
%TA.AperFunction,ViaPad*%
%ADD29C,1.000000*%
%TD*%
%TA.AperFunction,Conductor*%
%ADD30C,0.600000*%
%TD*%
%TA.AperFunction,Conductor*%
%ADD31C,0.200000*%
%TD*%
%TA.AperFunction,Conductor*%
%ADD32C,1.500000*%
%TD*%
%TA.AperFunction,Conductor*%
%ADD33C,1.000000*%
%TD*%
G04 APERTURE END LIST*
D10*
%TO.P,R8,1*%
%TO.N,GPIO15*%
X169672000Y-82804000D03*
%TO.P,R8,2*%
%TO.N,GND*%
X172597000Y-82804000D03*
%TD*%
D11*
%TO.P,C1,1*%
%TO.N,GND*%
X148844000Y-91010000D03*
%TO.P,C1,2*%
%TO.N,3V3*%
X148844000Y-88060000D03*
%TD*%
D12*
%TO.P,U1,1,RST*%
%TO.N,RST*%
X148844000Y-68326000D03*
%TO.P,U1,2,ADC*%
%TO.N,ADC*%
X148844000Y-70326000D03*
%TO.P,U1,3,EN*%
%TO.N,EN*%
X148844000Y-72326000D03*
%TO.P,U1,4,GPIO16*%
%TO.N,SET-BTN*%
X148844000Y-74326000D03*
%TO.P,U1,5,GPIO14*%
%TO.N,MODE-BTN*%
X148844000Y-76326000D03*
%TO.P,U1,6,GPIO12*%
%TO.N,FANS*%
X148844000Y-78326000D03*
%TO.P,U1,7,GPIO13*%
%TO.N,DS18B20*%
X148844000Y-80326000D03*
%TO.P,U1,8,VCC*%
%TO.N,3V3*%
X148844000Y-82326000D03*
D13*
%TO.P,U1,9,GPIO11*%
%TO.N,unconnected-(U1-GPIO11-Pad9)*%
X151444000Y-83826000D03*
%TO.P,U1,10,GPIO10*%
%TO.N,unconnected-(U1-GPIO10-Pad10)*%
X153444000Y-83826000D03*
%TO.P,U1,11,GPIO9*%
%TO.N,unconnected-(U1-GPIO9-Pad11)*%
X155444000Y-83826000D03*
%TO.P,U1,12,GPIO8*%
%TO.N,unconnected-(U1-GPIO8-Pad12)*%
X157444000Y-83826000D03*
%TO.P,U1,13,GPIO7*%
%TO.N,unconnected-(U1-GPIO7-Pad13)*%
X159444000Y-83826000D03*
%TO.P,U1,14,GPIO6*%
%TO.N,unconnected-(U1-GPIO6-Pad14)*%
X161444000Y-83826000D03*
D12*
%TO.P,U1,15,GND*%
%TO.N,GND*%
X164044000Y-82326000D03*
%TO.P,U1,16,GPIO15*%
%TO.N,GPIO15*%
X164044000Y-80326000D03*
%TO.P,U1,17,GPIO2*%
%TO.N,GPIO2*%
X164044000Y-78326000D03*
%TO.P,U1,18,GPIO0*%
%TO.N,FLASH-BTN*%
X164044000Y-76326000D03*
%TO.P,U1,19,GPIO4*%
%TO.N,SDA{slash}D2*%
X164044000Y-74326000D03*
%TO.P,U1,20,GPIO5*%
%TO.N,SCL{slash}D1*%
X164044000Y-72326000D03*
%TO.P,U1,21,RXD*%
%TO.N,RX*%
X164044000Y-70326000D03*
%TO.P,U1,22,TXD*%
%TO.N,TX*%
X164044000Y-68326000D03*
%TD*%
D14*
%TO.P,R1,1*%
%TO.N,DS18B20*%
X143956500Y-83191000D03*
%TO.P,R1,2*%
%TO.N,3V3*%
X141031500Y-83191000D03*
%TD*%
D15*
%TO.P,U4,1,GND*%
%TO.N,GND*%
X178181000Y-113411000D03*
D16*
%TO.P,U4,2,DQ*%
%TO.N,DS18B20*%
X178181000Y-110871000D03*
%TO.P,U4,3,V_{DD}*%
%TO.N,3V3*%
X178181000Y-108331000D03*
%TD*%
D17*
%TO.P,Brd1,1,GND*%
%TO.N,GND*%
X171069000Y-67310000D03*
D18*
%TO.P,Brd1,2,VCC*%
%TO.N,3V3*%
X171069000Y-69850000D03*
%TO.P,Brd1,3,SCL*%
%TO.N,SCL{slash}D1*%
X171069000Y-72390000D03*
%TO.P,Brd1,4,SDA*%
%TO.N,SDA{slash}D2*%
X171069000Y-74930000D03*
%TD*%
D15*
%TO.P,J2,1*%
%TO.N,3V3*%
X178181000Y-89662000D03*
D16*
%TO.P,J2,2*%
%TO.N,GND*%
X178181000Y-87122000D03*
%TO.P,J2,3*%
%TO.N,ADC*%
X178181000Y-84582000D03*
%TD*%
D10*
%TO.P,R6,1*%
%TO.N,Net-(R6-Pad1)*%
X141035500Y-74301000D03*
%TO.P,R6,2*%
%TO.N,3V3*%
X143960500Y-74301000D03*
%TD*%
D19*
%TO.P,M3,1,-*%
%TO.N,Net-(M1--)*%
X164719000Y-111633000D03*
D20*
%TO.P,M3,2,+*%
%TO.N,12V*%
X167259000Y-111633000D03*
%TO.P,M3,3,Tacho*%
%TO.N,unconnected-(M3-Tacho-Pad3)*%
X169799000Y-111633000D03*
%TD*%
D21*
%TO.P,S2,1*%
%TO.N,FLASH-BTN*%
X129592000Y-72553000D03*
D16*
%TO.P,S2,2*%
%TO.N,Net-(R6-Pad1)*%
X136092000Y-72553000D03*
%TO.P,S2,3*%
%TO.N,GND*%
X129592000Y-77053000D03*
%TO.P,S2,4*%
X136092000Y-77053000D03*
%TD*%
D21*
%TO.P,S3,1*%
%TO.N,MODE-BTN*%
X129338000Y-94657000D03*
D16*
%TO.P,S3,2*%
%TO.N,Net-(R7-Pad1)*%
X135838000Y-94657000D03*
%TO.P,S3,3*%
%TO.N,GND*%
X129338000Y-99157000D03*
%TO.P,S3,4*%
X135838000Y-99157000D03*
%TD*%
D22*
%TO.P,J1,1*%
%TO.N,12V*%
X132688000Y-112433000D03*
D23*
%TO.P,J1,2*%
%TO.N,GND*%
X132688000Y-107433000D03*
%TD*%
D15*
%TO.P,U2,1,GND*%
%TO.N,GND*%
X178205000Y-101599000D03*
D16*
%TO.P,U2,2,DQ*%
%TO.N,DS18B20*%
X178205000Y-99059000D03*
%TO.P,U2,3,V_{DD}*%
%TO.N,3V3*%
X178205000Y-96519000D03*
%TD*%
D21*
%TO.P,S1,1*%
%TO.N,RST*%
X129592000Y-61256000D03*
D16*
%TO.P,S1,2*%
%TO.N,Net-(R5-Pad1)*%
X136092000Y-61256000D03*
%TO.P,S1,3*%
%TO.N,GND*%
X129592000Y-65756000D03*
%TO.P,S1,4*%
X136092000Y-65756000D03*
%TD*%
D17*
%TO.P,J6,1*%
%TO.N,TX*%
X180340000Y-61468000D03*
D18*
%TO.P,J6,2*%
%TO.N,RX*%
X180340000Y-64008000D03*
%TD*%
D21*
%TO.P,S4,1*%
%TO.N,SET-BTN*%
X129338000Y-83481000D03*
D16*
%TO.P,S4,2*%
%TO.N,Net-(R11-Pad1)*%
X135838000Y-83481000D03*
%TO.P,S4,3*%
%TO.N,GND*%
X129338000Y-87981000D03*
%TO.P,S4,4*%
X135838000Y-87981000D03*
%TD*%
D24*
%TO.P,U3,1,GND*%
%TO.N,GND*%
X144892000Y-99340000D03*
%TO.P,U3,2,VO*%
%TO.N,3V3*%
X144892000Y-101640000D03*
D25*
X151192000Y-101640000D03*
D24*
%TO.P,U3,3,VI*%
%TO.N,12V*%
X144892000Y-103940000D03*
%TD*%
D10*
%TO.P,R11,1*%
%TO.N,Net-(R11-Pad1)*%
X141031500Y-76756333D03*
%TO.P,R11,2*%
%TO.N,3V3*%
X143956500Y-76756333D03*
%TD*%
%TO.P,R7,1*%
%TO.N,Net-(R7-Pad1)*%
X141031500Y-79254000D03*
%TO.P,R7,2*%
%TO.N,3V3*%
X143956500Y-79254000D03*
%TD*%
%TO.P,R5,1*%
%TO.N,Net-(R5-Pad1)*%
X141031500Y-71888000D03*
%TO.P,R5,2*%
%TO.N,3V3*%
X143956500Y-71888000D03*
%TD*%
D14*
%TO.P,R9,1*%
%TO.N,EN*%
X143956500Y-69475000D03*
%TO.P,R9,2*%
%TO.N,3V3*%
X141031500Y-69475000D03*
%TD*%
D19*
%TO.P,M2,1,-*%
%TO.N,Net-(M1--)*%
X154676000Y-111639000D03*
D20*
%TO.P,M2,2,+*%
%TO.N,12V*%
X157216000Y-111639000D03*
%TO.P,M2,3,Tacho*%
%TO.N,unconnected-(M2-Tacho-Pad3)*%
X159756000Y-111639000D03*
%TD*%
D10*
%TO.P,R10,1*%
%TO.N,GPIO2*%
X169672000Y-80383000D03*
%TO.P,R10,2*%
%TO.N,3V3*%
X172597000Y-80383000D03*
%TD*%
D19*
%TO.P,M1,1,-*%
%TO.N,Net-(M1--)*%
X144653000Y-111633000D03*
D20*
%TO.P,M1,2,+*%
%TO.N,12V*%
X147193000Y-111633000D03*
%TO.P,M1,3,Tacho*%
%TO.N,unconnected-(M1-Tacho-Pad3)*%
X149733000Y-111633000D03*
%TD*%
D17*
%TO.P,J4,1*%
%TO.N,3V3*%
X180340000Y-74930000D03*
D18*
%TO.P,J4,2*%
%TO.N,GND*%
X180340000Y-72390000D03*
%TD*%
D26*
%TO.P,Q1,1,G*%
%TO.N,FANS*%
X168859000Y-98109000D03*
D27*
%TO.P,Q1,2,D*%
%TO.N,Net-(M1--)*%
X166319000Y-98109000D03*
%TO.P,Q1,3,S*%
%TO.N,GND*%
X163779000Y-98109000D03*
%TD*%
D28*
%TO.N,GND*%
X148844000Y-97663000D03*
D29*
X138602500Y-101518500D03*
X136443500Y-103677500D03*
D28*
X143510000Y-99340000D03*
X139745500Y-100375500D03*
X148844000Y-92456000D03*
X137459500Y-102661500D03*
X147193000Y-99314000D03*
X135491000Y-104630000D03*
D29*
X140781000Y-99340000D03*
D28*
X142240000Y-99340000D03*
X134665500Y-105455500D03*
%TO.N,ADC*%
X151765000Y-70358000D03*
%TO.N,FANS*%
X156718000Y-78994000D03*
%TO.N,DS18B20*%
X160528000Y-80899000D03*
%TO.N,RST*%
X145796000Y-68326000D03*
%TO.N,FLASH-BTN*%
X155448000Y-76327000D03*
%TO.N,MODE-BTN*%
X151765000Y-76327000D03*
%TO.N,SET-BTN*%
X151765000Y-74295000D03*
%TD*%
D30*
%TO.N,3V3*%
X151152000Y-101600000D02*
X151192000Y-101640000D01*
X148844000Y-88060000D02*
X148844000Y-82326000D01*
D31*
X175379000Y-80383000D02*
X175387000Y-80391000D01*
X175387000Y-80391000D02*
X178943000Y-80391000D01*
D30*
X150622000Y-101600000D02*
X151152000Y-101600000D01*
D31*
X178943000Y-80391000D02*
X180340000Y-78994000D01*
X172597000Y-80383000D02*
X175379000Y-80383000D01*
X180340000Y-78994000D02*
X180340000Y-74930000D01*
%TO.N,GND*%
X173863000Y-82804000D02*
X172597000Y-82804000D01*
X178181000Y-87122000D02*
X173863000Y-82804000D01*
X164064000Y-82326000D02*
X166908000Y-82326000D01*
X171704000Y-87122000D02*
X178181000Y-87122000D01*
D32*
X135491000Y-104630000D02*
X134665500Y-105455500D01*
D30*
X148844000Y-91010000D02*
X148844000Y-92456000D01*
D31*
X166908000Y-82326000D02*
X171704000Y-87122000D01*
D32*
X142240000Y-99340000D02*
X140781000Y-99340000D01*
X138602500Y-101518500D02*
X137459500Y-102661500D01*
D30*
X148844000Y-97663000D02*
X147193000Y-99314000D01*
X147167000Y-99340000D02*
X144892000Y-99340000D01*
D32*
X143510000Y-99340000D02*
X142240000Y-99340000D01*
X137459500Y-102661500D02*
X136443500Y-103677500D01*
D30*
X148844000Y-92456000D02*
X148844000Y-97663000D01*
D32*
X139745500Y-100375500D02*
X138602500Y-101518500D01*
X134665500Y-105455500D02*
X132688000Y-107433000D01*
X140781000Y-99340000D02*
X139745500Y-100375500D01*
X136443500Y-103677500D02*
X135491000Y-104630000D01*
D30*
X147193000Y-99314000D02*
X147167000Y-99340000D01*
D32*
X144892000Y-99340000D02*
X143510000Y-99340000D01*
D31*
%TO.N,SDA{slash}D2*%
X164064000Y-74326000D02*
X170465000Y-74326000D01*
X170465000Y-74326000D02*
X171069000Y-74930000D01*
%TO.N,SCL{slash}D1*%
X171005000Y-72326000D02*
X171069000Y-72390000D01*
X164064000Y-72326000D02*
X171005000Y-72326000D01*
D32*
%TO.N,12V*%
X141181000Y-103940000D02*
X132688000Y-112433000D01*
X147193000Y-114804000D02*
X148600000Y-116211000D01*
X148600000Y-116211000D02*
X156200000Y-116211000D01*
X147193000Y-114804000D02*
X147193000Y-111633000D01*
X158232000Y-116211000D02*
X166233000Y-116211000D01*
X136182000Y-112433000D02*
X139954000Y-116205000D01*
X132688000Y-112433000D02*
X136182000Y-112433000D01*
X139954000Y-116205000D02*
X145923000Y-116205000D01*
X147193000Y-114935000D02*
X147193000Y-114804000D01*
X166233000Y-116211000D02*
X167259000Y-115185000D01*
X145923000Y-116205000D02*
X147193000Y-114935000D01*
X144892000Y-103940000D02*
X141181000Y-103940000D01*
X156200000Y-116211000D02*
X157216000Y-115195000D01*
X157216000Y-115195000D02*
X157216000Y-111639000D01*
X167259000Y-115185000D02*
X167259000Y-111633000D01*
X157216000Y-115195000D02*
X158232000Y-116211000D01*
D31*
%TO.N,ADC*%
X148864000Y-70326000D02*
X151733000Y-70326000D01*
X151733000Y-70326000D02*
X151765000Y-70358000D01*
%TO.N,RX*%
X167259000Y-64008000D02*
X180340000Y-64008000D01*
X164064000Y-70326000D02*
X166275000Y-70326000D01*
X167259000Y-64008000D02*
X166751000Y-64516000D01*
X166275000Y-70326000D02*
X166751000Y-69850000D01*
X166751000Y-69850000D02*
X166751000Y-64516000D01*
%TO.N,TX*%
X166116000Y-67818000D02*
X166116000Y-62103000D01*
X166116000Y-62103000D02*
X166751000Y-61468000D01*
X165608000Y-68326000D02*
X166116000Y-67818000D01*
X164064000Y-68326000D02*
X165608000Y-68326000D01*
X166751000Y-61468000D02*
X180340000Y-61468000D01*
D33*
%TO.N,Net-(M1--)*%
X164709000Y-108083000D02*
X165090000Y-107702000D01*
X155311000Y-108083000D02*
X154676000Y-108718000D01*
X154041000Y-108083000D02*
X145278000Y-108083000D01*
X164719000Y-108855000D02*
X163947000Y-108083000D01*
X154676000Y-108718000D02*
X154676000Y-111639000D01*
X164719000Y-111633000D02*
X164719000Y-108855000D01*
X144653000Y-108708000D02*
X144653000Y-111633000D01*
X165090000Y-107702000D02*
X165094000Y-107702000D01*
X154676000Y-108718000D02*
X154041000Y-108083000D01*
X163947000Y-108083000D02*
X155311000Y-108083000D01*
X145278000Y-108083000D02*
X144653000Y-108708000D01*
X163947000Y-108083000D02*
X164709000Y-108083000D01*
X164719000Y-108073000D02*
X165090000Y-107702000D01*
X165094000Y-107702000D02*
X166319000Y-106477000D01*
X164719000Y-108855000D02*
X164719000Y-108073000D01*
X166319000Y-106477000D02*
X166319000Y-98109000D01*
D31*
%TO.N,FANS*%
X148864000Y-78326000D02*
X156050000Y-78326000D01*
X156050000Y-78326000D02*
X156718000Y-78994000D01*
%TO.N,DS18B20*%
X176277000Y-99059000D02*
X175768000Y-99568000D01*
X175768000Y-110236000D02*
X176403000Y-110871000D01*
X175768000Y-99568000D02*
X175768000Y-110236000D01*
X176403000Y-110871000D02*
X178181000Y-110871000D01*
X148864000Y-80326000D02*
X159955000Y-80326000D01*
X148844000Y-80326000D02*
X146821500Y-80326000D01*
X159955000Y-80326000D02*
X160528000Y-80899000D01*
X178205000Y-99059000D02*
X176277000Y-99059000D01*
X146821500Y-80326000D02*
X143956500Y-83191000D01*
%TO.N,Net-(R5-Pad1)*%
X139573000Y-71888000D02*
X141031500Y-71888000D01*
X138811000Y-62236000D02*
X138811000Y-71126000D01*
X138811000Y-71126000D02*
X139573000Y-71888000D01*
X137831000Y-61256000D02*
X138811000Y-62236000D01*
X136092000Y-61256000D02*
X137831000Y-61256000D01*
%TO.N,Net-(R6-Pad1)*%
X139192000Y-74301000D02*
X141035500Y-74301000D01*
X137444000Y-72553000D02*
X139192000Y-74301000D01*
X136092000Y-72553000D02*
X137444000Y-72553000D01*
%TO.N,Net-(R7-Pad1)*%
X138140000Y-94657000D02*
X135838000Y-94657000D01*
X139192000Y-79762000D02*
X139192000Y-93605000D01*
X139700000Y-79254000D02*
X139192000Y-79762000D01*
X139192000Y-93605000D02*
X138140000Y-94657000D01*
X141031500Y-79254000D02*
X139700000Y-79254000D01*
%TO.N,GPIO15*%
X168275000Y-82804000D02*
X169672000Y-82804000D01*
X165797000Y-80326000D02*
X168275000Y-82804000D01*
X164064000Y-80326000D02*
X165797000Y-80326000D01*
%TO.N,EN*%
X146939000Y-71882000D02*
X146939000Y-69850000D01*
X147383000Y-72326000D02*
X146939000Y-71882000D01*
X148864000Y-72326000D02*
X147383000Y-72326000D01*
X146552000Y-69475000D02*
X143956500Y-69475000D01*
X146558000Y-69469000D02*
X146552000Y-69475000D01*
X146939000Y-69850000D02*
X146558000Y-69469000D01*
%TO.N,GPIO2*%
X168140000Y-80383000D02*
X169672000Y-80383000D01*
X166083000Y-78326000D02*
X168140000Y-80383000D01*
X164064000Y-78326000D02*
X166083000Y-78326000D01*
%TO.N,Net-(R11-Pad1)*%
X138049000Y-77095000D02*
X138049000Y-82937000D01*
X141031500Y-76756333D02*
X138387667Y-76756333D01*
X137505000Y-83481000D02*
X135838000Y-83481000D01*
X138049000Y-82937000D02*
X137505000Y-83481000D01*
X138387667Y-76756333D02*
X138049000Y-77095000D01*
%TO.N,RST*%
X148864000Y-68326000D02*
X145796000Y-68326000D01*
%TO.N,FLASH-BTN*%
X155449000Y-76326000D02*
X155448000Y-76327000D01*
X164064000Y-76326000D02*
X155449000Y-76326000D01*
%TO.N,MODE-BTN*%
X151764000Y-76326000D02*
X151765000Y-76327000D01*
X148864000Y-76326000D02*
X151764000Y-76326000D01*
%TO.N,SET-BTN*%
X148864000Y-74326000D02*
X151734000Y-74326000D01*
X151734000Y-74326000D02*
X151765000Y-74295000D01*
%TD*%
%TA.AperFunction,Conductor*%
%TO.N,3V3*%
G36*
X139703453Y-50939185D02*
G01*
X139720558Y-50952419D01*
X139748628Y-50978353D01*
X139814921Y-51039601D01*
X139826461Y-51051812D01*
X139988122Y-51247952D01*
X139997906Y-51261613D01*
X140133776Y-51481385D01*
X140137952Y-51488681D01*
X142659130Y-56262275D01*
X146693905Y-63901713D01*
X148277724Y-66900514D01*
X148309647Y-66960956D01*
X148324000Y-67018866D01*
X148324000Y-67026000D01*
X148344000Y-67026000D01*
X162828019Y-67026000D01*
X164584000Y-67026000D01*
X165192398Y-62363483D01*
X166254900Y-54220905D01*
X178823500Y-54220905D01*
X178823500Y-54491094D01*
X178853749Y-54759558D01*
X178853751Y-54759570D01*
X178913872Y-55022979D01*
X179003106Y-55277996D01*
X179120331Y-55521416D01*
X179120333Y-55521419D01*
X179264077Y-55750187D01*
X179432532Y-55961422D01*
X179623578Y-56152468D01*
X179834813Y-56320923D01*
X180063581Y-56464667D01*
X180307005Y-56581894D01*
X180562020Y-56671127D01*
X180562022Y-56671127D01*
X180562023Y-56671128D01*
X180825429Y-56731249D01*
X181093905Y-56761499D01*
X181093906Y-56761500D01*
X181093910Y-56761500D01*
X181364094Y-56761500D01*
X181364094Y-56761499D01*
X181632571Y-56731249D01*
X181895977Y-56671128D01*
X182150995Y-56581894D01*
X182394419Y-56464667D01*
X182623187Y-56320923D01*
X182834422Y-56152468D01*
X183025468Y-55961422D01*
X183193923Y-55750187D01*
X183337667Y-55521419D01*
X183454894Y-55277995D01*
X183544128Y-55022977D01*
X183604249Y-54759571D01*
X183634500Y-54491090D01*
X183634500Y-54220910D01*
X183604249Y-53952429D01*
X183544128Y-53689023D01*
X183454894Y-53434005D01*
X183337667Y-53190581D01*
X183193923Y-52961813D01*
X183025468Y-52750578D01*
X182834422Y-52559532D01*
X182623187Y-52391077D01*
X182394419Y-52247333D01*
X182394416Y-52247331D01*
X182150996Y-52130106D01*
X181895978Y-52040872D01*
X181895980Y-52040872D01*
X181698422Y-51995781D01*
X181632571Y-51980751D01*
X181632567Y-51980750D01*
X181632558Y-51980749D01*
X181364094Y-51950500D01*
X181364090Y-51950500D01*
X181093910Y-51950500D01*
X181093906Y-51950500D01*
X180825441Y-51980749D01*
X180825429Y-51980751D01*
X180562020Y-52040872D01*
X180307003Y-52130106D01*
X180063583Y-52247331D01*
X179834814Y-52391076D01*
X179623578Y-52559531D01*
X179432531Y-52750578D01*
X179264076Y-52961814D01*
X179120331Y-53190583D01*
X179003106Y-53434003D01*
X178913872Y-53689020D01*
X178853751Y-53952429D01*
X178853749Y-53952441D01*
X178823500Y-54220905D01*
X166254900Y-54220905D01*
X166257447Y-54201387D01*
X166523216Y-52164638D01*
X166524684Y-52155858D01*
X166579723Y-51886844D01*
X166584539Y-51869703D01*
X166676116Y-51615606D01*
X166683352Y-51599313D01*
X166810458Y-51361023D01*
X166819965Y-51345927D01*
X166979980Y-51128349D01*
X166991552Y-51114782D01*
X167147629Y-50956449D01*
X167208711Y-50922526D01*
X167235937Y-50919500D01*
X182973108Y-50919500D01*
X183034572Y-50919500D01*
X183043418Y-50919816D01*
X183243561Y-50934130D01*
X183261063Y-50936647D01*
X183452797Y-50978355D01*
X183469755Y-50983334D01*
X183620610Y-51039601D01*
X183653609Y-51051909D01*
X183669701Y-51059259D01*
X183841904Y-51153288D01*
X183856784Y-51162849D01*
X183970467Y-51247952D01*
X184013867Y-51280441D01*
X184027237Y-51292027D01*
X184165972Y-51430762D01*
X184177558Y-51444132D01*
X184295146Y-51601210D01*
X184304711Y-51616095D01*
X184398740Y-51788298D01*
X184406090Y-51804390D01*
X184474662Y-51988236D01*
X184479646Y-52005212D01*
X184521351Y-52196931D01*
X184523869Y-52214442D01*
X184538184Y-52414580D01*
X184538500Y-52423427D01*
X184538500Y-123471572D01*
X184538184Y-123480418D01*
X184538184Y-123480419D01*
X184523869Y-123680557D01*
X184521351Y-123698068D01*
X184479646Y-123889787D01*
X184474662Y-123906763D01*
X184406090Y-124090609D01*
X184398740Y-124106701D01*
X184304711Y-124278904D01*
X184295146Y-124293789D01*
X184177558Y-124450867D01*
X184165972Y-124464237D01*
X184027237Y-124602972D01*
X184013867Y-124614558D01*
X183856789Y-124732146D01*
X183841904Y-124741711D01*
X183669701Y-124835740D01*
X183653609Y-124843090D01*
X183469763Y-124911662D01*
X183452787Y-124916646D01*
X183261068Y-124958351D01*
X183243557Y-124960869D01*
X183062779Y-124973799D01*
X183043417Y-124975184D01*
X183034572Y-124975500D01*
X126718428Y-124975500D01*
X126709582Y-124975184D01*
X126687622Y-124973613D01*
X126509442Y-124960869D01*
X126491931Y-124958351D01*
X126300212Y-124916646D01*
X126283236Y-124911662D01*
X126099390Y-124843090D01*
X126083298Y-124835740D01*
X125911095Y-124741711D01*
X125896210Y-124732146D01*
X125739132Y-124614558D01*
X125725762Y-124602972D01*
X125587027Y-124464237D01*
X125575441Y-124450867D01*
X125457849Y-124293784D01*
X125448288Y-124278904D01*
X125354259Y-124106701D01*
X125346909Y-124090609D01*
X125328499Y-124041250D01*
X125278334Y-123906755D01*
X125273355Y-123889797D01*
X125231647Y-123698063D01*
X125229130Y-123680556D01*
X125214816Y-123480418D01*
X125214500Y-123471572D01*
X125214500Y-121530905D01*
X126245500Y-121530905D01*
X126245500Y-121801094D01*
X126275749Y-122069558D01*
X126275751Y-122069570D01*
X126335872Y-122332979D01*
X126425106Y-122587996D01*
X126542331Y-122831416D01*
X126542333Y-122831419D01*
X126686077Y-123060187D01*
X126854532Y-123271422D01*
X127045578Y-123462468D01*
X127256813Y-123630923D01*
X127485581Y-123774667D01*
X127729005Y-123891894D01*
X127984020Y-123981127D01*
X127984022Y-123981127D01*
X127984023Y-123981128D01*
X128247429Y-124041249D01*
X128515905Y-124071499D01*
X128515906Y-124071500D01*
X128515910Y-124071500D01*
X128786094Y-124071500D01*
X128786094Y-124071499D01*
X129054571Y-124041249D01*
X129317977Y-123981128D01*
X129572995Y-123891894D01*
X129816419Y-123774667D01*
X130045187Y-123630923D01*
X130256422Y-123462468D01*
X130447468Y-123271422D01*
X130615923Y-123060187D01*
X130759667Y-122831419D01*
X130876894Y-122587995D01*
X130966128Y-122332977D01*
X131026249Y-122069571D01*
X131056500Y-121801090D01*
X131056500Y-121530910D01*
X131056499Y-121530905D01*
X178823500Y-121530905D01*
X178823500Y-121801094D01*
X178853749Y-122069558D01*
X178853751Y-122069570D01*
X178913872Y-122332979D01*
X179003106Y-122587996D01*
X179120331Y-122831416D01*
X179120333Y-122831419D01*
X179264077Y-123060187D01*
X179432532Y-123271422D01*
X179623578Y-123462468D01*
X179834813Y-123630923D01*
X180063581Y-123774667D01*
X180307005Y-123891894D01*
X180562020Y-123981127D01*
X180562022Y-123981127D01*
X180562023Y-123981128D01*
X180825429Y-124041249D01*
X181093905Y-124071499D01*
X181093906Y-124071500D01*
X181093910Y-124071500D01*
X181364094Y-124071500D01*
X181364094Y-124071499D01*
X181632571Y-124041249D01*
X181895977Y-123981128D01*
X182150995Y-123891894D01*
X182394419Y-123774667D01*
X182623187Y-123630923D01*
X182834422Y-123462468D01*
X183025468Y-123271422D01*
X183193923Y-123060187D01*
X183337667Y-122831419D01*
X183454894Y-122587995D01*
X183544128Y-122332977D01*
X183604249Y-122069571D01*
X183634500Y-121801090D01*
X183634500Y-121530910D01*
X183604249Y-121262429D01*
X183544128Y-120999023D01*
X183454894Y-120744005D01*
X183337667Y-120500581D01*
X183193923Y-120271813D01*
X183025468Y-120060578D01*
X182834422Y-119869532D01*
X182623187Y-119701077D01*
X182394419Y-119557333D01*
X182394416Y-119557331D01*
X182150996Y-119440106D01*
X181895978Y-119350872D01*
X181895980Y-119350872D01*
X181698422Y-119305781D01*
X181632571Y-119290751D01*
X181632567Y-119290750D01*
X181632558Y-119290749D01*
X181364094Y-119260500D01*
X181364090Y-119260500D01*
X181093910Y-119260500D01*
X181093906Y-119260500D01*
X180825441Y-119290749D01*
X180825429Y-119290751D01*
X180562020Y-119350872D01*
X180307003Y-119440106D01*
X180063583Y-119557331D01*
X179834814Y-119701076D01*
X179623578Y-119869531D01*
X179432531Y-120060578D01*
X179264076Y-120271814D01*
X179120331Y-120500583D01*
X179003106Y-120744003D01*
X178913872Y-120999020D01*
X178853751Y-121262429D01*
X178853749Y-121262441D01*
X178823500Y-121530905D01*
X131056499Y-121530905D01*
X131026249Y-121262429D01*
X130966128Y-120999023D01*
X130876894Y-120744005D01*
X130759667Y-120500581D01*
X130615923Y-120271813D01*
X130447468Y-120060578D01*
X130256422Y-119869532D01*
X130045187Y-119701077D01*
X129816419Y-119557333D01*
X129816416Y-119557331D01*
X129572996Y-119440106D01*
X129317978Y-119350872D01*
X129317980Y-119350872D01*
X129120422Y-119305781D01*
X129054571Y-119290751D01*
X129054567Y-119290750D01*
X129054558Y-119290749D01*
X128786094Y-119260500D01*
X128786090Y-119260500D01*
X128515910Y-119260500D01*
X128515906Y-119260500D01*
X128247441Y-119290749D01*
X128247429Y-119290751D01*
X127984020Y-119350872D01*
X127729003Y-119440106D01*
X127485583Y-119557331D01*
X127256814Y-119701076D01*
X127045578Y-119869531D01*
X126854531Y-120060578D01*
X126686076Y-120271814D01*
X126542331Y-120500583D01*
X126425106Y-120744003D01*
X126335872Y-120999020D01*
X126275751Y-121262429D01*
X126275749Y-121262441D01*
X126245500Y-121530905D01*
X125214500Y-121530905D01*
X125214500Y-111382983D01*
X130937500Y-111382983D01*
X130937500Y-113483001D01*
X130937501Y-113483018D01*
X130948000Y-113585796D01*
X130948001Y-113585799D01*
X131001149Y-113746187D01*
X131003186Y-113752334D01*
X131095288Y-113901656D01*
X131219344Y-114025712D01*
X131368666Y-114117814D01*
X131535203Y-114172999D01*
X131637991Y-114183500D01*
X133738008Y-114183499D01*
X133840797Y-114172999D01*
X134007334Y-114117814D01*
X134156656Y-114025712D01*
X134280712Y-113901656D01*
X134372814Y-113752334D01*
X134372815Y-113752331D01*
X134376605Y-113746187D01*
X134378399Y-113747293D01*
X134417687Y-113702663D01*
X134483908Y-113683500D01*
X135612664Y-113683500D01*
X135679703Y-113703185D01*
X135700345Y-113719819D01*
X139000172Y-117019646D01*
X139139354Y-117158828D01*
X139298595Y-117274524D01*
X139381455Y-117316743D01*
X139473970Y-117363882D01*
X139473972Y-117363882D01*
X139473975Y-117363884D01*
X139574317Y-117396487D01*
X139661173Y-117424709D01*
X139855578Y-117455500D01*
X139855583Y-117455500D01*
X146021422Y-117455500D01*
X146215826Y-117424709D01*
X146258190Y-117410944D01*
X146403026Y-117363884D01*
X146578405Y-117274524D01*
X146737646Y-117158828D01*
X147170819Y-116725655D01*
X147232142Y-116692170D01*
X147301834Y-116697154D01*
X147346181Y-116725655D01*
X147646171Y-117025645D01*
X147646172Y-117025646D01*
X147785354Y-117164828D01*
X147944595Y-117280524D01*
X148108195Y-117363882D01*
X148119979Y-117369886D01*
X148204223Y-117397258D01*
X148246346Y-117410944D01*
X148246347Y-117410945D01*
X148246348Y-117410945D01*
X148307173Y-117430709D01*
X148380076Y-117442255D01*
X148501578Y-117461500D01*
X148501583Y-117461500D01*
X156298422Y-117461500D01*
X156492826Y-117430709D01*
X156553656Y-117410944D01*
X156680026Y-117369884D01*
X156855405Y-117280524D01*
X157014646Y-117164828D01*
X157128319Y-117051155D01*
X157189642Y-117017670D01*
X157259334Y-117022654D01*
X157303681Y-117051155D01*
X157417354Y-117164828D01*
X157576595Y-117280524D01*
X157659454Y-117322742D01*
X157751969Y-117369882D01*
X157751971Y-117369882D01*
X157751974Y-117369884D01*
X157852318Y-117402487D01*
X157939173Y-117430709D01*
X158133578Y-117461500D01*
X158133583Y-117461500D01*
X166331422Y-117461500D01*
X166525826Y-117430709D01*
X166586656Y-117410944D01*
X166713026Y-117369884D01*
X166888405Y-117280524D01*
X167047646Y-117164828D01*
X168212828Y-115999646D01*
X168328524Y-115840405D01*
X168417884Y-115665026D01*
X168478709Y-115477826D01*
X168509500Y-115283422D01*
X168509500Y-112712914D01*
X168529185Y-112645875D01*
X168581989Y-112600120D01*
X168651147Y-112590176D01*
X168714703Y-112619201D01*
X168733812Y-112640021D01*
X168757455Y-112672563D01*
X168909437Y-112824545D01*
X169083322Y-112950880D01*
X169177251Y-112998739D01*
X169274829Y-113048458D01*
X169274832Y-113048459D01*
X169426678Y-113097796D01*
X169479245Y-113114876D01*
X169691533Y-113148500D01*
X169691534Y-113148500D01*
X169906466Y-113148500D01*
X169906467Y-113148500D01*
X170118755Y-113114876D01*
X170118758Y-113114875D01*
X170118759Y-113114875D01*
X170323167Y-113048459D01*
X170323170Y-113048458D01*
X170514678Y-112950880D01*
X170688563Y-112824545D01*
X170840545Y-112672563D01*
X170966880Y-112498678D01*
X171064458Y-112307170D01*
X171128926Y-112108756D01*
X171130875Y-112102759D01*
X171130875Y-112102758D01*
X171130876Y-112102755D01*
X171164500Y-111890467D01*
X171164500Y-111375533D01*
X171130876Y-111163245D01*
X171130875Y-111163241D01*
X171130875Y-111163240D01*
X171064459Y-110958832D01*
X171064458Y-110958829D01*
X170995986Y-110824446D01*
X170966880Y-110767322D01*
X170840545Y-110593437D01*
X170688563Y-110441455D01*
X170514678Y-110315120D01*
X170514548Y-110315054D01*
X175167498Y-110315054D01*
X175208424Y-110467789D01*
X175208425Y-110467790D01*
X175228340Y-110502283D01*
X175228341Y-110502284D01*
X175287477Y-110604712D01*
X175287481Y-110604717D01*
X175406349Y-110723585D01*
X175406354Y-110723589D01*
X176034284Y-111351520D01*
X176034286Y-111351521D01*
X176034290Y-111351524D01*
X176171209Y-111430573D01*
X176171216Y-111430577D01*
X176323943Y-111471501D01*
X176323945Y-111471501D01*
X176489654Y-111471501D01*
X176489670Y-111471500D01*
X176726932Y-111471500D01*
X176793971Y-111491185D01*
X176837416Y-111539203D01*
X176897657Y-111657433D01*
X177036483Y-111848510D01*
X177036489Y-111848516D01*
X177039647Y-111852214D01*
X177037864Y-111853736D01*
X177066726Y-111906591D01*
X177061742Y-111976283D01*
X177019870Y-112032216D01*
X177010658Y-112038487D01*
X176962344Y-112068287D01*
X176838289Y-112192342D01*
X176746187Y-112341663D01*
X176746186Y-112341666D01*
X176691001Y-112508203D01*
X176691001Y-112508204D01*
X176691000Y-112508204D01*
X176680500Y-112610983D01*
X176680500Y-114211001D01*
X176680501Y-114211018D01*
X176691000Y-114313796D01*
X176691001Y-114313799D01*
X176737243Y-114453345D01*
X176746186Y-114480334D01*
X176838288Y-114629656D01*
X176962344Y-114753712D01*
X177111666Y-114845814D01*
X177278203Y-114900999D01*
X177380991Y-114911500D01*
X178981008Y-114911499D01*
X179083797Y-114900999D01*
X179250334Y-114845814D01*
X179399656Y-114753712D01*
X179523712Y-114629656D01*
X179615814Y-114480334D01*
X179670999Y-114313797D01*
X179681500Y-114211009D01*
X179681499Y-112610992D01*
X179680388Y-112600120D01*
X179670999Y-112508203D01*
X179670998Y-112508200D01*
X179667843Y-112498678D01*
X179615814Y-112341666D01*
X179523712Y-112192344D01*
X179399656Y-112068288D01*
X179399655Y-112068287D01*
X179351342Y-112038487D01*
X179304618Y-111986539D01*
X179293397Y-111917576D01*
X179321241Y-111853494D01*
X179322381Y-111852249D01*
X179322348Y-111852221D01*
X179325511Y-111848516D01*
X179325511Y-111848515D01*
X179325517Y-111848510D01*
X179464343Y-111657433D01*
X179571568Y-111446992D01*
X179644553Y-111222368D01*
X179645991Y-111213290D01*
X179681500Y-110989097D01*
X179681500Y-110752902D01*
X179644553Y-110519631D01*
X179580052Y-110321120D01*
X179571568Y-110295008D01*
X179571566Y-110295005D01*
X179571566Y-110295003D01*
X179505042Y-110164444D01*
X179464343Y-110084567D01*
X179325517Y-109893490D01*
X179158510Y-109726483D01*
X179099282Y-109683451D01*
X179056617Y-109628122D01*
X179048550Y-109573404D01*
X179050104Y-109553657D01*
X178392058Y-108895612D01*
X178412591Y-108890111D01*
X178549408Y-108811119D01*
X178661119Y-108699408D01*
X178740111Y-108562591D01*
X178745612Y-108542058D01*
X179403658Y-109200105D01*
X179403658Y-109200104D01*
X179463914Y-109117169D01*
X179463918Y-109117163D01*
X179571102Y-108906802D01*
X179644065Y-108682247D01*
X179681000Y-108449052D01*
X179681000Y-108212947D01*
X179644065Y-107979752D01*
X179571102Y-107755197D01*
X179463914Y-107544828D01*
X179403658Y-107461894D01*
X179403658Y-107461893D01*
X178745612Y-108119940D01*
X178740111Y-108099409D01*
X178661119Y-107962592D01*
X178549408Y-107850881D01*
X178412591Y-107771889D01*
X178392059Y-107766387D01*
X179050105Y-107108340D01*
X179050104Y-107108338D01*
X178967174Y-107048087D01*
X178756802Y-106940897D01*
X178532247Y-106867934D01*
X178532248Y-106867934D01*
X178299052Y-106831000D01*
X178062948Y-106831000D01*
X177829752Y-106867934D01*
X177605197Y-106940897D01*
X177394830Y-107048084D01*
X177311894Y-107108340D01*
X177969941Y-107766387D01*
X177949409Y-107771889D01*
X177812592Y-107850881D01*
X177700881Y-107962592D01*
X177621889Y-108099409D01*
X177616387Y-108119941D01*
X176958340Y-107461894D01*
X176898084Y-107544830D01*
X176790897Y-107755197D01*
X176717934Y-107979752D01*
X176681000Y-108212947D01*
X176681000Y-108449052D01*
X176717934Y-108682247D01*
X176790897Y-108906802D01*
X176898087Y-109117174D01*
X176958338Y-109200104D01*
X176958340Y-109200105D01*
X177616387Y-108542058D01*
X177621889Y-108562591D01*
X177700881Y-108699408D01*
X177812592Y-108811119D01*
X177949409Y-108890111D01*
X177969940Y-108895612D01*
X177311893Y-109553658D01*
X177313448Y-109573405D01*
X177299084Y-109641783D01*
X177262717Y-109683451D01*
X177203490Y-109726482D01*
X177036485Y-109893487D01*
X177036485Y-109893488D01*
X177036483Y-109893490D01*
X177005669Y-109935902D01*
X176897657Y-110084566D01*
X176875236Y-110128571D01*
X176848928Y-110180204D01*
X176837417Y-110202795D01*
X176826967Y-110213859D01*
X176820645Y-110227703D01*
X176803464Y-110238744D01*
X176789442Y-110253591D01*
X176773762Y-110257832D01*
X176761867Y-110265477D01*
X176726932Y-110270500D01*
X176703098Y-110270500D01*
X176636059Y-110250815D01*
X176615417Y-110234181D01*
X176404819Y-110023583D01*
X176371334Y-109962260D01*
X176368500Y-109935902D01*
X176368500Y-99868098D01*
X176377144Y-99838660D01*
X176383668Y-99808670D01*
X176387423Y-99803653D01*
X176388185Y-99801059D01*
X176404819Y-99780416D01*
X176489418Y-99695818D01*
X176550742Y-99662334D01*
X176577099Y-99659500D01*
X176750932Y-99659500D01*
X176817971Y-99679185D01*
X176861416Y-99727203D01*
X176921657Y-99845433D01*
X177060483Y-100036510D01*
X177060489Y-100036516D01*
X177063647Y-100040214D01*
X177061864Y-100041736D01*
X177090726Y-100094591D01*
X177085742Y-100164283D01*
X177043870Y-100220216D01*
X177034658Y-100226487D01*
X176986344Y-100256287D01*
X176862289Y-100380342D01*
X176770187Y-100529663D01*
X176770185Y-100529668D01*
X176749088Y-100593334D01*
X176715001Y-100696203D01*
X176715001Y-100696204D01*
X176715000Y-100696204D01*
X176704500Y-100798983D01*
X176704500Y-102399001D01*
X176704501Y-102399018D01*
X176715000Y-102501796D01*
X176715001Y-102501799D01*
X176770185Y-102668331D01*
X176770186Y-102668334D01*
X176862288Y-102817656D01*
X176986344Y-102941712D01*
X177135666Y-103033814D01*
X177302203Y-103088999D01*
X177404991Y-103099500D01*
X179005008Y-103099499D01*
X179107797Y-103088999D01*
X179274334Y-103033814D01*
X179423656Y-102941712D01*
X179547712Y-102817656D01*
X179639814Y-102668334D01*
X179694999Y-102501797D01*
X179705500Y-102399009D01*
X179705499Y-100798992D01*
X179694999Y-100696203D01*
X179639814Y-100529666D01*
X179547712Y-100380344D01*
X179423656Y-100256288D01*
X179423655Y-100256287D01*
X179375342Y-100226487D01*
X179328618Y-100174539D01*
X179317397Y-100105576D01*
X179345241Y-100041494D01*
X179346381Y-100040249D01*
X179346348Y-100040221D01*
X179349511Y-100036516D01*
X179349511Y-100036515D01*
X179349517Y-100036510D01*
X179488343Y-99845433D01*
X179595568Y-99634992D01*
X179668553Y-99410368D01*
X179677903Y-99351335D01*
X179705500Y-99177097D01*
X179705500Y-98940902D01*
X179668553Y-98707631D01*
X179613923Y-98539500D01*
X179595568Y-98483008D01*
X179595566Y-98483005D01*
X179595566Y-98483003D01*
X179538276Y-98370566D01*
X179488343Y-98272567D01*
X179349517Y-98081490D01*
X179182510Y-97914483D01*
X179157754Y-97896497D01*
X179123283Y-97871452D01*
X179080617Y-97816122D01*
X179072550Y-97761404D01*
X179074104Y-97741657D01*
X178416058Y-97083612D01*
X178436591Y-97078111D01*
X178573408Y-96999119D01*
X178685119Y-96887408D01*
X178764111Y-96750591D01*
X178769612Y-96730059D01*
X179427658Y-97388105D01*
X179427658Y-97388104D01*
X179487914Y-97305169D01*
X179487918Y-97305163D01*
X179595102Y-97094802D01*
X179668065Y-96870247D01*
X179705000Y-96637052D01*
X179705000Y-96400947D01*
X179668065Y-96167752D01*
X179595102Y-95943197D01*
X179487914Y-95732828D01*
X179427658Y-95649894D01*
X179427658Y-95649893D01*
X178769612Y-96307940D01*
X178764111Y-96287409D01*
X178685119Y-96150592D01*
X178573408Y-96038881D01*
X178436591Y-95959889D01*
X178416059Y-95954387D01*
X179074105Y-95296340D01*
X179074104Y-95296338D01*
X178991174Y-95236087D01*
X178780802Y-95128897D01*
X178556247Y-95055934D01*
X178556248Y-95055934D01*
X178323052Y-95019000D01*
X178086948Y-95019000D01*
X177853752Y-95055934D01*
X177629197Y-95128897D01*
X177418830Y-95236084D01*
X177335894Y-95296340D01*
X177993941Y-95954387D01*
X177973409Y-95959889D01*
X177836592Y-96038881D01*
X177724881Y-96150592D01*
X177645889Y-96287409D01*
X177640387Y-96307940D01*
X176982340Y-95649894D01*
X176922084Y-95732830D01*
X176814897Y-95943197D01*
X176741934Y-96167752D01*
X176705000Y-96400947D01*
X176705000Y-96637052D01*
X176741934Y-96870247D01*
X176814897Y-97094802D01*
X176922087Y-97305174D01*
X176982338Y-97388104D01*
X176982340Y-97388105D01*
X177640387Y-96730058D01*
X177645889Y-96750591D01*
X177724881Y-96887408D01*
X177836592Y-96999119D01*
X177973409Y-97078111D01*
X177993940Y-97083612D01*
X177335893Y-97741658D01*
X177337448Y-97761405D01*
X177323084Y-97829783D01*
X177286717Y-97871451D01*
X177227490Y-97914482D01*
X177060485Y-98081487D01*
X177060485Y-98081488D01*
X177060483Y-98081490D01*
X177000862Y-98163550D01*
X176921657Y-98272566D01*
X176889060Y-98336540D01*
X176863773Y-98386172D01*
X176861417Y-98390795D01*
X176813442Y-98441591D01*
X176750932Y-98458500D01*
X176363670Y-98458500D01*
X176363654Y-98458499D01*
X176356058Y-98458499D01*
X176197943Y-98458499D01*
X176121579Y-98478961D01*
X176045214Y-98499423D01*
X176045209Y-98499426D01*
X175908290Y-98578475D01*
X175908282Y-98578481D01*
X175392217Y-99094546D01*
X175392214Y-99094548D01*
X175392215Y-99094549D01*
X175287477Y-99199287D01*
X175249663Y-99264785D01*
X175208424Y-99336211D01*
X175208423Y-99336212D01*
X175191541Y-99399217D01*
X175167499Y-99488943D01*
X175167499Y-99647057D01*
X175167499Y-99647059D01*
X175167500Y-99657053D01*
X175167500Y-110149330D01*
X175167499Y-110149348D01*
X175167499Y-110315054D01*
X175167498Y-110315054D01*
X170514548Y-110315054D01*
X170475196Y-110295003D01*
X170323170Y-110217541D01*
X170323167Y-110217540D01*
X170118757Y-110151124D01*
X169976365Y-110128571D01*
X169906467Y-110117500D01*
X169691533Y-110117500D01*
X169621635Y-110128571D01*
X169479243Y-110151124D01*
X169479240Y-110151124D01*
X169274832Y-110217540D01*
X169274829Y-110217541D01*
X169083321Y-110315120D01*
X168991720Y-110381673D01*
X168909437Y-110441455D01*
X168909435Y-110441457D01*
X168909434Y-110441457D01*
X168757457Y-110593434D01*
X168757457Y-110593435D01*
X168757455Y-110593437D01*
X168668030Y-110716520D01*
X168629318Y-110769802D01*
X168573988Y-110812467D01*
X168504374Y-110818446D01*
X168442579Y-110785840D01*
X168428682Y-110769802D01*
X168389970Y-110716520D01*
X168300545Y-110593437D01*
X168148563Y-110441455D01*
X167974678Y-110315120D01*
X167935196Y-110295003D01*
X167783170Y-110217541D01*
X167783167Y-110217540D01*
X167578757Y-110151124D01*
X167436365Y-110128571D01*
X167366467Y-110117500D01*
X167151533Y-110117500D01*
X167081635Y-110128571D01*
X166939243Y-110151124D01*
X166939240Y-110151124D01*
X166734832Y-110217540D01*
X166734829Y-110217541D01*
X166543321Y-110315120D01*
X166369438Y-110441454D01*
X166274910Y-110535982D01*
X166213586Y-110569466D01*
X166143895Y-110564482D01*
X166087962Y-110522610D01*
X166071047Y-110491632D01*
X166062154Y-110467789D01*
X166052332Y-110441454D01*
X166027798Y-110375673D01*
X166027793Y-110375664D01*
X165941547Y-110260455D01*
X165941544Y-110260452D01*
X165826334Y-110174205D01*
X165800164Y-110164444D01*
X165744231Y-110122571D01*
X165719816Y-110057106D01*
X165719500Y-110048263D01*
X165719500Y-108542783D01*
X165728143Y-108513345D01*
X165734667Y-108483357D01*
X165738422Y-108478340D01*
X165739185Y-108475744D01*
X165755818Y-108455103D01*
X165761869Y-108449052D01*
X165871139Y-108339782D01*
X165871140Y-108339779D01*
X167096140Y-107114781D01*
X167205632Y-106950914D01*
X167281052Y-106768835D01*
X167319501Y-106575540D01*
X167319501Y-106378459D01*
X167319501Y-106373349D01*
X167319500Y-106373323D01*
X167319500Y-99532591D01*
X167339185Y-99465552D01*
X167391989Y-99419797D01*
X167461147Y-99409853D01*
X167524703Y-99438878D01*
X167542767Y-99458281D01*
X167548954Y-99466546D01*
X167548955Y-99466547D01*
X167664164Y-99552793D01*
X167664171Y-99552797D01*
X167799017Y-99603091D01*
X167799016Y-99603091D01*
X167805944Y-99603835D01*
X167858627Y-99609500D01*
X169859372Y-99609499D01*
X169918983Y-99603091D01*
X170053831Y-99552796D01*
X170169046Y-99466546D01*
X170202639Y-99421672D01*
X170213994Y-99406504D01*
X170255293Y-99351335D01*
X170255292Y-99351335D01*
X170255296Y-99351331D01*
X170305591Y-99216483D01*
X170312000Y-99156873D01*
X170311999Y-97061128D01*
X170305591Y-97001517D01*
X170295660Y-96974891D01*
X170255297Y-96866671D01*
X170255293Y-96866664D01*
X170169047Y-96751455D01*
X170169044Y-96751452D01*
X170053835Y-96665206D01*
X170053828Y-96665202D01*
X169918982Y-96614908D01*
X169918983Y-96614908D01*
X169859383Y-96608501D01*
X169859381Y-96608500D01*
X169859373Y-96608500D01*
X169859364Y-96608500D01*
X167858629Y-96608500D01*
X167858623Y-96608501D01*
X167799016Y-96614908D01*
X167664171Y-96665202D01*
X167664164Y-96665206D01*
X167548955Y-96751452D01*
X167548952Y-96751455D01*
X167462706Y-96866664D01*
X167462703Y-96866670D01*
X167452308Y-96894541D01*
X167410436Y-96950474D01*
X167344972Y-96974891D01*
X167276699Y-96960039D01*
X167263250Y-96951531D01*
X167080538Y-96818783D01*
X166876755Y-96714950D01*
X166659248Y-96644278D01*
X166473812Y-96614908D01*
X166433354Y-96608500D01*
X166204646Y-96608500D01*
X166164188Y-96614908D01*
X165978753Y-96644278D01*
X165978750Y-96644278D01*
X165761244Y-96714950D01*
X165557461Y-96818783D01*
X165463008Y-96887408D01*
X165372434Y-96953214D01*
X165372432Y-96953216D01*
X165372431Y-96953216D01*
X165210715Y-97114932D01*
X165149318Y-97199438D01*
X165093987Y-97242103D01*
X165024374Y-97248082D01*
X164962579Y-97215476D01*
X164948682Y-97199438D01*
X164890240Y-97119000D01*
X164887286Y-97114934D01*
X164725566Y-96953214D01*
X164540538Y-96818783D01*
X164336755Y-96714950D01*
X164119248Y-96644278D01*
X163933812Y-96614908D01*
X163893354Y-96608500D01*
X163664646Y-96608500D01*
X163624188Y-96614908D01*
X163438753Y-96644278D01*
X163438750Y-96644278D01*
X163221244Y-96714950D01*
X163017461Y-96818783D01*
X162923008Y-96887408D01*
X162832434Y-96953214D01*
X162832432Y-96953216D01*
X162832431Y-96953216D01*
X162670716Y-97114931D01*
X162670716Y-97114932D01*
X162670714Y-97114934D01*
X162667760Y-97119000D01*
X162536283Y-97299961D01*
X162432450Y-97503744D01*
X162361778Y-97721250D01*
X162361778Y-97721253D01*
X162326000Y-97947146D01*
X162326000Y-98270853D01*
X162361778Y-98496746D01*
X162361778Y-98496749D01*
X162432450Y-98714255D01*
X162432452Y-98714258D01*
X162536283Y-98918038D01*
X162670714Y-99103066D01*
X162832434Y-99264786D01*
X163017462Y-99399217D01*
X163193563Y-99488945D01*
X163221244Y-99503049D01*
X163438751Y-99573721D01*
X163438752Y-99573721D01*
X163438755Y-99573722D01*
X163664646Y-99609500D01*
X163664647Y-99609500D01*
X163893353Y-99609500D01*
X163893354Y-99609500D01*
X164119245Y-99573722D01*
X164119248Y-99573721D01*
X164119249Y-99573721D01*
X164336755Y-99503049D01*
X164336755Y-99503048D01*
X164336758Y-99503048D01*
X164540538Y-99399217D01*
X164725566Y-99264786D01*
X164887286Y-99103066D01*
X164948683Y-99018559D01*
X164967293Y-99004209D01*
X164982831Y-98986577D01*
X164994448Y-98983270D01*
X165004012Y-98975896D01*
X165027425Y-98973885D01*
X165050032Y-98967451D01*
X165061592Y-98970950D01*
X165073625Y-98969917D01*
X165094408Y-98980883D01*
X165116905Y-98987693D01*
X165128821Y-98999041D01*
X165135420Y-99002523D01*
X165143385Y-99011027D01*
X165146498Y-99014681D01*
X165210714Y-99103066D01*
X165285677Y-99178029D01*
X165288885Y-99181794D01*
X165301196Y-99209357D01*
X165315666Y-99235856D01*
X165316500Y-99243620D01*
X165317380Y-99245589D01*
X165316988Y-99248158D01*
X165318500Y-99262214D01*
X165318500Y-106011217D01*
X165298815Y-106078256D01*
X165282181Y-106098898D01*
X164472908Y-106908170D01*
X164454129Y-106923583D01*
X164452225Y-106924854D01*
X164452215Y-106924863D01*
X164391557Y-106985522D01*
X164330896Y-107046182D01*
X164269576Y-107079666D01*
X164243217Y-107082500D01*
X155415675Y-107082500D01*
X155415655Y-107082499D01*
X155409541Y-107082499D01*
X155212460Y-107082499D01*
X155212457Y-107082499D01*
X155019172Y-107120946D01*
X155019164Y-107120948D01*
X154837084Y-107196368D01*
X154744887Y-107257971D01*
X154678209Y-107278848D01*
X154610830Y-107260362D01*
X154607143Y-107257993D01*
X154514914Y-107196368D01*
X154514913Y-107196367D01*
X154514911Y-107196366D01*
X154387459Y-107143574D01*
X154387454Y-107143572D01*
X154379249Y-107140174D01*
X154332836Y-107120949D01*
X154181076Y-107090762D01*
X154177821Y-107090114D01*
X154177819Y-107090114D01*
X154139542Y-107082500D01*
X154139541Y-107082500D01*
X145376540Y-107082500D01*
X145179459Y-107082500D01*
X145179456Y-107082500D01*
X144986171Y-107120947D01*
X144986163Y-107120949D01*
X144939751Y-107140174D01*
X144804083Y-107196369D01*
X144640222Y-107305857D01*
X144640214Y-107305863D01*
X144170850Y-107775229D01*
X144015220Y-107930859D01*
X144015218Y-107930861D01*
X143968633Y-107977446D01*
X143875859Y-108070219D01*
X143766371Y-108234080D01*
X143766364Y-108234093D01*
X143736716Y-108305671D01*
X143736712Y-108305682D01*
X143734695Y-108310553D01*
X143690949Y-108416164D01*
X143674430Y-108499211D01*
X143673084Y-108505975D01*
X143673082Y-108505983D01*
X143652500Y-108609456D01*
X143652500Y-110048263D01*
X143632815Y-110115302D01*
X143580011Y-110161057D01*
X143571836Y-110164444D01*
X143545665Y-110174205D01*
X143430455Y-110260452D01*
X143430452Y-110260455D01*
X143344206Y-110375664D01*
X143344202Y-110375671D01*
X143293908Y-110510517D01*
X143287501Y-110570116D01*
X143287500Y-110570135D01*
X143287500Y-112695870D01*
X143287501Y-112695876D01*
X143293908Y-112755483D01*
X143344202Y-112890328D01*
X143344206Y-112890335D01*
X143430452Y-113005544D01*
X143430455Y-113005547D01*
X143545664Y-113091793D01*
X143545671Y-113091797D01*
X143680517Y-113142091D01*
X143680516Y-113142091D01*
X143687444Y-113142835D01*
X143740127Y-113148500D01*
X145565872Y-113148499D01*
X145625483Y-113142091D01*
X145768641Y-113088697D01*
X145769229Y-113090275D01*
X145827338Y-113077630D01*
X145892804Y-113102043D01*
X145934679Y-113157974D01*
X145942500Y-113201315D01*
X145942500Y-114365664D01*
X145922815Y-114432703D01*
X145906181Y-114453345D01*
X145441345Y-114918181D01*
X145380022Y-114951666D01*
X145353664Y-114954500D01*
X140523336Y-114954500D01*
X140456297Y-114934815D01*
X140435655Y-114918181D01*
X136996648Y-111479174D01*
X136996646Y-111479172D01*
X136837405Y-111363476D01*
X136813936Y-111351518D01*
X136662030Y-111274117D01*
X136474826Y-111213290D01*
X136280422Y-111182500D01*
X136280417Y-111182500D01*
X136006336Y-111182500D01*
X135939297Y-111162815D01*
X135893542Y-111110011D01*
X135883598Y-111040853D01*
X135912623Y-110977297D01*
X135918655Y-110970819D01*
X138790066Y-108099409D01*
X141662656Y-105226819D01*
X141723979Y-105193334D01*
X141750337Y-105190500D01*
X145000407Y-105190500D01*
X145000419Y-105190499D01*
X145593123Y-105190499D01*
X145593123Y-105190498D01*
X145635889Y-105187600D01*
X145820693Y-105141641D01*
X145991296Y-105057030D01*
X146139722Y-104937722D01*
X146259030Y-104789296D01*
X146343641Y-104618693D01*
X146389600Y-104433889D01*
X146392500Y-104391123D01*
X146392499Y-103488878D01*
X146389600Y-103446111D01*
X146343641Y-103261307D01*
X146321828Y-103217325D01*
X146262649Y-103098000D01*
X149692000Y-103098000D01*
X149702608Y-103217325D01*
X149702609Y-103217328D01*
X149758557Y-103412861D01*
X149852721Y-103593129D01*
X149981246Y-103750753D01*
X150138870Y-103879278D01*
X150319138Y-103973442D01*
X150514671Y-104029390D01*
X150514674Y-104029391D01*
X150633999Y-104039999D01*
X150634002Y-104040000D01*
X150942000Y-104040000D01*
X151442000Y-104040000D01*
X151749998Y-104040000D01*
X151750000Y-104039999D01*
X151869325Y-104029391D01*
X151869328Y-104029390D01*
X152064861Y-103973442D01*
X152245129Y-103879278D01*
X152402753Y-103750753D01*
X152531278Y-103593129D01*
X152625442Y-103412861D01*
X152681390Y-103217328D01*
X152681391Y-103217325D01*
X152691999Y-103098000D01*
X152692000Y-103097998D01*
X152692000Y-101890000D01*
X151442000Y-101890000D01*
X151442000Y-104040000D01*
X150942000Y-104040000D01*
X150942000Y-101890000D01*
X149692000Y-101890000D01*
X149692000Y-103098000D01*
X146262649Y-103098000D01*
X146259032Y-103090707D01*
X146259030Y-103090704D01*
X146139724Y-102942280D01*
X146139722Y-102942278D01*
X146070112Y-102886324D01*
X146030196Y-102828985D01*
X146027616Y-102759163D01*
X146063194Y-102699030D01*
X146070115Y-102693033D01*
X146139366Y-102637367D01*
X146139367Y-102637366D01*
X146258607Y-102489025D01*
X146258609Y-102489022D01*
X146343168Y-102318523D01*
X146389102Y-102133824D01*
X146392000Y-102091096D01*
X146392000Y-101890000D01*
X143392000Y-101890000D01*
X143392000Y-102091096D01*
X143394897Y-102133824D01*
X143440831Y-102318523D01*
X143525390Y-102489022D01*
X143529011Y-102494686D01*
X143527621Y-102495574D01*
X143551077Y-102552397D01*
X143538587Y-102621141D01*
X143490913Y-102672220D01*
X143427771Y-102689500D01*
X141082579Y-102689500D01*
X141032072Y-102697500D01*
X141019445Y-102699500D01*
X141019444Y-102699500D01*
X140888174Y-102720290D01*
X140888173Y-102720290D01*
X140700969Y-102781117D01*
X140525591Y-102870478D01*
X140366360Y-102986165D01*
X140366355Y-102986169D01*
X132706343Y-110646181D01*
X132645020Y-110679666D01*
X132618662Y-110682500D01*
X131637998Y-110682500D01*
X131637980Y-110682501D01*
X131535203Y-110693000D01*
X131535200Y-110693001D01*
X131368668Y-110748185D01*
X131368663Y-110748187D01*
X131219342Y-110840289D01*
X131095289Y-110964342D01*
X131003187Y-111113663D01*
X131003185Y-111113668D01*
X130984769Y-111169245D01*
X130948001Y-111280203D01*
X130948001Y-111280204D01*
X130948000Y-111280204D01*
X130937500Y-111382983D01*
X125214500Y-111382983D01*
X125214500Y-107318258D01*
X130937500Y-107318258D01*
X130937500Y-107547741D01*
X130961628Y-107731000D01*
X130967452Y-107775238D01*
X131009150Y-107930859D01*
X131026842Y-107996887D01*
X131114650Y-108208876D01*
X131114657Y-108208890D01*
X131229392Y-108407617D01*
X131369081Y-108589661D01*
X131369089Y-108589670D01*
X131531330Y-108751911D01*
X131531338Y-108751918D01*
X131713382Y-108891607D01*
X131713385Y-108891608D01*
X131713388Y-108891611D01*
X131912112Y-109006344D01*
X131912117Y-109006346D01*
X131912123Y-109006349D01*
X132003480Y-109044190D01*
X132124113Y-109094158D01*
X132345762Y-109153548D01*
X132573266Y-109183500D01*
X132573273Y-109183500D01*
X132802727Y-109183500D01*
X132802734Y-109183500D01*
X133030238Y-109153548D01*
X133251887Y-109094158D01*
X133463888Y-109006344D01*
X133662612Y-108891611D01*
X133844661Y-108751919D01*
X133844665Y-108751914D01*
X133844670Y-108751911D01*
X134006911Y-108589670D01*
X134006914Y-108589665D01*
X134006919Y-108589661D01*
X134146611Y-108407612D01*
X134261344Y-108208888D01*
X134349158Y-107996887D01*
X134408548Y-107775238D01*
X134438500Y-107547734D01*
X134438500Y-107502336D01*
X134458185Y-107435297D01*
X134474819Y-107414655D01*
X141262655Y-100626819D01*
X141323978Y-100593334D01*
X141350336Y-100590500D01*
X143427771Y-100590500D01*
X143494810Y-100610185D01*
X143540565Y-100662989D01*
X143550509Y-100732147D01*
X143527753Y-100784510D01*
X143529011Y-100785314D01*
X143525390Y-100790977D01*
X143440831Y-100961476D01*
X143394897Y-101146175D01*
X143392000Y-101188903D01*
X143392000Y-101390000D01*
X146392000Y-101390000D01*
X146392000Y-101188903D01*
X146389102Y-101146175D01*
X146343168Y-100961476D01*
X146258609Y-100790977D01*
X146258607Y-100790974D01*
X146139367Y-100642633D01*
X146139366Y-100642632D01*
X146070115Y-100586967D01*
X146030196Y-100529624D01*
X146027616Y-100459802D01*
X146063194Y-100399669D01*
X146070089Y-100393694D01*
X146139722Y-100337722D01*
X146259030Y-100189296D01*
X146259029Y-100189296D01*
X146261026Y-100186813D01*
X146267941Y-100181999D01*
X149692000Y-100181999D01*
X149692000Y-101390000D01*
X150942000Y-101390000D01*
X151442000Y-101390000D01*
X152692000Y-101390000D01*
X152692000Y-100182002D01*
X152691999Y-100181999D01*
X152681391Y-100062674D01*
X152681390Y-100062671D01*
X152625442Y-99867138D01*
X152531278Y-99686870D01*
X152402753Y-99529246D01*
X152245129Y-99400721D01*
X152064861Y-99306557D01*
X151869328Y-99250609D01*
X151869325Y-99250608D01*
X151750000Y-99240000D01*
X151442000Y-99240000D01*
X151442000Y-101390000D01*
X150942000Y-101390000D01*
X150942000Y-99240000D01*
X150633999Y-99240000D01*
X150514674Y-99250608D01*
X150514671Y-99250609D01*
X150319138Y-99306557D01*
X150138870Y-99400721D01*
X149981246Y-99529246D01*
X149852721Y-99686870D01*
X149758557Y-99867138D01*
X149702609Y-100062671D01*
X149702608Y-100062674D01*
X149692000Y-100181999D01*
X146267941Y-100181999D01*
X146318369Y-100146894D01*
X146357673Y-100140500D01*
X147245844Y-100140500D01*
X147245845Y-100140499D01*
X147400497Y-100109737D01*
X147440303Y-100093248D01*
X147509262Y-100064686D01*
X147546172Y-100049397D01*
X147546172Y-100049396D01*
X147546179Y-100049394D01*
X147677289Y-99961789D01*
X147814789Y-99824289D01*
X149465789Y-98173289D01*
X149553394Y-98042179D01*
X149613738Y-97896497D01*
X149644500Y-97741842D01*
X149644500Y-97584157D01*
X149644500Y-92377158D01*
X149644500Y-92165300D01*
X149664185Y-92098261D01*
X149716989Y-92052506D01*
X149729482Y-92047599D01*
X149813334Y-92019814D01*
X149962656Y-91927712D01*
X150086712Y-91803656D01*
X150178814Y-91654334D01*
X150233999Y-91487797D01*
X150244500Y-91385009D01*
X150244499Y-90634992D01*
X150233999Y-90532203D01*
X150178814Y-90365666D01*
X150086712Y-90216344D01*
X149962656Y-90092288D01*
X149813334Y-90000186D01*
X149646797Y-89945001D01*
X149646795Y-89945000D01*
X149544010Y-89934500D01*
X148143998Y-89934500D01*
X148143981Y-89934501D01*
X148041203Y-89945000D01*
X148041200Y-89945001D01*
X147874668Y-90000185D01*
X147874663Y-90000187D01*
X147725342Y-90092289D01*
X147601289Y-90216342D01*
X147509187Y-90365663D01*
X147509186Y-90365666D01*
X147454001Y-90532203D01*
X147454001Y-90532204D01*
X147454000Y-90532204D01*
X147443500Y-90634983D01*
X147443500Y-91385001D01*
X147443501Y-91385019D01*
X147454000Y-91487796D01*
X147454001Y-91487799D01*
X147509185Y-91654331D01*
X147509186Y-91654334D01*
X147601288Y-91803656D01*
X147725344Y-91927712D01*
X147874666Y-92019814D01*
X147958505Y-92047595D01*
X148015948Y-92087366D01*
X148042772Y-92151882D01*
X148043500Y-92165300D01*
X148043500Y-97280060D01*
X148023815Y-97347099D01*
X148007181Y-97367741D01*
X146871741Y-98503181D01*
X146810418Y-98536666D01*
X146784060Y-98539500D01*
X146357673Y-98539500D01*
X146290634Y-98519815D01*
X146261026Y-98493187D01*
X146139722Y-98342278D01*
X146139721Y-98342277D01*
X145991295Y-98222969D01*
X145991292Y-98222967D01*
X145820697Y-98138360D01*
X145635892Y-98092400D01*
X145610229Y-98090660D01*
X145593123Y-98089500D01*
X144990419Y-98089500D01*
X144990417Y-98089500D01*
X143608417Y-98089500D01*
X142338417Y-98089500D01*
X140879416Y-98089500D01*
X140682583Y-98089500D01*
X140682578Y-98089500D01*
X140488173Y-98120290D01*
X140300969Y-98181117D01*
X140125594Y-98270476D01*
X140034741Y-98336485D01*
X139966354Y-98386172D01*
X139966352Y-98386174D01*
X139966351Y-98386174D01*
X132706345Y-105646181D01*
X132645022Y-105679666D01*
X132618664Y-105682500D01*
X132573258Y-105682500D01*
X132356715Y-105711009D01*
X132345762Y-105712452D01*
X132252076Y-105737554D01*
X132124112Y-105771842D01*
X131912123Y-105859650D01*
X131912109Y-105859657D01*
X131713382Y-105974392D01*
X131531338Y-106114081D01*
X131369081Y-106276338D01*
X131229392Y-106458382D01*
X131114657Y-106657109D01*
X131114650Y-106657123D01*
X131026842Y-106869112D01*
X131004924Y-106950914D01*
X130978888Y-107048084D01*
X130967453Y-107090759D01*
X130967451Y-107090770D01*
X130937500Y-107318258D01*
X125214500Y-107318258D01*
X125214500Y-99038902D01*
X127837500Y-99038902D01*
X127837500Y-99275097D01*
X127874446Y-99508368D01*
X127947433Y-99732996D01*
X128016272Y-99868098D01*
X128054657Y-99943433D01*
X128193483Y-100134510D01*
X128360490Y-100301517D01*
X128551567Y-100440343D01*
X128650991Y-100491002D01*
X128762003Y-100547566D01*
X128762005Y-100547566D01*
X128762008Y-100547568D01*
X128814649Y-100564672D01*
X128986631Y-100620553D01*
X129219903Y-100657500D01*
X129219908Y-100657500D01*
X129456097Y-100657500D01*
X129689368Y-100620553D01*
X129721277Y-100610185D01*
X129913992Y-100547568D01*
X130124433Y-100440343D01*
X130315510Y-100301517D01*
X130482517Y-100134510D01*
X130621343Y-99943433D01*
X130728568Y-99732992D01*
X130801553Y-99508368D01*
X130817687Y-99406504D01*
X130838500Y-99275097D01*
X130838500Y-99038902D01*
X134337500Y-99038902D01*
X134337500Y-99275097D01*
X134374446Y-99508368D01*
X134447433Y-99732996D01*
X134516272Y-99868098D01*
X134554657Y-99943433D01*
X134693483Y-100134510D01*
X134860490Y-100301517D01*
X135051567Y-100440343D01*
X135150991Y-100491002D01*
X135262003Y-100547566D01*
X135262005Y-100547566D01*
X135262008Y-100547568D01*
X135314649Y-100564672D01*
X135486631Y-100620553D01*
X135719903Y-100657500D01*
X135719908Y-100657500D01*
X135956097Y-100657500D01*
X136189368Y-100620553D01*
X136221277Y-100610185D01*
X136413992Y-100547568D01*
X136624433Y-100440343D01*
X136815510Y-100301517D01*
X136982517Y-100134510D01*
X137121343Y-99943433D01*
X137228568Y-99732992D01*
X137301553Y-99508368D01*
X137317687Y-99406504D01*
X137338500Y-99275097D01*
X137338500Y-99038902D01*
X137301553Y-98805631D01*
X137228566Y-98581003D01*
X137166147Y-98458499D01*
X137121343Y-98370567D01*
X136982517Y-98179490D01*
X136815510Y-98012483D01*
X136624433Y-97873657D01*
X136620105Y-97871452D01*
X136413996Y-97766433D01*
X136189368Y-97693446D01*
X135956097Y-97656500D01*
X135956092Y-97656500D01*
X135719908Y-97656500D01*
X135719903Y-97656500D01*
X135486631Y-97693446D01*
X135262003Y-97766433D01*
X135051566Y-97873657D01*
X134995379Y-97914480D01*
X134860490Y-98012483D01*
X134860488Y-98012485D01*
X134860487Y-98012485D01*
X134693485Y-98179487D01*
X134693485Y-98179488D01*
X134693483Y-98179490D01*
X134692302Y-98181116D01*
X134554657Y-98370566D01*
X134447433Y-98581003D01*
X134374446Y-98805631D01*
X134337500Y-99038902D01*
X130838500Y-99038902D01*
X130801553Y-98805631D01*
X130728566Y-98581003D01*
X130666147Y-98458499D01*
X130621343Y-98370567D01*
X130482517Y-98179490D01*
X130315510Y-98012483D01*
X130124433Y-97873657D01*
X130120105Y-97871452D01*
X129913996Y-97766433D01*
X129689368Y-97693446D01*
X129456097Y-97656500D01*
X129456092Y-97656500D01*
X129219908Y-97656500D01*
X129219903Y-97656500D01*
X128986631Y-97693446D01*
X128762003Y-97766433D01*
X128551566Y-97873657D01*
X128495379Y-97914480D01*
X128360490Y-98012483D01*
X128360488Y-98012485D01*
X128360487Y-98012485D01*
X128193485Y-98179487D01*
X128193485Y-98179488D01*
X128193483Y-98179490D01*
X128192302Y-98181116D01*
X128054657Y-98370566D01*
X127947433Y-98581003D01*
X127874446Y-98805631D01*
X127837500Y-99038902D01*
X125214500Y-99038902D01*
X125214500Y-93609135D01*
X127837500Y-93609135D01*
X127837500Y-95704870D01*
X127837501Y-95704876D01*
X127843908Y-95764483D01*
X127894202Y-95899328D01*
X127894206Y-95899335D01*
X127980452Y-96014544D01*
X127980455Y-96014547D01*
X128095664Y-96100793D01*
X128095671Y-96100797D01*
X128230517Y-96151091D01*
X128230516Y-96151091D01*
X128237444Y-96151835D01*
X128290127Y-96157500D01*
X130385872Y-96157499D01*
X130445483Y-96151091D01*
X130580331Y-96100796D01*
X130695546Y-96014546D01*
X130781796Y-95899331D01*
X130832091Y-95764483D01*
X130838500Y-95704873D01*
X130838499Y-93609128D01*
X130832091Y-93549517D01*
X130820465Y-93518347D01*
X130781797Y-93414671D01*
X130781793Y-93414664D01*
X130695547Y-93299455D01*
X130695544Y-93299452D01*
X130580335Y-93213206D01*
X130580328Y-93213202D01*
X130445482Y-93162908D01*
X130445483Y-93162908D01*
X130385883Y-93156501D01*
X130385881Y-93156500D01*
X130385873Y-93156500D01*
X130385864Y-93156500D01*
X128290129Y-93156500D01*
X128290123Y-93156501D01*
X128230516Y-93162908D01*
X128095671Y-93213202D01*
X128095664Y-93213206D01*
X127980455Y-93299452D01*
X127980452Y-93299455D01*
X127894206Y-93414664D01*
X127894202Y-93414671D01*
X127843908Y-93549517D01*
X127837501Y-93609116D01*
X127837501Y-93609123D01*
X127837500Y-93609135D01*
X125214500Y-93609135D01*
X125214500Y-87862902D01*
X127837500Y-87862902D01*
X127837500Y-88099097D01*
X127874446Y-88332368D01*
X127947433Y-88556996D01*
X128022397Y-88704119D01*
X128054657Y-88767433D01*
X128193483Y-88958510D01*
X128360490Y-89125517D01*
X128551567Y-89264343D01*
X128650991Y-89315002D01*
X128762003Y-89371566D01*
X128762005Y-89371566D01*
X128762008Y-89371568D01*
X128882412Y-89410689D01*
X128986631Y-89444553D01*
X129219903Y-89481500D01*
X129219908Y-89481500D01*
X129456097Y-89481500D01*
X129689368Y-89444553D01*
X129913992Y-89371568D01*
X130124433Y-89264343D01*
X130315510Y-89125517D01*
X130482517Y-88958510D01*
X130621343Y-88767433D01*
X130728568Y-88556992D01*
X130801553Y-88332368D01*
X130808287Y-88289850D01*
X130838500Y-88099097D01*
X130838500Y-87862902D01*
X134337500Y-87862902D01*
X134337500Y-88099097D01*
X134374446Y-88332368D01*
X134447433Y-88556996D01*
X134522397Y-88704119D01*
X134554657Y-88767433D01*
X134693483Y-88958510D01*
X134860490Y-89125517D01*
X135051567Y-89264343D01*
X135150991Y-89315002D01*
X135262003Y-89371566D01*
X135262005Y-89371566D01*
X135262008Y-89371568D01*
X135382412Y-89410689D01*
X135486631Y-89444553D01*
X135719903Y-89481500D01*
X135719908Y-89481500D01*
X135956097Y-89481500D01*
X136189368Y-89444553D01*
X136413992Y-89371568D01*
X136624433Y-89264343D01*
X136815510Y-89125517D01*
X136982517Y-88958510D01*
X137121343Y-88767433D01*
X137228568Y-88556992D01*
X137301553Y-88332368D01*
X137308287Y-88289850D01*
X137338500Y-88099097D01*
X137338500Y-87862902D01*
X137301553Y-87629631D01*
X137255009Y-87486385D01*
X137228568Y-87405008D01*
X137228566Y-87405005D01*
X137228566Y-87405003D01*
X137158073Y-87266654D01*
X137121343Y-87194567D01*
X136982517Y-87003490D01*
X136815510Y-86836483D01*
X136624433Y-86697657D01*
X136413996Y-86590433D01*
X136189368Y-86517446D01*
X135956097Y-86480500D01*
X135956092Y-86480500D01*
X135719908Y-86480500D01*
X135719903Y-86480500D01*
X135486631Y-86517446D01*
X135262003Y-86590433D01*
X135051566Y-86697657D01*
X134951127Y-86770631D01*
X134860490Y-86836483D01*
X134860488Y-86836485D01*
X134860487Y-86836485D01*
X134693485Y-87003487D01*
X134693485Y-87003488D01*
X134693483Y-87003490D01*
X134659226Y-87050641D01*
X134554657Y-87194566D01*
X134447433Y-87405003D01*
X134374446Y-87629631D01*
X134337500Y-87862902D01*
X130838500Y-87862902D01*
X130801553Y-87629631D01*
X130755009Y-87486385D01*
X130728568Y-87405008D01*
X130728566Y-87405005D01*
X130728566Y-87405003D01*
X130658073Y-87266654D01*
X130621343Y-87194567D01*
X130482517Y-87003490D01*
X130315510Y-86836483D01*
X130124433Y-86697657D01*
X129913996Y-86590433D01*
X129689368Y-86517446D01*
X129456097Y-86480500D01*
X129456092Y-86480500D01*
X129219908Y-86480500D01*
X129219903Y-86480500D01*
X128986631Y-86517446D01*
X128762003Y-86590433D01*
X128551566Y-86697657D01*
X128451127Y-86770631D01*
X128360490Y-86836483D01*
X128360488Y-86836485D01*
X128360487Y-86836485D01*
X128193485Y-87003487D01*
X128193485Y-87003488D01*
X128193483Y-87003490D01*
X128159226Y-87050641D01*
X128054657Y-87194566D01*
X127947433Y-87405003D01*
X127874446Y-87629631D01*
X127837500Y-87862902D01*
X125214500Y-87862902D01*
X125214500Y-82433135D01*
X127837500Y-82433135D01*
X127837500Y-84528870D01*
X127837501Y-84528876D01*
X127843908Y-84588483D01*
X127894202Y-84723328D01*
X127894206Y-84723335D01*
X127980452Y-84838544D01*
X127980455Y-84838547D01*
X128095664Y-84924793D01*
X128095671Y-84924797D01*
X128230517Y-84975091D01*
X128230516Y-84975091D01*
X128237444Y-84975835D01*
X128290127Y-84981500D01*
X130385872Y-84981499D01*
X130445483Y-84975091D01*
X130580331Y-84924796D01*
X130695546Y-84838546D01*
X130781796Y-84723331D01*
X130832091Y-84588483D01*
X130838500Y-84528873D01*
X130838499Y-83362902D01*
X134337500Y-83362902D01*
X134337500Y-83599097D01*
X134374446Y-83832368D01*
X134447433Y-84056996D01*
X134510013Y-84179815D01*
X134554657Y-84267433D01*
X134693483Y-84458510D01*
X134860490Y-84625517D01*
X135051567Y-84764343D01*
X135150991Y-84815002D01*
X135262003Y-84871566D01*
X135262005Y-84871566D01*
X135262008Y-84871568D01*
X135382412Y-84910689D01*
X135486631Y-84944553D01*
X135719903Y-84981500D01*
X135719908Y-84981500D01*
X135956097Y-84981500D01*
X136189368Y-84944553D01*
X136413992Y-84871568D01*
X136624433Y-84764343D01*
X136815510Y-84625517D01*
X136982517Y-84458510D01*
X137121343Y-84267433D01*
X137181583Y-84149204D01*
X137192032Y-84138140D01*
X137198355Y-84124297D01*
X137215535Y-84113255D01*
X137229558Y-84098409D01*
X137245237Y-84094167D01*
X137257133Y-84086523D01*
X137292068Y-84081500D01*
X137418331Y-84081500D01*
X137418347Y-84081501D01*
X137425943Y-84081501D01*
X137584054Y-84081501D01*
X137584057Y-84081501D01*
X137736785Y-84040577D01*
X137796660Y-84006008D01*
X137873716Y-83961520D01*
X137985520Y-83849716D01*
X137985520Y-83849714D01*
X137995724Y-83839511D01*
X137995728Y-83839506D01*
X138379819Y-83455415D01*
X138441142Y-83421930D01*
X138510834Y-83426914D01*
X138566767Y-83468786D01*
X138591184Y-83534250D01*
X138591500Y-83543096D01*
X138591500Y-93304902D01*
X138571815Y-93371941D01*
X138555181Y-93392583D01*
X137927584Y-94020181D01*
X137866261Y-94053666D01*
X137839903Y-94056500D01*
X137292068Y-94056500D01*
X137225029Y-94036815D01*
X137181583Y-93988795D01*
X137121343Y-93870567D01*
X136982517Y-93679490D01*
X136815510Y-93512483D01*
X136624433Y-93373657D01*
X136621065Y-93371941D01*
X136413996Y-93266433D01*
X136189368Y-93193446D01*
X135956097Y-93156500D01*
X135956092Y-93156500D01*
X135719908Y-93156500D01*
X135719903Y-93156500D01*
X135486631Y-93193446D01*
X135262003Y-93266433D01*
X135051566Y-93373657D01*
X134995119Y-93414669D01*
X134860490Y-93512483D01*
X134860488Y-93512485D01*
X134860487Y-93512485D01*
X134693485Y-93679487D01*
X134693485Y-93679488D01*
X134693483Y-93679490D01*
X134690165Y-93684057D01*
X134554657Y-93870566D01*
X134447433Y-94081003D01*
X134374446Y-94305631D01*
X134337500Y-94538902D01*
X134337500Y-94775097D01*
X134374446Y-95008368D01*
X134447433Y-95232996D01*
X134554657Y-95443433D01*
X134693483Y-95634510D01*
X134860490Y-95801517D01*
X135051567Y-95940343D01*
X135150991Y-95991002D01*
X135262003Y-96047566D01*
X135262005Y-96047566D01*
X135262008Y-96047568D01*
X135382412Y-96086689D01*
X135486631Y-96120553D01*
X135719903Y-96157500D01*
X135719908Y-96157500D01*
X135956097Y-96157500D01*
X136189368Y-96120553D01*
X136413992Y-96047568D01*
X136624433Y-95940343D01*
X136815510Y-95801517D01*
X136982517Y-95634510D01*
X137121343Y-95443433D01*
X137181583Y-95325204D01*
X137229558Y-95274409D01*
X137292068Y-95257500D01*
X138053331Y-95257500D01*
X138053347Y-95257501D01*
X138060943Y-95257501D01*
X138219054Y-95257501D01*
X138219057Y-95257501D01*
X138371785Y-95216577D01*
X138421904Y-95187639D01*
X138508716Y-95137520D01*
X138620520Y-95025716D01*
X138620520Y-95025714D01*
X138630728Y-95015507D01*
X138630729Y-95015504D01*
X139672520Y-93973716D01*
X139751577Y-93836784D01*
X139792501Y-93684057D01*
X139792501Y-93525942D01*
X139792501Y-93518347D01*
X139792500Y-93518329D01*
X139792500Y-88434986D01*
X147444001Y-88434986D01*
X147454494Y-88537697D01*
X147509641Y-88704119D01*
X147509643Y-88704124D01*
X147601684Y-88853345D01*
X147725654Y-88977315D01*
X147874875Y-89069356D01*
X147874880Y-89069358D01*
X148041302Y-89124505D01*
X148041309Y-89124506D01*
X148144019Y-89134999D01*
X148593999Y-89134999D01*
X149094000Y-89134999D01*
X149543972Y-89134999D01*
X149543986Y-89134998D01*
X149646697Y-89124505D01*
X149813119Y-89069358D01*
X149813124Y-89069356D01*
X149962345Y-88977315D01*
X150086315Y-88853345D01*
X150178356Y-88704124D01*
X150178358Y-88704119D01*
X150233505Y-88537697D01*
X150233506Y-88537690D01*
X150243999Y-88434986D01*
X150244000Y-88434973D01*
X150244000Y-88310000D01*
X149094000Y-88310000D01*
X149094000Y-89134999D01*
X148593999Y-89134999D01*
X148594000Y-89134998D01*
X148594000Y-88310000D01*
X147444001Y-88310000D01*
X147444001Y-88434986D01*
X139792500Y-88434986D01*
X139792500Y-87685013D01*
X147444000Y-87685013D01*
X147444000Y-87810000D01*
X148594000Y-87810000D01*
X149094000Y-87810000D01*
X150243999Y-87810000D01*
X150243999Y-87685028D01*
X150243998Y-87685013D01*
X150233505Y-87582302D01*
X150178358Y-87415880D01*
X150178356Y-87415875D01*
X150086315Y-87266654D01*
X149962345Y-87142684D01*
X149813124Y-87050643D01*
X149813119Y-87050641D01*
X149646697Y-86995494D01*
X149646690Y-86995493D01*
X149543986Y-86985000D01*
X149094000Y-86985000D01*
X149094000Y-87810000D01*
X148594000Y-87810000D01*
X148594000Y-86985000D01*
X148144028Y-86985000D01*
X148144012Y-86985001D01*
X148041302Y-86995494D01*
X147874880Y-87050641D01*
X147874875Y-87050643D01*
X147725654Y-87142684D01*
X147601684Y-87266654D01*
X147509643Y-87415875D01*
X147509641Y-87415880D01*
X147454494Y-87582302D01*
X147454493Y-87582309D01*
X147444000Y-87685013D01*
X139792500Y-87685013D01*
X139792500Y-84172808D01*
X139812185Y-84105769D01*
X139864989Y-84060014D01*
X139934147Y-84050070D01*
X139997703Y-84079095D01*
X140030925Y-84128889D01*
X140031592Y-84128579D01*
X140033619Y-84132927D01*
X140034207Y-84133808D01*
X140034641Y-84135118D01*
X140034643Y-84135124D01*
X140126684Y-84284345D01*
X140250654Y-84408315D01*
X140399875Y-84500356D01*
X140399880Y-84500358D01*
X140566302Y-84555505D01*
X140566309Y-84555506D01*
X140669019Y-84565999D01*
X140781499Y-84565999D01*
X141281500Y-84565999D01*
X141393972Y-84565999D01*
X141393986Y-84565998D01*
X141496697Y-84555505D01*
X141663119Y-84500358D01*
X141663124Y-84500356D01*
X141812345Y-84408315D01*
X141936315Y-84284345D01*
X142028356Y-84135124D01*
X142028358Y-84135119D01*
X142083505Y-83968697D01*
X142083506Y-83968690D01*
X142093999Y-83865986D01*
X142094000Y-83865973D01*
X142094000Y-83441000D01*
X141281500Y-83441000D01*
X141281500Y-84565999D01*
X140781499Y-84565999D01*
X140781500Y-84565998D01*
X140781500Y-82941000D01*
X141281500Y-82941000D01*
X142093999Y-82941000D01*
X142093999Y-82516028D01*
X142093998Y-82516013D01*
X142083505Y-82413302D01*
X142028358Y-82246880D01*
X142028356Y-82246875D01*
X141936315Y-82097654D01*
X141812345Y-81973684D01*
X141663124Y-81881643D01*
X141663119Y-81881641D01*
X141496697Y-81826494D01*
X141496690Y-81826493D01*
X141393986Y-81816000D01*
X141281500Y-81816000D01*
X141281500Y-82941000D01*
X140781500Y-82941000D01*
X140781500Y-81816000D01*
X140669027Y-81816000D01*
X140669012Y-81816001D01*
X140566302Y-81826494D01*
X140399880Y-81881641D01*
X140399875Y-81881643D01*
X140250654Y-81973684D01*
X140126684Y-82097654D01*
X140034643Y-82246875D01*
X140034642Y-82246878D01*
X140034206Y-82248196D01*
X140033661Y-82248981D01*
X140031592Y-82253421D01*
X140030833Y-82253067D01*
X139994433Y-82305640D01*
X139929917Y-82332463D01*
X139861141Y-82320148D01*
X139809941Y-82272604D01*
X139792500Y-82209191D01*
X139792500Y-80237397D01*
X139812185Y-80170358D01*
X139864989Y-80124603D01*
X139934147Y-80114659D01*
X139997703Y-80143684D01*
X140030117Y-80192265D01*
X140031136Y-80191791D01*
X140034185Y-80198331D01*
X140034186Y-80198334D01*
X140126288Y-80347656D01*
X140250344Y-80471712D01*
X140399666Y-80563814D01*
X140566203Y-80618999D01*
X140668991Y-80629500D01*
X141394008Y-80629499D01*
X141394016Y-80629498D01*
X141394019Y-80629498D01*
X141450302Y-80623748D01*
X141496797Y-80618999D01*
X141663334Y-80563814D01*
X141812656Y-80471712D01*
X141936712Y-80347656D01*
X142028814Y-80198334D01*
X142083999Y-80031797D01*
X142094500Y-79929009D01*
X142094500Y-79928986D01*
X142894001Y-79928986D01*
X142904494Y-80031697D01*
X142959641Y-80198119D01*
X142959643Y-80198124D01*
X143051684Y-80347345D01*
X143175654Y-80471315D01*
X143324875Y-80563356D01*
X143324880Y-80563358D01*
X143491302Y-80618505D01*
X143491309Y-80618506D01*
X143594019Y-80628999D01*
X143706499Y-80628999D01*
X144206500Y-80628999D01*
X144318972Y-80628999D01*
X144318986Y-80628998D01*
X144421697Y-80618505D01*
X144588119Y-80563358D01*
X144588124Y-80563356D01*
X144737345Y-80471315D01*
X144861315Y-80347345D01*
X144953356Y-80198124D01*
X144953358Y-80198119D01*
X145008505Y-80031697D01*
X145008506Y-80031690D01*
X145018999Y-79928986D01*
X145019000Y-79928973D01*
X145019000Y-79504000D01*
X144206500Y-79504000D01*
X144206500Y-80628999D01*
X143706499Y-80628999D01*
X143706500Y-80628998D01*
X143706500Y-79504000D01*
X142894001Y-79504000D01*
X142894001Y-79928986D01*
X142094500Y-79928986D01*
X142094499Y-79243583D01*
X142094499Y-78579013D01*
X142894000Y-78579013D01*
X142894000Y-79004000D01*
X143706500Y-79004000D01*
X144206500Y-79004000D01*
X145018999Y-79004000D01*
X145018999Y-78579028D01*
X145018998Y-78579013D01*
X145008505Y-78476302D01*
X144953358Y-78309880D01*
X144953356Y-78309875D01*
X144861315Y-78160654D01*
X144793508Y-78092847D01*
X144760023Y-78031524D01*
X144765007Y-77961832D01*
X144793508Y-77917484D01*
X144861317Y-77849675D01*
X144953356Y-77700457D01*
X144953358Y-77700452D01*
X145008505Y-77534030D01*
X145008506Y-77534023D01*
X145018999Y-77431319D01*
X145019000Y-77431306D01*
X145019000Y-77006333D01*
X144206500Y-77006333D01*
X144206500Y-79004000D01*
X143706500Y-79004000D01*
X143706500Y-77006333D01*
X142894001Y-77006333D01*
X142894001Y-77431319D01*
X142904494Y-77534030D01*
X142959641Y-77700452D01*
X142959643Y-77700457D01*
X143051684Y-77849678D01*
X143119491Y-77917485D01*
X143152976Y-77978808D01*
X143147992Y-78048500D01*
X143119492Y-78092847D01*
X143051682Y-78160657D01*
X142959643Y-78309875D01*
X142959641Y-78309880D01*
X142904494Y-78476302D01*
X142904493Y-78476309D01*
X142894000Y-78579013D01*
X142094499Y-78579013D01*
X142094499Y-78578998D01*
X142094498Y-78578981D01*
X142083999Y-78476203D01*
X142083998Y-78476200D01*
X142049539Y-78372210D01*
X142028814Y-78309666D01*
X141936712Y-78160344D01*
X141869215Y-78092847D01*
X141835730Y-78031524D01*
X141840714Y-77961832D01*
X141869211Y-77917489D01*
X141936712Y-77849989D01*
X142028814Y-77700667D01*
X142083999Y-77534130D01*
X142094500Y-77431342D01*
X142094499Y-76081346D01*
X142894000Y-76081346D01*
X142894000Y-76506333D01*
X143706500Y-76506333D01*
X143706500Y-75764260D01*
X144206500Y-75764260D01*
X144206500Y-76506333D01*
X145018999Y-76506333D01*
X145018999Y-76081361D01*
X145018998Y-76081346D01*
X145008505Y-75978635D01*
X144953358Y-75812213D01*
X144953356Y-75812208D01*
X144861315Y-75662987D01*
X144816675Y-75618347D01*
X144783190Y-75557024D01*
X144788174Y-75487332D01*
X144816676Y-75442984D01*
X144865315Y-75394345D01*
X144957356Y-75245124D01*
X144957358Y-75245119D01*
X145012505Y-75078697D01*
X145012506Y-75078690D01*
X145022999Y-74975986D01*
X145023000Y-74975973D01*
X145023000Y-74551000D01*
X144210500Y-74551000D01*
X144210500Y-75750638D01*
X144206500Y-75764260D01*
X143706500Y-75764260D01*
X143706500Y-75306695D01*
X143710500Y-75293072D01*
X143710500Y-74551000D01*
X142898001Y-74551000D01*
X142898001Y-74975986D01*
X142908494Y-75078697D01*
X142963641Y-75245119D01*
X142963643Y-75245124D01*
X143055684Y-75394345D01*
X143100324Y-75438985D01*
X143133809Y-75500308D01*
X143128825Y-75570000D01*
X143100325Y-75614346D01*
X143051684Y-75662987D01*
X142959643Y-75812208D01*
X142959641Y-75812213D01*
X142904494Y-75978635D01*
X142904493Y-75978642D01*
X142894000Y-76081346D01*
X142094499Y-76081346D01*
X142094499Y-76081325D01*
X142083999Y-75978536D01*
X142028814Y-75811999D01*
X141936712Y-75662677D01*
X141892382Y-75618347D01*
X141858897Y-75557024D01*
X141863881Y-75487332D01*
X141892381Y-75442986D01*
X141940712Y-75394656D01*
X142032814Y-75245334D01*
X142087999Y-75078797D01*
X142098500Y-74976009D01*
X142098499Y-73625992D01*
X142090230Y-73545048D01*
X142087999Y-73523203D01*
X142087998Y-73523200D01*
X142073763Y-73480241D01*
X142032814Y-73356666D01*
X141940712Y-73207344D01*
X141913549Y-73180181D01*
X141880064Y-73118858D01*
X141885048Y-73049166D01*
X141913549Y-73004819D01*
X141924163Y-72994205D01*
X141936712Y-72981656D01*
X142028814Y-72832334D01*
X142083999Y-72665797D01*
X142094500Y-72563009D01*
X142094500Y-72562986D01*
X142894001Y-72562986D01*
X142904494Y-72665697D01*
X142959641Y-72832119D01*
X142959643Y-72832124D01*
X143051684Y-72981345D01*
X143079158Y-73008819D01*
X143112643Y-73070142D01*
X143107659Y-73139834D01*
X143079158Y-73184181D01*
X143055684Y-73207654D01*
X142963643Y-73356875D01*
X142963641Y-73356880D01*
X142908494Y-73523302D01*
X142908493Y-73523309D01*
X142898000Y-73626013D01*
X142898000Y-74051000D01*
X143710500Y-74051000D01*
X143710500Y-73366131D01*
X143709334Y-73363996D01*
X143706500Y-73337638D01*
X143706500Y-72822868D01*
X144206500Y-72822868D01*
X144207666Y-72825004D01*
X144210500Y-72851362D01*
X144210500Y-74051000D01*
X145022999Y-74051000D01*
X145022999Y-73626028D01*
X145022998Y-73626013D01*
X145012505Y-73523302D01*
X144957358Y-73356880D01*
X144957356Y-73356875D01*
X144865315Y-73207654D01*
X144837842Y-73180181D01*
X144804357Y-73118858D01*
X144809341Y-73049166D01*
X144837842Y-73004819D01*
X144861315Y-72981345D01*
X144953356Y-72832124D01*
X144953358Y-72832119D01*
X145008505Y-72665697D01*
X145008506Y-72665690D01*
X145018999Y-72562986D01*
X145019000Y-72562973D01*
X145019000Y-72138000D01*
X144206500Y-72138000D01*
X144206500Y-72822868D01*
X143706500Y-72822868D01*
X143706500Y-72138000D01*
X142894001Y-72138000D01*
X142894001Y-72562986D01*
X142094500Y-72562986D01*
X142094499Y-71886893D01*
X142094499Y-71212998D01*
X142094498Y-71212981D01*
X142083999Y-71110203D01*
X142083998Y-71110200D01*
X142077121Y-71089446D01*
X142028814Y-70943666D01*
X141936712Y-70794344D01*
X141911194Y-70768826D01*
X141877710Y-70707504D01*
X141882694Y-70637812D01*
X141911198Y-70593462D01*
X141936314Y-70568347D01*
X142028356Y-70419124D01*
X142028358Y-70419119D01*
X142083505Y-70252697D01*
X142083506Y-70252690D01*
X142093999Y-70149986D01*
X142094000Y-70149973D01*
X142094000Y-69725000D01*
X139969001Y-69725000D01*
X139969001Y-70149986D01*
X139979494Y-70252697D01*
X140034641Y-70419119D01*
X140034643Y-70419124D01*
X140126684Y-70568345D01*
X140151804Y-70593465D01*
X140185289Y-70654788D01*
X140180305Y-70724480D01*
X140151806Y-70768826D01*
X140126288Y-70794344D01*
X140118778Y-70806520D01*
X140034187Y-70943663D01*
X140034185Y-70943668D01*
X140012459Y-71009234D01*
X139979001Y-71110203D01*
X139979001Y-71110204D01*
X139979000Y-71110204D01*
X139974510Y-71154158D01*
X139948113Y-71218849D01*
X139890932Y-71259000D01*
X139821121Y-71261862D01*
X139763471Y-71229235D01*
X139447819Y-70913583D01*
X139414334Y-70852260D01*
X139411500Y-70825902D01*
X139411500Y-68800013D01*
X139969000Y-68800013D01*
X139969000Y-69225000D01*
X140781500Y-69225000D01*
X141281500Y-69225000D01*
X142093999Y-69225000D01*
X142093999Y-68800024D01*
X142093998Y-68800016D01*
X142093995Y-68799983D01*
X142893500Y-68799983D01*
X142893500Y-70150001D01*
X142893501Y-70150018D01*
X142904000Y-70252796D01*
X142904001Y-70252799D01*
X142936211Y-70350000D01*
X142959186Y-70419334D01*
X143051097Y-70568347D01*
X143051289Y-70568657D01*
X143076804Y-70594172D01*
X143110289Y-70655495D01*
X143105305Y-70725187D01*
X143076806Y-70769533D01*
X143051682Y-70794656D01*
X142959643Y-70943875D01*
X142959641Y-70943880D01*
X142904494Y-71110302D01*
X142904493Y-71110309D01*
X142894000Y-71213013D01*
X142894000Y-71638000D01*
X145018999Y-71638000D01*
X145018999Y-71213028D01*
X145018998Y-71213013D01*
X145008505Y-71110302D01*
X144953358Y-70943880D01*
X144953356Y-70943875D01*
X144861315Y-70794654D01*
X144836195Y-70769534D01*
X144802710Y-70708211D01*
X144807694Y-70638519D01*
X144836196Y-70594171D01*
X144861712Y-70568656D01*
X144953814Y-70419334D01*
X145008999Y-70252797D01*
X145012481Y-70218716D01*
X145015732Y-70186897D01*
X145042129Y-70122205D01*
X145099310Y-70082054D01*
X145139090Y-70075500D01*
X146214500Y-70075500D01*
X146281539Y-70095185D01*
X146327294Y-70147989D01*
X146338500Y-70199500D01*
X146338500Y-71795330D01*
X146338499Y-71795348D01*
X146338499Y-71961054D01*
X146338498Y-71961054D01*
X146379423Y-72113785D01*
X146405074Y-72158212D01*
X146405075Y-72158216D01*
X146405076Y-72158216D01*
X146424208Y-72191355D01*
X146458479Y-72250714D01*
X146458481Y-72250717D01*
X146577349Y-72369585D01*
X146577355Y-72369590D01*
X146902478Y-72694713D01*
X146902480Y-72694716D01*
X147014284Y-72806520D01*
X147047933Y-72825947D01*
X147057743Y-72834839D01*
X147069340Y-72853804D01*
X147084681Y-72869893D01*
X147089983Y-72887561D01*
X147094194Y-72894447D01*
X147094045Y-72901096D01*
X147097755Y-72913458D01*
X147099907Y-72933480D01*
X147150202Y-73068328D01*
X147150206Y-73068335D01*
X147236452Y-73183544D01*
X147236453Y-73183544D01*
X147236454Y-73183546D01*
X147265615Y-73205376D01*
X147294145Y-73226734D01*
X147336015Y-73282668D01*
X147340999Y-73352360D01*
X147307513Y-73413683D01*
X147294145Y-73425266D01*
X147236452Y-73468455D01*
X147150206Y-73583664D01*
X147150202Y-73583671D01*
X147099908Y-73718517D01*
X147093501Y-73778116D01*
X147093500Y-73778135D01*
X147093500Y-74873870D01*
X147093501Y-74873876D01*
X147099908Y-74933483D01*
X147150202Y-75068328D01*
X147150206Y-75068335D01*
X147236452Y-75183544D01*
X147236453Y-75183544D01*
X147236454Y-75183546D01*
X147265615Y-75205376D01*
X147294145Y-75226734D01*
X147336015Y-75282668D01*
X147340999Y-75352360D01*
X147307513Y-75413683D01*
X147294145Y-75425266D01*
X147236452Y-75468455D01*
X147150206Y-75583664D01*
X147150202Y-75583671D01*
X147099908Y-75718517D01*
X147093501Y-75778116D01*
X147093501Y-75778123D01*
X147093500Y-75778135D01*
X147093500Y-76873870D01*
X147093501Y-76873876D01*
X147099908Y-76933483D01*
X147150202Y-77068328D01*
X147150206Y-77068335D01*
X147236452Y-77183544D01*
X147236453Y-77183544D01*
X147236454Y-77183546D01*
X147265615Y-77205376D01*
X147294145Y-77226734D01*
X147336015Y-77282668D01*
X147340999Y-77352360D01*
X147307513Y-77413683D01*
X147294145Y-77425266D01*
X147236452Y-77468455D01*
X147150206Y-77583664D01*
X147150202Y-77583671D01*
X147099908Y-77718517D01*
X147093501Y-77778116D01*
X147093500Y-77778127D01*
X147093500Y-78873870D01*
X147093501Y-78873876D01*
X147099908Y-78933483D01*
X147150202Y-79068328D01*
X147150206Y-79068335D01*
X147236452Y-79183544D01*
X147236453Y-79183544D01*
X147236454Y-79183546D01*
X147265615Y-79205376D01*
X147294145Y-79226734D01*
X147336015Y-79282668D01*
X147340999Y-79352360D01*
X147307513Y-79413683D01*
X147294145Y-79425266D01*
X147236452Y-79468455D01*
X147150206Y-79583664D01*
X147150202Y-79583671D01*
X147127391Y-79644833D01*
X147114121Y-79662559D01*
X147104922Y-79682703D01*
X147093591Y-79689984D01*
X147085520Y-79700767D01*
X147064771Y-79708505D01*
X147046144Y-79720477D01*
X147024227Y-79723628D01*
X147020056Y-79725184D01*
X147011209Y-79725500D01*
X146908169Y-79725500D01*
X146908153Y-79725499D01*
X146900557Y-79725499D01*
X146742443Y-79725499D01*
X146627897Y-79756192D01*
X146589714Y-79766423D01*
X146541085Y-79794500D01*
X146541084Y-79794500D01*
X146452787Y-79845477D01*
X146452782Y-79845481D01*
X146340978Y-79957286D01*
X144509250Y-81789013D01*
X144447927Y-81822498D01*
X144408967Y-81824690D01*
X144319011Y-81815500D01*
X143593998Y-81815500D01*
X143593980Y-81815501D01*
X143491203Y-81826000D01*
X143491200Y-81826001D01*
X143324668Y-81881185D01*
X143324663Y-81881187D01*
X143175342Y-81973289D01*
X143051289Y-82097342D01*
X142959187Y-82246663D01*
X142959185Y-82246668D01*
X142950591Y-82272604D01*
X142904001Y-82413203D01*
X142904001Y-82413204D01*
X142904000Y-82413204D01*
X142893500Y-82515983D01*
X142893500Y-83866001D01*
X142893501Y-83866018D01*
X142904000Y-83968796D01*
X142904001Y-83968799D01*
X142959185Y-84135331D01*
X142959187Y-84135336D01*
X142979950Y-84168998D01*
X143051288Y-84284656D01*
X143175344Y-84408712D01*
X143324666Y-84500814D01*
X143491203Y-84555999D01*
X143593991Y-84566500D01*
X144319008Y-84566499D01*
X144319016Y-84566498D01*
X144319019Y-84566498D01*
X144376912Y-84560584D01*
X144421797Y-84555999D01*
X144588334Y-84500814D01*
X144737656Y-84408712D01*
X144861712Y-84284656D01*
X144953814Y-84135334D01*
X145008999Y-83968797D01*
X145019500Y-83866009D01*
X145019499Y-83028595D01*
X145039183Y-82961557D01*
X145055813Y-82940920D01*
X145122889Y-82873844D01*
X147094000Y-82873844D01*
X147100401Y-82933372D01*
X147100403Y-82933379D01*
X147150645Y-83068086D01*
X147150649Y-83068093D01*
X147236809Y-83183187D01*
X147236812Y-83183190D01*
X147351906Y-83269350D01*
X147351913Y-83269354D01*
X147486620Y-83319596D01*
X147486627Y-83319598D01*
X147546155Y-83325999D01*
X147546172Y-83326000D01*
X148594000Y-83326000D01*
X148594000Y-82576000D01*
X149094000Y-82576000D01*
X149094000Y-83326000D01*
X150141828Y-83326000D01*
X150141844Y-83325999D01*
X150201372Y-83319598D01*
X150201383Y-83319595D01*
X150276166Y-83291703D01*
X150345857Y-83286718D01*
X150407181Y-83320202D01*
X150440666Y-83381525D01*
X150443500Y-83407884D01*
X150443500Y-84773870D01*
X150443501Y-84773876D01*
X150449908Y-84833483D01*
X150500202Y-84968328D01*
X150500206Y-84968335D01*
X150586452Y-85083544D01*
X150586455Y-85083547D01*
X150701664Y-85169793D01*
X150701671Y-85169797D01*
X150836517Y-85220091D01*
X150836516Y-85220091D01*
X150843444Y-85220835D01*
X150896127Y-85226500D01*
X151991872Y-85226499D01*
X152051483Y-85220091D01*
X152186331Y-85169796D01*
X152301546Y-85083546D01*
X152344734Y-85025854D01*
X152400667Y-84983984D01*
X152470359Y-84979000D01*
X152531682Y-85012485D01*
X152543263Y-85025850D01*
X152586454Y-85083546D01*
X152632643Y-85118123D01*
X152701664Y-85169793D01*
X152701671Y-85169797D01*
X152836517Y-85220091D01*
X152836516Y-85220091D01*
X152843444Y-85220835D01*
X152896127Y-85226500D01*
X153991872Y-85226499D01*
X154051483Y-85220091D01*
X154186331Y-85169796D01*
X154301546Y-85083546D01*
X154344734Y-85025854D01*
X154400667Y-84983984D01*
X154470359Y-84979000D01*
X154531682Y-85012485D01*
X154543263Y-85025850D01*
X154586454Y-85083546D01*
X154632643Y-85118123D01*
X154701664Y-85169793D01*
X154701671Y-85169797D01*
X154836517Y-85220091D01*
X154836516Y-85220091D01*
X154843444Y-85220835D01*
X154896127Y-85226500D01*
X155991872Y-85226499D01*
X156051483Y-85220091D01*
X156186331Y-85169796D01*
X156301546Y-85083546D01*
X156344734Y-85025854D01*
X156400667Y-84983984D01*
X156470359Y-84979000D01*
X156531682Y-85012485D01*
X156543263Y-85025850D01*
X156586454Y-85083546D01*
X156632643Y-85118123D01*
X156701664Y-85169793D01*
X156701671Y-85169797D01*
X156836517Y-85220091D01*
X156836516Y-85220091D01*
X156843444Y-85220835D01*
X156896127Y-85226500D01*
X157991872Y-85226499D01*
X158051483Y-85220091D01*
X158186331Y-85169796D01*
X158301546Y-85083546D01*
X158344734Y-85025854D01*
X158400667Y-84983984D01*
X158470359Y-84979000D01*
X158531682Y-85012485D01*
X158543263Y-85025850D01*
X158586454Y-85083546D01*
X158632643Y-85118123D01*
X158701664Y-85169793D01*
X158701671Y-85169797D01*
X158836517Y-85220091D01*
X158836516Y-85220091D01*
X158843444Y-85220835D01*
X158896127Y-85226500D01*
X159991872Y-85226499D01*
X160051483Y-85220091D01*
X160186331Y-85169796D01*
X160301546Y-85083546D01*
X160344734Y-85025854D01*
X160400667Y-84983984D01*
X160470359Y-84979000D01*
X160531682Y-85012485D01*
X160543263Y-85025850D01*
X160586454Y-85083546D01*
X160632643Y-85118123D01*
X160701664Y-85169793D01*
X160701671Y-85169797D01*
X160836517Y-85220091D01*
X160836516Y-85220091D01*
X160843444Y-85220835D01*
X160896127Y-85226500D01*
X161991872Y-85226499D01*
X162051483Y-85220091D01*
X162186331Y-85169796D01*
X162301546Y-85083546D01*
X162387796Y-84968331D01*
X162438091Y-84833483D01*
X162444500Y-84773873D01*
X162444499Y-83408416D01*
X162464184Y-83341378D01*
X162516987Y-83295623D01*
X162586146Y-83285679D01*
X162611827Y-83292233D01*
X162686517Y-83320091D01*
X162746127Y-83326500D01*
X165341872Y-83326499D01*
X165401483Y-83320091D01*
X165536331Y-83269796D01*
X165651546Y-83183546D01*
X165737796Y-83068331D01*
X165760609Y-83007167D01*
X165802480Y-82951233D01*
X165867944Y-82926816D01*
X165876791Y-82926500D01*
X166607903Y-82926500D01*
X166674942Y-82946185D01*
X166695584Y-82962819D01*
X171219139Y-87486374D01*
X171219149Y-87486385D01*
X171223479Y-87490715D01*
X171223480Y-87490716D01*
X171335284Y-87602520D01*
X171382243Y-87629631D01*
X171422095Y-87652639D01*
X171422097Y-87652641D01*
X171472213Y-87681576D01*
X171472215Y-87681577D01*
X171624942Y-87722500D01*
X171624943Y-87722500D01*
X176726932Y-87722500D01*
X176793971Y-87742185D01*
X176837416Y-87790203D01*
X176897657Y-87908433D01*
X177036483Y-88099510D01*
X177036489Y-88099516D01*
X177039647Y-88103214D01*
X177037977Y-88104640D01*
X177067089Y-88157954D01*
X177062105Y-88227646D01*
X177020233Y-88283579D01*
X177011022Y-88289850D01*
X176962654Y-88319684D01*
X176838684Y-88443654D01*
X176746643Y-88592875D01*
X176746641Y-88592880D01*
X176691494Y-88759302D01*
X176691493Y-88759309D01*
X176681000Y-88862013D01*
X176681000Y-89412000D01*
X177632518Y-89412000D01*
X177621889Y-89430409D01*
X177581000Y-89583009D01*
X177581000Y-89740991D01*
X177621889Y-89893591D01*
X177632518Y-89912000D01*
X176681001Y-89912000D01*
X176681001Y-90461986D01*
X176691494Y-90564697D01*
X176746641Y-90731119D01*
X176746643Y-90731124D01*
X176838684Y-90880345D01*
X176962654Y-91004315D01*
X177111875Y-91096356D01*
X177111880Y-91096358D01*
X177278302Y-91151505D01*
X177278309Y-91151506D01*
X177381019Y-91161999D01*
X177930999Y-91161999D01*
X177931000Y-91161998D01*
X177931000Y-90210482D01*
X177949409Y-90221111D01*
X178102009Y-90262000D01*
X178259991Y-90262000D01*
X178412591Y-90221111D01*
X178431000Y-90210482D01*
X178431000Y-91161999D01*
X178980972Y-91161999D01*
X178980986Y-91161998D01*
X179083697Y-91151505D01*
X179250119Y-91096358D01*
X179250124Y-91096356D01*
X179399345Y-91004315D01*
X179523315Y-90880345D01*
X179615356Y-90731124D01*
X179615358Y-90731119D01*
X179670505Y-90564697D01*
X179670506Y-90564690D01*
X179680999Y-90461986D01*
X179681000Y-90461973D01*
X179681000Y-89912000D01*
X178729482Y-89912000D01*
X178740111Y-89893591D01*
X178781000Y-89740991D01*
X178781000Y-89583009D01*
X178740111Y-89430409D01*
X178729482Y-89412000D01*
X179680999Y-89412000D01*
X179680999Y-88862028D01*
X179680998Y-88862013D01*
X179670505Y-88759302D01*
X179615358Y-88592880D01*
X179615356Y-88592875D01*
X179523315Y-88443654D01*
X179399343Y-88319682D01*
X179350980Y-88289852D01*
X179304255Y-88237904D01*
X179293032Y-88168942D01*
X179320876Y-88104859D01*
X179322362Y-88103233D01*
X179322348Y-88103221D01*
X179325511Y-88099516D01*
X179325517Y-88099510D01*
X179464343Y-87908433D01*
X179571568Y-87697992D01*
X179644553Y-87473368D01*
X179655381Y-87405003D01*
X179681500Y-87240097D01*
X179681500Y-87003902D01*
X179644553Y-86770631D01*
X179610689Y-86666412D01*
X179571568Y-86546008D01*
X179571566Y-86546005D01*
X179571566Y-86546003D01*
X179464342Y-86335566D01*
X179325517Y-86144490D01*
X179158510Y-85977483D01*
X179123872Y-85952317D01*
X179081207Y-85896989D01*
X179075228Y-85827375D01*
X179107833Y-85765580D01*
X179123873Y-85751682D01*
X179158510Y-85726517D01*
X179325517Y-85559510D01*
X179464343Y-85368433D01*
X179571568Y-85157992D01*
X179644553Y-84933368D01*
X179654341Y-84871568D01*
X179681500Y-84700097D01*
X179681500Y-84463902D01*
X179644553Y-84230631D01*
X179595315Y-84079095D01*
X179571568Y-84006008D01*
X179571566Y-84006005D01*
X179571566Y-84006003D01*
X179515002Y-83894991D01*
X179464343Y-83795567D01*
X179325517Y-83604490D01*
X179158510Y-83437483D01*
X178967433Y-83298657D01*
X178953785Y-83291703D01*
X178756996Y-83191433D01*
X178532368Y-83118446D01*
X178299097Y-83081500D01*
X178299092Y-83081500D01*
X178062908Y-83081500D01*
X178062903Y-83081500D01*
X177829631Y-83118446D01*
X177605003Y-83191433D01*
X177394566Y-83298657D01*
X177306133Y-83362908D01*
X177203490Y-83437483D01*
X177203488Y-83437485D01*
X177203487Y-83437485D01*
X177036485Y-83604487D01*
X177036485Y-83604488D01*
X177036483Y-83604490D01*
X177027217Y-83617244D01*
X176897657Y-83795566D01*
X176790433Y-84006003D01*
X176717446Y-84230631D01*
X176680500Y-84463902D01*
X176680500Y-84472903D01*
X176660815Y-84539942D01*
X176608011Y-84585697D01*
X176538853Y-84595641D01*
X176475297Y-84566616D01*
X176468819Y-84560584D01*
X174350590Y-82442355D01*
X174350588Y-82442352D01*
X174231717Y-82323481D01*
X174231716Y-82323480D01*
X174144904Y-82273360D01*
X174144904Y-82273359D01*
X174144900Y-82273358D01*
X174094785Y-82244423D01*
X173942057Y-82203499D01*
X173783943Y-82203499D01*
X173779589Y-82203499D01*
X173712550Y-82183814D01*
X173666795Y-82131010D01*
X173656231Y-82092101D01*
X173653973Y-82070006D01*
X173649499Y-82026203D01*
X173594314Y-81859666D01*
X173502212Y-81710344D01*
X173472694Y-81680826D01*
X173439210Y-81619504D01*
X173444194Y-81549812D01*
X173472697Y-81505462D01*
X173501816Y-81476344D01*
X173593856Y-81327124D01*
X173593858Y-81327119D01*
X173649005Y-81160697D01*
X173649006Y-81160690D01*
X173659499Y-81057986D01*
X173659500Y-81057973D01*
X173659500Y-80633000D01*
X171534501Y-80633000D01*
X171534501Y-81057986D01*
X171544994Y-81160697D01*
X171600141Y-81327119D01*
X171600143Y-81327124D01*
X171692184Y-81476345D01*
X171721304Y-81505465D01*
X171754789Y-81566788D01*
X171749805Y-81636480D01*
X171721306Y-81680826D01*
X171691788Y-81710344D01*
X171686679Y-81718627D01*
X171599687Y-81859663D01*
X171599685Y-81859668D01*
X171571849Y-81943670D01*
X171544501Y-82026203D01*
X171544501Y-82026204D01*
X171544500Y-82026204D01*
X171534000Y-82128983D01*
X171534000Y-83479001D01*
X171534001Y-83479018D01*
X171544500Y-83581796D01*
X171544501Y-83581799D01*
X171572377Y-83665922D01*
X171599686Y-83748334D01*
X171691788Y-83897656D01*
X171815844Y-84021712D01*
X171965166Y-84113814D01*
X172131703Y-84168999D01*
X172234491Y-84179500D01*
X172959508Y-84179499D01*
X172959516Y-84179498D01*
X172959519Y-84179498D01*
X173025009Y-84172808D01*
X173062297Y-84168999D01*
X173228834Y-84113814D01*
X173378156Y-84021712D01*
X173502212Y-83897656D01*
X173594314Y-83748334D01*
X173621623Y-83665920D01*
X173661394Y-83608477D01*
X173725910Y-83581653D01*
X173794686Y-83593968D01*
X173827009Y-83617244D01*
X176519584Y-86309819D01*
X176553069Y-86371142D01*
X176548085Y-86440834D01*
X176506213Y-86496767D01*
X176440749Y-86521184D01*
X176431903Y-86521500D01*
X172004097Y-86521500D01*
X171937058Y-86501815D01*
X171916416Y-86485181D01*
X169822415Y-84391180D01*
X169788930Y-84329857D01*
X169793914Y-84260165D01*
X169835786Y-84204232D01*
X169901250Y-84179815D01*
X169910096Y-84179499D01*
X170034502Y-84179499D01*
X170034508Y-84179499D01*
X170137297Y-84168999D01*
X170303834Y-84113814D01*
X170453156Y-84021712D01*
X170577212Y-83897656D01*
X170669314Y-83748334D01*
X170724499Y-83581797D01*
X170735000Y-83479009D01*
X170734999Y-82128992D01*
X170734433Y-82123455D01*
X170724499Y-82026203D01*
X170724498Y-82026200D01*
X170706965Y-81973289D01*
X170669314Y-81859666D01*
X170577212Y-81710344D01*
X170548049Y-81681181D01*
X170514564Y-81619858D01*
X170519548Y-81550166D01*
X170548049Y-81505819D01*
X170559682Y-81494186D01*
X170577212Y-81476656D01*
X170669314Y-81327334D01*
X170724499Y-81160797D01*
X170735000Y-81058009D01*
X170734999Y-79708013D01*
X171534500Y-79708013D01*
X171534500Y-80133000D01*
X172347000Y-80133000D01*
X172847000Y-80133000D01*
X173659499Y-80133000D01*
X173659499Y-79708028D01*
X173659498Y-79708013D01*
X173649005Y-79605302D01*
X173593858Y-79438880D01*
X173593856Y-79438875D01*
X173501815Y-79289654D01*
X173377845Y-79165684D01*
X173228624Y-79073643D01*
X173228619Y-79073641D01*
X173062197Y-79018494D01*
X173062190Y-79018493D01*
X172959486Y-79008000D01*
X172847000Y-79008000D01*
X172847000Y-80133000D01*
X172347000Y-80133000D01*
X172347000Y-79008000D01*
X172234527Y-79008000D01*
X172234512Y-79008001D01*
X172131802Y-79018494D01*
X171965380Y-79073641D01*
X171965375Y-79073643D01*
X171816154Y-79165684D01*
X171692184Y-79289654D01*
X171600143Y-79438875D01*
X171600141Y-79438880D01*
X171544994Y-79605302D01*
X171544993Y-79605309D01*
X171534500Y-79708013D01*
X170734999Y-79708013D01*
X170734999Y-79707992D01*
X170733159Y-79689984D01*
X170724499Y-79605203D01*
X170724498Y-79605200D01*
X170691059Y-79504288D01*
X170669314Y-79438666D01*
X170577212Y-79289344D01*
X170453156Y-79165288D01*
X170303834Y-79073186D01*
X170137297Y-79018001D01*
X170137295Y-79018000D01*
X170034510Y-79007500D01*
X169309498Y-79007500D01*
X169309480Y-79007501D01*
X169206703Y-79018000D01*
X169206700Y-79018001D01*
X169040168Y-79073185D01*
X169040163Y-79073187D01*
X168890842Y-79165289D01*
X168766789Y-79289342D01*
X168674687Y-79438663D01*
X168674685Y-79438668D01*
X168654151Y-79500637D01*
X168626639Y-79583664D01*
X168619501Y-79605204D01*
X168619500Y-79605205D01*
X168612768Y-79671103D01*
X168611773Y-79673540D01*
X168612148Y-79676147D01*
X168598645Y-79705712D01*
X168586371Y-79735795D01*
X168584216Y-79737307D01*
X168583123Y-79739703D01*
X168555781Y-79757274D01*
X168529190Y-79775946D01*
X168525878Y-79776491D01*
X168524345Y-79777477D01*
X168489410Y-79782500D01*
X168440097Y-79782500D01*
X168373058Y-79762815D01*
X168352416Y-79746181D01*
X166570590Y-77964355D01*
X166570588Y-77964352D01*
X166451717Y-77845481D01*
X166451709Y-77845475D01*
X166335059Y-77778128D01*
X166335056Y-77778127D01*
X166314785Y-77766423D01*
X166162057Y-77725499D01*
X166003943Y-77725499D01*
X165996347Y-77725499D01*
X165996331Y-77725500D01*
X165876791Y-77725500D01*
X165809752Y-77705815D01*
X165763997Y-77653011D01*
X165760609Y-77644833D01*
X165737797Y-77583671D01*
X165737793Y-77583664D01*
X165651547Y-77468456D01*
X165651548Y-77468456D01*
X165651546Y-77468454D01*
X165593854Y-77425265D01*
X165551984Y-77369333D01*
X165547000Y-77299641D01*
X165580485Y-77238318D01*
X165593854Y-77226734D01*
X165651546Y-77183546D01*
X165737796Y-77068331D01*
X165788091Y-76933483D01*
X165794500Y-76873873D01*
X165794499Y-75778128D01*
X165788091Y-75718517D01*
X165783353Y-75705815D01*
X165737797Y-75583671D01*
X165737793Y-75583664D01*
X165651547Y-75468456D01*
X165651548Y-75468456D01*
X165651546Y-75468454D01*
X165593854Y-75425265D01*
X165551984Y-75369333D01*
X165547000Y-75299641D01*
X165580485Y-75238318D01*
X165593854Y-75226734D01*
X165651546Y-75183546D01*
X165737796Y-75068331D01*
X165751468Y-75031674D01*
X165760609Y-75007167D01*
X165802480Y-74951233D01*
X165867944Y-74926816D01*
X165876791Y-74926500D01*
X169595236Y-74926500D01*
X169662275Y-74946185D01*
X169708030Y-74998989D01*
X169716480Y-75031674D01*
X169717738Y-75031475D01*
X169751753Y-75246239D01*
X169751753Y-75246241D01*
X169751754Y-75246243D01*
X169815679Y-75442984D01*
X169817444Y-75448414D01*
X169913951Y-75637820D01*
X170038890Y-75809786D01*
X170189213Y-75960109D01*
X170361179Y-76085048D01*
X170361181Y-76085049D01*
X170361184Y-76085051D01*
X170550588Y-76181557D01*
X170752757Y-76247246D01*
X170962713Y-76280500D01*
X170962714Y-76280500D01*
X171175286Y-76280500D01*
X171175287Y-76280500D01*
X171385243Y-76247246D01*
X171587412Y-76181557D01*
X171776816Y-76085051D01*
X171863471Y-76022093D01*
X171948786Y-75960109D01*
X171948788Y-75960106D01*
X171948792Y-75960104D01*
X172099104Y-75809792D01*
X172099106Y-75809788D01*
X172099109Y-75809786D01*
X172224048Y-75637820D01*
X172224047Y-75637820D01*
X172224051Y-75637816D01*
X172320557Y-75448412D01*
X172386246Y-75246243D01*
X172419500Y-75036287D01*
X172419500Y-74823713D01*
X172386246Y-74613757D01*
X172320557Y-74411588D01*
X172224051Y-74222184D01*
X172224049Y-74222181D01*
X172224048Y-74222179D01*
X172099109Y-74050213D01*
X171948786Y-73899890D01*
X171776820Y-73774951D01*
X171776115Y-73774591D01*
X171768054Y-73770485D01*
X171717259Y-73722512D01*
X171700463Y-73654692D01*
X171722999Y-73588556D01*
X171768054Y-73549515D01*
X171776816Y-73545051D01*
X171882241Y-73468456D01*
X171948786Y-73420109D01*
X171948788Y-73420106D01*
X171948792Y-73420104D01*
X172099104Y-73269792D01*
X172099106Y-73269788D01*
X172099109Y-73269786D01*
X172224048Y-73097820D01*
X172224047Y-73097820D01*
X172224051Y-73097816D01*
X172320557Y-72908412D01*
X172386246Y-72706243D01*
X172419500Y-72496287D01*
X172419500Y-72283713D01*
X178989500Y-72283713D01*
X178989500Y-72496287D01*
X178999534Y-72559644D01*
X179020927Y-72694713D01*
X179022754Y-72706243D01*
X179083905Y-72894447D01*
X179088444Y-72908414D01*
X179184951Y-73097820D01*
X179309890Y-73269786D01*
X179423818Y-73383714D01*
X179457303Y-73445037D01*
X179452319Y-73514729D01*
X179410447Y-73570662D01*
X179379471Y-73587577D01*
X179247912Y-73636646D01*
X179247906Y-73636649D01*
X179132812Y-73722809D01*
X179132809Y-73722812D01*
X179046649Y-73837906D01*
X179046645Y-73837913D01*
X178996403Y-73972620D01*
X178996401Y-73972627D01*
X178990000Y-74032155D01*
X178990000Y-74680000D01*
X179906988Y-74680000D01*
X179874075Y-74737007D01*
X179840000Y-74864174D01*
X179840000Y-74995826D01*
X179874075Y-75122993D01*
X179906988Y-75180000D01*
X178990000Y-75180000D01*
X178990000Y-75827844D01*
X178996401Y-75887372D01*
X178996403Y-75887379D01*
X179046645Y-76022086D01*
X179046649Y-76022093D01*
X179132809Y-76137187D01*
X179132812Y-76137190D01*
X179247906Y-76223350D01*
X179247913Y-76223354D01*
X179382620Y-76273596D01*
X179382627Y-76273598D01*
X179442155Y-76279999D01*
X179442172Y-76280000D01*
X180090000Y-76280000D01*
X180090000Y-75363012D01*
X180147007Y-75395925D01*
X180274174Y-75430000D01*
X180405826Y-75430000D01*
X180532993Y-75395925D01*
X180590000Y-75363012D01*
X180590000Y-76280000D01*
X181237828Y-76280000D01*
X181237844Y-76279999D01*
X181297372Y-76273598D01*
X181297379Y-76273596D01*
X181432086Y-76223354D01*
X181432093Y-76223350D01*
X181547187Y-76137190D01*
X181547190Y-76137187D01*
X181633350Y-76022093D01*
X181633354Y-76022086D01*
X181683596Y-75887379D01*
X181683598Y-75887372D01*
X181689999Y-75827844D01*
X181690000Y-75827827D01*
X181690000Y-75180000D01*
X180773012Y-75180000D01*
X180805925Y-75122993D01*
X180840000Y-74995826D01*
X180840000Y-74864174D01*
X180805925Y-74737007D01*
X180773012Y-74680000D01*
X181690000Y-74680000D01*
X181690000Y-74032172D01*
X181689999Y-74032155D01*
X181683598Y-73972627D01*
X181683596Y-73972620D01*
X181633354Y-73837913D01*
X181633350Y-73837906D01*
X181547190Y-73722812D01*
X181547187Y-73722809D01*
X181432093Y-73636649D01*
X181432088Y-73636646D01*
X181300528Y-73587577D01*
X181244595Y-73545705D01*
X181220178Y-73480241D01*
X181235030Y-73411968D01*
X181256175Y-73383720D01*
X181370104Y-73269792D01*
X181495051Y-73097816D01*
X181591557Y-72908412D01*
X181657246Y-72706243D01*
X181690500Y-72496287D01*
X181690500Y-72283713D01*
X181657246Y-72073757D01*
X181591557Y-71871588D01*
X181495051Y-71682184D01*
X181495049Y-71682181D01*
X181495048Y-71682179D01*
X181370109Y-71510213D01*
X181219786Y-71359890D01*
X181047820Y-71234951D01*
X180858414Y-71138444D01*
X180858413Y-71138443D01*
X180858412Y-71138443D01*
X180656243Y-71072754D01*
X180656241Y-71072753D01*
X180656240Y-71072753D01*
X180493255Y-71046939D01*
X180446287Y-71039500D01*
X180233713Y-71039500D01*
X180186745Y-71046939D01*
X180023760Y-71072753D01*
X179821585Y-71138444D01*
X179632179Y-71234951D01*
X179460213Y-71359890D01*
X179309890Y-71510213D01*
X179184951Y-71682179D01*
X179088444Y-71871585D01*
X179022753Y-72073760D01*
X178994726Y-72250716D01*
X178989500Y-72283713D01*
X172419500Y-72283713D01*
X172386246Y-72073757D01*
X172320557Y-71871588D01*
X172224051Y-71682184D01*
X172224049Y-71682181D01*
X172224048Y-71682179D01*
X172099109Y-71510213D01*
X171948786Y-71359890D01*
X171776817Y-71234949D01*
X171767504Y-71230204D01*
X171716707Y-71182230D01*
X171699912Y-71114409D01*
X171722449Y-71048274D01*
X171767507Y-71009232D01*
X171776555Y-71004622D01*
X171830716Y-70965270D01*
X171830717Y-70965270D01*
X171198408Y-70332962D01*
X171261993Y-70315925D01*
X171376007Y-70250099D01*
X171469099Y-70157007D01*
X171534925Y-70042993D01*
X171551962Y-69979409D01*
X172184270Y-70611717D01*
X172184270Y-70611716D01*
X172223622Y-70557554D01*
X172320095Y-70368217D01*
X172385757Y-70166130D01*
X172385757Y-70166127D01*
X172419000Y-69956246D01*
X172419000Y-69743753D01*
X172385757Y-69533872D01*
X172385757Y-69533869D01*
X172320095Y-69331782D01*
X172223624Y-69142449D01*
X172184270Y-69088282D01*
X172184269Y-69088282D01*
X171551962Y-69720590D01*
X171534925Y-69657007D01*
X171469099Y-69542993D01*
X171376007Y-69449901D01*
X171261993Y-69384075D01*
X171198409Y-69367037D01*
X171868627Y-68696818D01*
X171929950Y-68663333D01*
X171956307Y-68660499D01*
X171966872Y-68660499D01*
X172026483Y-68654091D01*
X172161331Y-68603796D01*
X172276546Y-68517546D01*
X172362796Y-68402331D01*
X172413091Y-68267483D01*
X172419500Y-68207873D01*
X172419499Y-66412128D01*
X172413091Y-66352517D01*
X172405437Y-66331996D01*
X172362797Y-66217671D01*
X172362793Y-66217664D01*
X172276547Y-66102455D01*
X172276544Y-66102452D01*
X172161335Y-66016206D01*
X172161328Y-66016202D01*
X172026482Y-65965908D01*
X172026483Y-65965908D01*
X171966883Y-65959501D01*
X171966881Y-65959500D01*
X171966873Y-65959500D01*
X171966864Y-65959500D01*
X170171129Y-65959500D01*
X170171123Y-65959501D01*
X170111516Y-65965908D01*
X169976671Y-66016202D01*
X169976664Y-66016206D01*
X169861455Y-66102452D01*
X169861452Y-66102455D01*
X169775206Y-66217664D01*
X169775202Y-66217671D01*
X169724908Y-66352517D01*
X169718501Y-66412116D01*
X169718501Y-66412123D01*
X169718500Y-66412135D01*
X169718500Y-68207870D01*
X169718501Y-68207876D01*
X169724908Y-68267483D01*
X169775202Y-68402328D01*
X169775206Y-68402335D01*
X169861452Y-68517544D01*
X169861455Y-68517547D01*
X169976664Y-68603793D01*
X169976671Y-68603797D01*
X170021618Y-68620561D01*
X170111517Y-68654091D01*
X170171127Y-68660500D01*
X170181685Y-68660499D01*
X170248723Y-68680179D01*
X170269372Y-68696818D01*
X170939591Y-69367037D01*
X170876007Y-69384075D01*
X170761993Y-69449901D01*
X170668901Y-69542993D01*
X170603075Y-69657007D01*
X170586037Y-69720591D01*
X169953728Y-69088282D01*
X169953727Y-69088282D01*
X169914380Y-69142439D01*
X169817904Y-69331782D01*
X169752242Y-69533869D01*
X169752242Y-69533872D01*
X169719000Y-69743753D01*
X169719000Y-69956246D01*
X169752242Y-70166127D01*
X169752242Y-70166130D01*
X169817904Y-70368217D01*
X169914375Y-70557550D01*
X169953728Y-70611716D01*
X170586037Y-69979408D01*
X170603075Y-70042993D01*
X170668901Y-70157007D01*
X170761993Y-70250099D01*
X170876007Y-70315925D01*
X170939590Y-70332962D01*
X170307282Y-70965269D01*
X170307282Y-70965270D01*
X170361452Y-71004626D01*
X170361451Y-71004626D01*
X170370495Y-71009234D01*
X170421292Y-71057208D01*
X170438087Y-71125029D01*
X170415550Y-71191164D01*
X170370499Y-71230202D01*
X170361182Y-71234949D01*
X170189213Y-71359890D01*
X170038896Y-71510207D01*
X169991466Y-71575490D01*
X169919614Y-71674386D01*
X169864286Y-71717051D01*
X169819297Y-71725500D01*
X165876791Y-71725500D01*
X165809752Y-71705815D01*
X165763997Y-71653011D01*
X165760609Y-71644833D01*
X165737797Y-71583671D01*
X165737793Y-71583664D01*
X165651547Y-71468456D01*
X165651548Y-71468456D01*
X165651546Y-71468454D01*
X165593854Y-71425265D01*
X165551984Y-71369333D01*
X165547000Y-71299641D01*
X165580485Y-71238318D01*
X165593854Y-71226734D01*
X165651546Y-71183546D01*
X165737796Y-71068331D01*
X165759838Y-71009234D01*
X165760609Y-71007167D01*
X165802480Y-70951233D01*
X165867944Y-70926816D01*
X165876791Y-70926500D01*
X166188331Y-70926500D01*
X166188347Y-70926501D01*
X166195943Y-70926501D01*
X166354054Y-70926501D01*
X166354057Y-70926501D01*
X166506785Y-70885577D01*
X166556904Y-70856639D01*
X166643716Y-70806520D01*
X166755520Y-70694716D01*
X166755521Y-70694714D01*
X167231520Y-70218716D01*
X167310577Y-70081784D01*
X167351501Y-69929057D01*
X167351501Y-69770942D01*
X167351501Y-69763347D01*
X167351500Y-69763329D01*
X167351500Y-64816097D01*
X167360144Y-64786656D01*
X167366668Y-64756670D01*
X167370422Y-64751654D01*
X167371185Y-64749058D01*
X167387819Y-64728416D01*
X167471416Y-64644819D01*
X167532739Y-64611334D01*
X167559097Y-64608500D01*
X179054281Y-64608500D01*
X179121320Y-64628185D01*
X179164765Y-64676205D01*
X179184947Y-64715814D01*
X179184948Y-64715815D01*
X179309890Y-64887786D01*
X179460213Y-65038109D01*
X179632179Y-65163048D01*
X179632181Y-65163049D01*
X179632184Y-65163051D01*
X179821588Y-65259557D01*
X180023757Y-65325246D01*
X180233713Y-65358500D01*
X180233714Y-65358500D01*
X180446286Y-65358500D01*
X180446287Y-65358500D01*
X180656243Y-65325246D01*
X180858412Y-65259557D01*
X181047816Y-65163051D01*
X181069789Y-65147086D01*
X181219786Y-65038109D01*
X181219788Y-65038106D01*
X181219792Y-65038104D01*
X181370104Y-64887792D01*
X181370106Y-64887788D01*
X181370109Y-64887786D01*
X181495048Y-64715820D01*
X181495047Y-64715820D01*
X181495051Y-64715816D01*
X181591557Y-64526412D01*
X181657246Y-64324243D01*
X181690500Y-64114287D01*
X181690500Y-63901713D01*
X181657246Y-63691757D01*
X181591557Y-63489588D01*
X181495051Y-63300184D01*
X181495049Y-63300181D01*
X181495048Y-63300179D01*
X181370109Y-63128213D01*
X181256569Y-63014673D01*
X181223084Y-62953350D01*
X181228068Y-62883658D01*
X181269940Y-62827725D01*
X181300915Y-62810810D01*
X181432331Y-62761796D01*
X181547546Y-62675546D01*
X181633796Y-62560331D01*
X181684091Y-62425483D01*
X181690500Y-62365873D01*
X181690499Y-60570128D01*
X181684091Y-60510517D01*
X181668817Y-60469566D01*
X181633797Y-60375671D01*
X181633793Y-60375664D01*
X181547547Y-60260455D01*
X181547544Y-60260452D01*
X181432335Y-60174206D01*
X181432328Y-60174202D01*
X181297482Y-60123908D01*
X181297483Y-60123908D01*
X181237883Y-60117501D01*
X181237881Y-60117500D01*
X181237873Y-60117500D01*
X181237864Y-60117500D01*
X179442129Y-60117500D01*
X179442123Y-60117501D01*
X179382516Y-60123908D01*
X179247671Y-60174202D01*
X179247664Y-60174206D01*
X179132455Y-60260452D01*
X179132452Y-60260455D01*
X179046206Y-60375664D01*
X179046202Y-60375671D01*
X178995908Y-60510517D01*
X178989501Y-60570116D01*
X178989501Y-60570123D01*
X178989500Y-60570135D01*
X178989500Y-60743500D01*
X178969815Y-60810539D01*
X178917011Y-60856294D01*
X178865500Y-60867500D01*
X166837670Y-60867500D01*
X166837654Y-60867499D01*
X166830058Y-60867499D01*
X166671943Y-60867499D01*
X166598106Y-60887284D01*
X166519214Y-60908423D01*
X166519209Y-60908426D01*
X166382290Y-60987475D01*
X166382282Y-60987481D01*
X165635481Y-61734282D01*
X165635477Y-61734287D01*
X165588546Y-61815576D01*
X165588546Y-61815577D01*
X165556423Y-61871214D01*
X165542781Y-61922124D01*
X165515499Y-62023943D01*
X165515499Y-62023945D01*
X165515499Y-62192046D01*
X165515500Y-62192059D01*
X165515500Y-67206121D01*
X165495815Y-67273160D01*
X165443011Y-67318915D01*
X165378247Y-67329410D01*
X165341873Y-67325500D01*
X165341865Y-67325500D01*
X162746129Y-67325500D01*
X162746123Y-67325501D01*
X162686516Y-67331908D01*
X162551671Y-67382202D01*
X162551664Y-67382206D01*
X162436455Y-67468452D01*
X162436452Y-67468455D01*
X162350206Y-67583664D01*
X162350202Y-67583671D01*
X162299908Y-67718517D01*
X162293501Y-67778116D01*
X162293501Y-67778123D01*
X162293500Y-67778135D01*
X162293500Y-68873870D01*
X162293501Y-68873876D01*
X162299908Y-68933483D01*
X162350202Y-69068328D01*
X162350206Y-69068335D01*
X162436452Y-69183544D01*
X162436453Y-69183544D01*
X162436454Y-69183546D01*
X162465615Y-69205376D01*
X162494145Y-69226734D01*
X162536015Y-69282668D01*
X162540999Y-69352360D01*
X162507513Y-69413683D01*
X162494145Y-69425266D01*
X162436452Y-69468455D01*
X162350206Y-69583664D01*
X162350202Y-69583671D01*
X162299908Y-69718517D01*
X162293501Y-69778116D01*
X162293500Y-69778135D01*
X162293500Y-70873870D01*
X162293501Y-70873876D01*
X162299908Y-70933483D01*
X162350202Y-71068328D01*
X162350206Y-71068335D01*
X162436452Y-71183544D01*
X162436453Y-71183544D01*
X162436454Y-71183546D01*
X162465185Y-71205054D01*
X162494145Y-71226734D01*
X162536015Y-71282668D01*
X162540999Y-71352360D01*
X162507513Y-71413683D01*
X162494145Y-71425266D01*
X162436452Y-71468455D01*
X162350206Y-71583664D01*
X162350202Y-71583671D01*
X162299908Y-71718517D01*
X162293501Y-71778116D01*
X162293501Y-71778123D01*
X162293500Y-71778135D01*
X162293500Y-72873870D01*
X162293501Y-72873876D01*
X162299908Y-72933483D01*
X162350202Y-73068328D01*
X162350206Y-73068335D01*
X162436452Y-73183544D01*
X162436453Y-73183544D01*
X162436454Y-73183546D01*
X162465615Y-73205376D01*
X162494145Y-73226734D01*
X162536015Y-73282668D01*
X162540999Y-73352360D01*
X162507513Y-73413683D01*
X162494145Y-73425266D01*
X162436452Y-73468455D01*
X162350206Y-73583664D01*
X162350202Y-73583671D01*
X162299908Y-73718517D01*
X162293501Y-73778116D01*
X162293500Y-73778135D01*
X162293500Y-74873870D01*
X162293501Y-74873876D01*
X162299908Y-74933483D01*
X162350202Y-75068328D01*
X162350206Y-75068335D01*
X162436452Y-75183544D01*
X162436453Y-75183544D01*
X162436454Y-75183546D01*
X162465615Y-75205376D01*
X162494145Y-75226734D01*
X162536015Y-75282668D01*
X162540999Y-75352360D01*
X162507513Y-75413683D01*
X162494145Y-75425266D01*
X162436452Y-75468455D01*
X162350206Y-75583664D01*
X162350202Y-75583671D01*
X162327391Y-75644833D01*
X162285520Y-75700767D01*
X162220056Y-75725184D01*
X162211209Y-75725500D01*
X156026269Y-75725500D01*
X155959230Y-75705815D01*
X155957378Y-75704602D01*
X155827185Y-75617609D01*
X155827172Y-75617602D01*
X155681501Y-75557264D01*
X155681489Y-75557261D01*
X155526845Y-75526500D01*
X155526842Y-75526500D01*
X155369158Y-75526500D01*
X155369155Y-75526500D01*
X155214510Y-75557261D01*
X155214498Y-75557264D01*
X155068827Y-75617602D01*
X155068814Y-75617609D01*
X154937711Y-75705210D01*
X154937707Y-75705213D01*
X154826213Y-75816707D01*
X154826210Y-75816711D01*
X154738609Y-75947814D01*
X154738602Y-75947827D01*
X154678264Y-76093498D01*
X154678261Y-76093510D01*
X154647500Y-76248153D01*
X154647500Y-76405846D01*
X154678261Y-76560489D01*
X154678264Y-76560501D01*
X154738602Y-76706172D01*
X154738609Y-76706185D01*
X154826210Y-76837288D01*
X154826213Y-76837292D01*
X154937707Y-76948786D01*
X154937711Y-76948789D01*
X155068814Y-77036390D01*
X155068827Y-77036397D01*
X155214498Y-77096735D01*
X155214503Y-77096737D01*
X155369153Y-77127499D01*
X155369156Y-77127500D01*
X155369158Y-77127500D01*
X155526844Y-77127500D01*
X155526845Y-77127499D01*
X155681497Y-77096737D01*
X155827179Y-77036394D01*
X155872168Y-77006333D01*
X155960371Y-76947398D01*
X156027048Y-76926520D01*
X156029262Y-76926500D01*
X162211209Y-76926500D01*
X162278248Y-76946185D01*
X162324003Y-76998989D01*
X162327391Y-77007167D01*
X162350202Y-77068328D01*
X162350206Y-77068335D01*
X162436452Y-77183544D01*
X162436453Y-77183544D01*
X162436454Y-77183546D01*
X162465615Y-77205376D01*
X162494145Y-77226734D01*
X162536015Y-77282668D01*
X162540999Y-77352360D01*
X162507513Y-77413683D01*
X162494145Y-77425266D01*
X162436452Y-77468455D01*
X162350206Y-77583664D01*
X162350202Y-77583671D01*
X162299908Y-77718517D01*
X162293501Y-77778116D01*
X162293500Y-77778127D01*
X162293500Y-78873870D01*
X162293501Y-78873876D01*
X162299908Y-78933483D01*
X162350202Y-79068328D01*
X162350206Y-79068335D01*
X162436452Y-79183544D01*
X162436453Y-79183544D01*
X162436454Y-79183546D01*
X162465615Y-79205376D01*
X162494145Y-79226734D01*
X162536015Y-79282668D01*
X162540999Y-79352360D01*
X162507513Y-79413683D01*
X162494145Y-79425266D01*
X162436452Y-79468455D01*
X162350206Y-79583664D01*
X162350202Y-79583671D01*
X162299908Y-79718517D01*
X162293501Y-79778116D01*
X162293500Y-79778135D01*
X162293500Y-80873870D01*
X162293501Y-80873876D01*
X162299908Y-80933483D01*
X162350202Y-81068328D01*
X162350206Y-81068335D01*
X162436452Y-81183544D01*
X162436453Y-81183544D01*
X162436454Y-81183546D01*
X162450009Y-81193693D01*
X162494145Y-81226734D01*
X162536015Y-81282668D01*
X162540999Y-81352360D01*
X162507513Y-81413683D01*
X162494145Y-81425266D01*
X162436452Y-81468455D01*
X162350206Y-81583664D01*
X162350202Y-81583671D01*
X162299908Y-81718517D01*
X162293501Y-81778116D01*
X162293500Y-81778135D01*
X162293500Y-82343581D01*
X162273815Y-82410620D01*
X162221011Y-82456375D01*
X162151853Y-82466319D01*
X162126168Y-82459763D01*
X162051485Y-82431909D01*
X162051483Y-82431908D01*
X161991883Y-82425501D01*
X161991881Y-82425500D01*
X161991873Y-82425500D01*
X161991864Y-82425500D01*
X160896129Y-82425500D01*
X160896123Y-82425501D01*
X160836516Y-82431908D01*
X160701671Y-82482202D01*
X160701664Y-82482206D01*
X160586455Y-82568452D01*
X160543266Y-82626145D01*
X160487332Y-82668015D01*
X160417640Y-82672999D01*
X160356317Y-82639513D01*
X160344734Y-82626145D01*
X160306958Y-82575684D01*
X160301546Y-82568454D01*
X160301544Y-82568453D01*
X160301544Y-82568452D01*
X160186335Y-82482206D01*
X160186328Y-82482202D01*
X160051482Y-82431908D01*
X160051483Y-82431908D01*
X159991883Y-82425501D01*
X159991881Y-82425500D01*
X159991873Y-82425500D01*
X159991864Y-82425500D01*
X158896129Y-82425500D01*
X158896123Y-82425501D01*
X158836516Y-82431908D01*
X158701671Y-82482202D01*
X158701664Y-82482206D01*
X158586455Y-82568452D01*
X158543266Y-82626145D01*
X158487332Y-82668015D01*
X158417640Y-82672999D01*
X158356317Y-82639513D01*
X158344734Y-82626145D01*
X158306958Y-82575684D01*
X158301546Y-82568454D01*
X158301544Y-82568453D01*
X158301544Y-82568452D01*
X158186335Y-82482206D01*
X158186328Y-82482202D01*
X158051482Y-82431908D01*
X158051483Y-82431908D01*
X157991883Y-82425501D01*
X157991881Y-82425500D01*
X157991873Y-82425500D01*
X157991864Y-82425500D01*
X156896129Y-82425500D01*
X156896123Y-82425501D01*
X156836516Y-82431908D01*
X156701671Y-82482202D01*
X156701664Y-82482206D01*
X156586455Y-82568452D01*
X156543266Y-82626145D01*
X156487332Y-82668015D01*
X156417640Y-82672999D01*
X156356317Y-82639513D01*
X156344734Y-82626145D01*
X156306958Y-82575684D01*
X156301546Y-82568454D01*
X156301544Y-82568453D01*
X156301544Y-82568452D01*
X156186335Y-82482206D01*
X156186328Y-82482202D01*
X156051482Y-82431908D01*
X156051483Y-82431908D01*
X155991883Y-82425501D01*
X155991881Y-82425500D01*
X155991873Y-82425500D01*
X155991864Y-82425500D01*
X154896129Y-82425500D01*
X154896123Y-82425501D01*
X154836516Y-82431908D01*
X154701671Y-82482202D01*
X154701664Y-82482206D01*
X154586455Y-82568452D01*
X154543266Y-82626145D01*
X154487332Y-82668015D01*
X154417640Y-82672999D01*
X154356317Y-82639513D01*
X154344734Y-82626145D01*
X154306958Y-82575684D01*
X154301546Y-82568454D01*
X154301544Y-82568453D01*
X154301544Y-82568452D01*
X154186335Y-82482206D01*
X154186328Y-82482202D01*
X154051482Y-82431908D01*
X154051483Y-82431908D01*
X153991883Y-82425501D01*
X153991881Y-82425500D01*
X153991873Y-82425500D01*
X153991864Y-82425500D01*
X152896129Y-82425500D01*
X152896123Y-82425501D01*
X152836516Y-82431908D01*
X152701671Y-82482202D01*
X152701664Y-82482206D01*
X152586455Y-82568452D01*
X152543266Y-82626145D01*
X152487332Y-82668015D01*
X152417640Y-82672999D01*
X152356317Y-82639513D01*
X152344734Y-82626145D01*
X152306958Y-82575684D01*
X152301546Y-82568454D01*
X152301544Y-82568453D01*
X152301544Y-82568452D01*
X152186335Y-82482206D01*
X152186328Y-82482202D01*
X152051482Y-82431908D01*
X152051483Y-82431908D01*
X151991883Y-82425501D01*
X151991881Y-82425500D01*
X151991873Y-82425500D01*
X151991864Y-82425500D01*
X150896129Y-82425500D01*
X150896123Y-82425501D01*
X150836516Y-82431908D01*
X150701671Y-82482202D01*
X150701668Y-82482204D01*
X150656546Y-82515983D01*
X150609413Y-82551266D01*
X150543950Y-82575684D01*
X150535103Y-82576000D01*
X149094000Y-82576000D01*
X148594000Y-82576000D01*
X147094000Y-82576000D01*
X147094000Y-82873844D01*
X145122889Y-82873844D01*
X146954740Y-81041994D01*
X147016061Y-81008511D01*
X147085753Y-81013495D01*
X147141686Y-81055367D01*
X147148900Y-81066591D01*
X147236452Y-81183544D01*
X147236453Y-81183544D01*
X147236454Y-81183546D01*
X147250009Y-81193693D01*
X147294562Y-81227046D01*
X147336432Y-81282980D01*
X147341416Y-81352672D01*
X147307930Y-81413994D01*
X147294562Y-81425578D01*
X147236809Y-81468812D01*
X147150649Y-81583906D01*
X147150645Y-81583913D01*
X147100403Y-81718620D01*
X147100401Y-81718627D01*
X147094000Y-81778155D01*
X147094000Y-82076000D01*
X150594000Y-82076000D01*
X150594000Y-81778172D01*
X150593999Y-81778155D01*
X150587598Y-81718627D01*
X150587596Y-81718620D01*
X150537354Y-81583913D01*
X150537350Y-81583906D01*
X150451190Y-81468812D01*
X150451187Y-81468809D01*
X150393438Y-81425578D01*
X150351567Y-81369645D01*
X150346583Y-81299953D01*
X150380069Y-81238630D01*
X150393432Y-81227049D01*
X150451546Y-81183546D01*
X150537796Y-81068331D01*
X150553470Y-81026308D01*
X150560609Y-81007167D01*
X150602480Y-80951233D01*
X150667944Y-80926816D01*
X150676791Y-80926500D01*
X159615523Y-80926500D01*
X159682562Y-80946185D01*
X159728317Y-80998989D01*
X159737140Y-81026308D01*
X159758261Y-81132491D01*
X159758264Y-81132501D01*
X159818602Y-81278172D01*
X159818609Y-81278185D01*
X159906210Y-81409288D01*
X159906213Y-81409292D01*
X160017707Y-81520786D01*
X160017711Y-81520789D01*
X160148814Y-81608390D01*
X160148827Y-81608397D01*
X160294498Y-81668735D01*
X160294503Y-81668737D01*
X160449153Y-81699499D01*
X160449156Y-81699500D01*
X160449158Y-81699500D01*
X160606844Y-81699500D01*
X160606845Y-81699499D01*
X160761497Y-81668737D01*
X160907179Y-81608394D01*
X161038289Y-81520789D01*
X161149789Y-81409289D01*
X161237394Y-81278179D01*
X161297737Y-81132497D01*
X161328500Y-80977842D01*
X161328500Y-80820158D01*
X161328500Y-80820155D01*
X161328499Y-80820153D01*
X161297738Y-80665510D01*
X161297737Y-80665503D01*
X161282824Y-80629499D01*
X161237397Y-80519827D01*
X161237390Y-80519814D01*
X161149789Y-80388711D01*
X161149786Y-80388707D01*
X161038292Y-80277213D01*
X161038288Y-80277210D01*
X160907185Y-80189609D01*
X160907172Y-80189602D01*
X160761501Y-80129264D01*
X160761491Y-80129261D01*
X160606149Y-80098361D01*
X160589392Y-80089595D01*
X160570914Y-80085576D01*
X160545877Y-80066833D01*
X160544238Y-80065976D01*
X160542660Y-80064425D01*
X160442590Y-79964355D01*
X160442588Y-79964352D01*
X160323717Y-79845481D01*
X160323716Y-79845480D01*
X160235415Y-79794500D01*
X160186785Y-79766423D01*
X160034057Y-79725499D01*
X159875943Y-79725499D01*
X159868347Y-79725499D01*
X159868331Y-79725500D01*
X157417941Y-79725500D01*
X157350902Y-79705815D01*
X157305147Y-79653011D01*
X157295203Y-79583853D01*
X157324228Y-79520297D01*
X157330260Y-79513819D01*
X157339786Y-79504292D01*
X157339789Y-79504289D01*
X157427394Y-79373179D01*
X157487737Y-79227497D01*
X157518500Y-79072842D01*
X157518500Y-78915158D01*
X157518500Y-78915155D01*
X157518499Y-78915153D01*
X157510287Y-78873870D01*
X157487737Y-78760503D01*
X157447957Y-78664464D01*
X157427397Y-78614827D01*
X157427390Y-78614814D01*
X157339789Y-78483711D01*
X157339786Y-78483707D01*
X157228292Y-78372213D01*
X157228288Y-78372210D01*
X157097185Y-78284609D01*
X157097172Y-78284602D01*
X156951501Y-78224264D01*
X156951491Y-78224261D01*
X156796149Y-78193361D01*
X156734238Y-78160976D01*
X156732660Y-78159425D01*
X156537590Y-77964355D01*
X156537588Y-77964352D01*
X156418717Y-77845481D01*
X156418709Y-77845475D01*
X156302059Y-77778128D01*
X156302056Y-77778127D01*
X156281785Y-77766423D01*
X156129057Y-77725499D01*
X155970943Y-77725499D01*
X155963347Y-77725499D01*
X155963331Y-77725500D01*
X150676791Y-77725500D01*
X150609752Y-77705815D01*
X150563997Y-77653011D01*
X150560609Y-77644833D01*
X150537797Y-77583671D01*
X150537793Y-77583664D01*
X150451547Y-77468456D01*
X150451548Y-77468456D01*
X150451546Y-77468454D01*
X150393854Y-77425265D01*
X150351984Y-77369333D01*
X150347000Y-77299641D01*
X150380485Y-77238318D01*
X150393854Y-77226734D01*
X150451546Y-77183546D01*
X150537796Y-77068331D01*
X150560609Y-77007167D01*
X150602480Y-76951233D01*
X150667944Y-76926816D01*
X150676791Y-76926500D01*
X151183738Y-76926500D01*
X151250777Y-76946185D01*
X151252629Y-76947398D01*
X151385814Y-77036390D01*
X151385827Y-77036397D01*
X151531498Y-77096735D01*
X151531503Y-77096737D01*
X151686153Y-77127499D01*
X151686156Y-77127500D01*
X151686158Y-77127500D01*
X151843844Y-77127500D01*
X151843845Y-77127499D01*
X151998497Y-77096737D01*
X152144179Y-77036394D01*
X152275289Y-76948789D01*
X152386789Y-76837289D01*
X152474394Y-76706179D01*
X152476278Y-76701632D01*
X152512377Y-76614480D01*
X152534737Y-76560497D01*
X152565500Y-76405842D01*
X152565500Y-76248158D01*
X152565500Y-76248155D01*
X152565499Y-76248153D01*
X152549231Y-76166368D01*
X152534737Y-76093503D01*
X152529708Y-76081361D01*
X152474397Y-75947827D01*
X152474390Y-75947814D01*
X152386789Y-75816711D01*
X152386786Y-75816707D01*
X152275292Y-75705213D01*
X152275288Y-75705210D01*
X152144185Y-75617609D01*
X152144172Y-75617602D01*
X151998501Y-75557264D01*
X151998489Y-75557261D01*
X151843845Y-75526500D01*
X151843842Y-75526500D01*
X151686158Y-75526500D01*
X151686155Y-75526500D01*
X151531510Y-75557261D01*
X151531498Y-75557264D01*
X151385827Y-75617602D01*
X151385814Y-75617609D01*
X151255622Y-75704602D01*
X151188945Y-75725480D01*
X151186731Y-75725500D01*
X150676791Y-75725500D01*
X150609752Y-75705815D01*
X150563997Y-75653011D01*
X150560609Y-75644833D01*
X150537797Y-75583671D01*
X150537793Y-75583664D01*
X150451547Y-75468456D01*
X150451548Y-75468456D01*
X150451546Y-75468454D01*
X150393854Y-75425265D01*
X150351984Y-75369333D01*
X150347000Y-75299641D01*
X150380485Y-75238318D01*
X150393854Y-75226734D01*
X150451546Y-75183546D01*
X150537796Y-75068331D01*
X150551468Y-75031674D01*
X150560609Y-75007167D01*
X150602480Y-74951233D01*
X150667944Y-74926816D01*
X150676791Y-74926500D01*
X151231630Y-74926500D01*
X151298669Y-74946185D01*
X151300468Y-74947362D01*
X151385821Y-75004394D01*
X151385823Y-75004395D01*
X151385827Y-75004397D01*
X151531498Y-75064735D01*
X151531503Y-75064737D01*
X151686153Y-75095499D01*
X151686156Y-75095500D01*
X151686158Y-75095500D01*
X151843844Y-75095500D01*
X151843845Y-75095499D01*
X151998497Y-75064737D01*
X152123648Y-75012898D01*
X152144172Y-75004397D01*
X152144172Y-75004396D01*
X152144179Y-75004394D01*
X152275289Y-74916789D01*
X152386789Y-74805289D01*
X152474394Y-74674179D01*
X152534737Y-74528497D01*
X152565500Y-74373842D01*
X152565500Y-74216158D01*
X152565500Y-74216155D01*
X152565499Y-74216153D01*
X152534738Y-74061510D01*
X152534737Y-74061503D01*
X152530061Y-74050213D01*
X152474397Y-73915827D01*
X152474390Y-73915814D01*
X152386789Y-73784711D01*
X152386786Y-73784707D01*
X152275292Y-73673213D01*
X152275288Y-73673210D01*
X152144185Y-73585609D01*
X152144172Y-73585602D01*
X151998501Y-73525264D01*
X151998489Y-73525261D01*
X151843845Y-73494500D01*
X151843842Y-73494500D01*
X151686158Y-73494500D01*
X151686155Y-73494500D01*
X151531510Y-73525261D01*
X151531498Y-73525264D01*
X151385827Y-73585602D01*
X151385814Y-73585609D01*
X151254711Y-73673210D01*
X151254707Y-73673213D01*
X151238740Y-73689181D01*
X151177417Y-73722666D01*
X151151059Y-73725500D01*
X150676791Y-73725500D01*
X150609752Y-73705815D01*
X150563997Y-73653011D01*
X150560609Y-73644833D01*
X150537797Y-73583671D01*
X150537793Y-73583664D01*
X150471044Y-73494500D01*
X150451546Y-73468454D01*
X150393854Y-73425265D01*
X150351984Y-73369333D01*
X150347000Y-73299641D01*
X150380485Y-73238318D01*
X150393854Y-73226734D01*
X150451546Y-73183546D01*
X150537796Y-73068331D01*
X150588091Y-72933483D01*
X150594500Y-72873873D01*
X150594499Y-71778128D01*
X150588091Y-71718517D01*
X150587544Y-71717051D01*
X150537797Y-71583671D01*
X150537793Y-71583664D01*
X150451547Y-71468456D01*
X150451548Y-71468456D01*
X150451546Y-71468454D01*
X150393854Y-71425265D01*
X150351984Y-71369333D01*
X150347000Y-71299641D01*
X150380485Y-71238318D01*
X150393854Y-71226734D01*
X150451546Y-71183546D01*
X150537796Y-71068331D01*
X150559838Y-71009234D01*
X150560609Y-71007167D01*
X150602480Y-70951233D01*
X150667944Y-70926816D01*
X150676791Y-70926500D01*
X151150059Y-70926500D01*
X151217098Y-70946185D01*
X151237740Y-70962819D01*
X151254707Y-70979786D01*
X151254711Y-70979789D01*
X151385814Y-71067390D01*
X151385827Y-71067397D01*
X151499326Y-71114409D01*
X151531503Y-71127737D01*
X151686153Y-71158499D01*
X151686156Y-71158500D01*
X151686158Y-71158500D01*
X151843844Y-71158500D01*
X151843845Y-71158499D01*
X151998497Y-71127737D01*
X152144179Y-71067394D01*
X152275289Y-70979789D01*
X152386789Y-70868289D01*
X152474394Y-70737179D01*
X152534737Y-70591497D01*
X152565500Y-70436842D01*
X152565500Y-70279158D01*
X152565500Y-70279155D01*
X152565499Y-70279153D01*
X152560256Y-70252794D01*
X152534737Y-70124503D01*
X152517043Y-70081785D01*
X152474397Y-69978827D01*
X152474390Y-69978814D01*
X152386789Y-69847711D01*
X152386786Y-69847707D01*
X152275292Y-69736213D01*
X152275288Y-69736210D01*
X152144185Y-69648609D01*
X152144172Y-69648602D01*
X151998501Y-69588264D01*
X151998489Y-69588261D01*
X151843845Y-69557500D01*
X151843842Y-69557500D01*
X151686158Y-69557500D01*
X151686155Y-69557500D01*
X151531510Y-69588261D01*
X151531498Y-69588264D01*
X151385827Y-69648602D01*
X151385814Y-69648609D01*
X151302017Y-69704602D01*
X151235340Y-69725480D01*
X151233126Y-69725500D01*
X150676791Y-69725500D01*
X150609752Y-69705815D01*
X150563997Y-69653011D01*
X150560609Y-69644833D01*
X150537797Y-69583671D01*
X150537793Y-69583664D01*
X150451547Y-69468456D01*
X150451548Y-69468456D01*
X150451546Y-69468454D01*
X150393854Y-69425265D01*
X150351984Y-69369333D01*
X150347000Y-69299641D01*
X150380485Y-69238318D01*
X150393854Y-69226734D01*
X150451546Y-69183546D01*
X150537796Y-69068331D01*
X150588091Y-68933483D01*
X150594500Y-68873873D01*
X150594499Y-67778128D01*
X150588091Y-67718517D01*
X150583353Y-67705815D01*
X150537797Y-67583671D01*
X150537793Y-67583664D01*
X150451547Y-67468455D01*
X150451544Y-67468452D01*
X150336335Y-67382206D01*
X150336328Y-67382202D01*
X150201482Y-67331908D01*
X150201483Y-67331908D01*
X150141883Y-67325501D01*
X150141881Y-67325500D01*
X150141873Y-67325500D01*
X150141864Y-67325500D01*
X147546129Y-67325500D01*
X147546123Y-67325501D01*
X147486516Y-67331908D01*
X147351671Y-67382202D01*
X147351664Y-67382206D01*
X147236455Y-67468452D01*
X147236452Y-67468455D01*
X147150206Y-67583664D01*
X147150202Y-67583671D01*
X147127391Y-67644833D01*
X147085520Y-67700767D01*
X147020056Y-67725184D01*
X147011209Y-67725500D01*
X146375766Y-67725500D01*
X146308727Y-67705815D01*
X146306875Y-67704602D01*
X146175185Y-67616609D01*
X146175172Y-67616602D01*
X146029501Y-67556264D01*
X146029489Y-67556261D01*
X145874845Y-67525500D01*
X145874842Y-67525500D01*
X145717158Y-67525500D01*
X145717155Y-67525500D01*
X145562510Y-67556261D01*
X145562498Y-67556264D01*
X145416827Y-67616602D01*
X145416814Y-67616609D01*
X145285711Y-67704210D01*
X145285707Y-67704213D01*
X145174213Y-67815707D01*
X145174210Y-67815711D01*
X145086609Y-67946814D01*
X145086602Y-67946827D01*
X145026264Y-68092498D01*
X145026261Y-68092508D01*
X144996298Y-68243143D01*
X144963913Y-68305054D01*
X144903197Y-68339628D01*
X144833428Y-68335888D01*
X144787000Y-68306632D01*
X144737657Y-68257289D01*
X144737656Y-68257288D01*
X144588334Y-68165186D01*
X144421797Y-68110001D01*
X144421795Y-68110000D01*
X144319010Y-68099500D01*
X143593998Y-68099500D01*
X143593980Y-68099501D01*
X143491203Y-68110000D01*
X143491200Y-68110001D01*
X143324668Y-68165185D01*
X143324663Y-68165187D01*
X143175342Y-68257289D01*
X143051289Y-68381342D01*
X142959187Y-68530663D01*
X142959185Y-68530668D01*
X142959115Y-68530880D01*
X142904001Y-68697203D01*
X142904001Y-68697204D01*
X142904000Y-68697204D01*
X142893500Y-68799983D01*
X142093995Y-68799983D01*
X142083505Y-68697302D01*
X142028358Y-68530880D01*
X142028356Y-68530875D01*
X141936315Y-68381654D01*
X141812345Y-68257684D01*
X141663124Y-68165643D01*
X141663119Y-68165641D01*
X141496697Y-68110494D01*
X141496690Y-68110493D01*
X141393986Y-68100000D01*
X141281500Y-68100000D01*
X141281500Y-69225000D01*
X140781500Y-69225000D01*
X140781500Y-68100000D01*
X140669027Y-68100000D01*
X140669012Y-68100001D01*
X140566302Y-68110494D01*
X140399880Y-68165641D01*
X140399875Y-68165643D01*
X140250654Y-68257684D01*
X140126684Y-68381654D01*
X140034643Y-68530875D01*
X140034641Y-68530880D01*
X139979494Y-68697302D01*
X139979493Y-68697309D01*
X139969000Y-68800013D01*
X139411500Y-68800013D01*
X139411500Y-62156945D01*
X139411500Y-62156943D01*
X139407666Y-62142632D01*
X139370577Y-62004215D01*
X139306818Y-61893782D01*
X139291520Y-61867284D01*
X139179716Y-61755480D01*
X139179713Y-61755478D01*
X138318590Y-60894355D01*
X138318588Y-60894352D01*
X138199717Y-60775481D01*
X138199716Y-60775480D01*
X138112904Y-60725360D01*
X138112904Y-60725359D01*
X138112900Y-60725358D01*
X138062785Y-60696423D01*
X137910057Y-60655499D01*
X137751943Y-60655499D01*
X137744347Y-60655499D01*
X137744331Y-60655500D01*
X137546068Y-60655500D01*
X137479029Y-60635815D01*
X137435583Y-60587795D01*
X137426582Y-60570129D01*
X137375343Y-60469567D01*
X137236517Y-60278490D01*
X137069510Y-60111483D01*
X136878433Y-59972657D01*
X136667996Y-59865433D01*
X136443368Y-59792446D01*
X136210097Y-59755500D01*
X136210092Y-59755500D01*
X135973908Y-59755500D01*
X135973903Y-59755500D01*
X135740631Y-59792446D01*
X135516003Y-59865433D01*
X135305566Y-59972657D01*
X135249119Y-60013669D01*
X135114490Y-60111483D01*
X135114488Y-60111485D01*
X135114487Y-60111485D01*
X134947485Y-60278487D01*
X134947485Y-60278488D01*
X134947483Y-60278490D01*
X134887862Y-60360550D01*
X134808657Y-60469566D01*
X134701433Y-60680003D01*
X134628446Y-60904631D01*
X134591500Y-61137902D01*
X134591500Y-61374097D01*
X134628446Y-61607368D01*
X134701433Y-61831996D01*
X134789183Y-62004213D01*
X134808657Y-62042433D01*
X134947483Y-62233510D01*
X135114490Y-62400517D01*
X135305567Y-62539343D01*
X135404991Y-62590002D01*
X135516003Y-62646566D01*
X135516005Y-62646566D01*
X135516008Y-62646568D01*
X135605187Y-62675544D01*
X135740631Y-62719553D01*
X135973903Y-62756500D01*
X135973908Y-62756500D01*
X136210097Y-62756500D01*
X136443368Y-62719553D01*
X136667992Y-62646568D01*
X136878433Y-62539343D01*
X137069510Y-62400517D01*
X137236517Y-62233510D01*
X137375343Y-62042433D01*
X137430465Y-61934249D01*
X137478438Y-61883455D01*
X137546259Y-61866660D01*
X137612394Y-61889197D01*
X137628630Y-61902865D01*
X138174181Y-62448416D01*
X138207666Y-62509739D01*
X138210500Y-62536097D01*
X138210500Y-71039330D01*
X138210499Y-71039348D01*
X138210499Y-71205054D01*
X138210498Y-71205054D01*
X138242905Y-71325999D01*
X138251423Y-71357785D01*
X138269734Y-71389500D01*
X138315319Y-71468456D01*
X138330479Y-71494714D01*
X138330481Y-71494717D01*
X138449349Y-71613585D01*
X138449354Y-71613589D01*
X139204284Y-72368520D01*
X139204286Y-72368521D01*
X139204290Y-72368524D01*
X139319262Y-72434902D01*
X139341216Y-72447577D01*
X139493943Y-72488501D01*
X139493945Y-72488501D01*
X139659654Y-72488501D01*
X139659670Y-72488500D01*
X139848911Y-72488500D01*
X139915950Y-72508185D01*
X139961705Y-72560989D01*
X139972269Y-72599898D01*
X139979001Y-72665797D01*
X139979001Y-72665799D01*
X140025632Y-72806520D01*
X140034186Y-72832334D01*
X140126096Y-72981345D01*
X140126289Y-72981657D01*
X140153451Y-73008819D01*
X140186936Y-73070142D01*
X140181952Y-73139834D01*
X140153451Y-73184181D01*
X140130289Y-73207342D01*
X140038187Y-73356663D01*
X140038185Y-73356668D01*
X140029223Y-73383713D01*
X140001143Y-73468456D01*
X139983001Y-73523204D01*
X139983000Y-73523205D01*
X139976268Y-73589103D01*
X139949871Y-73653795D01*
X139892690Y-73693946D01*
X139852910Y-73700500D01*
X139492097Y-73700500D01*
X139425058Y-73680815D01*
X139404416Y-73664181D01*
X137931590Y-72191355D01*
X137931588Y-72191352D01*
X137812717Y-72072481D01*
X137812716Y-72072480D01*
X137724041Y-72021284D01*
X137675785Y-71993423D01*
X137523057Y-71952499D01*
X137523055Y-71952499D01*
X137515206Y-71950396D01*
X137516105Y-71947038D01*
X137466747Y-71925010D01*
X137436652Y-71886893D01*
X137375344Y-71766568D01*
X137345506Y-71725500D01*
X137236517Y-71575490D01*
X137069510Y-71408483D01*
X136878433Y-71269657D01*
X136667996Y-71162433D01*
X136443368Y-71089446D01*
X136210097Y-71052500D01*
X136210092Y-71052500D01*
X135973908Y-71052500D01*
X135973903Y-71052500D01*
X135740631Y-71089446D01*
X135516003Y-71162433D01*
X135305566Y-71269657D01*
X135219885Y-71331909D01*
X135114490Y-71408483D01*
X135114488Y-71408485D01*
X135114487Y-71408485D01*
X134947485Y-71575487D01*
X134947485Y-71575488D01*
X134947483Y-71575490D01*
X134919802Y-71613590D01*
X134808657Y-71766566D01*
X134701433Y-71977003D01*
X134628446Y-72201631D01*
X134591500Y-72434902D01*
X134591500Y-72671097D01*
X134628446Y-72904368D01*
X134701433Y-73128996D01*
X134804823Y-73331909D01*
X134808657Y-73339433D01*
X134947483Y-73530510D01*
X135114490Y-73697517D01*
X135305567Y-73836343D01*
X135404991Y-73887002D01*
X135516003Y-73943566D01*
X135516005Y-73943566D01*
X135516008Y-73943568D01*
X135605421Y-73972620D01*
X135740631Y-74016553D01*
X135973903Y-74053500D01*
X135973908Y-74053500D01*
X136210097Y-74053500D01*
X136443368Y-74016553D01*
X136667992Y-73943568D01*
X136878433Y-73836343D01*
X137069510Y-73697517D01*
X137236517Y-73530510D01*
X137292470Y-73453496D01*
X137347799Y-73410833D01*
X137417412Y-73404854D01*
X137479207Y-73437460D01*
X137480468Y-73438703D01*
X138707139Y-74665374D01*
X138707149Y-74665385D01*
X138711479Y-74669715D01*
X138711480Y-74669716D01*
X138823284Y-74781520D01*
X138896365Y-74823713D01*
X138960215Y-74860577D01*
X139112942Y-74901500D01*
X139112943Y-74901500D01*
X139852911Y-74901500D01*
X139919950Y-74921185D01*
X139965705Y-74973989D01*
X139976269Y-75012898D01*
X139983001Y-75078797D01*
X139983001Y-75078799D01*
X140038185Y-75245331D01*
X140038187Y-75245336D01*
X140053274Y-75269796D01*
X140130096Y-75394345D01*
X140130289Y-75394657D01*
X140174617Y-75438985D01*
X140208102Y-75500308D01*
X140203118Y-75570000D01*
X140174618Y-75614346D01*
X140126289Y-75662675D01*
X140034187Y-75811996D01*
X140034185Y-75812001D01*
X139979001Y-75978537D01*
X139979000Y-75978538D01*
X139972268Y-76044436D01*
X139945871Y-76109128D01*
X139888690Y-76149279D01*
X139848910Y-76155833D01*
X138308608Y-76155833D01*
X138269292Y-76166367D01*
X138269293Y-76166368D01*
X138155881Y-76196756D01*
X138155876Y-76196759D01*
X138018957Y-76275808D01*
X138018949Y-76275814D01*
X137907145Y-76387619D01*
X137707851Y-76586912D01*
X137646528Y-76620397D01*
X137576836Y-76615413D01*
X137520903Y-76573541D01*
X137502239Y-76537550D01*
X137482566Y-76477003D01*
X137382187Y-76279999D01*
X137375343Y-76266567D01*
X137236517Y-76075490D01*
X137069510Y-75908483D01*
X136878433Y-75769657D01*
X136841106Y-75750638D01*
X136667996Y-75662433D01*
X136443368Y-75589446D01*
X136210097Y-75552500D01*
X136210092Y-75552500D01*
X135973908Y-75552500D01*
X135973903Y-75552500D01*
X135740631Y-75589446D01*
X135516003Y-75662433D01*
X135305566Y-75769657D01*
X135196550Y-75848862D01*
X135114490Y-75908483D01*
X135114488Y-75908485D01*
X135114487Y-75908485D01*
X134947485Y-76075487D01*
X134947485Y-76075488D01*
X134947483Y-76075490D01*
X134902655Y-76137190D01*
X134808657Y-76266566D01*
X134701433Y-76477003D01*
X134628446Y-76701631D01*
X134591500Y-76934902D01*
X134591500Y-77171097D01*
X134628446Y-77404368D01*
X134701433Y-77628996D01*
X134808657Y-77839433D01*
X134947483Y-78030510D01*
X135114490Y-78197517D01*
X135305567Y-78336343D01*
X135375960Y-78372210D01*
X135516003Y-78443566D01*
X135516005Y-78443566D01*
X135516008Y-78443568D01*
X135616439Y-78476200D01*
X135740631Y-78516553D01*
X135973903Y-78553500D01*
X135973908Y-78553500D01*
X136210097Y-78553500D01*
X136443368Y-78516553D01*
X136667992Y-78443568D01*
X136878433Y-78336343D01*
X137069510Y-78197517D01*
X137236517Y-78030510D01*
X137236517Y-78030509D01*
X137236819Y-78030208D01*
X137298142Y-77996723D01*
X137367834Y-78001707D01*
X137423767Y-78043579D01*
X137448184Y-78109043D01*
X137448500Y-78117889D01*
X137448500Y-82636903D01*
X137439855Y-82666340D01*
X137433332Y-82696331D01*
X137429576Y-82701347D01*
X137428815Y-82703942D01*
X137412185Y-82724579D01*
X137363699Y-82773066D01*
X137350327Y-82786438D01*
X137289003Y-82819922D01*
X137219312Y-82814937D01*
X137163378Y-82773066D01*
X137152161Y-82755051D01*
X137136638Y-82724585D01*
X137121343Y-82694567D01*
X136982517Y-82503490D01*
X136815510Y-82336483D01*
X136624433Y-82197657D01*
X136597265Y-82183814D01*
X136413996Y-82090433D01*
X136189368Y-82017446D01*
X135956097Y-81980500D01*
X135956092Y-81980500D01*
X135719908Y-81980500D01*
X135719903Y-81980500D01*
X135486631Y-82017446D01*
X135262003Y-82090433D01*
X135051566Y-82197657D01*
X134948412Y-82272604D01*
X134860490Y-82336483D01*
X134860488Y-82336485D01*
X134860487Y-82336485D01*
X134693485Y-82503487D01*
X134693485Y-82503488D01*
X134693483Y-82503490D01*
X134684374Y-82516028D01*
X134554657Y-82694566D01*
X134447433Y-82905003D01*
X134374446Y-83129631D01*
X134337500Y-83362902D01*
X130838499Y-83362902D01*
X130838499Y-82433128D01*
X130832091Y-82373517D01*
X130818278Y-82336483D01*
X130781797Y-82238671D01*
X130781793Y-82238664D01*
X130695547Y-82123455D01*
X130695544Y-82123452D01*
X130580335Y-82037206D01*
X130580328Y-82037202D01*
X130445482Y-81986908D01*
X130445483Y-81986908D01*
X130385883Y-81980501D01*
X130385881Y-81980500D01*
X130385873Y-81980500D01*
X130385864Y-81980500D01*
X128290129Y-81980500D01*
X128290123Y-81980501D01*
X128230516Y-81986908D01*
X128095671Y-82037202D01*
X128095664Y-82037206D01*
X127980455Y-82123452D01*
X127980452Y-82123455D01*
X127894206Y-82238664D01*
X127894202Y-82238671D01*
X127843908Y-82373517D01*
X127839642Y-82413203D01*
X127837501Y-82433123D01*
X127837500Y-82433135D01*
X125214500Y-82433135D01*
X125214500Y-76934902D01*
X128091500Y-76934902D01*
X128091500Y-77171097D01*
X128128446Y-77404368D01*
X128201433Y-77628996D01*
X128308657Y-77839433D01*
X128447483Y-78030510D01*
X128614490Y-78197517D01*
X128805567Y-78336343D01*
X128875960Y-78372210D01*
X129016003Y-78443566D01*
X129016005Y-78443566D01*
X129016008Y-78443568D01*
X129116439Y-78476200D01*
X129240631Y-78516553D01*
X129473903Y-78553500D01*
X129473908Y-78553500D01*
X129710097Y-78553500D01*
X129943368Y-78516553D01*
X130167992Y-78443568D01*
X130378433Y-78336343D01*
X130569510Y-78197517D01*
X130736517Y-78030510D01*
X130875343Y-77839433D01*
X130982568Y-77628992D01*
X131055553Y-77404368D01*
X131063790Y-77352360D01*
X131092500Y-77171097D01*
X131092500Y-76934902D01*
X131055553Y-76701631D01*
X131013934Y-76573541D01*
X130982568Y-76477008D01*
X130982566Y-76477005D01*
X130982566Y-76477003D01*
X130882187Y-76279999D01*
X130875343Y-76266567D01*
X130736517Y-76075490D01*
X130569510Y-75908483D01*
X130378433Y-75769657D01*
X130341106Y-75750638D01*
X130167996Y-75662433D01*
X129943368Y-75589446D01*
X129710097Y-75552500D01*
X129710092Y-75552500D01*
X129473908Y-75552500D01*
X129473903Y-75552500D01*
X129240631Y-75589446D01*
X129016003Y-75662433D01*
X128805566Y-75769657D01*
X128696550Y-75848862D01*
X128614490Y-75908483D01*
X128614488Y-75908485D01*
X128614487Y-75908485D01*
X128447485Y-76075487D01*
X128447485Y-76075488D01*
X128447483Y-76075490D01*
X128402655Y-76137190D01*
X128308657Y-76266566D01*
X128201433Y-76477003D01*
X128128446Y-76701631D01*
X128091500Y-76934902D01*
X125214500Y-76934902D01*
X125214500Y-71505135D01*
X128091500Y-71505135D01*
X128091500Y-73600870D01*
X128091501Y-73600876D01*
X128097908Y-73660483D01*
X128148202Y-73795328D01*
X128148206Y-73795335D01*
X128234452Y-73910544D01*
X128234455Y-73910547D01*
X128349664Y-73996793D01*
X128349671Y-73996797D01*
X128484517Y-74047091D01*
X128484516Y-74047091D01*
X128491444Y-74047835D01*
X128544127Y-74053500D01*
X130639872Y-74053499D01*
X130699483Y-74047091D01*
X130834331Y-73996796D01*
X130949546Y-73910546D01*
X131035796Y-73795331D01*
X131086091Y-73660483D01*
X131092500Y-73600873D01*
X131092499Y-71505128D01*
X131086091Y-71445517D01*
X131078538Y-71425267D01*
X131035797Y-71310671D01*
X131035793Y-71310664D01*
X130949547Y-71195455D01*
X130949544Y-71195452D01*
X130834335Y-71109206D01*
X130834328Y-71109202D01*
X130699482Y-71058908D01*
X130699483Y-71058908D01*
X130639883Y-71052501D01*
X130639881Y-71052500D01*
X130639873Y-71052500D01*
X130639864Y-71052500D01*
X128544129Y-71052500D01*
X128544123Y-71052501D01*
X128484516Y-71058908D01*
X128349671Y-71109202D01*
X128349664Y-71109206D01*
X128234455Y-71195452D01*
X128234452Y-71195455D01*
X128148206Y-71310664D01*
X128148202Y-71310671D01*
X128097908Y-71445517D01*
X128092619Y-71494716D01*
X128091501Y-71505123D01*
X128091500Y-71505135D01*
X125214500Y-71505135D01*
X125214500Y-65637902D01*
X128091500Y-65637902D01*
X128091500Y-65874097D01*
X128128446Y-66107368D01*
X128201433Y-66331996D01*
X128308657Y-66542433D01*
X128447483Y-66733510D01*
X128614490Y-66900517D01*
X128805567Y-67039343D01*
X128904991Y-67090002D01*
X129016003Y-67146566D01*
X129016005Y-67146566D01*
X129016008Y-67146568D01*
X129136412Y-67185689D01*
X129240631Y-67219553D01*
X129473903Y-67256500D01*
X129473908Y-67256500D01*
X129710097Y-67256500D01*
X129943368Y-67219553D01*
X129984707Y-67206121D01*
X130167992Y-67146568D01*
X130378433Y-67039343D01*
X130569510Y-66900517D01*
X130736517Y-66733510D01*
X130875343Y-66542433D01*
X130982568Y-66331992D01*
X131055553Y-66107368D01*
X131078973Y-65959500D01*
X131092500Y-65874097D01*
X131092500Y-65637902D01*
X134591500Y-65637902D01*
X134591500Y-65874097D01*
X134628446Y-66107368D01*
X134701433Y-66331996D01*
X134808657Y-66542433D01*
X134947483Y-66733510D01*
X135114490Y-66900517D01*
X135305567Y-67039343D01*
X135404991Y-67090002D01*
X135516003Y-67146566D01*
X135516005Y-67146566D01*
X135516008Y-67146568D01*
X135636412Y-67185689D01*
X135740631Y-67219553D01*
X135973903Y-67256500D01*
X135973908Y-67256500D01*
X136210097Y-67256500D01*
X136443368Y-67219553D01*
X136484707Y-67206121D01*
X136667992Y-67146568D01*
X136878433Y-67039343D01*
X137069510Y-66900517D01*
X137236517Y-66733510D01*
X137375343Y-66542433D01*
X137482568Y-66331992D01*
X137555553Y-66107368D01*
X137578973Y-65959500D01*
X137592500Y-65874097D01*
X137592500Y-65637902D01*
X137555553Y-65404631D01*
X137482566Y-65180003D01*
X137375342Y-64969566D01*
X137236517Y-64778490D01*
X137069510Y-64611483D01*
X136878433Y-64472657D01*
X136667996Y-64365433D01*
X136443368Y-64292446D01*
X136210097Y-64255500D01*
X136210092Y-64255500D01*
X135973908Y-64255500D01*
X135973903Y-64255500D01*
X135740631Y-64292446D01*
X135516003Y-64365433D01*
X135305566Y-64472657D01*
X135231577Y-64526414D01*
X135114490Y-64611483D01*
X135114488Y-64611485D01*
X135114487Y-64611485D01*
X134947485Y-64778487D01*
X134947485Y-64778488D01*
X134947483Y-64778490D01*
X134920160Y-64816097D01*
X134808657Y-64969566D01*
X134701433Y-65180003D01*
X134628446Y-65404631D01*
X134591500Y-65637902D01*
X131092500Y-65637902D01*
X131055553Y-65404631D01*
X130982566Y-65180003D01*
X130875342Y-64969566D01*
X130736517Y-64778490D01*
X130569510Y-64611483D01*
X130378433Y-64472657D01*
X130167996Y-64365433D01*
X129943368Y-64292446D01*
X129710097Y-64255500D01*
X129710092Y-64255500D01*
X129473908Y-64255500D01*
X129473903Y-64255500D01*
X129240631Y-64292446D01*
X129016003Y-64365433D01*
X128805566Y-64472657D01*
X128731577Y-64526414D01*
X128614490Y-64611483D01*
X128614488Y-64611485D01*
X128614487Y-64611485D01*
X128447485Y-64778487D01*
X128447485Y-64778488D01*
X128447483Y-64778490D01*
X128420160Y-64816097D01*
X128308657Y-64969566D01*
X128201433Y-65180003D01*
X128128446Y-65404631D01*
X128091500Y-65637902D01*
X125214500Y-65637902D01*
X125214500Y-60208135D01*
X128091500Y-60208135D01*
X128091500Y-62303870D01*
X128091501Y-62303876D01*
X128097908Y-62363483D01*
X128148202Y-62498328D01*
X128148206Y-62498335D01*
X128234452Y-62613544D01*
X128234455Y-62613547D01*
X128349664Y-62699793D01*
X128349671Y-62699797D01*
X128484517Y-62750091D01*
X128484516Y-62750091D01*
X128491444Y-62750835D01*
X128544127Y-62756500D01*
X130639872Y-62756499D01*
X130699483Y-62750091D01*
X130834331Y-62699796D01*
X130949546Y-62613546D01*
X131035796Y-62498331D01*
X131086091Y-62363483D01*
X131092500Y-62303873D01*
X131092499Y-60208128D01*
X131086091Y-60148517D01*
X131076912Y-60123908D01*
X131035797Y-60013671D01*
X131035793Y-60013664D01*
X130949547Y-59898455D01*
X130949544Y-59898452D01*
X130834335Y-59812206D01*
X130834328Y-59812202D01*
X130699482Y-59761908D01*
X130699483Y-59761908D01*
X130639883Y-59755501D01*
X130639881Y-59755500D01*
X130639873Y-59755500D01*
X130639864Y-59755500D01*
X128544129Y-59755500D01*
X128544123Y-59755501D01*
X128484516Y-59761908D01*
X128349671Y-59812202D01*
X128349664Y-59812206D01*
X128234455Y-59898452D01*
X128234452Y-59898455D01*
X128148206Y-60013664D01*
X128148202Y-60013671D01*
X128097908Y-60148517D01*
X128091501Y-60208116D01*
X128091501Y-60208123D01*
X128091500Y-60208135D01*
X125214500Y-60208135D01*
X125214500Y-54220905D01*
X126245500Y-54220905D01*
X126245500Y-54491094D01*
X126275749Y-54759558D01*
X126275751Y-54759570D01*
X126335872Y-55022979D01*
X126425106Y-55277996D01*
X126542331Y-55521416D01*
X126542333Y-55521419D01*
X126686077Y-55750187D01*
X126854532Y-55961422D01*
X127045578Y-56152468D01*
X127256813Y-56320923D01*
X127485581Y-56464667D01*
X127729005Y-56581894D01*
X127984020Y-56671127D01*
X127984022Y-56671127D01*
X127984023Y-56671128D01*
X128247429Y-56731249D01*
X128515905Y-56761499D01*
X128515906Y-56761500D01*
X128515910Y-56761500D01*
X128786094Y-56761500D01*
X128786094Y-56761499D01*
X129054571Y-56731249D01*
X129317977Y-56671128D01*
X129572995Y-56581894D01*
X129816419Y-56464667D01*
X130045187Y-56320923D01*
X130256422Y-56152468D01*
X130447468Y-55961422D01*
X130615923Y-55750187D01*
X130759667Y-55521419D01*
X130876894Y-55277995D01*
X130966128Y-55022977D01*
X131026249Y-54759571D01*
X131056500Y-54491090D01*
X131056500Y-54220910D01*
X131026249Y-53952429D01*
X130966128Y-53689023D01*
X130876894Y-53434005D01*
X130759667Y-53190581D01*
X130615923Y-52961813D01*
X130447468Y-52750578D01*
X130256422Y-52559532D01*
X130045187Y-52391077D01*
X129816419Y-52247333D01*
X129816416Y-52247331D01*
X129572996Y-52130106D01*
X129317978Y-52040872D01*
X129317980Y-52040872D01*
X129120422Y-51995781D01*
X129054571Y-51980751D01*
X129054567Y-51980750D01*
X129054558Y-51980749D01*
X128786094Y-51950500D01*
X128786090Y-51950500D01*
X128515910Y-51950500D01*
X128515906Y-51950500D01*
X128247441Y-51980749D01*
X128247429Y-51980751D01*
X127984020Y-52040872D01*
X127729003Y-52130106D01*
X127485583Y-52247331D01*
X127256814Y-52391076D01*
X127045578Y-52559531D01*
X126854531Y-52750578D01*
X126686076Y-52961814D01*
X126542331Y-53190583D01*
X126425106Y-53434003D01*
X126335872Y-53689020D01*
X126275751Y-53952429D01*
X126275749Y-53952441D01*
X126245500Y-54220905D01*
X125214500Y-54220905D01*
X125214500Y-52423427D01*
X125214816Y-52414581D01*
X125229130Y-52214443D01*
X125229131Y-52214434D01*
X125231646Y-52196938D01*
X125273356Y-52005199D01*
X125278333Y-51988248D01*
X125346911Y-51804385D01*
X125354259Y-51788298D01*
X125416815Y-51673734D01*
X125448291Y-51616089D01*
X125457845Y-51601221D01*
X125575448Y-51444123D01*
X125587020Y-51430769D01*
X125725769Y-51292020D01*
X125739123Y-51280448D01*
X125896221Y-51162845D01*
X125911089Y-51153291D01*
X126083298Y-51059258D01*
X126099385Y-51051911D01*
X126283248Y-50983333D01*
X126300199Y-50978356D01*
X126491938Y-50936646D01*
X126509436Y-50934130D01*
X126709582Y-50919816D01*
X126718428Y-50919500D01*
X126779892Y-50919500D01*
X139636414Y-50919500D01*
X139703453Y-50939185D01*
G37*
%TD.AperFunction*%
%TD*%
M02*
